<svg xmlns="http://www.w3.org/2000/svg" xmlns:xlink="http://www.w3.org/1999/xlink" width="500"
    zoomAndPan="magnify" viewBox="10 30 500 375" height="300" preserveAspectRatio="xMidYMid meet"
    version="1.0">
    <defs>
        <clipPath id="93a9d26fe7">
            <path d="M 10 38 L 375 38 L 375 340.5 L 10 340.5 Z M 10 38 " clip-rule="nonzero" />
        </clipPath>
    </defs>
    <path fill="#ffffff"
        d="M 79.839844 133.636719 C 71.308594 143.773438 61.820312 156.894531 54.304688 172.160156 C 61.285156 179.996094 70.335938 189.929688 80.152344 200.089844 C 85.050781 184.332031 91.558594 168.203125 97.222656 155.273438 C 90.929688 147.679688 84.925781 140.148438 79.839844 133.636719 Z M 79.839844 133.636719 "
        fill-opacity="1" fill-rule="nonzero" />
    <path fill="#ffffff"
        d="M 83.121094 203.152344 C 93.777344 214.074219 105.152344 225.039062 115.621094 233.765625 C 116.71875 216.382812 118.984375 197.117188 120.972656 182.171875 C 114.269531 175.257812 106.964844 166.933594 99.90625 158.503906 C 94.238281 171.609375 87.828125 187.691406 83.121094 203.152344 Z M 83.121094 203.152344 "
        fill-opacity="1" fill-rule="nonzero" />
    <g clip-path="url(#93a9d26fe7)">
        <path fill="#ffffff"
            d="M 371.679688 132.707031 C 369.917969 126.714844 368.640625 123.753906 367.710938 122.253906 C 369.035156 119.046875 369.714844 115.675781 369.515625 112.121094 C 368.714844 97.628906 357.003906 78.503906 339.6875 63.402344 C 320.175781 46.378906 297.683594 37.523438 277.988281 39.117188 C 267.265625 39.988281 240.546875 59.71875 227.046875 71.757812 C 212.585938 74.503906 188.625 80.574219 191.46875 90.238281 C 193.457031 97 201.410156 99.15625 209.371094 98.546875 C 201.425781 114.394531 190.878906 136.289062 183.832031 151.421875 C 181.652344 156.09375 177.953125 162.464844 174.371094 168.628906 C 170.351562 175.542969 166.558594 182.078125 164.972656 186.070312 C 163.722656 189.226562 161.550781 197.414062 159.152344 207.464844 C 152.515625 158.277344 139.808594 97.816406 117.015625 89.5 C 77.792969 75.183594 -0.0273438 124.367188 11.175781 191.597656 C 20.042969 244.804688 116.25 293.722656 156.617188 307.488281 C 158.816406 313.527344 161.097656 318.175781 163.0625 319.558594 C 181.175781 332.289062 227.734375 340.265625 250.8125 340.265625 C 255.300781 340.265625 258.894531 339.964844 261.226562 339.335938 C 263.164062 338.820312 264.34375 338.050781 264.824219 336.992188 C 267.300781 331.617188 260.082031 322.070312 254.269531 314.402344 C 252.433594 311.976562 250.210938 309.050781 249.515625 307.664062 C 255.824219 304.695312 307.214844 299.570312 315.101562 304.746094 C 315.597656 305.074219 315.554688 305.222656 315.539062 305.28125 C 314.597656 308.476562 310.613281 312.574219 306.753906 316.546875 C 301.621094 321.824219 296.769531 326.808594 297.398438 331.097656 C 297.652344 332.832031 298.75 334.257812 300.664062 335.324219 C 302.976562 336.609375 306.675781 336.296875 311.972656 334.351562 C 329.277344 328.015625 358.859375 305.902344 361.535156 298.773438 C 364.152344 291.800781 365.527344 254.785156 355.9375 231.144531 C 345.050781 204.316406 328.003906 171.742188 316.222656 163.402344 C 317.128906 161.910156 323.046875 158.585938 328.296875 155.632812 C 332.871094 153.058594 338.085938 150.121094 343.222656 146.824219 C 343.179688 151.84375 343.515625 156.433594 344.757812 157.917969 C 345.285156 158.546875 345.882812 158.722656 346.292969 158.753906 C 346.644531 158.78125 347.074219 158.824219 347.566406 158.882812 C 349.085938 159.046875 351.039062 159.257812 352.984375 159.257812 C 355.710938 159.257812 358.4375 158.847656 359.964844 157.328125 C 360.890625 156.40625 361.316406 155.164062 361.183594 153.730469 C 361.558594 154.285156 361.972656 154.601562 362.472656 154.738281 C 364.5625 155.339844 369.460938 153.191406 372.121094 151.019531 C 374.050781 149.445312 374.964844 147.832031 374.839844 146.222656 C 374.6875 144.167969 373.265625 138.101562 371.679688 132.707031 Z M 140.042969 198.261719 C 135.964844 196.265625 130.460938 191.640625 124.285156 185.523438 C 122.296875 200.777344 120.125 219.863281 119.160156 236.65625 C 124.285156 240.753906 129.144531 244.234375 133.523438 246.792969 L 131.660156 249.980469 C 127.71875 247.679688 123.429688 244.679688 118.925781 241.1875 C 118.332031 254.300781 118.597656 265.574219 120.4375 271.792969 L 116.894531 272.847656 C 114.808594 265.808594 114.605469 252.984375 115.359375 238.359375 C 104.621094 229.636719 92.910156 218.476562 81.90625 207.269531 C 77.523438 222.582031 75.058594 236.945312 76.964844 246.726562 L 73.339844 247.4375 C 71.226562 236.574219 74.050781 220.761719 78.910156 204.207031 C 68.976562 193.964844 59.765625 183.890625 52.566406 175.8125 C 46.535156 188.90625 42.054688 203.445312 40.871094 218.941406 L 37.1875 218.65625 C 38.449219 202.109375 43.355469 186.640625 49.90625 172.808594 C 42.871094 164.855469 38.273438 159.402344 37.617188 158.628906 L 40.445312 156.246094 C 40.605469 156.433594 44.875 161.492188 51.679688 169.191406 C 59.394531 153.898438 68.96875 140.777344 77.535156 130.667969 C 70.476562 121.566406 65.613281 115.023438 64.972656 114.15625 L 67.9375 111.953125 C 68.097656 112.171875 72.871094 118.59375 80.015625 127.796875 C 90.8125 115.476562 99.445312 108.320312 99.664062 108.140625 L 102.003906 110.996094 C 101.785156 111.179688 93.09375 118.378906 82.316406 130.75 C 87.171875 136.960938 92.894531 144.160156 98.910156 151.464844 C 104.582031 138.738281 109.078125 129.84375 109.628906 128.746094 L 112.925781 130.417969 C 112.777344 130.703125 107.8125 140.550781 101.578125 154.6875 C 108.265625 162.730469 115.203125 170.71875 121.617188 177.503906 C 123.210938 165.917969 124.511719 157.789062 124.6875 156.699219 L 128.332031 157.285156 C 128.289062 157.574219 126.746094 167.226562 124.90625 180.917969 C 131.578125 187.722656 137.492188 192.882812 141.679688 194.929688 Z M 326.914062 153.183594 C 317.574219 158.4375 313.4375 160.871094 313.3125 163.445312 C 313.289062 163.941406 313.40625 164.894531 314.480469 165.640625 C 325.292969 173.144531 342.207031 204.8125 353.324219 232.210938 C 362.5 254.8125 361.335938 291.273438 358.894531 297.789062 C 356.71875 303.59375 328.085938 325.449219 311.007812 331.707031 C 305.210938 333.824219 302.910156 333.34375 302.054688 332.859375 C 300.378906 331.925781 300.25 330.996094 300.203125 330.691406 C 299.78125 327.773438 304.570312 322.855469 308.792969 318.511719 C 312.894531 314.300781 317.128906 309.945312 318.265625 306.078125 C 318.488281 305.332031 318.617188 303.890625 317.046875 302.648438 C 316.097656 301.894531 314.554688 301.324219 312.609375 300.894531 C 319.347656 301.683594 324.925781 300.960938 326.550781 296.105469 C 330.074219 285.527344 332.835938 225.179688 332.257812 221.148438 C 332.132812 220.257812 331.449219 218.183594 330.21875 214.957031 C 330.050781 214.511719 329.664062 214.183594 329.203125 214.082031 C 328.734375 213.980469 328.253906 214.117188 327.910156 214.453125 C 320.636719 221.617188 293.605469 231.085938 287.464844 227.398438 C 287.230469 227.261719 287.082031 227.09375 287.046875 226.691406 C 286.570312 221.136719 305.511719 202.554688 317.894531 191.832031 C 318.339844 191.84375 318.777344 191.648438 319.0625 191.28125 C 319.394531 190.859375 319.453125 190.28125 319.210938 189.789062 C 311.988281 175.179688 309.261719 173.695312 308.371094 173.203125 C 304.730469 171.214844 292.214844 170.199219 281.433594 170.070312 C 274.722656 169.980469 258.664062 170.140625 254.304688 173.308594 C 249.925781 176.492188 238.984375 190.070312 231.796875 201.238281 C 231.417969 201.824219 231.527344 202.597656 232.054688 203.066406 C 251.945312 220.550781 264.378906 233.972656 264.511719 238.085938 C 264.515625 238.234375 264.496094 238.351562 264.460938 238.386719 C 262.097656 240.75 243.507812 236.960938 227.011719 229.710938 C 226.542969 229.503906 225.992188 229.570312 225.585938 229.878906 C 225.175781 230.191406 224.96875 230.695312 225.042969 231.207031 C 228.320312 253.371094 236.972656 295.734375 238.339844 300.132812 C 240.496094 307.078125 257.0625 303.476562 276.855469 298.445312 C 281.007812 297.394531 284.589844 296.480469 286.417969 296.214844 C 288.867188 295.867188 293.890625 297.035156 299.210938 298.277344 C 302.148438 298.964844 305.191406 299.667969 308.136719 300.214844 C 300.167969 299.382812 289.167969 299.835938 281.785156 300.324219 C 268.027344 301.230469 251.433594 303.320312 247.785156 305.425781 C 246.542969 306.144531 246.46875 307.035156 246.535156 307.503906 C 246.761719 309.082031 248.574219 311.546875 252.039062 316.113281 C 256.535156 322.050781 264.050781 331.976562 262.28125 335.808594 C 262.28125 335.8125 261.9375 336.332031 259.773438 336.792969 C 244.757812 339.957031 184.898438 331.457031 164.707031 317.253906 C 163.085938 316.113281 159.738281 309.59375 155.628906 294.964844 C 152.515625 283.863281 150.203125 272.238281 150.144531 267.34375 C 150.066406 260.695312 163.320312 197.910156 167.59375 187.128906 C 169.101562 183.328125 172.84375 176.886719 176.8125 170.070312 C 180.425781 163.855469 184.167969 157.421875 186.394531 152.632812 C 197.464844 128.863281 217.179688 88.378906 221.726562 81.179688 C 223.550781 78.285156 234.070312 68.878906 246.8125 59.492188 C 261.148438 48.933594 272.886719 42.371094 278.222656 41.945312 C 279.664062 41.832031 281.125 41.773438 282.59375 41.773438 C 300.453125 41.773438 320.335938 50.273438 337.835938 65.542969 C 354.605469 80.179688 365.9375 98.527344 366.703125 112.296875 C 366.746094 113.144531 366.738281 113.992188 366.675781 114.828125 C 361.089844 113.210938 338.722656 112.683594 335.09375 124.46875 C 334.582031 126.128906 339.261719 128.132812 344.40625 129.609375 C 344.246094 130.332031 344.144531 131.078125 344.121094 131.875 C 343.894531 134.183594 343.492188 138.738281 343.3125 143.429688 C 337.710938 147.101562 331.921875 150.367188 326.914062 153.183594 Z M 234.816406 201.75 C 242.347656 190.25 252.390625 178.183594 255.949219 175.59375 C 258.382812 173.824219 268.605469 172.742188 281.382812 172.898438 C 293.332031 173.042969 304.347656 174.242188 307.003906 175.691406 C 307.820312 176.136719 310.3125 178.410156 316.007812 189.726562 C 310.855469 194.199219 283.492188 218.371094 284.226562 226.933594 C 284.335938 228.191406 284.949219 229.191406 286 229.820312 C 293.421875 234.273438 318.882812 225.222656 328.273438 217.859375 C 329.285156 220.632812 329.429688 221.40625 329.453125 221.550781 C 330.074219 225.894531 327.070312 285.59375 323.859375 295.214844 C 322.03125 300.683594 309.730469 297.816406 299.839844 295.523438 C 294.011719 294.160156 288.984375 292.992188 286.007812 293.417969 C 284.035156 293.703125 280.554688 294.585938 276.15625 295.703125 C 269.277344 297.453125 260.714844 299.628906 253.53125 300.625 C 243.070312 302.070312 241.308594 300.179688 241.03125 299.292969 C 239.730469 295.097656 231.710938 255.878906 228.207031 233.277344 C 240.335938 238.25 262.023438 244.804688 266.445312 240.375 C 266.871094 239.957031 267.359375 239.199219 267.324219 237.992188 C 267.113281 231.605469 249.75 214.9375 234.816406 201.75 Z M 370.746094 148.480469 C 368.421875 150.609375 364.589844 152 363.4375 152.035156 C 362.699219 150.851562 361.777344 145.960938 361.332031 143.546875 C 360.46875 138.964844 360.261719 137.875 359.144531 137.503906 C 358.65625 137.34375 358.113281 137.4375 357.710938 137.765625 C 356.796875 138.503906 356.726562 139.441406 357.871094 149.46875 C 358.054688 151.070312 358.238281 152.632812 358.371094 153.972656 C 358.449219 154.746094 358.203125 155.105469 357.976562 155.332031 C 356.300781 156.992188 350.386719 156.363281 347.867188 156.085938 C 347.484375 156.039062 347.132812 156.003906 346.828125 155.976562 C 345.882812 154.292969 345.65625 144.953125 346.929688 132.078125 C 346.929688 132.042969 346.9375 132.003906 346.9375 131.976562 C 346.953125 131.390625 347.023438 130.84375 347.128906 130.316406 C 351.175781 131.3125 354.992188 131.890625 356.300781 131.625 C 358.027344 131.28125 361.90625 127.238281 364.757812 123.226562 C 364.832031 123.242188 364.917969 123.261719 364.976562 123.277344 C 365.535156 123.8125 366.980469 126.617188 369.136719 134.074219 C 370.714844 139.535156 371.90625 144.878906 372.023438 146.441406 C 372.070312 146.960938 371.601562 147.699219 370.746094 148.480469 Z M 370.746094 148.480469 "
            fill-opacity="1" fill-rule="nonzero" />
    </g>
    <path fill="#ffffff"
        d="M 301.382812 110.113281 C 299.546875 110.113281 298.054688 111.605469 298.054688 113.4375 C 298.054688 115.273438 299.546875 116.765625 301.382812 116.765625 C 303.214844 116.765625 304.707031 115.273438 304.707031 113.4375 C 304.707031 111.597656 303.222656 110.113281 301.382812 110.113281 Z M 301.382812 110.113281 "
        fill-opacity="1" fill-rule="nonzero" />
    <path fill="#ffffff"
        d="M 301.371094 99.027344 C 302.097656 99.054688 302.808594 99.152344 303.515625 99.324219 C 304.21875 99.492188 304.898438 99.726562 305.558594 100.03125 C 306.214844 100.335938 306.835938 100.699219 307.421875 101.125 C 308.007812 101.550781 308.546875 102.03125 309.039062 102.5625 C 309.53125 103.09375 309.964844 103.667969 310.34375 104.285156 C 310.722656 104.902344 311.035156 105.550781 311.289062 106.230469 C 311.539062 106.910156 311.71875 107.609375 311.832031 108.324219 C 311.945312 109.039062 311.988281 109.757812 311.960938 110.480469 C 311.933594 111.207031 311.832031 111.917969 311.664062 112.625 C 311.496094 113.328125 311.257812 114.007812 310.957031 114.667969 C 310.652344 115.324219 310.289062 115.945312 309.863281 116.53125 C 309.4375 117.117188 308.957031 117.65625 308.425781 118.148438 C 307.894531 118.640625 307.320312 119.074219 306.703125 119.453125 C 306.082031 119.832031 305.433594 120.148438 304.753906 120.398438 C 304.078125 120.648438 303.378906 120.828125 302.664062 120.941406 C 301.949219 121.054688 301.230469 121.097656 300.503906 121.070312 C 299.78125 121.042969 299.066406 120.941406 298.363281 120.773438 C 297.660156 120.605469 296.976562 120.367188 296.320312 120.066406 C 295.664062 119.761719 295.039062 119.398438 294.453125 118.972656 C 293.867188 118.546875 293.328125 118.066406 292.839844 117.535156 C 292.347656 117.003906 291.910156 116.429688 291.535156 115.8125 C 291.15625 115.195312 290.839844 114.546875 290.589844 113.867188 C 290.339844 113.1875 290.15625 112.488281 290.042969 111.773438 C 289.929688 111.058594 289.886719 110.339844 289.917969 109.613281 C 289.945312 108.890625 290.042969 108.175781 290.214844 107.472656 C 290.382812 106.769531 290.617188 106.085938 290.921875 105.429688 C 291.226562 104.773438 291.589844 104.152344 292.015625 103.566406 C 292.441406 102.980469 292.917969 102.441406 293.453125 101.949219 C 293.984375 101.457031 294.558594 101.023438 295.175781 100.644531 C 295.792969 100.265625 296.441406 99.949219 297.121094 99.699219 C 297.800781 99.449219 298.5 99.265625 299.214844 99.152344 C 299.929688 99.039062 300.648438 99 301.371094 99.027344 Z M 301.371094 99.027344 "
        fill-opacity="1" fill-rule="nonzero" />
    <path fill="#252828"
        d="M 312.546875 113.878906 C 310.433594 120.277344 303.511719 123.769531 297.109375 121.65625 C 290.707031 119.546875 287.21875 112.621094 289.332031 106.21875 C 291.441406 99.820312 298.367188 96.328125 304.769531 98.441406 C 311.167969 100.550781 314.65625 107.476562 312.546875 113.878906 Z M 291.597656 106.96875 C 289.898438 112.117188 292.707031 117.691406 297.855469 119.390625 C 303.007812 121.089844 308.582031 118.28125 310.28125 113.128906 C 311.980469 107.980469 309.171875 102.40625 304.019531 100.707031 C 298.867188 99.007812 293.296875 101.816406 291.597656 106.96875 Z M 291.597656 106.96875 "
        fill-opacity="1" fill-rule="nonzero" />
    <path fill="#252828"
        d="M 298.589844 104.609375 C 298.878906 104.609375 299.175781 104.65625 299.46875 104.753906 C 300.972656 105.25 301.792969 106.875 301.296875 108.378906 C 300.796875 109.886719 299.175781 110.703125 297.667969 110.207031 C 296.390625 109.785156 295.609375 108.550781 295.703125 107.269531 C 295.550781 107.558594 295.417969 107.867188 295.308594 108.191406 C 294.285156 111.300781 295.972656 114.652344 299.082031 115.679688 C 302.191406 116.703125 305.542969 115.015625 306.566406 111.90625 C 307.59375 108.796875 305.90625 105.445312 302.796875 104.417969 C 301.359375 103.945312 299.875 104.050781 298.589844 104.609375 Z M 298.589844 104.609375 "
        fill-opacity="1" fill-rule="nonzero" />
</svg>