<svg xmlns="http://www.w3.org/2000/svg" xmlns:xlink="http://www.w3.org/1999/xlink" width="1080" zoomAndPan="magnify" viewBox="0 0 810 809.999993" height="1080" preserveAspectRatio="xMidYMid meet" version="1.0"><defs><clipPath id="fb3fc0ecc7"><path d="M 128.671875 554 L 753 554 L 753 749 L 128.671875 749 Z M 128.671875 554 " clip-rule="nonzero"/></clipPath><clipPath id="92cd3518dc"><path d="M 165 596 L 430 596 L 430 620 L 165 620 Z M 165 596 " clip-rule="nonzero"/></clipPath><clipPath id="bbc522c098"><path d="M 163.589844 562.789062 C 210.269531 560.949219 346.097656 551.941406 400.398438 557.0625 C 456.523438 562.351562 699.535156 554.511719 699.441406 554.164062 C 699.351562 553.816406 674.460938 557.9375 677.140625 646.175781 C 679.730469 730.964844 755.441406 729.6875 752.339844 730.144531 C 702.25 737.417969 428.898438 752.519531 390.625 746.957031 C 354.265625 741.667969 194.863281 742.960938 152.011719 730.984375 C 134.105469 725.96875 130.695312 686.910156 128.871094 641.632812 C 127.8125 615.101562 149.933594 563.316406 163.589844 562.789062 Z M 163.589844 562.789062 " clip-rule="evenodd"/></clipPath><clipPath id="86937169eb"><path d="M 314 669 L 648 669 L 648 695 L 314 695 Z M 314 669 " clip-rule="nonzero"/></clipPath><clipPath id="1ea218a4b8"><path d="M 163.589844 562.789062 C 210.269531 560.949219 346.097656 551.941406 400.398438 557.0625 C 456.523438 562.351562 699.535156 554.511719 699.441406 554.164062 C 699.351562 553.816406 674.460938 557.9375 677.140625 646.175781 C 679.730469 730.964844 755.441406 729.6875 752.339844 730.144531 C 702.25 737.417969 428.898438 752.519531 390.625 746.957031 C 354.265625 741.667969 194.863281 742.960938 152.011719 730.984375 C 134.105469 725.96875 130.695312 686.910156 128.871094 641.632812 C 127.8125 615.101562 149.933594 563.316406 163.589844 562.789062 Z M 163.589844 562.789062 " clip-rule="evenodd"/></clipPath><clipPath id="6ea9c42caa"><path d="M 442 575.28125 L 616 575.28125 L 616 597 L 442 597 Z M 442 575.28125 " clip-rule="nonzero"/></clipPath><clipPath id="37ace84298"><path d="M 163.589844 562.789062 C 210.269531 560.949219 346.097656 551.941406 400.398438 557.0625 C 456.523438 562.351562 699.535156 554.511719 699.441406 554.164062 C 699.351562 553.816406 674.460938 557.9375 677.140625 646.175781 C 679.730469 730.964844 755.441406 729.6875 752.339844 730.144531 C 702.25 737.417969 428.898438 752.519531 390.625 746.957031 C 354.265625 741.667969 194.863281 742.960938 152.011719 730.984375 C 134.105469 725.96875 130.695312 686.910156 128.871094 641.632812 C 127.8125 615.101562 149.933594 563.316406 163.589844 562.789062 Z M 163.589844 562.789062 " clip-rule="evenodd"/></clipPath><clipPath id="54362745d8"><path d="M 655 713 L 658 713 L 658 714 L 655 714 Z M 655 713 " clip-rule="nonzero"/></clipPath><clipPath id="aa78ef3966"><path d="M 163.589844 562.789062 C 210.269531 560.949219 346.097656 551.941406 400.398438 557.0625 C 456.523438 562.351562 699.535156 554.511719 699.441406 554.164062 C 699.351562 553.816406 674.460938 557.9375 677.140625 646.175781 C 679.730469 730.964844 755.441406 729.6875 752.339844 730.144531 C 702.25 737.417969 428.898438 752.519531 390.625 746.957031 C 354.265625 741.667969 194.863281 742.960938 152.011719 730.984375 C 134.105469 725.96875 130.695312 686.910156 128.871094 641.632812 C 127.8125 615.101562 149.933594 563.316406 163.589844 562.789062 Z M 163.589844 562.789062 " clip-rule="evenodd"/></clipPath><clipPath id="df4e691347"><path d="M 466 708 L 672 708 L 672 718 L 466 718 Z M 466 708 " clip-rule="nonzero"/></clipPath><clipPath id="f5e9a26717"><path d="M 163.589844 562.789062 C 210.269531 560.949219 346.097656 551.941406 400.398438 557.0625 C 456.523438 562.351562 699.535156 554.511719 699.441406 554.164062 C 699.351562 553.816406 674.460938 557.9375 677.140625 646.175781 C 679.730469 730.964844 755.441406 729.6875 752.339844 730.144531 C 702.25 737.417969 428.898438 752.519531 390.625 746.957031 C 354.265625 741.667969 194.863281 742.960938 152.011719 730.984375 C 134.105469 725.96875 130.695312 686.910156 128.871094 641.632812 C 127.8125 615.101562 149.933594 563.316406 163.589844 562.789062 Z M 163.589844 562.789062 " clip-rule="evenodd"/></clipPath><clipPath id="fb46b55ec8"><path d="M 184 721 L 380.742188 721 L 380.742188 736 L 184 736 Z M 184 721 " clip-rule="nonzero"/></clipPath><clipPath id="c820494f00"><path d="M 163.589844 562.789062 C 210.269531 560.949219 346.097656 551.941406 400.398438 557.0625 C 456.523438 562.351562 699.535156 554.511719 699.441406 554.164062 C 699.351562 553.816406 674.460938 557.9375 677.140625 646.175781 C 679.730469 730.964844 755.441406 729.6875 752.339844 730.144531 C 702.25 737.417969 428.898438 752.519531 390.625 746.957031 C 354.265625 741.667969 194.863281 742.960938 152.011719 730.984375 C 134.105469 725.96875 130.695312 686.910156 128.871094 641.632812 C 127.8125 615.101562 149.933594 563.316406 163.589844 562.789062 Z M 163.589844 562.789062 " clip-rule="evenodd"/></clipPath><clipPath id="8e096ad8a5"><path d="M 368 631 L 592 631 L 592 640 L 368 640 Z M 368 631 " clip-rule="nonzero"/></clipPath><clipPath id="9f6637e057"><path d="M 163.589844 562.789062 C 210.269531 560.949219 346.097656 551.941406 400.398438 557.0625 C 456.523438 562.351562 699.535156 554.511719 699.441406 554.164062 C 699.351562 553.816406 674.460938 557.9375 677.140625 646.175781 C 679.730469 730.964844 755.441406 729.6875 752.339844 730.144531 C 702.25 737.417969 428.898438 752.519531 390.625 746.957031 C 354.265625 741.667969 194.863281 742.960938 152.011719 730.984375 C 134.105469 725.96875 130.695312 686.910156 128.871094 641.632812 C 127.8125 615.101562 149.933594 563.316406 163.589844 562.789062 Z M 163.589844 562.789062 " clip-rule="evenodd"/></clipPath><clipPath id="001ef28966"><path d="M 128.707031 563 L 376 563 L 376 588 L 128.707031 588 Z M 128.707031 563 " clip-rule="nonzero"/></clipPath><clipPath id="80799dbf8e"><path d="M 163.589844 562.789062 C 210.269531 560.949219 346.097656 551.941406 400.398438 557.0625 C 456.523438 562.351562 699.535156 554.511719 699.441406 554.164062 C 699.351562 553.816406 674.460938 557.9375 677.140625 646.175781 C 679.730469 730.964844 755.441406 729.6875 752.339844 730.144531 C 702.25 737.417969 428.898438 752.519531 390.625 746.957031 C 354.265625 741.667969 194.863281 742.960938 152.011719 730.984375 C 134.105469 725.96875 130.695312 686.910156 128.871094 641.632812 C 127.8125 615.101562 149.933594 563.316406 163.589844 562.789062 Z M 163.589844 562.789062 " clip-rule="evenodd"/></clipPath><clipPath id="2e7abf867b"><path d="M 128.707031 660 L 301.386719 660 L 301.386719 670 L 128.707031 670 Z M 128.707031 660 " clip-rule="nonzero"/></clipPath><clipPath id="c14c991638"><path d="M 163.589844 562.789062 C 210.269531 560.949219 346.097656 551.941406 400.398438 557.0625 C 456.523438 562.351562 699.535156 554.511719 699.441406 554.164062 C 699.351562 553.816406 674.460938 557.9375 677.140625 646.175781 C 679.730469 730.964844 755.441406 729.6875 752.339844 730.144531 C 702.25 737.417969 428.898438 752.519531 390.625 746.957031 C 354.265625 741.667969 194.863281 742.960938 152.011719 730.984375 C 134.105469 725.96875 130.695312 686.910156 128.871094 641.632812 C 127.8125 615.101562 149.933594 563.316406 163.589844 562.789062 Z M 163.589844 562.789062 " clip-rule="evenodd"/></clipPath><clipPath id="9b34137168"><path d="M 416 562 L 744.847656 562 L 744.847656 577 L 416 577 Z M 416 562 " clip-rule="nonzero"/></clipPath><clipPath id="f96aecec9a"><path d="M 163.589844 562.789062 C 210.269531 560.949219 346.097656 551.941406 400.398438 557.0625 C 456.523438 562.351562 699.535156 554.511719 699.441406 554.164062 C 699.351562 553.816406 674.460938 557.9375 677.140625 646.175781 C 679.730469 730.964844 755.441406 729.6875 752.339844 730.144531 C 702.25 737.417969 428.898438 752.519531 390.625 746.957031 C 354.265625 741.667969 194.863281 742.960938 152.011719 730.984375 C 134.105469 725.96875 130.695312 686.910156 128.871094 641.632812 C 127.8125 615.101562 149.933594 563.316406 163.589844 562.789062 Z M 163.589844 562.789062 " clip-rule="evenodd"/></clipPath><clipPath id="2011a0b994"><path d="M 508 644 L 723 644 L 723 657 L 508 657 Z M 508 644 " clip-rule="nonzero"/></clipPath><clipPath id="0f3f13e1c8"><path d="M 163.589844 562.789062 C 210.269531 560.949219 346.097656 551.941406 400.398438 557.0625 C 456.523438 562.351562 699.535156 554.511719 699.441406 554.164062 C 699.351562 553.816406 674.460938 557.9375 677.140625 646.175781 C 679.730469 730.964844 755.441406 729.6875 752.339844 730.144531 C 702.25 737.417969 428.898438 752.519531 390.625 746.957031 C 354.265625 741.667969 194.863281 742.960938 152.011719 730.984375 C 134.105469 725.96875 130.695312 686.910156 128.871094 641.632812 C 127.8125 615.101562 149.933594 563.316406 163.589844 562.789062 Z M 163.589844 562.789062 " clip-rule="evenodd"/></clipPath><clipPath id="dc1b66786c"><path d="M 665 723 L 752.433594 723 L 752.433594 732 L 665 732 Z M 665 723 " clip-rule="nonzero"/></clipPath><clipPath id="fb4eeb494a"><path d="M 163.589844 562.789062 C 210.269531 560.949219 346.097656 551.941406 400.398438 557.0625 C 456.523438 562.351562 699.535156 554.511719 699.441406 554.164062 C 699.351562 553.816406 674.460938 557.9375 677.140625 646.175781 C 679.730469 730.964844 755.441406 729.6875 752.339844 730.144531 C 702.25 737.417969 428.898438 752.519531 390.625 746.957031 C 354.265625 741.667969 194.863281 742.960938 152.011719 730.984375 C 134.105469 725.96875 130.695312 686.910156 128.871094 641.632812 C 127.8125 615.101562 149.933594 563.316406 163.589844 562.789062 Z M 163.589844 562.789062 " clip-rule="evenodd"/></clipPath><clipPath id="0f0a580a05"><path d="M 128.707031 611 L 403 611 L 403 662 L 128.707031 662 Z M 128.707031 611 " clip-rule="nonzero"/></clipPath><clipPath id="538ae0df2f"><path d="M 163.589844 562.789062 C 210.269531 560.949219 346.097656 551.941406 400.398438 557.0625 C 456.523438 562.351562 699.535156 554.511719 699.441406 554.164062 C 699.351562 553.816406 674.460938 557.9375 677.140625 646.175781 C 679.730469 730.964844 755.441406 729.6875 752.339844 730.144531 C 702.25 737.417969 428.898438 752.519531 390.625 746.957031 C 354.265625 741.667969 194.863281 742.960938 152.011719 730.984375 C 134.105469 725.96875 130.695312 686.910156 128.871094 641.632812 C 127.8125 615.101562 149.933594 563.316406 163.589844 562.789062 Z M 163.589844 562.789062 " clip-rule="evenodd"/></clipPath><clipPath id="ebba1c3338"><path d="M 550 646 L 752.433594 646 L 752.433594 726 L 550 726 Z M 550 646 " clip-rule="nonzero"/></clipPath><clipPath id="65b086894d"><path d="M 163.589844 562.789062 C 210.269531 560.949219 346.097656 551.941406 400.398438 557.0625 C 456.523438 562.351562 699.535156 554.511719 699.441406 554.164062 C 699.351562 553.816406 674.460938 557.9375 677.140625 646.175781 C 679.730469 730.964844 755.441406 729.6875 752.339844 730.144531 C 702.25 737.417969 428.898438 752.519531 390.625 746.957031 C 354.265625 741.667969 194.863281 742.960938 152.011719 730.984375 C 134.105469 725.96875 130.695312 686.910156 128.871094 641.632812 C 127.8125 615.101562 149.933594 563.316406 163.589844 562.789062 Z M 163.589844 562.789062 " clip-rule="evenodd"/></clipPath><clipPath id="6c126b0fd1"><path d="M 399 577 L 736 577 L 736 635.964844 L 399 635.964844 Z M 399 577 " clip-rule="nonzero"/></clipPath><clipPath id="0268828869"><path d="M 163.589844 562.789062 C 210.269531 560.949219 346.097656 551.941406 400.398438 557.0625 C 456.523438 562.351562 699.535156 554.511719 699.441406 554.164062 C 699.351562 553.816406 674.460938 557.9375 677.140625 646.175781 C 679.730469 730.964844 755.441406 729.6875 752.339844 730.144531 C 702.25 737.417969 428.898438 752.519531 390.625 746.957031 C 354.265625 741.667969 194.863281 742.960938 152.011719 730.984375 C 134.105469 725.96875 130.695312 686.910156 128.871094 641.632812 C 127.8125 615.101562 149.933594 563.316406 163.589844 562.789062 Z M 163.589844 562.789062 " clip-rule="evenodd"/></clipPath><clipPath id="07cf99e7a1"><path d="M 299 706 L 631 706 L 631 748.25 L 299 748.25 Z M 299 706 " clip-rule="nonzero"/></clipPath><clipPath id="1e48d2975a"><path d="M 163.589844 562.789062 C 210.269531 560.949219 346.097656 551.941406 400.398438 557.0625 C 456.523438 562.351562 699.535156 554.511719 699.441406 554.164062 C 699.351562 553.816406 674.460938 557.9375 677.140625 646.175781 C 679.730469 730.964844 755.441406 729.6875 752.339844 730.144531 C 702.25 737.417969 428.898438 752.519531 390.625 746.957031 C 354.265625 741.667969 194.863281 742.960938 152.011719 730.984375 C 134.105469 725.96875 130.695312 686.910156 128.871094 641.632812 C 127.8125 615.101562 149.933594 563.316406 163.589844 562.789062 Z M 163.589844 562.789062 " clip-rule="evenodd"/></clipPath></defs><path fill="#a67a5c" d="M 649.1875 639.15625 C 650.082031 640.210938 649.554688 636.292969 649.773438 634.871094 C 650.246094 631.878906 650.8125 628.90625 651.613281 626.007812 C 654.074219 617.019531 643.589844 592 647.273438 583.558594 C 656.703125 562.058594 669.285156 558.414062 703.875 553.488281 C 805.769531 538.957031 826.972656 732.3125 741.015625 731.164062 C 740.070312 731.148438 725.027344 729.960938 722.015625 729.34375 C 701.339844 725.183594 681.136719 704.707031 673.789062 687.765625 C 669.410156 677.738281 649.1875 639.15625 649.1875 639.15625 Z M 649.1875 639.15625 " fill-opacity="1" fill-rule="evenodd"/><path fill="#363939" d="M 730.789062 680.601562 C 729.039062 680.109375 727.339844 677.210938 726.300781 675.933594 C 718.042969 665.90625 706.207031 639.464844 717.457031 627.867188 C 718.261719 627.066406 720.996094 624.476562 722.34375 625.167969 C 724.84375 626.445312 721.324219 636.765625 720.996094 638.679688 C 719.628906 646.738281 723.074219 677.976562 733.941406 680.019531 C 734.5625 680.128906 730.789062 680.601562 730.789062 680.601562 Z M 730.789062 680.601562 " fill-opacity="0.15" fill-rule="evenodd"/><path fill="#363939" d="M 729.273438 632.898438 C 730.203125 629.398438 731.480469 627.230469 735.785156 626.753906 C 756.042969 624.566406 760.800781 674.621094 745.375 679.761719 C 744.554688 680.054688 740.523438 680.601562 740.179688 679.214844 C 740.050781 678.722656 748.054688 671.136719 749.023438 667.398438 C 751.667969 657.007812 745.628906 635.34375 733.832031 631.804688 C 732.941406 631.53125 729.273438 632.898438 729.273438 632.898438 Z M 729.273438 632.898438 " fill-opacity="0.15" fill-rule="evenodd"/><path fill="#363939" d="M 732.847656 638.898438 C 732.867188 638.554688 732.210938 639.226562 732.007812 639.5 C 731.171875 640.648438 730.695312 642 730.242188 643.332031 C 729.128906 646.410156 728.234375 649.585938 727.796875 652.847656 C 726.558594 662.058594 729.640625 674.21875 741.472656 672.339844 C 745.410156 671.722656 735.855469 666.140625 734.761719 662.714844 C 732.519531 655.65625 736.894531 650.988281 736.640625 644.441406 C 736.550781 642.164062 734.597656 642.234375 734.269531 640.613281 C 734.199219 640.175781 732.847656 638.898438 732.847656 638.898438 Z M 732.847656 638.898438 " fill-opacity="0.15" fill-rule="evenodd"/><path fill="#363939" d="M 702.234375 625.058594 C 698.039062 610.652344 726.410156 600.863281 736.476562 600.714844 C 767.804688 600.261719 775.261719 633.792969 772.945312 659.175781 C 772.542969 663.515625 772.671875 671.703125 769.644531 675.296875 C 768.695312 676.425781 768.332031 671.375 768.3125 671.101562 C 768.023438 666.105469 768.113281 661.089844 767.859375 656.09375 C 767.238281 644.097656 764.414062 629.636719 756.972656 619.808594 C 745.101562 604.144531 704.3125 609.230469 704.3125 626.808594 C 704.3125 627.339844 702.234375 625.058594 702.234375 625.058594 Z M 702.234375 625.058594 " fill-opacity="0.15" fill-rule="evenodd"/><path fill="#363939" d="M 697.800781 636.019531 C 695.285156 636.492188 695.195312 652.683594 695.484375 654.488281 C 698.128906 670.902344 713.539062 683.117188 728.199219 688.988281 C 736.878906 692.472656 746.359375 694.167969 755.660156 692.835938 C 757.71875 692.5625 769.644531 689.007812 768.769531 690.15625 C 755.367188 707.699219 719.609375 695.609375 706.042969 683.773438 C 693.734375 673.035156 686.734375 653.050781 696.160156 638.917969 C 696.527344 638.371094 697.800781 636.019531 697.800781 636.019531 Z M 697.800781 636.019531 " fill-opacity="0.15" fill-rule="evenodd"/><path fill="#363939" d="M 691.21875 613.007812 C 689.632812 613.023438 690.691406 609.722656 690.980469 608.902344 C 693.898438 600.425781 700.152344 592.328125 706.683594 586.347656 C 709.582031 583.703125 712.699219 581.316406 715.964844 579.144531 C 732.832031 567.875 756.625 570.464844 769.136719 587.203125 C 776.136719 596.59375 779.601562 607.664062 782.171875 618.933594 C 782.773438 621.578125 786.257812 629.34375 785.234375 631.96875 C 785.070312 632.40625 784.597656 631.277344 784.359375 630.875 C 783.523438 629.507812 782.773438 628.085938 781.953125 626.699219 C 779.765625 622.960938 777.359375 619.351562 774.953125 615.761719 C 767.914062 605.328125 759.800781 595.007812 748.894531 588.410156 C 733.886719 579.308594 713.902344 585.417969 702.742188 598.109375 C 698.695312 602.722656 696.597656 608.394531 692.914062 613.132812 C 692.714844 613.40625 691.21875 613.007812 691.21875 613.007812 Z M 691.21875 613.007812 " fill-opacity="0.15" fill-rule="evenodd"/><path fill="#363939" d="M 690.269531 580.949219 C 689.886719 581.113281 689.996094 580.148438 690.015625 580.058594 C 691 575.644531 695.667969 570.429688 698.878906 567.546875 C 708.195312 559.140625 724.078125 555.128906 735.855469 560.621094 C 736.496094 560.894531 739.320312 561.785156 739.578125 562.460938 C 739.648438 562.605469 733.941406 563.117188 733.652344 563.136719 C 729.765625 563.445312 725.9375 564.046875 722.125 564.847656 C 711.96875 566.984375 693.863281 571.085938 690.488281 583.191406 C 690.378906 583.632812 690.269531 580.949219 690.269531 580.949219 Z M 690.269531 580.949219 " fill-opacity="0.15" fill-rule="evenodd"/><path fill="#363939" d="M 789.046875 653.214844 C 788.609375 653.214844 788.917969 657.734375 788.902344 658.191406 C 788.699219 663.222656 788.207031 668.238281 787.371094 673.199219 C 785.179688 686.199219 780.824219 705.164062 770.066406 714.078125 C 764.613281 718.582031 757.335938 721.59375 750.242188 721.59375 C 738.882812 721.59375 705.371094 704.90625 700.9375 693.382812 C 700.902344 693.292969 700.976562 693.3125 701.046875 693.328125 C 703.089844 693.949219 705.039062 695.898438 706.773438 697.085938 C 710.785156 699.839844 715.125 702.191406 719.28125 704.742188 C 731.5 712.238281 749.421875 714.570312 761.988281 706.21875 C 778.5625 695.226562 773.035156 675.496094 779.765625 659.46875 C 781.058594 656.421875 788.519531 638.679688 789.375 639.703125 C 790.214844 640.722656 789.046875 653.214844 789.046875 653.214844 Z M 789.046875 653.214844 " fill-opacity="0.15" fill-rule="evenodd"/><path fill="#363939" d="M 697.089844 590.105469 C 697.582031 588.519531 694.847656 592.804688 694.703125 593.148438 C 693.5 595.902344 692.386719 598.691406 691.421875 601.535156 C 688.574219 609.996094 687.007812 618.714844 686.148438 627.574219 C 684.875 640.976562 685.621094 654.542969 688.8125 667.636719 C 689.796875 671.613281 691.199219 675.441406 692.878906 679.140625 C 693.71875 680.984375 694.59375 682.808594 695.632812 684.539062 C 695.6875 684.632812 696.417969 686 696.378906 685.980469 C 693.84375 684.867188 691.929688 678.632812 690.890625 676.425781 C 679.878906 652.667969 679.113281 623.835938 687.609375 599.222656 C 691.109375 589.046875 705.351562 583.101562 696.597656 589.355469 C 696.433594 589.449219 697.089844 590.105469 697.089844 590.105469 Z M 697.089844 590.105469 " fill-opacity="0.15" fill-rule="evenodd"/><g clip-path="url(#fb3fc0ecc7)"><path fill="#363939" d="M 163.589844 562.789062 C 210.269531 560.949219 346.097656 551.941406 400.398438 557.0625 C 456.523438 562.351562 699.535156 554.511719 699.441406 554.164062 C 699.351562 553.816406 674.460938 557.9375 677.140625 646.175781 C 679.730469 730.964844 755.441406 729.6875 752.339844 730.144531 C 702.25 737.417969 428.898438 752.519531 390.625 746.957031 C 354.265625 741.667969 194.863281 742.964844 152.011719 730.984375 C 134.105469 725.96875 130.695312 686.910156 128.871094 641.632812 C 127.8125 615.101562 149.933594 563.316406 163.589844 562.789062 Z M 163.589844 562.789062 " fill-opacity="1" fill-rule="evenodd"/></g><g clip-path="url(#92cd3518dc)"><g clip-path="url(#bbc522c098)"><path fill="#a67a5c" d="M 207.734375 607.390625 C 217.617188 598.035156 274.273438 599.167969 287.65625 598.546875 C 289.714844 598.4375 291.777344 598.347656 293.835938 598.273438 C 334.355469 596.613281 375.089844 595.867188 415.570312 598.855469 C 416.972656 598.949219 429.773438 599.039062 429.683594 601.792969 C 429.609375 603.78125 423.628906 604.289062 422.519531 604.453125 C 393.398438 608.558594 362.746094 604.328125 333.496094 603.378906 C 296.171875 602.15625 265.703125 615.175781 229.46875 619.167969 C 208.007812 621.539062 187.402344 617.128906 166.179688 617.128906 C 157.625 617.128906 207.734375 607.390625 207.734375 607.390625 Z M 207.734375 607.390625 " fill-opacity="1" fill-rule="evenodd"/></g></g><g clip-path="url(#86937169eb)"><g clip-path="url(#1ea218a4b8)"><path fill="#a67a5c" d="M 515.824219 680.765625 C 524.558594 675.96875 592.71875 677.703125 605.300781 677.867188 C 615.839844 678.011719 626.394531 678.265625 636.882812 679.488281 C 638.101562 679.636719 647.621094 681.695312 647.421875 681.824219 C 632.085938 690.484375 452.660156 693.695312 424.066406 694.023438 C 400.875 694.296875 377.714844 694.167969 354.523438 693.566406 C 342.597656 693.257812 327.078125 694.277344 315.644531 690.046875 C 314.535156 689.628906 313.441406 688.425781 314.679688 687.421875 C 317.652344 684.996094 323.90625 684.484375 327.535156 683.792969 C 332.511719 682.84375 337.492188 682.898438 342.542969 682.898438 C 354.011719 682.898438 366.773438 684.375 377.660156 680.074219 C 383.386719 677.8125 391.992188 668.53125 398.484375 669.441406 C 404.976562 670.371094 515.824219 680.765625 515.824219 680.765625 Z M 515.824219 680.765625 " fill-opacity="1" fill-rule="evenodd"/></g></g><g clip-path="url(#6ea9c42caa)"><g clip-path="url(#37ace84298)"><path fill="#a67a5c" d="M 611.753906 587.132812 C 615.164062 588.355469 604.878906 583.539062 601.398438 583.121094 C 592.679688 582.097656 583.890625 581.953125 575.121094 581.699219 C 544.558594 580.804688 513.835938 582.445312 483.476562 578.597656 C 474.429688 577.449219 465.476562 575.84375 456.378906 575.515625 C 455.703125 575.480469 442.320312 575.5 442.8125 576.628906 C 443.304688 577.757812 448.007812 577.6875 448.757812 577.742188 C 490.019531 580.96875 530.007812 589.15625 571.035156 593.898438 C 585.515625 595.574219 600.359375 594.226562 614.746094 596.03125 C 616.605469 596.265625 611.753906 587.132812 611.753906 587.132812 Z M 611.753906 587.132812 " fill-opacity="1" fill-rule="evenodd"/></g></g><g clip-path="url(#54362745d8)"><g clip-path="url(#aa78ef3966)"><path fill="#a67a5c" d="M 655.863281 713.585938 C 656.464844 713.515625 657.03125 713.3125 657.613281 713.203125 C 657.976562 713.132812 655.863281 713.585938 655.863281 713.585938 Z M 655.863281 713.585938 " fill-opacity="1" fill-rule="evenodd"/></g></g><g clip-path="url(#df4e691347)"><g clip-path="url(#f5e9a26717)"><path fill="#a67a5c" d="M 671.417969 715.320312 C 650.007812 719.3125 623.222656 713.460938 601.433594 713.625 C 559.074219 713.933594 515.585938 720.535156 473.300781 716.632812 C 471.585938 716.46875 467.902344 716.542969 466.535156 715.117188 C 466.335938 714.917969 480.191406 710.613281 498.117188 709.683594 C 527.144531 708.152344 556.429688 709.011719 585.441406 710.871094 C 588.160156 711.054688 587.15625 709.355469 584.820312 708.863281 C 582.507812 708.371094 671.417969 715.320312 671.417969 715.320312 Z M 671.417969 715.320312 " fill-opacity="1" fill-rule="evenodd"/></g></g><g clip-path="url(#fb46b55ec8)"><g clip-path="url(#c820494f00)"><path fill="#a67a5c" d="M 380.722656 735.359375 C 380.613281 735.6875 380.121094 734.957031 379.777344 734.886719 C 376.878906 734.230469 373.796875 734.082031 370.839844 733.789062 C 358.515625 732.515625 346.023438 732.605469 333.625 732.476562 C 295.425781 732.113281 257.039062 731.546875 218.914062 728.722656 C 214.609375 728.410156 186.273438 726.097656 184.375 722.046875 C 183.757812 720.71875 194.972656 721.355469 195.574219 721.429688 C 204.542969 722.265625 213.535156 722.757812 222.523438 723.453125 C 231.585938 724.144531 240.648438 724.234375 249.730469 724.546875 C 265.464844 725.058594 281.238281 725.058594 296.972656 725.621094 C 319.695312 726.441406 342.230469 729.085938 364.988281 729.796875 C 368.324219 729.90625 380.722656 735.359375 380.722656 735.359375 Z M 380.722656 735.359375 " fill-opacity="1" fill-rule="evenodd"/></g></g><g clip-path="url(#8e096ad8a5)"><g clip-path="url(#9f6637e057)"><path fill="#a67a5c" d="M 427.96875 632.042969 C 463.726562 631.550781 499.59375 632.699219 535.332031 633.722656 C 548.171875 634.085938 561.042969 634.433594 573.863281 635.488281 C 578.714844 635.890625 583.636719 636.328125 588.414062 637.3125 C 588.46875 637.3125 592.316406 638.28125 591.769531 638.664062 C 588.722656 640.722656 536.136719 635.34375 529.644531 634.996094 C 476.363281 632.117188 422.71875 631.023438 369.347656 631.023438 C 357.621094 631.023438 427.96875 632.042969 427.96875 632.042969 Z M 427.96875 632.042969 " fill-opacity="1" fill-rule="evenodd"/></g></g><g clip-path="url(#001ef28966)"><g clip-path="url(#80799dbf8e)"><path fill="#a67a5c" d="M 137.550781 574.441406 C 137.734375 574.769531 138.625 574.714844 138.898438 574.734375 C 155.273438 575.425781 171.941406 573.839844 188.261719 572.636719 C 233.0625 569.316406 277.300781 565.195312 322.300781 564.59375 C 338.96875 564.375 356.820312 562.480469 373.375 565.140625 C 373.976562 565.234375 374.796875 565.160156 375.125 565.671875 C 376.074219 567.183594 371.714844 566.78125 369.964844 567.039062 C 352.242188 569.589844 334.171875 570.175781 316.355469 571.523438 C 275.074219 574.660156 233.808594 578.816406 192.671875 583.355469 C 174.804688 585.328125 156.640625 588.027344 138.609375 587.167969 C 136.476562 587.078125 119.425781 587.496094 122.015625 584.925781 C 124.605469 582.335938 137.550781 574.441406 137.550781 574.441406 Z M 137.550781 574.441406 " fill-opacity="1" fill-rule="evenodd"/></g></g><g clip-path="url(#2e7abf867b)"><g clip-path="url(#c14c991638)"><path fill="#a67a5c" d="M 143.113281 664.574219 C 142.164062 664.042969 145.246094 664.261719 146.320312 664.171875 C 149.96875 663.863281 153.617188 663.535156 157.261719 663.261719 C 166.890625 662.550781 176.554688 662.019531 186.183594 661.492188 C 212.347656 660.050781 238.1875 661.089844 264.316406 661.492188 C 273.578125 661.621094 282.824219 661.636719 292.085938 661.636719 C 292.617188 661.636719 301.421875 661.855469 301.222656 662.203125 C 300.53125 663.425781 265.8125 666.050781 262.492188 666.289062 C 220.460938 669.1875 173.507812 670.972656 131.589844 667.363281 C 127.175781 667 122.816406 666.453125 118.441406 665.703125 C 118.277344 665.667969 114.832031 664.902344 115.050781 664.699219 C 117.3125 662.605469 155.164062 663.222656 159.613281 663.058594 C 170.480469 662.695312 181.351562 662.3125 192.21875 662.058594 C 202.046875 661.820312 143.113281 664.574219 143.113281 664.574219 Z M 143.113281 664.574219 " fill-opacity="1" fill-rule="evenodd"/></g></g><g clip-path="url(#9b34137168)"><g clip-path="url(#f96aecec9a)"><path fill="#a67a5c" d="M 538.835938 564.191406 C 538.726562 563.847656 549.335938 564.558594 550.140625 564.59375 C 562.394531 565.121094 574.683594 565.617188 586.957031 566.070312 C 618.097656 567.183594 649.28125 567.765625 680.425781 569.226562 C 699.316406 570.101562 718.332031 570.464844 737.042969 573.457031 C 737.28125 573.492188 744.863281 575.023438 744.589844 575.371094 C 743.058594 577.285156 689.886719 574.441406 685.019531 574.222656 C 629.148438 571.597656 573.007812 573.4375 517.226562 569.863281 C 494.816406 568.421875 472.386719 568.078125 449.980469 566.78125 C 448.847656 566.710938 404.246094 563.246094 419.945312 562.878906 C 435.628906 562.515625 538.835938 564.191406 538.835938 564.191406 Z M 538.835938 564.191406 " fill-opacity="1" fill-rule="evenodd"/></g></g><g clip-path="url(#2011a0b994)"><g clip-path="url(#0f3f13e1c8)"><path fill="#a67a5c" d="M 686.386719 655.582031 C 678.089844 653.285156 654.511719 656.238281 645.285156 656.40625 C 614.527344 656.953125 583.800781 655.894531 553.039062 656.386719 C 547.789062 656.460938 509.769531 656.859375 508.894531 654.910156 C 508.472656 653.941406 523.972656 652.449219 534.257812 651.644531 C 551.289062 650.3125 568.335938 649.710938 585.40625 649.402344 C 617.898438 648.800781 650.320312 647.230469 682.777344 645.957031 C 691.402344 645.609375 713.738281 643.074219 721.707031 646.066406 C 728.546875 648.636719 686.386719 655.582031 686.386719 655.582031 Z M 686.386719 655.582031 " fill-opacity="1" fill-rule="evenodd"/></g></g><g clip-path="url(#dc1b66786c)"><g clip-path="url(#fb4eeb494a)"><path fill="#a67a5c" d="M 754.128906 725.933594 C 754.21875 725.660156 748.09375 726.515625 747.398438 726.589844 C 742.019531 727.152344 736.640625 727.683594 731.242188 728.011719 C 716.054688 728.921875 700.828125 729.597656 685.621094 730.21875 C 682.285156 730.34375 667.714844 732.167969 665.089844 730.546875 C 665.035156 730.527344 665 730.4375 665.035156 730.398438 C 665.964844 729.121094 687.773438 727.863281 690.035156 727.699219 C 714.011719 725.96875 738.101562 723.945312 762.113281 723.140625 C 763.808594 723.085938 754.128906 725.933594 754.128906 725.933594 Z M 754.128906 725.933594 " fill-opacity="1" fill-rule="evenodd"/></g></g><g clip-path="url(#0f0a580a05)"><g clip-path="url(#538ae0df2f)"><path fill="#a67a5c" d="M 131.277344 634.414062 C 174.257812 631.132812 217.417969 630.65625 260.359375 626.554688 C 286.472656 624.054688 312.21875 619.207031 338.183594 615.632812 C 345.585938 614.609375 399.925781 607.902344 402.53125 613.515625 C 403.570312 615.761719 397.753906 617.65625 396.679688 618.039062 C 364.332031 629.929688 327.296875 628.796875 293.765625 636.511719 C 277.042969 640.359375 260.324219 643.988281 243.109375 644.496094 C 222.558594 645.117188 201.863281 642.5625 181.367188 644.988281 C 163.828125 647.066406 147.433594 653.925781 130.148438 657.0625 C 108.484375 660.980469 85.746094 661.054688 63.792969 661.472656 C 49.242188 661.765625 131.277344 634.414062 131.277344 634.414062 Z M 131.277344 634.414062 " fill-opacity="0.15" fill-rule="evenodd"/></g></g><g clip-path="url(#ebba1c3338)"><g clip-path="url(#65b086894d)"><path fill="#a67a5c" d="M 755.734375 714.917969 C 755.585938 712.894531 740.050781 716.777344 734.398438 717.816406 C 714.667969 721.429688 691.984375 726.222656 671.835938 725.113281 C 660.730469 724.507812 671.746094 718.820312 675.738281 716.433594 C 685.148438 710.832031 661.863281 708.519531 658.726562 708.027344 C 648.367188 706.4375 652.378906 697.304688 641.96875 697.886719 C 613.320312 699.511719 584.875 704.90625 556.085938 702.703125 C 555.703125 702.664062 550.542969 702.519531 550.941406 701.023438 C 552.253906 696.101562 637.171875 687.511719 659.800781 682.878906 C 673.515625 680.074219 689.851562 676.644531 700.261719 666.46875 C 707.628906 659.25 711.023438 651.078125 720.941406 646.59375 C 730.859375 642.109375 755.734375 714.917969 755.734375 714.917969 Z M 755.734375 714.917969 " fill-opacity="0.15" fill-rule="evenodd"/></g></g><g clip-path="url(#6c126b0fd1)"><g clip-path="url(#0268828869)"><path fill="#a67a5c" d="M 687.683594 603.816406 C 687.027344 602.867188 676.304688 605.039062 675.191406 605.128906 C 624.753906 608.976562 572.257812 605.695312 522.078125 600.222656 C 483.96875 596.085938 446.859375 576.046875 408.3125 577.210938 C 406.269531 577.285156 399.652344 577.265625 399.050781 580.238281 C 397.355469 588.445312 441.902344 592.914062 457.5625 606.167969 C 461.738281 609.722656 464.074219 615.632812 468.796875 618.402344 C 486.667969 628.832031 524.886719 619.570312 545.835938 621.503906 C 570.324219 623.765625 593.117188 633.792969 617.84375 635.214844 C 656.390625 637.441406 695.648438 628.777344 734.269531 627.757812 C 744.738281 627.464844 687.683594 603.816406 687.683594 603.816406 Z M 687.683594 603.816406 " fill-opacity="0.15" fill-rule="evenodd"/></g></g><g clip-path="url(#07cf99e7a1)"><g clip-path="url(#1e48d2975a)"><path fill="#363939" d="M 630.789062 756.96875 C 628.640625 753.464844 563.578125 744.367188 556.777344 743.164062 C 527.859375 738.074219 496.933594 736.488281 468.667969 728.574219 C 455.667969 724.929688 445.914062 714.480469 432.546875 712.367188 C 411.59375 709.027344 389.621094 714.609375 368.308594 712.183594 C 359.863281 711.234375 304.140625 703.648438 299.089844 707.953125 C 298.6875 708.28125 299.890625 708.628906 300.382812 708.773438 C 310.03125 711.636719 320.640625 712.3125 330.542969 713.859375 C 349.359375 716.796875 372.097656 717.800781 389.203125 726.953125 C 401.585938 733.570312 392.304688 743.949219 399.488281 752.0625 C 404.738281 757.988281 415.277344 761.085938 422.335938 764.152344 C 429.390625 767.195312 630.789062 756.96875 630.789062 756.96875 Z M 630.789062 756.96875 " fill-opacity="0.15" fill-rule="evenodd"/></g></g><path fill="#363939" d="M 301.167969 512.296875 C 301.167969 512.296875 283.699219 196.222656 210.179688 169.492188 C 136.65625 142.761719 -9.035156 234.699219 11.96875 360.605469 C 32.976562 486.515625 315.207031 599.730469 317.542969 583.355469 C 319.859375 567.128906 301.167969 512.296875 301.167969 512.296875 Z M 301.167969 512.296875 " fill-opacity="1" fill-rule="nonzero"/><path fill="#a67a5c" d="M 581.628906 309.859375 C 568.394531 300.578125 683.671875 266.480469 680.515625 211.921875 C 677.523438 157.347656 591.441406 71.28125 511.921875 77.683594 C 493.503906 79.195312 446.988281 113.019531 421.203125 135.246094 C 395.148438 139.898438 343.855469 151.496094 349.597656 170.859375 C 353.554688 184.351562 370.332031 188.035156 386.285156 186.140625 C 371.277344 216.007812 350.949219 258.164062 337.726562 286.664062 C 329.121094 305.226562 307.988281 337.414062 302.390625 351.472656 C 294.75 370.707031 269.386719 488.976562 269.511719 502.742188 C 269.785156 522.382812 287.382812 590.996094 297.886719 598.363281 C 341.683594 629.199219 478.496094 645.152344 484.640625 632.0625 C 490.640625 618.96875 456.398438 584.597656 455.304688 577.503906 C 454.355469 570.410156 589.542969 557.320312 584.492188 574.496094 C 579.441406 591.691406 536.207031 617.054688 555.429688 627.703125 C 573.445312 637.785156 659.65625 576.539062 665.65625 560.582031 C 670.160156 548.585938 673.019531 479.695312 655.152344 435.769531 C 633.199219 381.066406 601.816406 323.917969 581.628906 309.859375 Z M 581.628906 309.859375 " fill-opacity="1" fill-rule="nonzero"/><path fill="#e3ded7" d="M 638.375 248.882812 C 638.375 248.882812 633.726562 295.945312 640.015625 296.496094 C 646.289062 297.042969 666.054688 300.449219 665.109375 289.949219 C 664.011719 279.445312 661.570312 261.300781 663.066406 261.847656 C 664.707031 262.394531 667.148438 288.035156 670.832031 289.128906 C 674.515625 290.222656 691.164062 282.710938 690.617188 275.890625 C 690.070312 269.070312 680.515625 231.835938 675.757812 230.195312 C 671.105469 228.699219 638.777344 226.929688 638.375 248.882812 Z M 638.375 248.882812 " fill-opacity="1" fill-rule="nonzero"/><path fill="#363939" d="M 618.738281 234.824219 C 616.824219 240.96875 652.417969 249.558594 658.433594 248.335938 C 664.5625 247.117188 685.164062 221.058594 679.714844 217.503906 C 674.390625 214.09375 626.105469 210.957031 618.738281 234.824219 Z M 618.738281 234.824219 " fill-opacity="1" fill-rule="nonzero"/><path fill="#2b323d" d="M 561.847656 214.238281 C 561.847656 215.058594 561.683594 215.863281 561.371094 216.628906 C 561.042969 217.410156 560.589844 218.085938 560.003906 218.667969 C 559.421875 219.253906 558.746094 219.710938 557.980469 220.039062 C 557.195312 220.347656 556.414062 220.511719 555.574219 220.511719 C 554.734375 220.511719 553.933594 220.347656 553.167969 220.039062 C 552.402344 219.710938 551.726562 219.253906 551.144531 218.667969 C 550.542969 218.085938 550.085938 217.410156 549.773438 216.628906 C 549.445312 215.863281 549.300781 215.058594 549.300781 214.238281 C 549.300781 213.398438 549.445312 212.597656 549.773438 211.832031 C 550.085938 211.066406 550.542969 210.390625 551.144531 209.789062 C 551.726562 209.207031 552.402344 208.75 553.167969 208.441406 C 553.933594 208.113281 554.734375 207.964844 555.574219 207.964844 C 556.414062 207.964844 557.195312 208.113281 557.980469 208.441406 C 558.746094 208.75 559.421875 209.207031 560.003906 209.789062 C 560.589844 210.390625 561.042969 211.066406 561.371094 211.832031 C 561.683594 212.597656 561.847656 213.398438 561.847656 214.238281 Z M 561.847656 214.238281 " fill-opacity="1" fill-rule="nonzero"/><path fill="#e3ded7" d="M 610.824219 416.402344 C 610.550781 414.890625 609.308594 410.933594 607.140625 405.351562 C 592.679688 419.539062 541.113281 437.8125 528.148438 430.042969 C 513.015625 420.90625 585.714844 358.289062 585.714844 358.289062 C 585.988281 358.289062 586.261719 358.417969 586.683594 358.417969 C 579.316406 343.558594 571.949219 331.011719 567.445312 328.550781 C 555.847656 322.132812 480.683594 320.089844 468.941406 328.550781 C 461.574219 333.875 441.535156 358.417969 427.476562 380.117188 C 445.894531 396.34375 496.367188 442.039062 488.324219 450.082031 C 481.632812 456.773438 441.9375 446.144531 415.207031 434.402344 C 421.351562 476.140625 437.578125 555.257812 440.023438 563.171875 C 444.800781 578.597656 512.320312 556.078125 527.199219 554.035156 C 542.0625 551.847656 593.902344 574.640625 600.175781 555.675781 C 606.59375 536.566406 611.917969 423.769531 610.824219 416.402344 Z M 610.824219 416.402344 " fill-opacity="1" fill-rule="nonzero"/><path fill="#e3ded7" d="M 253.410156 373.152344 L 256.421875 366.878906 C 248.507812 363.066406 237.457031 353.367188 225.039062 340.695312 C 228.449219 315.039062 231.332031 296.894531 231.457031 296.347656 L 224.636719 295.273438 C 224.363281 297.316406 221.902344 312.59375 218.914062 334.277344 C 206.894531 321.585938 193.949219 306.578125 181.386719 291.589844 C 193.128906 265.113281 202.410156 246.695312 202.683594 246.148438 L 196.539062 243.011719 C 195.445312 245.074219 187.128906 261.703125 176.480469 285.570312 C 165.15625 271.933594 154.527344 258.4375 145.375 246.695312 C 165.578125 223.519531 181.804688 210.007812 182.207031 209.734375 L 177.847656 204.410156 C 177.449219 204.683594 161.199219 218.195312 141.015625 241.242188 C 127.648438 224.050781 118.640625 211.921875 118.367188 211.503906 L 112.789062 215.605469 C 114.011719 217.230469 123.144531 229.519531 136.382812 246.570312 C 120.28125 265.53125 102.265625 290.074219 87.824219 318.722656 C 75.132812 304.261719 67.074219 294.851562 66.800781 294.453125 L 61.496094 298.9375 C 62.71875 300.449219 71.304688 310.679688 84.542969 325.542969 C 72.273438 351.472656 63.117188 380.390625 60.675781 411.480469 L 67.621094 412.027344 C 69.808594 382.980469 78.269531 355.703125 89.59375 331.265625 C 103.085938 346.421875 120.28125 365.238281 138.972656 384.476562 C 129.835938 415.4375 124.511719 445.175781 128.46875 465.507812 L 135.289062 464.140625 C 131.734375 445.871094 136.382812 418.847656 144.570312 390.199219 C 165.15625 411.207031 187.128906 432.085938 207.167969 448.460938 C 205.820312 475.867188 206.09375 499.878906 210.03125 513.117188 L 216.722656 511.203125 C 213.316406 499.605469 212.765625 478.472656 213.863281 453.910156 C 222.324219 460.457031 230.363281 466.054688 237.730469 470.414062 L 241.285156 464.414062 C 233.097656 459.636719 223.964844 453.089844 214.410156 445.449219 C 216.175781 413.941406 220.28125 378.203125 223.964844 349.683594 C 235.414062 360.734375 245.789062 369.46875 253.410156 373.152344 Z M 92.730469 324.175781 C 106.769531 295.527344 124.511719 270.984375 140.613281 252.019531 C 150.152344 264.164062 161.347656 278.351562 173.21875 292.539062 C 162.566406 316.824219 150.425781 346.96875 141.289062 376.433594 C 122.746094 357.46875 105.824219 338.90625 92.730469 324.175781 Z M 146.742188 382.285156 C 155.621094 353.367188 167.621094 323.226562 178.25 298.683594 C 191.488281 314.492188 205.128906 330.046875 217.671875 343.011719 C 213.988281 370.964844 209.777344 407.121094 207.589844 439.726562 C 187.949219 423.351562 166.671875 402.765625 146.742188 382.285156 Z M 146.742188 382.285156 " fill-opacity="1" fill-rule="nonzero"/></svg>