<!-- Generated by IcoMoon.io -->
<svg version="1.1" xmlns="http://www.w3.org/2000/svg" width="19" height="24" viewBox="0 0 19 24">
<path d="M18.763 20.719l-0.080 0.080c-1.004 1.004-2.17 1.795-3.469 2.344-1.353 0.563-2.772 0.857-4.246 0.857s-2.906-0.295-4.246-0.857c-1.299-0.549-2.478-1.339-3.469-2.344-1.004-0.991-1.795-2.156-2.344-3.455-0.335-0.817-0.603-1.661-0.723-2.531v0c-0.054-0.375 0.469-0.455 0.643-0.482 0.415-0.067 0.696-0.040 0.75 0.268 0.013 0.013 0.013 0.027 0.013 0.054 0.054 0.268 0.188 1.071 0.616 2.129 0.442 1.098 1.125 2.116 2.036 3.027 0.871 0.871 1.888 1.554 3.027 2.036 1.165 0.496 2.411 0.75 3.696 0.75 1.272 0 2.518-0.254 3.696-0.75 1.125-0.482 2.143-1.165 3.013-2.036l0.080-0.080c0.094-0.094 0.201-0.121 0.335-0.080 0.121 0.027 0.268 0.134 0.442 0.295v0c0.429 0.442 0.335 0.656 0.228 0.777zM12.442 12.482l-0.884 0.884 0.844 0.844c0.094 0.094 0.268 0.295-0.094 0.656-0.147 0.147-0.295 0.228-0.429 0.228-0.094 0-0.174-0.040-0.254-0.134l-0.83-0.817-0.884 0.884c-0.027 0.027-0.094 0.067-0.201 0.067-0.121 0-0.268-0.067-0.415-0.214l-0.027-0.027c-0.094-0.080-0.241-0.228-0.241-0.388 0-0.080 0.040-0.147 0.107-0.228l0.884-0.871-0.884-0.884c-0.147-0.147-0.080-0.335 0.188-0.603 0.161-0.161 0.295-0.241 0.415-0.241 0.067 0 0.121 0.027 0.174 0.067l0.871 0.884 0.871-0.871c0.147-0.147 0.388-0.080 0.643 0.174 0.161 0.161 0.335 0.388 0.147 0.589zM18.75 13.246c0 1.058-0.214 2.089-0.616 3.054-0.402 0.938-0.964 1.768-1.688 2.491s-1.567 1.286-2.504 1.688c-0.964 0.415-1.996 0.616-3.054 0.616s-2.089-0.201-3.054-0.616c-0.938-0.402-1.781-0.964-2.504-1.688s-1.286-1.554-1.674-2.491c-0.080-0.174-0.201-0.509-0.201-0.536h-0.013c-0.121-0.375 0.415-0.536 0.576-0.589 0.388-0.121 0.683-0.174 0.804 0.161 0.321 0.857 0.817 1.688 1.299 2.237h0.013v-4.567c0.027-1.125 0.496-2.263 1.366-3.107 0.897-0.884 2.103-1.379 3.388-1.379 2.625 0 4.754 2.116 4.754 4.714 0 2.625-2.143 4.754-4.754 4.754-0.522 0-0.911-0.040-1.5-0.214-0.067-0.027-0.375-0.161-0.174-0.817 0.054-0.174 0.214-0.683 0.589-0.576 0.027 0 0.683 0.161 1.031 0.161 1.862 0 3.321-1.446 3.321-3.295 0-0.871-0.348-1.688-0.964-2.29-0.616-0.616-1.446-0.951-2.344-0.951-0.924 0-1.768 0.375-2.384 1.071-0.536 0.603-0.857 1.406-0.857 2.143v5.531c0.964 0.589 2.076 0.897 3.241 0.897 1.714 0 3.375-0.683 4.567-1.875 1.205-1.205 1.875-2.826 1.875-4.527 0-1.714-0.67-3.321-1.888-4.54-1.205-1.205-2.813-1.875-4.54-1.875s-3.348 0.67-4.554 1.875c-0.013 0.013-0.777 0.804-1.031 1.165l-0.027 0.027c-0.161 0.228-0.308 0.442-0.978 0.295-0.335-0.080-0.696-0.281-0.696-0.576v-9.107c0-0.241 0.188-0.509 0.509-0.509h11.746c0.402 0 0.402 0.563 0.402 0.737 0 0.188 0 0.737-0.402 0.737h-10.862v6.469h0.013c0.75-0.79 2.049-1.621 2.813-1.942 0.951-0.402 2.022-0.616 3.094-0.616 1.058 0 2.089 0.201 3.054 0.616 0.938 0.402 1.781 0.964 2.504 1.688s1.286 1.554 1.688 2.491c0.402 0.978 0.616 1.996 0.616 3.067zM18.335 5.464c0.254 0.228 0.080 0.469-0.174 0.763-0.161 0.161-0.335 0.348-0.522 0.348-0.080 0-0.147-0.027-0.214-0.094-0.964-0.83-1.835-1.393-2.772-1.781-1.165-0.509-2.411-0.75-3.696-0.75-1.138 0-2.384 0.228-3.509 0.656-0.348 0.134-0.536-0.321-0.603-0.496-0.080-0.214-0.121-0.388-0.107-0.509 0.027-0.134 0.094-0.228 0.214-0.268 1.098-0.482 2.598-0.763 4.004-0.763 1.46 0 2.893 0.295 4.232 0.857 1.232 0.522 2.237 1.165 3.147 2.036z"></path>
</svg>
