<!-- Generated by IcoMoon.io -->
<svg version="1.1" xmlns="http://www.w3.org/2000/svg" width="27" height="24" viewBox="0 0 27 24">
<path d="M13.714 15.147c0 1.165-0.763 1.996-1.714 1.996h-6.857c-0.951 0-1.714-0.83-1.714-1.996 0-2.076 0.509-4.379 2.625-4.379 0.656 0.375 1.54 1.018 2.518 1.018s1.862-0.643 2.518-1.018c2.116 0 2.625 2.304 2.625 4.379zM11.612 8.183c0 1.688-1.366 3.040-3.040 3.040s-3.040-1.353-3.040-3.040c0-1.674 1.366-3.040 3.040-3.040s3.040 1.366 3.040 3.040zM24 14.143v0.857c0 0.241-0.188 0.429-0.429 0.429h-7.714c-0.241 0-0.429-0.188-0.429-0.429v-0.857c0-0.241 0.188-0.429 0.429-0.429h7.714c0.241 0 0.429 0.188 0.429 0.429zM24 10.768v0.75c0 0.268-0.214 0.482-0.482 0.482h-7.607c-0.268 0-0.482-0.214-0.482-0.482v-0.75c0-0.268 0.214-0.482 0.482-0.482h7.607c0.268 0 0.482 0.214 0.482 0.482zM24 7.286v0.857c0 0.241-0.188 0.429-0.429 0.429h-7.714c-0.241 0-0.429-0.188-0.429-0.429v-0.857c0-0.241 0.188-0.429 0.429-0.429h7.714c0.241 0 0.429 0.188 0.429 0.429zM25.714 20.143v-16.286c0-0.228-0.201-0.429-0.429-0.429h-23.143c-0.228 0-0.429 0.201-0.429 0.429v16.286c0 0.228 0.201 0.429 0.429 0.429h4.714v-1.286c0-0.241 0.188-0.429 0.429-0.429h0.857c0.241 0 0.429 0.188 0.429 0.429v1.286h10.286v-1.286c0-0.241 0.188-0.429 0.429-0.429h0.857c0.241 0 0.429 0.188 0.429 0.429v1.286h4.714c0.228 0 0.429-0.201 0.429-0.429zM27.429 3.857v16.286c0 1.179-0.964 2.143-2.143 2.143h-23.143c-1.179 0-2.143-0.964-2.143-2.143v-16.286c0-1.179 0.964-2.143 2.143-2.143h23.143c1.179 0 2.143 0.964 2.143 2.143z"></path>
</svg>
