<!-- Generated by IcoMoon.io -->
<svg version="1.1" xmlns="http://www.w3.org/2000/svg" width="22" height="24" viewBox="0 0 22 24">
<path d="M13.768 8.625c0 1.915-1.567 3.469-3.482 3.469s-3.482-1.554-3.482-3.469c0-1.929 1.567-3.482 3.482-3.482s3.482 1.554 3.482 3.482zM13.125 11.571c2.558 0 2.96 3.040 2.96 5.009 0 1.125-0.71 2.277-1.942 2.277h-7.714c-1.232 0-1.942-1.152-1.942-2.277 0-1.888 0.402-5.009 2.893-5.009h0.067c0.884 0.522 1.781 1.165 2.839 1.165s1.955-0.643 2.839-1.165zM22.286 8.143c0 0.228-0.201 0.429-0.429 0.429h-1.286v1.714h1.286c0.228 0 0.429 0.201 0.429 0.429v2.571c0 0.228-0.201 0.429-0.429 0.429h-1.286v1.714h1.286c0.228 0 0.429 0.201 0.429 0.429v2.571c0 0.228-0.201 0.429-0.429 0.429h-1.286v3c0 1.179-0.964 2.143-2.143 2.143h-16.286c-1.179 0-2.143-0.964-2.143-2.143v-19.714c0-1.179 0.964-2.143 2.143-2.143h16.286c1.179 0 2.143 0.964 2.143 2.143v3h1.286c0.228 0 0.429 0.201 0.429 0.429v2.571zM18.857 21.857v-19.714c0-0.228-0.201-0.429-0.429-0.429h-16.286c-0.228 0-0.429 0.201-0.429 0.429v19.714c0 0.228 0.201 0.429 0.429 0.429h16.286c0.228 0 0.429-0.201 0.429-0.429z"></path>
</svg>
