<!-- Generated by IcoMoon.io -->
<svg version="1.1" xmlns="http://www.w3.org/2000/svg" width="22" height="24" viewBox="0 0 22 24">
<path d="M16.085 16.58c0-2.371-0.576-5.009-2.96-5.009-0.737 0.429-1.741 1.165-2.839 1.165s-2.103-0.737-2.839-1.165c-2.384 0-2.96 2.638-2.96 5.009 0 1.326 0.871 2.277 1.942 2.277h7.714c1.071 0 1.942-0.951 1.942-2.277zM13.768 8.625c0-1.929-1.567-3.482-3.482-3.482s-3.482 1.554-3.482 3.482c0 1.915 1.567 3.469 3.482 3.469s3.482-1.554 3.482-3.469zM22.286 15.857v2.571c0 0.241-0.188 0.429-0.429 0.429h-1.286v3c0 1.179-0.964 2.143-2.143 2.143h-16.286c-1.179 0-2.143-0.964-2.143-2.143v-19.714c0-1.179 0.964-2.143 2.143-2.143h16.286c1.179 0 2.143 0.964 2.143 2.143v3h1.286c0.241 0 0.429 0.188 0.429 0.429v2.571c0 0.241-0.188 0.429-0.429 0.429h-1.286v1.714h1.286c0.241 0 0.429 0.188 0.429 0.429v2.571c0 0.241-0.188 0.429-0.429 0.429h-1.286v1.714h1.286c0.241 0 0.429 0.188 0.429 0.429z"></path>
</svg>
