<!-- Generated by IcoMoon.io -->
<svg version="1.1" xmlns="http://www.w3.org/2000/svg" width="24" height="24" viewBox="0 0 24 24">
<path d="M24 18v1.714c0 0.469-0.388 0.857-0.857 0.857h-22.286c-0.469 0-0.857-0.388-0.857-0.857v-1.714c0-0.469 0.388-0.857 0.857-0.857h22.286c0.469 0 0.857 0.388 0.857 0.857zM18.857 12.857v1.714c0 0.469-0.388 0.857-0.857 0.857h-12c-0.469 0-0.857-0.388-0.857-0.857v-1.714c0-0.469 0.388-0.857 0.857-0.857h12c0.469 0 0.857 0.388 0.857 0.857zM22.286 7.714v1.714c0 0.469-0.388 0.857-0.857 0.857h-18.857c-0.469 0-0.857-0.388-0.857-0.857v-1.714c0-0.469 0.388-0.857 0.857-0.857h18.857c0.469 0 0.857 0.388 0.857 0.857zM17.143 2.571v1.714c0 0.469-0.388 0.857-0.857 0.857h-8.571c-0.469 0-0.857-0.388-0.857-0.857v-1.714c0-0.469 0.388-0.857 0.857-0.857h8.571c0.469 0 0.857 0.388 0.857 0.857z"></path>
</svg>
