<!-- Generated by IcoMoon.io -->
<svg version="1.1" xmlns="http://www.w3.org/2000/svg" width="24" height="24" viewBox="0 0 24 24">
<path d="M24 18v1.714c0 0.469-0.388 0.857-0.857 0.857h-22.286c-0.469 0-0.857-0.388-0.857-0.857v-1.714c0-0.469 0.388-0.857 0.857-0.857h22.286c0.469 0 0.857 0.388 0.857 0.857zM18.857 12.857v1.714c0 0.469-0.388 0.857-0.857 0.857h-17.143c-0.469 0-0.857-0.388-0.857-0.857v-1.714c0-0.469 0.388-0.857 0.857-0.857h17.143c0.469 0 0.857 0.388 0.857 0.857zM22.286 7.714v1.714c0 0.469-0.388 0.857-0.857 0.857h-20.571c-0.469 0-0.857-0.388-0.857-0.857v-1.714c0-0.469 0.388-0.857 0.857-0.857h20.571c0.469 0 0.857 0.388 0.857 0.857zM17.143 2.571v1.714c0 0.469-0.388 0.857-0.857 0.857h-15.429c-0.469 0-0.857-0.388-0.857-0.857v-1.714c0-0.469 0.388-0.857 0.857-0.857h15.429c0.469 0 0.857 0.388 0.857 0.857z"></path>
</svg>
