<!-- Generated by IcoMoon.io -->
<svg version="1.1" xmlns="http://www.w3.org/2000/svg" width="24" height="24" viewBox="0 0 24 24">
<path d="M20.772 19.768c0.402-0.201 0.71 0.107 0.295 0.643s-3.75 3.589-9.348 3.589-9.884-3.83-11.196-5.411c-0.362-0.415 0.054-0.603 0.295-0.442 3.924 2.384 10.058 6.308 19.955 1.621zM23.545 18.228c0.201 0.268 0 1.446-0.348 2.304-0.348 0.844-0.857 1.433-1.138 1.661-0.295 0.241-0.509 0.147-0.348-0.201s1.031-2.491 0.683-2.946c-0.348-0.442-1.982-0.228-2.571-0.174-0.576 0.054-0.696 0.107-0.75-0.013-0.121-0.308 1.165-0.83 2.009-0.938 0.844-0.094 2.196-0.040 2.464 0.308zM18.268 12.295c0 1.473 1.728 2.826 1.728 2.826l-3.040 3c-1.192-1.125-2.089-2.063-2.089-2.063-0.134-0.134-0.241-0.295-0.335-0.442-2.424 3.79-9.83 3.549-9.83-2.317 0-5.464 6.469-6.201 9.080-6.295v-1.701c0-0.362 0.134-2.009-1.902-2.009 0 0-2.036 0-2.906 2.652l-3.938-0.362c0-2.638 2.504-5.585 7.219-5.585 4.701 0 6.013 3.054 6.013 4.406v7.888zM9.268 12.576c0 2.719 4.513 3.362 4.513-0.924v-2.17c-1.808 0.054-4.513 0.563-4.513 3.094z"></path>
</svg>
