<!-- Generated by IcoMoon.io -->
<svg version="1.1" xmlns="http://www.w3.org/2000/svg" width="27" height="24" viewBox="0 0 27 24">
<path d="M8.571 18.857c0-0.951-0.763-1.714-1.714-1.714s-1.714 0.763-1.714 1.714 0.763 1.714 1.714 1.714 1.714-0.763 1.714-1.714zM3.429 12h5.143v-3.429h-2.116c-0.080 0.013-0.228 0.067-0.295 0.121l-2.612 2.612c-0.040 0.067-0.107 0.214-0.121 0.295v0.402zM20.571 18.857c0-0.951-0.763-1.714-1.714-1.714s-1.714 0.763-1.714 1.714 0.763 1.714 1.714 1.714 1.714-0.763 1.714-1.714zM22.286 9.857v-2.571c0-0.241-0.188-0.429-0.429-0.429h-3v-3c0-0.241-0.188-0.429-0.429-0.429h-2.571c-0.241 0-0.429 0.188-0.429 0.429v3h-3c-0.241 0-0.429 0.188-0.429 0.429v2.571c0 0.241 0.187 0.429 0.429 0.429h3v3c0 0.241 0.188 0.429 0.429 0.429h2.571c0.241 0 0.429-0.188 0.429-0.429v-3h3c0.241 0 0.429-0.188 0.429-0.429zM25.714 2.571v15.429c0 0.469-0.388 0.857-0.857 0.857h-2.571c0 1.888-1.527 3.429-3.429 3.429-1.888 0-3.429-1.54-3.429-3.429h-5.143c0 1.888-1.527 3.429-3.429 3.429s-3.429-1.54-3.429-3.429h-1.714c-0.469 0-0.857-0.388-0.857-0.857s0.388-0.857 0.857-0.857v-5.571c0-0.469 0.268-1.125 0.603-1.46l2.652-2.652c0.335-0.335 0.991-0.603 1.46-0.603h2.143v-4.286c0-0.469 0.388-0.857 0.857-0.857h15.429c0.469 0 0.857 0.388 0.857 0.857z"></path>
</svg>
