<!-- Generated by IcoMoon.io -->
<svg version="1.1" xmlns="http://www.w3.org/2000/svg" width="31" height="24" viewBox="0 0 31 24">
<path d="M13.821 12.857c-0.469-0.013-0.911-0.281-1.125-0.737-0.295-0.603-0.884-0.978-1.554-0.978-0.951 0-1.714 0.763-1.714 1.714 0 0.455 0.161 0.897 0.482 1.192l0.134 0.107c0.295 0.268 0.683 0.415 1.098 0.415 0.67 0 1.259-0.375 1.554-0.978 0.214-0.455 0.656-0.723 1.125-0.737zM21.429 11.143c0-0.455-0.161-0.897-0.482-1.192l-0.134-0.107c-0.295-0.268-0.683-0.415-1.098-0.415-0.67 0-1.259 0.375-1.554 0.978-0.214 0.455-0.656 0.723-1.125 0.737 0.469 0.013 0.911 0.281 1.125 0.737 0.295 0.603 0.884 0.978 1.554 0.978 0.951 0 1.714-0.763 1.714-1.714zM15.723 8.183c-0.308 0.629-1.085 0.897-1.714 0.589-0.563-0.281-1.165-0.415-1.795-0.415-0.469 0-0.911 0.080-1.326 0.228 0.080 0 0.174-0.013 0.254-0.013 1.647 0 3.161 0.964 3.871 2.451 0.308 0.643 0.027 1.406-0.616 1.714-0.161 0.080-0.335 0.121-0.522 0.121 0.188 0 0.362 0.040 0.522 0.121 0.643 0.308 0.924 1.071 0.616 1.714-0.71 1.487-2.223 2.451-3.871 2.451v0h-0.080c-0.201-0.027-0.388-0.040-0.589-0.054l-3.884-0.362-3.201 1.607c-0.134 0.067-0.254 0.094-0.388 0.094-0.308 0-0.616-0.174-0.763-0.469l-2.143-4.286c-0.201-0.415-0.054-0.911 0.335-1.138l2.799-1.594 1.982-3.576c0.308-2.759 1.674-5.29 3.844-7.071 0.549-0.455 1.366-0.375 1.808 0.174 0.455 0.549 0.375 1.353-0.174 1.808-0.603 0.509-1.138 1.085-1.567 1.714 1.045-0.71 2.25-1.192 3.576-1.353 0.71-0.094 1.353 0.402 1.433 1.112 0.094 0.71-0.402 1.353-1.112 1.433-0.777 0.094-1.5 0.362-2.129 0.737 0.429-0.094 0.871-0.134 1.326-0.134 1.018 0 2.009 0.228 2.92 0.67 0.643 0.321 0.911 1.085 0.589 1.728zM28.621 6.040l2.143 4.286c0.201 0.415 0.054 0.911-0.335 1.138l-2.799 1.594-1.982 3.576c-0.308 2.759-1.674 5.29-3.844 7.071-0.241 0.201-0.536 0.295-0.817 0.295-0.375 0-0.737-0.161-0.991-0.469-0.455-0.549-0.375-1.353 0.174-1.808 0.603-0.509 1.138-1.085 1.567-1.714-1.045 0.71-2.25 1.192-3.576 1.353-0.054 0.013-0.107 0.013-0.161 0.013-0.643 0-1.192-0.482-1.272-1.125-0.094-0.71 0.402-1.353 1.112-1.433 0.777-0.094 1.5-0.362 2.129-0.737-0.429 0.094-0.871 0.134-1.326 0.134-1.018 0-2.009-0.228-2.92-0.67-0.643-0.321-0.911-1.085-0.589-1.728 0.308-0.629 1.085-0.897 1.714-0.589 0.563 0.281 1.165 0.415 1.795 0.415 0.469 0 0.911-0.080 1.326-0.228-0.080 0-0.174 0.013-0.254 0.013-1.647 0-3.161-0.964-3.871-2.451-0.308-0.643-0.027-1.406 0.616-1.714 0.161-0.080 0.335-0.121 0.522-0.121-0.188 0-0.362-0.040-0.522-0.121-0.643-0.308-0.924-1.071-0.616-1.714 0.71-1.487 2.223-2.451 3.871-2.451v0h0.094c0.188 0.027 0.375 0.040 0.563 0.054l3.897 0.362 3.201-1.607c0.134-0.067 0.254-0.094 0.388-0.094 0.308 0 0.616 0.174 0.763 0.469z"></path>
</svg>
