<!-- Generated by IcoMoon.io -->
<svg version="1.1" xmlns="http://www.w3.org/2000/svg" width="24" height="24" viewBox="0 0 24 24">
<path d="M12.857 3.429c0-0.469-0.388-0.857-0.857-0.857s-0.857 0.388-0.857 0.857 0.388 0.857 0.857 0.857 0.857-0.388 0.857-0.857zM24 15.857v4.714c0 0.174-0.107 0.335-0.268 0.402-0.054 0.013-0.107 0.027-0.161 0.027-0.107 0-0.214-0.040-0.308-0.121l-1.246-1.246c-2.103 2.531-5.879 4.152-10.018 4.152s-7.915-1.621-10.018-4.152l-1.246 1.246c-0.080 0.080-0.201 0.121-0.308 0.121-0.054 0-0.107-0.013-0.161-0.027-0.161-0.067-0.268-0.228-0.268-0.402v-4.714c0-0.241 0.188-0.429 0.429-0.429h4.714c0.174 0 0.335 0.107 0.402 0.268s0.027 0.335-0.094 0.469l-1.339 1.339c1.205 1.621 3.522 2.799 6.174 3.161v-8.665h-2.571c-0.469 0-0.857-0.388-0.857-0.857v-1.714c0-0.469 0.388-0.857 0.857-0.857h2.571v-2.183c-1.018-0.589-1.714-1.688-1.714-2.96 0-1.888 1.54-3.429 3.429-3.429s3.429 1.54 3.429 3.429c0 1.272-0.696 2.371-1.714 2.96v2.183h2.571c0.469 0 0.857 0.388 0.857 0.857v1.714c0 0.469-0.388 0.857-0.857 0.857h-2.571v8.665c2.652-0.362 4.969-1.54 6.174-3.161l-1.339-1.339c-0.121-0.134-0.161-0.308-0.094-0.469s0.228-0.268 0.402-0.268h4.714c0.241 0 0.429 0.188 0.429 0.429z"></path>
</svg>
