<!-- Generated by IcoMoon.io -->
<svg version="1.1" xmlns="http://www.w3.org/2000/svg" width="19" height="24" viewBox="0 0 19 24">
<path d="M6.603 6.469c0.295 0 0.522-0.241 0.522-0.522s-0.228-0.522-0.522-0.522c-0.281 0-0.509 0.241-0.509 0.522s0.228 0.522 0.509 0.522zM12.254 6.469c0.281 0 0.509-0.241 0.509-0.522s-0.228-0.522-0.509-0.522c-0.295 0-0.522 0.241-0.522 0.522s0.228 0.522 0.522 0.522zM1.379 8.933c0.75 0 1.366 0.616 1.366 1.366v5.759c0 0.763-0.603 1.379-1.366 1.379s-1.379-0.616-1.379-1.379v-5.759c0-0.75 0.616-1.366 1.379-1.366zM15.576 9.188v8.92c0 0.817-0.656 1.473-1.46 1.473h-1.004v3.040c0 0.763-0.616 1.379-1.379 1.379s-1.379-0.616-1.379-1.379v-3.040h-1.848v3.040c0 0.763-0.616 1.379-1.379 1.379-0.75 0-1.366-0.616-1.366-1.379l-0.013-3.040h-0.991c-0.817 0-1.473-0.656-1.473-1.473v-8.92h12.295zM12.469 3.763c1.875 0.964 3.147 2.813 3.147 4.942h-12.388c0-2.129 1.272-3.978 3.161-4.942l-0.951-1.754c-0.054-0.094-0.027-0.214 0.067-0.268 0.094-0.040 0.214-0.013 0.268 0.080l0.964 1.768c0.817-0.362 1.728-0.563 2.692-0.563s1.875 0.201 2.692 0.563l0.964-1.768c0.054-0.094 0.174-0.121 0.268-0.080 0.094 0.054 0.121 0.174 0.067 0.268zM18.857 10.299v5.759c0 0.763-0.616 1.379-1.379 1.379-0.75 0-1.366-0.616-1.366-1.379v-5.759c0-0.763 0.616-1.366 1.366-1.366 0.763 0 1.379 0.603 1.379 1.366z"></path>
</svg>
