<!-- Generated by IcoMoon.io -->
<svg version="1.1" xmlns="http://www.w3.org/2000/svg" width="17" height="24" viewBox="0 0 17 24">
<path d="M12.763 5.063l-1.527 4.393 1.567 0.281c0.402-1.098 2.21-6.040 2.21-6.937 0-0.335-0.107-0.75-0.509-0.75-0.75 0-1.554 2.438-1.741 3.013zM8.759 14.263c0.147 0.388 0.308 0.777 0.442 1.179 0.295-0.335 0.603-0.643 0.951-0.897-0.469-0.094-0.938-0.134-1.393-0.281zM4.848 2.263c0 1.366 1.621 5.625 2.129 6.978 0.188-0.107 0.429-0.134 0.656-0.134 0.321 0 0.683 0.040 1.004 0.067l-1.621-4.701c-0.174-0.509-0.951-2.946-1.647-2.946-0.362 0-0.522 0.429-0.522 0.737zM3.79 12.429c0 0.978 2.625 4.58 3.603 4.58 0.268 0 0.496-0.295 0.496-0.536 0-0.308-0.308-1.071-0.429-1.366-0.348-0.897-1.621-3.67-2.719-3.67-0.362 0-0.951 0.629-0.951 0.991zM1.674 16.915c0 0.482 0.161 0.951 0.335 1.393 1.058 2.612 3.442 4.138 6.228 4.138 2.036 0 3.75-0.777 5.116-2.277 1.446-1.607 2.036-3.589 2.036-5.719 0-0.75 0.013-1.942-0.576-2.478-1.125-0.991-4.942-1.366-6.455-1.366-0.188 0-0.509 0.013-0.656 0.147-0.161 0.067-0.161 0.321-0.161 0.469 0 2.049 4.326 1.862 5.625 1.862 0.254 0 0.375 0.067 0.536 0.254 0.174 0.214 0.228 0.469 0.254 0.737-0.348 0.348-0.83 0.549-1.286 0.723-0.442 0.161-0.871 0.335-1.246 0.616-1.031 0.75-2.049 2.036-2.049 3.362 0 0.83 0.496 1.54 0.496 2.357 0 0.013-0.094 0.308-0.094 0.348-1.527-0.107-1.902-1.621-1.955-2.893-0.161 0.040-0.375 0.027-0.549 0.027 0.027 0.094 0.027 0.188 0.027 0.281 0 0.978-0.871 1.688-1.808 1.688-1.446 0-3.362-1.701-3.362-3.174 0-0.402 0.174-0.629 0.442-0.897 0.268 0.335 0.549 0.67 0.804 1.018 0.388 0.522 1.058 1.393 1.781 1.393 0.188 0 0.549-0.161 0.549-0.388 0-0.603-2.196-3.429-2.732-3.429-0.844 0-1.299 1.112-1.299 1.808zM0.147 17.036c0-1.741 0.67-2.893 2.397-3.362-0.147-0.388-0.375-0.978-0.375-1.393 0-1.098 1.353-2.464 2.451-2.464 0.321 0 0.643 0.094 0.938 0.201-0.563-1.594-2.183-6.080-2.183-7.594 0-1.353 0.683-2.424 2.143-2.424 1.875 0 4.004 6.75 4.46 8.089 0.589-1.473 2.438-7.647 4.527-7.647 1.313 0 2.049 1.045 2.049 2.29 0 1.42-1.58 5.839-2.129 7.366 2.25 0.549 2.571 2.371 2.571 4.393 0 5.357-3.415 9.509-8.946 9.509-1.018 0-2.022-0.201-2.987-0.563-2.545-0.964-4.915-3.576-4.915-6.402z"></path>
</svg>
