<!-- Generated by IcoMoon.io -->
<svg version="1.1" xmlns="http://www.w3.org/2000/svg" width="19" height="24" viewBox="0 0 19 24">
<path d="M18.656 16.272c-0.335 1.058-0.871 2.183-1.647 3.348-1.152 1.754-2.304 2.625-3.442 2.625-0.455 0-1.071-0.147-1.875-0.429-0.79-0.295-1.473-0.429-2.022-0.429-0.536 0-1.179 0.147-1.902 0.442-0.737 0.308-1.326 0.455-1.768 0.455-1.379 0-2.705-1.165-4.031-3.469-1.299-2.304-1.969-4.54-1.969-6.737 0-2.049 0.509-3.71 1.513-5.009 1.004-1.286 2.263-1.929 3.804-1.929 0.656 0 1.433 0.134 2.371 0.402 0.924 0.268 1.54 0.402 1.848 0.402 0.388 0 1.031-0.147 1.915-0.455 0.884-0.295 1.661-0.455 2.317-0.455 1.071 0 2.022 0.295 2.853 0.871 0.469 0.321 0.938 0.777 1.393 1.339-0.696 0.589-1.205 1.112-1.527 1.58-0.576 0.83-0.871 1.754-0.871 2.772 0 1.098 0.308 2.103 0.924 2.987s1.326 1.446 2.116 1.688zM13.621 0.563c0 0.549-0.134 1.165-0.388 1.821-0.268 0.67-0.683 1.286-1.246 1.848-0.482 0.482-0.964 0.804-1.446 0.964-0.308 0.094-0.763 0.174-1.393 0.228 0.027-1.326 0.375-2.478 1.045-3.442s1.795-1.621 3.348-1.982c0.027 0.121 0.054 0.214 0.067 0.295 0 0.094 0.013 0.174 0.013 0.268z"></path>
</svg>
