<!-- Generated by IcoMoon.io -->
<svg version="1.1" xmlns="http://www.w3.org/2000/svg" width="24" height="24" viewBox="0 0 24 24">
<path d="M14.571 11.143c0-0.469-0.388-0.857-0.857-0.857h-3.429c-0.469 0-0.857 0.388-0.857 0.857s0.388 0.857 0.857 0.857h3.429c0.469 0 0.857-0.388 0.857-0.857zM22.286 8.571v12.857c0 0.469-0.388 0.857-0.857 0.857h-18.857c-0.469 0-0.857-0.388-0.857-0.857v-12.857c0-0.469 0.388-0.857 0.857-0.857h18.857c0.469 0 0.857 0.388 0.857 0.857zM23.143 2.571v3.429c0 0.469-0.388 0.857-0.857 0.857h-20.571c-0.469 0-0.857-0.388-0.857-0.857v-3.429c0-0.469 0.388-0.857 0.857-0.857h20.571c0.469 0 0.857 0.388 0.857 0.857z"></path>
</svg>
