<!-- Generated by IcoMoon.io -->
<svg version="1.1" xmlns="http://www.w3.org/2000/svg" width="24" height="24" viewBox="0 0 24 24">
<path d="M24 12c0 0.228-0.094 0.442-0.254 0.603l-3.429 3.429c-0.161 0.161-0.375 0.254-0.603 0.254-0.469 0-0.857-0.388-0.857-0.857v-1.714h-13.714v1.714c0 0.469-0.388 0.857-0.857 0.857-0.228 0-0.442-0.094-0.603-0.254l-3.429-3.429c-0.161-0.161-0.254-0.375-0.254-0.603s0.094-0.442 0.254-0.603l3.429-3.429c0.161-0.161 0.375-0.254 0.603-0.254 0.469 0 0.857 0.388 0.857 0.857v1.714h13.714v-1.714c0-0.469 0.388-0.857 0.857-0.857 0.228 0 0.442 0.094 0.603 0.254l3.429 3.429c0.161 0.161 0.254 0.375 0.254 0.603z"></path>
</svg>
