<!-- Generated by IcoMoon.io -->
<svg version="1.1" xmlns="http://www.w3.org/2000/svg" width="10" height="24" viewBox="0 0 10 24">
<path d="M9.429 4.286c0 0.469-0.388 0.857-0.857 0.857h-1.714v13.714h1.714c0.469 0 0.857 0.388 0.857 0.857 0 0.228-0.094 0.442-0.254 0.603l-3.429 3.429c-0.161 0.161-0.375 0.254-0.603 0.254s-0.442-0.094-0.603-0.254l-3.429-3.429c-0.161-0.161-0.254-0.375-0.254-0.603 0-0.469 0.388-0.857 0.857-0.857h1.714v-13.714h-1.714c-0.469 0-0.857-0.388-0.857-0.857 0-0.228 0.094-0.442 0.254-0.603l3.429-3.429c0.161-0.161 0.375-0.254 0.603-0.254s0.442 0.094 0.603 0.254l3.429 3.429c0.161 0.161 0.254 0.375 0.254 0.603z"></path>
</svg>
