<!-- Generated by IcoMoon.io -->
<svg version="1.1" xmlns="http://www.w3.org/2000/svg" width="24" height="24" viewBox="0 0 24 24">
<path d="M1.714 23.143c0 0.469-0.388 0.857-0.857 0.857s-0.857-0.388-0.857-0.857 0.388-0.857 0.857-0.857 0.857 0.388 0.857 0.857zM4.286 20.571c0 0.469-0.388 0.857-0.857 0.857s-0.857-0.388-0.857-0.857 0.388-0.857 0.857-0.857 0.857 0.388 0.857 0.857zM4.888 15.683l3.429 3.429-1.205 1.205-3.429-3.429zM9.429 15.429c0 0.469-0.388 0.857-0.857 0.857s-0.857-0.388-0.857-0.857 0.388-0.857 0.857-0.857 0.857 0.388 0.857 0.857zM18.897 11.143c0 2.223-1.045 3.415-1.955 4.473-0.844 0.964-1.513 1.728-1.513 3.241 0 2.839-2.304 5.143-5.143 5.143-0.469 0-0.857-0.388-0.857-0.857s0.388-0.857 0.857-0.857c1.888 0 3.429-1.54 3.429-3.429 0-2.156 1.031-3.335 1.929-4.366 0.83-0.951 1.54-1.768 1.54-3.348 0-3.308-2.692-6-6-6s-6 2.692-6 6c0 0.469-0.388 0.857-0.857 0.857s-0.857-0.388-0.857-0.857c0-4.259 3.455-7.714 7.714-7.714s7.714 3.455 7.714 7.714zM12 12.857c0 0.469-0.388 0.857-0.857 0.857s-0.857-0.388-0.857-0.857 0.388-0.857 0.857-0.857 0.857 0.388 0.857 0.857zM15.857 11.143c0 0.469-0.388 0.857-0.857 0.857s-0.857-0.388-0.857-0.857c0-1.661-1.339-3-3-3-1.647 0-3 1.339-3 3 0 0.469-0.388 0.857-0.857 0.857s-0.857-0.388-0.857-0.857c0-2.598 2.116-4.714 4.714-4.714s4.714 2.116 4.714 4.714zM21.134 7.272c0.174 0.442-0.054 0.938-0.496 1.112-0.094 0.040-0.201 0.054-0.308 0.054-0.335 0-0.67-0.201-0.79-0.549-0.603-1.567-1.647-2.933-3-3.951-0.375-0.281-0.455-0.817-0.174-1.192 0.295-0.375 0.83-0.455 1.205-0.174 1.607 1.205 2.839 2.839 3.563 4.701zM23.946 6.188c0.161 0.442-0.054 0.938-0.496 1.112-0.107 0.040-0.201 0.054-0.308 0.054-0.348 0-0.67-0.201-0.804-0.549-0.804-2.089-2.183-3.911-3.978-5.263-0.388-0.281-0.455-0.817-0.174-1.192 0.281-0.388 0.817-0.455 1.192-0.174 2.063 1.54 3.643 3.629 4.567 6.013z"></path>
</svg>
