<!-- Generated by IcoMoon.io -->
<svg version="1.1" xmlns="http://www.w3.org/2000/svg" width="21" height="24" viewBox="0 0 21 24">
<path d="M13.018 10.379c0-1.929-1.004-3.080-2.692-3.080-2.223 0-4.607 2.21-4.607 5.786 0 1.996 0.991 3.134 2.732 3.134 2.692 0 4.567-3.080 4.567-5.839zM20.571 12c0 4.165-2.973 5.732-5.518 5.813-0.174 0-0.241 0.013-0.429 0.013-0.83 0-1.487-0.241-1.902-0.71-0.254-0.295-0.402-0.67-0.442-1.112-0.83 1.045-2.277 2.063-4.085 2.063-2.879 0-4.527-1.781-4.527-4.888 0-4.272 2.96-7.741 6.576-7.741 1.567 0 2.826 0.67 3.496 1.808l0.027-0.254 0.147-0.75c0.013-0.107 0.107-0.241 0.201-0.241h1.58c0.067 0 0.134 0.094 0.174 0.147 0.040 0.040 0.054 0.147 0.040 0.214l-1.607 8.223c-0.054 0.254-0.067 0.455-0.067 0.643 0 0.723 0.214 0.871 0.763 0.871 0.911-0.027 3.857-0.402 3.857-4.098 0-5.21-3.362-8.571-8.571-8.571-4.728 0-8.571 3.844-8.571 8.571s3.844 8.571 8.571 8.571c1.969 0 3.897-0.683 5.424-1.929 0.188-0.161 0.455-0.134 0.603 0.054l0.549 0.656c0.067 0.094 0.107 0.201 0.094 0.321-0.013 0.107-0.067 0.214-0.161 0.295-1.821 1.487-4.138 2.317-6.509 2.317-5.665 0-10.286-4.621-10.286-10.286s4.621-10.286 10.286-10.286c6.147 0 10.286 4.138 10.286 10.286z"></path>
</svg>
