<!-- Generated by IcoMoon.io -->
<svg version="1.1" xmlns="http://www.w3.org/2000/svg" width="31" height="24" viewBox="0 0 31 24">
<path d="M6.75 13.313h2.29l-0.013-3.549zM20.491 11.987c0-1.487-0.857-2.585-2.638-2.585h-0.723v5.196h0.696c1.674 0 2.665-1.219 2.665-2.612zM12.804 6.938l0.013 10.125c0 0.254-0.201 0.455-0.442 0.455h-2.893c-0.241 0-0.442-0.201-0.442-0.455v-0.83h-3.897l-0.737 1.085c-0.080 0.121-0.228 0.201-0.375 0.201h-3.576c-0.375 0-0.589-0.415-0.362-0.71l7.446-10.138c0.080-0.121 0.214-0.188 0.362-0.188h4.446c0.254 0 0.455 0.201 0.455 0.455zM23.879 11.987c0 3.522-2.571 5.531-6.027 5.531h-3.616c-0.254 0-0.455-0.201-0.455-0.455v-10.125c0-0.254 0.201-0.455 0.455-0.455h3.589c3.482 0 6.054 1.982 6.054 5.504zM25.969 12c0 0 0.054 3.482-1.982 5.531h-0.683c1.821-2.17 1.862-5.545 1.862-5.545s0.027-2.652-1.808-5.491h0.576c1.982 2.263 2.036 5.504 2.036 5.504zM28.433 12c0 0 0.054 3.482-1.996 5.531h-0.683c1.821-2.17 1.862-5.545 1.862-5.545s0.027-2.652-1.795-5.491h0.576c1.982 2.263 2.036 5.504 2.036 5.504zM30.857 12c0 0 0.054 3.482-1.982 5.531h-0.683c1.808-2.17 1.848-5.545 1.848-5.545s0.027-2.652-1.795-5.491h0.576c1.982 2.263 2.036 5.504 2.036 5.504z"></path>
</svg>
