<!-- Generated by IcoMoon.io -->
<svg version="1.1" xmlns="http://www.w3.org/2000/svg" width="27" height="24" viewBox="0 0 27 24">
<path d="M6.429 14.571c0-1.179-0.964-2.143-2.143-2.143s-2.143 0.964-2.143 2.143 0.964 2.143 2.143 2.143 2.143-0.964 2.143-2.143zM6.911 10.286h13.607l-1.192-4.781c-0.040-0.147-0.308-0.362-0.469-0.362h-10.286c-0.161 0-0.429 0.214-0.469 0.362zM25.286 14.571c0-1.179-0.964-2.143-2.143-2.143s-2.143 0.964-2.143 2.143 0.964 2.143 2.143 2.143 2.143-0.964 2.143-2.143zM27.429 13.286v5.143c0 0.241-0.188 0.429-0.429 0.429h-1.286v1.714c0 1.42-1.152 2.571-2.571 2.571s-2.571-1.152-2.571-2.571v-1.714h-13.714v1.714c0 1.42-1.152 2.571-2.571 2.571s-2.571-1.152-2.571-2.571v-1.714h-1.286c-0.241 0-0.429-0.188-0.429-0.429v-5.143c0-1.661 1.339-3 3-3h0.375l1.406-5.612c0.415-1.688 2.049-2.96 3.79-2.96h10.286c1.741 0 3.375 1.272 3.79 2.96l1.406 5.612h0.375c1.661 0 3 1.339 3 3z"></path>
</svg>
