<!-- Generated by IcoMoon.io -->
<svg version="1.1" xmlns="http://www.w3.org/2000/svg" width="29" height="24" viewBox="0 0 29 24">
<path d="M23.143 6l-5.143 9.429h10.286zM6 6l-5.143 9.429h10.286zM16.996 3.429c-0.254 0.723-0.844 1.312-1.567 1.567v17.29h8.143c0.241 0 0.429 0.188 0.429 0.429v0.857c0 0.241-0.188 0.429-0.429 0.429h-18c-0.241 0-0.429-0.188-0.429-0.429v-0.857c0-0.241 0.188-0.429 0.429-0.429h8.143v-17.29c-0.723-0.254-1.313-0.844-1.567-1.567h-6.576c-0.241 0-0.429-0.188-0.429-0.429v-0.857c0-0.241 0.188-0.429 0.429-0.429h6.576c0.362-1.004 1.299-1.714 2.424-1.714s2.063 0.71 2.424 1.714h6.576c0.241 0 0.429 0.188 0.429 0.429v0.857c0 0.241-0.188 0.429-0.429 0.429h-6.576zM14.571 3.643c0.589 0 1.071-0.482 1.071-1.071s-0.482-1.071-1.071-1.071-1.071 0.482-1.071 1.071 0.482 1.071 1.071 1.071zM29.143 15.429c0 2.759-3.817 3.857-6 3.857s-6-1.098-6-3.857v0c0-0.522 4.674-8.799 5.25-9.844 0.147-0.268 0.442-0.442 0.75-0.442s0.603 0.174 0.75 0.442c0.576 1.045 5.25 9.321 5.25 9.844v0zM12 15.429c0 2.759-3.817 3.857-6 3.857s-6-1.098-6-3.857v0c0-0.522 4.674-8.799 5.25-9.844 0.147-0.268 0.442-0.442 0.75-0.442s0.603 0.174 0.75 0.442c0.576 1.045 5.25 9.321 5.25 9.844z"></path>
</svg>
