<!-- Generated by IcoMoon.io -->
<svg version="1.1" xmlns="http://www.w3.org/2000/svg" width="21" height="24" viewBox="0 0 21 24">
<path d="M17.571 11.96c0-1.46-0.429-2.813-1.165-3.951l-10.098 10.085c1.152 0.75 2.518 1.192 3.978 1.192 4.018 0 7.286-3.281 7.286-7.326zM4.192 15.964l10.112-10.098c-1.152-0.777-2.531-1.219-4.018-1.219-4.018 0-7.286 3.281-7.286 7.313 0 1.487 0.442 2.853 1.192 4.004zM20.571 11.96c0 5.705-4.607 10.326-10.286 10.326s-10.286-4.621-10.286-10.326c0-5.692 4.607-10.313 10.286-10.313s10.286 4.621 10.286 10.313z"></path>
</svg>
