<!-- Generated by IcoMoon.io -->
<svg version="1.1" xmlns="http://www.w3.org/2000/svg" width="26" height="24" viewBox="0 0 26 24">
<path d="M12.857 0l12.857 5.143v1.714h-1.714c0 0.469-0.415 0.857-0.924 0.857h-20.438c-0.509 0-0.924-0.388-0.924-0.857h-1.714v-1.714zM3.429 8.571h3.429v10.286h1.714v-10.286h3.429v10.286h1.714v-10.286h3.429v10.286h1.714v-10.286h3.429v10.286h0.79c0.509 0 0.924 0.388 0.924 0.857v0.857h-22.286v-0.857c0-0.469 0.415-0.857 0.924-0.857h0.79v-10.286zM24.79 21.429c0.509 0 0.924 0.388 0.924 0.857v1.714h-25.714v-1.714c0-0.469 0.415-0.857 0.924-0.857h23.866z"></path>
</svg>
