<!-- Generated by IcoMoon.io -->
<svg version="1.1" xmlns="http://www.w3.org/2000/svg" width="24" height="24" viewBox="0 0 24 24">
<path d="M0.844 20.571h-0.844v-18.857h0.844v18.857zM1.688 20.558h-0.429v-18.844h0.429v18.844zM2.946 20.558h-0.415v-18.844h0.415v18.844zM5.049 20.558h-0.415v-18.844h0.415v18.844zM7.152 20.558h-0.83v-18.844h0.83v18.844zM8.839 20.558h-0.415v-18.844h0.415v18.844zM9.683 20.558h-0.415v-18.844h0.415v18.844zM10.527 20.558h-0.415v-18.844h0.415v18.844zM12.629 20.558h-0.844v-18.844h0.844v18.844zM14.732 20.558h-0.844v-18.844h0.844v18.844zM16.42 20.558h-0.844v-18.844h0.844v18.844zM18.107 20.558h-0.844v-18.844h0.844v18.844zM19.366 20.558h-0.844v-18.844h0.844v18.844zM21.897 20.558h-1.259v-18.844h1.259v18.844zM22.741 20.558h-0.429v-18.844h0.429v18.844zM24 20.571h-0.844v-18.857h0.844v18.857z"></path>
</svg>
