<!-- Generated by IcoMoon.io -->
<svg version="1.1" xmlns="http://www.w3.org/2000/svg" width="21" height="24" viewBox="0 0 21 24">
<path d="M20.571 18v1.714c0 0.469-0.388 0.857-0.857 0.857h-18.857c-0.469 0-0.857-0.388-0.857-0.857v-1.714c0-0.469 0.388-0.857 0.857-0.857h18.857c0.469 0 0.857 0.388 0.857 0.857zM20.571 11.143v1.714c0 0.469-0.388 0.857-0.857 0.857h-18.857c-0.469 0-0.857-0.388-0.857-0.857v-1.714c0-0.469 0.388-0.857 0.857-0.857h18.857c0.469 0 0.857 0.388 0.857 0.857zM20.571 4.286v1.714c0 0.469-0.388 0.857-0.857 0.857h-18.857c-0.469 0-0.857-0.388-0.857-0.857v-1.714c0-0.469 0.388-0.857 0.857-0.857h18.857c0.469 0 0.857 0.388 0.857 0.857z"></path>
</svg>
