<!-- Generated by IcoMoon.io -->
<svg version="1.1" xmlns="http://www.w3.org/2000/svg" width="24" height="24" viewBox="0 0 24 24">
<path d="M22.286 14.571v2.571c0 1.527-0.67 2.879-1.714 3.83v2.598c0 0.241-0.188 0.429-0.429 0.429h-0.857c-0.241 0-0.429-0.188-0.429-0.429v-1.58c-0.536 0.188-1.112 0.295-1.714 0.295h-10.286c-0.603 0-1.179-0.107-1.714-0.295v1.473c0 0.295-0.188 0.536-0.429 0.536h-0.857c-0.241 0-0.429-0.241-0.429-0.536v-2.491c-1.045-0.951-1.714-2.304-1.714-3.83v-2.571h20.571zM9.429 9c0 0.241-0.188 0.429-0.429 0.429s-0.429-0.188-0.429-0.429 0.188-0.429 0.429-0.429 0.429 0.188 0.429 0.429zM10.286 8.143c0 0.241-0.188 0.429-0.429 0.429s-0.429-0.188-0.429-0.429 0.188-0.429 0.429-0.429 0.429 0.188 0.429 0.429zM9.429 7.286c0 0.241-0.188 0.429-0.429 0.429s-0.429-0.188-0.429-0.429 0.188-0.429 0.429-0.429 0.429 0.188 0.429 0.429zM11.143 7.286c0 0.241-0.188 0.429-0.429 0.429s-0.429-0.188-0.429-0.429 0.188-0.429 0.429-0.429 0.429 0.188 0.429 0.429zM10.286 6.429c0 0.241-0.188 0.429-0.429 0.429s-0.429-0.188-0.429-0.429 0.188-0.429 0.429-0.429 0.429 0.188 0.429 0.429zM9.429 5.571c0 0.241-0.188 0.429-0.429 0.429s-0.429-0.188-0.429-0.429 0.188-0.429 0.429-0.429 0.429 0.188 0.429 0.429zM24 12.429v0.857c0 0.241-0.188 0.429-0.429 0.429h-23.143c-0.241 0-0.429-0.188-0.429-0.429v-0.857c0-0.241 0.188-0.429 0.429-0.429h1.286v-8.571c0-1.888 1.54-3.429 3.429-3.429 0.964 0 1.835 0.402 2.464 1.045 0.83-0.335 1.821-0.214 2.558 0.362l0.295-0.295c0.080-0.080 0.214-0.080 0.295 0l0.563 0.563c0.080 0.080 0.080 0.214 0 0.295l-4.205 4.205c-0.080 0.080-0.214 0.080-0.295 0l-0.563-0.563c-0.080-0.080-0.080-0.214 0-0.295l0.295-0.295c-0.643-0.817-0.723-1.942-0.228-2.839-0.308-0.295-0.723-0.469-1.179-0.469-0.951 0-1.714 0.763-1.714 1.714v8.571h20.143c0.241 0 0.429 0.188 0.429 0.429zM12 6.429c0 0.241-0.188 0.429-0.429 0.429s-0.429-0.188-0.429-0.429 0.188-0.429 0.429-0.429 0.429 0.188 0.429 0.429zM11.143 5.571c0 0.241-0.188 0.429-0.429 0.429s-0.429-0.188-0.429-0.429 0.188-0.429 0.429-0.429 0.429 0.188 0.429 0.429zM10.286 4.714c0 0.241-0.188 0.429-0.429 0.429s-0.429-0.188-0.429-0.429 0.188-0.429 0.429-0.429 0.429 0.188 0.429 0.429zM12.857 5.571c0 0.241-0.188 0.429-0.429 0.429s-0.429-0.188-0.429-0.429 0.187-0.429 0.429-0.429 0.429 0.188 0.429 0.429zM12 4.714c0 0.241-0.188 0.429-0.429 0.429s-0.429-0.188-0.429-0.429 0.188-0.429 0.429-0.429 0.429 0.188 0.429 0.429zM11.143 3.857c0 0.241-0.188 0.429-0.429 0.429s-0.429-0.188-0.429-0.429 0.188-0.429 0.429-0.429 0.429 0.188 0.429 0.429zM13.714 4.714c0 0.241-0.188 0.429-0.429 0.429s-0.429-0.188-0.429-0.429 0.188-0.429 0.429-0.429 0.429 0.188 0.429 0.429zM12.857 3.857c0 0.241-0.188 0.429-0.429 0.429s-0.429-0.188-0.429-0.429 0.187-0.429 0.429-0.429 0.429 0.188 0.429 0.429zM14.571 3.857c0 0.241-0.188 0.429-0.429 0.429s-0.429-0.188-0.429-0.429 0.188-0.429 0.429-0.429 0.429 0.188 0.429 0.429z"></path>
</svg>
