<!-- Generated by IcoMoon.io -->
<svg version="1.1" xmlns="http://www.w3.org/2000/svg" width="31" height="24" viewBox="0 0 31 24">
<path d="M3.429 17.143v-10.286h6.857v10.286h-6.857zM29.143 7.714c0.951 0 1.714 0.763 1.714 1.714v5.143c0 0.951-0.763 1.714-1.714 1.714v2.143c0 1.179-0.964 2.143-2.143 2.143h-24.857c-1.179 0-2.143-0.964-2.143-2.143v-12.857c0-1.179 0.964-2.143 2.143-2.143h24.857c1.179 0 2.143 0.964 2.143 2.143v2.143zM29.143 14.571v-5.143h-1.714v-3.857c0-0.241-0.188-0.429-0.429-0.429h-24.857c-0.241 0-0.429 0.188-0.429 0.429v12.857c0 0.241 0.188 0.429 0.429 0.429h24.857c0.241 0 0.429-0.188 0.429-0.429v-3.857h1.714z"></path>
</svg>
