<!-- Generated by IcoMoon.io -->
<svg version="1.1" xmlns="http://www.w3.org/2000/svg" width="27" height="24" viewBox="0 0 27 24">
<path d="M3.429 13.714h23.143c0.469 0 0.857 0.388 0.857 0.857v6h-3.429v-3.429h-20.571v3.429h-3.429v-16.286c0-0.469 0.388-0.857 0.857-0.857h1.714c0.469 0 0.857 0.388 0.857 0.857v9.429zM11.143 9.429c0-1.888-1.54-3.429-3.429-3.429s-3.429 1.54-3.429 3.429 1.54 3.429 3.429 3.429 3.429-1.54 3.429-3.429zM27.429 12.857v-0.857c0-2.839-2.304-5.143-5.143-5.143h-9.429c-0.469 0-0.857 0.388-0.857 0.857v5.143h15.429z"></path>
</svg>
