<!-- Generated by IcoMoon.io -->
<svg version="1.1" xmlns="http://www.w3.org/2000/svg" width="21" height="24" viewBox="0 0 21 24">
<path d="M16.714 1.714c2.129 0 3.857 1.728 3.857 3.857v12.857c0 2.129-1.728 3.857-3.857 3.857h-12.857c-2.129 0-3.857-1.728-3.857-3.857v-12.857c0-2.129 1.728-3.857 3.857-3.857h12.857zM6.683 6.629h-4.969v10.54h5.116c1.915 0 3.71-0.911 3.71-3.054 0-1.326-0.629-2.304-1.915-2.679 0.938-0.455 1.433-1.138 1.433-2.196 0-2.103-1.567-2.612-3.375-2.612zM6.388 10.888h-2.357v-2.464h2.183c0.83 0 1.594 0.228 1.594 1.205 0 0.897-0.589 1.259-1.42 1.259zM6.509 15.375h-2.478v-2.906h2.531c1.018 0 1.661 0.442 1.661 1.513s-0.763 1.393-1.714 1.393zM15.214 15.804c-1.232 0-1.875-0.723-1.875-1.942h5.504c0.013-0.134 0.013-0.268 0.013-0.402 0-2.25-1.326-4.138-3.723-4.138-2.317 0-3.911 1.754-3.911 4.045 0 2.384 1.5 4.004 3.911 4.004 1.835 0 3.013-0.817 3.576-2.558h-1.848c-0.201 0.643-1.018 0.991-1.647 0.991zM15.080 10.902c1.045 0 1.567 0.629 1.661 1.634h-3.402c0.067-1.004 0.737-1.634 1.741-1.634zM12.911 7.339h4.272v1.031h-4.272v-1.031z"></path>
</svg>
