<!-- Generated by IcoMoon.io -->
<svg version="1.1" xmlns="http://www.w3.org/2000/svg" width="27" height="24" viewBox="0 0 27 24">
<path d="M24.75 4.54h-6.844v1.661h6.844v-1.661zM21.375 10.246c-1.607 0-2.679 1.004-2.786 2.612h5.464c-0.147-1.621-0.991-2.612-2.679-2.612zM21.589 18.080c1.018 0 2.33-0.549 2.652-1.594h2.96c-0.911 2.799-2.799 4.112-5.719 4.112-3.857 0-6.254-2.612-6.254-6.415 0-3.67 2.531-6.469 6.254-6.469 3.83 0 5.946 3.013 5.946 6.629 0 0.214-0.013 0.429-0.027 0.629h-8.813c0 1.955 1.031 3.107 3 3.107zM3.71 17.411h3.964c1.513 0 2.746-0.536 2.746-2.237 0-1.728-1.031-2.411-2.665-2.411h-4.045v4.647zM3.71 10.219h3.763c1.326 0 2.263-0.576 2.263-2.009 0-1.554-1.205-1.929-2.545-1.929h-3.482v3.938zM0 3.402h7.955c2.893 0 5.397 0.817 5.397 4.179 0 1.701-0.79 2.799-2.304 3.522 2.076 0.589 3.080 2.156 3.080 4.272 0 3.429-2.879 4.902-5.946 4.902h-8.183v-16.875z"></path>
</svg>
