<!-- Generated by IcoMoon.io -->
<svg version="1.1" xmlns="http://www.w3.org/2000/svg" width="24" height="24" viewBox="0 0 24 24">
<path d="M12.214 22.714c0-0.121-0.094-0.214-0.214-0.214-1.058 0-1.929-0.871-1.929-1.929 0-0.121-0.094-0.214-0.214-0.214s-0.214 0.094-0.214 0.214c0 1.299 1.058 2.357 2.357 2.357 0.121 0 0.214-0.094 0.214-0.214zM23.143 18.857c0 0.938-0.777 1.714-1.714 1.714h-6c0 1.888-1.54 3.429-3.429 3.429s-3.429-1.54-3.429-3.429h-6c-0.938 0-1.714-0.777-1.714-1.714 1.982-1.674 4.286-4.674 4.286-11.143 0-2.571 2.129-5.384 5.679-5.906-0.067-0.161-0.107-0.335-0.107-0.522 0-0.71 0.576-1.286 1.286-1.286s1.286 0.576 1.286 1.286c0 0.188-0.040 0.362-0.107 0.522 3.549 0.522 5.679 3.335 5.679 5.906 0 6.469 2.304 9.469 4.286 11.143z"></path>
</svg>
