<!-- Generated by IcoMoon.io -->
<svg version="1.1" xmlns="http://www.w3.org/2000/svg" width="27" height="24" viewBox="0 0 27 24">
<path d="M20.866 11.411c0.683 3.991 2.438 6.134 3.991 7.446 0 0.938-0.777 1.714-1.714 1.714h-6c0 1.888-1.54 3.429-3.429 3.429s-3.415-1.527-3.429-3.415zM13.714 22.929c0.121 0 0.214-0.094 0.214-0.214s-0.094-0.214-0.214-0.214c-1.058 0-1.929-0.871-1.929-1.929 0-0.121-0.094-0.214-0.214-0.214s-0.214 0.094-0.214 0.214c0 1.299 1.058 2.357 2.357 2.357zM27.134 1.5c0.147 0.188 0.134 0.455-0.040 0.616l-25.071 21.723c-0.174 0.147-0.455 0.134-0.603-0.054l-1.125-1.286c-0.147-0.188-0.134-0.455 0.040-0.603l2.491-2.156c-0.161-0.268-0.254-0.563-0.254-0.884 1.982-1.674 4.286-4.674 4.286-11.143 0-2.571 2.129-5.384 5.679-5.906-0.067-0.161-0.107-0.335-0.107-0.522 0-0.71 0.576-1.286 1.286-1.286s1.286 0.576 1.286 1.286c0 0.188-0.040 0.362-0.107 0.522 2.304 0.335 4.004 1.634 4.915 3.214l5.598-4.862c0.174-0.147 0.455-0.134 0.603 0.054z"></path>
</svg>
