<!-- Generated by IcoMoon.io -->
<svg version="1.1" xmlns="http://www.w3.org/2000/svg" width="31" height="24" viewBox="0 0 31 24">
<path d="M10.205 15.429h-4.205c-0.71 0-1.112-0.804-0.683-1.366l2.518-3.362c-0.563-0.268-1.179-0.415-1.835-0.415-2.357 0-4.286 1.929-4.286 4.286s1.929 4.286 4.286 4.286c2.076 0 3.804-1.473 4.205-3.429zM7.714 13.714h2.491c-0.161-0.75-0.509-1.433-1.004-1.982zM14.143 13.714l3.857-5.143h-6.429l-1.326 1.768c0.897 0.884 1.5 2.063 1.688 3.375h2.21zM29.143 14.571c0-2.357-1.929-4.286-4.286-4.286-0.576 0-1.112 0.121-1.621 0.321l2.33 3.482c0.268 0.402 0.161 0.938-0.228 1.192-0.147 0.107-0.321 0.147-0.482 0.147-0.281 0-0.549-0.134-0.71-0.388l-2.33-3.482c-0.763 0.777-1.246 1.835-1.246 3.013 0 2.357 1.929 4.286 4.286 4.286s4.286-1.929 4.286-4.286zM30.857 14.571c0 3.308-2.692 6-6 6s-6-2.692-6-6c0-1.768 0.777-3.362 1.996-4.46l-0.871-1.313-4.728 6.281c-0.161 0.228-0.415 0.348-0.683 0.348h-2.638c-0.415 2.906-2.906 5.143-5.933 5.143-3.308 0-6-2.692-6-6s2.692-6 6-6c1.045 0 2.022 0.268 2.879 0.737l1.835-2.451h-3c-0.469 0-0.857-0.388-0.857-0.857s0.388-0.857 0.857-0.857h5.143v1.714h5.826l-1.138-1.714h-2.973c-0.469 0-0.857-0.388-0.857-0.857s0.388-0.857 0.857-0.857h3.429c0.281 0 0.549 0.147 0.71 0.375l3.576 5.357c0.777-0.375 1.647-0.589 2.571-0.589 3.308 0 6 2.692 6 6z"></path>
</svg>
