<!-- Generated by IcoMoon.io -->
<svg version="1.1" xmlns="http://www.w3.org/2000/svg" width="24" height="24" viewBox="0 0 24 24">
<path d="M9.429 4.286v10.286c0 0.469-0.388 0.857-0.857 0.857v0 7.714c0 0.469-0.388 0.857-0.857 0.857h-6.857c-0.469 0-0.857-0.388-0.857-0.857v-6.857l3.335-11.692c0.054-0.188 0.228-0.308 0.415-0.308h5.679zM13.714 4.286v9.429h-3.429v-9.429h3.429zM24 16.286v6.857c0 0.469-0.388 0.857-0.857 0.857h-6.857c-0.469 0-0.857-0.388-0.857-0.857v-7.714c-0.469 0-0.857-0.388-0.857-0.857v-10.286h5.679c0.188 0 0.362 0.121 0.415 0.308zM9.857 0.429v3h-4.714v-3c0-0.241 0.188-0.429 0.429-0.429h3.857c0.241 0 0.429 0.188 0.429 0.429zM18.857 0.429v3h-4.714v-3c0-0.241 0.188-0.429 0.429-0.429h3.857c0.241 0 0.429 0.188 0.429 0.429z"></path>
</svg>
