<!-- Generated by IcoMoon.io -->
<svg version="1.1" xmlns="http://www.w3.org/2000/svg" width="24" height="24" viewBox="0 0 24 24">
<path d="M24 18.857v5.143h-24v-5.143c1.313 0 2.009-0.589 2.558-1.058 0.455-0.402 0.763-0.656 1.446-0.656s0.978 0.254 1.446 0.656c0.549 0.469 1.232 1.058 2.558 1.058 1.313 0 1.996-0.589 2.558-1.058 0.455-0.402 0.75-0.656 1.433-0.656s0.991 0.254 1.446 0.656c0.549 0.469 1.246 1.058 2.558 1.058s2.009-0.589 2.558-1.058c0.455-0.402 0.763-0.656 1.446-0.656 0.67 0 0.978 0.254 1.433 0.656 0.549 0.469 1.246 1.058 2.558 1.058zM24 14.571v2.571c-0.683 0-0.978-0.254-1.446-0.656-0.549-0.469-1.232-1.058-2.545-1.058-1.326 0-2.009 0.589-2.558 1.058-0.469 0.402-0.763 0.656-1.446 0.656s-0.991-0.254-1.446-0.656c-0.549-0.469-1.232-1.058-2.558-1.058-1.313 0-1.996 0.589-2.558 1.058-0.455 0.402-0.75 0.656-1.433 0.656s-0.991-0.254-1.446-0.656c-0.549-0.469-1.246-1.058-2.558-1.058-1.326 0-2.009 0.589-2.558 1.058-0.455 0.402-0.763 0.656-1.446 0.656v-2.571c0-1.42 1.152-2.571 2.571-2.571h0.857v-6h3.429v6h3.429v-6h3.429v6h3.429v-6h3.429v6h0.857c1.42 0 2.571 1.152 2.571 2.571zM6.857 3c0 1.42-0.763 2.143-1.714 2.143s-1.714-0.763-1.714-1.714c0-1.661 1.714-1.232 1.714-3.429 0.643 0 1.714 1.58 1.714 3zM13.714 3c0 1.42-0.763 2.143-1.714 2.143s-1.714-0.763-1.714-1.714c0-1.661 1.714-1.232 1.714-3.429 0.643 0 1.714 1.58 1.714 3zM20.571 3c0 1.42-0.763 2.143-1.714 2.143s-1.714-0.763-1.714-1.714c0-1.661 1.714-1.232 1.714-3.429 0.643 0 1.714 1.58 1.714 3z"></path>
</svg>
