<!-- Generated by IcoMoon.io -->
<svg version="1.1" xmlns="http://www.w3.org/2000/svg" width="19" height="24" viewBox="0 0 19 24">
<path d="M10.915 11.504c0.147 1.125-1.219 2.009-2.17 1.433-1.071-0.469-1.071-2.17-0.027-2.652 0.897-0.549 2.196 0.174 2.196 1.219zM12.402 11.223c-0.241-1.902-2.397-3.161-4.152-2.371-1.112 0.496-1.862 1.674-1.808 2.92 0.067 1.634 1.621 2.973 3.254 2.826s2.906-1.741 2.705-3.375zM15.603 3.964c-0.589-0.777-1.594-0.911-2.478-1.058-2.504-0.402-5.076-0.415-7.58 0.027-0.83 0.134-1.768 0.281-2.29 1.031 0.857 0.804 2.076 0.924 3.174 1.058 1.982 0.254 4.018 0.268 6 0.013 1.112-0.134 2.344-0.241 3.174-1.071zM16.366 17.826c-0.375 1.313-0.161 3.080-1.554 3.844-2.397 1.326-5.304 1.473-7.942 1.004-1.393-0.254-3.027-0.696-3.79-2.009-0.335-1.286-0.549-2.598-0.763-3.911l0.080-0.214 0.241-0.121c3.991 2.638 9.576 2.638 13.58 0 0.629 0.188 0.161 0.951 0.147 1.406zM18.79 4.955c-0.455 2.933-0.978 5.853-1.487 8.772-0.147 0.857-0.978 1.339-1.674 1.701-2.504 1.259-5.424 1.473-8.17 1.179-1.862-0.201-3.763-0.696-5.277-1.862-0.71-0.549-0.71-1.487-0.844-2.277-0.469-2.746-1.004-5.491-1.339-8.263 0.161-1.205 1.513-1.728 2.518-2.103 1.339-0.496 2.772-0.723 4.192-0.857 3.027-0.295 6.121-0.188 9.054 0.67 1.045 0.308 2.17 0.737 2.879 1.634 0.321 0.415 0.214 0.938 0.147 1.406z"></path>
</svg>
