<!-- Generated by IcoMoon.io -->
<svg version="1.1" xmlns="http://www.w3.org/2000/svg" width="21" height="24" viewBox="0 0 21 24">
<path d="M11.357 11.652c0-0.763-0.938-1.286-1.58-0.897-0.763 0.362-0.763 1.594 0.013 1.915 0.696 0.415 1.674-0.214 1.567-1.018zM12.429 11.438c0.147 1.179-0.777 2.33-1.955 2.438s-2.29-0.857-2.344-2.049c-0.040-0.884 0.509-1.741 1.313-2.103 1.259-0.563 2.813 0.348 2.987 1.714zM14.732 6.201c-0.589 0.603-1.487 0.683-2.277 0.777-1.433 0.188-2.893 0.174-4.339 0-0.79-0.107-1.661-0.201-2.277-0.777 0.375-0.536 1.045-0.643 1.647-0.737 1.808-0.321 3.656-0.308 5.464-0.013 0.643 0.094 1.366 0.201 1.781 0.75zM15.295 16.192c0-0.321 0.335-0.871-0.121-1.004-2.879 1.902-6.897 1.902-9.79 0l-0.161 0.080-0.067 0.161c0.161 0.938 0.308 1.888 0.549 2.813 0.549 0.951 1.728 1.272 2.732 1.446 1.902 0.348 4.004 0.241 5.732-0.71 1.004-0.563 0.844-1.835 1.125-2.786zM17.036 6.911c0.054-0.321 0.121-0.71-0.107-1.004-0.509-0.643-1.313-0.951-2.076-1.179-2.116-0.616-4.353-0.696-6.522-0.482-1.031 0.094-2.063 0.268-3.027 0.616-0.723 0.281-1.701 0.656-1.821 1.513 0.241 2.009 0.629 3.978 0.964 5.973 0.107 0.563 0.107 1.232 0.616 1.634 1.085 0.83 2.464 1.192 3.804 1.339 1.982 0.214 4.085 0.067 5.893-0.844 0.509-0.268 1.098-0.616 1.205-1.232 0.375-2.103 0.737-4.205 1.071-6.335zM20.571 5.571v12.857c0 2.129-1.728 3.857-3.857 3.857h-12.857c-2.129 0-3.857-1.728-3.857-3.857v-12.857c0-2.129 1.728-3.857 3.857-3.857h12.857c2.129 0 3.857 1.728 3.857 3.857z"></path>
</svg>
