<!-- Generated by IcoMoon.io -->
<svg version="1.1" xmlns="http://www.w3.org/2000/svg" width="18" height="24" viewBox="0 0 18 24">
<path d="M15.629 8.571c0.174 1.781-0.576 2.853-1.754 3.455 1.955 0.469 3.188 1.634 2.946 4.246-0.308 3.254-2.719 4.125-6.174 4.313v3.415h-2.063v-3.362c-0.522 0-1.071 0-1.634-0.013v3.375h-2.063v-3.415c-0.482 0-0.964-0.013-1.46-0.013h-2.679l0.415-2.451c1.513 0.027 1.487 0 1.487 0 0.576 0 0.737-0.415 0.777-0.683v-5.384h0.214c-0.080-0.013-0.161-0.013-0.214-0.013v-3.844c-0.080-0.429-0.348-0.911-1.192-0.911 0 0 0.027-0.027-1.487 0v-2.196l2.839 0.013c0.415 0 0.857 0 1.299-0.013v-3.375h2.063v3.308c0.549-0.013 1.098-0.027 1.634-0.027v-3.281h2.063v3.375c2.652 0.228 4.754 1.045 4.982 3.482zM12.75 15.871c0-2.652-4.366-2.263-5.759-2.263v4.527c1.393 0 5.759 0.295 5.759-2.263zM11.799 9.496c0-2.424-3.643-2.063-4.808-2.063v4.112c1.165 0 4.808 0.268 4.808-2.049z"></path>
</svg>
