<!-- Generated by IcoMoon.io -->
<svg version="1.1" xmlns="http://www.w3.org/2000/svg" width="19" height="24" viewBox="0 0 19 24">
<path d="M4.902 4.165c-1.152 0-2.089-0.938-2.089-2.089 0-1.138 0.938-2.076 2.089-2.076s2.076 0.938 2.076 2.076c0 1.152-0.924 2.089-2.076 2.089zM12.281 12.763c0 1.446-1.54 1.125-1.888 0.536l-4.915-5.866c-0.214-0.348-0.375-0.188-0.375-0.188s-0.094 0.107 0.054 0.281l1.634 1.862 0.013 4.741c-1.152 3.348-2.156 6.121-2.156 6.121-0.629 1.795-1.152 3.348-1.607 3.563-0.549 0.281-0.951 0.214-1.379 0.013-0.563-0.254-0.723-0.938-0.683-1.339 0 0 0.027-0.214 2.638-8.277l0.067-5.571-1.138 2.196 0.469 2.973c0.174 1.125-0.777 1.272-0.777 1.272-0.911 0.147-1.098-0.911-1.098-0.938l-0.616-4.004c2.813-5.076 2.826-5.103 2.826-5.103v0c0.214-0.321 0.696-0.455 1.513-0.455 0.723 0 1.179 0.214 1.433 0.536v0l5.679 6.978c0.080 0.054 0.134 0.134 0.187 0.228l0.040 0.040-0.013 0.013c0.067 0.121 0.094 0.254 0.094 0.388zM6.884 14.772c1.286 3.415 2.438 6 2.438 6 0.388 0.991 1.058 2.411 0.080 2.973-0.964 0.563-1.741-0.094-1.955-0.549v0h-0.013c-0.040-0.107-0.080-0.214-0.107-0.335l-1.661-4.701zM17.92 22.701c0.281 0.442 0.522 0.763 0.375 0.857-0.254 0.161-0.335-0.308-0.616-0.763 0 0-1.513-2.29-5.665-8.853 0.080 0.027 0.228-0.094 0.228-0.094s0.147-0.121 0.147-0.228c4.125 6.737 5.531 9.080 5.531 9.080z"></path>
</svg>
