<!-- Generated by IcoMoon.io -->
<svg version="1.1" xmlns="http://www.w3.org/2000/svg" width="19" height="24" viewBox="0 0 19 24">
<path d="M7.433 20.371c0.589 0.254 1.232 0.429 1.875 0.429 3.054 0 5.036-1.219 5.036-4.487 0-0.83-0.107-1.701-0.549-2.411-1.246-2.009-3.040-2.116-5.196-2.116-0.402 0-0.978 0-1.353 0.134 0 1.42-0.013 2.839-0.013 4.246 0 0.924-0.121 3.429 0.201 4.205zM7.246 10.379c0.482 0.080 0.978 0.094 1.46 0.094 2.759 0 4.728-0.777 4.728-3.871 0-2.612-2.317-3.509-4.554-3.509-0.589 0-1.165 0.080-1.741 0.174 0 1.353 0.107 2.705 0.107 4.058 0 0.71-0.013 1.42-0.013 2.129 0 0.308 0 0.616 0.013 0.924zM0 22.286l0.027-1.259c0.857-0.214 1.728-0.228 2.558-0.576 0.469-0.79 0.402-2.183 0.402-3.080 0-0.295 0.027-13.098-0.295-13.728-0.201-0.388-2.17-0.482-2.612-0.536l-0.054-1.112c3.187-0.054 6.375-0.281 9.549-0.281 0.603 0 1.219 0.013 1.821 0.013 3.027 0 6.362 1.446 6.362 4.929 0 2.397-1.821 3.295-3.71 4.152 2.545 0.576 4.808 2.304 4.808 5.116 0 4.607-4.192 6.134-8.116 6.134-1.179 0-2.357-0.080-3.536-0.080-2.397 0-4.821 0.214-7.205 0.308z"></path>
</svg>
