<!-- Generated by IcoMoon.io -->
<svg version="1.1" xmlns="http://www.w3.org/2000/svg" width="12" height="24" viewBox="0 0 12 24">
<path d="M11.853 7.58c0.147 0.161 0.187 0.388 0.094 0.589l-7.232 15.496c-0.107 0.201-0.321 0.335-0.563 0.335-0.054 0-0.121-0.013-0.187-0.027-0.295-0.094-0.469-0.375-0.402-0.656l2.638-10.821-5.438 1.353c-0.054 0.013-0.107 0.013-0.161 0.013-0.147 0-0.308-0.054-0.415-0.147-0.161-0.134-0.214-0.335-0.174-0.522l2.692-11.049c0.067-0.254 0.308-0.429 0.589-0.429h4.393c0.335 0 0.603 0.254 0.603 0.563 0 0.080-0.027 0.161-0.067 0.241l-2.29 6.201 5.304-1.313c0.054-0.013 0.107-0.027 0.161-0.027 0.174 0 0.335 0.080 0.455 0.201z"></path>
</svg>
