<!-- Generated by IcoMoon.io -->
<svg version="1.1" xmlns="http://www.w3.org/2000/svg" width="24" height="24" viewBox="0 0 24 24">
<path d="M7.647 7.888c-0.174-0.442-0.67-0.643-1.112-0.469-1.929 0.777-3.482 2.33-4.259 4.259-0.174 0.442 0.027 0.938 0.469 1.112 0.107 0.040 0.214 0.067 0.321 0.067 0.348 0 0.656-0.201 0.804-0.536 0.603-1.5 1.808-2.705 3.308-3.308 0.442-0.188 0.656-0.683 0.469-1.125zM20.263 3.121l0.616 0.616-3.268 3.254 0.911 0.911c0.335 0.335 0.335 0.884 0 1.219l-0.857 0.857c0.75 1.353 1.192 2.92 1.192 4.594 0 5.21-4.219 9.429-9.429 9.429s-9.429-4.219-9.429-9.429 4.219-9.429 9.429-9.429c1.674 0 3.241 0.442 4.594 1.192l0.857-0.857c0.335-0.335 0.884-0.335 1.219 0l0.911 0.911zM20.371 2.371c-0.080 0.080-0.188 0.134-0.295 0.134-0.121 0-0.228-0.054-0.308-0.134l-1.219-1.205c-0.161-0.174-0.161-0.442 0-0.616 0.174-0.161 0.442-0.161 0.616 0l1.205 1.219c0.174 0.161 0.174 0.442 0 0.603zM23.451 5.451c-0.094 0.080-0.201 0.121-0.308 0.121s-0.214-0.040-0.308-0.121l-1.205-1.219c-0.174-0.161-0.174-0.442 0-0.603 0.161-0.174 0.442-0.174 0.603 0l1.219 1.205c0.161 0.174 0.161 0.442 0 0.616zM24 3c0 0.241-0.188 0.429-0.429 0.429h-1.286c-0.241 0-0.429-0.188-0.429-0.429s0.188-0.429 0.429-0.429h1.286c0.241 0 0.429 0.188 0.429 0.429zM21.429 0.429v1.286c0 0.241-0.188 0.429-0.429 0.429s-0.429-0.188-0.429-0.429v-1.286c0-0.241 0.188-0.429 0.429-0.429s0.429 0.188 0.429 0.429zM23.451 1.165l-1.219 1.205c-0.080 0.080-0.188 0.134-0.295 0.134-0.121 0-0.228-0.054-0.308-0.134-0.174-0.161-0.174-0.442 0-0.603l1.205-1.219c0.174-0.161 0.442-0.161 0.616 0 0.161 0.174 0.161 0.442 0 0.616z"></path>
</svg>
