<!-- Generated by IcoMoon.io -->
<svg version="1.1" xmlns="http://www.w3.org/2000/svg" width="22" height="24" viewBox="0 0 22 24">
<path d="M21.951 6.402c0.335 0.482 0.429 1.112 0.241 1.728l-3.683 12.134c-0.335 1.138-1.513 2.022-2.665 2.022h-12.362c-1.366 0-2.826-1.085-3.321-2.478-0.214-0.603-0.214-1.192-0.027-1.701 0.027-0.268 0.080-0.536 0.094-0.857 0.013-0.214-0.107-0.388-0.080-0.549 0.054-0.321 0.335-0.549 0.549-0.911 0.402-0.67 0.857-1.754 1.004-2.451 0.067-0.254-0.067-0.549 0-0.777 0.067-0.254 0.321-0.442 0.455-0.683 0.362-0.616 0.83-1.808 0.897-2.438 0.027-0.281-0.107-0.589-0.027-0.804 0.094-0.308 0.388-0.442 0.589-0.71 0.321-0.442 0.857-1.714 0.938-2.424 0.027-0.228-0.107-0.455-0.067-0.696 0.054-0.254 0.375-0.522 0.589-0.83 0.563-0.83 0.67-2.665 2.371-2.183l-0.013 0.040c0.228-0.054 0.455-0.121 0.683-0.121h10.192c0.629 0 1.192 0.281 1.527 0.75 0.348 0.482 0.429 1.112 0.241 1.741l-3.67 12.134c-0.629 2.063-0.978 2.518-2.679 2.518h-11.638c-0.174 0-0.388 0.040-0.509 0.201-0.107 0.161-0.121 0.281-0.013 0.576 0.268 0.777 1.192 0.938 1.929 0.938h12.362c0.496 0 1.071-0.281 1.219-0.763l4.018-13.219c0.080-0.254 0.080-0.522 0.067-0.763 0.308 0.121 0.589 0.308 0.79 0.576zM7.701 6.429c-0.080 0.241 0.054 0.429 0.295 0.429h8.143c0.228 0 0.482-0.188 0.563-0.429l0.281-0.857c0.080-0.241-0.054-0.429-0.295-0.429h-8.143c-0.228 0-0.482 0.188-0.563 0.429zM6.589 9.857c-0.080 0.241 0.054 0.429 0.295 0.429h8.143c0.228 0 0.482-0.188 0.563-0.429l0.281-0.857c0.080-0.241-0.054-0.429-0.295-0.429h-8.143c-0.228 0-0.482 0.188-0.563 0.429z"></path>
</svg>
