<!-- Generated by IcoMoon.io -->
<svg version="1.1" xmlns="http://www.w3.org/2000/svg" width="17" height="24" viewBox="0 0 17 24">
<path d="M15.589 1.714c0.201 0 0.402 0.040 0.589 0.121 0.589 0.228 0.964 0.777 0.964 1.379v17.263c0 0.603-0.375 1.152-0.964 1.379-0.188 0.080-0.388 0.107-0.589 0.107-0.415 0-0.804-0.147-1.112-0.429l-5.906-5.679-5.906 5.679c-0.308 0.281-0.696 0.442-1.112 0.442-0.201 0-0.402-0.040-0.589-0.121-0.589-0.228-0.964-0.777-0.964-1.379v-17.263c0-0.603 0.375-1.152 0.964-1.379 0.188-0.080 0.388-0.121 0.589-0.121h14.036z"></path>
</svg>
