<!-- Generated by IcoMoon.io -->
<svg version="1.1" xmlns="http://www.w3.org/2000/svg" width="29" height="24" viewBox="0 0 29 24">
<path d="M2.571 15.857c-1.179 0-2.143 0.964-2.143 2.143s0.964 2.143 2.143 2.143 2.143-0.964 2.143-2.143-0.964-2.143-2.143-2.143zM9.429 15.857c-1.179 0-2.143 0.964-2.143 2.143s0.964 2.143 2.143 2.143 2.143-0.964 2.143-2.143-0.964-2.143-2.143-2.143zM9.429 9c-1.179 0-2.143 0.964-2.143 2.143s0.964 2.143 2.143 2.143 2.143-0.964 2.143-2.143-0.964-2.143-2.143-2.143zM19.714 15.857c-1.179 0-2.143 0.964-2.143 2.143s0.964 2.143 2.143 2.143 2.143-0.964 2.143-2.143-0.964-2.143-2.143-2.143zM26.571 15.857c-1.179 0-2.143 0.964-2.143 2.143s0.964 2.143 2.143 2.143 2.143-0.964 2.143-2.143-0.964-2.143-2.143-2.143zM19.714 9c-1.179 0-2.143 0.964-2.143 2.143s0.964 2.143 2.143 2.143 2.143-0.964 2.143-2.143-0.964-2.143-2.143-2.143zM26.571 9c-1.179 0-2.143 0.964-2.143 2.143s0.964 2.143 2.143 2.143 2.143-0.964 2.143-2.143-0.964-2.143-2.143-2.143zM26.571 2.143c-1.179 0-2.143 0.964-2.143 2.143s0.964 2.143 2.143 2.143 2.143-0.964 2.143-2.143-0.964-2.143-2.143-2.143zM5.143 18c0 1.42-1.152 2.571-2.571 2.571s-2.571-1.152-2.571-2.571 1.152-2.571 2.571-2.571v0c1.42 0 2.571 1.152 2.571 2.571zM12 18c0 1.42-1.152 2.571-2.571 2.571s-2.571-1.152-2.571-2.571 1.152-2.571 2.571-2.571v0c1.42 0 2.571 1.152 2.571 2.571zM5.143 11.143c0 1.42-1.152 2.571-2.571 2.571s-2.571-1.152-2.571-2.571 1.152-2.571 2.571-2.571 2.571 1.152 2.571 2.571zM12 11.143c0 1.42-1.152 2.571-2.571 2.571s-2.571-1.152-2.571-2.571 1.152-2.571 2.571-2.571v0c1.42 0 2.571 1.152 2.571 2.571zM5.143 4.286c0 1.42-1.152 2.571-2.571 2.571s-2.571-1.152-2.571-2.571 1.152-2.571 2.571-2.571 2.571 1.152 2.571 2.571zM22.286 18c0 1.42-1.152 2.571-2.571 2.571s-2.571-1.152-2.571-2.571 1.152-2.571 2.571-2.571v0c1.42 0 2.571 1.152 2.571 2.571zM12 4.286c0 1.42-1.152 2.571-2.571 2.571s-2.571-1.152-2.571-2.571 1.152-2.571 2.571-2.571 2.571 1.152 2.571 2.571zM29.143 18c0 1.42-1.152 2.571-2.571 2.571s-2.571-1.152-2.571-2.571 1.152-2.571 2.571-2.571v0c1.42 0 2.571 1.152 2.571 2.571zM22.286 11.143c0 1.42-1.152 2.571-2.571 2.571s-2.571-1.152-2.571-2.571 1.152-2.571 2.571-2.571v0c1.42 0 2.571 1.152 2.571 2.571zM29.143 11.143c0 1.42-1.152 2.571-2.571 2.571s-2.571-1.152-2.571-2.571 1.152-2.571 2.571-2.571v0c1.42 0 2.571 1.152 2.571 2.571zM22.286 4.286c0 1.42-1.152 2.571-2.571 2.571s-2.571-1.152-2.571-2.571 1.152-2.571 2.571-2.571 2.571 1.152 2.571 2.571zM29.143 4.286c0 1.42-1.152 2.571-2.571 2.571s-2.571-1.152-2.571-2.571 1.152-2.571 2.571-2.571v0c1.42 0 2.571 1.152 2.571 2.571z"></path>
</svg>
