<!-- Generated by IcoMoon.io -->
<svg version="1.1" xmlns="http://www.w3.org/2000/svg" width="24" height="24" viewBox="0 0 24 24">
<path d="M8.571 3.429h6.857v-1.714h-6.857v1.714zM24 12v6.429c0 1.179-0.964 2.143-2.143 2.143h-19.714c-1.179 0-2.143-0.964-2.143-2.143v-6.429h9v2.143c0 0.469 0.388 0.857 0.857 0.857h4.286c0.469 0 0.857-0.388 0.857-0.857v-2.143h9zM13.714 12v1.714h-3.429v-1.714h3.429zM24 5.571v5.143h-24v-5.143c0-1.179 0.964-2.143 2.143-2.143h4.714v-2.143c0-0.71 0.576-1.286 1.286-1.286h7.714c0.71 0 1.286 0.576 1.286 1.286v2.143h4.714c1.179 0 2.143 0.964 2.143 2.143z"></path>
</svg>
