<!-- Generated by IcoMoon.io -->
<svg version="1.1" xmlns="http://www.w3.org/2000/svg" width="22" height="24" viewBox="0 0 22 24">
<path d="M21.857 12.857c0 0.469-0.388 0.857-0.857 0.857h-3c0 1.674-0.362 2.933-0.897 3.884l2.786 2.799c0.335 0.335 0.335 0.871 0 1.205-0.161 0.174-0.388 0.254-0.603 0.254s-0.442-0.080-0.603-0.254l-2.652-2.638s-1.754 1.607-4.031 1.607v-12h-1.714v12c-2.424 0-4.192-1.768-4.192-1.768l-2.451 2.772c-0.174 0.188-0.402 0.281-0.643 0.281-0.201 0-0.402-0.067-0.576-0.214-0.348-0.321-0.375-0.857-0.067-1.219l2.705-3.040c-0.469-0.924-0.777-2.116-0.777-3.67h-3c-0.469 0-0.857-0.388-0.857-0.857s0.388-0.857 0.857-0.857h3v-3.938l-2.317-2.317c-0.335-0.335-0.335-0.871 0-1.205s0.871-0.335 1.205 0l2.317 2.317h11.304l2.317-2.317c0.335-0.335 0.871-0.335 1.205 0s0.335 0.871 0 1.205l-2.317 2.317v3.938h3c0.469 0 0.857 0.388 0.857 0.857zM15.429 5.143h-8.571c0-2.371 1.915-4.286 4.286-4.286s4.286 1.915 4.286 4.286z"></path>
</svg>
