<!-- Generated by IcoMoon.io -->
<svg version="1.1" xmlns="http://www.w3.org/2000/svg" width="19" height="24" viewBox="0 0 19 24">
<path d="M18 0c0.469 0 0.857 0.388 0.857 0.857v22.286c0 0.469-0.388 0.857-0.857 0.857h-17.143c-0.469 0-0.857-0.388-0.857-0.857v-22.286c0-0.469 0.388-0.857 0.857-0.857h17.143zM6.857 3.857v0.857c0 0.241 0.188 0.429 0.429 0.429h0.857c0.241 0 0.429-0.188 0.429-0.429v-0.857c0-0.241-0.188-0.429-0.429-0.429h-0.857c-0.241 0-0.429 0.188-0.429 0.429zM6.857 7.286v0.857c0 0.241 0.188 0.429 0.429 0.429h0.857c0.241 0 0.429-0.188 0.429-0.429v-0.857c0-0.241-0.188-0.429-0.429-0.429h-0.857c-0.241 0-0.429 0.188-0.429 0.429zM6.857 10.714v0.857c0 0.241 0.188 0.429 0.429 0.429h0.857c0.241 0 0.429-0.188 0.429-0.429v-0.857c0-0.241-0.188-0.429-0.429-0.429h-0.857c-0.241 0-0.429 0.188-0.429 0.429zM6.857 14.143v0.857c0 0.241 0.188 0.429 0.429 0.429h0.857c0.241 0 0.429-0.188 0.429-0.429v-0.857c0-0.241-0.188-0.429-0.429-0.429h-0.857c-0.241 0-0.429 0.188-0.429 0.429zM5.143 18.429v-0.857c0-0.241-0.188-0.429-0.429-0.429h-0.857c-0.241 0-0.429 0.188-0.429 0.429v0.857c0 0.241 0.188 0.429 0.429 0.429h0.857c0.241 0 0.429-0.188 0.429-0.429zM5.143 15v-0.857c0-0.241-0.188-0.429-0.429-0.429h-0.857c-0.241 0-0.429 0.188-0.429 0.429v0.857c0 0.241 0.188 0.429 0.429 0.429h0.857c0.241 0 0.429-0.188 0.429-0.429zM5.143 11.571v-0.857c0-0.241-0.188-0.429-0.429-0.429h-0.857c-0.241 0-0.429 0.188-0.429 0.429v0.857c0 0.241 0.188 0.429 0.429 0.429h0.857c0.241 0 0.429-0.188 0.429-0.429zM5.143 8.143v-0.857c0-0.241-0.188-0.429-0.429-0.429h-0.857c-0.241 0-0.429 0.188-0.429 0.429v0.857c0 0.241 0.188 0.429 0.429 0.429h0.857c0.241 0 0.429-0.188 0.429-0.429zM5.143 4.714v-0.857c0-0.241-0.188-0.429-0.429-0.429h-0.857c-0.241 0-0.429 0.188-0.429 0.429v0.857c0 0.241 0.188 0.429 0.429 0.429h0.857c0.241 0 0.429-0.188 0.429-0.429zM12 21.857v-2.571c0-0.241-0.188-0.429-0.429-0.429h-4.286c-0.241 0-0.429 0.188-0.429 0.429v2.571c0 0.241 0.188 0.429 0.429 0.429h4.286c0.241 0 0.429-0.188 0.429-0.429zM12 15v-0.857c0-0.241-0.188-0.429-0.429-0.429h-0.857c-0.241 0-0.429 0.188-0.429 0.429v0.857c0 0.241 0.188 0.429 0.429 0.429h0.857c0.241 0 0.429-0.188 0.429-0.429zM12 11.571v-0.857c0-0.241-0.188-0.429-0.429-0.429h-0.857c-0.241 0-0.429 0.188-0.429 0.429v0.857c0 0.241 0.188 0.429 0.429 0.429h0.857c0.241 0 0.429-0.188 0.429-0.429zM12 8.143v-0.857c0-0.241-0.188-0.429-0.429-0.429h-0.857c-0.241 0-0.429 0.188-0.429 0.429v0.857c0 0.241 0.188 0.429 0.429 0.429h0.857c0.241 0 0.429-0.188 0.429-0.429zM12 4.714v-0.857c0-0.241-0.188-0.429-0.429-0.429h-0.857c-0.241 0-0.429 0.188-0.429 0.429v0.857c0 0.241 0.188 0.429 0.429 0.429h0.857c0.241 0 0.429-0.188 0.429-0.429zM15.429 18.429v-0.857c0-0.241-0.188-0.429-0.429-0.429h-0.857c-0.241 0-0.429 0.188-0.429 0.429v0.857c0 0.241 0.188 0.429 0.429 0.429h0.857c0.241 0 0.429-0.188 0.429-0.429zM15.429 15v-0.857c0-0.241-0.188-0.429-0.429-0.429h-0.857c-0.241 0-0.429 0.188-0.429 0.429v0.857c0 0.241 0.188 0.429 0.429 0.429h0.857c0.241 0 0.429-0.188 0.429-0.429zM15.429 11.571v-0.857c0-0.241-0.188-0.429-0.429-0.429h-0.857c-0.241 0-0.429 0.188-0.429 0.429v0.857c0 0.241 0.188 0.429 0.429 0.429h0.857c0.241 0 0.429-0.188 0.429-0.429zM15.429 8.143v-0.857c0-0.241-0.188-0.429-0.429-0.429h-0.857c-0.241 0-0.429 0.188-0.429 0.429v0.857c0 0.241 0.188 0.429 0.429 0.429h0.857c0.241 0 0.429-0.188 0.429-0.429zM15.429 4.714v-0.857c0-0.241-0.188-0.429-0.429-0.429h-0.857c-0.241 0-0.429 0.188-0.429 0.429v0.857c0 0.241 0.188 0.429 0.429 0.429h0.857c0.241 0 0.429-0.188 0.429-0.429z"></path>
</svg>
