<!-- Generated by IcoMoon.io -->
<svg version="1.1" xmlns="http://www.w3.org/2000/svg" width="21" height="24" viewBox="0 0 21 24">
<path d="M13.714 12c0 1.888-1.54 3.429-3.429 3.429s-3.429-1.54-3.429-3.429 1.54-3.429 3.429-3.429 3.429 1.54 3.429 3.429zM15.429 12c0-2.839-2.304-5.143-5.143-5.143s-5.143 2.304-5.143 5.143 2.304 5.143 5.143 5.143 5.143-2.304 5.143-5.143zM17.143 12c0 3.79-3.067 6.857-6.857 6.857s-6.857-3.067-6.857-6.857 3.067-6.857 6.857-6.857 6.857 3.067 6.857 6.857zM18.857 12c0-4.728-3.844-8.571-8.571-8.571s-8.571 3.844-8.571 8.571 3.844 8.571 8.571 8.571 8.571-3.844 8.571-8.571zM20.571 12c0 5.679-4.607 10.286-10.286 10.286s-10.286-4.607-10.286-10.286 4.607-10.286 10.286-10.286 10.286 4.607 10.286 10.286z"></path>
</svg>
