<!-- Generated by IcoMoon.io -->
<svg version="1.1" xmlns="http://www.w3.org/2000/svg" width="24" height="24" viewBox="0 0 24 24">
<path d="M22.286 8.571c0.951 0 1.714 0.763 1.714 1.714s-0.763 1.714-1.714 1.714v5.143c0 0.938-0.777 1.714-1.714 1.714-2.384-1.982-6.228-4.701-10.875-5.089-1.594 0.536-2.143 2.397-1.098 3.469-0.938 1.54 0.268 2.625 1.688 3.737-0.83 1.634-4.286 1.661-5.518 0.522-0.777-2.384-1.929-4.768-0.991-7.781h-1.634c-1.179 0-2.143-0.964-2.143-2.143v-2.571c0-1.179 0.964-2.143 2.143-2.143h6.429c5.143 0 9.429-3 12-5.143 0.938 0 1.714 0.777 1.714 1.714v5.143zM20.571 16.661v-12.777c-3.496 2.679-6.884 4.219-10.286 4.594v3.616c3.402 0.375 6.79 1.888 10.286 4.567z"></path>
</svg>
