<!-- Generated by IcoMoon.io -->
<svg version="1.1" xmlns="http://www.w3.org/2000/svg" width="21" height="24" viewBox="0 0 21 24">
<path d="M5.143 16.286c0-0.951-0.763-1.714-1.714-1.714s-1.714 0.763-1.714 1.714 0.763 1.714 1.714 1.714 1.714-0.763 1.714-1.714zM18.857 16.286c0-0.951-0.763-1.714-1.714-1.714s-1.714 0.763-1.714 1.714 0.763 1.714 1.714 1.714 1.714-0.763 1.714-1.714zM18.241 10.982l-0.964-5.143c-0.080-0.402-0.429-0.696-0.844-0.696h-12.295c-0.415 0-0.763 0.295-0.844 0.696l-0.964 5.143c-0.094 0.536 0.308 1.018 0.844 1.018h14.223c0.536 0 0.938-0.482 0.844-1.018zM15.214 2.786c0-0.362-0.281-0.643-0.643-0.643h-8.571c-0.348 0-0.643 0.281-0.643 0.643s0.295 0.643 0.643 0.643h8.571c0.362 0 0.643-0.281 0.643-0.643zM20.571 12.496v8.076h-1.714v1.714c0 0.951-0.763 1.714-1.714 1.714s-1.714-0.763-1.714-1.714v-1.714h-10.286v1.714c0 0.951-0.763 1.714-1.714 1.714s-1.714-0.763-1.714-1.714v-1.714h-1.714v-8.076c0-1.098 0.094-1.915 0.335-2.987l1.379-6.080c0.254-2.143 4.004-3.429 8.571-3.429s8.317 1.286 8.571 3.429l1.406 6.080c0.241 1.071 0.308 1.888 0.308 2.987z"></path>
</svg>
