<!-- Generated by IcoMoon.io -->
<svg version="1.1" xmlns="http://www.w3.org/2000/svg" width="27" height="24" viewBox="0 0 27 24">
<path d="M24.429 12c1.661 0 3 1.339 3 3v5.143c0 0.241-0.188 0.429-0.429 0.429h-1.286v0.857c0 1.42-1.152 2.571-2.571 2.571s-2.571-1.152-2.571-2.571v-0.857h-13.714v0.857c0 1.42-1.152 2.571-2.571 2.571s-2.571-1.152-2.571-2.571v-0.857h-1.286c-0.241 0-0.429-0.188-0.429-0.429v-5.143c0-1.661 1.339-3 3-3h0.375l1.406-5.612c0.415-1.688 2.049-2.96 3.79-2.96h1.714v-3c0-0.241 0.188-0.429 0.429-0.429h6c0.241 0 0.429 0.188 0.429 0.429v3h1.714c1.741 0 3.375 1.272 3.79 2.96l1.406 5.612h0.375zM4.286 18.429c1.179 0 2.143-0.964 2.143-2.143s-0.964-2.143-2.143-2.143-2.143 0.964-2.143 2.143 0.964 2.143 2.143 2.143zM6.911 12h13.607l-1.192-4.781c-0.040-0.147-0.308-0.362-0.469-0.362h-10.286c-0.161 0-0.429 0.214-0.469 0.362zM23.143 18.429c1.179 0 2.143-0.964 2.143-2.143s-0.964-2.143-2.143-2.143-2.143 0.964-2.143 2.143 0.964 2.143 2.143 2.143z"></path>
</svg>
