<!-- Generated by IcoMoon.io -->
<svg version="1.1" xmlns="http://www.w3.org/2000/svg" width="22" height="24" viewBox="0 0 22 24">
<path d="M5.143 20.571c0-0.951-0.763-1.714-1.714-1.714s-1.714 0.763-1.714 1.714 0.763 1.714 1.714 1.714 1.714-0.763 1.714-1.714zM10.286 20.571c0-0.951-0.763-1.714-1.714-1.714s-1.714 0.763-1.714 1.714 0.763 1.714 1.714 1.714 1.714-0.763 1.714-1.714zM5.143 15.429c0-0.951-0.763-1.714-1.714-1.714s-1.714 0.763-1.714 1.714 0.763 1.714 1.714 1.714 1.714-0.763 1.714-1.714zM15.429 20.571c0-0.951-0.763-1.714-1.714-1.714s-1.714 0.763-1.714 1.714 0.763 1.714 1.714 1.714 1.714-0.763 1.714-1.714zM10.286 15.429c0-0.951-0.763-1.714-1.714-1.714s-1.714 0.763-1.714 1.714 0.763 1.714 1.714 1.714 1.714-0.763 1.714-1.714zM5.143 10.286c0-0.951-0.763-1.714-1.714-1.714s-1.714 0.763-1.714 1.714 0.763 1.714 1.714 1.714 1.714-0.763 1.714-1.714zM15.429 15.429c0-0.951-0.763-1.714-1.714-1.714s-1.714 0.763-1.714 1.714 0.763 1.714 1.714 1.714 1.714-0.763 1.714-1.714zM10.286 10.286c0-0.951-0.763-1.714-1.714-1.714s-1.714 0.763-1.714 1.714 0.763 1.714 1.714 1.714 1.714-0.763 1.714-1.714zM20.571 20.571v-5.143c0-0.938-0.777-1.714-1.714-1.714v0c-0.938 0-1.714 0.777-1.714 1.714v5.143c0 0.938 0.777 1.714 1.714 1.714v0c0.938 0 1.714-0.777 1.714-1.714zM15.429 10.286c0-0.951-0.763-1.714-1.714-1.714s-1.714 0.763-1.714 1.714 0.763 1.714 1.714 1.714 1.714-0.763 1.714-1.714zM20.571 6v-3.429c0-0.469-0.388-0.857-0.857-0.857h-17.143c-0.469 0-0.857 0.388-0.857 0.857v3.429c0 0.469 0.388 0.857 0.857 0.857h17.143c0.469 0 0.857-0.388 0.857-0.857zM20.571 10.286c0-0.951-0.763-1.714-1.714-1.714s-1.714 0.763-1.714 1.714 0.763 1.714 1.714 1.714 1.714-0.763 1.714-1.714zM22.286 1.714v20.571c0 0.938-0.777 1.714-1.714 1.714h-18.857c-0.938 0-1.714-0.777-1.714-1.714v-20.571c0-0.938 0.777-1.714 1.714-1.714h18.857c0.938 0 1.714 0.777 1.714 1.714z"></path>
</svg>
