<!-- Generated by IcoMoon.io -->
<svg version="1.1" xmlns="http://www.w3.org/2000/svg" width="22" height="24" viewBox="0 0 22 24">
<path d="M20.571 3.429c0.938 0 1.714 0.777 1.714 1.714v17.143c0 0.938-0.777 1.714-1.714 1.714h-18.857c-0.938 0-1.714-0.777-1.714-1.714v-17.143c0-0.938 0.777-1.714 1.714-1.714h1.714v-1.286c0-1.179 0.964-2.143 2.143-2.143h0.857c1.179 0 2.143 0.964 2.143 2.143v1.286h5.143v-1.286c0-1.179 0.964-2.143 2.143-2.143h0.857c1.179 0 2.143 0.964 2.143 2.143v1.286h1.714zM15.429 2.143v3.857c0 0.241 0.188 0.429 0.429 0.429h0.857c0.241 0 0.429-0.188 0.429-0.429v-3.857c0-0.241-0.188-0.429-0.429-0.429h-0.857c-0.241 0-0.429 0.188-0.429 0.429zM5.143 2.143v3.857c0 0.241 0.188 0.429 0.429 0.429h0.857c0.241 0 0.429-0.188 0.429-0.429v-3.857c0-0.241-0.188-0.429-0.429-0.429h-0.857c-0.241 0-0.429 0.188-0.429 0.429zM20.571 22.286v-13.714h-18.857v13.714h18.857zM12 14.571h3c0.241 0 0.429 0.188 0.429 0.429v0.857c0 0.241-0.188 0.429-0.429 0.429h-3v3c0 0.241-0.188 0.429-0.429 0.429h-0.857c-0.241 0-0.429-0.188-0.429-0.429v-3h-3c-0.241 0-0.429-0.188-0.429-0.429v-0.857c0-0.241 0.188-0.429 0.429-0.429h3v-3c0-0.241 0.188-0.429 0.429-0.429h0.857c0.241 0 0.429 0.188 0.429 0.429v3z"></path>
</svg>
