<!-- Generated by IcoMoon.io -->
<svg version="1.1" xmlns="http://www.w3.org/2000/svg" width="26" height="24" viewBox="0 0 26 24">
<path d="M12.857 9c2.129 0 3.857 1.728 3.857 3.857s-1.728 3.857-3.857 3.857-3.857-1.728-3.857-3.857 1.728-3.857 3.857-3.857zM22.286 3.429c1.888 0 3.429 1.54 3.429 3.429v12c0 1.888-1.54 3.429-3.429 3.429h-18.857c-1.888 0-3.429-1.54-3.429-3.429v-12c0-1.888 1.54-3.429 3.429-3.429h3l0.683-1.821c0.335-0.884 1.379-1.607 2.317-1.607h6.857c0.938 0 1.982 0.723 2.317 1.607l0.683 1.821h3zM12.857 18.857c3.308 0 6-2.692 6-6s-2.692-6-6-6-6 2.692-6 6 2.692 6 6 6z"></path>
</svg>
