<!-- Generated by IcoMoon.io -->
<svg version="1.1" xmlns="http://www.w3.org/2000/svg" width="24" height="24" viewBox="0 0 24 24">
<path d="M12.429 11.143c0-0.241-0.188-0.429-0.429-0.429-1.179 0-2.143 0.964-2.143 2.143 0 0.241 0.188 0.429 0.429 0.429s0.429-0.188 0.429-0.429c0-0.71 0.576-1.286 1.286-1.286 0.241 0 0.429-0.188 0.429-0.429zM15.429 12.884c0 1.888-1.54 3.429-3.429 3.429s-3.429-1.54-3.429-3.429 1.54-3.429 3.429-3.429 3.429 1.54 3.429 3.429zM1.714 20.571h20.571v-1.714h-20.571v1.714zM17.143 12.884c0-2.839-2.304-5.143-5.143-5.143s-5.143 2.304-5.143 5.143 2.304 5.143 5.143 5.143 5.143-2.304 5.143-5.143zM3.429 4.286h5.143v-1.714h-5.143v1.714zM1.714 6.857h20.571v-3.429h-11.089l-0.857 1.714h-8.625v1.714zM24 3.429v17.143c0 0.951-0.763 1.714-1.714 1.714h-20.571c-0.951 0-1.714-0.763-1.714-1.714v-17.143c0-0.951 0.763-1.714 1.714-1.714h20.571c0.951 0 1.714 0.763 1.714 1.714z"></path>
</svg>
