<!-- Generated by IcoMoon.io -->
<svg version="1.1" xmlns="http://www.w3.org/2000/svg" width="21" height="24" viewBox="0 0 21 24">
<path d="M15.335 14.96c-0.147 0.295-0.442 0.469-0.763 0.469h-8.571c-0.321 0-0.616-0.174-0.763-0.469-0.147-0.281-0.121-0.629 0.067-0.884l4.286-6c0.161-0.228 0.415-0.362 0.696-0.362s0.536 0.134 0.696 0.362l4.286 6c0.188 0.254 0.214 0.603 0.067 0.884zM17.143 18.429v-12.857c0-0.228-0.201-0.429-0.429-0.429h-12.857c-0.228 0-0.429 0.201-0.429 0.429v12.857c0 0.228 0.201 0.429 0.429 0.429h12.857c0.228 0 0.429-0.201 0.429-0.429zM20.571 5.571v12.857c0 2.129-1.728 3.857-3.857 3.857h-12.857c-2.129 0-3.857-1.728-3.857-3.857v-12.857c0-2.129 1.728-3.857 3.857-3.857h12.857c2.129 0 3.857 1.728 3.857 3.857z"></path>
</svg>
