<!-- Generated by IcoMoon.io -->
<svg version="1.1" xmlns="http://www.w3.org/2000/svg" width="21" height="24" viewBox="0 0 21 24">
<path d="M13.714 7.714v8.571c0 0.469-0.388 0.857-0.857 0.857-0.174 0-0.348-0.054-0.496-0.161l-6-4.286c-0.228-0.161-0.362-0.415-0.362-0.696 0-0.268 0.134-0.536 0.362-0.696l6-4.286c0.147-0.107 0.321-0.161 0.496-0.161 0.469 0 0.857 0.388 0.857 0.857zM17.143 18.429v-12.857c0-0.228-0.201-0.429-0.429-0.429h-12.857c-0.228 0-0.429 0.201-0.429 0.429v12.857c0 0.228 0.201 0.429 0.429 0.429h12.857c0.228 0 0.429-0.201 0.429-0.429zM20.571 5.571v12.857c0 2.129-1.728 3.857-3.857 3.857h-12.857c-2.129 0-3.857-1.728-3.857-3.857v-12.857c0-2.129 1.728-3.857 3.857-3.857h12.857c2.129 0 3.857 1.728 3.857 3.857z"></path>
</svg>
