<!-- Generated by IcoMoon.io -->
<svg version="1.1" xmlns="http://www.w3.org/2000/svg" width="21" height="24" viewBox="0 0 21 24">
<path d="M14.571 12c0 0.281-0.134 0.536-0.362 0.696l-6 4.286c-0.254 0.188-0.603 0.214-0.884 0.067-0.295-0.147-0.469-0.442-0.469-0.763v-8.571c0-0.321 0.174-0.616 0.469-0.763 0.281-0.147 0.629-0.121 0.884 0.067l6 4.286c0.228 0.161 0.362 0.415 0.362 0.696zM17.143 18.429v-12.857c0-0.241-0.188-0.429-0.429-0.429h-12.857c-0.241 0-0.429 0.188-0.429 0.429v12.857c0 0.241 0.188 0.429 0.429 0.429h12.857c0.241 0 0.429-0.188 0.429-0.429zM20.571 5.571v12.857c0 2.129-1.728 3.857-3.857 3.857h-12.857c-2.129 0-3.857-1.728-3.857-3.857v-12.857c0-2.129 1.728-3.857 3.857-3.857h12.857c2.129 0 3.857 1.728 3.857 3.857z"></path>
</svg>
