<!-- Generated by IcoMoon.io -->
<svg version="1.1" xmlns="http://www.w3.org/2000/svg" width="22" height="24" viewBox="0 0 22 24">
<path d="M16.286 9.429c0-0.469-0.388-0.857-0.857-0.857h-1.714v-1.714c0-0.469-0.388-0.857-0.857-0.857s-0.857 0.388-0.857 0.857v1.714h-1.714c-0.469 0-0.857 0.388-0.857 0.857s0.388 0.857 0.857 0.857h1.714v1.714c0 0.469 0.388 0.857 0.857 0.857s0.857-0.388 0.857-0.857v-1.714h1.714c0.469 0 0.857-0.388 0.857-0.857zM8.571 20.571c0 0.951-0.763 1.714-1.714 1.714s-1.714-0.763-1.714-1.714 0.763-1.714 1.714-1.714 1.714 0.763 1.714 1.714zM20.571 20.571c0 0.951-0.763 1.714-1.714 1.714s-1.714-0.763-1.714-1.714 0.763-1.714 1.714-1.714 1.714 0.763 1.714 1.714zM22.286 6v6.857c0 0.429-0.321 0.804-0.763 0.857l-13.982 1.634c0.054 0.295 0.174 0.629 0.174 0.938s-0.188 0.589-0.321 0.857h12.321c0.469 0 0.857 0.388 0.857 0.857s-0.388 0.857-0.857 0.857h-13.714c-0.469 0-0.857-0.388-0.857-0.857 0-0.415 0.629-1.446 0.817-1.835l-2.371-11.022h-2.732c-0.469 0-0.857-0.388-0.857-0.857s0.388-0.857 0.857-0.857h3.429c0.911 0 0.924 1.071 1.058 1.714h16.085c0.469 0 0.857 0.388 0.857 0.857z"></path>
</svg>
