<!-- Generated by IcoMoon.io -->
<svg version="1.1" xmlns="http://www.w3.org/2000/svg" width="31" height="24" viewBox="0 0 31 24">
<path d="M1.594 9.134h1.192l-0.603-1.446zM9.911 16.179l0.991-1.058-0.938-1.058h-2.183v0.656h1.902v0.737h-1.902v0.723h2.129zM12.027 15.134l1.326 1.473v-2.906zM15.884 14.504c0-0.321-0.241-0.442-0.536-0.442h-1.125v0.924h1.112c0.308 0 0.549-0.147 0.549-0.482zM19.754 14.451c0-0.335-0.295-0.388-0.563-0.388h-1.098v0.817h1.085c0.295 0 0.576-0.067 0.576-0.429zM16.031 8.21c0-0.335-0.295-0.388-0.563-0.388h-1.098v0.804h1.085c0.295 0 0.576-0.067 0.576-0.415zM22.179 9.134h1.192l-0.589-1.446zM9.362 7.058v3.629h-0.884v-2.839l-1.259 2.839h-0.763l-1.259-2.839v2.839h-1.768l-0.335-0.804h-1.808l-0.335 0.804h-0.938l1.554-3.629h1.286l1.473 3.442v-3.442h1.42l1.138 2.464 1.031-2.464h1.446zM16.808 14.504c0 1.46-1.594 1.219-2.585 1.219v1.219h-1.688l-1.071-1.205-1.112 1.205h-3.429v-3.629h3.482l1.071 1.192 1.098-1.192h2.772c0.817 0 1.46 0.281 1.46 1.192zM12.911 9.938v0.75h-2.906v-3.629h2.906v0.763h-2.036v0.656h1.982v0.737h-1.982v0.723h2.036zM30.857 17.424v3.067c0 0.978-0.79 1.795-1.768 1.795h-27.321c-0.978 0-1.768-0.817-1.768-1.795v-9.080h1.487l0.335-0.817h0.737l0.335 0.817h2.92v-0.616l0.254 0.616h1.513l0.268-0.629v0.629h7.246v-1.326l0.134-0.013c0.121 0 0.134 0.094 0.134 0.188v1.152h3.737v-0.308c0.871 0.455 2.063 0.308 2.973 0.308l0.335-0.817h0.75l0.335 0.817h3.040v-0.777l0.455 0.777h2.438v-5.063h-2.411v0.589l-0.335-0.589h-2.478v0.589l-0.308-0.589h-3.335c-0.496 0-1.018 0.054-1.46 0.295v-0.295h-2.304v0.295c-0.268-0.241-0.629-0.295-0.978-0.295h-8.411l-0.576 1.299-0.576-1.299h-2.652v0.589l-0.295-0.589h-2.263l-1.045 2.397v-5.237c0-0.978 0.79-1.795 1.768-1.795h27.321c0.978 0 1.768 0.817 1.768 1.795v9.080h-1.607c-0.375 0-0.777 0.067-1.085 0.295v-0.295h-2.371c-0.335 0-0.79 0.054-1.045 0.295v-0.295h-4.232v0.295c-0.321-0.228-0.79-0.295-1.165-0.295h-2.799v0.295c-0.281-0.268-0.857-0.295-1.219-0.295h-3.134l-0.723 0.777-0.67-0.777h-4.674v5.063h4.594l0.737-0.79 0.696 0.79h2.826v-1.192h0.281c0.402 0 0.817-0.013 1.205-0.174v1.366h2.33v-1.326h0.107c0.134 0 0.161 0.013 0.161 0.161v1.165h7.085c0.388 0 0.871-0.080 1.179-0.321v0.321h2.25c0.429 0 0.884-0.040 1.272-0.228zM20.705 14.29c0 0.402-0.214 0.804-0.616 0.964 0.482 0.174 0.576 0.496 0.576 0.964v0.723h-0.871v-0.603c0-0.616-0.201-0.723-0.777-0.723h-0.924v1.326h-0.871v-3.629h2.063c0.683 0 1.42 0.121 1.42 0.978zM16.996 8.036c0 0.415-0.228 0.817-0.616 0.978 0.496 0.174 0.576 0.482 0.576 0.964v0.71h-0.871c-0.013-0.777 0.188-1.313-0.777-1.313h-0.938v1.313h-0.857v-3.629l2.049 0.013c0.696 0 1.433 0.107 1.433 0.964zM24.080 16.192v0.75h-2.893v-3.629h2.893v0.75h-2.022v0.656h1.982v0.737h-1.982v0.723zM18.375 7.058v3.629h-0.884v-3.629h0.884zM27.656 15.79c0 0.857-0.589 1.152-1.366 1.152h-1.688v-0.777h1.688c0.214 0 0.455-0.054 0.455-0.335 0-0.777-2.237 0.295-2.237-1.433 0-0.737 0.563-1.085 1.232-1.085h1.741v0.763h-1.594c-0.228 0-0.482 0.040-0.482 0.335 0 0.79 2.25-0.362 2.25 1.379zM30.857 15.121v1.353c-0.254 0.375-0.75 0.469-1.179 0.469h-1.674v-0.777h1.674c0.214 0 0.442-0.067 0.442-0.335 0-0.763-2.237 0.295-2.237-1.433 0-0.737 0.576-1.085 1.246-1.085h1.728v0.763h-1.58c-0.241 0-0.482 0.040-0.482 0.335 0 0.643 1.513-0.013 2.063 0.71zM28.647 7.071v3.616h-1.232l-1.634-2.719v2.719h-1.768l-0.348-0.804h-1.795l-0.335 0.804h-1.004c-1.192 0-1.728-0.616-1.728-1.781 0-1.219 0.549-1.848 1.781-1.848h0.844v0.79c-0.911-0.013-1.741-0.214-1.741 1.031 0 0.616 0.147 1.045 0.844 1.045h0.388l1.232-2.853h1.299l1.46 3.429v-3.429h1.326l1.527 2.518v-2.518h0.884z"></path>
</svg>
