<!-- Generated by IcoMoon.io -->
<svg version="1.1" xmlns="http://www.w3.org/2000/svg" width="31" height="24" viewBox="0 0 31 24">
<path d="M11.491 16.621v-9.281c-1.862 0.723-3.188 2.531-3.188 4.647s1.326 3.924 3.188 4.634zM18.241 11.987c0-2.116-1.326-3.924-3.188-4.647v9.295c1.862-0.723 3.188-2.531 3.188-4.647zM21.121 11.987c0 4.326-3.509 7.848-7.848 7.848-4.326 0-7.848-3.522-7.848-7.848 0-4.339 3.522-7.848 7.848-7.848 4.339 0 7.848 3.509 7.848 7.848zM26.25 12.080c0-5.116-4.272-8.652-8.96-8.652h-4.031c-4.741 0-8.652 3.536-8.652 8.652 0 4.674 3.911 8.491 8.652 8.491h4.031c4.688 0 8.96-3.817 8.96-8.491zM30.857 3.429v17.143c0 0.938-0.777 1.714-1.714 1.714h-27.429c-0.938 0-1.714-0.777-1.714-1.714v-17.143c0-0.938 0.777-1.714 1.714-1.714h27.429c0.938 0 1.714 0.777 1.714 1.714z"></path>
</svg>
