<!-- Generated by IcoMoon.io -->
<svg version="1.1" xmlns="http://www.w3.org/2000/svg" width="31" height="24" viewBox="0 0 31 24">
<path d="M4.192 10.406c0 0.429-0.174 0.844-0.482 1.125-0.268 0.241-0.629 0.348-1.192 0.348h-0.228v-2.946h0.228c0.563 0 0.911 0.094 1.192 0.362 0.308 0.268 0.482 0.683 0.482 1.112zM27.978 9.536c0 0.455-0.295 0.696-0.857 0.696h-0.254v-1.353h0.268c0.549 0 0.844 0.228 0.844 0.656zM5.089 10.406c0-1.313-0.978-2.237-2.397-2.237h-1.272v4.46h1.272c0.67 0 1.165-0.147 1.594-0.509 0.509-0.429 0.804-1.058 0.804-1.714zM5.491 12.629h0.871v-4.46h-0.871v4.46zM9.777 11.277c0-0.71-0.295-1.031-1.286-1.393-0.522-0.188-0.67-0.321-0.67-0.563 0-0.281 0.268-0.496 0.643-0.496 0.268 0 0.482 0.107 0.71 0.362l0.455-0.589c-0.375-0.335-0.83-0.496-1.313-0.496-0.79 0-1.393 0.549-1.393 1.272 0 0.616 0.281 0.938 1.098 1.232 0.335 0.121 0.509 0.188 0.603 0.254 0.174 0.107 0.254 0.268 0.254 0.455 0 0.362-0.281 0.629-0.67 0.629-0.415 0-0.75-0.201-0.951-0.589l-0.563 0.536c0.402 0.589 0.884 0.857 1.54 0.857 0.911 0 1.54-0.603 1.54-1.473zM13.5 12.482v-1.031c-0.348 0.348-0.656 0.496-1.045 0.496-0.884 0-1.5-0.643-1.5-1.54 0-0.857 0.643-1.54 1.46-1.54 0.415 0 0.723 0.147 1.085 0.509v-1.031c-0.375-0.188-0.696-0.268-1.071-0.268-1.313 0-2.371 1.031-2.371 2.33 0 1.313 1.031 2.33 2.357 2.33 0.375 0 0.696-0.067 1.085-0.254zM30 20.571v-7.058c-2.143 1.339-9.683 5.625-21.871 7.915h21.013c0.469 0 0.857-0.388 0.857-0.857zM18.603 10.433c0-1.339-1.085-2.424-2.424-2.424s-2.424 1.085-2.424 2.424 1.085 2.424 2.424 2.424 2.424-1.085 2.424-2.424zM20.638 12.75l1.929-4.58h-0.951l-1.205 3-1.192-3h-0.951l1.902 4.58h0.469zM22.955 12.629h2.464v-0.75h-1.594v-1.205h1.54v-0.75h-1.54v-0.991h1.594v-0.763h-2.464v4.46zM28.192 12.629h1.071l-1.406-1.875c0.656-0.134 1.018-0.576 1.018-1.259 0-0.844-0.576-1.326-1.58-1.326h-1.299v4.46h0.871v-1.781h0.121zM30.857 3.509v16.982c0 0.991-0.79 1.795-1.768 1.795h-27.321c-0.978 0-1.768-0.804-1.768-1.795v-16.982c0-0.991 0.79-1.795 1.768-1.795h27.321c0.978 0 1.768 0.804 1.768 1.795z"></path>
</svg>
