<!-- Generated by IcoMoon.io -->
<svg version="1.1" xmlns="http://www.w3.org/2000/svg" width="31" height="24" viewBox="0 0 31 24">
<path d="M26.129 13.366c0 0.482-0.321 0.83-0.723 0.911-0.054 0.013-0.174 0.027-0.241 0.027h-2.049v-1.875h2.049c0.067 0 0.188 0.013 0.241 0.027 0.402 0.080 0.723 0.442 0.723 0.911zM25.888 10.513c0 0.469-0.321 0.777-0.71 0.844-0.040 0.013-0.134 0.013-0.201 0.013h-1.862v-1.728h1.862c0.067 0 0.161 0.013 0.201 0.013 0.388 0.067 0.71 0.388 0.71 0.857zM9.75 12.71v-4.125h-3.054v4.125c0 1.004-0.683 1.754-1.915 1.754-1.045 0-2.076-0.308-3.067-0.79v1.5c1.607 0.442 3.643 0.442 3.643 0.442 3.402 0 4.393-1.299 4.393-2.906zM19.313 15.174v-1.513c-0.696 0.362-1.58 0.71-2.679 0.79-1.929 0.147-3.080-0.79-3.080-2.451s1.152-2.598 3.080-2.451c1.098 0.080 1.969 0.415 2.679 0.777v-1.5c-1.433-0.362-2.786-0.415-2.786-0.415-4.714-0.214-6.054 1.647-6.054 3.589s1.339 3.804 6.054 3.589c0 0 1.353-0.054 2.786-0.415zM29.143 13.634c0-0.991-0.884-1.634-2.036-1.714v-0.040c1.045-0.147 1.621-0.83 1.621-1.621 0-1.018-0.844-1.607-1.982-1.661-0.080 0-0.228-0.013-0.348-0.013h-6.094v6.83h6.576c1.299 0 2.263-0.696 2.263-1.781zM30.857 3.429v17.143c0 0.938-0.777 1.714-1.714 1.714h-27.429c-0.938 0-1.714-0.777-1.714-1.714v-17.143c0-0.938 0.777-1.714 1.714-1.714h27.429c0.938 0 1.714 0.777 1.714 1.714z"></path>
</svg>
