<!-- Generated by IcoMoon.io -->
<svg version="1.1" xmlns="http://www.w3.org/2000/svg" width="31" height="24" viewBox="0 0 31 24">
<path d="M14.987 4.567c-1.112-0.737-2.424-1.138-3.763-1.138-3.763 0-6.817 3.054-6.817 6.804 0 3.763 3.054 6.817 6.817 6.817 1.339 0 2.652-0.402 3.763-1.138-3.589-2.92-3.563-8.424 0-11.344zM15.429 4.888c-3.455 2.719-3.469 7.996 0 10.701 3.469-2.705 3.455-7.982 0-10.701zM15.871 4.567c3.549 2.92 3.603 8.438 0 11.344 1.112 0.737 2.438 1.138 3.763 1.138 3.763 0 6.817-3.054 6.817-6.817 0-3.75-3.054-6.804-6.817-6.804-1.339 0-2.652 0.402-3.763 1.138zM25.795 14.237h0.094v-0.040h-0.228v0.040h0.094v0.228h0.040v-0.228zM26.183 14.464h0.054v-0.268h-0.067l-0.080 0.174-0.080-0.174h-0.067v0.268h0.040v-0.201l0.080 0.174h0.054l0.067-0.174v0.201zM26.076 20.357v0.027h-0.067v-0.040h0.067v0.013zM26.076 20.478h0.040l-0.054-0.067c0.027 0 0.027-0.013 0.040-0.013 0.013-0.013 0.013-0.027 0.013-0.040s0-0.027-0.013-0.040c-0.013 0-0.027-0.013-0.054-0.013h-0.080v0.174h0.040v-0.067h0.013zM9.174 19.567c0-0.321 0.201-0.576 0.549-0.576 0.321 0 0.536 0.254 0.536 0.576 0 0.335-0.214 0.576-0.536 0.576-0.348 0-0.549-0.254-0.549-0.576zM15.509 18.978c0.254 0 0.429 0.147 0.469 0.429h-0.938c0.040-0.254 0.201-0.429 0.469-0.429zM20.277 19.567c0-0.321 0.201-0.576 0.536-0.576s0.549 0.254 0.549 0.576c0 0.335-0.214 0.576-0.549 0.576s-0.536-0.254-0.536-0.576zM23.92 19.567c0-0.321 0.214-0.576 0.549-0.576 0.321 0 0.549 0.254 0.549 0.576 0 0.335-0.228 0.576-0.549 0.576-0.335 0-0.549-0.254-0.549-0.576zM26.036 20.531c-0.013 0-0.027 0-0.054-0.013-0.013 0-0.027-0.013-0.040-0.027s-0.027-0.027-0.027-0.040-0.013-0.040-0.013-0.054 0-0.040 0.013-0.054c0-0.027 0.013-0.040 0.027-0.054s0.027-0.013 0.040-0.027 0.040-0.013 0.054-0.013 0.040 0 0.054 0.013 0.040 0.013 0.054 0.027 0.013 0.027 0.027 0.054c0 0.013 0.013 0.027 0.013 0.054 0 0.013-0.013 0.027-0.013 0.054-0.013 0.013-0.013 0.027-0.027 0.040s-0.027 0.027-0.054 0.027c-0.013 0.013-0.027 0.013-0.054 0.013zM8.022 20.478h0.402v-1.138c0-0.429-0.281-0.71-0.723-0.723-0.228 0-0.469 0.067-0.629 0.321-0.121-0.201-0.321-0.321-0.603-0.321-0.188 0-0.375 0.067-0.522 0.268v-0.214h-0.402v1.808h0.402v-1.004c0-0.321 0.174-0.482 0.442-0.482s0.402 0.174 0.402 0.482v1.004h0.388v-1.004c0-0.321 0.188-0.482 0.442-0.482 0.268 0 0.402 0.174 0.402 0.482v1.004zM10.246 20.478h0.388v-1.808h-0.388v0.214c-0.134-0.161-0.321-0.268-0.576-0.268-0.509 0-0.897 0.402-0.897 0.951s0.388 0.951 0.897 0.951c0.254 0 0.442-0.094 0.576-0.268v0.228zM12.629 19.929c0-0.321-0.241-0.482-0.629-0.536l-0.188-0.027c-0.174-0.027-0.308-0.067-0.308-0.188s0.121-0.201 0.335-0.201c0.241 0 0.455 0.080 0.576 0.147l0.161-0.321c-0.188-0.121-0.442-0.188-0.737-0.188-0.455 0-0.75 0.228-0.75 0.589 0 0.295 0.214 0.469 0.629 0.522l0.174 0.027c0.228 0.040 0.321 0.094 0.321 0.188 0 0.147-0.147 0.228-0.415 0.228s-0.469-0.094-0.603-0.188l-0.174 0.308c0.214 0.147 0.482 0.228 0.777 0.228 0.522 0 0.83-0.241 0.83-0.589zM14.371 20.384l-0.107-0.335c-0.121 0.067-0.241 0.094-0.348 0.094-0.201 0-0.254-0.121-0.254-0.295v-0.817h0.643v-0.362h-0.643v-0.549h-0.402v0.549h-0.375v0.362h0.375v0.817c0 0.415 0.161 0.67 0.629 0.67 0.161 0 0.362-0.054 0.482-0.134zM15.522 18.616c-0.522 0-0.897 0.388-0.897 0.951 0 0.576 0.388 0.951 0.924 0.951 0.268 0 0.522-0.067 0.737-0.254l-0.188-0.295c-0.147 0.121-0.348 0.201-0.522 0.201-0.254 0-0.482-0.121-0.549-0.442h1.353v-0.161c0-0.563-0.348-0.951-0.857-0.951zM17.652 18.616c-0.228 0-0.375 0.107-0.469 0.268v-0.214h-0.402v1.808h0.402v-1.018c0-0.295 0.121-0.469 0.388-0.469 0.080 0 0.161 0.013 0.241 0.054l0.121-0.375c-0.094-0.040-0.201-0.054-0.281-0.054zM18.054 19.567c0 0.549 0.375 0.951 0.964 0.951 0.268 0 0.455-0.054 0.643-0.214l-0.188-0.321c-0.147 0.107-0.295 0.174-0.469 0.161-0.321 0-0.549-0.228-0.549-0.576s0.228-0.576 0.549-0.576c0.174 0 0.321 0.054 0.469 0.161l0.188-0.321c-0.188-0.147-0.375-0.214-0.643-0.214-0.589 0-0.964 0.402-0.964 0.951zM21.335 20.478h0.402v-1.808h-0.402v0.214c-0.121-0.161-0.308-0.268-0.563-0.268-0.509 0-0.911 0.402-0.911 0.951s0.402 0.951 0.911 0.951c0.254 0 0.442-0.094 0.563-0.268v0.228zM23.116 18.616c-0.228 0-0.375 0.107-0.469 0.268v-0.214h-0.388v1.808h0.388v-1.018c0-0.295 0.134-0.469 0.388-0.469 0.080 0 0.161 0.013 0.241 0.054l0.121-0.375c-0.080-0.040-0.201-0.054-0.281-0.054zM24.991 20.478h0.388v-2.545h-0.388v0.951c-0.121-0.161-0.308-0.268-0.576-0.268-0.496 0-0.897 0.402-0.897 0.951s0.402 0.951 0.897 0.951c0.268 0 0.455-0.094 0.576-0.268v0.228zM26.036 20.21c-0.013 0-0.040 0.013-0.067 0.013-0.027 0.013-0.040 0.027-0.054 0.040-0.027 0.013-0.040 0.040-0.040 0.054-0.013 0.027-0.013 0.054-0.013 0.080 0 0.013 0 0.040 0.013 0.067 0 0.013 0.013 0.040 0.040 0.054 0.013 0.013 0.027 0.027 0.054 0.040s0.054 0.013 0.067 0.013c0.027 0 0.054 0 0.080-0.013 0.013-0.013 0.040-0.027 0.054-0.040s0.027-0.040 0.040-0.054c0.013-0.027 0.013-0.054 0.013-0.067 0-0.027 0-0.054-0.013-0.080-0.013-0.013-0.027-0.040-0.040-0.054s-0.040-0.027-0.054-0.040c-0.027 0-0.054-0.013-0.080-0.013zM30.857 3.429v17.143c0 0.938-0.777 1.714-1.714 1.714h-27.429c-0.938 0-1.714-0.777-1.714-1.714v-17.143c0-0.938 0.777-1.714 1.714-1.714h27.429c0.938 0 1.714 0.777 1.714 1.714z"></path>
</svg>
