<!-- Generated by IcoMoon.io -->
<svg version="1.1" xmlns="http://www.w3.org/2000/svg" width="27" height="24" viewBox="0 0 27 24">
<path d="M10.513 13.5h2.772c-0.254 2.826-1.875 4.54-4.192 4.54-2.893 0-4.647-2.223-4.647-5.786 0-3.536 1.929-5.746 4.366-5.746 2.679 0 4.179 1.661 4.406 4.473h-2.719c-0.094-1.138-0.656-1.795-1.567-1.795-1.004 0-1.607 1.071-1.607 3.188 0 1.54 0.268 2.987 1.728 2.987 0.924 0 1.353-0.804 1.46-1.862zM20.049 13.5h2.759c-0.254 2.826-1.862 4.54-4.179 4.54-2.893 0-4.647-2.223-4.647-5.786 0-3.536 1.929-5.746 4.366-5.746 2.679 0 4.179 1.661 4.406 4.473h-2.732c-0.080-1.138-0.656-1.795-1.554-1.795-1.004 0-1.607 1.071-1.607 3.188 0 1.54 0.254 2.987 1.714 2.987 0.924 0 1.366-0.804 1.473-1.862zM24.857 11.906c0-3.589-0.188-5.143-1.018-6.268-0.174-0.228-0.455-0.375-0.683-0.536-0.844-0.616-4.768-0.844-9.335-0.844s-8.679 0.228-9.509 0.844c-0.241 0.174-0.536 0.308-0.71 0.536-0.83 1.112-1.004 2.679-1.004 6.268 0 3.603 0.188 5.156 1.004 6.268 0.188 0.254 0.469 0.362 0.71 0.549 0.83 0.616 4.942 0.871 9.509 0.871s8.491-0.241 9.335-0.871c0.228-0.174 0.522-0.281 0.683-0.549 0.844-1.098 1.018-2.665 1.018-6.268zM27.429 1.714v20.571h-27.429v-20.571h27.429z"></path>
</svg>
