<!-- Generated by IcoMoon.io -->
<svg version="1.1" xmlns="http://www.w3.org/2000/svg" width="21" height="24" viewBox="0 0 21 24">
<path d="M18.429 12l1.848 1.808c0.254 0.241 0.348 0.603 0.268 0.938-0.094 0.335-0.362 0.603-0.696 0.683l-2.518 0.643 0.71 2.491c0.094 0.335 0 0.696-0.254 0.938-0.241 0.254-0.603 0.348-0.938 0.254l-2.491-0.71-0.643 2.518c-0.080 0.335-0.348 0.603-0.683 0.696-0.080 0.013-0.174 0.027-0.254 0.027-0.254 0-0.509-0.107-0.683-0.295l-1.808-1.848-1.808 1.848c-0.241 0.254-0.603 0.348-0.937 0.268-0.348-0.094-0.603-0.362-0.683-0.696l-0.643-2.518-2.491 0.71c-0.335 0.094-0.696 0-0.938-0.254-0.254-0.241-0.348-0.603-0.254-0.938l0.71-2.491-2.518-0.643c-0.335-0.080-0.603-0.348-0.696-0.683-0.080-0.335 0.013-0.696 0.268-0.938l1.848-1.808-1.848-1.808c-0.254-0.241-0.348-0.603-0.268-0.938 0.094-0.335 0.362-0.603 0.696-0.683l2.518-0.643-0.71-2.491c-0.094-0.335 0-0.696 0.254-0.938 0.241-0.254 0.603-0.348 0.938-0.254l2.491 0.71 0.643-2.518c0.080-0.335 0.348-0.603 0.683-0.683 0.335-0.094 0.696 0 0.937 0.254l1.808 1.862 1.808-1.862c0.241-0.254 0.589-0.348 0.938-0.254 0.335 0.080 0.603 0.348 0.683 0.683l0.643 2.518 2.491-0.71c0.335-0.094 0.696 0 0.938 0.254 0.254 0.241 0.348 0.603 0.254 0.938l-0.71 2.491 2.518 0.643c0.335 0.080 0.603 0.348 0.696 0.683 0.080 0.335-0.013 0.696-0.268 0.938z"></path>
</svg>
