<!-- Generated by IcoMoon.io -->
<svg version="1.1" xmlns="http://www.w3.org/2000/svg" width="24" height="24" viewBox="0 0 24 24">
<path d="M22.379 7.58c0 0.335-0.134 0.67-0.375 0.911l-11.518 11.518c-0.241 0.241-0.576 0.375-0.911 0.375s-0.67-0.134-0.911-0.375l-6.67-6.67c-0.241-0.241-0.375-0.576-0.375-0.911s0.134-0.67 0.375-0.911l1.821-1.821c0.241-0.241 0.576-0.375 0.911-0.375s0.67 0.134 0.911 0.375l3.938 3.951 8.786-8.799c0.241-0.241 0.576-0.375 0.911-0.375s0.67 0.134 0.911 0.375l1.821 1.821c0.241 0.241 0.375 0.576 0.375 0.911z"></path>
</svg>
