<!-- Generated by IcoMoon.io -->
<svg version="1.1" xmlns="http://www.w3.org/2000/svg" width="21" height="24" viewBox="0 0 21 24">
<path d="M15.683 10.888l-5.652 5.652c-0.335 0.335-0.871 0.335-1.205 0l-3.938-3.938c-0.335-0.335-0.335-0.871 0-1.205l1.366-1.366c0.335-0.335 0.871-0.335 1.205 0l1.969 1.969 3.683-3.683c0.335-0.335 0.871-0.335 1.205 0l1.366 1.366c0.335 0.335 0.335 0.871 0 1.205zM17.571 12c0-4.018-3.268-7.286-7.286-7.286s-7.286 3.268-7.286 7.286 3.268 7.286 7.286 7.286 7.286-3.268 7.286-7.286zM20.571 12c0 5.679-4.607 10.286-10.286 10.286s-10.286-4.607-10.286-10.286 4.607-10.286 10.286-10.286 10.286 4.607 10.286 10.286z"></path>
</svg>
