<!-- Generated by IcoMoon.io -->
<svg version="1.1" xmlns="http://www.w3.org/2000/svg" width="21" height="24" viewBox="0 0 21 24">
<path d="M17.196 9.83c0-0.228-0.080-0.455-0.241-0.616l-1.219-1.205c-0.161-0.161-0.375-0.254-0.603-0.254s-0.442 0.094-0.603 0.254l-5.464 5.451-3.027-3.027c-0.161-0.161-0.375-0.254-0.603-0.254s-0.442 0.094-0.603 0.254l-1.219 1.205c-0.161 0.161-0.241 0.388-0.241 0.616s0.080 0.442 0.241 0.603l4.848 4.848c0.161 0.161 0.388 0.254 0.603 0.254 0.228 0 0.455-0.094 0.616-0.254l7.272-7.272c0.161-0.161 0.241-0.375 0.241-0.603zM20.571 12c0 5.679-4.607 10.286-10.286 10.286s-10.286-4.607-10.286-10.286 4.607-10.286 10.286-10.286 10.286 4.607 10.286 10.286z"></path>
</svg>
