<!-- Generated by IcoMoon.io -->
<svg version="1.1" xmlns="http://www.w3.org/2000/svg" width="21" height="24" viewBox="0 0 21 24">
<path d="M9.174 17.397l8.223-8.223c0.335-0.335 0.335-0.871 0-1.205l-1.366-1.366c-0.335-0.335-0.871-0.335-1.205 0l-6.254 6.254-2.826-2.826c-0.335-0.335-0.871-0.335-1.205 0l-1.366 1.366c-0.335 0.335-0.335 0.871 0 1.205l4.795 4.795c0.335 0.335 0.871 0.335 1.205 0zM20.571 5.571v12.857c0 2.129-1.728 3.857-3.857 3.857h-12.857c-2.129 0-3.857-1.728-3.857-3.857v-12.857c0-2.129 1.728-3.857 3.857-3.857h12.857c2.129 0 3.857 1.728 3.857 3.857z"></path>
</svg>
