<!-- Generated by IcoMoon.io -->
<svg version="1.1" xmlns="http://www.w3.org/2000/svg" width="17" height="24" viewBox="0 0 17 24">
<path d="M15.911 7.339l-3.911 3.911v11.036c0 0.83-0.67 1.5-1.5 1.5s-1.5-0.67-1.5-1.5v-5.143h-0.857v5.143c0 0.83-0.67 1.5-1.5 1.5s-1.5-0.67-1.5-1.5v-11.036l-3.911-3.911c-0.496-0.509-0.496-1.313 0-1.821 0.509-0.496 1.312-0.496 1.821 0l3.054 3.054h4.929l3.054-3.054c0.509-0.496 1.313-0.496 1.821 0 0.496 0.509 0.496 1.313 0 1.821zM11.571 5.143c0 1.661-1.339 3-3 3s-3-1.339-3-3 1.339-3 3-3 3 1.339 3 3z"></path>
</svg>
