<!-- Generated by IcoMoon.io -->
<svg version="1.1" xmlns="http://www.w3.org/2000/svg" width="25" height="24" viewBox="0 0 25 24">
<path d="M11.96 0c2.049-0.013 4.138 0.509 6.040 1.607 2.103 1.219 3.696 2.973 4.714 4.982l-9.938-0.522c-2.813-0.161-5.491 1.42-6.415 4.071l-3.696-5.679c2.304-2.866 5.759-4.446 9.295-4.46zM1.955 5.424l4.513 8.879c1.272 2.504 3.964 4.031 6.75 3.509l-3.080 6.040c-5.746-0.884-10.138-5.853-10.138-11.853 0-2.424 0.723-4.688 1.955-6.576zM23.196 7.688c2.103 5.411 0 11.705-5.196 14.705-2.103 1.219-4.42 1.714-6.67 1.594l5.424-8.344c1.54-2.371 1.513-5.464-0.321-7.607zM12 7.955c2.237 0 4.045 1.808 4.045 4.045s-1.808 4.045-4.045 4.045-4.045-1.808-4.045-4.045 1.808-4.045 4.045-4.045z"></path>
</svg>
