<!-- Generated by IcoMoon.io -->
<svg version="1.1" xmlns="http://www.w3.org/2000/svg" width="24" height="24" viewBox="0 0 24 24">
<path d="M10.286 22.286h12v-8.571h-5.571c-0.71 0-1.286-0.576-1.286-1.286v-5.571h-5.143v15.429zM13.714 3v-0.857c0-0.228-0.201-0.429-0.429-0.429h-9.429c-0.228 0-0.429 0.201-0.429 0.429v0.857c0 0.228 0.201 0.429 0.429 0.429h9.429c0.228 0 0.429-0.201 0.429-0.429zM17.143 12h4.004l-4.004-4.004v4.004zM24 13.714v9c0 0.71-0.576 1.286-1.286 1.286h-12.857c-0.71 0-1.286-0.576-1.286-1.286v-2.143h-7.286c-0.71 0-1.286-0.576-1.286-1.286v-18c0-0.71 0.576-1.286 1.286-1.286h14.571c0.71 0 1.286 0.576 1.286 1.286v4.393c0.174 0.107 0.335 0.228 0.482 0.375l5.464 5.464c0.509 0.509 0.911 1.487 0.911 2.196z"></path>
</svg>
