<!-- Generated by IcoMoon.io -->
<svg version="1.1" xmlns="http://www.w3.org/2000/svg" width="21" height="24" viewBox="0 0 21 24">
<path d="M12 7.286v6c0 0.241-0.188 0.429-0.429 0.429h-4.286c-0.241 0-0.429-0.188-0.429-0.429v-0.857c0-0.241 0.188-0.429 0.429-0.429h3v-4.714c0-0.241 0.188-0.429 0.429-0.429h0.857c0.241 0 0.429 0.188 0.429 0.429zM17.571 12c0-4.018-3.268-7.286-7.286-7.286s-7.286 3.268-7.286 7.286 3.268 7.286 7.286 7.286 7.286-3.268 7.286-7.286zM20.571 12c0 5.679-4.607 10.286-10.286 10.286s-10.286-4.607-10.286-10.286 4.607-10.286 10.286-10.286 10.286 4.607 10.286 10.286z"></path>
</svg>
