<!-- Generated by IcoMoon.io -->
<svg version="1.1" xmlns="http://www.w3.org/2000/svg" width="24" height="24" viewBox="0 0 24 24">
<path d="M22.286 21.857v-14.571c0-0.228-0.201-0.429-0.429-0.429h-14.571c-0.228 0-0.429 0.201-0.429 0.429v14.571c0 0.228 0.201 0.429 0.429 0.429h14.571c0.228 0 0.429-0.201 0.429-0.429zM24 7.286v14.571c0 1.179-0.964 2.143-2.143 2.143h-14.571c-1.179 0-2.143-0.964-2.143-2.143v-14.571c0-1.179 0.964-2.143 2.143-2.143h14.571c1.179 0 2.143 0.964 2.143 2.143zM18.857 2.143v2.143h-1.714v-2.143c0-0.228-0.201-0.429-0.429-0.429h-14.571c-0.228 0-0.429 0.201-0.429 0.429v14.571c0 0.228 0.201 0.429 0.429 0.429h2.143v1.714h-2.143c-1.179 0-2.143-0.964-2.143-2.143v-14.571c0-1.179 0.964-2.143 2.143-2.143h14.571c1.179 0 2.143 0.964 2.143 2.143z"></path>
</svg>
