<!-- Generated by IcoMoon.io -->
<svg version="1.1" xmlns="http://www.w3.org/2000/svg" width="19" height="24" viewBox="0 0 19 24">
<path d="M17.384 17.705c0 0.335-0.134 0.67-0.375 0.911l-1.821 1.821c-0.241 0.241-0.576 0.375-0.911 0.375s-0.67-0.134-0.911-0.375l-3.938-3.938-3.938 3.938c-0.241 0.241-0.576 0.375-0.911 0.375s-0.67-0.134-0.911-0.375l-1.821-1.821c-0.241-0.241-0.375-0.576-0.375-0.911s0.134-0.67 0.375-0.911l3.938-3.938-3.938-3.938c-0.241-0.241-0.375-0.576-0.375-0.911s0.134-0.67 0.375-0.911l1.821-1.821c0.241-0.241 0.576-0.375 0.911-0.375s0.67 0.134 0.911 0.375l3.938 3.938 3.938-3.938c0.241-0.241 0.576-0.375 0.911-0.375s0.67 0.134 0.911 0.375l1.821 1.821c0.241 0.241 0.375 0.576 0.375 0.911s-0.134 0.67-0.375 0.911l-3.938 3.938 3.938 3.938c0.241 0.241 0.375 0.576 0.375 0.911z"></path>
</svg>
