<!-- Generated by IcoMoon.io -->
<svg version="1.1" xmlns="http://www.w3.org/2000/svg" width="26" height="24" viewBox="0 0 26 24">
<path d="M17.143 12.429c0-0.241-0.188-0.429-0.429-0.429h-3v-4.714c0-0.228-0.201-0.429-0.429-0.429h-2.571c-0.228 0-0.429 0.201-0.429 0.429v4.714h-3c-0.241 0-0.429 0.201-0.429 0.429 0 0.107 0.040 0.228 0.121 0.308l4.714 4.714c0.080 0.080 0.188 0.121 0.308 0.121 0.107 0 0.228-0.040 0.308-0.121l4.701-4.701c0.080-0.094 0.134-0.201 0.134-0.321zM25.714 15.429c0 2.839-2.304 5.143-5.143 5.143h-14.571c-3.308 0-6-2.692-6-6 0-2.33 1.353-4.446 3.455-5.424-0.013-0.201-0.027-0.388-0.027-0.576 0-3.79 3.067-6.857 6.857-6.857 2.786 0 5.29 1.688 6.348 4.259 0.616-0.536 1.406-0.83 2.223-0.83 1.888 0 3.429 1.54 3.429 3.429 0 0.656-0.188 1.299-0.549 1.848 2.33 0.549 3.978 2.625 3.978 5.009z"></path>
</svg>
