<!-- Generated by IcoMoon.io -->
<svg version="1.1" xmlns="http://www.w3.org/2000/svg" width="14" height="24" viewBox="0 0 14 24">
<path d="M8.076 20.571h-2.304c-0.241 0-0.429-0.188-0.429-0.429v-4.42h-3.857c-0.241 0-0.429-0.188-0.429-0.429v-1.379c0-0.241 0.188-0.429 0.429-0.429h3.857v-1.138h-3.857c-0.241 0-0.429-0.188-0.429-0.429v-1.393c0-0.228 0.188-0.429 0.429-0.429h2.866l-4.299-7.741c-0.067-0.134-0.067-0.295 0-0.429 0.080-0.134 0.228-0.214 0.375-0.214h2.598c0.161 0 0.308 0.094 0.388 0.241l2.879 5.692c0.321 0.629 0.536 1.165 0.75 1.674 0.228-0.576 0.522-1.138 0.777-1.728l2.558-5.625c0.067-0.161 0.228-0.254 0.388-0.254h2.558c0.147 0 0.281 0.080 0.362 0.214 0.080 0.121 0.080 0.281 0.013 0.415l-4.192 7.754h2.879c0.241 0 0.429 0.201 0.429 0.429v1.393c0 0.241-0.188 0.429-0.429 0.429h-3.884v1.138h3.884c0.241 0 0.429 0.188 0.429 0.429v1.379c0 0.241-0.188 0.429-0.429 0.429h-3.884v4.42c0 0.241-0.201 0.429-0.429 0.429z"></path>
</svg>
