<!-- Generated by IcoMoon.io -->
<svg version="1.1" xmlns="http://www.w3.org/2000/svg" width="14" height="24" viewBox="0 0 14 24">
<path d="M3.857 19.714c0-0.71-0.576-1.286-1.286-1.286s-1.286 0.576-1.286 1.286 0.576 1.286 1.286 1.286 1.286-0.576 1.286-1.286zM3.857 4.286c0-0.71-0.576-1.286-1.286-1.286s-1.286 0.576-1.286 1.286 0.576 1.286 1.286 1.286 1.286-0.576 1.286-1.286zM12.429 6c0-0.71-0.576-1.286-1.286-1.286s-1.286 0.576-1.286 1.286 0.576 1.286 1.286 1.286 1.286-0.576 1.286-1.286zM13.714 6c0 0.951-0.522 1.781-1.286 2.223-0.040 4.835-3.469 5.906-5.746 6.629-2.129 0.67-2.826 0.991-2.826 2.29v0.348c0.763 0.442 1.286 1.272 1.286 2.223 0 1.42-1.152 2.571-2.571 2.571s-2.571-1.152-2.571-2.571c0-0.951 0.522-1.781 1.286-2.223v-10.982c-0.763-0.442-1.286-1.272-1.286-2.223 0-1.42 1.152-2.571 2.571-2.571s2.571 1.152 2.571 2.571c0 0.951-0.522 1.781-1.286 2.223v6.656c0.683-0.335 1.406-0.563 2.063-0.763 2.491-0.79 3.911-1.379 3.937-4.179-0.763-0.442-1.286-1.272-1.286-2.223 0-1.42 1.152-2.571 2.571-2.571s2.571 1.152 2.571 2.571z"></path>
</svg>
