<!-- Generated by IcoMoon.io -->
<svg version="1.1" xmlns="http://www.w3.org/2000/svg" width="26" height="24" viewBox="0 0 26 24">
<path d="M8.263 18.737l-0.67 0.67c-0.174 0.174-0.442 0.174-0.616 0l-6.241-6.241c-0.174-0.174-0.174-0.442 0-0.616l6.241-6.241c0.174-0.174 0.442-0.174 0.616 0l0.67 0.67c0.174 0.174 0.174 0.442 0 0.616l-5.263 5.263 5.263 5.263c0.174 0.174 0.174 0.442 0 0.616zM16.179 4.446l-4.996 17.29c-0.067 0.228-0.308 0.362-0.522 0.295l-0.83-0.228c-0.228-0.067-0.362-0.308-0.295-0.536l4.996-17.29c0.067-0.228 0.308-0.362 0.522-0.295l0.83 0.228c0.228 0.067 0.362 0.308 0.295 0.536zM24.978 13.165l-6.241 6.241c-0.174 0.174-0.442 0.174-0.616 0l-0.67-0.67c-0.174-0.174-0.174-0.442 0-0.616l5.263-5.263-5.263-5.263c-0.174-0.174-0.174-0.442 0-0.616l0.67-0.67c0.174-0.174 0.442-0.174 0.616 0l6.241 6.241c0.174 0.174 0.174 0.442 0 0.616z"></path>
</svg>
