<!-- Generated by IcoMoon.io -->
<svg version="1.1" xmlns="http://www.w3.org/2000/svg" width="24" height="24" viewBox="0 0 24 24">
<path d="M2.893 15.656l8.076 5.384v-4.808l-4.473-2.987zM2.063 13.728l2.585-1.728-2.585-1.728v3.455zM13.031 21.040l8.076-5.384-3.603-2.411-4.473 2.987v4.808zM12 14.438l3.643-2.438-3.643-2.438-3.643 2.438zM6.496 10.754l4.473-2.987v-4.808l-8.076 5.384zM19.353 12l2.585 1.728v-3.455zM17.504 10.754l3.603-2.411-8.076-5.384v4.808zM24 8.344v7.313c0 0.335-0.174 0.67-0.455 0.857l-10.969 7.313c-0.174 0.107-0.375 0.174-0.576 0.174s-0.402-0.067-0.576-0.174l-10.969-7.313c-0.281-0.188-0.455-0.522-0.455-0.857v-7.313c0-0.335 0.174-0.67 0.455-0.857l10.969-7.313c0.174-0.107 0.375-0.174 0.576-0.174s0.402 0.067 0.576 0.174l10.969 7.313c0.281 0.188 0.455 0.522 0.455 0.857z"></path>
</svg>
