<!-- Generated by IcoMoon.io -->
<svg version="1.1" xmlns="http://www.w3.org/2000/svg" width="23" height="24" viewBox="0 0 23 24">
<path d="M21.214 17.277l-2.92-1.487c-1.313 2.143-3.643 3.455-6.161 3.455-3.991 0-7.219-3.228-7.219-7.205 0-3.991 3.228-7.219 7.219-7.219 2.344 0 4.54 1.138 5.893 3.067l2.879-1.674c-1.969-3.027-5.304-4.835-8.906-4.835-5.866 0-10.621 4.754-10.621 10.621s4.754 10.621 10.621 10.621c3.804 0 7.326-2.036 9.214-5.344zM13.795 11.96l9.281 4.714c-2.036 4.446-6.121 7.326-11.076 7.326-6.629 0-12-5.371-12-12s5.371-12 12-12c4.714 0 8.598 2.598 10.795 6.696zM20.665 12h-0.522v2.143h-1.286v-4.714h1.821c1.487 0 1.621 2.571-0.013 2.571z"></path>
</svg>
