<!-- Generated by IcoMoon.io -->
<svg version="1.1" xmlns="http://www.w3.org/2000/svg" width="25" height="24" viewBox="0 0 25 24">
<path d="M22.286 8.571c0-1.42-1.152-2.571-2.571-2.571h-0.857v5.143h0.857c1.42 0 2.571-1.152 2.571-2.571zM0 18.857h24c0 1.888-1.54 3.429-3.429 3.429h-17.143c-1.888 0-3.429-1.54-3.429-3.429zM24.857 8.571c0 2.839-2.304 5.143-5.143 5.143h-0.857v0.429c0 1.647-1.353 3-3 3h-9.429c-1.647 0-3-1.353-3-3v-9.857c0-0.469 0.388-0.857 0.857-0.857h15.429c2.839 0 5.143 2.304 5.143 5.143z"></path>
</svg>
