<!-- Generated by IcoMoon.io -->
<svg version="1.1" xmlns="http://www.w3.org/2000/svg" width="24" height="24" viewBox="0 0 24 24">
<path d="M8.571 12c0 0.951-0.763 1.714-1.714 1.714s-1.714-0.763-1.714-1.714 0.763-1.714 1.714-1.714 1.714 0.763 1.714 1.714zM13.714 12c0 0.951-0.763 1.714-1.714 1.714s-1.714-0.763-1.714-1.714 0.763-1.714 1.714-1.714 1.714 0.763 1.714 1.714zM18.857 12c0 0.951-0.763 1.714-1.714 1.714s-1.714-0.763-1.714-1.714 0.763-1.714 1.714-1.714 1.714 0.763 1.714 1.714zM12 5.143c-5.571 0-10.286 3.134-10.286 6.857 0 1.996 1.339 3.897 3.656 5.21l1.165 0.67-0.362 1.286c-0.254 0.951-0.589 1.688-0.938 2.304 1.353-0.563 2.585-1.326 3.683-2.29l0.576-0.509 0.763 0.080c0.576 0.067 1.165 0.107 1.741 0.107 5.571 0 10.286-3.134 10.286-6.857s-4.714-6.857-10.286-6.857zM24 12c0 4.741-5.371 8.571-12 8.571-0.656 0-1.313-0.040-1.942-0.107-1.754 1.554-3.844 2.652-6.161 3.241-0.482 0.134-1.004 0.228-1.527 0.295h-0.067c-0.268 0-0.509-0.214-0.576-0.509v-0.013c-0.067-0.335 0.161-0.536 0.362-0.777 0.844-0.951 1.808-1.754 2.438-3.991-2.759-1.567-4.527-3.991-4.527-6.71 0-4.728 5.371-8.571 12-8.571v0c6.629 0 12 3.844 12 8.571z"></path>
</svg>
