<!-- Generated by IcoMoon.io -->
<svg version="1.1" xmlns="http://www.w3.org/2000/svg" width="27" height="24" viewBox="0 0 27 24">
<path d="M27.429 11.987c0 0.375-0.268 0.683-0.616 0.75l-2.746 4.768c0.027 0.080 0.040 0.161 0.040 0.241 0 0.362-0.254 0.67-0.603 0.737l-2.585 4.513c0.027 0.067 0.040 0.134 0.040 0.214 0 0.415-0.335 0.763-0.763 0.763-0.214 0-0.415-0.094-0.549-0.241h-5.357c-0.134 0.161-0.348 0.268-0.576 0.268s-0.442-0.107-0.576-0.268h-5.344c-0.134 0.161-0.335 0.268-0.576 0.268-0.415 0-0.763-0.335-0.763-0.763 0-0.094 0.027-0.188 0.054-0.268l-2.585-4.487c-0.348-0.067-0.603-0.375-0.603-0.737 0-0.094 0.013-0.161 0.040-0.241l-2.759-4.768c-0.348-0.080-0.603-0.388-0.603-0.75 0-0.375 0.268-0.683 0.629-0.75l2.665-4.607c0-0.027-0.013-0.054-0.013-0.080 0-0.308 0.188-0.563 0.455-0.683l2.799-4.862c-0.027-0.067-0.054-0.161-0.054-0.241 0-0.429 0.348-0.763 0.763-0.763 0.241 0 0.442 0.107 0.589 0.281h5.304c0.134-0.174 0.335-0.281 0.576-0.281s0.442 0.107 0.576 0.281h5.33c0.147-0.174 0.348-0.281 0.589-0.281 0.415 0 0.763 0.335 0.763 0.763 0 0.080-0.027 0.161-0.054 0.241l2.772 4.795c0.402 0.013 0.737 0.348 0.737 0.75 0 0.134-0.040 0.254-0.094 0.362l2.504 4.339c0.335 0.067 0.589 0.375 0.589 0.737zM14.237 22.688h5.21l-4.58-4.741h-1.915l-4.58 4.741h4.821c0.134-0.121 0.321-0.214 0.522-0.214s0.388 0.094 0.522 0.214zM1.5 11.813c0.013 0.054 0.013 0.107 0.013 0.174s0 0.134-0.027 0.201l2.786 4.821c0.067 0.013 0.134 0.054 0.201 0.080l2.518-2.665v-4.647l-2.504-2.598c-0.121 0.080-0.254 0.121-0.388 0.134zM13.205 1.313h-5.196l2.545 2.679 7.42-2.679h-3.75c-0.134 0.134-0.308 0.214-0.509 0.214s-0.375-0.080-0.509-0.214zM22.621 17.545c0.013-0.054 0.040-0.107 0.067-0.147l-0.857-0.911-0.228 1.058h1.018zM21.201 17.545l0.295-1.406-3.375-3.563-3.964 4.112 0.844 0.857h6.201zM20.022 22.473l0.214-0.375 0.871-4.152h-5.719l4.46 4.594c0.054-0.027 0.107-0.054 0.174-0.067zM7.741 22.688h0.067l4.58-4.741h-4.996v4.487l0.054 0.080c0.121 0.040 0.214 0.094 0.295 0.174zM7.393 17.545h5.384l0.857-0.884-4.138-4.299-2.103 2.223v2.96zM4.808 17.545h2.183v-2.531l-2.25 2.371c0.027 0.054 0.054 0.107 0.067 0.161zM4.795 6.496c0 0.013 0.013 0.040 0.013 0.054 0 0.147-0.040 0.281-0.107 0.388l2.29 2.371v-3.603zM7.393 5.558v4.165l2.049 2.103 3.978-4.205-2.987-3.161zM7.446 1.487l-0.054 0.107v3.536l2.746-0.991-2.558-2.692c-0.040 0.013-0.080 0.027-0.134 0.040zM19.379 1.313h-0.214l-8.317 3 2.853 3.013zM13.701 7.902l-3.978 4.219 4.165 4.272 3.964-4.112zM9.214 12.080l-1.821-1.888v3.804zM13.902 16.955l-0.563 0.589h1.138zM18.402 12.295l3.188 3.362 1.768-8.357-0.040-0.067-0.013-0.013zM23.009 6.938c-0.067-0.107-0.107-0.241-0.107-0.388v-0.027l-2.893-5.036c-0.067-0.013-0.121-0.040-0.174-0.067l-5.853 6.201 4.152 4.379zM6.991 5.277v-2.987l-2.183 3.777zM6.991 17.946h-2.183l2.183 3.79v-3.79zM21.522 17.946l-0.643 3.040 1.741-3.040h-1.098zM23.156 17.009l2.772-4.835c-0.013-0.067-0.027-0.121-0.027-0.188 0-0.080 0.027-0.147 0.040-0.214l-2.29-3.964-1.728 8.196 1.031 1.098c0.067-0.040 0.134-0.067 0.201-0.094z"></path>
</svg>
