<!-- Generated by IcoMoon.io -->
<svg version="1.1" xmlns="http://www.w3.org/2000/svg" width="24" height="24" viewBox="0 0 24 24">
<path d="M1.848 1.714h2.638c-0.629 0.576-1.192 1.246-1.688 1.996-2.076 3.201-1.232 6.71-0.429 10.487 0.656 3.067 1.205 5.987 3.121 8.089h-3.643c-0.857 0-1.554-0.696-1.554-1.554v-17.464c0-0.857 0.696-1.554 1.554-1.554zM18.027 1.714h4.125c0.857 0 1.554 0.696 1.554 1.554v17.464c0 0.857-0.696 1.554-1.554 1.554h-2.384c1.768-1.754 2.772-4.299 2.625-7.567l-6.281 1.353c-0.080 1.487-0.589 2.92-2.625 3.348-1.138 0.241-2.076-0.027-2.665-0.536-0.723-0.616-1.299-1.42-2.263-6-0.978-4.594-0.777-5.558-0.375-6.415 0.335-0.696 1.085-1.339 2.21-1.58 2.049-0.429 3.094 0.683 3.777 2.009l6.268-1.339c-0.616-1.58-1.433-2.866-2.411-3.844z"></path>
</svg>
