<!-- Generated by IcoMoon.io -->
<svg version="1.1" xmlns="http://www.w3.org/2000/svg" width="24" height="24" viewBox="0 0 24 24">
<path d="M22.714 5.143c0.71 0 1.286 0.576 1.286 1.286v16.286c0 0.71-0.576 1.286-1.286 1.286h-12.857c-0.71 0-1.286-0.576-1.286-1.286v-3.857h-7.286c-0.71 0-1.286-0.576-1.286-1.286v-9c0-0.71 0.415-1.701 0.911-2.196l5.464-5.464c0.496-0.496 1.487-0.911 2.196-0.911h5.571c0.71 0 1.286 0.576 1.286 1.286v4.393c0.522-0.308 1.192-0.536 1.714-0.536h5.571zM15.429 7.996l-4.004 4.004h4.004v-4.004zM6.857 2.853l-4.004 4.004h4.004v-4.004zM9.482 11.518l4.232-4.232v-5.571h-5.143v5.571c0 0.71-0.576 1.286-1.286 1.286h-5.571v8.571h6.857v-3.429c0-0.71 0.415-1.701 0.911-2.196zM22.286 22.286v-15.429h-5.143v5.571c0 0.71-0.576 1.286-1.286 1.286h-5.571v8.571h12z"></path>
</svg>
