<!-- Generated by IcoMoon.io -->
<svg version="1.1" xmlns="http://www.w3.org/2000/svg" width="21" height="24" viewBox="0 0 21 24">
<path d="M15.402 14.384v1.46c0 1.888-3.013 2.585-4.902 2.585-3.67 0-6.429-2.799-6.429-6.496 0-3.629 2.732-6.362 6.362-6.362 1.326 0 4.795 0.469 4.795 2.598v1.46c0 0.121-0.094 0.214-0.214 0.214h-1.58c-0.121 0-0.214-0.094-0.214-0.214v-0.938c0-0.844-1.621-1.232-2.719-1.232-2.504 0-4.246 1.808-4.246 4.406 0 2.692 1.821 4.661 4.353 4.661 0.964 0 2.786-0.362 2.786-1.205v-0.938c0-0.121 0.094-0.214 0.201-0.214h1.594c0.107 0 0.214 0.094 0.214 0.214zM10.286 3.429c-4.728 0-8.571 3.844-8.571 8.571s3.844 8.571 8.571 8.571 8.571-3.844 8.571-8.571-3.844-8.571-8.571-8.571zM20.571 12c0 5.679-4.607 10.286-10.286 10.286s-10.286-4.607-10.286-10.286 4.607-10.286 10.286-10.286v0c5.679 0 10.286 4.607 10.286 10.286z"></path>
</svg>
