<!-- Generated by IcoMoon.io -->
<svg version="1.1" xmlns="http://www.w3.org/2000/svg" width="24" height="24" viewBox="0 0 24 24">
<path d="M8.103 16.513c2.196 0 3.388-1.339 3.442-1.393 0.107-0.134 0.134-0.335 0.040-0.482l-0.603-1.098c-0.054-0.121-0.188-0.201-0.321-0.228-0.134-0.013-0.268 0.040-0.362 0.147-0.013 0-0.857 0.897-2.089 0.897-1.353 0-2.33-0.991-2.33-2.371 0-1.366 0.951-2.344 2.277-2.344 1.112 0 1.848 0.75 1.848 0.75 0.094 0.094 0.214 0.147 0.348 0.134s0.254-0.080 0.321-0.188l0.71-1.045c0.107-0.161 0.094-0.375-0.027-0.522-0.040-0.054-1.125-1.286-3.254-1.286-2.638 0-4.607 1.942-4.607 4.513 0 2.612 1.929 4.513 4.607 4.513zM16.54 16.513c2.21 0 3.388-1.339 3.442-1.393 0.107-0.134 0.134-0.335 0.054-0.482l-0.603-1.098c-0.067-0.121-0.188-0.201-0.335-0.228-0.134-0.013-0.268 0.040-0.362 0.147-0.013 0-0.857 0.897-2.089 0.897-1.353 0-2.33-0.991-2.33-2.371 0-1.366 0.951-2.344 2.277-2.344 1.125 0 1.848 0.75 1.848 0.75 0.094 0.094 0.214 0.147 0.348 0.134s0.254-0.080 0.321-0.188l0.71-1.045c0.107-0.161 0.094-0.375-0.027-0.522-0.040-0.054-1.125-1.286-3.254-1.286-2.625 0-4.607 1.942-4.607 4.513 0 2.612 1.929 4.513 4.607 4.513zM12 2.143c-5.438 0-9.857 4.42-9.857 9.857s4.42 9.857 9.857 9.857 9.857-4.42 9.857-9.857-4.42-9.857-9.857-9.857zM12 0c6.629 0 12 5.371 12 12s-5.371 12-12 12-12-5.371-12-12 5.371-12 12-12z"></path>
</svg>
