<!-- Generated by IcoMoon.io -->
<svg version="1.1" xmlns="http://www.w3.org/2000/svg" width="26" height="24" viewBox="0 0 26 24">
<path d="M23.571 1.714c1.179 0 2.143 0.964 2.143 2.143v16.286c0 1.179-0.964 2.143-2.143 2.143h-21.429c-1.179 0-2.143-0.964-2.143-2.143v-16.286c0-1.179 0.964-2.143 2.143-2.143h21.429zM2.143 3.429c-0.228 0-0.429 0.201-0.429 0.429v3h22.286v-3c0-0.228-0.201-0.429-0.429-0.429h-21.429zM23.571 20.571c0.228 0 0.429-0.201 0.429-0.429v-8.143h-22.286v8.143c0 0.228 0.201 0.429 0.429 0.429h21.429zM3.429 18.857v-1.714h3.429v1.714h-3.429zM8.571 18.857v-1.714h5.143v1.714h-5.143z"></path>
</svg>
