<!-- Generated by IcoMoon.io -->
<svg version="1.1" xmlns="http://www.w3.org/2000/svg" width="22" height="24" viewBox="0 0 22 24">
<path d="M7.46 17.143h7.969v-7.969zM6.857 16.54l7.969-7.969h-7.969v7.969zM22.286 17.571v2.571c0 0.241-0.188 0.429-0.429 0.429h-3v3c0 0.241-0.188 0.429-0.429 0.429h-2.571c-0.241 0-0.429-0.188-0.429-0.429v-3h-11.571c-0.241 0-0.429-0.188-0.429-0.429v-11.571h-3c-0.241 0-0.429-0.188-0.429-0.429v-2.571c0-0.241 0.188-0.429 0.429-0.429h3v-3c0-0.241 0.188-0.429 0.429-0.429h2.571c0.241 0 0.429 0.188 0.429 0.429v3h11.397l3.295-3.308c0.174-0.161 0.442-0.161 0.616 0 0.161 0.174 0.161 0.442 0 0.616l-3.308 3.295v11.397h3c0.241 0 0.429 0.188 0.429 0.429z"></path>
</svg>
