<!-- Generated by IcoMoon.io -->
<svg version="1.1" xmlns="http://www.w3.org/2000/svg" width="21" height="24" viewBox="0 0 21 24">
<path d="M16.031 13.714h-1.46c-0.469 0-0.857-0.388-0.857-0.857v-1.714c0-0.469 0.388-0.857 0.857-0.857h1.46c-0.576-1.929-2.103-3.455-4.031-4.031v1.46c0 0.469-0.388 0.857-0.857 0.857h-1.714c-0.469 0-0.857-0.388-0.857-0.857v-1.46c-1.929 0.576-3.455 2.103-4.031 4.031h1.46c0.469 0 0.857 0.388 0.857 0.857v1.714c0 0.469-0.388 0.857-0.857 0.857h-1.46c0.576 1.929 2.103 3.455 4.031 4.031v-1.46c0-0.469 0.388-0.857 0.857-0.857h1.714c0.469 0 0.857 0.388 0.857 0.857v1.46c1.929-0.576 3.455-2.103 4.031-4.031zM20.571 11.143v1.714c0 0.469-0.388 0.857-0.857 0.857h-1.915c-0.656 2.879-2.92 5.143-5.799 5.799v1.915c0 0.469-0.388 0.857-0.857 0.857h-1.714c-0.469 0-0.857-0.388-0.857-0.857v-1.915c-2.879-0.656-5.143-2.92-5.799-5.799h-1.915c-0.469 0-0.857-0.388-0.857-0.857v-1.714c0-0.469 0.388-0.857 0.857-0.857h1.915c0.656-2.879 2.92-5.143 5.799-5.799v-1.915c0-0.469 0.388-0.857 0.857-0.857h1.714c0.469 0 0.857 0.388 0.857 0.857v1.915c2.879 0.656 5.143 2.92 5.799 5.799h1.915c0.469 0 0.857 0.388 0.857 0.857z"></path>
</svg>
