<!-- Generated by IcoMoon.io -->
<svg version="1.1" xmlns="http://www.w3.org/2000/svg" width="24" height="24" viewBox="0 0 24 24">
<path d="M12.857 12c0.469 0 0.857 0.388 0.857 0.857s-0.388 0.857-0.857 0.857-0.857-0.388-0.857-0.857 0.388-0.857 0.857-0.857zM16.875 12.857l6.79 5.33c0.241 0.174 0.362 0.469 0.335 0.75-0.040 0.295-0.214 0.549-0.469 0.683l-1.714 0.857c-0.121 0.067-0.254 0.094-0.388 0.094-0.147 0-0.295-0.040-0.415-0.107l-9.241-5.183-1.473 0.884c-0.054 0.027-0.107 0.054-0.161 0.067 0.121 0.415 0.174 0.857 0.134 1.299-0.121 1.379-1.045 2.692-2.518 3.629-1.138 0.723-2.451 1.125-3.71 1.125-1.205 0-2.223-0.362-2.973-1.045-0.763-0.71-1.152-1.728-1.058-2.772 0.121-1.366 1.045-2.692 2.504-3.629 1.138-0.723 2.464-1.125 3.723-1.125 0.75 0 1.433 0.147 2.022 0.415 0.080-0.121 0.174-0.214 0.295-0.295l1.634-0.978-1.634-0.978c-0.121-0.080-0.214-0.174-0.295-0.295-0.589 0.268-1.272 0.415-2.022 0.415-1.259 0-2.585-0.402-3.723-1.125-1.46-0.938-2.384-2.263-2.504-3.629-0.094-1.045 0.295-2.063 1.058-2.759 0.75-0.696 1.768-1.058 2.973-1.058 1.259 0 2.571 0.402 3.71 1.125 1.473 0.924 2.397 2.25 2.518 3.629 0.040 0.442-0.013 0.884-0.134 1.299 0.054 0.013 0.107 0.040 0.161 0.067l1.473 0.884 9.241-5.183c0.121-0.067 0.268-0.107 0.415-0.107 0.134 0 0.268 0.027 0.388 0.094l1.714 0.857c0.254 0.134 0.429 0.388 0.469 0.683 0.027 0.281-0.094 0.576-0.335 0.75zM7.754 9.375c0.817-0.75 0.308-2.103-1.138-3.013-0.817-0.522-1.768-0.79-2.571-0.79-0.616 0-1.165 0.161-1.513 0.482-0.817 0.75-0.308 2.103 1.138 3.013 0.817 0.522 1.754 0.79 2.571 0.79 0.616 0 1.165-0.161 1.513-0.482zM6.616 19.353c1.446-0.911 1.955-2.263 1.138-3.013-0.348-0.321-0.897-0.482-1.513-0.482-0.817 0-1.754 0.268-2.571 0.79-1.446 0.911-1.955 2.263-1.138 3.013 0.348 0.321 0.897 0.482 1.513 0.482 0.804 0 1.754-0.268 2.571-0.79zM9 11.143l1.286 0.777v-0.147c0-0.308 0.174-0.589 0.442-0.75l0.188-0.107-1.058-0.629-0.348 0.348c-0.107 0.107-0.188 0.214-0.295 0.308-0.040 0.040-0.067 0.054-0.094 0.080zM12 14.143l1.286 0.429 9.857-7.714-1.714-0.857-10.286 5.772v1.513l-2.143 1.286 0.121 0.107c0.027 0.040 0.054 0.054 0.094 0.080 0.107 0.107 0.188 0.214 0.295 0.321l0.348 0.348zM21.429 19.714l1.714-0.857-6.964-5.464-2.371 1.848c-0.040 0.054-0.107 0.067-0.174 0.094z"></path>
</svg>
