<!-- Generated by IcoMoon.io -->
<svg version="1.1" xmlns="http://www.w3.org/2000/svg" width="19" height="24" viewBox="0 0 19 24">
<path d="M8.571 0.857v8.571c0 1.085-0.696 2.063-1.714 2.424v10.433c0 0.938-0.777 1.714-1.714 1.714h-1.714c-0.938 0-1.714-0.777-1.714-1.714v-10.433c-1.018-0.362-1.714-1.339-1.714-2.424v-8.571c0-0.469 0.388-0.857 0.857-0.857s0.857 0.388 0.857 0.857v5.571c0 0.469 0.388 0.857 0.857 0.857s0.857-0.388 0.857-0.857v-5.571c0-0.469 0.388-0.857 0.857-0.857s0.857 0.388 0.857 0.857v5.571c0 0.469 0.388 0.857 0.857 0.857s0.857-0.388 0.857-0.857v-5.571c0-0.469 0.388-0.857 0.857-0.857s0.857 0.388 0.857 0.857zM18.857 0.857v21.429c0 0.938-0.777 1.714-1.714 1.714h-1.714c-0.938 0-1.714-0.777-1.714-1.714v-6.857h-3c-0.228 0-0.429-0.201-0.429-0.429v-10.714c0-2.357 1.929-4.286 4.286-4.286h3.429c0.469 0 0.857 0.388 0.857 0.857z"></path>
</svg>
