<!-- Generated by IcoMoon.io -->
<svg version="1.1" xmlns="http://www.w3.org/2000/svg" width="24" height="24" viewBox="0 0 24 24">
<path d="M5.143 15.429c0-0.951-0.763-1.714-1.714-1.714s-1.714 0.763-1.714 1.714 0.763 1.714 1.714 1.714 1.714-0.763 1.714-1.714zM7.714 9.429c0-0.951-0.763-1.714-1.714-1.714s-1.714 0.763-1.714 1.714 0.763 1.714 1.714 1.714 1.714-0.763 1.714-1.714zM13.446 15.871l1.353-5.116c0.107-0.455-0.161-0.924-0.616-1.045v0c-0.455-0.121-0.924 0.161-1.045 0.616l-1.353 5.116c-1.058 0.080-1.982 0.817-2.277 1.902-0.362 1.379 0.469 2.786 1.835 3.147 1.379 0.362 2.786-0.469 3.147-1.835 0.281-1.085-0.174-2.183-1.045-2.786zM22.286 15.429c0-0.951-0.763-1.714-1.714-1.714s-1.714 0.763-1.714 1.714 0.763 1.714 1.714 1.714 1.714-0.763 1.714-1.714zM13.714 6.857c0-0.951-0.763-1.714-1.714-1.714s-1.714 0.763-1.714 1.714 0.763 1.714 1.714 1.714 1.714-0.763 1.714-1.714zM19.714 9.429c0-0.951-0.763-1.714-1.714-1.714s-1.714 0.763-1.714 1.714 0.763 1.714 1.714 1.714 1.714-0.763 1.714-1.714zM24 15.429c0 2.304-0.656 4.527-1.888 6.469-0.161 0.241-0.429 0.388-0.723 0.388h-18.777c-0.295 0-0.563-0.147-0.723-0.388-1.232-1.929-1.888-4.165-1.888-6.469 0-6.616 5.384-12 12-12s12 5.384 12 12z"></path>
</svg>
