<!-- Generated by IcoMoon.io -->
<svg version="1.1" xmlns="http://www.w3.org/2000/svg" width="24" height="24" viewBox="0 0 24 24">
<path d="M14.143 11.143c0 0.469 0.388 0.857 0.857 0.857s0.857-0.388 0.857-0.857c0-2.598-2.116-4.714-4.714-4.714s-4.714 2.116-4.714 4.714c0 0.469 0.388 0.857 0.857 0.857s0.857-0.388 0.857-0.857c0-1.661 1.353-3 3-3s3 1.339 3 3zM11.183 3.429c-4.259 0-7.714 3.455-7.714 7.714 0 0.469 0.388 0.857 0.857 0.857s0.857-0.388 0.857-0.857c0-3.308 2.692-6 6-6s6 2.692 6 6c0 1.58-0.71 2.397-1.54 3.348-0.897 1.031-1.929 2.21-1.929 4.366 0 1.888-1.54 3.429-3.429 3.429-0.469 0-0.857 0.388-0.857 0.857s0.388 0.857 0.857 0.857c2.839 0 5.143-2.304 5.143-5.143 0-1.513 0.67-2.277 1.513-3.241 0.911-1.058 1.955-2.25 1.955-4.473 0-4.259-3.455-7.714-7.714-7.714zM7.915 13.058l3.027 3.027-7.754 7.754c-0.214 0.214-0.563 0.214-0.777 0l-2.25-2.25c-0.214-0.214-0.214-0.563 0-0.777zM21.589 0.161l2.25 2.25c0.214 0.214 0.214 0.563 0 0.79l-3.121 3.121-0.348 0.335-0.951 0.951c-0.576-1.339-1.46-2.518-2.612-3.455l3.991-3.991c0.228-0.214 0.576-0.214 0.79 0z"></path>
</svg>
