<!-- Generated by IcoMoon.io -->
<svg version="1.1" xmlns="http://www.w3.org/2000/svg" width="27" height="24" viewBox="0 0 27 24">
<path d="M2.839 10.286l8.344 8.906-4.018-8.906h-4.326zM13.714 20.625l4.674-10.339h-9.348zM7.205 8.571l2.732-5.143h-3.509l-3.857 5.143h4.634zM16.246 19.192l8.344-8.906h-4.326zM9.147 8.571h9.134l-2.732-5.143h-3.67zM20.223 8.571h4.634l-3.857-5.143h-3.509zM22.112 2.063l5.143 6.857c0.254 0.321 0.228 0.79-0.054 1.098l-12.857 13.714c-0.161 0.174-0.388 0.268-0.629 0.268s-0.469-0.094-0.629-0.268l-12.857-13.714c-0.281-0.308-0.308-0.777-0.054-1.098l5.143-6.857c0.161-0.228 0.415-0.348 0.683-0.348h15.429c0.268 0 0.522 0.121 0.683 0.348z"></path>
</svg>
