<!-- Generated by IcoMoon.io -->
<svg version="1.1" xmlns="http://www.w3.org/2000/svg" width="27" height="24" viewBox="0 0 27 24">
<path d="M4.393 3.777h2.732v13.165h-7.125v-9.335h4.393v-3.83zM4.393 14.746v-4.942h-1.647v4.942h1.647zM8.223 7.607v9.335h2.746v-9.335h-2.746zM8.223 3.777v2.732h2.746v-2.732h-2.746zM12.067 7.607h7.138v12.616h-7.138v-2.183h4.393v-1.098h-4.393v-9.335zM16.46 14.746v-4.942h-1.647v4.942h1.647zM20.304 7.607h7.125v12.616h-7.125v-2.183h4.379v-1.098h-4.379v-9.335zM24.683 14.746v-4.942h-1.647v4.942h1.647z"></path>
</svg>
