<!-- Generated by IcoMoon.io -->
<svg version="1.1" xmlns="http://www.w3.org/2000/svg" width="14" height="24" viewBox="0 0 14 24">
<path d="M13.098 15.871c0 2.732-1.955 4.888-4.795 5.357v2.344c0 0.241-0.188 0.429-0.429 0.429h-1.808c-0.228 0-0.429-0.188-0.429-0.429v-2.344c-3.134-0.442-4.848-2.317-4.915-2.397-0.134-0.161-0.147-0.388-0.027-0.549l1.379-1.808c0.067-0.094 0.188-0.147 0.308-0.161s0.241 0.027 0.321 0.121c0.027 0.013 1.902 1.808 4.272 1.808 1.313 0 2.732-0.696 2.732-2.21 0-1.286-1.58-1.915-3.388-2.638-2.411-0.951-5.411-2.156-5.411-5.518 0-2.464 1.929-4.5 4.728-5.036v-2.411c0-0.241 0.201-0.429 0.429-0.429h1.808c0.241 0 0.429 0.188 0.429 0.429v2.357c2.719 0.308 4.165 1.781 4.219 1.835 0.134 0.147 0.161 0.348 0.067 0.509l-1.085 1.955c-0.067 0.121-0.174 0.201-0.308 0.214-0.134 0.027-0.254-0.013-0.362-0.094-0.013-0.013-1.634-1.446-3.643-1.446-1.701 0-2.879 0.844-2.879 2.063 0 1.42 1.634 2.049 3.536 2.786 2.464 0.951 5.25 2.036 5.25 5.263z"></path>
</svg>
