<!-- Generated by IcoMoon.io -->
<svg version="1.1" xmlns="http://www.w3.org/2000/svg" width="21" height="24" viewBox="0 0 21 24">
<path d="M13.714 12c0 1.888-1.54 3.429-3.429 3.429s-3.429-1.54-3.429-3.429 1.54-3.429 3.429-3.429 3.429 1.54 3.429 3.429zM10.286 4.714c-4.018 0-7.286 3.268-7.286 7.286s3.268 7.286 7.286 7.286 7.286-3.268 7.286-7.286-3.268-7.286-7.286-7.286zM20.571 12c0 5.679-4.607 10.286-10.286 10.286s-10.286-4.607-10.286-10.286 4.607-10.286 10.286-10.286v0c5.679 0 10.286 4.607 10.286 10.286z"></path>
</svg>
