<!-- Generated by IcoMoon.io -->
<svg version="1.1" xmlns="http://www.w3.org/2000/svg" width="21" height="24" viewBox="0 0 21 24">
<path d="M13.714 20.089c-0.134-0.777-0.643-3.455-1.875-6.67-0.013 0-0.040 0.013-0.054 0.013 0 0-5.21 1.821-6.897 5.491-0.080-0.067-0.201-0.147-0.201-0.147 1.527 1.246 3.469 2.009 5.598 2.009 1.219 0 2.371-0.254 3.429-0.696zM11.237 11.96c-0.214-0.496-0.455-0.991-0.71-1.487-4.527 1.353-8.866 1.246-9.013 1.246-0.013 0.094-0.013 0.188-0.013 0.281 0 2.25 0.857 4.313 2.25 5.866v0c2.397-4.272 7.138-5.799 7.138-5.799 0.121-0.040 0.241-0.067 0.348-0.107zM9.804 9.121c-1.527-2.705-3.147-4.902-3.268-5.063-2.451 1.152-4.272 3.415-4.848 6.134 0.228 0 3.897 0.040 8.116-1.071zM18.964 13.393c-0.188-0.054-2.638-0.83-5.478-0.388 1.152 3.174 1.621 5.759 1.714 6.281 1.969-1.326 3.362-3.442 3.763-5.893zM8.183 3.469c-0.013 0-0.013 0-0.027 0.013 0 0 0.013-0.013 0.027-0.013zM16.085 5.411c-1.54-1.366-3.576-2.196-5.799-2.196-0.71 0-1.406 0.094-2.076 0.254 0.134 0.174 1.795 2.357 3.295 5.116 3.308-1.232 4.554-3.134 4.58-3.174zM19.071 11.906c-0.027-2.076-0.763-3.991-1.996-5.491-0.027 0.027-1.433 2.063-4.902 3.482 0.201 0.415 0.402 0.844 0.589 1.272 0.067 0.147 0.121 0.308 0.188 0.455 3.027-0.388 6.013 0.268 6.121 0.281zM20.571 12c0 5.679-4.607 10.286-10.286 10.286s-10.286-4.607-10.286-10.286 4.607-10.286 10.286-10.286 10.286 4.607 10.286 10.286z"></path>
</svg>
