<!-- Generated by IcoMoon.io -->
<svg version="1.1" xmlns="http://www.w3.org/2000/svg" width="27" height="24" viewBox="0 0 27 24">
<path d="M12 16.232c0-1.768-0.429-3.804-2.196-3.804-0.536 0.536-1.272 0.857-2.089 0.857s-1.554-0.321-2.089-0.857c-1.768 0-2.196 2.036-2.196 3.804 0 0.978 0.643 1.768 1.433 1.768h5.705c0.79 0 1.433-0.79 1.433-1.768zM10.286 10.286c0-1.42-1.152-2.571-2.571-2.571s-2.571 1.152-2.571 2.571 1.152 2.571 2.571 2.571 2.571-1.152 2.571-2.571zM24 16.714v-0.857c0-0.241-0.188-0.429-0.429-0.429h-9.429c-0.241 0-0.429 0.188-0.429 0.429v0.857c0 0.241 0.188 0.429 0.429 0.429h9.429c0.241 0 0.429-0.188 0.429-0.429zM18.857 13.286v-0.857c0-0.241-0.188-0.429-0.429-0.429h-4.286c-0.241 0-0.429 0.188-0.429 0.429v0.857c0 0.241 0.188 0.429 0.429 0.429h4.286c0.241 0 0.429-0.188 0.429-0.429zM24 13.286v-0.857c0-0.241-0.188-0.429-0.429-0.429h-2.571c-0.241 0-0.429 0.188-0.429 0.429v0.857c0 0.241 0.188 0.429 0.429 0.429h2.571c0.241 0 0.429-0.188 0.429-0.429zM24 9.857v-0.857c0-0.241-0.188-0.429-0.429-0.429h-9.429c-0.241 0-0.429 0.188-0.429 0.429v0.857c0 0.241 0.188 0.429 0.429 0.429h9.429c0.241 0 0.429-0.188 0.429-0.429zM1.714 5.143h24v-1.286c0-0.241-0.188-0.429-0.429-0.429h-23.143c-0.241 0-0.429 0.188-0.429 0.429v1.286zM27.429 3.857v16.286c0 1.179-0.964 2.143-2.143 2.143h-23.143c-1.179 0-2.143-0.964-2.143-2.143v-16.286c0-1.179 0.964-2.143 2.143-2.143h23.143c1.179 0 2.143 0.964 2.143 2.143z"></path>
</svg>
