<!-- Generated by IcoMoon.io -->
<svg version="1.1" xmlns="http://www.w3.org/2000/svg" width="21" height="24" viewBox="0 0 21 24">
<path d="M15.629 21.241c-0.027-0.094-0.107-0.228-0.321-0.067-0.455 0.335-1.473 0.75-2.92 0.75s-2.129-0.308-2.585-0.656c-0.067-0.054-0.040-0.054-0.174-0.054-0.147 0-0.228 0.067-0.348 0.161-0.107 0.094-0.161 0.321 0 0.482 0.991 0.911 2.652 0.83 3.871 0.723 1.232-0.121 2.277-0.844 2.384-0.951 0.161-0.161 0.121-0.295 0.094-0.388zM15.107 19.701c-0.094-0.228-0.254-0.629-0.522-0.817-0.268-0.174-0.656-0.201-1.018-0.201s-0.563-0.027-0.951 0.134-0.79 0.522-1.045 0.75-0.295 0.402-0.161 0.589c0.134 0.174 0.281 0.067 0.656-0.254 0.388-0.308 0.643-0.589 1.433-0.589s0.924 0.295 1.085 0.589 0.174 0.335 0.335 0.254c0.188-0.094 0.281-0.228 0.188-0.455zM19.862 15.938c0-0.696-0.308-1.875-1.446-1.875-1.071 0-3.241 2.223-4.379 2.237-1.326 0.027-3.161-2.625-5.813-2.598-2.089 0.013-3.737 1.674-3.763 3.442-0.013 0.991 0.308 1.728 0.991 2.196 0.455 0.308 0.871 0.496 2.223 0.496 2.25 0 5.103-2.786 6.415-2.746 1.045 0.040 2.665 2.598 3.482 2.652 0.643 0.054 0.978-0.241 1.527-1.031 0.536-0.804 0.763-2.063 0.763-2.772zM20.571 13.795c0 6-4.741 9.964-10.192 9.964-5.464 0-10.379-4.299-10.379-10.152 0-5.839 4.554-8.545 5.397-8.987 1.004-0.536 1.728-0.817 2.866-1.728 0.563-0.442 1.031-1.085 1.179-2.652 0.817 0.978 1.795 2.116 2.491 2.585 1.138 0.75 2.277 1.045 3.469 1.795 0.723 0.442 5.17 3.161 5.17 9.174z"></path>
</svg>
