<!-- Generated by IcoMoon.io -->
<svg version="1.1" xmlns="http://www.w3.org/2000/svg" width="24" height="24" viewBox="0 0 24 24">
<path d="M0.924 10.647h0.013c0.696-5.545 4.487-10.661 11.263-10.647 4.112 0 7.5 1.929 9.482 5.478 1.018 1.835 1.393 3.79 1.393 5.92v2.518h-15.067c0.067 6.214 9.134 6 13.045 3.268v5.049c-2.29 1.379-7.46 2.571-11.491 1.031-3.415-1.313-5.799-4.862-5.839-8.317-0.054-4.46 2.21-7.42 5.839-9.107-0.763 0.964-1.353 2.009-1.661 3.817h8.504c0.496-5.076-4.808-5.076-4.808-5.076-5.009 0.174-8.625 3.094-10.674 6.067z"></path>
</svg>
