<!-- Generated by IcoMoon.io -->
<svg version="1.1" xmlns="http://www.w3.org/2000/svg" width="23" height="24" viewBox="0 0 23 24">
<path d="M17.96 10.5c0.469-0.723-0.080-2.558-1.714-3.643-1.621-1.085-3.696-1.004-4.179-0.281-0.469 0.71 0.536 0.254 2.371 0.938 3.027 1.125 3.054 3.71 3.522 2.987zM22.821 18.188c-3.79 9.321-20.866 6.964-20.504-5.129 0.040-1.54 0.469-2.571 0.911-4.045-2.826 11.571 12.938 18.308 19.406 9.174 0.241-0.335 0.308-0.308 0.188 0zM19.621 12.174c0 3.79-3.054 6.871-6.817 6.871s-6.817-3.080-6.817-6.871 3.054-6.871 6.817-6.871 6.817 3.080 6.817 6.871zM23.464 8.317c-4.768-10.821-24.455-6.83-22.272 7.888-4.527-14.746 14.129-21.509 21.027-11.009 0.563 0.857 1.205 2.357 1.246 3.121zM22.634 12.897c0.228-4.527-2.906-7.621-7.138-8.786-0.067 0-0.362-0.121 0.188-0.174 10.339 0.348 10.714 16.875-0.549 17.063 3.67-1.018 7.272-3.563 7.5-8.103z"></path>
</svg>
