<!-- Generated by IcoMoon.io -->
<svg version="1.1" xmlns="http://www.w3.org/2000/svg" width="5" height="24" viewBox="0 0 5 24">
<path d="M5.143 16.714v2.571c0 0.71-0.576 1.286-1.286 1.286h-2.571c-0.71 0-1.286-0.576-1.286-1.286v-2.571c0-0.71 0.576-1.286 1.286-1.286h2.571c0.71 0 1.286 0.576 1.286 1.286zM5.143 9.857v2.571c0 0.71-0.576 1.286-1.286 1.286h-2.571c-0.71 0-1.286-0.576-1.286-1.286v-2.571c0-0.71 0.576-1.286 1.286-1.286h2.571c0.71 0 1.286 0.576 1.286 1.286zM5.143 3v2.571c0 0.71-0.576 1.286-1.286 1.286h-2.571c-0.71 0-1.286-0.576-1.286-1.286v-2.571c0-0.71 0.576-1.286 1.286-1.286h2.571c0.71 0 1.286 0.576 1.286 1.286z"></path>
</svg>
