<!-- Generated by IcoMoon.io -->
<svg version="1.1" xmlns="http://www.w3.org/2000/svg" width="24" height="24" viewBox="0 0 24 24">
<path d="M11.705 21.938v0.884c-3.777-0.107-7.085-2.143-8.946-5.156l0.777-0.455c0.281 0.469 0.616 0.911 0.978 1.326l0.871-0.763c1.259 1.433 2.973 2.451 4.929 2.839l-0.228 1.152c0.522 0.094 1.071 0.161 1.621 0.174zM3.696 14.839l-1.112 0.375c0.188 0.522 0.402 1.018 0.656 1.5l-0.763 0.442c-0.83-1.527-1.313-3.295-1.313-5.156s0.482-3.629 1.313-5.156l0.763 0.442c-0.254 0.469-0.482 0.978-0.656 1.5l1.098 0.375c-0.308 0.884-0.469 1.848-0.469 2.839s0.174 1.955 0.482 2.839zM20.464 17.21l0.777 0.455c-1.862 3.013-5.17 5.049-8.946 5.156v-0.884c0.549-0.013 1.098-0.080 1.621-0.174l-0.228-1.152c1.955-0.388 3.67-1.406 4.929-2.839l0.871 0.763c0.362-0.415 0.696-0.857 0.978-1.326zM18.442 9.79l-3.121 1.071c0.121 0.362 0.188 0.737 0.188 1.138s-0.067 0.777-0.188 1.138l3.107 1.071c-0.281 0.844-0.737 1.607-1.313 2.263l-2.478-2.17c-0.496 0.576-1.179 0.978-1.969 1.138l0.643 3.228c-0.415 0.080-0.857 0.134-1.313 0.134s-0.897-0.054-1.313-0.134l0.643-3.228c-0.79-0.161-1.473-0.563-1.969-1.138l-2.478 2.17c-0.576-0.656-1.031-1.42-1.313-2.263l3.107-1.071c-0.121-0.362-0.188-0.737-0.188-1.138s0.067-0.777 0.188-1.138l-3.121-1.071c0.295-0.844 0.75-1.607 1.326-2.263l2.478 2.17c0.496-0.576 1.179-0.991 1.969-1.152l-0.643-3.214c0.415-0.094 0.857-0.134 1.313-0.134s0.897 0.040 1.312 0.134l-0.643 3.214c0.79 0.161 1.473 0.576 1.969 1.152l2.478-2.17c0.576 0.656 1.031 1.42 1.326 2.263zM11.705 1.179v0.884c-0.549 0.013-1.098 0.067-1.621 0.174l0.228 1.152c-1.955 0.375-3.67 1.393-4.929 2.826l-0.871-0.75c-0.362 0.402-0.683 0.844-0.978 1.313l-0.763-0.442c1.862-3.027 5.156-5.049 8.933-5.156v0zM22.835 12c0 1.862-0.482 3.629-1.313 5.156l-0.763-0.442c0.254-0.482 0.469-0.978 0.656-1.5l-1.112-0.375c0.308-0.884 0.482-1.848 0.482-2.839s-0.161-1.955-0.469-2.839l1.098-0.375c-0.174-0.522-0.402-1.031-0.656-1.5l0.763-0.442c0.83 1.527 1.313 3.295 1.313 5.156zM21.228 6.335l-0.763 0.442c-0.295-0.469-0.616-0.911-0.978-1.313l-0.871 0.75c-1.259-1.433-2.973-2.451-4.929-2.826l0.228-1.152c-0.522-0.107-1.071-0.161-1.621-0.174v-0.884c3.777 0.107 7.071 2.129 8.933 5.156zM23.411 12c0-6.295-5.116-11.411-11.411-11.411v0c-6.295 0-11.411 5.116-11.411 11.411s5.116 11.411 11.411 11.411 11.411-5.116 11.411-11.411zM24 12c0 6.629-5.371 12-12 12s-12-5.371-12-12 5.371-12 12-12v0c6.629 0 12 5.371 12 12z"></path>
</svg>
