<!-- Generated by IcoMoon.io -->
<svg version="1.1" xmlns="http://www.w3.org/2000/svg" width="21" height="24" viewBox="0 0 21 24">
<path d="M16.714 1.714c2.129 0 3.857 1.728 3.857 3.857v12.857c0 2.129-1.728 3.857-3.857 3.857h-12.857c-2.129 0-3.857-1.728-3.857-3.857v-12.857c0-2.129 1.728-3.857 3.857-3.857h12.857zM17.143 15.857v-5.839c-0.254 0.281-0.536 0.536-0.857 0.737-1.259 0.83-2.558 1.607-3.804 2.464-0.629 0.442-1.406 0.924-2.196 0.924v0 0 0 0c-0.79 0-1.567-0.482-2.196-0.924-1.246-0.857-2.558-1.621-3.804-2.478-0.308-0.201-0.549-0.496-0.857-0.723v5.839c0 0.71 0.576 1.286 1.286 1.286h11.143c0.71 0 1.286-0.576 1.286-1.286zM17.143 8.183c0-0.723-0.536-1.326-1.286-1.326h-11.143c-0.71 0-1.286 0.576-1.286 1.286 0 0.723 0.75 1.513 1.313 1.888 1.179 0.79 2.397 1.527 3.576 2.304 0.509 0.335 1.353 0.951 1.969 0.951s1.46-0.616 1.969-0.951c1.192-0.777 2.384-1.54 3.576-2.33 0.522-0.348 1.313-1.152 1.313-1.821z"></path>
</svg>
