<!-- Generated by IcoMoon.io -->
<svg version="1.1" xmlns="http://www.w3.org/2000/svg" width="24" height="24" viewBox="0 0 24 24">
<path d="M24 8.759v13.098c0 1.179-0.964 2.143-2.143 2.143h-19.714c-1.179 0-2.143-0.964-2.143-2.143v-13.098c0-0.121 0.054-0.241 0.147-0.321 1.406-1.232 1.42-1.379 8.411-6.482 0.844-0.616 2.33-1.955 3.442-1.955s2.612 1.353 3.442 1.955c6.991 5.103 7.004 5.25 8.411 6.482 0.094 0.080 0.147 0.201 0.147 0.321zM16.446 16.594c2.089-1.513 3.549-2.571 4.621-3.375 0.188-0.134 0.228-0.402 0.080-0.589l-0.509-0.696c-0.147-0.188-0.415-0.228-0.603-0.080-1.058 0.777-2.504 1.848-4.594 3.348-0.83 0.603-2.33 1.942-3.442 1.942s-2.612-1.339-3.442-1.942c-2.089-1.513-3.536-2.571-4.594-3.348-0.188-0.147-0.455-0.107-0.603 0.080l-0.509 0.696c-0.147 0.188-0.107 0.455 0.080 0.589 1.071 0.804 2.531 1.862 4.621 3.375 1.045 0.75 2.692 2.263 4.446 2.263 1.768 0 3.455-1.54 4.446-2.263z"></path>
</svg>
