<!-- Generated by IcoMoon.io -->
<svg version="1.1" xmlns="http://www.w3.org/2000/svg" width="24" height="24" viewBox="0 0 24 24">
<path d="M19.741 12.228l0.522 0.683c0.147 0.188 0.107 0.442-0.067 0.589-1.339 1.045-4.42 3.415-4.554 3.522-0.951 0.777-2.237 1.848-3.629 1.835h-0.027c-1.393 0-2.679-1.058-3.629-1.835-0.147-0.121-3.121-2.411-4.433-3.429-0.188-0.147-0.228-0.402-0.080-0.589l0.496-0.696c0.147-0.201 0.429-0.241 0.616-0.080 0.911 0.71 2.196 1.701 4.098 3.161 0.67 0.509 1.996 1.754 2.933 1.754h0.027c0.938 0 2.263-1.246 2.933-1.754 1.969-1.513 3.281-2.518 4.192-3.241 0.188-0.147 0.455-0.107 0.603 0.080zM22.286 21.857v-12.429c-1.339-1.246-1.138-1.138-7.339-5.933-0.67-0.522-1.996-1.781-2.933-1.781h-0.027c-0.938 0-2.263 1.259-2.933 1.781-6.201 4.795-6 4.687-7.339 5.933v12.429c0 0.228 0.201 0.429 0.429 0.429h19.714c0.228 0 0.429-0.201 0.429-0.429zM24 9.429v12.429c0 1.179-0.964 2.143-2.143 2.143h-19.714c-1.179 0-2.143-0.964-2.143-2.143v-12.429c0-0.482 0.201-0.938 0.549-1.259 2.746-2.545 5.906-4.754 7.808-6.321 0.938-0.777 2.237-1.848 3.629-1.848h0.027c1.393 0 2.692 1.071 3.629 1.848 1.768 1.46 5.129 3.83 7.808 6.321 0.348 0.321 0.549 0.777 0.549 1.259z"></path>
</svg>
