<!-- Generated by IcoMoon.io -->
<svg version="1.1" xmlns="http://www.w3.org/2000/svg" width="26" height="24" viewBox="0 0 26 24">
<path d="M12 10.929c-1.701-3.214-3.268-6.348-7.728-8.464-2.665-1.259-0.281 0.496-0.281 0.496 2.424 1.674 3.536 3.938 4.835 6.415 1.688 3.228 4.232 7.487 7.728 8.987 3.482 1.5 1.835 0.67 0.321-0.455-1.513-1.138-3.656-4.661-4.875-6.978zM7.353 18.201c-4.835-3.83-4.567-8.411-7.353-18.201 25.594 0 19.647 16.996 19.674 19.621l4.326 4.379h-1.393l-3.763-3.817c-2.089 0.228-6.67 1.848-11.491-1.982z"></path>
</svg>
