<!-- Generated by IcoMoon.io -->
<svg version="1.1" xmlns="http://www.w3.org/2000/svg" width="21" height="24" viewBox="0 0 21 24">
<path d="M6.938 2.451v8.772c3.107 0.027 4.741-0.134 4.741-0.134 1.259-0.040 1.446-0.362 1.741-1.594l0.442-1.902h1.379l-0.188 4.313 0.094 4.272h-1.379l-0.388-1.701c-0.281-1.272-0.83-1.58-1.728-1.594 0 0-1.152-0.107-4.714-0.107v7.446c0 1.393 0.763 2.049 2.371 2.049h4.781c1.607 0 3.054-0.161 4.045-2.451l1.246-2.893h1.192c-0.094 0.576-0.737 5.893-0.83 7.071-4.406-0.161-6.295-0.161-6.295-0.161h-8.411l-5.036 0.161v-1.366l1.701-0.335c1.192-0.228 1.554-0.576 1.567-1.554 0.080-3.241 0.107-8.612 0.107-8.612s0.040-5.384-0.107-8.638c-0.040-1.112-0.375-1.379-1.567-1.607l-1.701-0.321v-1.366l5.036 0.161h9.402s1.862 0 5.009-0.362c-0.188 2.049-0.415 6.777-0.415 6.777h-1.246l-0.429-1.661c-0.522-2.076-1.219-3.188-2.504-3.188h-7.339c-0.549 0-0.576 0.187-0.576 0.522z"></path>
</svg>
