<!-- Generated by IcoMoon.io -->
<svg version="1.1" xmlns="http://www.w3.org/2000/svg" width="14" height="24" viewBox="0 0 14 24">
<path d="M13.071 17.504l0.469 2.129c0.054 0.214-0.067 0.429-0.268 0.496-0.054 0.013-1.299 0.442-2.906 0.442-4.179 0-7.54-2.518-8.665-6.455h-1.272c-0.241 0-0.429-0.201-0.429-0.429v-1.513c0-0.228 0.188-0.429 0.429-0.429h0.884c-0.013-0.429-0.013-0.938 0.013-1.406h-0.897c-0.241 0-0.429-0.188-0.429-0.429v-1.527c0-0.241 0.188-0.429 0.429-0.429h1.313c1.192-3.75 4.621-6.241 8.625-6.241 1.393 0 2.545 0.295 2.598 0.308 0.107 0.027 0.201 0.107 0.268 0.201 0.054 0.094 0.067 0.214 0.040 0.321l-0.576 2.129c-0.054 0.228-0.281 0.362-0.509 0.295-0.013 0-0.924-0.228-1.875-0.228-2.25 0-4.138 1.219-5.036 3.214h6.268c0.134 0 0.254 0.054 0.335 0.161 0.080 0.094 0.121 0.228 0.094 0.348l-0.321 1.527c-0.040 0.201-0.214 0.348-0.429 0.348h-6.536c-0.040 0.429-0.027 0.884 0 1.406h6.147c0.134 0 0.254 0.067 0.335 0.161 0.080 0.107 0.107 0.241 0.080 0.362l-0.321 1.5c-0.040 0.201-0.214 0.348-0.415 0.348h-5.183c0.857 2.089 2.786 3.402 5.063 3.402 1.165 0 2.116-0.321 2.129-0.321 0.107-0.040 0.241-0.027 0.348 0.027 0.107 0.067 0.174 0.174 0.201 0.281z"></path>
</svg>
