<!-- Generated by IcoMoon.io -->
<svg version="1.1" xmlns="http://www.w3.org/2000/svg" width="24" height="24" viewBox="0 0 24 24">
<path d="M24 15.857v2.571c0 0.228-0.201 0.429-0.429 0.429h-18.429v2.571c0 0.228-0.188 0.429-0.429 0.429-0.121 0-0.228-0.054-0.321-0.134l-4.272-4.286c-0.080-0.080-0.121-0.188-0.121-0.295 0-0.121 0.040-0.228 0.121-0.308l4.286-4.286c0.080-0.080 0.201-0.121 0.308-0.121 0.228 0 0.429 0.188 0.429 0.429v2.571h18.429c0.228 0 0.429 0.188 0.429 0.429zM24 8.571c0 0.107-0.040 0.228-0.121 0.308l-4.286 4.286c-0.080 0.080-0.201 0.121-0.308 0.121-0.228 0-0.429-0.201-0.429-0.429v-2.571h-18.429c-0.228 0-0.429-0.201-0.429-0.429v-2.571c0-0.228 0.201-0.429 0.429-0.429h18.429v-2.571c0-0.241 0.188-0.429 0.429-0.429 0.121 0 0.228 0.054 0.321 0.134l4.272 4.272c0.080 0.080 0.121 0.201 0.121 0.308z"></path>
</svg>
