<!-- Generated by IcoMoon.io -->
<svg version="1.1" xmlns="http://www.w3.org/2000/svg" width="24" height="24" viewBox="0 0 24 24">
<path d="M13.714 18.415v-2.545c0-0.241-0.188-0.442-0.429-0.442h-2.571c-0.241 0-0.429 0.201-0.429 0.442v2.545c0 0.241 0.188 0.442 0.429 0.442h2.571c0.241 0 0.429-0.201 0.429-0.442zM13.688 13.406l0.241-6.147c0-0.080-0.040-0.188-0.134-0.254-0.080-0.067-0.201-0.147-0.321-0.147h-2.946c-0.121 0-0.241 0.080-0.321 0.147-0.094 0.067-0.134 0.201-0.134 0.281l0.228 6.121c0 0.174 0.201 0.308 0.455 0.308h2.478c0.241 0 0.442-0.134 0.455-0.308zM13.5 0.897l10.286 18.857c0.295 0.522 0.281 1.165-0.027 1.688s-0.871 0.844-1.473 0.844h-20.571c-0.603 0-1.165-0.321-1.473-0.844s-0.321-1.165-0.027-1.688l10.286-18.857c0.295-0.549 0.871-0.897 1.5-0.897s1.205 0.348 1.5 0.897z"></path>
</svg>
