<!-- Generated by IcoMoon.io -->
<svg version="1.1" xmlns="http://www.w3.org/2000/svg" width="9" height="24" viewBox="0 0 9 24">
<path d="M6.857 16.714v3c0 0.469-0.388 0.857-0.857 0.857h-3.429c-0.469 0-0.857-0.388-0.857-0.857v-3c0-0.469 0.388-0.857 0.857-0.857h3.429c0.469 0 0.857 0.388 0.857 0.857zM7.259 2.571l-0.375 10.286c-0.013 0.469-0.415 0.857-0.884 0.857h-3.429c-0.469 0-0.871-0.388-0.884-0.857l-0.375-10.286c-0.013-0.469 0.362-0.857 0.83-0.857h4.286c0.469 0 0.844 0.388 0.83 0.857z"></path>
</svg>
