<!-- Generated by IcoMoon.io -->
<svg version="1.1" xmlns="http://www.w3.org/2000/svg" width="21" height="24" viewBox="0 0 21 24">
<path d="M10.286 1.714c5.679 0 10.286 4.607 10.286 10.286s-4.607 10.286-10.286 10.286-10.286-4.607-10.286-10.286 4.607-10.286 10.286-10.286zM12 18.415v-2.545c0-0.241-0.188-0.442-0.415-0.442h-2.571c-0.241 0-0.442 0.201-0.442 0.442v2.545c0 0.241 0.201 0.442 0.442 0.442h2.571c0.228 0 0.415-0.201 0.415-0.442zM11.973 13.808l0.241-8.317c0-0.094-0.040-0.188-0.134-0.241-0.080-0.067-0.201-0.107-0.321-0.107h-2.946c-0.121 0-0.241 0.040-0.321 0.107-0.094 0.054-0.134 0.147-0.134 0.241l0.228 8.317c0 0.188 0.201 0.335 0.455 0.335h2.478c0.241 0 0.442-0.147 0.455-0.335z"></path>
</svg>
