<!-- Generated by IcoMoon.io -->
<svg version="1.1" xmlns="http://www.w3.org/2000/svg" width="24" height="24" viewBox="0 0 24 24">
<path d="M12 0.857c-6.147 0-11.143 4.996-11.143 11.143s4.996 11.143 11.143 11.143 11.143-4.996 11.143-11.143-4.996-11.143-11.143-11.143zM12 0c6.629 0 12 5.371 12 12s-5.371 12-12 12-12-5.371-12-12 5.371-12 12-12zM6.643 11.143c0.121 0 0.214 0.094 0.214 0.214v6.429c0 0.121-0.094 0.214-0.214 0.214h-0.429c-0.121 0-0.214-0.094-0.214-0.214v-6.429c0-0.121 0.094-0.214 0.214-0.214h0.429zM12 12c0.951 0 1.714 0.763 1.714 1.714 0 0.629-0.348 1.179-0.857 1.473v1.527c0 0.241-0.188 0.429-0.429 0.429h-0.857c-0.241 0-0.429-0.188-0.429-0.429v-1.527c-0.509-0.295-0.857-0.844-0.857-1.473 0-0.951 0.763-1.714 1.714-1.714zM12 1.714c5.679 0 10.286 4.607 10.286 10.286s-4.607 10.286-10.286 10.286-10.286-4.607-10.286-10.286 4.607-10.286 10.286-10.286zM7.286 8.143v1.286c0 0.241 0.188 0.429 0.429 0.429h0.857c0.241 0 0.429-0.188 0.429-0.429v-1.286c0-1.661 1.339-3 3-3s3 1.339 3 3v1.286c0 0.241 0.188 0.429 0.429 0.429h0.857c0.241 0 0.429-0.188 0.429-0.429v-1.286c0-2.598-2.116-4.714-4.714-4.714s-4.714 2.116-4.714 4.714zM18.857 18v-6.857c0-0.469-0.388-0.857-0.857-0.857h-12c-0.469 0-0.857 0.388-0.857 0.857v6.857c0 0.469 0.388 0.857 0.857 0.857h12c0.469 0 0.857-0.388 0.857-0.857z"></path>
</svg>
