<!-- Generated by IcoMoon.io -->
<svg version="1.1" xmlns="http://www.w3.org/2000/svg" width="21" height="24" viewBox="0 0 21 24">
<path d="M17.143 12.429v-6.429c0-0.469-0.388-0.857-0.857-0.857h-6.429c-0.348 0-0.656 0.214-0.79 0.522-0.134 0.321-0.067 0.696 0.188 0.937l1.929 1.929-7.152 7.152c-0.335 0.335-0.335 0.871 0 1.205l1.366 1.366c0.335 0.335 0.871 0.335 1.205 0l7.152-7.152 1.929 1.929c0.161 0.174 0.375 0.254 0.603 0.254 0.107 0 0.228-0.027 0.335-0.067 0.308-0.134 0.522-0.442 0.522-0.79zM20.571 5.571v12.857c0 2.129-1.728 3.857-3.857 3.857h-12.857c-2.129 0-3.857-1.728-3.857-3.857v-12.857c0-2.129 1.728-3.857 3.857-3.857h12.857c2.129 0 3.857 1.728 3.857 3.857z"></path>
</svg>
