<!-- Generated by IcoMoon.io -->
<svg version="1.1" xmlns="http://www.w3.org/2000/svg" width="24" height="24" viewBox="0 0 24 24">
<path d="M22.741 1.259c1.674 1.674 1.688 4.393 0 6.054l-3.013 2.987 1.393 1.393c0.174 0.174 0.174 0.442 0 0.616l-2.813 2.813c-0.174 0.174-0.442 0.174-0.616 0l-1.406-1.406-8.076 8.076c-0.321 0.321-0.75 0.496-1.205 0.496h-2.719l-3.429 1.714-0.857-0.857 1.714-3.429v-2.719c0-0.455 0.174-0.884 0.496-1.205l8.076-8.076-1.406-1.406c-0.174-0.174-0.174-0.442 0-0.616l2.813-2.813c0.174-0.174 0.442-0.174 0.616 0l1.393 1.393 2.987-3.013c1.661-1.688 4.379-1.674 6.054 0zM6.857 19.714l7.714-7.714-2.571-2.571-7.714 7.714v2.571h2.571z"></path>
</svg>
