<!-- Generated by IcoMoon.io -->
<svg version="1.1" xmlns="http://www.w3.org/2000/svg" width="21" height="24" viewBox="0 0 21 24">
<path d="M20.571 6.857v11.237c0 0.415-0.268 0.723-0.656 0.83-1.433 0.429-3.040 0.696-4.527 0.696-2.009 0-3.71-0.79-5.933-0.79-1.647 0-3.348 0.268-4.955 0.643v4.527h-2.143v-18.321c-1.125-0.442-1.862-1.54-1.862-2.746 0-1.621 1.313-2.933 2.933-2.933s2.933 1.313 2.933 2.933c0 1.205-0.737 2.304-1.862 2.746v0.911c1.5-0.348 3.054-0.589 4.594-0.589 0.884 0 1.768 0.067 2.652 0.201 1.152 0.174 2.317 0.576 3.496 0.576 0.737 0 1.487-0.094 2.21-0.241 0.549-0.107 1.808-0.536 2.263-0.536 0.469 0 0.857 0.388 0.857 0.857z"></path>
</svg>
