<!-- Generated by IcoMoon.io -->
<svg version="1.1" xmlns="http://www.w3.org/2000/svg" width="24" height="24" viewBox="0 0 24 24">
<path d="M23.397 1.888c0.335-0.335 0.603-0.214 0.603 0.254v19.714c0 0.469-0.268 0.589-0.603 0.254l-9.509-9.509c-0.080-0.080-0.134-0.161-0.174-0.254v9.509c0 0.469-0.268 0.589-0.603 0.254l-9.509-9.509c-0.080-0.080-0.134-0.161-0.174-0.254v9.080c0 0.469-0.388 0.857-0.857 0.857h-1.714c-0.469 0-0.857-0.388-0.857-0.857v-18.857c0-0.469 0.388-0.857 0.857-0.857h1.714c0.469 0 0.857 0.388 0.857 0.857v9.080c0.040-0.094 0.094-0.174 0.174-0.254l9.509-9.509c0.335-0.335 0.603-0.214 0.603 0.254v9.509c0.040-0.094 0.094-0.174 0.174-0.254z"></path>
</svg>
