<!-- Generated by IcoMoon.io -->
<svg version="1.1" xmlns="http://www.w3.org/2000/svg" width="24" height="24" viewBox="0 0 24 24">
<path d="M3.857 5.143c1.179 0 2.143 0.964 2.143 2.143v14.571c0 1.179-0.964 2.143-2.143 2.143h-1.714c-1.179 0-2.143-0.964-2.143-2.143v-14.571c0-1.179 0.964-2.143 2.143-2.143h1.714zM22.286 7.326c1.018 0.589 1.714 1.701 1.714 2.96v10.286c0 1.888-1.54 3.429-3.429 3.429h-11.571c-1.179 0-2.143-0.964-2.143-2.143v-20.571c0-0.71 0.576-1.286 1.286-1.286h9c0.71 0 1.701 0.415 2.196 0.911l2.036 2.036c0.496 0.496 0.911 1.487 0.911 2.196v2.183zM12.429 20.571v-1.714c0-0.241-0.188-0.429-0.429-0.429h-1.714c-0.241 0-0.429 0.188-0.429 0.429v1.714c0 0.241 0.188 0.429 0.429 0.429h1.714c0.241 0 0.429-0.188 0.429-0.429zM12.429 17.143v-1.714c0-0.241-0.188-0.429-0.429-0.429h-1.714c-0.241 0-0.429 0.188-0.429 0.429v1.714c0 0.241 0.188 0.429 0.429 0.429h1.714c0.241 0 0.429-0.188 0.429-0.429zM12.429 13.714v-1.714c0-0.241-0.188-0.429-0.429-0.429h-1.714c-0.241 0-0.429 0.188-0.429 0.429v1.714c0 0.241 0.188 0.429 0.429 0.429h1.714c0.241 0 0.429-0.188 0.429-0.429zM15.857 20.571v-1.714c0-0.241-0.188-0.429-0.429-0.429h-1.714c-0.241 0-0.429 0.188-0.429 0.429v1.714c0 0.241 0.188 0.429 0.429 0.429h1.714c0.241 0 0.429-0.188 0.429-0.429zM15.857 17.143v-1.714c0-0.241-0.188-0.429-0.429-0.429h-1.714c-0.241 0-0.429 0.188-0.429 0.429v1.714c0 0.241 0.188 0.429 0.429 0.429h1.714c0.241 0 0.429-0.188 0.429-0.429zM15.857 13.714v-1.714c0-0.241-0.188-0.429-0.429-0.429h-1.714c-0.241 0-0.429 0.188-0.429 0.429v1.714c0 0.241 0.188 0.429 0.429 0.429h1.714c0.241 0 0.429-0.188 0.429-0.429zM19.286 20.571v-1.714c0-0.241-0.188-0.429-0.429-0.429h-1.714c-0.241 0-0.429 0.188-0.429 0.429v1.714c0 0.241 0.188 0.429 0.429 0.429h1.714c0.241 0 0.429-0.188 0.429-0.429zM19.286 17.143v-1.714c0-0.241-0.188-0.429-0.429-0.429h-1.714c-0.241 0-0.429 0.188-0.429 0.429v1.714c0 0.241 0.188 0.429 0.429 0.429h1.714c0.241 0 0.429-0.188 0.429-0.429zM19.286 13.714v-1.714c0-0.241-0.188-0.429-0.429-0.429h-1.714c-0.241 0-0.429 0.188-0.429 0.429v1.714c0 0.241 0.188 0.429 0.429 0.429h1.714c0.241 0 0.429-0.188 0.429-0.429zM20.571 8.571v-3.429h-2.143c-0.71 0-1.286-0.576-1.286-1.286v-2.143h-8.571v6.857h12z"></path>
</svg>
