<!-- Generated by IcoMoon.io -->
<svg version="1.1" xmlns="http://www.w3.org/2000/svg" width="19" height="24" viewBox="0 0 19 24">
<path d="M5.143 18c0 1.42-1.152 2.571-2.571 2.571s-2.571-1.152-2.571-2.571 1.152-2.571 2.571-2.571 2.571 1.152 2.571 2.571zM12 19.647c0.013 0.241-0.067 0.469-0.228 0.643-0.161 0.188-0.388 0.281-0.629 0.281h-1.808c-0.442 0-0.804-0.335-0.844-0.777-0.388-4.085-3.629-7.326-7.714-7.714-0.442-0.040-0.777-0.402-0.777-0.844v-1.808c0-0.241 0.094-0.469 0.281-0.629 0.147-0.147 0.362-0.228 0.576-0.228h0.067c2.853 0.228 5.545 1.473 7.567 3.509 2.036 2.022 3.281 4.714 3.509 7.567zM18.857 19.674c0.013 0.228-0.067 0.455-0.241 0.629-0.161 0.174-0.375 0.268-0.616 0.268h-1.915c-0.455 0-0.83-0.348-0.857-0.804-0.442-7.781-6.643-13.982-14.424-14.437-0.455-0.027-0.804-0.402-0.804-0.844v-1.915c0-0.241 0.094-0.455 0.268-0.616 0.161-0.161 0.375-0.241 0.589-0.241h0.040c4.688 0.241 9.094 2.21 12.415 5.545 3.335 3.321 5.304 7.728 5.545 12.415z"></path>
</svg>
