<!-- Generated by IcoMoon.io -->
<svg version="1.1" xmlns="http://www.w3.org/2000/svg" width="17" height="24" viewBox="0 0 17 24">
<path d="M17.143 14.143c0 0.71-0.576 1.286-1.286 1.286-0.429 0-0.83-0.214-1.071-0.576l-3.040-4.567h-0.603v1.768l3.308 5.504c0.080 0.134 0.121 0.281 0.121 0.442 0 0.469-0.388 0.857-0.857 0.857h-2.571v3.643c0 0.83-0.67 1.5-1.5 1.5h-2.143c-0.817 0-1.5-0.67-1.5-1.5v-3.643h-2.571c-0.469 0-0.857-0.388-0.857-0.857 0-0.161 0.040-0.308 0.121-0.442l3.308-5.504v-1.768h-0.603l-3.040 4.567c-0.241 0.362-0.643 0.576-1.071 0.576-0.71 0-1.286-0.576-1.286-1.286 0-0.254 0.080-0.509 0.214-0.71l3.429-5.143c0.536-0.79 1.366-1.433 2.357-1.433h5.143c0.991 0 1.821 0.643 2.357 1.433l3.429 5.143c0.134 0.201 0.214 0.455 0.214 0.71zM11.571 3.429c0 1.661-1.339 3-3 3s-3-1.339-3-3 1.339-3 3-3 3 1.339 3 3z"></path>
</svg>
