<!-- Generated by IcoMoon.io -->
<svg version="1.1" xmlns="http://www.w3.org/2000/svg" width="26" height="24" viewBox="0 0 26 24">
<path d="M25.714 12.857c0 0 0 0.429-3.857 1.286l-4.714 0.429-3 0.857h-0.857l-3.924 4.714h0.924c0.469 0 0.857 0.094 0.857 0.214s-0.388 0.214-0.857 0.214h-4.286v-0.429h0.857v-5.571h-2.143l-2.571 3h-1.286l-0.429-0.429v-2.571h0.429v-0.429h1.714v-0.107l-2.571-0.321v-1.714l2.571-0.321v-0.107h-1.714v-0.429h-0.429v-2.571l0.429-0.429h1.286l2.571 3h2.143v-5.571h-0.857v-0.429h4.286c0.469 0 0.857 0.094 0.857 0.214s-0.388 0.214-0.857 0.214h-0.924l3.924 4.714h0.857l3 0.857 4.714 0.429c3.857 0.857 3.857 1.286 3.857 1.286z"></path>
</svg>
