<!-- Generated by IcoMoon.io -->
<svg version="1.1" xmlns="http://www.w3.org/2000/svg" width="21" height="24" viewBox="0 0 21 24">
<path d="M19.661 5.089c0.496 0.496 0.911 1.487 0.911 2.196v15.429c0 0.71-0.576 1.286-1.286 1.286h-18c-0.71 0-1.286-0.576-1.286-1.286v-21.429c0-0.71 0.576-1.286 1.286-1.286h12c0.71 0 1.701 0.415 2.196 0.911zM13.714 1.821v5.036h5.036c-0.080-0.228-0.201-0.455-0.295-0.549l-4.192-4.192c-0.094-0.094-0.321-0.214-0.549-0.295zM18.857 22.286v-13.714h-5.571c-0.71 0-1.286-0.576-1.286-1.286v-5.571h-10.286v20.571h17.143zM11.973 14.344c0.335 0.268 0.71 0.509 1.125 0.75 0.563-0.067 1.085-0.094 1.567-0.094 0.897 0 2.036 0.107 2.371 0.656 0.094 0.134 0.174 0.375 0.027 0.696-0.013 0.013-0.027 0.040-0.040 0.054v0.013c-0.040 0.241-0.241 0.509-0.951 0.509-0.857 0-2.156-0.388-3.281-0.978-1.862 0.201-3.817 0.616-5.25 1.112-1.379 2.357-2.438 3.509-3.241 3.509-0.134 0-0.254-0.027-0.375-0.094l-0.321-0.161c-0.040-0.013-0.054-0.040-0.080-0.067-0.067-0.067-0.121-0.214-0.080-0.482 0.134-0.616 0.857-1.647 2.518-2.518 0.107-0.067 0.241-0.027 0.308 0.080 0.013 0.013 0.027 0.040 0.027 0.054 0.415-0.683 0.897-1.554 1.433-2.638 0.603-1.205 1.071-2.384 1.393-3.509-0.429-1.46-0.563-2.96-0.321-3.844 0.094-0.335 0.295-0.536 0.563-0.536h0.295c0.201 0 0.362 0.067 0.469 0.201 0.161 0.188 0.201 0.482 0.121 0.911-0.013 0.040-0.027 0.080-0.054 0.107 0.013 0.040 0.013 0.067 0.013 0.107v0.402c-0.013 0.844-0.027 1.647-0.188 2.571 0.469 1.406 1.165 2.545 1.955 3.188zM4.259 19.848c0.402-0.188 0.978-0.763 1.835-2.116-1.004 0.777-1.634 1.661-1.835 2.116zM9.589 7.527c-0.134 0.375-0.134 1.018-0.027 1.768 0.040-0.214 0.067-0.415 0.094-0.589 0.027-0.228 0.067-0.415 0.094-0.576 0.013-0.040 0.027-0.067 0.054-0.107-0.013-0.013-0.013-0.040-0.027-0.067-0.013-0.241-0.094-0.388-0.174-0.482 0 0.027-0.013 0.040-0.013 0.054zM7.929 16.379c1.179-0.469 2.491-0.844 3.804-1.085-0.134-0.107-0.268-0.201-0.388-0.308-0.656-0.576-1.246-1.379-1.701-2.357-0.254 0.817-0.629 1.688-1.112 2.638-0.201 0.375-0.402 0.75-0.603 1.112zM16.58 16.165c-0.067-0.067-0.415-0.321-1.875-0.321 0.656 0.241 1.259 0.375 1.661 0.375 0.121 0 0.188 0 0.241-0.013 0-0.013-0.013-0.027-0.027-0.040z"></path>
</svg>
