<!-- Generated by IcoMoon.io -->
<svg version="1.1" xmlns="http://www.w3.org/2000/svg" width="21" height="24" viewBox="0 0 21 24">
<path d="M19.661 6.375c0.134 0.134 0.254 0.295 0.375 0.482h-6.321v-6.321c0.188 0.121 0.348 0.241 0.482 0.375zM13.286 8.571h7.286v14.143c0 0.71-0.576 1.286-1.286 1.286h-18c-0.71 0-1.286-0.576-1.286-1.286v-21.429c0-0.71 0.576-1.286 1.286-1.286h10.714v7.286c0 0.71 0.576 1.286 1.286 1.286zM15.429 18.429v-0.857c0-0.241-0.188-0.429-0.429-0.429h-9.429c-0.241 0-0.429 0.188-0.429 0.429v0.857c0 0.241 0.188 0.429 0.429 0.429h9.429c0.241 0 0.429-0.188 0.429-0.429zM15.429 15v-0.857c0-0.241-0.188-0.429-0.429-0.429h-9.429c-0.241 0-0.429 0.188-0.429 0.429v0.857c0 0.241 0.188 0.429 0.429 0.429h9.429c0.241 0 0.429-0.188 0.429-0.429zM15.429 11.571v-0.857c0-0.241-0.188-0.429-0.429-0.429h-9.429c-0.241 0-0.429 0.188-0.429 0.429v0.857c0 0.241 0.188 0.429 0.429 0.429h9.429c0.241 0 0.429-0.188 0.429-0.429z"></path>
</svg>
