<!-- Generated by IcoMoon.io -->
<svg version="1.1" xmlns="http://www.w3.org/2000/svg" width="21" height="24" viewBox="0 0 21 24">
<path d="M19.661 5.089c0.496 0.496 0.911 1.487 0.911 2.196v15.429c0 0.71-0.576 1.286-1.286 1.286h-18c-0.71 0-1.286-0.576-1.286-1.286v-21.429c0-0.71 0.576-1.286 1.286-1.286h12c0.71 0 1.701 0.415 2.196 0.911zM13.714 1.821v5.036h5.036c-0.080-0.228-0.201-0.455-0.295-0.549l-4.192-4.192c-0.094-0.094-0.321-0.214-0.549-0.295zM18.857 22.286v-13.714h-5.571c-0.71 0-1.286-0.576-1.286-1.286v-5.571h-10.286v20.571h17.143zM6.429 10.286c0.147-0.188 0.415-0.228 0.603-0.080l0.683 0.509c0.188 0.147 0.228 0.415 0.080 0.603l-2.438 3.254 2.438 3.254c0.147 0.188 0.107 0.455-0.080 0.603l-0.683 0.509c-0.188 0.147-0.455 0.107-0.603-0.080l-3.027-4.031c-0.107-0.147-0.107-0.362 0-0.509zM17.17 14.317c0.107 0.147 0.107 0.362 0 0.509l-3.027 4.031c-0.147 0.188-0.415 0.228-0.603 0.080l-0.683-0.509c-0.188-0.147-0.228-0.415-0.080-0.603l2.438-3.254-2.438-3.254c-0.147-0.188-0.107-0.455 0.080-0.603l0.683-0.509c0.188-0.147 0.455-0.107 0.603 0.080zM8.866 20.491c-0.241-0.040-0.388-0.268-0.348-0.496l1.848-11.129c0.040-0.241 0.268-0.388 0.496-0.348l0.844 0.134c0.241 0.040 0.388 0.268 0.348 0.496l-1.848 11.129c-0.040 0.241-0.268 0.388-0.496 0.348z"></path>
</svg>
