<!-- Generated by IcoMoon.io -->
<svg version="1.1" xmlns="http://www.w3.org/2000/svg" width="21" height="24" viewBox="0 0 21 24">
<path d="M19.661 5.089c0.496 0.496 0.911 1.487 0.911 2.196v15.429c0 0.71-0.576 1.286-1.286 1.286h-18c-0.71 0-1.286-0.576-1.286-1.286v-21.429c0-0.71 0.576-1.286 1.286-1.286h12c0.71 0 1.701 0.415 2.196 0.911zM13.714 1.821v5.036h5.036c-0.080-0.228-0.201-0.455-0.295-0.549l-4.192-4.192c-0.094-0.094-0.321-0.214-0.549-0.295zM18.857 22.286v-13.714h-5.571c-0.71 0-1.286-0.576-1.286-1.286v-5.571h-10.286v20.571h17.143zM5.571 19.152v1.42h4.379v-1.42h-1.246v-2.237h1.835c0.576 0 1.098-0.027 1.58-0.201 1.205-0.415 1.955-1.661 1.955-3.121s-0.723-2.585-1.835-3.054c-0.509-0.201-1.125-0.254-1.741-0.254h-4.929v1.433h1.232v7.433h-1.232zM10.299 15.402h-1.594v-3.589h1.607c0.469 0 0.83 0.080 1.112 0.241 0.482 0.281 0.75 0.83 0.75 1.54 0 0.75-0.268 1.326-0.83 1.607-0.281 0.134-0.629 0.201-1.045 0.201z"></path>
</svg>
