<!-- Generated by IcoMoon.io -->
<svg version="1.1" xmlns="http://www.w3.org/2000/svg" width="21" height="24" viewBox="0 0 21 24">
<path d="M8.571 5.143v-1.714h-1.714v1.714h1.714zM10.286 6.857v-1.714h-1.714v1.714h1.714zM8.571 8.571v-1.714h-1.714v1.714h1.714zM10.286 10.286v-1.714h-1.714v1.714h1.714zM19.661 5.089c0.496 0.496 0.911 1.487 0.911 2.196v15.429c0 0.71-0.576 1.286-1.286 1.286h-18c-0.71 0-1.286-0.576-1.286-1.286v-21.429c0-0.71 0.576-1.286 1.286-1.286h12c0.71 0 1.701 0.415 2.196 0.911zM13.714 1.821v5.036h5.036c-0.080-0.228-0.201-0.455-0.295-0.549l-4.192-4.192c-0.094-0.094-0.321-0.214-0.549-0.295zM18.857 22.286v-13.714h-5.571c-0.71 0-1.286-0.576-1.286-1.286v-5.571h-1.714v1.714h-1.714v-1.714h-6.857v20.571h17.143zM10.46 12.629c1.138 3.844 1.433 4.674 1.433 4.674 0.067 0.228 0.107 0.455 0.107 0.696 0 1.487-1.446 2.571-3.429 2.571s-3.429-1.085-3.429-2.571c0-0.241 0.040-0.469 0.107-0.696 0 0 0.281-0.83 1.607-5.304v-1.714h1.714v1.714h1.058c0.388 0 0.723 0.254 0.83 0.629zM8.571 18.857c0.951 0 1.714-0.388 1.714-0.857s-0.763-0.857-1.714-0.857-1.714 0.388-1.714 0.857 0.763 0.857 1.714 0.857z"></path>
</svg>
