<!-- Generated by IcoMoon.io -->
<svg version="1.1" xmlns="http://www.w3.org/2000/svg" width="21" height="24" viewBox="0 0 21 24">
<path d="M19.661 5.089c0.496 0.496 0.911 1.487 0.911 2.196v15.429c0 0.71-0.576 1.286-1.286 1.286h-18c-0.71 0-1.286-0.576-1.286-1.286v-21.429c0-0.71 0.576-1.286 1.286-1.286h12c0.71 0 1.701 0.415 2.196 0.911zM13.714 1.821v5.036h5.036c-0.080-0.228-0.201-0.455-0.295-0.549l-4.192-4.192c-0.094-0.094-0.321-0.214-0.549-0.295zM18.857 22.286v-13.714h-5.571c-0.71 0-1.286-0.576-1.286-1.286v-5.571h-10.286v20.571h17.143zM10.286 10.286c0.938 0 1.714 0.777 1.714 1.714v5.143c0 0.938-0.777 1.714-1.714 1.714h-5.143c-0.938 0-1.714-0.777-1.714-1.714v-5.143c0-0.938 0.777-1.714 1.714-1.714h5.143zM16.875 10.313c0.161 0.067 0.268 0.228 0.268 0.402v7.714c0 0.174-0.107 0.335-0.268 0.402-0.054 0.013-0.107 0.027-0.161 0.027-0.107 0-0.228-0.040-0.308-0.121l-3.549-3.563v-1.205l3.549-3.563c0.080-0.080 0.201-0.121 0.308-0.121 0.054 0 0.107 0.013 0.161 0.027z"></path>
</svg>
