<!-- Generated by IcoMoon.io -->
<svg version="1.1" xmlns="http://www.w3.org/2000/svg" width="21" height="24" viewBox="0 0 21 24">
<path d="M19.661 5.089c0.496 0.496 0.911 1.487 0.911 2.196v15.429c0 0.71-0.576 1.286-1.286 1.286h-18c-0.71 0-1.286-0.576-1.286-1.286v-21.429c0-0.71 0.576-1.286 1.286-1.286h12c0.71 0 1.701 0.415 2.196 0.911zM13.714 1.821v5.036h5.036c-0.080-0.228-0.201-0.455-0.295-0.549l-4.192-4.192c-0.094-0.094-0.321-0.214-0.549-0.295zM18.857 22.286v-13.714h-5.571c-0.71 0-1.286-0.576-1.286-1.286v-5.571h-10.286v20.571h17.143zM3.121 10.286v1.433h0.938l2.196 8.853h2.129l1.714-6.496c0.067-0.201 0.107-0.402 0.134-0.616 0.013-0.107 0.027-0.214 0.027-0.321h0.054l0.040 0.321c0.040 0.188 0.054 0.402 0.121 0.616l1.714 6.496h2.129l2.196-8.853h0.938v-1.433h-4.018v1.433h1.205l-1.326 5.866c-0.054 0.214-0.080 0.442-0.094 0.616l-0.027 0.281h-0.054c0-0.080-0.027-0.188-0.040-0.281-0.040-0.174-0.067-0.402-0.121-0.616l-1.929-7.299h-1.527l-1.929 7.299c-0.054 0.214-0.067 0.442-0.107 0.616l-0.054 0.281h-0.054l-0.027-0.281c-0.013-0.174-0.040-0.402-0.094-0.616l-1.326-5.866h1.205v-1.433h-4.018z"></path>
</svg>
