<!-- Generated by IcoMoon.io -->
<svg version="1.1" xmlns="http://www.w3.org/2000/svg" width="21" height="24" viewBox="0 0 21 24">
<path d="M19.661 5.089c0.496 0.496 0.911 1.487 0.911 2.196v15.429c0 0.71-0.576 1.286-1.286 1.286h-18c-0.71 0-1.286-0.576-1.286-1.286v-21.429c0-0.71 0.576-1.286 1.286-1.286h12c0.71 0 1.701 0.415 2.196 0.911zM13.714 1.821v5.036h5.036c-0.080-0.228-0.201-0.455-0.295-0.549l-4.192-4.192c-0.094-0.094-0.321-0.214-0.549-0.295zM18.857 22.286v-13.714h-5.571c-0.71 0-1.286-0.576-1.286-1.286v-5.571h-10.286v20.571h17.143zM8.304 11.384c0.161 0.067 0.268 0.228 0.268 0.402v7.286c0 0.174-0.107 0.335-0.268 0.402-0.054 0.013-0.107 0.027-0.161 0.027-0.107 0-0.214-0.040-0.308-0.121l-2.223-2.237h-1.754c-0.241 0-0.429-0.188-0.429-0.429v-2.571c0-0.241 0.188-0.429 0.429-0.429h1.754l2.223-2.237c0.134-0.121 0.308-0.161 0.469-0.094zM13.888 20.612c0.254 0 0.496-0.107 0.67-0.321 1.112-1.366 1.728-3.094 1.728-4.862s-0.616-3.496-1.728-4.862c-0.295-0.375-0.844-0.429-1.205-0.134-0.375 0.308-0.429 0.844-0.121 1.219 0.871 1.071 1.339 2.384 1.339 3.777s-0.469 2.705-1.339 3.777c-0.308 0.375-0.254 0.911 0.121 1.205 0.161 0.134 0.348 0.201 0.536 0.201zM11.063 18.629c0.228 0 0.455-0.094 0.629-0.268 0.75-0.804 1.165-1.835 1.165-2.933s-0.415-2.129-1.165-2.933c-0.321-0.348-0.871-0.362-1.219-0.040-0.335 0.321-0.362 0.871-0.027 1.219 0.442 0.482 0.696 1.098 0.696 1.754s-0.254 1.272-0.696 1.754c-0.335 0.348-0.308 0.897 0.027 1.219 0.174 0.147 0.388 0.228 0.589 0.228z"></path>
</svg>
