<!-- Generated by IcoMoon.io -->
<svg version="1.1" xmlns="http://www.w3.org/2000/svg" width="21" height="24" viewBox="0 0 21 24">
<path d="M19.661 5.089c0.496 0.496 0.911 1.487 0.911 2.196v15.429c0 0.71-0.576 1.286-1.286 1.286h-18c-0.71 0-1.286-0.576-1.286-1.286v-21.429c0-0.71 0.576-1.286 1.286-1.286h12c0.71 0 1.701 0.415 2.196 0.911zM13.714 1.821v5.036h5.036c-0.080-0.228-0.201-0.455-0.295-0.549l-4.192-4.192c-0.094-0.094-0.321-0.214-0.549-0.295zM18.857 22.286v-13.714h-5.571c-0.71 0-1.286-0.576-1.286-1.286v-5.571h-10.286v20.571h17.143zM5.746 19.152v1.42h3.763v-1.42h-1.004l1.379-2.156c0.161-0.254 0.241-0.455 0.281-0.455h0.027c0.013 0.054 0.040 0.094 0.067 0.134 0.054 0.107 0.134 0.188 0.228 0.321l1.433 2.156h-1.018v1.42h3.897v-1.42h-0.911l-2.571-3.656 2.612-3.777h0.897v-1.433h-3.737v1.433h0.991l-1.379 2.129c-0.161 0.254-0.281 0.455-0.281 0.442h-0.027c-0.013-0.054-0.040-0.094-0.067-0.134-0.054-0.094-0.121-0.188-0.228-0.308l-1.42-2.129h1.018v-1.433h-3.884v1.433h0.911l2.531 3.643-2.598 3.79h-0.911z"></path>
</svg>
