<!-- Generated by IcoMoon.io -->
<svg version="1.1" xmlns="http://www.w3.org/2000/svg" width="26" height="24" viewBox="0 0 26 24">
<path d="M5.143 21.429v-1.714c0-0.469-0.388-0.857-0.857-0.857h-1.714c-0.469 0-0.857 0.388-0.857 0.857v1.714c0 0.469 0.388 0.857 0.857 0.857h1.714c0.469 0 0.857-0.388 0.857-0.857zM5.143 16.286v-1.714c0-0.469-0.388-0.857-0.857-0.857h-1.714c-0.469 0-0.857 0.388-0.857 0.857v1.714c0 0.469 0.388 0.857 0.857 0.857h1.714c0.469 0 0.857-0.388 0.857-0.857zM5.143 11.143v-1.714c0-0.469-0.388-0.857-0.857-0.857h-1.714c-0.469 0-0.857 0.388-0.857 0.857v1.714c0 0.469 0.388 0.857 0.857 0.857h1.714c0.469 0 0.857-0.388 0.857-0.857zM18.857 21.429v-6.857c0-0.469-0.388-0.857-0.857-0.857h-10.286c-0.469 0-0.857 0.388-0.857 0.857v6.857c0 0.469 0.388 0.857 0.857 0.857h10.286c0.469 0 0.857-0.388 0.857-0.857zM5.143 6v-1.714c0-0.469-0.388-0.857-0.857-0.857h-1.714c-0.469 0-0.857 0.388-0.857 0.857v1.714c0 0.469 0.388 0.857 0.857 0.857h1.714c0.469 0 0.857-0.388 0.857-0.857zM24 21.429v-1.714c0-0.469-0.388-0.857-0.857-0.857h-1.714c-0.469 0-0.857 0.388-0.857 0.857v1.714c0 0.469 0.388 0.857 0.857 0.857h1.714c0.469 0 0.857-0.388 0.857-0.857zM18.857 11.143v-6.857c0-0.469-0.388-0.857-0.857-0.857h-10.286c-0.469 0-0.857 0.388-0.857 0.857v6.857c0 0.469 0.388 0.857 0.857 0.857h10.286c0.469 0 0.857-0.388 0.857-0.857zM24 16.286v-1.714c0-0.469-0.388-0.857-0.857-0.857h-1.714c-0.469 0-0.857 0.388-0.857 0.857v1.714c0 0.469 0.388 0.857 0.857 0.857h1.714c0.469 0 0.857-0.388 0.857-0.857zM24 11.143v-1.714c0-0.469-0.388-0.857-0.857-0.857h-1.714c-0.469 0-0.857 0.388-0.857 0.857v1.714c0 0.469 0.388 0.857 0.857 0.857h1.714c0.469 0 0.857-0.388 0.857-0.857zM24 6v-1.714c0-0.469-0.388-0.857-0.857-0.857h-1.714c-0.469 0-0.857 0.388-0.857 0.857v1.714c0 0.469 0.388 0.857 0.857 0.857h1.714c0.469 0 0.857-0.388 0.857-0.857zM25.714 3.857v18c0 1.179-0.964 2.143-2.143 2.143h-21.429c-1.179 0-2.143-0.964-2.143-2.143v-18c0-1.179 0.964-2.143 2.143-2.143h21.429c1.179 0 2.143 0.964 2.143 2.143z"></path>
</svg>
