<!-- Generated by IcoMoon.io -->
<svg version="1.1" xmlns="http://www.w3.org/2000/svg" width="19" height="24" viewBox="0 0 19 24">
<path d="M6.857 2.571c0-0.469-0.388-0.857-0.857-0.857s-0.857 0.388-0.857 0.857 0.388 0.857 0.857 0.857 0.857-0.388 0.857-0.857zM18.857 2.143v4.286c0 0.134-0.054 0.254-0.161 0.335-0.080 0.067-0.174 0.094-0.268 0.094-0.027 0-0.054 0-0.094-0.013l-6-1.286c-0.188-0.040-0.335-0.214-0.335-0.415h-3.429v1.366c1.955 0.402 3.429 2.129 3.429 4.205v10.714c0 0.469-0.388 0.857-0.857 0.857h-6.857c-0.469 0-0.857-0.388-0.857-0.857v-10.714c0-1.915 1.259-3.549 3-4.085v-1.487h-0.429c-2.839 0-4.366 2.933-4.379 2.96-0.147 0.295-0.455 0.469-0.763 0.469-0.134 0-0.268-0.027-0.388-0.094-0.415-0.214-0.589-0.723-0.375-1.152 0.067-0.134 1.406-2.732 4.098-3.603-0.201-0.335-0.335-0.723-0.335-1.152 0-1.179 0.964-2.143 2.143-2.143s2.143 0.964 2.143 2.143c0 0.308-0.067 0.589-0.188 0.857h4.045c0-0.201 0.147-0.375 0.335-0.415l6-1.286c0.040-0.013 0.067-0.013 0.094-0.013 0.094 0 0.188 0.027 0.268 0.094 0.107 0.080 0.161 0.201 0.161 0.335z"></path>
</svg>
