<!-- Generated by IcoMoon.io -->
<svg version="1.1" xmlns="http://www.w3.org/2000/svg" width="23" height="24" viewBox="0 0 23 24">
<path d="M12.094 24c-5.17 0-9.281-3.027-11.17-7.353-2.116-4.808-0.429-12.509 3.335-15.911l-0.147 3.763c0.188-0.241 1.621-0.308 1.848 0 0.777-1.487 3.281-2.598 5.29-2.638-0.763 0.643-2.531 2.987-2.384 4.179 0.978 0.308 2.478 0.321 3.268 0.375 0.241 0.134 0.201 0.951-0.281 1.621 0 0-0.629 0.871-2.33 1.179l0.201 2.531-1.862-0.897c-0.603 1.527 0.844 2.879 2.344 2.625 1.661-0.281 2.25-1.366 3.415-1.299 1.152 0.067 1.607 0.71 1.46 1.313 0 0-0.188 0.723-1.433 0.603-1.058 1.674-2.464 2.411-4.741 2.21 3.455 2.866 8.116 0.268 9.295-2.076 1.179-2.33 0.147-5.799-1.031-6.777 1.393 0.603 2.357 1.219 2.866 2.571 0.268-3-1.112-6.402-3.576-8.397 4.634 1.353 7.46 4.942 7.54 10.674s-5.076 11.705-11.906 11.705z"></path>
</svg>
