<!-- Generated by IcoMoon.io -->
<svg version="1.1" xmlns="http://www.w3.org/2000/svg" width="19" height="24" viewBox="0 0 19 24">
<path d="M18.857 22.714v0.857c0 0.228-0.201 0.429-0.429 0.429h-18c-0.228 0-0.429-0.201-0.429-0.429v-0.857c0-0.228 0.201-0.429 0.429-0.429h18c0.228 0 0.429 0.201 0.429 0.429zM15.429 8.571c0 5.129-6 5.585-6 9 0 0.938 0.469 2.183 0.897 3l-0.054-0.013 0.013 0.013c-3.696-1.701-6.857-4.045-6.857-8.571 0-5.129 6-5.585 6-9 0-0.938-0.469-2.183-0.884-3l0.040 0.013-0.013-0.013c3.696 1.701 6.857 4.045 6.857 8.571z"></path>
</svg>
