<!-- Generated by IcoMoon.io -->
<svg version="1.1" xmlns="http://www.w3.org/2000/svg" width="21" height="24" viewBox="0 0 21 24">
<path d="M17.705 12c0 0.348-0.013 0.683-0.067 1.018l-3.161-0.188 3 1.045c-0.174 0.683-0.442 1.313-0.777 1.888l-2.866-1.379 2.371 2.116c-0.402 0.549-0.884 1.031-1.433 1.446l-2.103-2.384 1.379 2.879c-0.576 0.348-1.205 0.603-1.875 0.79l-1.058-3.054 0.188 3.214c-0.335 0.054-0.67 0.080-1.018 0.080-0.335 0-0.683-0.027-1.018-0.080l0.188-3.188-1.045 3.027c-0.67-0.174-1.299-0.442-1.875-0.79l1.379-2.879-2.103 2.384c-0.549-0.402-1.031-0.897-1.446-1.446l2.384-2.116-2.866 1.393c-0.335-0.589-0.603-1.219-0.777-1.888l3-1.058-3.174 0.188c-0.040-0.335-0.067-0.67-0.067-1.018s0.027-0.696 0.067-1.031l3.188 0.188-3.013-1.058c0.174-0.67 0.442-1.299 0.777-1.875l2.866 1.393-2.371-2.129c0.415-0.549 0.897-1.031 1.433-1.446l2.116 2.384-1.379-2.879c0.576-0.335 1.205-0.603 1.875-0.777l1.031 3-0.174-3.161c0.321-0.054 0.67-0.080 1.004-0.080 0.348 0 0.683 0.027 1.018 0.080l-0.188 3.174 1.045-3.013c0.67 0.174 1.299 0.442 1.875 0.79l-1.379 2.866 2.116-2.384c0.536 0.415 1.018 0.897 1.433 1.446l-2.371 2.129 2.853-1.393c0.348 0.576 0.603 1.219 0.777 1.888l-3 1.045 3.174-0.188c0.054 0.335 0.067 0.683 0.067 1.031zM18.107 12c0-4.353-3.509-7.875-7.821-7.875-4.326 0-7.821 3.522-7.821 7.875 0 4.339 3.496 7.862 7.821 7.862 4.312 0 7.821-3.522 7.821-7.862zM19.085 6.871v10.259l-8.799 5.129-8.799-5.129v-10.259l8.799-5.129zM10.286 23.022l9.482-5.518v-11.022l-9.482-5.504-9.482 5.504v11.022zM20.571 6v12l-10.286 6-10.286-6v-12l10.286-6z"></path>
</svg>
