<!-- Generated by IcoMoon.io -->
<svg version="1.1" xmlns="http://www.w3.org/2000/svg" width="25" height="24" viewBox="0 0 25 24">
<path d="M4.286 3.429c0 0.616-0.335 1.165-0.857 1.473v16.955c0 0.228-0.201 0.429-0.429 0.429h-0.857c-0.228 0-0.429-0.201-0.429-0.429v-16.955c-0.522-0.308-0.857-0.857-0.857-1.473 0-0.951 0.763-1.714 1.714-1.714s1.714 0.763 1.714 1.714zM24 4.286v10.219c0 0.496-0.308 0.683-0.696 0.884-1.513 0.817-3.188 1.554-4.942 1.554-2.464 0-3.643-1.875-6.563-1.875-2.129 0-4.366 0.964-6.214 1.955-0.147 0.080-0.281 0.121-0.442 0.121-0.469 0-0.857-0.388-0.857-0.857v-9.937c0-0.321 0.161-0.549 0.415-0.737 0.321-0.214 0.71-0.402 1.058-0.576 1.688-0.857 3.737-1.607 5.638-1.607 2.103 0 3.75 0.696 5.612 1.567 0.375 0.188 0.763 0.254 1.179 0.254 2.103 0 4.366-1.821 4.955-1.821 0.469 0 0.857 0.388 0.857 0.857z"></path>
</svg>
