<!-- Generated by IcoMoon.io -->
<svg version="1.1" xmlns="http://www.w3.org/2000/svg" width="25" height="24" viewBox="0 0 25 24">
<path d="M11.143 13.393v-2.571c-1.634 0.147-3.603 0.804-5.143 1.567v2.478c1.554-0.723 3.482-1.339 5.143-1.473zM11.143 7.795v-2.638c-1.688 0.080-3.67 0.871-5.143 1.687v2.531c1.58-0.817 3.482-1.513 5.143-1.58zM22.286 13.996v-2.464c-1.219 0.603-3.348 1.5-5.143 0.951v-3c-0.174-0.054-0.348-0.121-0.522-0.201-1.54-0.777-2.799-1.5-4.821-1.5-0.214 0-0.429 0.013-0.656 0.040v2.973h0.254c2.022 0 3.683 0.723 5.223 1.487 0.174 0.080 0.348 0.147 0.522 0.201v2.518c0.362 0.147 0.763 0.228 1.219 0.228 1.487 0 3.094-0.79 3.924-1.232zM22.286 8.277v-2.531c-1.071 0.576-2.571 1.219-4.098 1.219v0c-0.362 0-0.71-0.027-1.045-0.107v2.625c1.795 0.509 3.924-0.522 5.143-1.205zM4.286 3.429c0 0.629-0.348 1.179-0.857 1.473v16.955c0 0.241-0.188 0.429-0.429 0.429h-0.857c-0.241 0-0.429-0.188-0.429-0.429v-16.955c-0.509-0.295-0.857-0.844-0.857-1.473 0-0.951 0.763-1.714 1.714-1.714s1.714 0.763 1.714 1.714zM24 4.286v10.219c0 0.321-0.188 0.616-0.469 0.763-0.054 0.027-0.134 0.067-0.228 0.121-0.857 0.455-2.879 1.554-4.942 1.554-0.79 0-1.5-0.161-2.116-0.469l-0.375-0.188c-1.353-0.683-2.424-1.219-4.071-1.219-1.929 0-4.647 1.004-6.214 1.955-0.134 0.080-0.295 0.121-0.442 0.121s-0.295-0.040-0.429-0.107c-0.268-0.161-0.429-0.442-0.429-0.75v-9.937c0-0.295 0.161-0.576 0.415-0.737 0.857-0.509 3.884-2.183 6.696-2.183 2.237 0 4.058 0.817 5.598 1.567 0.348 0.174 0.75 0.254 1.192 0.254 1.58 0 3.321-1.004 4.152-1.5 0.174-0.094 0.321-0.174 0.415-0.228 0.268-0.134 0.576-0.121 0.83 0.027 0.254 0.161 0.415 0.442 0.415 0.737z"></path>
</svg>
