<!-- Generated by IcoMoon.io -->
<svg version="1.1" xmlns="http://www.w3.org/2000/svg" width="25" height="24" viewBox="0 0 25 24">
<path d="M22.286 13.996v-8.25c-1.071 0.576-2.571 1.219-4.098 1.219v0c-0.71 0-1.366-0.134-1.942-0.429-1.433-0.71-2.987-1.393-4.848-1.393-1.728 0-3.844 0.844-5.397 1.701v8.022c1.768-0.817 4.018-1.513 5.799-1.513 2.063 0 3.402 0.683 4.835 1.393l0.375 0.188c0.375 0.188 0.83 0.295 1.353 0.295 1.487 0 3.094-0.79 3.924-1.232zM4.286 3.429c0 0.629-0.348 1.179-0.857 1.473v16.955c0 0.241-0.188 0.429-0.429 0.429h-0.857c-0.241 0-0.429-0.188-0.429-0.429v-16.955c-0.509-0.295-0.857-0.844-0.857-1.473 0-0.951 0.763-1.714 1.714-1.714s1.714 0.763 1.714 1.714zM24 4.286v10.219c0 0.321-0.188 0.616-0.469 0.763-0.054 0.027-0.134 0.067-0.228 0.121-0.857 0.455-2.879 1.554-4.942 1.554-0.79 0-1.5-0.161-2.116-0.469l-0.375-0.188c-1.353-0.683-2.424-1.219-4.071-1.219-1.929 0-4.647 1.004-6.214 1.955-0.134 0.080-0.295 0.121-0.442 0.121s-0.295-0.040-0.429-0.107c-0.268-0.161-0.429-0.442-0.429-0.75v-9.937c0-0.295 0.161-0.576 0.415-0.737 0.857-0.509 3.884-2.183 6.696-2.183 2.237 0 4.058 0.817 5.598 1.567 0.348 0.174 0.75 0.254 1.192 0.254 1.58 0 3.321-1.004 4.152-1.5 0.174-0.094 0.321-0.174 0.415-0.228 0.268-0.134 0.576-0.121 0.83 0.027 0.254 0.161 0.415 0.442 0.415 0.737z"></path>
</svg>
