<!-- Generated by IcoMoon.io -->
<svg version="1.1" xmlns="http://www.w3.org/2000/svg" width="21" height="24" viewBox="0 0 21 24">
<path d="M16.714 1.714c2.129 0 3.857 1.728 3.857 3.857v12.857c0 2.129-1.728 3.857-3.857 3.857h-12.857c-2.129 0-3.857-1.728-3.857-3.857v-12.857c0-2.129 1.728-3.857 3.857-3.857h12.857zM9.348 12c0-1.567-1.272-2.839-2.839-2.839s-2.839 1.272-2.839 2.839 1.272 2.839 2.839 2.839 2.839-1.272 2.839-2.839zM16.902 12c0-1.567-1.272-2.839-2.839-2.839s-2.839 1.272-2.839 2.839 1.272 2.839 2.839 2.839 2.839-1.272 2.839-2.839z"></path>
</svg>
