<!-- Generated by IcoMoon.io -->
<svg version="1.1" xmlns="http://www.w3.org/2000/svg" width="21" height="24" viewBox="0 0 21 24">
<path d="M5.143 20.571h10.286v-5.143h-10.286v5.143zM17.143 20.571h1.714v-12c0-0.254-0.228-0.804-0.402-0.978l-3.763-3.763c-0.188-0.188-0.71-0.402-0.978-0.402v5.571c0 0.71-0.576 1.286-1.286 1.286h-7.714c-0.71 0-1.286-0.576-1.286-1.286v-5.571h-1.714v17.143h1.714v-5.571c0-0.71 0.576-1.286 1.286-1.286h11.143c0.71 0 1.286 0.576 1.286 1.286v5.571zM12 8.143v-4.286c0-0.228-0.201-0.429-0.429-0.429h-2.571c-0.228 0-0.429 0.201-0.429 0.429v4.286c0 0.228 0.201 0.429 0.429 0.429h2.571c0.228 0 0.429-0.201 0.429-0.429zM20.571 8.571v12.429c0 0.71-0.576 1.286-1.286 1.286h-18c-0.71 0-1.286-0.576-1.286-1.286v-18c0-0.71 0.576-1.286 1.286-1.286h12.429c0.71 0 1.688 0.402 2.196 0.911l3.75 3.75c0.509 0.509 0.911 1.487 0.911 2.196z"></path>
</svg>
