<!-- Generated by IcoMoon.io -->
<svg version="1.1" xmlns="http://www.w3.org/2000/svg" width="26" height="24" viewBox="0 0 26 24">
<path d="M23.853 12.469c0-0.375-0.415-0.469-0.71-0.469h-14.571c-0.71 0-1.647 0.442-2.103 0.991l-3.938 4.862c-0.121 0.161-0.241 0.335-0.241 0.536 0 0.375 0.415 0.469 0.71 0.469h14.571c0.71 0 1.647-0.442 2.103-1.004l3.938-4.862c0.121-0.147 0.241-0.321 0.241-0.522zM8.571 10.286h10.286v-2.143c0-0.71-0.576-1.286-1.286-1.286h-7.714c-0.71 0-1.286-0.576-1.286-1.286v-0.857c0-0.71-0.576-1.286-1.286-1.286h-4.286c-0.71 0-1.286 0.576-1.286 1.286v11.424l3.429-4.219c0.777-0.951 2.21-1.634 3.429-1.634zM25.567 12.469c0 0.589-0.254 1.152-0.616 1.607l-3.951 4.862c-0.763 0.938-2.223 1.634-3.429 1.634h-14.571c-1.647 0-3-1.353-3-3v-12.857c0-1.647 1.353-3 3-3h4.286c1.647 0 3 1.353 3 3v0.429h7.286c1.647 0 3 1.353 3 3v2.143h2.571c0.911 0 1.821 0.415 2.223 1.272 0.134 0.281 0.201 0.589 0.201 0.911z"></path>
</svg>
