<!-- Generated by IcoMoon.io -->
<svg version="1.1" xmlns="http://www.w3.org/2000/svg" width="25" height="24" viewBox="0 0 25 24">
<path d="M25.165 12.75c0 0.321-0.201 0.643-0.415 0.884l-4.5 5.304c-0.777 0.911-2.357 1.634-3.536 1.634h-14.571c-0.482 0-1.165-0.147-1.165-0.75 0-0.321 0.201-0.643 0.415-0.884l4.5-5.304c0.777-0.911 2.357-1.634 3.536-1.634h14.571c0.482 0 1.165 0.147 1.165 0.75zM20.571 8.143v2.143h-11.143c-1.674 0-3.75 0.951-4.835 2.237l-4.58 5.384c0-0.107-0.013-0.228-0.013-0.335v-12.857c0-1.647 1.353-3 3-3h4.286c1.647 0 3 1.353 3 3v0.429h7.286c1.647 0 3 1.353 3 3z"></path>
</svg>
