<!-- Generated by IcoMoon.io -->
<svg version="1.1" xmlns="http://www.w3.org/2000/svg" width="22" height="24" viewBox="0 0 22 24">
<path d="M20.571 17.571v-9.429c0-0.71-0.576-1.286-1.286-1.286h-9.429c-0.71 0-1.286-0.576-1.286-1.286v-0.857c0-0.71-0.576-1.286-1.286-1.286h-4.286c-0.71 0-1.286 0.576-1.286 1.286v12.857c0 0.71 0.576 1.286 1.286 1.286h16.286c0.71 0 1.286-0.576 1.286-1.286zM22.286 8.143v9.429c0 1.647-1.353 3-3 3h-16.286c-1.647 0-3-1.353-3-3v-12.857c0-1.647 1.353-3 3-3h4.286c1.647 0 3 1.353 3 3v0.429h9c1.647 0 3 1.353 3 3z"></path>
</svg>
