<!-- Generated by IcoMoon.io -->
<svg version="1.1" xmlns="http://www.w3.org/2000/svg" width="22" height="24" viewBox="0 0 22 24">
<path d="M9.71 7.487l-2.277 6.027c1.326 0.013 2.652 0.054 3.978 0.054 0.254 0 0.509-0.013 0.763-0.027-0.696-2.036-1.513-4.112-2.464-6.054zM0 22.286l0.027-1.058c1.259-0.388 2.625-0.121 3.188-1.567l3.174-8.25 3.75-9.696h1.714c0.054 0.094 0.107 0.188 0.147 0.281l2.746 6.429c1.004 2.371 1.929 4.768 2.946 7.125 0.603 1.393 1.071 2.826 1.741 4.192 0.094 0.214 0.281 0.616 0.469 0.763 0.442 0.348 1.674 0.429 2.304 0.67 0.040 0.254 0.080 0.509 0.080 0.763 0 0.121-0.013 0.228-0.013 0.348-1.701 0-3.402-0.214-5.103-0.214-1.754 0-3.509 0.147-5.263 0.201 0-0.348 0.013-0.696 0.054-1.045l1.754-0.375c0.362-0.080 1.071-0.174 1.071-0.67 0-0.482-1.728-4.46-1.942-5.009l-6.027-0.027c-0.348 0.777-1.701 4.286-1.701 4.795 0 1.031 1.969 1.071 2.732 1.179 0.013 0.254 0.013 0.509 0.013 0.777 0 0.121-0.013 0.241-0.027 0.362-1.554 0-3.121-0.268-4.674-0.268-0.188 0-0.455 0.080-0.643 0.107-0.844 0.147-1.674 0.188-2.518 0.188z"></path>
</svg>
