<!-- Generated by IcoMoon.io -->
<svg version="1.1" xmlns="http://www.w3.org/2000/svg" width="21" height="24" viewBox="0 0 21 24">
<path d="M0 1.714h20.571v20.571h-20.571v-20.571zM12.161 6l-0.161 0.442 1.004 1.112-0.415 1.527 0.335 0.335 1.433-0.763 1.433 0.763 0.335-0.335-0.415-1.527 1.004-1.112-0.161-0.442h-1.272l-0.71-1.286h-0.429l-0.71 1.286h-1.272zM8.585 8.183c0.549 0 0.763 0.201 0.75 1.058l2.33-0.281c0-2.049-1.406-2.424-2.973-2.424-2.33 0-3.549 0.938-3.549 3.214v0.964h-1.286v1.714h1.018c0.134 0 0.268 0 0.268 0.107v5.116c0 0.254-0.067 0.335-0.308 0.362l-0.978 0.094v1.179h6v-1.152l-1.996-0.188c-0.241-0.027-0.147-0.067-0.147-0.335v-5.183h2.558l0.509-1.714h-3.094c-0.134 0 0.027-0.094 0.027-0.201v-1.071c0-0.804 0.027-1.259 0.871-1.259zM16.714 19.286v-1.152l-0.723-0.121c-0.254-0.040-0.134-0.067-0.134-0.335v-6.964h-3.683l-0.308 1.353 1.112 0.295c0.174 0.054 0.308 0.174 0.308 0.362v4.955c0 0.254-0.107 0.308-0.348 0.335l-0.938 0.121v1.152h4.714z"></path>
</svg>
