<!-- Generated by IcoMoon.io -->
<svg version="1.1" xmlns="http://www.w3.org/2000/svg" width="22" height="24" viewBox="0 0 22 24">
<path d="M8.571 13.5v-3c0-0.121-0.094-0.214-0.214-0.214h-1.286c-0.121 0-0.214 0.094-0.214 0.214v3c0 0.121 0.094 0.214 0.214 0.214h1.286c0.121 0 0.214-0.094 0.214-0.214zM15.429 13.5v-3c0-0.121-0.094-0.214-0.214-0.214h-1.286c-0.121 0-0.214 0.094-0.214 0.214v3c0 0.121 0.094 0.214 0.214 0.214h1.286c0.121 0 0.214-0.094 0.214-0.214zM22.286 13.929v10.071h-8.571v-4.286c0-1.42-1.152-2.571-2.571-2.571s-2.571 1.152-2.571 2.571v4.286h-8.571v-10.071c0-0.121 0.094-0.214 0.214-0.214h1.286c0.121 0 0.214 0.094 0.214 0.214v1.5h1.714v-8.357c0-0.121 0.094-0.214 0.214-0.214h1.286c0.121 0 0.214 0.094 0.214 0.214v1.5h1.714v-1.5c0-0.121 0.094-0.214 0.214-0.214h1.286c0.121 0 0.214 0.094 0.214 0.214v1.5h1.714v-1.5c0-0.281 0.375-0.214 0.549-0.214v-5.237c-0.254-0.121-0.429-0.388-0.429-0.67 0-0.402 0.335-0.737 0.737-0.737s0.737 0.335 0.737 0.737c0 0.281-0.174 0.549-0.429 0.67v0.228c0.362-0.080 0.737-0.134 1.112-0.134 0.549 0 1.071 0.201 1.527 0.201 0.415 0 0.884-0.201 1.125-0.201 0.121 0 0.214 0.094 0.214 0.214v2.812c0 0.321-1.085 0.375-1.299 0.375-0.496 0-0.964-0.201-1.473-0.201-0.402 0-0.817 0.067-1.205 0.161v1.781c0.174 0 0.549-0.067 0.549 0.214v1.5h1.714v-1.5c0-0.121 0.094-0.214 0.214-0.214h1.286c0.121 0 0.214 0.094 0.214 0.214v1.5h1.714v-1.5c0-0.121 0.094-0.214 0.214-0.214h1.286c0.121 0 0.214 0.094 0.214 0.214v8.357h1.714v-1.5c0-0.121 0.094-0.214 0.214-0.214h1.286c0.121 0 0.214 0.094 0.214 0.214z"></path>
</svg>
