<!-- Generated by IcoMoon.io -->
<svg version="1.1" xmlns="http://www.w3.org/2000/svg" width="21" height="24" viewBox="0 0 21 24">
<path d="M12.509 2.009c-5.665 2.156-10.125 6.683-12.241 12.362-0.174-0.777-0.268-1.567-0.268-2.357 0-5.665 4.58-10.259 10.246-10.259 0.763 0 1.527 0.094 2.263 0.254zM16.112 3.603c0.83 0.576 1.567 1.272 2.196 2.076-6.938 2.022-12.362 7.473-14.344 14.424-0.79-0.616-1.5-1.339-2.076-2.17 1.996-6.884 7.353-12.295 14.223-14.33zM6.295 21.469c2.063-6.362 7.045-11.371 13.379-13.473 0.362 0.83 0.603 1.714 0.723 2.612-5.223 2.143-9.375 6.321-11.504 11.558-0.897-0.121-1.768-0.348-2.598-0.696zM20.571 22.246c-1.661-0.429-3.308-0.938-4.915-1.54-1.179 0.737-2.504 1.232-3.884 1.433 1.955-3.656 4.969-6.683 8.612-8.652-0.188 1.339-0.656 2.652-1.353 3.804 0.603 1.621 1.112 3.281 1.54 4.955z"></path>
</svg>
