<!-- Generated by IcoMoon.io -->
<svg version="1.1" xmlns="http://www.w3.org/2000/svg" width="17" height="24" viewBox="0 0 17 24">
<path d="M13.393 5.813l0.496-2.598c0.094-0.429-0.228-0.763-0.589-0.763h-9.536c-0.429 0-0.723 0.388-0.723 0.723v14.746c0 0.040 0.040 0.054 0.080 0.013 3.509-4.219 3.897-4.714 3.897-4.714 0.402-0.469 0.563-0.549 1.152-0.549h3.201c0.442 0 0.696-0.375 0.737-0.589s0.415-2.17 0.496-2.558-0.281-0.79-0.643-0.79h-3.938c-0.522 0-0.897-0.375-0.897-0.897v-0.563c0-0.522 0.375-0.884 0.897-0.884h4.634c0.321 0 0.683-0.295 0.737-0.576zM16.433 2.839c-0.496 2.411-1.982 10.031-2.116 10.58-0.161 0.629-0.402 1.728-1.929 1.728h-3.629c-0.147 0-0.161-0.013-0.295 0.134 0 0-0.094 0.107-5.705 6.616-0.442 0.509-1.165 0.415-1.433 0.308s-0.737-0.429-0.737-1.313v-18.884c0-0.777 0.482-2.009 2.116-2.009h11.893c1.741 0 2.21 0.991 1.835 2.839zM16.433 2.839l-2.116 10.58c0.134-0.549 1.621-8.17 2.116-10.58z"></path>
</svg>
