<!-- Generated by IcoMoon.io -->
<svg version="1.1" xmlns="http://www.w3.org/2000/svg" width="21" height="24" viewBox="0 0 21 24">
<path d="M15.188 16.46c0.147 0.455-0.107 0.924-0.549 1.071-0.455 0.147-0.938-0.107-1.085-0.563-0.442-1.433-1.768-2.397-3.268-2.397s-2.826 0.964-3.268 2.397c-0.147 0.455-0.629 0.71-1.071 0.563-0.455-0.147-0.71-0.616-0.563-1.071 0.67-2.156 2.638-3.603 4.902-3.603s4.232 1.446 4.902 3.603zM8.571 8.571c0 0.951-0.763 1.714-1.714 1.714s-1.714-0.763-1.714-1.714 0.763-1.714 1.714-1.714 1.714 0.763 1.714 1.714zM15.429 8.571c0 0.951-0.763 1.714-1.714 1.714s-1.714-0.763-1.714-1.714 0.763-1.714 1.714-1.714 1.714 0.763 1.714 1.714zM18.857 12c0-4.728-3.844-8.571-8.571-8.571s-8.571 3.844-8.571 8.571 3.844 8.571 8.571 8.571 8.571-3.844 8.571-8.571zM20.571 12c0 5.679-4.607 10.286-10.286 10.286s-10.286-4.607-10.286-10.286 4.607-10.286 10.286-10.286 10.286 4.607 10.286 10.286z"></path>
</svg>
