<!-- Generated by IcoMoon.io -->
<svg version="1.1" xmlns="http://www.w3.org/2000/svg" width="24" height="24" viewBox="0 0 24 24">
<path d="M8.156 10.929l3.844-2.786 3.844 2.786-1.46 4.5h-4.754zM12 0c6.629 0 12 5.371 12 12s-5.371 12-12 12-12-5.371-12-12 5.371-12 12-12zM20.29 18.080c1.259-1.714 1.996-3.804 1.996-6.080v-0.040l-1.366 1.192-3.214-3 0.844-4.326 1.795 0.161c-1.272-1.754-3.094-3.107-5.21-3.777l0.71 1.661-3.844 2.129-3.844-2.129 0.71-1.661c-2.116 0.67-3.938 2.022-5.21 3.777l1.808-0.161 0.83 4.326-3.214 3-1.366-1.192v0.040c0 2.277 0.737 4.366 1.996 6.080l0.402-1.768 4.366 0.536 1.862 3.991-1.554 0.924c1.004 0.335 2.089 0.522 3.214 0.522s2.21-0.188 3.214-0.522l-1.554-0.924 1.862-3.991 4.366-0.536z"></path>
</svg>
