<!-- Generated by IcoMoon.io -->
<svg version="1.1" xmlns="http://www.w3.org/2000/svg" width="26" height="24" viewBox="0 0 26 24">
<path d="M11.143 14.571v-1.714c0-0.241-0.188-0.429-0.429-0.429h-2.571v-2.571c0-0.241-0.187-0.429-0.429-0.429h-1.714c-0.241 0-0.429 0.188-0.429 0.429v2.571h-2.571c-0.241 0-0.429 0.188-0.429 0.429v1.714c0 0.241 0.188 0.429 0.429 0.429h2.571v2.571c0 0.241 0.188 0.429 0.429 0.429h1.714c0.241 0 0.429-0.188 0.429-0.429v-2.571h2.571c0.241 0 0.429-0.188 0.429-0.429zM18.857 15.429c0-0.951-0.763-1.714-1.714-1.714s-1.714 0.763-1.714 1.714 0.763 1.714 1.714 1.714 1.714-0.763 1.714-1.714zM22.286 12c0-0.951-0.763-1.714-1.714-1.714s-1.714 0.763-1.714 1.714 0.763 1.714 1.714 1.714 1.714-0.763 1.714-1.714zM25.714 13.714c0 3.79-3.067 6.857-6.857 6.857-1.741 0-3.321-0.656-4.527-1.714h-2.946c-1.205 1.058-2.786 1.714-4.527 1.714-3.79 0-6.857-3.067-6.857-6.857s3.067-6.857 6.857-6.857h12c3.79 0 6.857 3.067 6.857 6.857z"></path>
</svg>
