<!-- Generated by IcoMoon.io -->
<svg version="1.1" xmlns="http://www.w3.org/2000/svg" width="24" height="24" viewBox="0 0 24 24">
<path d="M23.719 20.571c0 0.455-0.188 0.897-0.496 1.205l-1.433 1.446c-0.321 0.308-0.763 0.496-1.219 0.496s-0.897-0.188-1.205-0.496l-4.862-4.875c-0.321-0.308-0.509-0.75-0.509-1.205 0-0.509 0.214-0.924 0.576-1.286l-3.429-3.429-1.688 1.688c-0.121 0.121-0.281 0.188-0.455 0.188s-0.335-0.067-0.455-0.188c0.402 0.402 0.777 0.696 0.777 1.313 0 0.348-0.134 0.656-0.375 0.911-0.455 0.482-0.938 1.125-1.661 1.125-0.335 0-0.67-0.134-0.911-0.375l-5.464-5.464c-0.241-0.241-0.375-0.576-0.375-0.911 0-0.723 0.643-1.205 1.125-1.661 0.254-0.241 0.563-0.375 0.911-0.375 0.616 0 0.911 0.375 1.313 0.777-0.121-0.121-0.188-0.281-0.188-0.455s0.067-0.335 0.188-0.455l4.661-4.661c0.121-0.121 0.281-0.188 0.455-0.188s0.335 0.067 0.455 0.188c-0.402-0.402-0.777-0.696-0.777-1.313 0-0.348 0.134-0.656 0.375-0.911 0.455-0.482 0.938-1.125 1.661-1.125 0.335 0 0.67 0.134 0.911 0.375l5.464 5.464c0.241 0.241 0.375 0.576 0.375 0.911 0 0.723-0.643 1.205-1.125 1.661-0.254 0.241-0.563 0.375-0.911 0.375-0.616 0-0.911-0.375-1.313-0.777 0.121 0.121 0.188 0.281 0.188 0.455s-0.067 0.335-0.188 0.455l-1.688 1.688 3.429 3.429c0.362-0.362 0.777-0.576 1.286-0.576 0.455 0 0.897 0.188 1.219 0.496l4.862 4.862c0.308 0.321 0.496 0.763 0.496 1.219z"></path>
</svg>
