<!-- Generated by IcoMoon.io -->
<svg version="1.1" xmlns="http://www.w3.org/2000/svg" width="14" height="24" viewBox="0 0 14 24">
<path d="M13.661 15.228v4.915c0 0.241-0.188 0.429-0.429 0.429h-12.804c-0.241 0-0.429-0.188-0.429-0.429v-2.009c0-0.228 0.188-0.429 0.429-0.429h1.299v-5.129h-1.272c-0.241 0-0.429-0.188-0.429-0.429v-1.754c0-0.241 0.188-0.429 0.429-0.429h1.272v-2.987c0-3.054 2.464-5.263 5.866-5.263 2.679 0 4.406 1.607 4.487 1.674 0.161 0.147 0.174 0.402 0.040 0.576l-1.379 1.701c-0.080 0.094-0.174 0.147-0.295 0.161-0.107 0.013-0.228-0.027-0.308-0.094-0.013-0.013-1.165-0.924-2.518-0.924-1.513 0-2.531 0.911-2.531 2.277v2.879h4.085c0.241 0 0.429 0.188 0.429 0.429v1.754c0 0.241-0.188 0.429-0.429 0.429h-4.085v5.076h5.545v-2.424c0-0.241 0.188-0.429 0.429-0.429h2.17c0.241 0 0.429 0.188 0.429 0.429z"></path>
</svg>
