<!-- Generated by IcoMoon.io -->
<svg version="1.1" xmlns="http://www.w3.org/2000/svg" width="24" height="24" viewBox="0 0 24 24">
<path d="M9.603 18.134l3.629-3.629-3.737-3.737-1.179 1.179 2.571 2.558-1.286 1.286-3.737-3.737 3.737-3.737 0.536 0.536 1.165-1.165-1.701-1.714-6.080 6.080zM14.397 18.027l6.080-6.080-6.080-6.080-3.629 3.629 3.737 3.737 1.179-1.179-2.571-2.558 1.286-1.286 3.737 3.737-3.737 3.737-0.536-0.536-1.165 1.179zM24 12c0 6.629-5.371 12-12 12s-12-5.371-12-12 5.371-12 12-12 12 5.371 12 12z"></path>
</svg>
