<!-- Generated by IcoMoon.io -->
<svg version="1.1" xmlns="http://www.w3.org/2000/svg" width="21" height="24" viewBox="0 0 21 24">
<path d="M12.429 18.161v-9.589h-4.286v9.589c0 0.469 0.388 0.696 0.857 0.696h2.571c0.469 0 0.857-0.228 0.857-0.696zM6.321 6.857h2.612l-1.688-2.156c-0.147-0.174-0.469-0.415-0.924-0.415-0.71 0-1.286 0.576-1.286 1.286s0.576 1.286 1.286 1.286zM15.536 5.571c0-0.71-0.576-1.286-1.286-1.286-0.455 0-0.777 0.241-0.924 0.415l-1.674 2.156h2.598c0.71 0 1.286-0.576 1.286-1.286zM20.571 9v4.286c0 0.241-0.188 0.429-0.429 0.429h-1.286v5.571c0 0.71-0.576 1.286-1.286 1.286h-14.571c-0.71 0-1.286-0.576-1.286-1.286v-5.571h-1.286c-0.241 0-0.429-0.188-0.429-0.429v-4.286c0-0.241 0.188-0.429 0.429-0.429h5.893c-1.661 0-3-1.339-3-3s1.339-3 3-3c0.897 0 1.728 0.375 2.25 1.031l1.714 2.21 1.714-2.21c0.522-0.656 1.353-1.031 2.25-1.031 1.661 0 3 1.339 3 3s-1.339 3-3 3h5.893c0.241 0 0.429 0.188 0.429 0.429z"></path>
</svg>
