<!-- Generated by IcoMoon.io -->
<svg version="1.1" xmlns="http://www.w3.org/2000/svg" width="21" height="24" viewBox="0 0 21 24">
<path d="M7.795 17.518c0 0.723-0.656 0.884-1.246 0.884-0.576 0-1.433-0.094-1.433-0.844 0-0.737 0.723-0.857 1.312-0.857 0.563 0 1.366 0.094 1.366 0.817zM7.313 11.277c0 0.67-0.268 1.138-0.991 1.138-0.737 0-1.031-0.429-1.031-1.125s0.268-1.205 1.031-1.205c0.683 0 0.991 0.563 0.991 1.192zM9.536 10.272v-1.674c-0.576 0.214-1.192 0.388-1.808 0.388-0.442-0.254-0.951-0.388-1.473-0.388-1.527 0-2.732 1.125-2.732 2.679 0 0.83 0.549 1.982 1.379 2.263v0.040c-0.429 0.188-0.509 0.71-0.509 1.138 0 0.442 0.161 0.804 0.549 1.031v0.040c-0.911 0.295-1.513 0.871-1.513 1.862 0 1.701 1.621 2.183 3.040 2.183 1.714 0 3-0.629 3-2.518 0-1.339-1.219-1.741-2.33-1.942-0.375-0.067-1.018-0.335-1.018-0.804 0-0.442 0.241-0.629 0.656-0.696 1.366-0.268 2.237-1.326 2.237-2.732 0-0.241-0.054-0.469-0.134-0.696 0.214-0.054 0.442-0.107 0.656-0.174zM10.326 15.884h1.835c-0.027-0.362-0.027-0.737-0.027-1.098v-5.183c0-0.308 0-0.616 0.027-0.924h-1.835c0.040 0.308 0.040 0.643 0.040 0.951v5.25c0 0.335 0 0.67-0.040 1.004zM17.143 15.67v-1.621c-0.268 0.188-0.589 0.281-0.911 0.281-0.603 0-0.71-0.603-0.71-1.098v-3.013h0.696c0.241 0 0.469 0.027 0.71 0.027v-1.567h-1.406c0-0.455-0.027-0.911 0.040-1.366h-1.875c0.040 0.241 0.054 0.482 0.054 0.737v0.629h-0.804v1.567c0.161-0.013 0.321-0.040 0.496-0.040 0.094 0 0.201 0.013 0.308 0.013v0.027h-0.027v2.906c0 1.446 0.214 2.839 1.982 2.839 0.496 0 1.004-0.080 1.446-0.321zM12.375 6.214c0-0.629-0.469-1.219-1.125-1.219s-1.138 0.576-1.138 1.219c0 0.629 0.496 1.192 1.138 1.192s1.125-0.576 1.125-1.192zM20.571 5.571v12.857c0 2.129-1.728 3.857-3.857 3.857h-12.857c-2.129 0-3.857-1.728-3.857-3.857v-12.857c0-2.129 1.728-3.857 3.857-3.857h12.857c2.129 0 3.857 1.728 3.857 3.857z"></path>
</svg>
