<!-- Generated by IcoMoon.io -->
<svg version="1.1" xmlns="http://www.w3.org/2000/svg" width="24" height="24" viewBox="0 0 24 24">
<path d="M7.969 20.277c0-1.179-1.299-1.339-2.21-1.339-0.951 0-2.116 0.201-2.116 1.393 0 1.205 1.379 1.353 2.304 1.353 0.978 0 2.022-0.241 2.022-1.406zM7.179 10.165c0-1.004-0.482-1.915-1.594-1.915-1.232 0-1.661 0.817-1.661 1.942 0 1.112 0.482 1.808 1.661 1.808 1.165 0 1.594-0.75 1.594-1.835zM10.781 5.826v2.705c-0.348 0.121-0.696 0.214-1.058 0.295 0.134 0.362 0.214 0.737 0.214 1.125 0 2.263-1.393 3.991-3.616 4.406-0.67 0.134-1.058 0.415-1.058 1.138 0 2.049 5.411 0.656 5.411 4.433 0 3.067-2.076 4.071-4.862 4.071-2.29 0-4.902-0.763-4.902-3.522 0-1.607 0.978-2.531 2.438-3.013v-0.054c-0.616-0.375-0.897-0.964-0.897-1.688 0-0.683 0.147-1.527 0.844-1.835v-0.054c-1.353-0.455-2.237-2.317-2.237-3.67 0-2.504 1.942-4.339 4.42-4.339 0.83 0 1.661 0.214 2.384 0.629 1.004 0 1.996-0.268 2.92-0.629zM15.040 17.625h-2.973c0.054-0.603 0.054-1.192 0.054-1.795v-8.156c0-0.576 0.013-1.152-0.054-1.714h2.973c-0.067 0.549-0.054 1.112-0.054 1.661v8.21c0 0.603 0 1.192 0.054 1.795zM23.089 14.652v2.625c-0.71 0.388-1.527 0.522-2.33 0.522-2.866 0-3.201-2.263-3.201-4.594v-4.701h0.027v-0.054c-0.174 0-0.335-0.027-0.496-0.027-0.268 0-0.536 0.040-0.79 0.080v-2.545h1.286v-1.018c0-0.402-0.013-0.804-0.080-1.192h3.040c-0.107 0.737-0.080 1.473-0.080 2.21h2.29v2.545c-0.388 0-0.777-0.054-1.152-0.054h-1.138v4.888c0 0.79 0.174 1.754 1.165 1.754 0.522 0 1.031-0.147 1.46-0.442zM15.375 1.969c0 1.004-0.777 1.942-1.808 1.942-1.058 0-1.848-0.924-1.848-1.942 0-1.031 0.777-1.969 1.848-1.969 1.058 0 1.808 0.964 1.808 1.969z"></path>
</svg>
