<!-- Generated by IcoMoon.io -->
<svg version="1.1" xmlns="http://www.w3.org/2000/svg" width="21" height="24" viewBox="0 0 21 24">
<path d="M6.951 16.071v0c0.027-0.040 0.013-0.121-0.040-0.174-0.067-0.054-0.147-0.067-0.188-0.027-0.027 0.040-0.013 0.121 0.040 0.174 0.067 0.054 0.147 0.067 0.188 0.027zM6.576 15.522c-0.040-0.054-0.107-0.080-0.161-0.054-0.040 0.027-0.040 0.107 0 0.161 0.054 0.067 0.121 0.094 0.161 0.067v0c0.040-0.027 0.040-0.107 0-0.174zM6.027 14.987v0c0.013-0.027-0.013-0.080-0.067-0.107-0.040-0.013-0.094-0.013-0.107 0.027-0.027 0.040 0 0.080 0.054 0.107 0.054 0.013 0.107 0.013 0.121-0.027zM6.308 15.295v0c0.027-0.027 0.027-0.094-0.027-0.134-0.040-0.054-0.107-0.067-0.134-0.040-0.040 0.040-0.027 0.094 0.013 0.147 0.040 0.040 0.107 0.067 0.147 0.027zM7.46 16.299v0c0.013-0.054-0.040-0.121-0.121-0.147s-0.147 0-0.174 0.054c-0.013 0.054 0.040 0.121 0.121 0.147s0.147 0 0.174-0.054zM8.022 16.339v0c0-0.054-0.067-0.107-0.161-0.107-0.080 0-0.134 0.054-0.134 0.107s0.067 0.107 0.147 0.107 0.147-0.054 0.147-0.107zM8.545 16.246v0c-0.013-0.054-0.094-0.080-0.174-0.067s-0.134 0.067-0.121 0.121 0.080 0.094 0.161 0.080 0.134-0.080 0.134-0.134zM17.143 12c0-3.79-3.067-6.857-6.857-6.857s-6.857 3.067-6.857 6.857c0 3.027 1.969 5.598 4.688 6.509 0.348 0.067 0.469-0.147 0.469-0.335 0-0.161 0-0.696-0.013-1.272 0 0-1.902 0.415-2.304-0.817 0 0-0.308-0.79-0.763-0.991 0 0-0.616-0.429 0.054-0.429 0 0 0.67 0.054 1.045 0.71 0.603 1.058 1.607 0.75 1.996 0.576 0.067-0.442 0.241-0.75 0.442-0.924-1.527-0.174-3.134-0.763-3.134-3.388 0-0.75 0.268-1.353 0.71-1.835-0.067-0.174-0.308-0.871 0.067-1.821 0.576-0.174 1.888 0.71 1.888 0.71 0.549-0.161 1.125-0.228 1.714-0.228s1.165 0.067 1.714 0.228c0 0 1.313-0.884 1.888-0.71 0.375 0.951 0.134 1.647 0.067 1.821 0.442 0.482 0.71 1.085 0.71 1.835 0 2.638-1.607 3.214-3.134 3.388 0.241 0.214 0.469 0.629 0.469 1.272 0 0.911-0.013 1.647-0.013 1.875 0 0.188 0.121 0.402 0.469 0.335 2.719-0.911 4.688-3.482 4.688-6.509zM20.571 5.571v12.857c0 2.129-1.728 3.857-3.857 3.857h-12.857c-2.129 0-3.857-1.728-3.857-3.857v-12.857c0-2.129 1.728-3.857 3.857-3.857h12.857c2.129 0 3.857 1.728 3.857 3.857z"></path>
</svg>
