<!-- Generated by IcoMoon.io -->
<svg version="1.1" xmlns="http://www.w3.org/2000/svg" width="21" height="24" viewBox="0 0 21 24">
<path d="M10.286 1.714c5.679 0 10.286 4.607 10.286 10.286 0 4.54-2.946 8.397-7.031 9.763-0.522 0.094-0.71-0.228-0.71-0.496 0-0.335 0.013-1.446 0.013-2.826 0-0.964-0.321-1.58-0.696-1.902 2.29-0.254 4.701-1.125 4.701-5.076 0-1.125-0.402-2.036-1.058-2.759 0.107-0.268 0.455-1.313-0.107-2.732-0.857-0.268-2.826 1.058-2.826 1.058-0.817-0.228-1.701-0.348-2.571-0.348s-1.754 0.121-2.571 0.348c0 0-1.969-1.326-2.826-1.058-0.563 1.42-0.214 2.464-0.107 2.732-0.656 0.723-1.058 1.634-1.058 2.759 0 3.937 2.397 4.821 4.688 5.076-0.295 0.268-0.562 0.723-0.656 1.379-0.589 0.268-2.089 0.723-2.987-0.857-0.563-0.978-1.58-1.058-1.58-1.058-1.004-0.013-0.067 0.629-0.067 0.629 0.67 0.308 1.138 1.5 1.138 1.5 0.603 1.835 3.469 1.219 3.469 1.219 0 0.857 0.013 1.661 0.013 1.915 0 0.268-0.188 0.589-0.71 0.496-4.085-1.366-7.031-5.223-7.031-9.763 0-5.679 4.607-10.286 10.286-10.286zM3.897 16.487c0.027-0.054-0.013-0.121-0.094-0.161-0.080-0.027-0.147-0.013-0.174 0.027-0.027 0.054 0.013 0.121 0.094 0.161 0.067 0.040 0.147 0.027 0.174-0.027zM4.313 16.942c0.054-0.040 0.040-0.134-0.027-0.214-0.067-0.067-0.161-0.094-0.214-0.040-0.054 0.040-0.040 0.134 0.027 0.214 0.067 0.067 0.161 0.094 0.214 0.040zM4.714 17.545c0.067-0.054 0.067-0.161 0-0.254-0.054-0.094-0.161-0.134-0.228-0.080-0.067 0.040-0.067 0.147 0 0.241s0.174 0.134 0.228 0.094zM5.277 18.107c0.054-0.054 0.027-0.174-0.054-0.254-0.094-0.094-0.214-0.107-0.268-0.040-0.067 0.054-0.040 0.174 0.054 0.254 0.094 0.094 0.214 0.107 0.268 0.040zM6.040 18.442c0.027-0.080-0.054-0.174-0.174-0.214-0.107-0.027-0.228 0.013-0.254 0.094s0.054 0.174 0.174 0.201c0.107 0.040 0.228 0 0.254-0.080zM6.884 18.509c0-0.094-0.107-0.161-0.228-0.147-0.121 0-0.214 0.067-0.214 0.147 0 0.094 0.094 0.161 0.228 0.147 0.121 0 0.214-0.067 0.214-0.147zM7.661 18.375c-0.013-0.080-0.121-0.134-0.241-0.121-0.121 0.027-0.201 0.107-0.188 0.201 0.013 0.080 0.121 0.134 0.241 0.107s0.201-0.107 0.188-0.188z"></path>
</svg>
