<!-- Generated by IcoMoon.io -->
<svg version="1.1" xmlns="http://www.w3.org/2000/svg" width="22" height="24" viewBox="0 0 22 24">
<path d="M8.571 16.286c0 0.978-0.509 2.571-1.714 2.571s-1.714-1.594-1.714-2.571 0.509-2.571 1.714-2.571 1.714 1.594 1.714 2.571zM17.143 16.286c0 0.978-0.509 2.571-1.714 2.571s-1.714-1.594-1.714-2.571 0.509-2.571 1.714-2.571 1.714 1.594 1.714 2.571zM19.286 16.286c0-2.049-1.246-3.857-3.429-3.857-0.884 0-1.728 0.161-2.612 0.281-0.696 0.107-1.393 0.147-2.103 0.147s-1.406-0.040-2.103-0.147c-0.871-0.121-1.728-0.281-2.612-0.281-2.183 0-3.429 1.808-3.429 3.857 0 4.098 3.75 4.728 7.018 4.728h2.25c3.268 0 7.018-0.629 7.018-4.728zM22.286 13.929c0 1.487-0.147 3.067-0.817 4.433-1.768 3.576-6.629 3.924-10.112 3.924-3.536 0-8.692-0.308-10.527-3.924-0.683-1.353-0.83-2.946-0.83-4.433 0-1.955 0.536-3.804 1.821-5.304-0.241-0.737-0.362-1.513-0.362-2.277 0-1.004 0.228-2.009 0.683-2.92 2.116 0 3.469 0.924 5.076 2.183 1.353-0.321 2.746-0.469 4.138-0.469 1.259 0 2.531 0.134 3.75 0.429 1.594-1.246 2.946-2.143 5.036-2.143 0.455 0.911 0.683 1.915 0.683 2.92 0 0.763-0.121 1.527-0.362 2.25 1.286 1.513 1.821 3.375 1.821 5.33z"></path>
</svg>
