<!-- Generated by IcoMoon.io -->
<svg version="1.1" xmlns="http://www.w3.org/2000/svg" width="21" height="24" viewBox="0 0 21 24">
<path d="M10.353 17.438l4.687-6.335c0.362-0.496 0.79-2.089-0.576-2.987-1.152-0.75-2.25-0.174-2.826 0.496-0.214 0.241-0.589 0.536-1.286 0.536s-1.058-0.295-1.272-0.536c-0.576-0.67-1.674-1.246-2.839-0.496-1.353 0.897-0.924 2.491-0.563 2.987zM20.571 12c0 5.679-4.607 10.286-10.286 10.286s-10.286-4.607-10.286-10.286 4.607-10.286 10.286-10.286 10.286 4.607 10.286 10.286z"></path>
</svg>
