<!-- Generated by IcoMoon.io -->
<svg version="1.1" xmlns="http://www.w3.org/2000/svg" width="21" height="24" viewBox="0 0 21 24">
<path d="M9.964 4.085c0-0.71-0.067-1.326-0.924-1.326-0.362 0-0.723 0.121-1.045 0.308-2.022 1.112-2.853 3.991-2.853 6.161 0 1.446 0.496 3.375 2.263 3.375 0.402 0 0.911 0.107 1.018-0.362 0.429-2.063 0.857-4.138 1.286-6.201 0.134-0.643 0.254-1.299 0.254-1.955zM20.063 12.871c0 0.134-0.174 0.268-0.308 0.268l-0.080-0.013c-0.911-0.134-1.714-0.375-2.638-0.375-1.674 0-3.214 0.496-4.701 1.246-0.188 0.094-0.228 0.174-0.281 0.362-0.241 0.911-0.402 1.848-0.629 2.759-0.804 3.121-3.415 6.884-6.991 6.884-2.437 0-3.937-1.661-3.937-4.058 0-1.299 0.844-3.83 2.411-3.83 0.549 0 2.705 0.71 2.719 1.272-0.027 0.107-2.103 1.179-2.103 2.987 0 0.549 0.268 0.978 0.871 0.978 2.129 0 3.107-3.884 3.321-5.518v-0.121c0-0.107-0.429-0.054-0.509-0.054-4.031 0-6.388-2.25-6.388-6.308 0-3.83 2.491-8.504 6.576-9.214 0.469-0.080 0.937-0.121 1.42-0.121 3.241 0 5.009 1.513 5.009 4.821 0 2.237-0.763 4.299-1.085 6.482l0.040 0.040c1.446-0.817 2.973-1.594 4.688-1.594 0.174 0 0.549 0.107 0.71 0.174 0.348 0.134 1.888 2.558 1.888 2.933z"></path>
</svg>
