<!-- Generated by IcoMoon.io -->
<svg version="1.1" xmlns="http://www.w3.org/2000/svg" width="21" height="24" viewBox="0 0 21 24">
<path d="M11.598 6.897c0 0.429-0.094 0.844-0.174 1.259-0.281 1.339-0.549 2.679-0.83 4.018-0.040 0.188-0.040 0.188-0.241 0.201-0.134 0.013-0.281 0.027-0.415 0.027-1.152 0-1.473-1.246-1.473-2.183 0-1.393 0.549-3.254 1.848-3.991 0.214-0.107 0.442-0.188 0.683-0.188 0.549 0 0.603 0.402 0.603 0.857zM18.107 12.576c0-0.241-0.991-1.808-1.219-1.902-0.107-0.040-0.335-0.107-0.455-0.107-1.098 0-2.089 0.496-3.027 1.031l-0.027-0.027c0.214-1.433 0.696-2.705 0.696-4.192 0-2.129-1.138-3.121-3.241-3.121-0.308 0-0.616 0.040-0.911 0.080-2.638 0.469-4.246 3.482-4.246 5.96 0 2.625 1.513 4.071 4.125 4.071 0.054 0 0.335-0.027 0.335 0.040 0 0.027 0 0.040-0.013 0.067-0.054 0.509-0.214 1.071-0.348 1.567-0.201 0.737-0.897 2.009-1.795 2.009-0.388 0-0.563-0.268-0.563-0.629 0-1.165 1.339-1.862 1.366-1.929 0-0.054-0.067-0.107-0.094-0.134-0.415-0.375-1.098-0.683-1.661-0.683-1.018 0-1.567 1.634-1.567 2.464 0 1.554 0.978 2.625 2.545 2.625 2.317 0 4.004-2.438 4.527-4.446 0.147-0.589 0.254-1.192 0.402-1.781 0.027-0.121 0.067-0.174 0.188-0.241 0.951-0.482 1.955-0.804 3.040-0.804 0.589 0 1.112 0.107 1.701 0.241 0.013 0.013 0.040 0.013 0.054 0.013 0.080 0 0.188-0.094 0.188-0.174zM20.571 5.571v12.857c0 2.129-1.728 3.857-3.857 3.857h-12.857c-2.129 0-3.857-1.728-3.857-3.857v-12.857c0-2.129 1.728-3.857 3.857-3.857h12.857c2.129 0 3.857 1.728 3.857 3.857z"></path>
</svg>
