<!-- Generated by IcoMoon.io -->
<svg version="1.1" xmlns="http://www.w3.org/2000/svg" width="24" height="24" viewBox="0 0 24 24">
<path d="M5.906 9c0.268 0 0.536 0.134 0.696 0.348 2.344 3.201 3.978 6.629 4.848 10.366h-5.973c-1.071-3.723-2.652-7.125-4.915-10.031-0.214-0.281 0-0.683 0.348-0.683h4.996zM13.393 13.781c-0.442 1.808-1.004 3.563-1.674 5.263-0.71-2.799-1.848-5.424-3.429-7.955 0.348-1.942 0.549-3.938 0.589-6.013 1.888 3.040 3.388 5.933 4.513 8.705zM14.719 4.286c4.004 5.518 6.978 12.321 7.621 19.714h-6.040c-0.442-7.152-3.737-13.929-7.406-19.714h5.826zM24 12c0 3.723-0.509 7.634-1.353 10.875-0.589-4.955-2.223-9.884-4.808-14.504-0.228-2.705-0.71-5.33-1.42-7.821-0.067-0.281 0.134-0.549 0.415-0.549h4.808c0.375 0 0.723 0.254 0.817 0.616 1.018 3.616 1.54 7.446 1.54 11.384z"></path>
</svg>
