<!-- Generated by IcoMoon.io -->
<svg version="1.1" xmlns="http://www.w3.org/2000/svg" width="21" height="24" viewBox="0 0 21 24">
<path d="M12.281 12.121c0-0.335-0.040-0.603-0.080-0.857h-4.848v1.768h2.906c-0.107 0.75-0.871 2.21-2.906 2.21-1.768 0-3.201-1.446-3.201-3.241s1.433-3.241 3.201-3.241c0.991 0 1.661 0.415 2.049 0.79l1.393-1.353c-0.897-0.83-2.063-1.339-3.442-1.339-2.853 0-5.143 2.304-5.143 5.143s2.29 5.143 5.143 5.143c2.96 0 4.929-2.089 4.929-5.022zM16.902 12.737h1.46v-1.473h-1.46v-1.473h-1.473v1.473h-1.473v1.473h1.473v1.473h1.473v-1.473zM20.571 5.571v12.857c0 2.129-1.728 3.857-3.857 3.857h-12.857c-2.129 0-3.857-1.728-3.857-3.857v-12.857c0-2.129 1.728-3.857 3.857-3.857h12.857c2.129 0 3.857 1.728 3.857 3.857z"></path>
</svg>
