<!-- Generated by IcoMoon.io -->
<svg version="1.1" xmlns="http://www.w3.org/2000/svg" width="21" height="24" viewBox="0 0 21 24">
<path d="M12.281 12.121c0-0.295-0.027-0.576-0.080-0.857h-4.848v1.768h2.906c-0.214 1.42-1.554 2.21-2.906 2.21-1.781 0-3.201-1.473-3.201-3.241s1.42-3.241 3.201-3.241c0.75 0 1.5 0.254 2.049 0.79l1.393-1.353c-0.951-0.884-2.143-1.339-3.442-1.339-2.853 0-5.143 2.304-5.143 5.143s2.29 5.143 5.143 5.143c2.96 0 4.929-2.089 4.929-5.022zM16.902 12.737h1.46v-1.473h-1.46v-1.473h-1.473v1.473h-1.473v1.473h1.473v1.473h1.473v-1.473zM20.571 12c0 5.679-4.607 10.286-10.286 10.286s-10.286-4.607-10.286-10.286 4.607-10.286 10.286-10.286 10.286 4.607 10.286 10.286z"></path>
</svg>
