<!-- Generated by IcoMoon.io -->
<svg version="1.1" xmlns="http://www.w3.org/2000/svg" width="31" height="24" viewBox="0 0 31 24">
<path d="M23.759 11.196l0.241 4.232c0.107 1.888-3.844 3.429-8.571 3.429s-8.679-1.54-8.571-3.429l0.241-4.232 7.687 2.424c0.214 0.067 0.429 0.094 0.643 0.094s0.429-0.027 0.643-0.094zM30.857 6.857c0 0.188-0.121 0.348-0.295 0.415l-15 4.714c-0.054 0.013-0.094 0.013-0.134 0.013s-0.080 0-0.134-0.013l-8.732-2.759c-0.763 0.603-1.299 2.076-1.406 3.884 0.509 0.295 0.844 0.83 0.844 1.46 0 0.603-0.308 1.125-0.777 1.433l0.777 5.799c0.013 0.121-0.027 0.241-0.107 0.335s-0.201 0.147-0.321 0.147h-2.571c-0.121 0-0.241-0.054-0.321-0.147s-0.121-0.214-0.107-0.335l0.777-5.799c-0.469-0.308-0.777-0.83-0.777-1.433 0-0.643 0.362-1.192 0.871-1.487 0.080-1.567 0.482-3.254 1.313-4.42l-4.46-1.393c-0.174-0.067-0.295-0.228-0.295-0.415s0.121-0.348 0.295-0.415l15-4.714c0.054-0.013 0.094-0.013 0.134-0.013s0.080 0 0.134 0.013l15 4.714c0.174 0.067 0.295 0.228 0.295 0.415z"></path>
</svg>
