<!-- Generated by IcoMoon.io -->
<svg version="1.1" xmlns="http://www.w3.org/2000/svg" width="24" height="24" viewBox="0 0 24 24">
<path d="M17.29 6.375c-0.429-0.482-1.125 0.335-0.75 0.777 0.362 0.442 1.554 0.121 0.75-0.777zM11.987 9.67c-0.147 0.147-0.375 0.147-0.509 0-0.147-0.134-0.147-0.362 0-0.496 0.134-0.147 0.362-0.147 0.509 0 0.134 0.134 0.134 0.362 0 0.496zM14.196 10.661l-0.469 0.469c-0.214 0.228-0.576 0.228-0.804 0l-0.509-0.509c-0.214-0.228-0.214-0.576 0-0.804l0.469-0.469c0.214-0.214 0.576-0.214 0.804 0l0.509 0.522c0.214 0.214 0.214 0.576 0 0.79zM12.737 8.92c-0.134 0.134-0.362 0.134-0.509 0-0.134-0.147-0.134-0.375 0-0.509 0.147-0.147 0.375-0.147 0.509 0 0.147 0.134 0.147 0.362 0 0.509zM18.134 7.607c-0.603 1.138-2.183 1.607-3.147 0.924-0.964-0.696-1.634-2.089-0.576-3.295 1.045-1.205 1.969-0.83 2.893 0.040 0.576 0.549 1.42 1.205 0.83 2.33zM20.826 14.063c0.121-0.777-0.991-0.804-1.232-1.246-0.656-1.165-1.339-1.781-2.638-1.473 0.563-0.388 1.138-0.295 1.138-0.295 0.013-0.308 0-0.629-0.455-1.205 0.188-0.603 0.013-1.085 0.013-1.085 0.75-0.415 1.299-1.179 1.406-2.089 0.174-1.5-0.911-2.866-2.411-3.040-1.071-0.121-2.116 0.375-2.625 1.246-1.125 1.942 0.067 3.429 1.085 3.937-0.696-0.067-1.661-0.576-1.942-1.661-0.321-1.246 0.134-2.411 0.429-2.973 0 0-0.214-0.281-0.388-0.429 0 0-0.67 0-1.192 0.254 0.576-0.737 1.219-0.696 1.219-0.696 0-0.308-0.027-0.723-0.174-1.045-0.268-0.549-1.205-0.629-1.567 0.201 0.013-0.040 0.027-0.067 0.054-0.094-0.241 0.576-0.054 2.705 0.817 4.219-0.121 0.067-0.442 0.295-0.629 0.482-1.045 0.469-2.719 2.92-2.719 2.92-1.366 0.522-3.75 2.464-3.429 3.857v0c0.013 0.147 0.067 0.268 0.147 0.362-0.134 0.107-0.268 0.241-0.402 0.402-0.576 0.67-0.254 1.701 0.857 1.179 0.763-0.348 1.446-0.978 1.768-1.473 0 0-0.281-0.241-0.804-0.214 1.339-0.321 1.674-0.455 2.25-0.442 0.388 0.188 0.388-1.661 0.388-1.661 0-0.71-0.107-1.5-0.536-2.009 0.603 0.589 1.406 1.58 1.353 2.933-0.040 0.884-0.737 1.112-0.737 1.112-0.442 0.804-2.089 3.188-1.473 5.129 0 0-0.469-0.723-0.496-1.071-0.844 0.938-2.263 2.531-1.205 3.121 1.286 0.71 5.277-4.286 6.121-6.884 1.674-1.004 2.679-2.29 3.094-3.147 1.071 2.129 4.634 4.594 4.915 2.879zM24.027 12c0 6.629-5.384 12-12.013 12s-12.013-5.371-12.013-12 5.384-12 12.013-12 12.013 5.371 12.013 12z"></path>
</svg>
