<!-- Generated by IcoMoon.io -->
<svg version="1.1" xmlns="http://www.w3.org/2000/svg" width="26" height="24" viewBox="0 0 26 24">
<path d="M7.942 12c-1.393 0.040-2.652 0.643-3.549 1.714h-1.795c-1.339 0-2.598-0.643-2.598-2.129 0-1.085-0.040-4.728 1.661-4.728 0.281 0 1.674 1.138 3.482 1.138 0.616 0 1.205-0.107 1.781-0.308-0.040 0.295-0.067 0.589-0.067 0.884 0 1.219 0.388 2.424 1.085 3.429zM22.286 20.531c0 2.17-1.433 3.469-3.576 3.469h-11.705c-2.143 0-3.576-1.299-3.576-3.469 0-3.027 0.71-7.674 4.634-7.674 0.455 0 2.116 1.862 4.795 1.862s4.339-1.862 4.795-1.862c3.924 0 4.634 4.647 4.634 7.674zM8.571 3.429c0 1.888-1.54 3.429-3.429 3.429s-3.429-1.54-3.429-3.429 1.54-3.429 3.429-3.429 3.429 1.54 3.429 3.429zM18 8.571c0 2.839-2.304 5.143-5.143 5.143s-5.143-2.304-5.143-5.143 2.304-5.143 5.143-5.143 5.143 2.304 5.143 5.143zM25.714 11.585c0 1.487-1.259 2.129-2.598 2.129h-1.795c-0.897-1.071-2.156-1.674-3.549-1.714 0.696-1.004 1.085-2.21 1.085-3.429 0-0.295-0.027-0.589-0.067-0.884 0.576 0.201 1.165 0.308 1.781 0.308 1.808 0 3.201-1.138 3.482-1.138 1.701 0 1.661 3.643 1.661 4.728zM24 3.429c0 1.888-1.54 3.429-3.429 3.429s-3.429-1.54-3.429-3.429 1.54-3.429 3.429-3.429 3.429 1.54 3.429 3.429z"></path>
</svg>
