<!-- Generated by IcoMoon.io -->
<svg version="1.1" xmlns="http://www.w3.org/2000/svg" width="21" height="24" viewBox="0 0 21 24">
<path d="M17.143 18v-12c0-0.469-0.388-0.857-0.857-0.857h-1.714c-0.469 0-0.857 0.388-0.857 0.857v4.286h-6.857v-4.286c0-0.469-0.388-0.857-0.857-0.857h-1.714c-0.469 0-0.857 0.388-0.857 0.857v12c0 0.469 0.388 0.857 0.857 0.857h1.714c0.469 0 0.857-0.388 0.857-0.857v-4.286h6.857v4.286c0 0.469 0.388 0.857 0.857 0.857h1.714c0.469 0 0.857-0.388 0.857-0.857zM20.571 5.571v12.857c0 2.129-1.728 3.857-3.857 3.857h-12.857c-2.129 0-3.857-1.728-3.857-3.857v-12.857c0-2.129 1.728-3.857 3.857-3.857h12.857c2.129 0 3.857 1.728 3.857 3.857z"></path>
</svg>
