<!-- Generated by IcoMoon.io -->
<svg version="1.1" xmlns="http://www.w3.org/2000/svg" width="24" height="24" viewBox="0 0 24 24">
<path d="M14.371 22.286h-2.371c-1.393 0-2.451-0.603-3.027-1.888-0.201-0.429-0.308-0.897-0.308-1.366v-0.067c-1.098-0.536-1.808-1.661-1.808-2.893 0-0.147 0-0.509 0.067-0.643h-3.496c-1.888 0-3.429-1.54-3.429-3.429s1.54-3.429 3.429-3.429h1.513l-0.589-0.228c-1.326-0.496-2.21-1.781-2.21-3.201 0-1.888 1.54-3.429 3.429-3.429 0.415 0 0.83 0.080 1.219 0.228l8.411 3.201h5.371c1.888 0 3.429 1.54 3.429 3.429v8.946c0 1.58-1.071 2.946-2.598 3.321l-4.54 1.138c-0.804 0.201-1.647 0.308-2.491 0.308zM13.714 12.763l-2.076 0.951-2.183 0.991c-0.536 0.241-0.884 0.777-0.884 1.366 0 0.83 0.67 1.5 1.5 1.5 0.214 0 0.429-0.040 0.616-0.134l4.527-2.063c-0.871-0.188-1.5-0.978-1.5-1.875v-0.737zM18 16.929c0-0.83-0.67-1.5-1.5-1.5-0.214 0-0.429 0.040-0.616 0.134l-3.884 1.768c-0.804 0.362-1.621 0.683-1.621 1.701 0 0.884 0.616 1.527 1.513 1.527 0.161 0 0.375-0.054 0.509-0.121l4.714-2.143c0.536-0.241 0.884-0.777 0.884-1.366zM14.893 6.857l-8.705-3.321c-0.201-0.067-0.402-0.107-0.616-0.107-0.938 0-1.714 0.763-1.714 1.714 0 0.71 0.442 1.353 1.098 1.607l7.045 2.679v0.857h-8.571c-0.951 0-1.714 0.763-1.714 1.714s0.763 1.714 1.714 1.714h7.165l3.121-1.42v-2.652c0-0.536 0.228-1.058 0.616-1.42l1.487-1.366h-0.924zM14.371 20.571c0.696 0 1.406-0.080 2.076-0.254l4.54-1.138c0.763-0.188 1.299-0.871 1.299-1.661v-8.946c0-0.951-0.763-1.714-1.714-1.714h-4.125l-1.821 1.688c-0.308 0.281-0.482 0.683-0.482 1.098v3.964c0 0.83 0.683 1.446 1.5 1.446 0.83 0 1.5-0.737 1.5-1.554v-2.786h0.429v2.786c0 0.603-0.295 1.165-0.763 1.527 0.938 0.147 1.621 0.964 1.621 1.902 0 0.75-0.442 1.446-1.125 1.754l-4.152 1.888h1.219z"></path>
</svg>
