<!-- Generated by IcoMoon.io -->
<svg version="1.1" xmlns="http://www.w3.org/2000/svg" width="22" height="24" viewBox="0 0 22 24">
<path d="M8.571 1.714c-0.951 0-1.714 0.763-1.714 1.714v12l-2.022-2.705c-0.335-0.442-0.871-0.723-1.433-0.723-0.938 0-1.687 0.79-1.687 1.714 0 0.375 0.121 0.737 0.348 1.031l5.143 6.857c0.321 0.429 0.83 0.683 1.366 0.683h9.616c0.388 0 0.737-0.268 0.83-0.643l1.232-4.929c0.214-0.857 0.321-1.728 0.321-2.598v-2.906c0-0.71-0.549-1.353-1.286-1.353-0.71 0-1.286 0.576-1.286 1.286h-0.429v-0.817c0-0.844-0.643-1.54-1.5-1.54-0.83 0-1.5 0.67-1.5 1.5v0.857h-0.429v-1.205c0-0.964-0.737-1.795-1.714-1.795-0.951 0-1.714 0.763-1.714 1.714v1.286h-0.429v-7.634c0-0.964-0.737-1.795-1.714-1.795zM8.571 0c1.915 0 3.429 1.607 3.429 3.509v2.946c0.147-0.013 0.281-0.027 0.429-0.027 0.871 0 1.688 0.335 2.317 0.924 0.415-0.188 0.871-0.281 1.326-0.281 0.964 0 1.862 0.429 2.464 1.165 0.254-0.067 0.496-0.094 0.75-0.094 1.688 0 3 1.406 3 3.067v2.906c0 1.004-0.121 2.022-0.375 3.013l-1.232 4.929c-0.281 1.138-1.313 1.942-2.491 1.942h-9.616c-1.071 0-2.103-0.522-2.746-1.366l-5.143-6.857c-0.442-0.589-0.683-1.326-0.683-2.063 0-1.875 1.527-3.429 3.402-3.429 0.616 0 1.219 0.161 1.741 0.469v-7.326c0-1.888 1.54-3.429 3.429-3.429zM10.286 18.857v-5.143h-0.429v5.143h0.429zM13.714 18.857v-5.143h-0.429v5.143h0.429zM17.143 18.857v-5.143h-0.429v5.143h0.429z"></path>
</svg>
