<!-- Generated by IcoMoon.io -->
<svg version="1.1" xmlns="http://www.w3.org/2000/svg" width="24" height="24" viewBox="0 0 24 24">
<path d="M18.429 18.857h0.429v-8.571h-0.429c-1.42 0-2.371-1.205-3.228-2.183-0.549-0.616-1.058-1.232-1.5-1.942-0.188-0.295-0.348-0.603-0.509-0.911s-0.83-1.821-1.192-1.821c-1.138 0-2.143 0.429-2.143 1.714 0 1.714 1.286 2.585 1.286 3.429h-7.714c-0.897 0-1.714 0.804-1.714 1.714 0 0.924 0.79 1.714 1.714 1.714h4.433c-0.281 0.321-0.469 0.951-0.469 1.379 0 0.629 0.254 1.165 0.71 1.594-0.161 0.281-0.241 0.603-0.241 0.924 0 0.616 0.308 1.379 0.871 1.687-0.040 0.241-0.054 0.496-0.054 0.75 0 1.58 0.978 2.237 2.464 2.237 2.665 0 4.942-1.714 7.286-1.714zM22.286 18c0-0.469-0.388-0.857-0.857-0.857s-0.857 0.388-0.857 0.857 0.388 0.857 0.857 0.857 0.857-0.388 0.857-0.857zM24 10.286v8.571c0 0.951-0.763 1.714-1.714 1.714h-3.857c-0.844 0-2.17 0.496-2.987 0.79-1.366 0.496-2.772 0.924-4.246 0.924-2.464 0-4.259-1.393-4.246-3.951l0.013-0.067c-0.536-0.67-0.817-1.527-0.817-2.384 0-0.188 0.013-0.388 0.040-0.576-0.281-0.496-0.455-1.031-0.496-1.594h-2.263c-1.875 0-3.429-1.567-3.429-3.442 0-1.848 1.58-3.415 3.429-3.415h5.009c-0.201-0.549-0.295-1.125-0.295-1.714 0-2.263 1.728-3.429 3.857-3.429 1.795 0 2.371 2.29 3.147 3.536 0.402 0.629 0.857 1.179 1.339 1.728 0.388 0.442 1.299 1.594 1.942 1.594h3.857c0.951 0 1.714 0.763 1.714 1.714z"></path>
</svg>
