<!-- Generated by IcoMoon.io -->
<svg version="1.1" xmlns="http://www.w3.org/2000/svg" width="24" height="24" viewBox="0 0 24 24">
<path d="M3.429 18c0-0.469-0.388-0.857-0.857-0.857s-0.857 0.388-0.857 0.857 0.388 0.857 0.857 0.857 0.857-0.388 0.857-0.857zM22.286 10.286c0-0.911-0.817-1.714-1.714-1.714h-7.714c0-0.844 1.286-1.714 1.286-3.429 0-1.286-1.004-1.714-2.143-1.714-0.375 0-1.058 1.554-1.205 1.862-0.161 0.295-0.321 0.589-0.496 0.871-0.442 0.71-0.951 1.326-1.5 1.942-0.857 0.978-1.808 2.183-3.228 2.183h-0.429v8.571h0.429c2.344 0 4.634 1.714 7.232 1.714 1.5 0 2.531-0.629 2.531-2.237 0-0.254-0.027-0.509-0.067-0.75 0.563-0.308 0.871-1.071 0.871-1.688 0-0.321-0.080-0.643-0.241-0.924 0.455-0.429 0.71-0.964 0.71-1.594 0-0.429-0.188-1.058-0.469-1.379h4.433c0.924 0 1.714-0.79 1.714-1.714zM24 10.272c0 1.875-1.554 3.442-3.429 3.442h-2.263c-0.040 0.563-0.214 1.098-0.496 1.594 0.027 0.188 0.040 0.388 0.040 0.576 0 0.857-0.281 1.714-0.804 2.384 0.027 2.531-1.701 4.018-4.179 4.018-1.5 0-2.92-0.415-4.313-0.924-0.817-0.295-2.143-0.79-2.987-0.79h-3.857c-0.951 0-1.714-0.763-1.714-1.714v-8.571c0-0.951 0.763-1.714 1.714-1.714h3.857c0.643 0 1.554-1.152 1.942-1.594 0.482-0.549 0.938-1.098 1.339-1.728 0.777-1.246 1.353-3.536 3.147-3.536 2.129 0 3.857 1.165 3.857 3.429 0 0.589-0.094 1.165-0.295 1.714h5.009c1.848 0 3.429 1.567 3.429 3.415z"></path>
</svg>
