<!-- Generated by IcoMoon.io -->
<svg version="1.1" xmlns="http://www.w3.org/2000/svg" width="26" height="24" viewBox="0 0 26 24">
<path d="M6.147 24c-1.379 0-2.571-0.938-2.906-2.277l-1.353-5.371c-0.107-0.469-0.174-0.964-0.174-1.446 0-0.308 0-0.603-0.067-0.897l-1.554-6.388c-0.067-0.254-0.094-0.509-0.094-0.763 0-1.661 1.259-3.027 2.906-3.201 0.295-1.513 1.594-2.585 3.147-2.585 1.487 0 2.772 1.018 3.121 2.464l1.112 4.661 1.379-5.732c0.348-1.446 1.634-2.464 3.121-2.464 1.594 0 2.906 1.152 3.161 2.705 1.647 0.188 2.839 1.58 2.839 3.228 0 0.254-0.040 0.522-0.094 0.79l-1.647 6.857c1.071-0.804 1.848-1.58 3.254-1.58 1.862 0 3.415 1.513 3.415 3.388 0 1.125-0.549 2.17-1.433 2.839l-6.79 5.089c-0.589 0.442-1.313 0.683-2.049 0.683h-9.295zM14.786 1.714c-0.683 0-1.286 0.482-1.446 1.152l-2.196 9.134h-1.701l-1.942-8.063c-0.161-0.67-0.763-1.152-1.446-1.152-0.857 0-1.5 0.683-1.5 1.513 0 0.134 0.013 0.254 0.040 0.375l1.768 7.326h-0.348l-1.326-5.464c-0.161-0.656-0.763-1.179-1.46-1.179-0.83 0-1.513 0.67-1.513 1.5 0 0.121 0.013 0.241 0.040 0.348l1.554 6.402c0.188 0.777 0.054 1.554 0.254 2.33l1.339 5.371c0.147 0.576 0.656 0.978 1.246 0.978h9.295c0.362 0 0.723-0.121 1.018-0.348l6.79-5.076c0.455-0.348 0.75-0.897 0.75-1.473 0-0.938-0.777-1.674-1.701-1.674-0.375 0-0.737 0.121-1.031 0.348l-4.112 3.080v-3.040c0-0.107 1.728-7.205 1.862-7.781 0.027-0.121 0.054-0.254 0.054-0.388 0-0.83-0.629-1.54-1.487-1.54-0.696 0-1.299 0.482-1.46 1.152l-1.554 6.455h-0.348l2.009-8.357c0.027-0.121 0.040-0.254 0.040-0.375 0-0.844-0.616-1.554-1.487-1.554z"></path>
</svg>
