<!-- Generated by IcoMoon.io -->
<svg version="1.1" xmlns="http://www.w3.org/2000/svg" width="27" height="24" viewBox="0 0 27 24">
<path d="M15.415 0c1.085 0 2.129 0.522 2.772 1.406l7.661 10.46c1.031 1.393 1.58 3.067 1.58 4.808v4.754c0 1.42-1.152 2.571-2.571 2.571h-5.143c-1.42 0-2.571-1.152-2.571-2.571v-2.371l-3.83-1.915h-7.313c-1.42 0-2.571-1.152-2.571-2.571v-0.429c0-2.129 1.728-3.857 3.857-3.857h5.625l0.563-1.714h-9.188c-1.781 0-3.268-1.366-3.415-3.134-0.563-0.683-0.871-1.554-0.871-2.438v-0.429c0-1.42 1.152-2.571 2.571-2.571h12.844zM25.714 21.429v-4.754c0-1.353-0.442-2.705-1.246-3.804l-7.674-10.46c-0.321-0.429-0.83-0.696-1.379-0.696h-12.844c-0.469 0-0.857 0.388-0.857 0.857 0 0.71 0.013 1.205 0.482 1.781 0.174-0.549 0.67-0.924 1.232-0.924h11.143v0.429h-11.143c-0.469 0-0.857 0.388-0.857 0.857 0 0.254-0.013 0.522 0.040 0.777 0.147 0.79 0.871 1.366 1.674 1.366h9.79c0.71 0 1.286 0.576 1.286 1.286 0 0.134-0.027 0.281-0.067 0.402l-0.857 2.571c-0.174 0.522-0.67 0.884-1.219 0.884h-5.933c-1.179 0-2.143 0.964-2.143 2.143v0.429c0 0.469 0.388 0.857 0.857 0.857h7.513c0.134 0 0.268 0.027 0.388 0.094l4.246 2.116c0.429 0.228 0.71 0.67 0.71 1.152v2.638c0 0.469 0.388 0.857 0.857 0.857h5.143c0.469 0 0.857-0.388 0.857-0.857z"></path>
</svg>
