<!-- Generated by IcoMoon.io -->
<svg version="1.1" xmlns="http://www.w3.org/2000/svg" width="21" height="24" viewBox="0 0 21 24">
<path d="M17.25 8.665c0.496 0 0.991 0.094 1.433 0.308 1.286 0.576 1.888 1.634 1.888 3.027v2.371c0 0.844-0.107 1.688-0.308 2.491l-1.138 4.54c-0.375 1.527-1.741 2.598-3.321 2.598h-8.946c-1.888 0-3.429-1.54-3.429-3.429v-5.371l-3.201-8.411c-0.147-0.388-0.228-0.804-0.228-1.219 0-1.888 1.54-3.429 3.429-3.429 1.42 0 2.705 0.884 3.201 2.21l0.228 0.589v-1.513c0-1.888 1.54-3.429 3.429-3.429s3.429 1.54 3.429 3.429v3.496c0.214-0.040 0.429-0.067 0.643-0.067 1.232 0 2.357 0.71 2.893 1.808zM14.357 8.571c-0.589 0-1.125 0.348-1.366 0.884l-0.991 2.183-0.951 2.076h0.737c0.897 0 1.688 0.629 1.875 1.5l2.063-4.527c0.094-0.188 0.134-0.402 0.134-0.616 0-0.83-0.67-1.5-1.5-1.5zM17.317 10.379c-1.018 0-1.339 0.817-1.701 1.621l-1.768 3.884c-0.094 0.188-0.134 0.402-0.134 0.616 0 0.83 0.67 1.5 1.5 1.5 0.589 0 1.125-0.348 1.366-0.884l2.143-4.714c0.067-0.134 0.121-0.348 0.121-0.509 0-0.897-0.643-1.513-1.527-1.513zM1.714 5.571c0 0.214 0.040 0.415 0.107 0.616l3.321 8.705v0.924l1.366-1.487c0.362-0.388 0.884-0.616 1.42-0.616h2.652l1.42-3.121v-7.165c0-0.951-0.763-1.714-1.714-1.714s-1.714 0.763-1.714 1.714v8.571h-0.857l-2.679-7.045c-0.254-0.656-0.897-1.098-1.607-1.098-0.951 0-1.714 0.777-1.714 1.714zM15.804 22.286c0.79 0 1.473-0.536 1.661-1.299l1.138-4.54c0.174-0.67 0.254-1.379 0.254-2.076v-1.219l-1.888 4.152c-0.308 0.683-1.004 1.125-1.754 1.125-0.938 0-1.754-0.683-1.902-1.621-0.362 0.469-0.924 0.763-1.527 0.763h-2.786v-0.429h2.786c0.817 0 1.554-0.67 1.554-1.5 0-0.817-0.616-1.5-1.446-1.5h-3.964c-0.415 0-0.817 0.174-1.098 0.482l-1.688 1.821v4.125c0 0.951 0.763 1.714 1.714 1.714h8.946z"></path>
</svg>
