<!-- Generated by IcoMoon.io -->
<svg version="1.1" xmlns="http://www.w3.org/2000/svg" width="21" height="24" viewBox="0 0 21 24">
<path d="M18.857 12.857c0-2.665-1.714-4.942-1.714-7.286v-0.429h-8.571v0.429c0 1.42-1.205 2.371-2.183 3.228-0.616 0.549-1.232 1.058-1.942 1.5-0.295 0.188-0.603 0.348-0.911 0.509s-1.821 0.83-1.821 1.192c0 1.138 0.429 2.143 1.714 2.143 1.714 0 2.585-1.286 3.429-1.286v7.714c0 0.897 0.804 1.714 1.714 1.714 0.924 0 1.714-0.79 1.714-1.714v-4.433c0.348 0.268 0.938 0.469 1.379 0.469 0.629 0 1.165-0.254 1.594-0.71 0.281 0.161 0.603 0.241 0.924 0.241 0.616 0 1.379-0.308 1.688-0.871 0.241 0.040 0.496 0.054 0.75 0.054 1.58 0 2.237-0.978 2.237-2.464zM17.143 2.571c0-0.469-0.388-0.857-0.857-0.857s-0.857 0.388-0.857 0.857 0.388 0.857 0.857 0.857 0.857-0.388 0.857-0.857zM20.571 12.804c0 2.464-1.393 4.259-3.951 4.246l-0.067-0.013c-0.67 0.536-1.527 0.817-2.384 0.817-0.188 0-0.388-0.013-0.576-0.040-0.455 0.254-1.071 0.442-1.594 0.496v2.263c0 1.875-1.567 3.429-3.442 3.429-1.848 0-3.415-1.58-3.415-3.429v-5.009c-0.522 0.214-1.152 0.295-1.714 0.295-2.25 0-3.429-1.728-3.429-3.857 0-1.795 2.29-2.371 3.536-3.147 0.629-0.402 1.179-0.857 1.728-1.339 0.442-0.388 1.594-1.299 1.594-1.942v-3.857c0-0.951 0.763-1.714 1.714-1.714h8.571c0.951 0 1.714 0.763 1.714 1.714v3.857c0 0.844 0.496 2.17 0.79 2.987 0.496 1.366 0.924 2.772 0.924 4.246z"></path>
</svg>
