<!-- Generated by IcoMoon.io -->
<svg version="1.1" xmlns="http://www.w3.org/2000/svg" width="22" height="24" viewBox="0 0 22 24">
<path d="M11.786 1.714c-0.83 0-1.5 0.67-1.5 1.5v8.786h-0.429v-7.071c0-0.83-0.67-1.5-1.5-1.5s-1.5 0.67-1.5 1.5v10.5l-2.063-2.746c-0.321-0.429-0.83-0.683-1.366-0.683-0.951 0-1.714 0.777-1.714 1.714 0 0.375 0.121 0.737 0.348 1.031l5.143 6.857c0.321 0.429 0.83 0.683 1.366 0.683h9.214c0.616 0 1.152-0.442 1.272-1.045l1.018-5.424c0.040-0.254 0.067-0.522 0.067-0.79v-6.67c0-0.83-0.67-1.5-1.5-1.5s-1.5 0.67-1.5 1.5v3.643h-0.429v-7.071c0-0.83-0.67-1.5-1.5-1.5s-1.5 0.67-1.5 1.5v7.071h-0.429v-8.786c0-0.83-0.67-1.5-1.5-1.5zM11.786 0c1.205 0 2.317 0.683 2.866 1.768 0.188-0.040 0.375-0.054 0.563-0.054 1.768 0 3.214 1.446 3.214 3.214v0.228c1.862-0.107 3.429 1.326 3.429 3.201v6.67c0 0.375-0.040 0.75-0.107 1.112l-1.018 5.411c-0.254 1.42-1.5 2.451-2.946 2.451h-9.214c-1.071 0-2.103-0.522-2.746-1.366l-5.143-6.857c-0.442-0.589-0.683-1.326-0.683-2.063 0-1.888 1.527-3.429 3.429-3.429 0.563 0 1.246 0.134 1.714 0.455v-5.813c0-1.768 1.446-3.214 3.214-3.214 0.188 0 0.375 0.013 0.563 0.054 0.549-1.085 1.661-1.768 2.866-1.768z"></path>
</svg>
