<!-- Generated by IcoMoon.io -->
<svg version="1.1" xmlns="http://www.w3.org/2000/svg" width="21" height="24" viewBox="0 0 21 24">
<path d="M10.286 5.143c-0.951 0-1.714 0.763-1.714 1.714v1.714h-0.429v-1.246c0-0.844-0.643-1.54-1.5-1.54-0.83 0-1.5 0.67-1.5 1.5v5.746l-0.429-0.402v-2.304c0-0.844-0.643-1.54-1.5-1.54-0.83 0-1.5 0.67-1.5 1.5v3c0 0.415 0.174 0.804 0.469 1.098l4.152 3.964c0.388 0.388 0.522 0.83 0.522 1.366 0 0.469 0.388 0.857 0.857 0.857h8.571c0.469 0 0.857-0.388 0.857-0.857v-0.335c0-0.348 0.040-0.696 0.134-1.031l1.446-5.839c0.094-0.335 0.134-0.683 0.134-1.031v-3.295c0-0.844-0.643-1.54-1.5-1.54-0.83 0-1.5 0.67-1.5 1.5v0.429h-0.429v-1.674c0-0.71-0.482-1.366-1.192-1.513-0.094-0.013-0.201-0.027-0.308-0.027-0.83 0-1.5 0.67-1.5 1.5v1.714h-0.429v-1.634c0-0.897-0.643-1.688-1.54-1.781-0.067-0.013-0.121-0.013-0.174-0.013zM10.286 3.429c0.723 0 1.42 0.228 1.996 0.67 0.496-0.295 1.071-0.455 1.647-0.455 1.058 0 2.036 0.509 2.638 1.379 0.254-0.067 0.522-0.094 0.79-0.094 1.795 0 3.214 1.473 3.214 3.254v3.295c0 0.482-0.067 0.978-0.174 1.446l-1.46 5.839c-0.080 0.321-0.080 0.629-0.080 0.951 0 1.42-1.152 2.571-2.571 2.571h-8.571c-1.527 0-2.571-1.219-2.571-2.692l-4.125-3.964c-0.629-0.603-1.018-1.46-1.018-2.344v-3c0-1.768 1.446-3.214 3.214-3.214 0.080 0 0.147 0 0.214 0.013 0.107-1.701 1.527-3.013 3.214-3.013 0.455 0 0.897 0.094 1.313 0.281 0.629-0.603 1.46-0.924 2.33-0.924z"></path>
</svg>
