<!-- Generated by IcoMoon.io -->
<svg version="1.1" xmlns="http://www.w3.org/2000/svg" width="21" height="24" viewBox="0 0 21 24">
<path d="M17.143 21.429c0-0.469-0.388-0.857-0.857-0.857s-0.857 0.388-0.857 0.857 0.388 0.857 0.857 0.857 0.857-0.388 0.857-0.857zM18.857 11.196c0-1.513-0.616-2.531-2.237-2.531-0.254 0-0.509 0.027-0.75 0.067-0.308-0.563-1.071-0.871-1.688-0.871-0.321 0-0.643 0.080-0.924 0.241-0.429-0.455-0.964-0.71-1.594-0.71-0.429 0-1.058 0.188-1.379 0.469v-4.433c0-0.924-0.79-1.714-1.714-1.714-0.911 0-1.714 0.817-1.714 1.714v7.714c-0.844 0-1.714-1.286-3.429-1.286-1.286 0-1.714 1.004-1.714 2.143 0 0.375 1.554 1.058 1.862 1.205 0.295 0.161 0.589 0.321 0.871 0.496 0.71 0.442 1.326 0.951 1.942 1.5 0.978 0.857 2.183 1.808 2.183 3.228v0.429h8.571v-0.429c0-2.344 1.714-4.634 1.714-7.232zM20.571 11.129c0 1.5-0.415 2.92-0.924 4.312-0.295 0.817-0.79 2.143-0.79 2.987v3.857c0 0.951-0.763 1.714-1.714 1.714h-8.571c-0.951 0-1.714-0.763-1.714-1.714v-3.857c0-0.643-1.152-1.554-1.594-1.942-0.549-0.482-1.098-0.938-1.728-1.339-1.246-0.777-3.536-1.353-3.536-3.147 0-2.129 1.165-3.857 3.429-3.857 0.589 0 1.165 0.094 1.714 0.295v-5.009c0-1.848 1.567-3.429 3.415-3.429 1.875 0 3.442 1.554 3.442 3.429v2.263c0.563 0.040 1.098 0.214 1.594 0.496 0.188-0.027 0.388-0.040 0.576-0.040 0.857 0 1.714 0.281 2.384 0.804 2.531-0.027 4.018 1.701 4.018 4.179z"></path>
</svg>
