<!-- Generated by IcoMoon.io -->
<svg version="1.1" xmlns="http://www.w3.org/2000/svg" width="31" height="24" viewBox="0 0 31 24">
<path d="M2.571 15.429c1.125 0 1.125-1.714 0-1.714s-1.125 1.714 0 1.714zM22.299 14.652c-1.058-1.379-2.089-2.786-3.295-4.045l-1.674 1.875c-1.473 1.674-4.112 1.634-5.545-0.080-1.018-1.232-1.018-3 0.027-4.219l2.371-2.759c-0.83-0.429-1.835-0.281-2.732-0.281-0.79 0-1.554 0.321-2.116 0.884l-2.116 2.116h-2.076v7.286c0.589 0 1.125-0.080 1.594 0.375l3.978 3.911c0.817 0.79 1.875 1.487 3.040 1.487 0.603 0 1.246-0.201 1.674-0.629 1.004 0.348 2.17-0.214 2.478-1.246 0.643 0.054 1.232-0.147 1.701-0.589 0.308-0.281 0.71-0.844 0.67-1.286 0.121 0.121 0.415 0.134 0.576 0.134 1.594 0 2.424-1.674 1.446-2.933zM24.429 15.429h1.286v-6.857h-1.246l-2.103-2.411c-0.563-0.643-1.406-1.018-2.263-1.018h-2.237c-0.75 0-1.473 0.335-1.955 0.897l-2.799 3.254c-0.496 0.589-0.496 1.42-0.013 2.009 0.763 0.911 2.17 0.924 2.96 0.040l2.585-2.92c0.616-0.683 1.741-0.040 1.46 0.83 0.509 0.589 1.058 1.165 1.554 1.754 0.67 0.83 1.313 1.701 1.969 2.545 0.415 0.536 0.723 1.179 0.804 1.875zM28.286 15.429c1.125 0 1.125-1.714 0-1.714s-1.125 1.714 0 1.714zM30.857 7.714v8.571c0 0.469-0.388 0.857-0.857 0.857h-5.813c-0.482 1.165-1.54 1.942-2.772 2.116-0.576 0.844-1.46 1.487-2.451 1.701-0.737 0.938-1.929 1.5-3.121 1.42-2.21 1.246-4.701 0.161-6.348-1.46l-3.844-3.777h-4.795c-0.469 0-0.857-0.388-0.857-0.857v-9c0-0.469 0.388-0.857 0.857-0.857h5.638c1.554-1.554 2.625-3 4.955-3h1.567c0.871 0 1.714 0.268 2.424 0.75 0.71-0.482 1.554-0.75 2.424-0.75h2.237c2.545 0 3.603 1.661 5.143 3.429h4.754c0.469 0 0.857 0.388 0.857 0.857z"></path>
</svg>
