<!-- Generated by IcoMoon.io -->
<svg version="1.1" xmlns="http://www.w3.org/2000/svg" width="21" height="24" viewBox="0 0 21 24">
<path d="M13.929 16.286c0 0.589-0.482 1.071-1.071 1.071s-1.071-0.482-1.071-1.071 0.482-1.071 1.071-1.071 1.071 0.482 1.071 1.071zM17.357 16.286c0 0.589-0.482 1.071-1.071 1.071s-1.071-0.482-1.071-1.071 0.482-1.071 1.071-1.071 1.071 0.482 1.071 1.071zM18.857 18.429v-4.286c0-0.228-0.201-0.429-0.429-0.429h-16.286c-0.228 0-0.429 0.201-0.429 0.429v4.286c0 0.228 0.201 0.429 0.429 0.429h16.286c0.228 0 0.429-0.201 0.429-0.429zM2.384 12h15.804l-2.103-6.455c-0.067-0.228-0.321-0.402-0.563-0.402h-10.473c-0.241 0-0.496 0.174-0.563 0.402zM20.571 14.143v4.286c0 1.179-0.964 2.143-2.143 2.143h-16.286c-1.179 0-2.143-0.964-2.143-2.143v-4.286c0-0.362 0.107-0.67 0.214-1.004l2.638-8.116c0.308-0.938 1.205-1.594 2.196-1.594h10.473c0.991 0 1.888 0.656 2.196 1.594l2.638 8.116c0.107 0.335 0.214 0.643 0.214 1.004z"></path>
</svg>
