<!-- Generated by IcoMoon.io -->
<svg version="1.1" xmlns="http://www.w3.org/2000/svg" width="24" height="24" viewBox="0 0 24 24">
<path d="M22.527 22.286c-1.179 0-2.371-0.094-3.563-0.094-1.179 0-2.357 0.094-3.536 0.094-0.455 0-0.67-0.496-0.67-0.884 0-1.192 1.339-0.683 2.036-1.138 0.442-0.281 0.442-1.406 0.442-1.875l-0.013-5.237c0-0.147 0-0.281-0.013-0.415-0.214-0.067-0.455-0.054-0.67-0.054h-9.040c-0.228 0-0.469-0.013-0.683 0.054-0.013 0.134-0.013 0.268-0.013 0.415l-0.013 4.969c0 0.509 0 1.902 0.496 2.196 0.696 0.429 2.277-0.174 2.277 1.031 0 0.402-0.188 0.938-0.656 0.938-1.246 0-2.491-0.094-3.723-0.094-1.138 0-2.277 0.094-3.415 0.094-0.442 0-0.643-0.509-0.643-0.884 0-1.165 1.232-0.683 1.888-1.138 0.429-0.295 0.442-1.446 0.442-1.915l-0.013-0.763v-10.888c0-0.643 0.094-2.705-0.509-3.067-0.67-0.415-2.103 0.228-2.103-0.978 0-0.388 0.174-0.938 0.643-0.938 1.232 0 2.478 0.094 3.71 0.094 1.125 0 2.263-0.094 3.388-0.094 0.482 0 0.67 0.536 0.67 0.938 0 1.152-1.326 0.589-1.982 1.004-0.469 0.281-0.469 1.661-0.469 2.143l0.013 4.286c0 0.147 0 0.281 0.013 0.429 0.174 0.040 0.348 0.040 0.522 0.040h9.362c0.161 0 0.335 0 0.509-0.040 0.013-0.147 0.013-0.281 0.013-0.429l0.013-4.286c0-0.496 0-1.862-0.469-2.143-0.67-0.402-2.009 0.134-2.009-1.004 0-0.402 0.188-0.938 0.67-0.938 1.179 0 2.357 0.094 3.536 0.094 1.152 0 2.304-0.094 3.455-0.094 0.482 0 0.67 0.536 0.67 0.938 0 1.165-1.379 0.576-2.049 0.991-0.455 0.295-0.469 1.674-0.469 2.156l0.013 12.629c0 0.442 0.027 1.607 0.455 1.875 0.683 0.429 2.129-0.121 2.129 1.045 0 0.388-0.174 0.938-0.643 0.938z"></path>
</svg>
