<!-- Generated by IcoMoon.io -->
<svg version="1.1" xmlns="http://www.w3.org/2000/svg" width="24" height="24" viewBox="0 0 24 24">
<path d="M17.143 13.714h4.085c-0.161 0.174-0.268 0.268-0.295 0.295l-8.344 8.036c-0.161 0.161-0.375 0.241-0.589 0.241s-0.429-0.080-0.589-0.241l-8.357-8.063c-0.027-0.013-0.134-0.107-0.281-0.268h4.942c0.388 0 0.737-0.268 0.83-0.643l0.938-3.763 2.545 8.933c0.107 0.362 0.442 0.616 0.83 0.616v0c0.375 0 0.71-0.254 0.817-0.616l1.955-6.496 0.75 1.5c0.147 0.281 0.442 0.469 0.763 0.469zM24 7.982c0 1.54-0.67 2.946-1.379 4.018h-4.942l-1.487-2.96c-0.147-0.308-0.496-0.496-0.83-0.469-0.362 0.040-0.656 0.268-0.75 0.616l-1.728 5.759-2.625-9.188c-0.107-0.362-0.442-0.616-0.844-0.616-0.388 0-0.723 0.268-0.817 0.643l-1.554 6.214h-5.665c-0.71-1.071-1.379-2.478-1.379-4.018 0-3.924 2.397-6.268 6.402-6.268 2.344 0 4.54 1.848 5.598 2.893 1.058-1.045 3.254-2.893 5.598-2.893 4.004 0 6.402 2.344 6.402 6.268z"></path>
</svg>
