<!-- Generated by IcoMoon.io -->
<svg version="1.1" xmlns="http://www.w3.org/2000/svg" width="24" height="24" viewBox="0 0 24 24">
<path d="M22.286 7.982c0-3.763-2.545-4.554-4.688-4.554-1.996 0-4.246 2.156-4.942 2.987-0.321 0.388-0.991 0.388-1.313 0-0.696-0.83-2.946-2.987-4.942-2.987-2.143 0-4.688 0.79-4.688 4.554 0 2.451 2.478 4.728 2.504 4.754l7.781 7.5 7.768-7.487c0.040-0.040 2.518-2.317 2.518-4.768zM24 7.982c0 3.214-2.946 5.906-3.067 6.027l-8.344 8.036c-0.161 0.161-0.375 0.241-0.589 0.241s-0.429-0.080-0.589-0.241l-8.357-8.063c-0.107-0.094-3.054-2.786-3.054-6 0-3.924 2.397-6.268 6.402-6.268 2.344 0 4.54 1.848 5.598 2.893 1.058-1.045 3.254-2.893 5.598-2.893 4.004 0 6.402 2.344 6.402 6.268z"></path>
</svg>
