<!-- Generated by IcoMoon.io -->
<svg version="1.1" xmlns="http://www.w3.org/2000/svg" width="21" height="24" viewBox="0 0 21 24">
<path d="M20.571 12c0 5.665-4.621 10.286-10.286 10.286-3.067 0-5.96-1.353-7.915-3.71-0.134-0.174-0.121-0.429 0.027-0.576l1.835-1.848c0.094-0.080 0.214-0.121 0.335-0.121 0.121 0.013 0.241 0.067 0.308 0.161 1.313 1.701 3.281 2.665 5.411 2.665 3.777 0 6.857-3.080 6.857-6.857s-3.080-6.857-6.857-6.857c-1.754 0-3.415 0.67-4.661 1.835l1.835 1.848c0.254 0.241 0.321 0.616 0.188 0.924-0.134 0.321-0.442 0.536-0.79 0.536h-6c-0.469 0-0.857-0.388-0.857-0.857v-6c0-0.348 0.214-0.656 0.536-0.79 0.308-0.134 0.683-0.067 0.924 0.188l1.741 1.728c1.888-1.781 4.446-2.839 7.085-2.839 5.665 0 10.286 4.621 10.286 10.286zM12 8.143v6c0 0.241-0.188 0.429-0.429 0.429h-4.286c-0.241 0-0.429-0.188-0.429-0.429v-0.857c0-0.241 0.188-0.429 0.429-0.429h3v-4.714c0-0.241 0.188-0.429 0.429-0.429h0.857c0.241 0 0.429 0.188 0.429 0.429z"></path>
</svg>
