<!-- Generated by IcoMoon.io -->
<svg version="1.1" xmlns="http://www.w3.org/2000/svg" width="22" height="24" viewBox="0 0 22 24">
<path d="M18.857 13.286v6.429c0 0.469-0.388 0.857-0.857 0.857h-5.143v-5.143h-3.429v5.143h-5.143c-0.469 0-0.857-0.388-0.857-0.857v-6.429c0-0.027 0.013-0.054 0.013-0.080l7.701-6.348 7.701 6.348c0.013 0.027 0.013 0.054 0.013 0.080zM21.844 12.362l-0.83 0.991c-0.067 0.080-0.174 0.134-0.281 0.147h-0.040c-0.107 0-0.201-0.027-0.281-0.094l-9.268-7.728-9.268 7.728c-0.094 0.067-0.201 0.107-0.321 0.094-0.107-0.013-0.214-0.067-0.281-0.147l-0.83-0.991c-0.147-0.174-0.121-0.455 0.054-0.603l9.629-8.022c0.563-0.469 1.473-0.469 2.036 0l3.268 2.732v-2.612c0-0.241 0.188-0.429 0.429-0.429h2.571c0.241 0 0.429 0.188 0.429 0.429v5.464l2.933 2.438c0.174 0.147 0.201 0.429 0.054 0.603z"></path>
</svg>
