<!-- Generated by IcoMoon.io -->
<svg version="1.1" xmlns="http://www.w3.org/2000/svg" width="19" height="24" viewBox="0 0 19 24">
<path d="M5.143 17.571v0.857c0 0.228-0.201 0.429-0.429 0.429h-0.857c-0.228 0-0.429-0.201-0.429-0.429v-0.857c0-0.228 0.201-0.429 0.429-0.429h0.857c0.228 0 0.429 0.201 0.429 0.429zM5.143 14.143v0.857c0 0.228-0.201 0.429-0.429 0.429h-0.857c-0.228 0-0.429-0.201-0.429-0.429v-0.857c0-0.228 0.201-0.429 0.429-0.429h0.857c0.228 0 0.429 0.201 0.429 0.429zM8.571 14.143v0.857c0 0.228-0.201 0.429-0.429 0.429h-0.857c-0.228 0-0.429-0.201-0.429-0.429v-0.857c0-0.228 0.201-0.429 0.429-0.429h0.857c0.228 0 0.429 0.201 0.429 0.429zM5.143 10.714v0.857c0 0.228-0.201 0.429-0.429 0.429h-0.857c-0.228 0-0.429-0.201-0.429-0.429v-0.857c0-0.228 0.201-0.429 0.429-0.429h0.857c0.228 0 0.429 0.201 0.429 0.429zM15.429 17.571v0.857c0 0.228-0.201 0.429-0.429 0.429h-0.857c-0.228 0-0.429-0.201-0.429-0.429v-0.857c0-0.228 0.201-0.429 0.429-0.429h0.857c0.228 0 0.429 0.201 0.429 0.429zM12 14.143v0.857c0 0.228-0.201 0.429-0.429 0.429h-0.857c-0.228 0-0.429-0.201-0.429-0.429v-0.857c0-0.228 0.201-0.429 0.429-0.429h0.857c0.228 0 0.429 0.201 0.429 0.429zM8.571 10.714v0.857c0 0.228-0.201 0.429-0.429 0.429h-0.857c-0.228 0-0.429-0.201-0.429-0.429v-0.857c0-0.228 0.201-0.429 0.429-0.429h0.857c0.228 0 0.429 0.201 0.429 0.429zM15.429 14.143v0.857c0 0.228-0.201 0.429-0.429 0.429h-0.857c-0.228 0-0.429-0.201-0.429-0.429v-0.857c0-0.228 0.201-0.429 0.429-0.429h0.857c0.228 0 0.429 0.201 0.429 0.429zM12 10.714v0.857c0 0.228-0.201 0.429-0.429 0.429h-0.857c-0.228 0-0.429-0.201-0.429-0.429v-0.857c0-0.228 0.201-0.429 0.429-0.429h0.857c0.228 0 0.429 0.201 0.429 0.429zM15.429 10.714v0.857c0 0.228-0.201 0.429-0.429 0.429h-0.857c-0.228 0-0.429-0.201-0.429-0.429v-0.857c0-0.228 0.201-0.429 0.429-0.429h0.857c0.228 0 0.429 0.201 0.429 0.429zM12 22.286h5.143v-15.429h-3.429v0.429c0 0.71-0.576 1.286-1.286 1.286h-6c-0.71 0-1.286-0.576-1.286-1.286v-0.429h-3.429v15.429h5.143v-3c0-0.228 0.201-0.429 0.429-0.429h4.286c0.228 0 0.429 0.201 0.429 0.429v3zM12 6.429v-4.286c0-0.228-0.201-0.429-0.429-0.429h-0.857c-0.228 0-0.429 0.201-0.429 0.429v1.286h-1.714v-1.286c0-0.228-0.201-0.429-0.429-0.429h-0.857c-0.228 0-0.429 0.201-0.429 0.429v4.286c0 0.228 0.201 0.429 0.429 0.429h0.857c0.228 0 0.429-0.201 0.429-0.429v-1.286h1.714v1.286c0 0.228 0.201 0.429 0.429 0.429h0.857c0.228 0 0.429-0.201 0.429-0.429zM18.857 6v17.143c0 0.469-0.388 0.857-0.857 0.857h-17.143c-0.469 0-0.857-0.388-0.857-0.857v-17.143c0-0.469 0.388-0.857 0.857-0.857h4.286v-3.857c0-0.71 0.576-1.286 1.286-1.286h6c0.71 0 1.286 0.576 1.286 1.286v3.857h4.286c0.469 0 0.857 0.388 0.857 0.857z"></path>
</svg>
