<!-- Generated by IcoMoon.io -->
<svg version="1.1" xmlns="http://www.w3.org/2000/svg" width="21" height="24" viewBox="0 0 21 24">
<path d="M20.143 21.429c0.241 0 0.429 0.188 0.429 0.429v1.714c0 0.241-0.188 0.429-0.429 0.429h-19.714c-0.241 0-0.429-0.188-0.429-0.429v-1.714c0-0.241 0.188-0.429 0.429-0.429h19.714zM1.741 20.571c0.254-4.513 3.937-6.938 6.402-8.571-2.464-1.634-6.147-4.058-6.402-8.571h17.089c-0.254 4.513-3.938 6.938-6.402 8.571 2.464 1.634 6.147 4.058 6.402 8.571h-17.089zM20.143 0c0.241 0 0.429 0.188 0.429 0.429v1.714c0 0.241-0.188 0.429-0.429 0.429h-19.714c-0.241 0-0.429-0.188-0.429-0.429v-1.714c0-0.241 0.188-0.429 0.429-0.429h19.714z"></path>
</svg>
