<!-- Generated by IcoMoon.io -->
<svg version="1.1" xmlns="http://www.w3.org/2000/svg" width="21" height="24" viewBox="0 0 21 24">
<path d="M18.857 1.714c0 4.955-2.371 8.545-4.996 10.286 2.625 1.741 4.996 5.33 4.996 10.286h1.286c0.241 0 0.429 0.188 0.429 0.429v0.857c0 0.241-0.188 0.429-0.429 0.429h-19.714c-0.241 0-0.429-0.188-0.429-0.429v-0.857c0-0.241 0.188-0.429 0.429-0.429h1.286c0-4.955 2.371-8.545 4.996-10.286-2.625-1.741-4.996-5.33-4.996-10.286h-1.286c-0.241 0-0.429-0.188-0.429-0.429v-0.857c0-0.241 0.188-0.429 0.429-0.429h19.714c0.241 0 0.429 0.188 0.429 0.429v0.857c0 0.241-0.188 0.429-0.429 0.429h-1.286zM17.143 1.714h-13.714c0 1.955 0.442 3.683 1.138 5.143h11.438c0.696-1.46 1.138-3.188 1.138-5.143zM16.379 18c-0.991-2.585-2.772-4.42-4.554-5.143h-3.080c-1.781 0.723-3.563 2.558-4.554 5.143h12.188z"></path>
</svg>
