<!-- Generated by IcoMoon.io -->
<svg version="1.1" xmlns="http://www.w3.org/2000/svg" width="21" height="24" viewBox="0 0 21 24">
<path d="M18.857 1.714c0 4.955-2.371 8.545-4.996 10.286 2.625 1.741 4.996 5.33 4.996 10.286h1.286c0.241 0 0.429 0.188 0.429 0.429v0.857c0 0.241-0.188 0.429-0.429 0.429h-19.714c-0.241 0-0.429-0.188-0.429-0.429v-0.857c0-0.241 0.188-0.429 0.429-0.429h1.286c0-4.955 2.371-8.545 4.996-10.286-2.625-1.741-4.996-5.33-4.996-10.286h-1.286c-0.241 0-0.429-0.188-0.429-0.429v-0.857c0-0.241 0.188-0.429 0.429-0.429h19.714c0.241 0 0.429 0.188 0.429 0.429v0.857c0 0.241-0.188 0.429-0.429 0.429h-1.286zM11.705 11.196c2.705-1.018 5.438-4.594 5.438-9.482h-13.714c0 4.888 2.732 8.464 5.437 9.482 0.335 0.121 0.563 0.442 0.563 0.804s-0.228 0.683-0.563 0.804c-2.705 1.018-5.437 4.594-5.437 9.482h13.714c0-4.888-2.732-8.464-5.438-9.482-0.335-0.121-0.563-0.442-0.563-0.804s0.228-0.683 0.563-0.804z"></path>
</svg>
