<!-- Generated by IcoMoon.io -->
<svg version="1.1" xmlns="http://www.w3.org/2000/svg" width="21" height="24" viewBox="0 0 21 24">
<path d="M18.857 1.714c0 4.955-2.371 8.545-4.996 10.286 2.625 1.741 4.996 5.33 4.996 10.286h1.286c0.241 0 0.429 0.188 0.429 0.429v0.857c0 0.241-0.188 0.429-0.429 0.429h-19.714c-0.241 0-0.429-0.188-0.429-0.429v-0.857c0-0.241 0.188-0.429 0.429-0.429h1.286c0-4.955 2.371-8.545 4.996-10.286-2.625-1.741-4.996-5.33-4.996-10.286h-1.286c-0.241 0-0.429-0.188-0.429-0.429v-0.857c0-0.241 0.188-0.429 0.429-0.429h19.714c0.241 0 0.429 0.188 0.429 0.429v0.857c0 0.241-0.188 0.429-0.429 0.429h-1.286zM17.143 1.714h-13.714c0 0.589 0.040 1.165 0.121 1.714h13.473c0.080-0.549 0.121-1.125 0.121-1.714zM17.143 22.286c0-4.808-2.652-8.357-5.317-9.429h-3.080c-2.665 1.071-5.317 4.621-5.317 9.429h13.714z"></path>
</svg>
