<!-- Generated by IcoMoon.io -->
<svg version="1.1" xmlns="http://www.w3.org/2000/svg" width="18" height="24" viewBox="0 0 18 24">
<path d="M13.286 8.357v6.643c0 0.241-0.188 0.429-0.429 0.429h-2.143c-0.241 0-0.429-0.188-0.429-0.429v-6.643c0-2.009-1.634-3.643-3.643-3.643h-3.643v15.429c0 0.241-0.188 0.429-0.429 0.429h-2.143c-0.241 0-0.429-0.188-0.429-0.429v-18c0-0.241 0.188-0.429 0.429-0.429h6.214c3.67 0 6.643 2.973 6.643 6.643zM18.429 2.143v11.786c0 3.67-2.973 6.643-6.643 6.643h-6.214c-0.241 0-0.429-0.188-0.429-0.429v-12.857c0-0.241 0.188-0.429 0.429-0.429h2.143c0.241 0 0.429 0.188 0.429 0.429v10.286h3.643c2.009 0 3.643-1.634 3.643-3.643v-11.786c0-0.241 0.188-0.429 0.429-0.429h2.143c0.241 0 0.429 0.188 0.429 0.429z"></path>
</svg>
