<!-- Generated by IcoMoon.io -->
<svg version="1.1" xmlns="http://www.w3.org/2000/svg" width="26" height="24" viewBox="0 0 26 24">
<path d="M8.571 7.714c0 1.42-1.152 2.571-2.571 2.571s-2.571-1.152-2.571-2.571 1.152-2.571 2.571-2.571 2.571 1.152 2.571 2.571zM22.286 12.857v6h-18.857v-2.571l4.286-4.286 2.143 2.143 6.857-6.857zM23.571 3.429h-21.429c-0.228 0-0.429 0.201-0.429 0.429v16.286c0 0.228 0.201 0.429 0.429 0.429h21.429c0.228 0 0.429-0.201 0.429-0.429v-16.286c0-0.228-0.201-0.429-0.429-0.429zM25.714 3.857v16.286c0 1.179-0.964 2.143-2.143 2.143h-21.429c-1.179 0-2.143-0.964-2.143-2.143v-16.286c0-1.179 0.964-2.143 2.143-2.143h21.429c1.179 0 2.143 0.964 2.143 2.143z"></path>
</svg>
