<!-- Generated by IcoMoon.io -->
<svg version="1.1" xmlns="http://www.w3.org/2000/svg" width="21" height="24" viewBox="0 0 21 24">
<path d="M12.348 10.674v2.438c0 0.482 0.094 0.924-0.509 0.911v-4.138c0.589 0 0.509 0.308 0.509 0.79zM16.58 11.96v1.621c0 0.268 0.080 0.71-0.308 0.71-0.080 0-0.147-0.040-0.188-0.121-0.107-0.254-0.054-2.183-0.054-2.21 0-0.188-0.054-0.629 0.241-0.629 0.362 0 0.308 0.362 0.308 0.629zM2.411 15.121h1.634v-6.321h-1.634v6.321zM8.223 15.121h1.42v-6.321h-2.129l-0.375 2.96c-0.134-0.991-0.268-1.982-0.429-2.96h-2.116v6.321h1.433v-4.179l0.603 4.179h1.018l0.576-4.272v4.272zM13.915 11.036c0-0.402 0.013-0.83-0.067-1.205-0.214-1.112-1.554-1.031-2.424-1.031h-1.219v6.321c4.259 0 3.71 0.295 3.71-4.085zM18.161 13.674v-1.781c0-0.857-0.040-1.487-1.098-1.487-0.442 0-0.737 0.134-1.031 0.455v-2.063h-1.567v6.321h1.473l0.094-0.402c0.281 0.335 0.589 0.482 1.031 0.482 0.978 0 1.098-0.75 1.098-1.527zM20.571 3.857v16.286c0 1.179-0.964 2.143-2.143 2.143h-16.286c-1.179 0-2.143-0.964-2.143-2.143v-16.286c0-1.179 0.964-2.143 2.143-2.143h16.286c1.179 0 2.143 0.964 2.143 2.143z"></path>
</svg>
