<!-- Generated by IcoMoon.io -->
<svg version="1.1" xmlns="http://www.w3.org/2000/svg" width="21" height="24" viewBox="0 0 21 24">
<path d="M13.701 12.857h4.232c-0.027-0.067-0.040-0.147-0.067-0.214l-2.839-6.643h-9.482l-2.839 6.643c-0.027 0.067-0.040 0.147-0.067 0.214h4.232l1.272 2.571h4.286zM20.571 13.259v6.455c0 0.469-0.388 0.857-0.857 0.857h-18.857c-0.469 0-0.857-0.388-0.857-0.857v-6.455c0-0.482 0.147-1.192 0.335-1.647l3.188-7.393c0.188-0.442 0.723-0.79 1.192-0.79h11.143c0.469 0 1.004 0.348 1.192 0.79l3.188 7.393c0.188 0.455 0.335 1.165 0.335 1.647z"></path>
</svg>
