<!-- Generated by IcoMoon.io -->
<svg version="1.1" xmlns="http://www.w3.org/2000/svg" width="24" height="24" viewBox="0 0 24 24">
<path d="M4.714 11.143c0 0.107-0.040 0.228-0.121 0.308l-3.857 3.857c-0.080 0.080-0.201 0.121-0.308 0.121-0.228 0-0.429-0.201-0.429-0.429v-7.714c0-0.228 0.201-0.429 0.429-0.429 0.107 0 0.228 0.040 0.308 0.121l3.857 3.857c0.080 0.080 0.121 0.201 0.121 0.308zM24 17.571v2.571c0 0.228-0.201 0.429-0.429 0.429h-23.143c-0.228 0-0.429-0.201-0.429-0.429v-2.571c0-0.228 0.201-0.429 0.429-0.429h23.143c0.228 0 0.429 0.201 0.429 0.429zM24 12.429v2.571c0 0.228-0.201 0.429-0.429 0.429h-14.571c-0.228 0-0.429-0.201-0.429-0.429v-2.571c0-0.228 0.201-0.429 0.429-0.429h14.571c0.228 0 0.429 0.201 0.429 0.429zM24 7.286v2.571c0 0.228-0.201 0.429-0.429 0.429h-14.571c-0.228 0-0.429-0.201-0.429-0.429v-2.571c0-0.228 0.201-0.429 0.429-0.429h14.571c0.228 0 0.429 0.201 0.429 0.429zM24 2.143v2.571c0 0.228-0.201 0.429-0.429 0.429h-23.143c-0.228 0-0.429-0.201-0.429-0.429v-2.571c0-0.228 0.201-0.429 0.429-0.429h23.143c0.228 0 0.429 0.201 0.429 0.429z"></path>
</svg>
