<!-- Generated by IcoMoon.io -->
<svg version="1.1" xmlns="http://www.w3.org/2000/svg" width="9" height="24" viewBox="0 0 9 24">
<path d="M8.571 18v1.714c0 0.469-0.388 0.857-0.857 0.857h-6.857c-0.469 0-0.857-0.388-0.857-0.857v-1.714c0-0.469 0.388-0.857 0.857-0.857h0.857v-5.143h-0.857c-0.469 0-0.857-0.388-0.857-0.857v-1.714c0-0.469 0.388-0.857 0.857-0.857h5.143c0.469 0 0.857 0.388 0.857 0.857v7.714h0.857c0.469 0 0.857 0.388 0.857 0.857zM6.857 2.571v2.571c0 0.469-0.388 0.857-0.857 0.857h-3.429c-0.469 0-0.857-0.388-0.857-0.857v-2.571c0-0.469 0.388-0.857 0.857-0.857h3.429c0.469 0 0.857 0.388 0.857 0.857z"></path>
</svg>
