<!-- Generated by IcoMoon.io -->
<svg version="1.1" xmlns="http://www.w3.org/2000/svg" width="21" height="24" viewBox="0 0 21 24">
<path d="M13.714 18.429v-2.143c0-0.241-0.188-0.429-0.429-0.429h-1.286v-6.857c0-0.241-0.188-0.429-0.429-0.429h-4.286c-0.241 0-0.429 0.188-0.429 0.429v2.143c0 0.241 0.188 0.429 0.429 0.429h1.286v4.286h-1.286c-0.241 0-0.429 0.187-0.429 0.429v2.143c0 0.241 0.188 0.429 0.429 0.429h6c0.241 0 0.429-0.188 0.429-0.429zM12 6.429v-2.143c0-0.241-0.188-0.429-0.429-0.429h-2.571c-0.241 0-0.429 0.188-0.429 0.429v2.143c0 0.241 0.188 0.429 0.429 0.429h2.571c0.241 0 0.429-0.188 0.429-0.429zM20.571 12c0 5.679-4.607 10.286-10.286 10.286s-10.286-4.607-10.286-10.286 4.607-10.286 10.286-10.286 10.286 4.607 10.286 10.286z"></path>
</svg>
