<!-- Generated by IcoMoon.io -->
<svg version="1.1" xmlns="http://www.w3.org/2000/svg" width="12" height="24" viewBox="0 0 12 24">
<path d="M12.027 6.295v1.366c0 0.241-0.188 0.429-0.429 0.429h-2.25c-0.415 2.571-2.384 4.246-5.424 4.607 1.996 2.129 4.125 4.701 6.147 7.179 0.107 0.121 0.134 0.308 0.054 0.455-0.067 0.147-0.214 0.241-0.388 0.241h-2.612c-0.134 0-0.254-0.054-0.335-0.161-2.156-2.585-4.138-4.955-6.67-7.647-0.080-0.080-0.121-0.188-0.121-0.295v-1.701c0-0.228 0.188-0.429 0.429-0.429h1.5c2.357 0 3.83-0.79 4.219-2.25h-5.719c-0.241 0-0.429-0.188-0.429-0.429v-1.366c0-0.241 0.188-0.429 0.429-0.429h5.531c-0.509-1.004-1.714-1.513-3.589-1.513h-1.942c-0.241 0-0.429-0.201-0.429-0.429v-1.781c0-0.241 0.188-0.429 0.429-0.429h11.143c0.241 0 0.429 0.188 0.429 0.429v1.366c0 0.241-0.188 0.429-0.429 0.429h-3.121c0.429 0.549 0.71 1.192 0.857 1.929h2.29c0.241 0 0.429 0.187 0.429 0.429z"></path>
</svg>
