<!-- Generated by IcoMoon.io -->
<svg version="1.1" xmlns="http://www.w3.org/2000/svg" width="19" height="24" viewBox="0 0 19 24">
<path d="M13.714 0.429c0-0.241 0.188-0.429 0.429-0.429h3.857c0.469 0 0.857 0.388 0.857 0.857v3.857c0 0.241-0.188 0.429-0.429 0.429h-0.857c-0.241 0-0.429-0.188-0.429-0.429v-1.795l-3.402 3.415c1.045 1.313 1.688 2.987 1.688 4.808 0 3.964-3 7.232-6.857 7.661v1.768h1.286c0.241 0 0.429 0.188 0.429 0.429v0.857c0 0.241-0.188 0.429-0.429 0.429h-1.286v1.286c0 0.241-0.188 0.429-0.429 0.429h-0.857c-0.241 0-0.429-0.188-0.429-0.429v-1.286h-1.286c-0.241 0-0.429-0.188-0.429-0.429v-0.857c0-0.241 0.188-0.429 0.429-0.429h1.286v-1.768c-4.045-0.442-7.165-4.045-6.83-8.277 0.281-3.643 3.174-6.629 6.79-7.045 2.17-0.254 4.179 0.415 5.705 1.634l3.415-3.402h-1.795c-0.241 0-0.429-0.188-0.429-0.429v-0.857zM7.714 17.143c3.308 0 6-2.692 6-6s-2.692-6-6-6-6 2.692-6 6 2.692 6 6 6z"></path>
</svg>
