<!-- Generated by IcoMoon.io -->
<svg version="1.1" xmlns="http://www.w3.org/2000/svg" width="24" height="24" viewBox="0 0 24 24">
<path d="M24 12.549c0 0.469-0.027 0.938-0.094 1.393h-15.415c0 2.665 2.344 4.594 4.915 4.594 1.741 0 3.415-0.857 4.313-2.371h5.665c-1.527 4.299-5.612 7.179-10.165 7.179-1.647 0-3.295-0.388-4.768-1.112-1.5 0.763-3.603 1.554-5.277 1.554-2.25 0-3.174-1.379-3.174-3.522 0-1.246 0.268-2.491 0.603-3.683 0.214-0.777 1.071-2.357 1.46-3.067 1.647-2.987 3.817-5.853 6.362-8.116-2.049 0.884-4.272 3.107-5.719 4.741 1.125-4.902 5.491-8.371 10.513-8.371 0.201 0 0.402 0 0.603 0.013 1.661-0.763 3.978-1.567 5.799-1.567 2.17 0 4.031 0.83 4.031 3.281 0 1.286-0.496 2.679-1.004 3.83 0.884 1.594 1.353 3.402 1.353 5.223zM23.063 3.978c0-1.5-1.071-2.424-2.545-2.424-1.125 0-2.397 0.455-3.402 0.938 2.17 0.844 4.031 2.397 5.263 4.379 0.335-0.884 0.683-1.955 0.683-2.893zM1.714 20.545c0 1.554 0.924 2.397 2.451 2.397 1.192 0 2.518-0.536 3.563-1.112-2.183-1.286-3.871-3.335-4.701-5.732-0.616 1.286-1.312 3-1.312 4.446zM8.464 10.996h9.75c-0.094-2.585-2.371-4.446-4.875-4.446-2.518 0-4.781 1.862-4.875 4.446z"></path>
</svg>
