<!-- Generated by IcoMoon.io -->
<svg version="1.1" xmlns="http://www.w3.org/2000/svg" width="27" height="24" viewBox="0 0 27 24">
<path d="M19.594 11.143c0 0.629-0.509 1.152-1.152 1.152h-9.402c-0.643 0-1.152-0.522-1.152-1.152s0.509-1.152 1.152-1.152h9.402c0.643 0 1.152 0.522 1.152 1.152zM22.46 11.143c0-0.79-0.107-1.54-0.308-2.277h-13.152c-0.643 0-1.152-0.509-1.152-1.138 0-0.643 0.509-1.152 1.152-1.152h12.161c-1.54-2.504-4.299-4.165-7.433-4.165-4.821 0-8.746 3.911-8.746 8.732 0 0.79 0.107 1.54 0.308 2.277h13.152c0.643 0 1.152 0.509 1.152 1.138 0 0.643-0.509 1.152-1.152 1.152h-12.161c1.54 2.504 4.299 4.165 7.446 4.165 4.808 0 8.732-3.911 8.732-8.732zM27.429 7.728c0 0.629-0.509 1.138-1.152 1.138h-1.754c0.147 0.737 0.228 1.5 0.228 2.277 0 6.080-4.942 11.036-11.022 11.036-4.46 0-8.304-2.652-10.045-6.469h-2.531c-0.643 0-1.152-0.509-1.152-1.152 0-0.629 0.509-1.138 1.152-1.138h1.768c-0.147-0.737-0.228-1.5-0.228-2.277 0-6.080 4.942-11.036 11.036-11.036 4.446 0 8.29 2.652 10.031 6.469h2.518c0.643 0 1.152 0.509 1.152 1.152z"></path>
</svg>
