<!-- Generated by IcoMoon.io -->
<svg version="1.1" xmlns="http://www.w3.org/2000/svg" width="14" height="24" viewBox="0 0 14 24">
<path d="M0 22.259l0.228-1.138c0.857-0.268 1.781-0.375 2.585-0.79 0.308-0.388 0.455-0.884 0.549-1.353 0.174-0.911 3.094-14.049 3.054-15.121v-0.335c-0.737-0.402-1.634-0.295-2.438-0.429l0.254-1.379c1.728 0.080 3.482 0.214 5.223 0.214 1.42 0 2.839-0.134 4.259-0.214-0.054 0.402-0.147 0.804-0.254 1.192-0.924 0.321-1.902 0.469-2.813 0.83-0.295 0.723-0.362 1.513-0.496 2.277-0.643 3.469-1.5 6.938-2.21 10.379-0.134 0.643-0.79 3.308-0.737 3.871l0.013 0.241c0.817 0.188 1.647 0.281 2.478 0.415-0.027 0.442-0.107 0.884-0.214 1.326-0.295 0-0.576 0.040-0.871 0.040-0.763 0-1.554-0.254-2.317-0.268-0.924-0.013-1.848-0.027-2.759-0.027-1.192 0-2.357 0.201-3.536 0.268z"></path>
</svg>
