<!-- Generated by IcoMoon.io -->
<svg version="1.1" xmlns="http://www.w3.org/2000/svg" width="21" height="24" viewBox="0 0 21 24">
<path d="M14.33 14.371l-2.143 2.143-2.022 2.036-0.402 0.402c-1.179 1.165-2.826 1.567-4.326 1.192-0.281 1.232-1.379 2.143-2.692 2.143-1.513 0-2.746-1.232-2.746-2.759 0-1.299 0.897-2.397 2.116-2.679-0.388-1.513 0.013-3.174 1.192-4.353l0.161-0.161 2.022 2.036-0.147 0.147c-0.67 0.656-0.656 1.728 0 2.397 0.656 0.656 1.728 0.656 2.384 0l0.402-0.402 2.022-2.036 2.156-2.143zM9.763 5.237l0.161 0.161-2.036 2.036-0.161-0.161c-0.656-0.656-1.728-0.656-2.384 0s-0.656 1.741 0 2.397l4.567 4.567-2.022 2.036-2.156-2.143-2.022-2.036-0.402-0.402c-1.232-1.219-1.607-2.973-1.138-4.54-1.232-0.268-2.143-1.366-2.143-2.679 0-1.527 1.232-2.759 2.746-2.759 1.379 0 2.504 1.004 2.719 2.304 1.487-0.348 3.107 0.067 4.272 1.219zM20.571 19.527c0 1.527-1.232 2.759-2.746 2.759-1.339 0-2.451-0.951-2.705-2.21v0c-1.554 0.482-3.335 0.107-4.567-1.125l-0.147-0.161 2.022-2.036 0.161 0.161c0.656 0.656 1.728 0.656 2.384 0s0.656-1.728 0-2.384l-4.58-4.58 2.036-2.036 4.179 4.179 0.388 0.402c1.165 1.165 1.58 2.813 1.205 4.313 1.339 0.188 2.371 1.326 2.371 2.719zM20.545 4.473c0 1.393-1.045 2.545-2.384 2.732 0.442 1.54 0.054 3.268-1.165 4.487l-0.161 0.161-2.022-2.036 0.161-0.161c0.656-0.656 0.656-1.728 0-2.384s-1.728-0.656-2.384 0l-4.58 4.58-2.036-2.036 2.156-2.143 2.036-2.036 0.388-0.402c1.219-1.219 2.96-1.607 4.513-1.152 0.188-1.339 1.339-2.371 2.732-2.371 1.513 0 2.746 1.232 2.746 2.759z"></path>
</svg>
