<!-- Generated by IcoMoon.io -->
<svg version="1.1" xmlns="http://www.w3.org/2000/svg" width="27" height="24" viewBox="0 0 27 24">
<path d="M24.107 10.339c1.942 0.804 3.321 2.705 3.321 4.915 0 2.933-2.424 5.317-5.397 5.317-0.107 0-0.201-0.013-0.295-0.013h-16.299c-3-0.174-5.438-2.464-5.438-5.438 0-1.996 1.085-3.737 2.705-4.688-0.107-0.348-0.161-0.71-0.161-1.098 0-2.049 1.674-3.71 3.763-3.71 0.857 0 1.661 0.295 2.304 0.777 1.313-2.705 4.098-4.58 7.353-4.58 4.513 0 8.156 3.603 8.156 8.036 0 0.161-0.013 0.321-0.013 0.482zM6.268 13.902c0 2.263 1.781 3.536 3.911 3.536 1.313 0 2.263-0.415 3.214-1.326-0.388-0.482-0.817-0.951-1.219-1.433-0.549 0.536-1.152 0.871-1.929 0.871-0.951 0-1.768-0.629-1.768-1.621 0-0.978 0.817-1.621 1.741-1.621 2.946 0 3.576 5.143 7.862 5.143 2.089 0 3.857-1.313 3.857-3.509 0-2.223-1.781-3.522-3.897-3.522-1.313 0-2.29 0.375-3.228 1.299 0.429 0.469 0.83 0.964 1.246 1.446 0.536-0.522 1.138-0.857 1.902-0.857 0.884 0 1.768 0.629 1.768 1.567 0 1.031-0.75 1.688-1.754 1.688-2.853 0-3.616-5.143-7.795-5.143-2.076 0-3.911 1.272-3.911 3.482z"></path>
</svg>
