<!-- Generated by IcoMoon.io -->
<svg version="1.1" xmlns="http://www.w3.org/2000/svg" width="23" height="24" viewBox="0 0 23 24">
<path d="M11.143 6.857c0-1.42-1.152-2.571-2.571-2.571s-2.571 1.152-2.571 2.571c0 0.388 0.094 0.763 0.254 1.112-0.348-0.161-0.723-0.254-1.112-0.254-1.42 0-2.571 1.152-2.571 2.571s1.152 2.571 2.571 2.571 2.571-1.152 2.571-2.571c0-0.388-0.094-0.763-0.254-1.112 0.348 0.161 0.723 0.254 1.112 0.254 1.42 0 2.571-1.152 2.571-2.571zM22.54 16.286c0 0.308-1.232 1.54-1.54 1.54-0.348 0-1.433-1.259-1.714-1.54l-1.286 1.286 2.946 2.946c0.241 0.241 0.375 0.576 0.375 0.911 0 0.75-0.857 1.607-1.607 1.607-0.335 0-0.67-0.134-0.911-0.375l-8.987-8.987c-1.406 1.045-3.121 1.754-4.888 1.754-2.92 0-4.929-2.022-4.929-4.929 0-4.393 4.393-8.786 8.786-8.786 2.906 0 4.929 2.009 4.929 4.929 0 1.768-0.71 3.482-1.754 4.888l4.754 4.754 1.286-1.286c-0.281-0.281-1.54-1.366-1.54-1.714 0-0.308 1.232-1.54 1.54-1.54 0.107 0 0.228 0.054 0.308 0.134 0.496 0.496 4.232 4.018 4.232 4.406z"></path>
</svg>
