<!-- Generated by IcoMoon.io -->
<svg version="1.1" xmlns="http://www.w3.org/2000/svg" width="26" height="24" viewBox="0 0 26 24">
<path d="M5.143 15.643v1.286c0 0.121-0.094 0.214-0.214 0.214h-1.286c-0.121 0-0.214-0.094-0.214-0.214v-1.286c0-0.121 0.094-0.214 0.214-0.214h1.286c0.121 0 0.214 0.094 0.214 0.214zM6.857 12.214v1.286c0 0.121-0.094 0.214-0.214 0.214h-3c-0.121 0-0.214-0.094-0.214-0.214v-1.286c0-0.121 0.094-0.214 0.214-0.214h3c0.121 0 0.214 0.094 0.214 0.214zM5.143 8.786v1.286c0 0.121-0.094 0.214-0.214 0.214h-1.286c-0.121 0-0.214-0.094-0.214-0.214v-1.286c0-0.121 0.094-0.214 0.214-0.214h1.286c0.121 0 0.214 0.094 0.214 0.214zM18.857 15.643v1.286c0 0.121-0.094 0.214-0.214 0.214h-11.571c-0.121 0-0.214-0.094-0.214-0.214v-1.286c0-0.121 0.094-0.214 0.214-0.214h11.571c0.121 0 0.214 0.094 0.214 0.214zM10.286 12.214v1.286c0 0.121-0.094 0.214-0.214 0.214h-1.286c-0.121 0-0.214-0.094-0.214-0.214v-1.286c0-0.121 0.094-0.214 0.214-0.214h1.286c0.121 0 0.214 0.094 0.214 0.214zM8.571 8.786v1.286c0 0.121-0.094 0.214-0.214 0.214h-1.286c-0.121 0-0.214-0.094-0.214-0.214v-1.286c0-0.121 0.094-0.214 0.214-0.214h1.286c0.121 0 0.214 0.094 0.214 0.214zM13.714 12.214v1.286c0 0.121-0.094 0.214-0.214 0.214h-1.286c-0.121 0-0.214-0.094-0.214-0.214v-1.286c0-0.121 0.094-0.214 0.214-0.214h1.286c0.121 0 0.214 0.094 0.214 0.214zM12 8.786v1.286c0 0.121-0.094 0.214-0.214 0.214h-1.286c-0.121 0-0.214-0.094-0.214-0.214v-1.286c0-0.121 0.094-0.214 0.214-0.214h1.286c0.121 0 0.214 0.094 0.214 0.214zM17.143 12.214v1.286c0 0.121-0.094 0.214-0.214 0.214h-1.286c-0.121 0-0.214-0.094-0.214-0.214v-1.286c0-0.121 0.094-0.214 0.214-0.214h1.286c0.121 0 0.214 0.094 0.214 0.214zM22.286 15.643v1.286c0 0.121-0.094 0.214-0.214 0.214h-1.286c-0.121 0-0.214-0.094-0.214-0.214v-1.286c0-0.121 0.094-0.214 0.214-0.214h1.286c0.121 0 0.214 0.094 0.214 0.214zM15.429 8.786v1.286c0 0.121-0.094 0.214-0.214 0.214h-1.286c-0.121 0-0.214-0.094-0.214-0.214v-1.286c0-0.121 0.094-0.214 0.214-0.214h1.286c0.121 0 0.214 0.094 0.214 0.214zM18.857 8.786v1.286c0 0.121-0.094 0.214-0.214 0.214h-1.286c-0.121 0-0.214-0.094-0.214-0.214v-1.286c0-0.121 0.094-0.214 0.214-0.214h1.286c0.121 0 0.214 0.094 0.214 0.214zM22.286 8.786v4.714c0 0.121-0.094 0.214-0.214 0.214h-3c-0.121 0-0.214-0.094-0.214-0.214v-1.286c0-0.121 0.094-0.214 0.214-0.214h1.5v-3.214c0-0.121 0.094-0.214 0.214-0.214h1.286c0.121 0 0.214 0.094 0.214 0.214zM24 18.857v-12h-22.286v12h22.286zM25.714 6.857v12c0 0.951-0.763 1.714-1.714 1.714h-22.286c-0.951 0-1.714-0.763-1.714-1.714v-12c0-0.951 0.763-1.714 1.714-1.714h22.286c0.951 0 1.714 0.763 1.714 1.714z"></path>
</svg>
