<!-- Generated by IcoMoon.io -->
<svg version="1.1" xmlns="http://www.w3.org/2000/svg" width="24" height="24" viewBox="0 0 24 24">
<path d="M6.884 16.004l1.085-4.004h-2.129l1.004 4.018c0.013 0.027 0.013 0.054 0.027 0.080 0-0.027 0.013-0.067 0.013-0.094zM8.438 10.286l0.469-1.714h-3.911l0.429 1.714h3.013zM11.009 10.286h1.862l-0.469-1.714h-0.938zM17.022 16.018l1.045-4.018h-2.17l1.085 4.004c0.013 0.040 0.013 0.067 0.027 0.094 0-0.027 0.013-0.054 0.013-0.080zM18.509 10.286l0.442-1.714h-3.978l0.455 1.714h3.080zM24 10.714v0.857c0 0.241-0.188 0.429-0.429 0.429h-2.853l-2.196 8.25c-0.054 0.188-0.228 0.321-0.415 0.321h-2.129c-0.188 0-0.362-0.134-0.415-0.321l-2.223-8.25h-2.799l-2.237 8.25c-0.054 0.188-0.214 0.321-0.415 0.321h-2.129c-0.188 0-0.362-0.134-0.402-0.321l-2.143-8.25h-2.786c-0.241 0-0.429-0.188-0.429-0.429v-0.857c0-0.241 0.188-0.429 0.429-0.429h2.344l-0.442-1.714h-1.902c-0.241 0-0.429-0.188-0.429-0.429v-0.857c0-0.241 0.188-0.429 0.429-0.429h1.46l-1.192-4.607c-0.040-0.134-0.013-0.268 0.067-0.375 0.080-0.094 0.214-0.161 0.348-0.161h1.835c0.201 0 0.375 0.134 0.415 0.321l1.205 4.821h4.808l1.299-4.821c0.054-0.188 0.228-0.321 0.415-0.321h1.687c0.201 0 0.362 0.134 0.415 0.321l1.313 4.821h4.888l1.246-4.821c0.040-0.188 0.214-0.321 0.415-0.321h1.835c0.134 0 0.268 0.067 0.348 0.161 0.080 0.107 0.107 0.254 0.067 0.375l-1.219 4.607h1.487c0.241 0 0.429 0.188 0.429 0.429v0.857c0 0.241-0.188 0.429-0.429 0.429h-1.942l-0.455 1.714h2.397c0.241 0 0.429 0.188 0.429 0.429z"></path>
</svg>
