<!-- Generated by IcoMoon.io -->
<svg version="1.1" xmlns="http://www.w3.org/2000/svg" width="21" height="24" viewBox="0 0 21 24">
<path d="M8.759 14.438c-0.027 0.094-0.683-0.214-0.857-0.281-0.174-0.080-0.964-0.522-1.165-0.656s-0.964-0.763-1.058-0.804v0c-0.482 0.737-1.098 1.607-1.795 2.424-0.241 0.281-0.964 1.192-1.406 1.473-0.067 0.040-0.455 0.080-0.509 0.054 0.214-0.161 0.83-0.924 1.098-1.232 0.335-0.388 1.929-2.612 2.196-3.121 0.281-0.509 1.125-2.196 1.165-2.357-0.134-0.013-1.192 0.348-1.473 0.442-0.268 0.080-1.004 0.254-1.058 0.295-0.054 0.054-0.013 0.214-0.040 0.268s-0.268 0.174-0.415 0.201c-0.134 0.040-0.442 0.054-0.629 0-0.174-0.040-0.335-0.214-0.375-0.281 0 0-0.054-0.080-0.067-0.308 0.161-0.054 0.429-0.067 0.723-0.147s1.018-0.295 1.406-0.429 1.138-0.415 1.366-0.469c0.241-0.040 0.844-0.442 1.165-0.549s0.549-0.241 0.563-0.174 0 0.362-0.013 0.442c-0.013 0.067-0.656 1.326-0.75 1.527-0.054 0.107-0.429 0.817-1.031 1.754 0.214 0.094 0.67 0.281 0.857 0.375 0.228 0.107 1.821 0.777 1.902 0.804s0.228 0.643 0.201 0.75zM6.013 7.929c0.040 0.228-0.027 0.321-0.054 0.375-0.134 0.254-0.469 0.429-0.67 0.509s-0.536 0.161-0.804 0.161c-0.121-0.013-0.362-0.054-0.656-0.348-0.161-0.174-0.281-0.643-0.228-0.589s0.442 0.107 0.616 0.067 0.589-0.161 0.777-0.214c0.201-0.067 0.603-0.174 0.737-0.188 0.134 0 0.241 0.054 0.281 0.228zM15.362 9.656l0.844 3.040-1.862-0.563zM0.522 20.371l9.295-3.107v-13.821l-9.295 3.121v13.808zM17.143 16.125l1.366 0.415-2.424-8.799-1.339-0.415-2.893 7.179 1.366 0.415 0.603-1.473 2.826 0.871zM10.406 3.241l7.674 2.464v-5.089zM14.571 20.96l2.116 0.174-0.723 2.143-0.536-0.884c-1.085 0.696-2.424 1.232-3.696 1.446-0.388 0.080-0.83 0.161-1.219 0.161h-1.125c-1.42 0-4.004-0.844-5.129-1.661-0.080-0.067-0.107-0.121-0.107-0.214 0-0.147 0.107-0.254 0.241-0.254 0.121 0 0.75 0.388 0.924 0.469 1.205 0.603 2.893 1.152 4.246 1.152 1.674 0 2.813-0.214 4.339-0.871 0.442-0.201 0.83-0.455 1.246-0.683zM20.571 6.509v14.451c-10.353-3.295-10.366-3.295-10.366-3.295-0.214 0.094-9.817 3.335-9.951 3.335-0.107 0-0.201-0.067-0.241-0.174 0-0.013-0.013-0.027-0.013-0.040v-14.438c0.013-0.040 0.027-0.107 0.054-0.134 0.080-0.094 0.188-0.121 0.268-0.147 0.040-0.013 0.857-0.281 1.996-0.67v-5.143l7.473 2.652c0.094-0.027 8.424-2.906 8.545-2.906 0.147 0 0.268 0.107 0.268 0.281v5.598z"></path>
</svg>
