<!-- Generated by IcoMoon.io -->
<svg version="1.1" xmlns="http://www.w3.org/2000/svg" width="26" height="24" viewBox="0 0 26 24">
<path d="M5.571 17.143c-1.179 0-2.143-0.964-2.143-2.143v-9.429c0-1.179 0.964-2.143 2.143-2.143h14.571c1.179 0 2.143 0.964 2.143 2.143v9.429c0 1.179-0.964 2.143-2.143 2.143h-14.571zM5.143 5.571v9.429c0 0.228 0.201 0.429 0.429 0.429h14.571c0.228 0 0.429-0.201 0.429-0.429v-9.429c0-0.228-0.201-0.429-0.429-0.429h-14.571c-0.228 0-0.429 0.201-0.429 0.429zM23.571 18h2.143v1.286c0 0.71-0.964 1.286-2.143 1.286h-21.429c-1.179 0-2.143-0.576-2.143-1.286v-1.286h23.571zM13.929 19.286c0.121 0 0.214-0.094 0.214-0.214s-0.094-0.214-0.214-0.214h-2.143c-0.121 0-0.214 0.094-0.214 0.214s0.094 0.214 0.214 0.214h2.143z"></path>
</svg>
