<!-- Generated by IcoMoon.io -->
<svg version="1.1" xmlns="http://www.w3.org/2000/svg" width="24" height="24" viewBox="0 0 24 24">
<path d="M17.304 9.429c0 0.080 0.107 0.455 0.134 0.549 0.362 1.098 1.205 1.326 2.21 1.607 2.237 0.629 4.353 1.821 4.353 4.446 0 2.665-2.223 4.54-4.821 4.54-4.313 0-5.652-5.277-6.897-8.491-1.031-2.652-2.116-4.205-5.103-4.205-2.652 0-4.982 2.545-4.982 5.156 0 2.772 2.076 5.344 4.955 5.344 1.272 0 2.598-0.268 3.455-1.272v0c0.415-0.469 0.817-0.978 1.112-1.554l1.125 2.036c-0.147 0.335-0.362 0.656-0.589 0.938l0.013 0.013c-1.353 1.567-3.201 2.036-5.196 2.036-4.045 0-7.071-3.576-7.071-7.513 0-3.817 3.321-7.366 7.179-7.366 6.402 0 6.723 5.545 8.893 10.004 0.589 1.232 1.594 2.679 3.121 2.679 1.393 0 2.625-0.897 2.625-2.371 0-3.188-5.853-1.018-6.683-6.254-0.027-0.147-0.040-0.295-0.040-0.442 0-1.982 1.862-3.683 3.83-3.616 1.179 0.040 1.888 0.080 2.826 0.911h-0.013c0.362 0.335 0.629 0.79 0.911 1.179l-1.728 1.326c-0.201-0.375-0.388-0.683-0.723-0.938v-0.013c-0.321-0.295-0.897-0.281-1.299-0.281-0.871 0-1.594 0.656-1.594 1.554z"></path>
</svg>
