<!-- Generated by IcoMoon.io -->
<svg version="1.1" xmlns="http://www.w3.org/2000/svg" width="21" height="24" viewBox="0 0 21 24">
<path d="M19.179 14.089c0-1.888-1.527-2.746-3.134-3.201-0.737-0.201-1.339-0.375-1.607-1.179-0.013-0.067-0.080-0.321-0.080-0.375 0-0.643 0.509-1.112 1.138-1.112 0.295 0 0.71-0.013 0.951 0.201h-0.013c0.254 0.188 0.375 0.402 0.522 0.683l1.246-0.951c-0.201-0.281-0.402-0.616-0.656-0.857v0c-0.629-0.563-1.219-0.656-2.049-0.656-1.406 0-2.732 1.152-2.732 2.612 0 0.107 0.013 0.201 0.027 0.308 0.295 1.821 1.219 2.384 2.853 2.853 0.804 0.228 1.942 0.589 1.955 1.58v0.067c0.013 1.071-0.884 1.714-1.888 1.714-1.098 0-1.808-1.045-2.237-1.929-1.554-3.201-1.795-7.205-6.402-7.205-2.772 0-5.263 2.558-5.17 5.304v0.013c0.094 2.866 2.063 5.397 5.089 5.397 1.433 0 2.772-0.335 3.737-1.473v0c0.161-0.214 0.308-0.442 0.415-0.683l-0.804-1.46c-0.75 1.42-1.674 2.036-3.281 2.036-2.116 0-3.576-1.875-3.576-3.897 0-1.862 1.714-3.656 3.589-3.656 2.143 0 2.92 1.112 3.67 3.027 0.897 2.304 1.862 6.107 4.969 6.107 1.862 0 3.469-1.353 3.469-3.268zM20.571 5.571v12.857c0 2.129-1.728 3.857-3.857 3.857h-12.857c-2.129 0-3.857-1.728-3.857-3.857v-12.857c0-2.129 1.728-3.857 3.857-3.857h12.857c2.129 0 3.857 1.728 3.857 3.857z"></path>
</svg>
