<!-- Generated by IcoMoon.io -->
<svg version="1.1" xmlns="http://www.w3.org/2000/svg" width="24" height="24" viewBox="0 0 24 24">
<path d="M17.143 9.429c0-0.469-0.388-0.857-0.857-0.857-4.741 0-7.795 1.982-10.888 5.397-0.161 0.174-0.254 0.362-0.254 0.603 0 0.469 0.388 0.857 0.857 0.857 0.241 0 0.429-0.094 0.603-0.254 0.656-0.589 1.246-1.232 1.888-1.835 2.424-2.183 4.5-3.054 7.795-3.054 0.469 0 0.857-0.388 0.857-0.857zM24 6.777c0 0.857-0.094 1.728-0.268 2.585-0.857 4.165-3.536 6.871-7.259 8.719-1.808 0.911-3.83 1.446-5.866 1.446-1.286 0-2.612-0.214-3.83-0.629-0.643-0.214-1.929-1.058-2.464-1.058-0.67 0-1.473 2.732-2.638 2.732-0.844 0-1.098-0.415-1.46-1.031-0.121-0.228-0.214-0.308-0.214-0.589 0-1.393 2.652-2.478 2.652-3.254 0-0.121-0.348-0.83-0.402-1.098-0.080-0.455-0.121-0.924-0.121-1.393 0-4.259 3.388-7.299 7.192-8.558 2.746-0.911 8.585 0.147 10.446-1.621 0.737-0.683 1.098-1.312 2.223-1.312 1.513 0 2.009 3.924 2.009 5.063z"></path>
</svg>
