<!-- Generated by IcoMoon.io -->
<svg version="1.1" xmlns="http://www.w3.org/2000/svg" width="27" height="24" viewBox="0 0 27 24">
<path d="M25.353 5.25l2.076 17.036c-1.246 0-2.317-0.254-3.442-0.763-1.674-0.763-3.415-1.219-5.263-1.219-1.902 0-3.656 0.629-5.009 1.982-1.353-1.353-3.107-1.982-5.009-1.982-1.848 0-3.589 0.455-5.263 1.219-1.085 0.482-2.183 0.763-3.375 0.763h-0.067l2.076-17.036c1.915-1.085 4.246-1.701 6.455-1.701 1.808 0 3.67 0.375 5.183 1.42 1.513-1.045 3.375-1.42 5.183-1.42 2.21 0 4.54 0.616 6.455 1.701zM18.723 18.469c2.545 0 4.286 0.683 6.589 1.634l-1.661-13.674c-1.5-0.683-3.281-1.045-4.929-1.045-1.875 0-3.629 0.589-5.009 1.888-1.379-1.299-3.134-1.888-5.009-1.888-1.647 0-3.429 0.362-4.929 1.045l-1.661 13.674c2.304-0.951 4.045-1.634 6.589-1.634 1.835 0 3.455 0.469 5.009 1.446 1.554-0.978 3.174-1.446 5.009-1.446zM19.259 18.013l-0.737-12.147c-1.929 0.040-3.455 0.696-4.808 2.076-1.406-1.433-3-2.076-5.009-2.076-1.5 0-3.107 0.308-4.5 0.884l-1.527 12.603c2.022-0.83 3.804-1.353 6.027-1.353 1.768 0 3.496 0.429 5.009 1.366 1.513-0.938 3.241-1.406 5.009-1.366z"></path>
</svg>
