<!-- Generated by IcoMoon.io -->
<svg version="1.1" xmlns="http://www.w3.org/2000/svg" width="21" height="24" viewBox="0 0 21 24">
<path d="M18.844 11.063c0-0.629-0.121-2.277-0.335-2.813-0.254-0.643-0.402-1.004-0.402-1.728 0-0.616 0.134-1.219 0.134-1.821 0-0.254-0.013-0.522-0.134-0.737-0.054-0.013-0.121-0.013-0.174-0.013-0.522 0-1.045 0.121-1.567 0.121-1.594 0-3.107-0.643-4.701-0.643-1.246 0-2.451 0.469-3.603 0.924-0.911 0.362-1.915 0.79-2.705 1.379-2.705 2.049-3.643 5.799-3.643 9.027 0 1.085 0.335 2.143 0.335 3.228 0 0.616-0.295 1.179-0.295 1.768 0 0.375 0.214 0.683 0.616 0.683 0.656 0 1.286-0.295 1.955-0.295 1.527 0 3.013 0.415 4.54 0.415 1.192 0 2.692-0.094 3.804-0.482 3.522-1.246 6.174-5.317 6.174-9.013zM20.558 11.036c0 4.46-3.094 9.161-7.326 10.661-1.326 0.469-2.973 0.589-4.366 0.589-1.527 0-3.027-0.388-4.54-0.388-0.643 0-1.286 0.388-1.955 0.388-1.326 0-2.33-1.192-2.33-2.464 0-0.629 0.295-1.192 0.295-1.808 0-1.085-0.335-2.143-0.335-3.241 0-3.804 1.165-8.009 4.326-10.406 0.911-0.696 2.049-1.192 3.107-1.607 1.366-0.549 2.746-1.045 4.232-1.045 1.594 0 3.107 0.643 4.674 0.643 0.509 0 1.018-0.134 1.54-0.134 1.527 0 2.076 1.085 2.076 2.478 0 0.603-0.134 1.219-0.134 1.821 0 0.482 0.121 0.67 0.281 1.098 0.308 0.777 0.455 2.558 0.455 3.415z"></path>
</svg>
