<!-- Generated by IcoMoon.io -->
<svg version="1.1" xmlns="http://www.w3.org/2000/svg" width="14" height="24" viewBox="0 0 14 24">
<path d="M0.429 3.429h9.429c0.241 0 0.429 0.201 0.429 0.442v11.558h2.571c0.335 0 0.629 0.201 0.777 0.496 0.147 0.308 0.094 0.67-0.121 0.924l-4.286 5.143c-0.321 0.388-0.991 0.388-1.312 0l-4.286-5.143c-0.214-0.254-0.254-0.616-0.121-0.924 0.147-0.295 0.442-0.496 0.777-0.496h2.571v-8.571h-4.286c-0.121 0-0.241-0.054-0.335-0.147l-2.143-2.571c-0.107-0.121-0.121-0.308-0.054-0.455s0.228-0.254 0.388-0.254z"></path>
</svg>
