<!-- Generated by IcoMoon.io -->
<svg version="1.1" xmlns="http://www.w3.org/2000/svg" width="14" height="24" viewBox="0 0 14 24">
<path d="M13.634 8.076c-0.147 0.308-0.442 0.496-0.777 0.496h-2.571v11.571c0 0.241-0.188 0.429-0.429 0.429h-9.429c-0.161 0-0.321-0.094-0.388-0.241-0.067-0.161-0.054-0.335 0.054-0.469l2.143-2.571c0.080-0.094 0.214-0.147 0.335-0.147h4.286v-8.571h-2.571c-0.335 0-0.629-0.188-0.777-0.496-0.134-0.295-0.094-0.656 0.121-0.911l4.286-5.143c0.321-0.388 0.991-0.388 1.312 0l4.286 5.143c0.214 0.254 0.268 0.616 0.121 0.911z"></path>
</svg>
