<!-- Generated by IcoMoon.io -->
<svg version="1.1" xmlns="http://www.w3.org/2000/svg" width="24" height="24" viewBox="0 0 24 24">
<path d="M12 0c6.629 0 12 5.371 12 12s-5.371 12-12 12-12-5.371-12-12 5.371-12 12-12zM12 1.714c-1.741 0-3.388 0.442-4.835 1.205l2.598 2.598c0.71-0.241 1.46-0.375 2.237-0.375 0.79 0 1.527 0.134 2.237 0.375l2.598-2.598c-1.446-0.763-3.094-1.205-4.835-1.205zM2.92 16.835l2.598-2.598c-0.241-0.71-0.375-1.46-0.375-2.237 0-0.79 0.134-1.527 0.375-2.237l-2.598-2.598c-0.763 1.446-1.205 3.094-1.205 4.835s0.442 3.388 1.205 4.835zM12 22.286c1.741 0 3.388-0.442 4.835-1.205l-2.598-2.598c-0.71 0.241-1.446 0.375-2.237 0.375-0.777 0-1.527-0.134-2.237-0.375l-2.598 2.598c1.446 0.763 3.094 1.205 4.835 1.205zM12 17.143c2.839 0 5.143-2.304 5.143-5.143s-2.304-5.143-5.143-5.143-5.143 2.304-5.143 5.143 2.304 5.143 5.143 5.143zM18.482 14.237l2.598 2.598c0.763-1.446 1.205-3.094 1.205-4.835s-0.442-3.388-1.205-4.835l-2.598 2.598c0.241 0.71 0.375 1.46 0.375 2.237s-0.134 1.527-0.375 2.237z"></path>
</svg>
