<!-- Generated by IcoMoon.io -->
<svg version="1.1" xmlns="http://www.w3.org/2000/svg" width="14" height="24" viewBox="0 0 14 24">
<path d="M9.857 7.714c0 0.228-0.201 0.429-0.429 0.429s-0.429-0.201-0.429-0.429c0-0.924-1.433-1.286-2.143-1.286-0.228 0-0.429-0.201-0.429-0.429s0.201-0.429 0.429-0.429c1.246 0 3 0.656 3 2.143zM12 7.714c0-2.679-2.719-4.286-5.143-4.286s-5.143 1.607-5.143 4.286c0 0.857 0.348 1.754 0.911 2.411 0.254 0.295 0.549 0.576 0.817 0.884 0.951 1.138 1.754 2.478 1.888 3.991h3.054c0.134-1.513 0.938-2.853 1.888-3.991 0.268-0.308 0.563-0.589 0.817-0.884 0.563-0.656 0.911-1.554 0.911-2.411zM13.714 7.714c0 1.379-0.455 2.571-1.379 3.589s-2.143 2.451-2.25 3.884c0.388 0.228 0.629 0.656 0.629 1.098 0 0.321-0.121 0.629-0.335 0.857 0.214 0.228 0.335 0.536 0.335 0.857 0 0.442-0.228 0.844-0.603 1.085 0.107 0.188 0.174 0.415 0.174 0.629 0 0.871-0.683 1.286-1.46 1.286-0.348 0.777-1.125 1.286-1.969 1.286s-1.621-0.509-1.969-1.286c-0.777 0-1.46-0.415-1.46-1.286 0-0.214 0.067-0.442 0.174-0.629-0.375-0.241-0.603-0.643-0.603-1.085 0-0.321 0.121-0.629 0.335-0.857-0.214-0.228-0.335-0.536-0.335-0.857 0-0.442 0.241-0.871 0.629-1.098-0.107-1.433-1.326-2.866-2.25-3.884s-1.379-2.21-1.379-3.589c0-3.643 3.469-6 6.857-6s6.857 2.357 6.857 6z"></path>
</svg>
