<!-- Generated by IcoMoon.io -->
<svg version="1.1" xmlns="http://www.w3.org/2000/svg" width="27" height="24" viewBox="0 0 27 24">
<path d="M27.429 20.571v1.714h-27.429v-20.571h1.714v18.857h25.714zM25.714 3.857v5.826c0 0.375-0.455 0.576-0.737 0.295l-1.621-1.621-8.478 8.478c-0.174 0.174-0.442 0.174-0.616 0l-3.121-3.121-5.571 5.571-2.571-2.571 7.835-7.835c0.174-0.174 0.442-0.174 0.616 0l3.121 3.121 6.214-6.214-1.621-1.621c-0.281-0.281-0.080-0.737 0.295-0.737h5.826c0.241 0 0.429 0.188 0.429 0.429z"></path>
</svg>
