<!-- Generated by IcoMoon.io -->
<svg version="1.1" xmlns="http://www.w3.org/2000/svg" width="21" height="24" viewBox="0 0 21 24">
<path d="M4.42 20.558l2.705 2.866-0.455-3.161-2.893-2.853zM7.446 23.585l3.67-2.92-0.147-3.281-4.018 2.879zM3.281 15.040l3.040 2.853-0.643-4.379-3.281-2.732zM6.629 18.040l4.246-2.866-0.188-4.339-4.714 2.679zM11.29 18.188l1.272 1.071-0.027-3.201-1.379-1.058c0 0.107 0.054 0.295-0.054 0.375l-1.045 0.696 1.138 0.938c0.134 0.107 0.094 1.018 0.094 1.179zM1.848 8.116l3.429 2.679-0.911-6.228-3.737-2.317zM15.71 16.996l0.201-3.134-3.080 2.196 0.027 3.214zM5.585 10.902l4.996-2.598-0.254-5.906-5.665 2.183zM17.009 15.79l0.268-3.121-3.027-1.902-0.027 1.406 1.929 1.272c0.040 0.027 0.067 0.080 0.054 0.121l-0.094 1.594zM19.567 13.929l0.402-2.973-2.397 1.714-0.268 3.054zM17.049 16.165l-0.951-0.656-0.107 1.567c0 0.040-0.013 0.080-0.054 0.107l-3.134 2.504c-0.054 0.040-0.134 0.040-0.188 0l-1.313-1.112 0.094 2.156c0 0.040-0.013 0.080-0.054 0.107l-3.924 3.134c-0.027 0.013-0.054 0.027-0.080 0.027-0.040-0.013-0.080-0.013-0.107-0.040l-3.054-3.241c-0.067-0.067-0.723-3.375-0.79-3.71-0.013-0.054 0.027-0.121 0.067-0.147l0.817-0.496c-0.161-0.147-1.246-1.098-1.272-1.232l-0.964-4.701c-0.013-0.054 0.013-0.121 0.080-0.161l1.259-0.603c-0.214-0.161-1.768-1.286-1.808-1.446l-1.286-6.241c-0.013-0.080 0.027-0.147 0.094-0.174l5.799-1.808c0.027 0 0.067 0 0.107 0.013l4.246 2.049c0.040 0.027 0.080 0.080 0.080 0.121l0.268 6.201c0 0.054-0.027 0.107-0.080 0.134l-1.58 0.817 1.688 1.138c0.040 0.013 0.067 0.067 0.067 0.107l0.067 1.647 1.621-0.991c0.040-0.027 0.107-0.027 0.147 0l1.125 0.75 0.040-1.473c0-0.040 0.027-0.094 0.067-0.121l2.759-1.688c0.054-0.027 0.107-0.027 0.147 0l3.281 1.808c0.027 0.027 0.054 0.054 0.067 0.094 0.027 0.094-0.415 3.107-0.455 3.415 0 0.040-0.027 0.080-0.054 0.094l-2.558 2.049c-0.054 0.040-0.121 0.040-0.174 0z"></path>
</svg>
