<!-- Generated by IcoMoon.io -->
<svg version="1.1" xmlns="http://www.w3.org/2000/svg" width="21" height="24" viewBox="0 0 21 24">
<path d="M8.879 5.504v0c-0.268 0.027-0.174 0.268-0.321 0.268-0.134 0.013-0.107-0.295 0.321-0.268zM10.045 5.692c-0.134 0.040-0.147-0.214-0.388-0.147v0c0.388-0.174 0.522 0.094 0.388 0.147zM5.344 11.411c-0.121-0.040-0.094 0.201-0.214 0.388-0.094 0.174-0.335 0.308-0.147 0.335v0c0.067 0.013 0.254-0.147 0.335-0.335 0.067-0.228 0.134-0.348 0.027-0.388zM16.795 16.219c0-0.241-0.522-0.469-0.737-0.563 0.362-1.205 0.201-1.688-0.040-2.826-0.188-0.857-0.978-2.022-1.594-2.384 0.161 0.134 0.455 0.522 0.763 1.112 0.536 1.004 1.071 2.491 0.723 3.723-0.134 0.482-0.455 0.549-0.67 0.563-0.938 0.107-0.388-1.125-0.777-2.799-0.442-1.875-0.897-2.009-1.004-2.156-0.549-2.438-1.152-2.196-1.326-3.107-0.147-0.817 0.71-1.487-0.455-1.714-0.362-0.067-0.871-0.429-1.071-0.455s-0.308-1.353 0.442-1.393c0.737-0.054 0.871 0.83 0.737 1.179-0.214 0.348 0.013 0.482 0.375 0.362 0.295-0.094 0.107-0.871 0.174-0.978-0.188-1.125-0.656-1.286-1.138-1.379-1.848 0.147-1.018 2.183-1.205 1.996-0.268-0.281-1.045-0.027-1.045-0.201 0.013-1.045-0.335-1.647-0.817-1.661-0.536-0.013-0.75 0.737-0.777 1.165-0.040 0.402 0.228 1.246 0.429 1.179 0.134-0.040 0.362-0.308 0.121-0.295-0.121 0-0.308-0.295-0.335-0.643-0.013-0.348 0.121-0.696 0.576-0.683 0.522 0.013 0.522 1.058 0.469 1.098-0.174 0.121-0.388 0.348-0.415 0.388-0.174 0.281-0.509 0.362-0.643 0.482-0.228 0.241-0.281 0.509-0.107 0.603 0.616 0.348 0.415 0.75 1.272 0.777 0.563 0.027 0.978-0.080 1.366-0.201 0.295-0.094 1.246-0.295 1.446-0.643 0.094-0.147 0.201-0.147 0.268-0.107 0.134 0.067 0.161 0.321-0.174 0.402-0.469 0.134-0.938 0.388-1.366 0.549-0.415 0.174-0.549 0.241-0.938 0.308-0.884 0.161-1.54-0.321-0.951 0.254 0.201 0.188 0.388 0.308 0.897 0.295 1.125-0.040 2.371-1.393 2.491-0.79 0.027 0.134-0.348 0.295-0.643 0.442-1.045 0.509-1.781 1.527-2.451 1.179-0.603-0.321-1.205-1.808-1.192-1.138 0.013 1.031-1.353 1.942-0.723 3.121-0.415 0.107-1.339 2.076-1.473 3.094-0.080 0.589 0.054 1.313-0.094 1.714-0.201 0.589-1.112-0.563-0.817-1.969 0.054-0.241 0-0.295-0.067-0.174-0.362 0.656-0.161 1.58 0.134 2.223 0.121 0.281 0.429 0.402 0.656 0.643 0.469 0.536 2.317 1.902 2.638 2.237 0.415 0.388 0.295 1.299-0.563 1.393v0c0.442 0.83 0.871 0.911 0.857 2.263 0.509-0.268 0.308-0.857 0.094-1.232-0.147-0.268-0.335-0.388-0.295-0.455 0.027-0.040 0.295-0.268 0.442-0.094 0.455 0.509 1.313 0.603 2.223 0.482 0.924-0.107 1.915-0.429 2.371-1.165 0.214-0.348 0.362-0.469 0.455-0.402 0.107 0.054 0.147 0.295 0.134 0.696-0.013 0.429-0.188 0.871-0.308 1.232-0.121 0.415-0.161 0.696 0.241 0.71 0.107-0.75 0.321-1.487 0.375-2.237 0.067-0.857-0.549-2.438 0.121-3.228 0.174-0.214 0.388-0.241 0.683-0.241 0.040-1.071 1.688-0.991 2.237-0.549zM8.384 5.143c0.054-0.335-0.107-0.576-0.188-0.603-0.161-0.040-0.134 0.201-0.054 0.174v0c0.054 0 0.121 0.080 0.094 0.201-0.027 0.161-0.013 0.268 0.107 0.268 0.013 0 0.040 0 0.040-0.040zM13.996 7.781c-0.054-0.254-0.241-0.161-0.455-0.295-0.254-0.161-0.308-0.429-0.402-0.335v0c-0.281 0.308 0.348 0.951 0.616 1.004 0.161 0.027 0.281-0.188 0.241-0.375zM11.612 4.929c0.013-0.321-0.268-0.482-0.335-0.469-0.174 0.013-0.121 0.094-0.040 0.121v0c0.107 0.027 0.214 0.214 0.241 0.415 0 0.027 0.134-0.027 0.134-0.067zM12.335 1.808c0.013-0.067-0.161-0.147-0.281-0.241-0.107-0.107-0.214-0.201-0.321-0.201-0.268 0.027-0.134 0.308-0.174 0.442v0c-0.054 0.147-0.254 0.268-0.121 0.375 0.121 0.094 0.201-0.147 0.455-0.241 0.067-0.027 0.375 0.013 0.442-0.134zM19.902 19.768c1.647 1.018-0.616 1.862-1.594 2.357-0.763 0.388-1.781 1.246-2.156 1.607-0.281 0.268-1.446 0.402-2.103 0.067-0.763-0.388-0.362-1.004-1.54-1.045-0.589-0.013-1.165-0.013-1.741-0.013-0.509 0.013-1.018 0.040-1.54 0.054-1.768 0.040-1.942 1.179-3.080 1.138-0.777-0.027-1.754-0.643-3.442-0.991-1.179-0.241-2.317-0.308-2.558-0.83s0.295-1.112 0.335-1.621c0.040-0.683-0.509-1.607-0.107-1.955 0.348-0.308 1.085-0.080 1.567-0.348 0.509-0.295 0.723-0.522 0.723-1.152 0.188 0.643-0.013 1.165-0.429 1.42-0.254 0.161-0.723 0.241-1.112 0.201-0.308-0.027-0.496 0.013-0.576 0.134-0.121 0.147-0.080 0.415 0.067 0.763s0.321 0.576 0.295 1.004c-0.013 0.429-0.496 0.938-0.415 1.299 0.027 0.134 0.161 0.254 0.496 0.348 0.536 0.147 1.513 0.295 2.464 0.522 1.058 0.268 2.156 0.75 2.839 0.656 2.036-0.281 0.871-2.464 0.549-2.987v0c-1.728-2.705-2.866-4.473-3.777-3.777-0.228 0.188-0.241-0.455-0.228-0.71 0.040-0.884 0.482-1.205 0.75-1.888 0.509-1.299 0.897-2.786 1.674-3.549 0.576-0.75 1.487-1.969 1.661-2.612-0.147-1.393-0.188-2.866-0.214-4.152-0.027-1.379 0.188-2.585 1.741-3.429 0.375-0.201 0.871-0.281 1.393-0.281 0.924-0.013 1.955 0.254 2.612 0.737 1.045 0.777 1.701 2.424 1.621 3.603-0.054 0.924 0.107 1.875 0.402 2.866 0.348 1.165 0.897 1.982 1.781 2.92 1.058 1.125 1.888 3.335 2.129 4.741 0.214 1.313-0.080 2.129-0.362 2.17-0.429 0.067-0.696 1.42-2.036 1.366-0.857-0.040-0.938-0.549-1.179-0.991-0.388-0.683-0.777-0.469-0.924 0.254-0.080 0.362-0.027 0.897 0.094 1.299 0.241 0.844 0.161 1.634 0.013 2.612-0.281 1.848 1.299 2.196 2.357 1.313 1.045-0.871 1.272-1.004 2.585-1.46 1.996-0.683 1.326-1.286 0.254-1.647-0.964-0.321-1.004-1.942-0.656-2.25 0.080 1.741 0.991 1.996 1.366 2.237z"></path>
</svg>
