<!-- Generated by IcoMoon.io -->
<svg version="1.1" xmlns="http://www.w3.org/2000/svg" width="24" height="24" viewBox="0 0 24 24">
<path d="M5.143 18.857c0 1.42-1.152 2.571-2.571 2.571s-2.571-1.152-2.571-2.571 1.152-2.571 2.571-2.571 2.571 1.152 2.571 2.571zM5.143 12c0 1.42-1.152 2.571-2.571 2.571s-2.571-1.152-2.571-2.571 1.152-2.571 2.571-2.571 2.571 1.152 2.571 2.571zM24 17.571v2.571c0 0.228-0.201 0.429-0.429 0.429h-16.286c-0.228 0-0.429-0.201-0.429-0.429v-2.571c0-0.228 0.201-0.429 0.429-0.429h16.286c0.228 0 0.429 0.201 0.429 0.429zM5.143 5.143c0 1.42-1.152 2.571-2.571 2.571s-2.571-1.152-2.571-2.571 1.152-2.571 2.571-2.571 2.571 1.152 2.571 2.571zM24 10.714v2.571c0 0.228-0.201 0.429-0.429 0.429h-16.286c-0.228 0-0.429-0.201-0.429-0.429v-2.571c0-0.228 0.201-0.429 0.429-0.429h16.286c0.228 0 0.429 0.201 0.429 0.429zM24 3.857v2.571c0 0.228-0.201 0.429-0.429 0.429h-16.286c-0.228 0-0.429-0.201-0.429-0.429v-2.571c0-0.228 0.201-0.429 0.429-0.429h16.286c0.228 0 0.429 0.201 0.429 0.429z"></path>
</svg>
