<!-- Generated by IcoMoon.io -->
<svg version="1.1" xmlns="http://www.w3.org/2000/svg" width="24" height="24" viewBox="0 0 24 24">
<path d="M5.103 21.696c0 1.473-1.152 2.304-2.545 2.304-0.844 0-1.701-0.281-2.304-0.884l0.763-1.179c0.362 0.335 0.911 0.603 1.42 0.603 0.469 0 0.964-0.228 0.964-0.763 0-0.75-0.857-0.79-1.406-0.75l-0.348-0.75c0.482-0.616 0.924-1.299 1.5-1.821v-0.013c-0.429 0-0.871 0.027-1.299 0.027v0.71h-1.42v-2.036h4.46v1.179l-1.272 1.54c0.897 0.214 1.487 0.911 1.487 1.835zM5.129 13.299v2.129h-4.848c-0.040-0.241-0.080-0.482-0.080-0.723 0-2.478 3.027-2.853 3.027-3.978 0-0.455-0.281-0.696-0.723-0.696-0.469 0-0.857 0.402-1.085 0.777l-1.138-0.79c0.442-0.924 1.353-1.446 2.371-1.446 1.246 0 2.317 0.737 2.317 2.063 0 1.982-2.906 2.424-2.946 3.469h1.701v-0.804h1.406zM24 17.571v2.571c0 0.228-0.201 0.429-0.429 0.429h-16.286c-0.241 0-0.429-0.201-0.429-0.429v-2.571c0-0.241 0.188-0.429 0.429-0.429h16.286c0.228 0 0.429 0.188 0.429 0.429zM5.143 5.531v1.326h-4.487v-1.326h1.433c0-1.085 0.013-2.17 0.013-3.254v-0.161h-0.027c-0.147 0.295-0.415 0.496-0.67 0.723l-0.951-1.018 1.821-1.701h1.42v5.411h1.446zM24 10.714v2.571c0 0.228-0.201 0.429-0.429 0.429h-16.286c-0.241 0-0.429-0.201-0.429-0.429v-2.571c0-0.241 0.188-0.429 0.429-0.429h16.286c0.228 0 0.429 0.188 0.429 0.429zM24 3.857v2.571c0 0.228-0.201 0.429-0.429 0.429h-16.286c-0.241 0-0.429-0.201-0.429-0.429v-2.571c0-0.228 0.188-0.429 0.429-0.429h16.286c0.228 0 0.429 0.201 0.429 0.429z"></path>
</svg>
