<!-- Generated by IcoMoon.io -->
<svg version="1.1" xmlns="http://www.w3.org/2000/svg" width="24" height="24" viewBox="0 0 24 24">
<path d="M3.429 17.571v2.571c0 0.228-0.201 0.429-0.429 0.429h-2.571c-0.228 0-0.429-0.201-0.429-0.429v-2.571c0-0.228 0.201-0.429 0.429-0.429h2.571c0.228 0 0.429 0.201 0.429 0.429zM3.429 12.429v2.571c0 0.228-0.201 0.429-0.429 0.429h-2.571c-0.228 0-0.429-0.201-0.429-0.429v-2.571c0-0.228 0.201-0.429 0.429-0.429h2.571c0.228 0 0.429 0.201 0.429 0.429zM3.429 7.286v2.571c0 0.228-0.201 0.429-0.429 0.429h-2.571c-0.228 0-0.429-0.201-0.429-0.429v-2.571c0-0.228 0.201-0.429 0.429-0.429h2.571c0.228 0 0.429 0.201 0.429 0.429zM24 17.571v2.571c0 0.228-0.201 0.429-0.429 0.429h-18c-0.228 0-0.429-0.201-0.429-0.429v-2.571c0-0.228 0.201-0.429 0.429-0.429h18c0.228 0 0.429 0.201 0.429 0.429zM3.429 2.143v2.571c0 0.228-0.201 0.429-0.429 0.429h-2.571c-0.228 0-0.429-0.201-0.429-0.429v-2.571c0-0.228 0.201-0.429 0.429-0.429h2.571c0.228 0 0.429 0.201 0.429 0.429zM24 12.429v2.571c0 0.228-0.201 0.429-0.429 0.429h-18c-0.228 0-0.429-0.201-0.429-0.429v-2.571c0-0.228 0.201-0.429 0.429-0.429h18c0.228 0 0.429 0.201 0.429 0.429zM24 7.286v2.571c0 0.228-0.201 0.429-0.429 0.429h-18c-0.228 0-0.429-0.201-0.429-0.429v-2.571c0-0.228 0.201-0.429 0.429-0.429h18c0.228 0 0.429 0.201 0.429 0.429zM24 2.143v2.571c0 0.228-0.201 0.429-0.429 0.429h-18c-0.228 0-0.429-0.201-0.429-0.429v-2.571c0-0.228 0.201-0.429 0.429-0.429h18c0.228 0 0.429 0.201 0.429 0.429z"></path>
</svg>
