<!-- Generated by IcoMoon.io -->
<svg version="1.1" xmlns="http://www.w3.org/2000/svg" width="24" height="24" viewBox="0 0 24 24">
<path d="M5.143 15.857v0.857c0 0.228-0.201 0.429-0.429 0.429h-0.857c-0.228 0-0.429-0.201-0.429-0.429v-0.857c0-0.228 0.201-0.429 0.429-0.429h0.857c0.228 0 0.429 0.201 0.429 0.429zM5.143 12.429v0.857c0 0.228-0.201 0.429-0.429 0.429h-0.857c-0.228 0-0.429-0.201-0.429-0.429v-0.857c0-0.228 0.201-0.429 0.429-0.429h0.857c0.228 0 0.429 0.201 0.429 0.429zM5.143 9v0.857c0 0.228-0.201 0.429-0.429 0.429h-0.857c-0.228 0-0.429-0.201-0.429-0.429v-0.857c0-0.228 0.201-0.429 0.429-0.429h0.857c0.228 0 0.429 0.201 0.429 0.429zM20.571 15.857v0.857c0 0.228-0.201 0.429-0.429 0.429h-12.857c-0.228 0-0.429-0.201-0.429-0.429v-0.857c0-0.228 0.201-0.429 0.429-0.429h12.857c0.228 0 0.429 0.201 0.429 0.429zM20.571 12.429v0.857c0 0.228-0.201 0.429-0.429 0.429h-12.857c-0.228 0-0.429-0.201-0.429-0.429v-0.857c0-0.228 0.201-0.429 0.429-0.429h12.857c0.228 0 0.429 0.201 0.429 0.429zM20.571 9v0.857c0 0.228-0.201 0.429-0.429 0.429h-12.857c-0.228 0-0.429-0.201-0.429-0.429v-0.857c0-0.228 0.201-0.429 0.429-0.429h12.857c0.228 0 0.429 0.201 0.429 0.429zM22.286 18.429v-11.143c0-0.228-0.201-0.429-0.429-0.429h-19.714c-0.228 0-0.429 0.201-0.429 0.429v11.143c0 0.228 0.201 0.429 0.429 0.429h19.714c0.228 0 0.429-0.201 0.429-0.429zM24 3.857v14.571c0 1.179-0.964 2.143-2.143 2.143h-19.714c-1.179 0-2.143-0.964-2.143-2.143v-14.571c0-1.179 0.964-2.143 2.143-2.143h19.714c1.179 0 2.143 0.964 2.143 2.143z"></path>
</svg>
