<!-- Generated by IcoMoon.io -->
<svg version="1.1" xmlns="http://www.w3.org/2000/svg" width="10" height="24" viewBox="0 0 10 24">
<path d="M10.246 17.397c0.067 0.161 0.040 0.335-0.067 0.469l-4.687 5.143c-0.080 0.080-0.188 0.134-0.308 0.134v0c-0.121 0-0.241-0.054-0.321-0.134l-4.754-5.143c-0.107-0.134-0.134-0.308-0.067-0.469 0.067-0.147 0.214-0.254 0.388-0.254h3v-16.714c0-0.241 0.188-0.429 0.429-0.429h2.571c0.241 0 0.429 0.188 0.429 0.429v16.714h3c0.174 0 0.321 0.094 0.388 0.254z"></path>
</svg>
