<!-- Generated by IcoMoon.io -->
<svg version="1.1" xmlns="http://www.w3.org/2000/svg" width="24" height="24" viewBox="0 0 24 24">
<path d="M4.487 18.161c-0.027 0-0.054-0.013-0.080-0.027-1.567-1.045-3.134-2.759-4.125-4.353-0.188-0.268-0.281-0.589-0.281-0.924 0-0.696 0.482-1.259 0.871-1.781 1.554-2.116 3.629-3.857 6.054-4.888-0.201-0.362-1.473-2.585-1.473-2.826 0-0.161 0.094-0.308 0.228-0.388 0.268-0.147 1.473-0.857 1.714-0.857 0.147 0 0.295 0.080 0.375 0.214l1.661 3.067c0.844-0.174 1.714-0.254 2.571-0.254 4.848 0 9.161 2.746 11.732 6.79 0.174 0.268 0.268 0.589 0.268 0.924s-0.094 0.656-0.268 0.924c-1.594 2.504-3.924 4.58-6.656 5.746 0.201 0.362 1.473 2.585 1.473 2.826 0 0.161-0.080 0.308-0.228 0.388-0.268 0.147-1.473 0.857-1.701 0.857-0.161 0-0.308-0.080-0.388-0.214l-1.661-3.067-0.857-1.594-5.946-10.982 0.094-0.094c-0.455 0.188-0.897 0.388-1.326 0.629 0.161 0.308 6.549 12.040 6.549 12.134 0 0.067-0.054 0.107-0.121 0.121-0.295 0.067-0.67 0.040-0.964 0.040-0.147 0-0.75 0.027-0.804-0.094l-6.107-11.263c-0.388 0.281-0.75 0.589-1.098 0.911 0.295 0.522 5.411 9.938 5.411 10.018 0 0.107-0.067 0.134-0.147 0.134-0.228 0-2.009-0.549-2.076-0.67l-1.42-2.638-3-5.531c-0.375 0.455-0.723 0.924-1.045 1.42 0.174 0.254 0.402 0.522 0.549 0.79 0.188 0.348 2.357 4.299 2.357 4.379 0 0.067-0.067 0.134-0.134 0.134zM15.603 16.795l0.656 1.219c2.504-1.018 4.567-2.893 6.027-5.156-1.487-2.29-3.603-4.192-6.147-5.21 1.192 1.138 1.862 2.705 1.862 4.353 0 1.888-0.884 3.67-2.397 4.795zM11.357 8.571c0 0.348 0.295 0.643 0.643 0.643 0.737 0 1.446 0.295 1.969 0.817s0.817 1.232 0.817 1.969c0 0.348 0.295 0.643 0.643 0.643s0.643-0.295 0.643-0.643c0-2.25-1.821-4.071-4.071-4.071-0.348 0-0.643 0.295-0.643 0.643zM16.259 7.701l-0.121-0.054 0.094 0.094z"></path>
</svg>
