<!-- Generated by IcoMoon.io -->
<svg version="1.1" xmlns="http://www.w3.org/2000/svg" width="23" height="24" viewBox="0 0 23 24">
<path d="M15.938 7.781l3.924-3.924-1.433-1.433-3.924 3.924zM21.924 3.857c0 0.228-0.080 0.442-0.241 0.603l-17.223 17.223c-0.161 0.161-0.375 0.241-0.603 0.241s-0.442-0.080-0.603-0.241l-2.652-2.652c-0.161-0.161-0.241-0.375-0.241-0.603s0.080-0.442 0.241-0.603l17.223-17.223c0.161-0.161 0.375-0.241 0.603-0.241s0.442 0.080 0.603 0.241l2.652 2.652c0.161 0.161 0.241 0.375 0.241 0.603zM3.83 1.313l1.313 0.402-1.313 0.402-0.402 1.313-0.402-1.313-1.312-0.402 1.312-0.402 0.402-1.313zM8.518 3.482l2.625 0.804-2.625 0.804-0.804 2.625-0.804-2.625-2.625-0.804 2.625-0.804 0.804-2.625zM20.973 9.884l1.313 0.402-1.313 0.402-0.402 1.313-0.402-1.313-1.313-0.402 1.313-0.402 0.402-1.313zM12.402 1.313l1.313 0.402-1.313 0.402-0.402 1.313-0.402-1.313-1.313-0.402 1.313-0.402 0.402-1.313z"></path>
</svg>
