<!-- Generated by IcoMoon.io -->
<svg version="1.1" xmlns="http://www.w3.org/2000/svg" width="21" height="24" viewBox="0 0 21 24">
<path d="M20.571 11.143v1.714c0 5.464-4.326 9.429-10.286 9.429s-10.286-3.964-10.286-9.429v-1.714c0-0.469 0.388-0.857 0.857-0.857h5.143c0.469 0 0.857 0.388 0.857 0.857v1.714c0 2.451 2.853 2.571 3.429 2.571s3.429-0.121 3.429-2.571v-1.714c0-0.469 0.388-0.857 0.857-0.857h5.143c0.469 0 0.857 0.388 0.857 0.857zM6.857 2.571v5.143c0 0.469-0.388 0.857-0.857 0.857h-5.143c-0.469 0-0.857-0.388-0.857-0.857v-5.143c0-0.469 0.388-0.857 0.857-0.857h5.143c0.469 0 0.857 0.388 0.857 0.857zM20.571 2.571v5.143c0 0.469-0.388 0.857-0.857 0.857h-5.143c-0.469 0-0.857-0.388-0.857-0.857v-5.143c0-0.469 0.388-0.857 0.857-0.857h5.143c0.469 0 0.857 0.388 0.857 0.857z"></path>
</svg>
