<!-- Generated by IcoMoon.io -->
<svg version="1.1" xmlns="http://www.w3.org/2000/svg" width="24" height="24" viewBox="0 0 24 24">
<path d="M8.571 14.491v0.938c0 0.348-0.214 0.656-0.522 0.79-0.107 0.040-0.228 0.067-0.335 0.067-0.228 0-0.442-0.080-0.603-0.254l-6.857-6.857c-0.335-0.335-0.335-0.871 0-1.205l6.857-6.857c0.241-0.254 0.616-0.321 0.938-0.188 0.308 0.134 0.522 0.442 0.522 0.79v0.924l-5.317 5.33c-0.335 0.335-0.335 0.871 0 1.205zM24 15c0 2.786-2.103 6.884-2.196 7.058-0.067 0.147-0.214 0.228-0.375 0.228-0.040 0-0.080 0-0.121-0.013-0.201-0.067-0.321-0.254-0.308-0.455 0.388-3.656-0.067-6.067-1.42-7.567-1.138-1.272-2.987-1.955-5.866-2.183v3.362c0 0.348-0.214 0.656-0.522 0.79-0.107 0.040-0.228 0.067-0.335 0.067-0.228 0-0.442-0.080-0.603-0.254l-6.857-6.857c-0.335-0.335-0.335-0.871 0-1.205l6.857-6.857c0.241-0.254 0.616-0.321 0.938-0.188 0.308 0.134 0.522 0.442 0.522 0.79v3.509c3.696 0.254 6.335 1.232 8.022 2.96 2.022 2.076 2.263 4.888 2.263 6.817z"></path>
</svg>
