<!-- Generated by IcoMoon.io -->
<svg version="1.1" xmlns="http://www.w3.org/2000/svg" width="24" height="24" viewBox="0 0 24 24">
<path d="M24 15c0 1.875-0.938 4.326-1.701 6.040-0.147 0.308-0.295 0.737-0.496 1.018-0.094 0.134-0.188 0.228-0.375 0.228-0.268 0-0.429-0.214-0.429-0.469 0-0.214 0.054-0.455 0.067-0.67 0.040-0.549 0.067-1.098 0.067-1.647 0-6.388-3.79-7.5-9.563-7.5h-3v3.429c0 0.469-0.388 0.857-0.857 0.857-0.228 0-0.442-0.094-0.603-0.254l-6.857-6.857c-0.161-0.161-0.254-0.375-0.254-0.603s0.094-0.442 0.254-0.603l6.857-6.857c0.161-0.161 0.375-0.254 0.603-0.254 0.469 0 0.857 0.388 0.857 0.857v3.429h3c4.393 0 9.857 0.777 11.719 5.397 0.563 1.42 0.71 2.96 0.71 4.46z"></path>
</svg>
