<!-- Generated by IcoMoon.io -->
<svg version="1.1" xmlns="http://www.w3.org/2000/svg" width="27" height="24" viewBox="0 0 27 24">
<path d="M27.054 0.147c0.228 0.161 0.375 0.429 0.375 0.71v18.857c0 0.348-0.214 0.67-0.536 0.79l-8.571 3.429c-0.214 0.094-0.429 0.094-0.643 0l-8.25-3.295-8.25 3.295c-0.107 0.054-0.214 0.067-0.321 0.067-0.174 0-0.335-0.054-0.482-0.147-0.228-0.161-0.375-0.429-0.375-0.71v-18.857c0-0.348 0.214-0.67 0.536-0.79l8.571-3.429c0.214-0.094 0.429-0.094 0.643 0l8.25 3.295 8.25-3.295c0.268-0.107 0.563-0.080 0.804 0.080zM9.857 1.955v17.009l7.714 3.080v-17.009zM1.714 4.862v17.009l7.286-2.906v-17.009zM25.714 19.138v-17.009l-7.286 2.906v17.009z"></path>
</svg>
