<!-- Generated by IcoMoon.io -->
<svg version="1.1" xmlns="http://www.w3.org/2000/svg" width="14" height="24" viewBox="0 0 14 24">
<path d="M6.857 14.571c0.589 0 1.165-0.067 1.714-0.201v8.772c0 0.469-0.388 0.857-0.857 0.857h-1.714c-0.469 0-0.857-0.388-0.857-0.857v-8.772c0.549 0.134 1.125 0.201 1.714 0.201zM6.857 0c3.79 0 6.857 3.067 6.857 6.857s-3.067 6.857-6.857 6.857-6.857-3.067-6.857-6.857 3.067-6.857 6.857-6.857zM6.857 3c0.241 0 0.429-0.188 0.429-0.429s-0.188-0.429-0.429-0.429c-2.598 0-4.714 2.116-4.714 4.714 0 0.241 0.188 0.429 0.429 0.429s0.429-0.188 0.429-0.429c0-2.129 1.728-3.857 3.857-3.857z"></path>
</svg>
