<!-- Generated by IcoMoon.io -->
<svg version="1.1" xmlns="http://www.w3.org/2000/svg" width="24" height="24" viewBox="0 0 24 24">
<path d="M23.371 3.978c0.174 0.174 0.174 0.442 0 0.616l-1.888 1.888c-0.241 0.241-0.576 0.375-0.911 0.375h-18c-0.469 0-0.857-0.388-0.857-0.857v-3.429c0-0.469 0.388-0.857 0.857-0.857h7.714v-0.857c0-0.469 0.388-0.857 0.857-0.857h1.714c0.469 0 0.857 0.388 0.857 0.857v0.857h6.857c0.335 0 0.67 0.134 0.911 0.375zM10.286 16.286h3.429v6.857c0 0.469-0.388 0.857-0.857 0.857h-1.714c-0.469 0-0.857-0.388-0.857-0.857v-6.857zM21.429 10.286c0.469 0 0.857 0.388 0.857 0.857v3.429c0 0.469-0.388 0.857-0.857 0.857h-18c-0.335 0-0.67-0.134-0.911-0.375l-1.888-1.888c-0.174-0.174-0.174-0.442 0-0.616l1.888-1.888c0.241-0.241 0.576-0.375 0.911-0.375h6.857v-2.571h3.429v2.571h7.714z"></path>
</svg>
