<!-- Generated by IcoMoon.io -->
<svg version="1.1" xmlns="http://www.w3.org/2000/svg" width="24" height="24" viewBox="0 0 24 24">
<path d="M6.857 0c0.228 0 0.429 0.201 0.429 0.429v19.714c0 0.161-0.094 0.308-0.228 0.375l-6.429 3.429c-0.067 0.040-0.134 0.054-0.201 0.054-0.228 0-0.429-0.201-0.429-0.429v-19.714c0-0.161 0.094-0.308 0.228-0.375l6.429-3.429c0.067-0.040 0.134-0.054 0.201-0.054zM23.571 0c0.228 0 0.429 0.201 0.429 0.429v19.714c0 0.161-0.094 0.308-0.228 0.375l-6.429 3.429c-0.067 0.040-0.134 0.054-0.201 0.054-0.228 0-0.429-0.201-0.429-0.429v-19.714c0-0.161 0.094-0.308 0.228-0.375l6.429-3.429c0.067-0.040 0.134-0.054 0.201-0.054zM8.571 0c0.067 0 0.134 0.013 0.188 0.040l6.857 3.429c0.147 0.080 0.241 0.228 0.241 0.388v19.714c0 0.228-0.201 0.429-0.429 0.429-0.067 0-0.134-0.013-0.188-0.040l-6.857-3.429c-0.147-0.080-0.241-0.228-0.241-0.388v-19.714c0-0.228 0.201-0.429 0.429-0.429z"></path>
</svg>
