<!-- Generated by IcoMoon.io -->
<svg version="1.1" xmlns="http://www.w3.org/2000/svg" width="25" height="24" viewBox="0 0 25 24">
<path d="M20.571 5.571c0-0.241 0.188-0.429 0.429-0.429h3.857c0.469 0 0.857 0.388 0.857 0.857v3.857c0 0.241-0.188 0.429-0.429 0.429h-0.857c-0.241 0-0.429-0.188-0.429-0.429v-1.795l-3.402 3.415c1.313 1.647 1.969 3.83 1.567 6.174-0.563 3.254-3.214 5.813-6.482 6.268-3.83 0.536-7.219-1.754-8.384-5.089-4.232-0.214-7.567-3.857-7.286-8.21 0.241-3.67 3.147-6.723 6.804-7.138 2.156-0.254 4.165 0.415 5.705 1.634l3.415-3.402h-1.795c-0.241 0-0.429-0.188-0.429-0.429v-0.857c0-0.241 0.188-0.429 0.429-0.429h3.857c0.469 0 0.857 0.388 0.857 0.857v3.857c0 0.241-0.188 0.429-0.429 0.429h-0.857c-0.241 0-0.429-0.188-0.429-0.429v-1.795l-3.402 3.415c0.536 0.67 0.951 1.433 1.246 2.263 1.661 0.080 3.174 0.696 4.393 1.661l3.415-3.402h-1.795c-0.241 0-0.429-0.188-0.429-0.429v-0.857zM13.714 11.143c0-0.268-0.027-0.522-0.054-0.777-2.879 0.442-5.089 2.92-5.089 5.92 0 0.268 0.027 0.522 0.054 0.777 2.879-0.442 5.089-2.92 5.089-5.92zM1.714 11.143c0 3.027 2.263 5.531 5.183 5.933-0.027-0.254-0.040-0.522-0.040-0.79 0-3.777 2.732-6.924 6.335-7.58-0.938-2.103-3.040-3.562-5.478-3.562-3.308 0-6 2.692-6 6zM14.571 22.286c3.308 0 6-2.692 6-6 0-3.027-2.263-5.531-5.183-5.933 0.027 0.254 0.040 0.522 0.040 0.79 0 3.777-2.732 6.924-6.335 7.58 0.938 2.103 3.040 3.563 5.478 3.563z"></path>
</svg>
