<!-- Generated by IcoMoon.io -->
<svg version="1.1" xmlns="http://www.w3.org/2000/svg" width="21" height="24" viewBox="0 0 21 24">
<path d="M19.714 1.714c0.469 0 0.857 0.388 0.857 0.857v5.571c0 0.241-0.188 0.429-0.429 0.429h-0.857c-0.241 0-0.429-0.188-0.429-0.429v-3.509l-5.116 5.129c1.058 1.313 1.688 2.987 1.688 4.808 0 4.259-3.455 7.714-7.714 7.714s-7.714-3.455-7.714-7.714 3.455-7.714 7.714-7.714c1.821 0 3.496 0.629 4.808 1.688l5.116-5.116h-3.496c-0.241 0-0.429-0.188-0.429-0.429v-0.857c0-0.241 0.188-0.429 0.429-0.429h5.571zM7.714 20.571c3.308 0 6-2.692 6-6s-2.692-6-6-6-6 2.692-6 6 2.692 6 6 6z"></path>
</svg>
