<!-- Generated by IcoMoon.io -->
<svg version="1.1" xmlns="http://www.w3.org/2000/svg" width="15" height="24" viewBox="0 0 15 24">
<path d="M8.571 8.625c3.857 0.429 6.857 3.696 6.857 7.661 0 4.554-3.938 8.183-8.598 7.661-3.616-0.402-6.509-3.388-6.804-7.031-0.335-4.246 2.772-7.848 6.83-8.29v-1.768h-2.143c-0.241 0-0.429-0.188-0.429-0.429v-0.857c0-0.241 0.188-0.429 0.429-0.429h2.143v-2.21l-1.232 1.232c-0.174 0.161-0.442 0.161-0.603 0l-0.616-0.616c-0.161-0.161-0.161-0.429 0-0.603l2.705-2.692c0.335-0.335 0.871-0.335 1.205 0l2.705 2.692c0.161 0.174 0.161 0.442 0 0.603l-0.616 0.616c-0.161 0.161-0.429 0.161-0.603 0l-1.232-1.232v2.21h2.143c0.241 0 0.429 0.188 0.429 0.429v0.857c0 0.241-0.188 0.429-0.429 0.429h-2.143v1.768zM7.714 22.286c3.308 0 6-2.692 6-6s-2.692-6-6-6-6 2.692-6 6 2.692 6 6 6z"></path>
</svg>
