<!-- Generated by IcoMoon.io -->
<svg version="1.1" xmlns="http://www.w3.org/2000/svg" width="25" height="24" viewBox="0 0 25 24">
<path d="M25.46 12.254c0.335 0.335 0.335 0.871 0 1.205l-3.938 3.938c-0.161 0.174-0.442 0.174-0.603 0l-0.603-0.603c-0.174-0.161-0.174-0.442 0-0.603l2.478-2.478h-3.938v3c0 0.241-0.188 0.429-0.429 0.429h-0.857c-0.241 0-0.429-0.188-0.429-0.429v-3h-1.768c-0.429 3.857-3.696 6.857-7.661 6.857-4.554 0-8.183-3.938-7.661-8.598 0.402-3.616 3.388-6.509 7.031-6.804 4.246-0.335 7.848 2.772 8.29 6.83h1.768v-3c0-0.241 0.188-0.429 0.429-0.429h0.857c0.241 0 0.429 0.188 0.429 0.429v3h3.938l-2.478-2.478c-0.174-0.161-0.174-0.442 0-0.603l0.603-0.603c0.161-0.174 0.442-0.174 0.603 0zM7.714 18.857c3.308 0 6-2.692 6-6s-2.692-6-6-6-6 2.692-6 6 2.692 6 6 6z"></path>
</svg>
