<!-- Generated by IcoMoon.io -->
<svg version="1.1" xmlns="http://www.w3.org/2000/svg" width="21" height="24" viewBox="0 0 21 24">
<path d="M17.558 11.277v1.527c0 0.429-0.254 0.696-0.683 0.696h-2.705c-0.429 0-0.696-0.268-0.696-0.696v-1.527c0-0.429 0.268-0.696 0.696-0.696h2.705c0.429 0 0.683 0.268 0.683 0.696zM10.996 14.357v-3.348c0-0.951-0.629-1.58-1.58-1.58h-1.781c-0.603 0-1.045 0.254-1.286 0.696-0.241-0.442-0.683-0.696-1.286-0.696h-1.741c-0.938 0-1.58 0.629-1.58 1.58v3.348c0 0.201 0.094 0.295 0.281 0.295h0.737c0.201 0 0.295-0.094 0.295-0.295v-3.080c0-0.429 0.254-0.696 0.696-0.696h1.259c0.429 0 0.696 0.268 0.696 0.696v3.080c0 0.201 0.080 0.295 0.281 0.295h0.723c0.201 0 0.295-0.094 0.295-0.295v-3.080c0-0.429 0.268-0.696 0.696-0.696h1.299c0.429 0 0.683 0.268 0.683 0.696v3.080c0 0.201 0.094 0.295 0.295 0.295h0.737c0.188 0 0.281-0.094 0.281-0.295zM18.884 13.071v-2.063c0-0.951-0.643-1.58-1.594-1.58h-3.536c-0.951 0-1.594 0.629-1.594 1.58v5.491c0 0.201 0.107 0.281 0.295 0.281h0.737c0.201 0 0.281-0.080 0.281-0.281v-2.411c0.254 0.348 0.656 0.563 1.259 0.563h2.558c0.951 0 1.594-0.643 1.594-1.58zM20.571 4.821v14.357c0 1.714-1.393 3.107-3.107 3.107h-14.357c-1.714 0-3.107-1.393-3.107-3.107v-14.357c0-1.714 1.393-3.107 3.107-3.107h14.357c1.714 0 3.107 1.393 3.107 3.107z"></path>
</svg>
