<!-- Generated by IcoMoon.io -->
<svg version="1.1" xmlns="http://www.w3.org/2000/svg" width="24" height="24" viewBox="0 0 24 24">
<path d="M7.996 5.638v15.71c0 0.415-0.201 0.804-0.656 0.804-0.161 0-0.308-0.040-0.442-0.107l-6.228-3.121c-0.375-0.188-0.67-0.67-0.67-1.071v-15.268c0-0.335 0.161-0.643 0.522-0.643 0.214 0 0.402 0.107 0.589 0.201l6.844 3.429c0.013 0.013 0.040 0.054 0.040 0.067zM8.853 6.991l7.152 11.598-7.152-3.563v-8.036zM24 7.232v14.116c0 0.442-0.254 0.75-0.696 0.75-0.228 0-0.442-0.067-0.629-0.174l-5.906-2.946zM23.96 5.625c0 0.054-6.924 11.29-7.46 12.147l-5.223-8.491 4.339-7.058c0.147-0.241 0.415-0.375 0.696-0.375 0.121 0 0.241 0.027 0.348 0.080l7.246 3.616c0.027 0.013 0.054 0.040 0.054 0.080z"></path>
</svg>
