<!-- Generated by IcoMoon.io -->
<svg version="1.1" xmlns="http://www.w3.org/2000/svg" width="24" height="24" viewBox="0 0 24 24">
<path d="M17.143 15v-2.571c0-0.241-0.188-0.429-0.429-0.429h-3v-3c0-0.241-0.188-0.429-0.429-0.429h-2.571c-0.241 0-0.429 0.188-0.429 0.429v3h-3c-0.241 0-0.429 0.188-0.429 0.429v2.571c0 0.241 0.188 0.429 0.429 0.429h3v3c0 0.241 0.188 0.429 0.429 0.429h2.571c0.241 0 0.429-0.188 0.429-0.429v-3h3c0.241 0 0.429-0.188 0.429-0.429zM8.571 5.143h6.857v-1.714h-6.857v1.714zM3.429 5.143v17.143h-0.429c-1.647 0-3-1.353-3-3v-11.143c0-1.647 1.353-3 3-3h0.429zM19.286 5.143v17.143h-14.571v-17.143h2.143v-2.143c0-0.71 0.576-1.286 1.286-1.286h7.714c0.71 0 1.286 0.576 1.286 1.286v2.143h2.143zM24 8.143v11.143c0 1.647-1.353 3-3 3h-0.429v-17.143h0.429c1.647 0 3 1.353 3 3z"></path>
</svg>
