<!-- Generated by IcoMoon.io -->
<svg version="1.1" xmlns="http://www.w3.org/2000/svg" width="26" height="24" viewBox="0 0 26 24">
<path d="M17.866 16.527c-0.147-0.964-1.915-0.214-2.022-1.272-0.147-1.5 2.049-4.741 1.875-6-0.161-1.125-0.911-1.366-1.567-1.379-0.629-0.013-0.79 0.094-1.004 0.214-0.134 0.080-0.308 0.228-0.549-0.013-0.295-0.281-0.522-0.549-0.911-0.603-0.576-0.094-0.83 0.094-1.246 0.455-0.161 0.134-0.563 0.603-0.938 0.429-0.161-0.080-0.723-0.362-1.125-0.536-0.763-0.335-1.875 0.214-2.277 0.938-0.603 1.071-1.781 5.304-1.955 5.866-0.402 1.246 0.509 2.277 1.728 2.21 0.522-0.027 0.857-0.214 1.192-0.817 0.188-0.348 1.955-5.049 2.089-5.277 0.094-0.161 0.415-0.375 0.683-0.241 0.268 0.147 0.321 0.442 0.281 0.71-0.054 0.455-1.313 3.321-1.353 3.643-0.161 1.071 1.259 1.246 1.808 0.188 0.174-0.335 2.143-4.339 2.317-4.607 0.201-0.295 0.348-0.388 0.549-0.375 0.147 0 0.388 0.040 0.335 0.509-0.067 0.442-1.647 3.388-1.821 4.112-0.214 0.964 0.308 1.942 1.165 2.371 0.536 0.268 2.933 0.737 2.746-0.522zM5.129 19.42c0.054 0.268-0.107 0.522-0.375 0.576-0.254 0.054-0.509-0.107-0.563-0.375-0.054-0.254 0.107-0.522 0.362-0.576s0.522 0.107 0.576 0.375zM12.763 22.942c0.214 0.308 0.134 0.723-0.161 0.938-0.308 0.214-0.723 0.134-0.938-0.174-0.201-0.308-0.121-0.723 0.174-0.938 0.308-0.214 0.723-0.134 0.924 0.174zM2.371 12.067c-0.321 0.482-0.964 0.603-1.433 0.268-0.469-0.321-0.589-0.978-0.268-1.446 0.321-0.482 0.964-0.603 1.433-0.281 0.469 0.335 0.589 0.978 0.268 1.46zM19.647 21.134c0.335 0.496 0.214 1.179-0.281 1.527-0.496 0.335-1.165 0.214-1.5-0.281s-0.214-1.179 0.268-1.527c0.496-0.348 1.165-0.214 1.513 0.281zM21.147 13.045c1.232 2.022 0.71 4.688-1.232 6.054-0.817 0.576-1.741 0.83-2.665 0.804-0.563 2.21-3.254 3.027-4.929 1.527-0.054 0.040-0.121 0.080-0.174 0.134-1.835 1.272-4.326 0.817-5.598-1.045-0.455-0.67-0.683-1.433-0.71-2.196-3.067-0.509-4.219-4.406-1.929-6.549-1.326-2.196 0.027-5.036 2.504-5.384 1.179-3.107 5.049-4.58 7.674-2.545 3.161-1.045 6.388 1.379 6.134 4.741 1.929 0.589 2.478 3.134 0.924 4.46zM6.094 4.205c0.241 0.362 0.161 0.857-0.201 1.112-0.348 0.241-0.844 0.161-1.085-0.201s-0.161-0.857 0.201-1.112c0.348-0.241 0.844-0.161 1.085 0.201zM8.223 0.442c0.067 0.295-0.121 0.589-0.415 0.656s-0.589-0.121-0.656-0.429c-0.054-0.295 0.134-0.589 0.429-0.656s0.589 0.121 0.643 0.429zM24.107 13.138c0.080 0.362-0.147 0.71-0.496 0.777-0.348 0.080-0.696-0.147-0.763-0.496-0.080-0.362 0.147-0.71 0.496-0.79 0.348-0.067 0.696 0.161 0.763 0.509zM15.214 1.179c0.281 0.482 0.134 1.125-0.362 1.42-0.482 0.295-1.112 0.134-1.393-0.348-0.295-0.496-0.134-1.138 0.348-1.433s1.112-0.134 1.406 0.362zM25.205 9.964c0.067 0.268-0.107 0.522-0.362 0.589-0.268 0.054-0.522-0.121-0.576-0.375-0.054-0.268 0.107-0.536 0.375-0.589 0.254-0.054 0.509 0.107 0.563 0.375zM22.647 6.737c0.268 0.402 0.174 0.951-0.214 1.232-0.402 0.268-0.951 0.174-1.219-0.228s-0.174-0.951 0.228-1.232c0.388-0.281 0.938-0.174 1.205 0.228z"></path>
</svg>
