<!-- Generated by IcoMoon.io -->
<svg version="1.1" xmlns="http://www.w3.org/2000/svg" width="21" height="24" viewBox="0 0 21 24">
<path d="M15.429 14.571c0 0.469-0.388 0.857-0.857 0.857h-8.571c-0.469 0-0.857-0.388-0.857-0.857s0.388-0.857 0.857-0.857h8.571c0.469 0 0.857 0.388 0.857 0.857zM8.571 8.571c0 0.951-0.763 1.714-1.714 1.714s-1.714-0.763-1.714-1.714 0.763-1.714 1.714-1.714 1.714 0.763 1.714 1.714zM15.429 8.571c0 0.951-0.763 1.714-1.714 1.714s-1.714-0.763-1.714-1.714 0.763-1.714 1.714-1.714 1.714 0.763 1.714 1.714zM18.857 12c0-4.728-3.844-8.571-8.571-8.571s-8.571 3.844-8.571 8.571 3.844 8.571 8.571 8.571 8.571-3.844 8.571-8.571zM20.571 12c0 5.679-4.607 10.286-10.286 10.286s-10.286-4.607-10.286-10.286 4.607-10.286 10.286-10.286 10.286 4.607 10.286 10.286z"></path>
</svg>
