<!-- Generated by IcoMoon.io -->
<svg version="1.1" xmlns="http://www.w3.org/2000/svg" width="15" height="24" viewBox="0 0 15 24">
<path d="M11.116 4.232c2.545 1.259 4.313 3.884 4.313 6.911 0 3.964-3 7.232-6.857 7.661v1.768h1.286c0.241 0 0.429 0.188 0.429 0.429v0.857c0 0.241-0.188 0.429-0.429 0.429h-1.286v1.286c0 0.241-0.188 0.429-0.429 0.429h-0.857c-0.241 0-0.429-0.188-0.429-0.429v-1.286h-1.286c-0.241 0-0.429-0.188-0.429-0.429v-0.857c0-0.241 0.188-0.429 0.429-0.429h1.286v-1.768c-3.857-0.429-6.857-3.696-6.857-7.661 0-3.027 1.768-5.652 4.313-6.911-1.406-0.817-2.504-2.103-3.054-3.656-0.107-0.281 0.107-0.576 0.402-0.576h0.924c0.174 0 0.321 0.107 0.388 0.268 0.777 1.862 2.612 3.161 4.741 3.161s3.964-1.299 4.741-3.161c0.067-0.161 0.214-0.268 0.496-0.268h0.817c0.295 0 0.509 0.295 0.402 0.576-0.549 1.554-1.647 2.839-3.054 3.656zM7.714 17.143c3.308 0 6-2.692 6-6s-2.692-6-6-6-6 2.692-6 6 2.692 6 6 6z"></path>
</svg>
