<!-- Generated by IcoMoon.io -->
<svg version="1.1" xmlns="http://www.w3.org/2000/svg" width="21" height="24" viewBox="0 0 21 24">
<path d="M2.571 17.143v1.714h-1.5c-0.121 0-0.214-0.094-0.214-0.214v-0.214h-0.643c-0.121 0-0.214-0.094-0.214-0.214v-0.429c0-0.121 0.094-0.214 0.214-0.214h0.643v-0.214c0-0.121 0.094-0.214 0.214-0.214h1.5zM2.571 13.714v1.714h-1.5c-0.121 0-0.214-0.094-0.214-0.214v-0.214h-0.643c-0.121 0-0.214-0.094-0.214-0.214v-0.429c0-0.121 0.094-0.214 0.214-0.214h0.643v-0.214c0-0.121 0.094-0.214 0.214-0.214h1.5zM2.571 10.286v1.714h-1.5c-0.121 0-0.214-0.094-0.214-0.214v-0.214h-0.643c-0.121 0-0.214-0.094-0.214-0.214v-0.429c0-0.121 0.094-0.214 0.214-0.214h0.643v-0.214c0-0.121 0.094-0.214 0.214-0.214h1.5zM2.571 6.857v1.714h-1.5c-0.121 0-0.214-0.094-0.214-0.214v-0.214h-0.643c-0.121 0-0.214-0.094-0.214-0.214v-0.429c0-0.121 0.094-0.214 0.214-0.214h0.643v-0.214c0-0.121 0.094-0.214 0.214-0.214h1.5zM2.571 3.429v1.714h-1.5c-0.121 0-0.214-0.094-0.214-0.214v-0.214h-0.643c-0.121 0-0.214-0.094-0.214-0.214v-0.429c0-0.121 0.094-0.214 0.214-0.214h0.643v-0.214c0-0.121 0.094-0.214 0.214-0.214h1.5zM17.143 1.286v19.714c0 0.71-0.576 1.286-1.286 1.286h-11.143c-0.71 0-1.286-0.576-1.286-1.286v-19.714c0-0.71 0.576-1.286 1.286-1.286h11.143c0.71 0 1.286 0.576 1.286 1.286zM20.571 17.786v0.429c0 0.121-0.094 0.214-0.214 0.214h-0.643v0.214c0 0.121-0.094 0.214-0.214 0.214h-1.5v-1.714h1.5c0.121 0 0.214 0.094 0.214 0.214v0.214h0.643c0.121 0 0.214 0.094 0.214 0.214zM20.571 14.357v0.429c0 0.121-0.094 0.214-0.214 0.214h-0.643v0.214c0 0.121-0.094 0.214-0.214 0.214h-1.5v-1.714h1.5c0.121 0 0.214 0.094 0.214 0.214v0.214h0.643c0.121 0 0.214 0.094 0.214 0.214zM20.571 10.929v0.429c0 0.121-0.094 0.214-0.214 0.214h-0.643v0.214c0 0.121-0.094 0.214-0.214 0.214h-1.5v-1.714h1.5c0.121 0 0.214 0.094 0.214 0.214v0.214h0.643c0.121 0 0.214 0.094 0.214 0.214zM20.571 7.5v0.429c0 0.121-0.094 0.214-0.214 0.214h-0.643v0.214c0 0.121-0.094 0.214-0.214 0.214h-1.5v-1.714h1.5c0.121 0 0.214 0.094 0.214 0.214v0.214h0.643c0.121 0 0.214 0.094 0.214 0.214zM20.571 4.071v0.429c0 0.121-0.094 0.214-0.214 0.214h-0.643v0.214c0 0.121-0.094 0.214-0.214 0.214h-1.5v-1.714h1.5c0.121 0 0.214 0.094 0.214 0.214v0.214h0.643c0.121 0 0.214 0.094 0.214 0.214z"></path>
</svg>
