<!-- Generated by IcoMoon.io -->
<svg version="1.1" xmlns="http://www.w3.org/2000/svg" width="15" height="24" viewBox="0 0 15 24">
<path d="M15.429 9.429v1.714c0 3.964-3 7.232-6.857 7.661v1.768h3.429c0.469 0 0.857 0.388 0.857 0.857s-0.388 0.857-0.857 0.857h-8.571c-0.469 0-0.857-0.388-0.857-0.857s0.388-0.857 0.857-0.857h3.429v-1.768c-3.857-0.429-6.857-3.696-6.857-7.661v-1.714c0-0.469 0.388-0.857 0.857-0.857s0.857 0.388 0.857 0.857v1.714c0 3.308 2.692 6 6 6s6-2.692 6-6v-1.714c0-0.469 0.388-0.857 0.857-0.857s0.857 0.388 0.857 0.857zM12 4.286v6.857c0 2.357-1.929 4.286-4.286 4.286s-4.286-1.929-4.286-4.286v-6.857c0-2.357 1.929-4.286 4.286-4.286s4.286 1.929 4.286 4.286z"></path>
</svg>
