<!-- Generated by IcoMoon.io -->
<svg version="1.1" xmlns="http://www.w3.org/2000/svg" width="19" height="24" viewBox="0 0 19 24">
<path d="M3.629 12.656l-1.353 1.353c-0.362-0.884-0.562-1.848-0.562-2.866v-1.714c0-0.469 0.388-0.857 0.857-0.857s0.857 0.388 0.857 0.857v1.714c0 0.522 0.080 1.031 0.201 1.513zM18.549 4.594l-4.835 4.835v1.714c0 2.357-1.929 4.286-4.286 4.286-0.509 0-1.004-0.094-1.46-0.254l-1.286 1.286c0.817 0.429 1.754 0.683 2.746 0.683 3.308 0 6-2.692 6-6v-1.714c0-0.469 0.388-0.857 0.857-0.857s0.857 0.388 0.857 0.857v1.714c0 3.964-3 7.232-6.857 7.661v1.768h3.429c0.469 0 0.857 0.388 0.857 0.857s-0.388 0.857-0.857 0.857h-8.571c-0.469 0-0.857-0.388-0.857-0.857s0.388-0.857 0.857-0.857h3.429v-1.768c-1.138-0.121-2.21-0.509-3.147-1.085l-3.402 3.402c-0.174 0.174-0.442 0.174-0.616 0l-1.098-1.098c-0.174-0.174-0.174-0.442 0-0.616l16.527-16.527c0.174-0.174 0.442-0.174 0.616 0l1.098 1.098c0.174 0.174 0.174 0.442 0 0.616zM13.46 2.826l-8.317 8.317v-6.857c0-2.357 1.929-4.286 4.286-4.286 1.848 0 3.429 1.192 4.031 2.826z"></path>
</svg>
