<!-- Generated by IcoMoon.io -->
<svg version="1.1" xmlns="http://www.w3.org/2000/svg" width="31" height="24" viewBox="0 0 31 24">
<path d="M22.031 14.705c0-1.071-0.683-1.982-1.621-2.344-0.067 0.415-0.174 0.83-0.308 1.232-0.134 0.429-0.536 0.696-0.964 0.696-0.107 0-0.214-0.013-0.321-0.040-0.549-0.188-0.83-0.763-0.656-1.299 0.201-0.616 0.308-1.259 0.308-1.915 0-3.348-2.732-6.080-6.094-6.080-2.411 0-4.58 1.433-5.545 3.576 0.938 0.241 1.808 0.723 2.518 1.42 0.402 0.402 0.402 1.058 0 1.46s-1.058 0.402-1.46 0c-0.643-0.643-1.5-1.004-2.411-1.004-1.888 0-3.429 1.527-3.429 3.415s1.54 3.415 3.429 3.415h14.009c1.406 0 2.545-1.138 2.545-2.531zM24.080 14.705c0 2.531-2.063 4.58-4.594 4.58h-14.009c-3.027 0-5.478-2.451-5.478-5.464 0-2.746 2.036-5.009 4.674-5.397 1.112-3.268 4.205-5.518 7.701-5.518 4.219 0 7.701 3.228 8.103 7.339 2.049 0.442 3.603 2.277 3.603 4.46zM27.429 14.705c0 1.527-0.442 3-1.299 4.272-0.201 0.295-0.522 0.442-0.857 0.442v0c-0.201 0-0.402-0.054-0.576-0.174-0.469-0.308-0.589-0.951-0.268-1.42 0.629-0.924 0.951-1.996 0.951-3.121 0-1.112-0.321-2.196-0.951-3.121-0.321-0.469-0.201-1.098 0.268-1.42s1.112-0.188 1.433 0.281c0.857 1.259 1.299 2.732 1.299 4.259zM30.857 14.705c0 2.129-0.616 4.179-1.795 5.933-0.201 0.295-0.522 0.455-0.857 0.455v0c-0.188 0-0.388-0.054-0.563-0.174-0.469-0.321-0.603-0.951-0.281-1.42 0.938-1.42 1.446-3.080 1.446-4.795s-0.509-3.375-1.446-4.781c-0.321-0.469-0.188-1.112 0.281-1.42 0.469-0.321 1.098-0.201 1.42 0.281 1.179 1.741 1.795 3.79 1.795 5.92z"></path>
</svg>
