<!-- Generated by IcoMoon.io -->
<svg version="1.1" xmlns="http://www.w3.org/2000/svg" width="10" height="24" viewBox="0 0 10 24">
<path d="M6.214 18.857c0-0.589-0.482-1.071-1.071-1.071s-1.071 0.482-1.071 1.071 0.482 1.071 1.071 1.071 1.071-0.482 1.071-1.071zM9 16.714v-9.429c0-0.228-0.201-0.429-0.429-0.429h-6.857c-0.228 0-0.429 0.201-0.429 0.429v9.429c0 0.228 0.201 0.429 0.429 0.429h6.857c0.228 0 0.429-0.201 0.429-0.429zM6.429 5.357c0-0.121-0.094-0.214-0.214-0.214h-2.143c-0.121 0-0.214 0.094-0.214 0.214s0.094 0.214 0.214 0.214h2.143c0.121 0 0.214-0.094 0.214-0.214zM10.286 5.143v13.714c0 0.938-0.777 1.714-1.714 1.714h-6.857c-0.938 0-1.714-0.777-1.714-1.714v-13.714c0-0.938 0.777-1.714 1.714-1.714h6.857c0.938 0 1.714 0.777 1.714 1.714z"></path>
</svg>
