<!-- Generated by IcoMoon.io -->
<svg version="1.1" xmlns="http://www.w3.org/2000/svg" width="26" height="24" viewBox="0 0 26 24">
<path d="M10.286 15.429h5.143v-1.286h-1.714v-6h-1.527l-1.982 1.835 1.031 1.071c0.321-0.281 0.522-0.429 0.737-0.763h0.027v3.857h-1.714v1.286zM17.143 12c0 2.438-1.473 5.571-4.286 5.571s-4.286-3.134-4.286-5.571 1.473-5.571 4.286-5.571 4.286 3.134 4.286 5.571zM24 15.429v-6.857c-1.888 0-3.429-1.54-3.429-3.429h-15.429c0 1.888-1.54 3.429-3.429 3.429v6.857c1.888 0 3.429 1.54 3.429 3.429h15.429c0-1.888 1.54-3.429 3.429-3.429zM25.714 4.286v15.429c0 0.469-0.388 0.857-0.857 0.857h-24c-0.469 0-0.857-0.388-0.857-0.857v-15.429c0-0.469 0.388-0.857 0.857-0.857h24c0.469 0 0.857 0.388 0.857 0.857z"></path>
</svg>
