<!-- Generated by IcoMoon.io -->
<svg version="1.1" xmlns="http://www.w3.org/2000/svg" width="20" height="24" viewBox="0 0 20 24">
<path d="M16.902 17.451c-0.482 0.080-0.978 0.121-1.473 0.121-4.969 0-9-4.031-9-9 0-1.701 0.496-3.362 1.393-4.781-3.563 1.058-6.107 4.326-6.107 8.21 0 4.728 3.844 8.571 8.571 8.571 2.585 0 5.009-1.179 6.616-3.121zM19.621 16.313c-1.674 3.629-5.344 5.973-9.335 5.973-5.665 0-10.286-4.621-10.286-10.286 0-5.558 4.353-10.071 9.897-10.272 0.375-0.013 0.683 0.201 0.817 0.522 0.147 0.335 0.054 0.723-0.201 0.964-1.527 1.393-2.371 3.295-2.371 5.357 0 4.018 3.268 7.286 7.286 7.286 1.058 0 2.076-0.228 3.054-0.683 0.335-0.147 0.71-0.080 0.964 0.174s0.321 0.643 0.174 0.964z"></path>
</svg>
