<!-- Generated by IcoMoon.io -->
<svg version="1.1" xmlns="http://www.w3.org/2000/svg" width="31" height="24" viewBox="0 0 31 24">
<path d="M30.817 13.875c0.429 3.763-2.638 6.924-6.375 6.683-2.866-0.188-5.25-2.478-5.545-5.344-0.214-2.036 0.589-3.871 1.955-5.103l-0.951-1.433c-1.688 1.406-2.759 3.509-2.759 5.866 0 0.482-0.375 0.884-0.857 0.884h-4.353c-0.415 2.906-2.906 5.143-5.933 5.143-3.308 0-6-2.692-6-6s2.692-6 6-6c0.71 0 1.393 0.134 2.036 0.362l0.321-0.603c-1.031-0.924-2.384-1.473-4.071-1.473h-0.857c-0.469 0-0.857-0.388-0.857-0.857s0.388-0.857 0.857-0.857h1.714c3 0 4.527 1.232 5.143 1.714h8.397l-1.138-1.714h-2.973c-0.522 0-0.938-0.469-0.844-1.004 0.067-0.415 0.469-0.71 0.884-0.71h3.388c0.281 0 0.549 0.147 0.71 0.375l0.938 1.406 1.527-1.527c0.161-0.161 0.388-0.254 0.616-0.254h1.353c0.469 0 0.857 0.388 0.857 0.857v1.714c0 0.469-0.388 0.857-0.857 0.857h-2.397l1.54 2.304c1.085-0.522 2.344-0.737 3.683-0.482 2.558 0.469 4.554 2.612 4.848 5.196zM6 18.857c2.076 0 3.804-1.473 4.205-3.429h-4.205c-0.295 0-0.576-0.161-0.737-0.415-0.147-0.254-0.161-0.576-0.013-0.844l1.969-3.71c-0.388-0.107-0.79-0.174-1.219-0.174-2.357 0-4.286 1.929-4.286 4.286s1.929 4.286 4.286 4.286zM24.857 18.857c2.357 0 4.286-1.929 4.286-4.286s-1.929-4.286-4.286-4.286c-0.576 0-1.112 0.121-1.621 0.321l2.33 3.482c0.268 0.402 0.161 0.938-0.228 1.192-0.147 0.107-0.321 0.147-0.482 0.147-0.281 0-0.549-0.134-0.71-0.388l-2.33-3.482c-0.763 0.777-1.246 1.835-1.246 3.013 0 2.357 1.929 4.286 4.286 4.286z"></path>
</svg>
