<!-- Generated by IcoMoon.io -->
<svg version="1.1" xmlns="http://www.w3.org/2000/svg" width="15" height="24" viewBox="0 0 15 24">
<path d="M15.174 13.969c0.254 0.241 0.321 0.616 0.188 0.924-0.134 0.321-0.442 0.536-0.79 0.536h-5.116l2.692 6.375c0.188 0.442-0.027 0.938-0.455 1.125l-2.371 1.004c-0.442 0.188-0.938-0.027-1.125-0.455l-2.558-6.054-4.179 4.179c-0.161 0.161-0.375 0.254-0.603 0.254-0.107 0-0.228-0.027-0.321-0.067-0.321-0.134-0.536-0.442-0.536-0.79v-20.143c0-0.348 0.214-0.656 0.536-0.79 0.094-0.040 0.214-0.067 0.321-0.067 0.228 0 0.442 0.080 0.603 0.254z"></path>
</svg>
