<!-- Generated by IcoMoon.io -->
<svg version="1.1" xmlns="http://www.w3.org/2000/svg" width="21" height="24" viewBox="0 0 21 24">
<path d="M20.571 3v15c0 1.888-2.826 2.571-4.286 2.571s-4.286-0.683-4.286-2.571 2.826-2.571 4.286-2.571c0.884 0 1.768 0.161 2.571 0.522v-7.192l-10.286 3.174v9.496c0 1.888-2.826 2.571-4.286 2.571s-4.286-0.683-4.286-2.571 2.826-2.571 4.286-2.571c0.884 0 1.768 0.161 2.571 0.522v-12.951c0-0.563 0.375-1.058 0.911-1.232l11.143-3.429c0.121-0.040 0.241-0.054 0.375-0.054 0.71 0 1.286 0.576 1.286 1.286z"></path>
</svg>
