<!-- Generated by IcoMoon.io -->
<svg version="1.1" xmlns="http://www.w3.org/2000/svg" width="27" height="24" viewBox="0 0 27 24">
<path d="M13.714 6.857h-5.143v5.143h5.143v-5.143zM15.429 15.429v1.714h-8.571v-1.714h8.571zM15.429 5.143v8.571h-8.571v-8.571h8.571zM24 15.429v1.714h-6.857v-1.714h6.857zM24 12v1.714h-6.857v-1.714h6.857zM24 8.571v1.714h-6.857v-1.714h6.857zM24 5.143v1.714h-6.857v-1.714h6.857zM3.429 18v-12.857h-1.714v12.857c0 0.469 0.388 0.857 0.857 0.857s0.857-0.388 0.857-0.857zM25.714 18v-14.571h-20.571v14.571c0 0.295-0.054 0.589-0.147 0.857h19.862c0.469 0 0.857-0.388 0.857-0.857zM27.429 1.714v16.286c0 1.42-1.152 2.571-2.571 2.571h-22.286c-1.42 0-2.571-1.152-2.571-2.571v-14.571h3.429v-1.714h24z"></path>
</svg>
