<!-- Generated by IcoMoon.io -->
<svg version="1.1" xmlns="http://www.w3.org/2000/svg" width="27" height="24" viewBox="0 0 27 24">
<path d="M27.429 5.143h-1.714v13.714h1.714v5.143h-5.143v-1.714h-17.143v1.714h-5.143v-5.143h1.714v-13.714h-1.714v-5.143h5.143v1.714h17.143v-1.714h5.143v5.143zM24 1.714v1.714h1.714v-1.714h-1.714zM1.714 1.714v1.714h1.714v-1.714h-1.714zM3.429 22.286v-1.714h-1.714v1.714h1.714zM22.286 20.571v-1.714h1.714v-13.714h-1.714v-1.714h-17.143v1.714h-1.714v13.714h1.714v1.714h17.143zM25.714 22.286v-1.714h-1.714v1.714h1.714zM17.143 8.571h5.143v10.286h-12v-3.429h-5.143v-10.286h12v3.429zM6.857 13.714h8.571v-6.857h-8.571v6.857zM20.571 17.143v-6.857h-3.429v5.143h-5.143v1.714h8.571z"></path>
</svg>
