<!-- Generated by IcoMoon.io -->
<svg version="1.1" xmlns="http://www.w3.org/2000/svg" width="31" height="24" viewBox="0 0 31 24">
<path d="M30.857 10.286h-1.714v8.571h1.714v5.143h-5.143v-1.714h-12v1.714h-5.143v-5.143h1.714v-1.714h-5.143v1.714h-5.143v-5.143h1.714v-8.571h-1.714v-5.143h5.143v1.714h12v-1.714h5.143v5.143h-1.714v1.714h5.143v-1.714h5.143v5.143zM27.429 6.857v1.714h1.714v-1.714h-1.714zM18.857 1.714v1.714h1.714v-1.714h-1.714zM1.714 1.714v1.714h1.714v-1.714h-1.714zM3.429 17.143v-1.714h-1.714v1.714h1.714zM20.571 15.429h-1.714v1.714h1.714v-1.714zM5.143 15.429h12v-1.714h1.714v-8.571h-1.714v-1.714h-12v1.714h-1.714v8.571h1.714v1.714zM12 22.286v-1.714h-1.714v1.714h1.714zM29.143 22.286v-1.714h-1.714v1.714h1.714zM27.429 18.857v-8.571h-1.714v-1.714h-5.143v5.143h1.714v5.143h-5.143v-1.714h-5.143v1.714h1.714v1.714h12v-1.714h1.714z"></path>
</svg>
