<!-- Generated by IcoMoon.io -->
<svg version="1.1" xmlns="http://www.w3.org/2000/svg" width="21" height="24" viewBox="0 0 21 24">
<path d="M12.415 7.768c0 1.179-0.951 2.129-2.129 2.129s-2.129-0.951-2.129-2.129 0.951-2.129 2.129-2.129 2.129 0.951 2.129 2.129zM15.281 12.629c-0.241-0.482-0.924-0.897-1.821-0.188 0 0-1.219 0.964-3.174 0.964s-3.174-0.964-3.174-0.964c-0.897-0.71-1.58-0.295-1.821 0.188-0.429 0.857 0.054 1.272 1.138 1.982 0.924 0.589 2.21 0.817 3.027 0.897l-0.683 0.696c-0.964 0.964-1.902 1.902-2.558 2.545-0.388 0.388-0.388 1.018 0 1.406l0.121 0.121c0.388 0.388 1.018 0.388 1.406 0l2.558-2.558c0.964 0.978 1.902 1.915 2.558 2.558 0.388 0.388 1.018 0.388 1.406 0l0.121-0.121c0.388-0.388 0.388-1.018 0-1.406l-2.558-2.545-0.696-0.696c0.83-0.080 2.089-0.308 3.013-0.897 1.085-0.71 1.567-1.125 1.138-1.982zM14.625 7.768c0-2.397-1.942-4.339-4.339-4.339s-4.339 1.942-4.339 4.339 1.942 4.339 4.339 4.339 4.339-1.942 4.339-4.339zM20.571 5.571v12.857c0 2.129-1.728 3.857-3.857 3.857h-12.857c-2.129 0-3.857-1.728-3.857-3.857v-12.857c0-2.129 1.728-3.857 3.857-3.857h12.857c2.129 0 3.857 1.728 3.857 3.857z"></path>
</svg>
