<!-- Generated by IcoMoon.io -->
<svg version="1.1" xmlns="http://www.w3.org/2000/svg" width="17" height="24" viewBox="0 0 17 24">
<path d="M8.571 12.147c-3.348 0-6.080-2.719-6.080-6.067 0-3.362 2.732-6.080 6.080-6.080s6.080 2.719 6.080 6.080c0 3.348-2.732 6.067-6.080 6.067zM8.571 3.080c-1.647 0-2.987 1.339-2.987 3 0 1.647 1.339 2.987 2.987 2.987s2.987-1.339 2.987-2.987c0-1.661-1.339-3-2.987-3zM15.576 12.884c0.589 1.205-0.080 1.781-1.607 2.772-1.286 0.817-3.054 1.138-4.219 1.259l0.978 0.964 3.576 3.576c0.536 0.549 0.536 1.433 0 1.969l-0.161 0.174c-0.549 0.536-1.433 0.536-1.982 0-0.897-0.911-2.21-2.223-3.576-3.589l-3.576 3.589c-0.549 0.536-1.433 0.536-1.969 0l-0.161-0.174c-0.549-0.536-0.549-1.42 0-1.969 0.911-0.911 2.21-2.223 3.576-3.576l0.964-0.964c-1.152-0.121-2.946-0.429-4.246-1.259-1.527-0.991-2.196-1.567-1.607-2.772 0.348-0.683 1.299-1.259 2.558-0.268 0 0 1.701 1.353 4.446 1.353s4.446-1.353 4.446-1.353c1.259-0.991 2.21-0.415 2.558 0.268z"></path>
</svg>
