<!-- Generated by IcoMoon.io -->
<svg version="1.1" xmlns="http://www.w3.org/2000/svg" width="37" height="24" viewBox="0 0 37 24">
<path d="M20.411 20.906c0 1.219-0.978 2.196-2.196 2.196s-2.21-0.978-2.21-2.196 0.991-2.21 2.21-2.21 2.196 0.991 2.196 2.21zM10.379 20.906c0 1.219-0.991 2.196-2.21 2.196s-2.196-0.978-2.196-2.196 0.978-2.21 2.196-2.21 2.21 0.991 2.21 2.21zM0 0.897c3.951 4.165 7.661 4.781 22.232 4.781s8.17 3.241-0.83 11.277c2.853-4.955 12.656-9.348-3.415-9.107-15.415 0.228-16.326-4.46-17.987-6.951z"></path>
</svg>
