<!-- Generated by IcoMoon.io -->
<svg version="1.1" xmlns="http://www.w3.org/2000/svg" width="24" height="24" viewBox="0 0 24 24">
<path d="M19.996 3.054c-1.406-0.938-3.054-1.473-4.808-1.473-2.853 0-5.371 1.46-7.138 3.656-1.286 1.607-2.183 3.884-2.25 6.482v0.563c0.067 2.598 0.964 4.875 2.25 6.482 1.768 2.196 4.286 3.656 7.138 3.656 1.754 0 3.402-0.536 4.808-1.473-2.116 1.902-4.929 3.054-7.996 3.054-0.188 0-0.388 0-0.576-0.013-6.362-0.295-11.424-5.545-11.424-11.987 0-6.629 5.371-12 12-12h0.040c3.054 0.013 5.839 1.165 7.955 3.054zM24 12c0 3.496-1.5 6.629-3.884 8.826-0.911 0.549-1.915 0.844-2.973 0.844-1.232 0-2.397-0.402-3.415-1.125 2.719-0.991 4.728-4.433 4.728-8.545 0-4.098-1.996-7.54-4.714-8.545 1.018-0.71 2.17-1.112 3.402-1.112 1.085 0 2.103 0.308 3.027 0.871 2.357 2.196 3.83 5.317 3.83 8.786z"></path>
</svg>
