<!-- Generated by IcoMoon.io -->
<svg version="1.1" xmlns="http://www.w3.org/2000/svg" width="31" height="24" viewBox="0 0 31 24">
<path d="M6.402 22.433c-0.134 0.281-0.522 0.67-0.857 0.804-0.469 0.161-1.045-0.147-1.071-0.469-0.027-0.415 1.004-1.165 1.446-1.246 0.429-0.080 0.629 0.563 0.482 0.911zM24.362 22.433c0.121 0.281 0.509 0.67 0.857 0.804 0.455 0.161 1.045-0.147 1.058-0.469 0.040-0.415-1.004-1.165-1.446-1.246-0.415-0.080-0.616 0.563-0.469 0.911zM25.004 20.973c0.241 0.482 1.192 1.192 1.795 1.353 0.817 0.228 1.594-0.161 1.594-0.737 0-0.884-1.674-2.063-2.451-2.143-0.737-0.094-1.219 0.951-0.938 1.527zM5.732 20.973c-0.241 0.482-1.179 1.192-1.781 1.353-0.817 0.228-1.594-0.161-1.594-0.737 0-0.884 1.674-2.063 2.451-2.143 0.737-0.094 1.219 0.951 0.924 1.527zM15.509 5.92h0.013c-0.362 0-0.71 0.067-1.018 0.201 0.469 0.147 0.817 0.576 0.817 1.071 0 0.629-0.549 1.138-1.232 1.138-0.455 0-0.857-0.241-1.071-0.576-0.040 0.188-0.067 0.362-0.067 0.563 0 1.326 1.138 2.397 2.558 2.397s2.571-1.071 2.571-2.397-1.152-2.397-2.571-2.397zM19.58 3c-1.768-1.942-4.031-2.371-6.241-1.165 1.246-2.786 6.054-2.411 6.241 1.165zM29.625 19.594c0.067 0.094-0.013 0.335-0.147 0.563 0.054 0.174 0.094 0.348 0.094 0.536 0.040 1.567-2.196 3.174-3.643 3.228-0.857 0.040-1.714-0.415-2.116-1.165-5.625 0.201-11.25 0.241-16.862 0-0.415 0.75-1.272 1.192-2.129 1.165-1.433-0.054-3.67-1.661-3.643-3.228 0.013-0.188 0.040-0.362 0.094-0.536-0.134-0.228-0.214-0.469-0.147-0.563 0.054-0.080 0.228-0.080 0.415-0.013 0.161-0.254 0.348-0.469 0.549-0.683-0.054-0.228-0.054-0.429 0.027-0.509 0.094-0.080 0.308-0.054 0.522 0.054 0.228-0.161 0.496-0.321 0.79-0.455 0-0.241 0.067-0.429 0.174-0.496 0.161-0.080 0.442-0.027 0.683 0.214 0.281-0.040 0.563-0.040 0.817 0.027 0.174 0.040 0.348 0.134 0.509 0.254v-0.978c-0.080 0-0.147 0-0.241-0.027-0.871-0.161-1.821-0.763-2.036-1.768-0.080-0.335-0.080-0.696 0-1.085 0.161-0.67 0.737-1.058 1.246-1.272 0.040-0.295 0.402-0.696 0.737-0.79 0.375-0.094 0.616 0.228 0.696 0.509h0.174c0.241 0.027 0.629 0.080 0.804 0.308 0.027 0.027 0.054 0.067 0.067 0.094 0.268-0.027 0.549-0.067 0.817-0.094-0.121-0.094-0.254-0.174-0.402-0.228-0.254-0.442-0.683-0.549-1.219-0.576 0-0.040 0-0.080 0.013-0.134-0.978-0.027-2.183-0.281-2.719-0.884-0.616-0.683-0.723-1.848-0.603-2.732 0.107-0.871 0.469-1.875 1.205-2.397 0.415-0.281 1.071-0.040 1.125 0.482 0.027 0.228 0.067 1.004 0.281 1.125 0.241 0.121 0.629 0.174 1.018 0.161 0.402-0.388 0.83-0.723 1.313-0.991-0.737-0.067-1.433 0.080-2.17 0.188l0.629-0.616c0.616-0.589 1.433-1.098 2.183-1.487 1.165-0.589 2.478-1.031 3.777-1.152-0.924-0.388-1.982-0.589-2.96-0.817 3.79-0.804 8.652-1.098 12.107 1.862 0.897 0.763 1.607 1.795 2.116 2.973 0.549 0.067 1.246 0.080 1.621-0.121h0.013c0.214-0.121 0.254-0.884 0.281-1.125 0.054-0.509 0.71-0.763 1.125-0.469 0.737 0.522 1.098 1.527 1.219 2.384 0.107 0.884 0.013 2.049-0.616 2.732-0.536 0.603-1.701 0.871-2.665 0.897v0.134c-0.549 0.013-1.004 0.121-1.272 0.576-0.147 0.054-0.281 0.134-0.415 0.228 0.281 0.027 0.563 0.067 0.83 0.094 0.013-0.040 0.040-0.080 0.067-0.107 0.188-0.214 0.576-0.281 0.804-0.308h0.174c0.080-0.268 0.335-0.589 0.696-0.509s0.696 0.496 0.737 0.79c0.536 0.214 1.098 0.603 1.246 1.272 0.094 0.402 0.080 0.75 0.013 1.085-0.228 1.004-1.179 1.621-2.049 1.768-0.067 0.013-0.161 0.027-0.228 0.027 0 0.335 0 0.656-0.013 0.978 0.161-0.121 0.321-0.214 0.509-0.254 0.254-0.067 0.536-0.067 0.817-0.027 0.241-0.241 0.536-0.295 0.683-0.214 0.107 0.067 0.188 0.254 0.188 0.496 0.281 0.134 0.563 0.295 0.79 0.455 0.214-0.107 0.415-0.134 0.509-0.054 0.080 0.080 0.094 0.281 0.027 0.509 0.201 0.214 0.402 0.442 0.549 0.683 0.188-0.067 0.348-0.067 0.415 0.013zM25.942 6.844c0 0.308-0.067 0.576-0.121 0.723 0.857 0.335 1.299 1.098 1.5 1.768 0.054-0.522-0.134-1.955-0.683-2.531-0.362-0.362-0.696-0.254-0.696 0.040zM24.897 8.183v0c0.643 0.777 0.844 2.063 0.629 3.121 0.536-0.107 1.018-0.308 1.299-0.603 0.094-0.107 0.188-0.241 0.241-0.375-0.054-1.058-0.509-2.116-1.473-2.424-0.161 0.161-0.455 0.241-0.696 0.281v0zM24.402 8.237c-0.188 0-0.402 0-0.589-0.013 0.375 1.018 0.616 2.116 0.71 3.201 0.174 0 0.375-0.013 0.576-0.040 0.295-1.205-0.013-2.558-0.696-3.147zM3.455 9.335c0.201-0.67 0.643-1.433 1.5-1.768-0.054-0.147-0.121-0.415-0.121-0.723 0-0.295-0.348-0.402-0.696-0.040-0.563 0.576-0.737 2.009-0.683 2.531zM3.938 10.701c0.281 0.308 0.763 0.496 1.299 0.603-0.214-1.058-0.013-2.344 0.629-3.121v0 0 0c-0.241-0.040-0.536-0.121-0.696-0.281-0.964 0.308-1.406 1.366-1.473 2.424 0.067 0.134 0.147 0.268 0.241 0.375zM6.308 11.424c0.121-1.098 0.455-2.17 0.978-3.147-0.254 0.054-0.496 0.147-0.737 0.241l-0.603 0.254v-0.013c-0.362 0.696-0.496 1.701-0.268 2.625 0.228 0.027 0.429 0.040 0.629 0.040zM19.205 11.946v0c0.174 0.884 0.241 1.768 0.375 2.652 0.054 0.308 0.147 0.375 0.442 0.228 0.79-0.402 1.125-1.942 1.138-2.826-0.643-0.040-1.299-0.040-1.955-0.054zM15.429 3.362c-2.076 0-3.777 1.688-3.777 3.763 0 2.089 1.701 3.777 3.777 3.777s3.777-1.688 3.777-3.777c0-2.076-1.701-3.763-3.777-3.763zM18.482 11.92c-0.938-0.013-1.888-0.013-2.826 0v-0.013c-0.013 0.254 0.013 1.888 0.214 2.036 0.549 0.268 1.955 0.228 2.531 0.054 0.268-0.080 0.121-1.835 0.080-2.076zM14.893 14.585c0.228-0.121 0.121-2.25 0.067-2.665v-0.013c-0.964 0.013-1.915 0.013-2.866 0.040-0.094 0.455-0.228 2.424 0.094 2.558 0.643 0.281 2.063 0.254 2.705 0.080zM9.616 12.054c-0.268 0.978 0.013 2.237 1.098 2.719 0.268 0.121 0.429 0.121 0.482-0.214 0.094-0.429 0.121-1.821 0.241-2.585v0c-0.603 0.013-1.219 0.040-1.821 0.080zM7.915 13.741c0.027 0.241-0.188 0.388-0.455 0.482 2.17 2.33 4.594 4.246 7.728 5.277 3.348-0.951 5.732-2.973 8.089-5.304-0.241-0.094-0.429-0.254-0.402-0.455 0.013-0.054 0.027-0.080 0.040-0.121v0 0c-0.442-0.040-0.884-0.094-1.313-0.134-0.469 1.634-1.781 2.625-2.317 1.567-0.134-0.254-0.174-0.576-0.228-0.83-0.188 0.415-0.656 0.402-1.219 0.442-0.656 0.054-1.567 0.067-2.183-0.147-0.147 0.643-0.549 0.643-1.326 0.71-0.696 0.067-2.411 0.201-2.719-0.536-0.054 1.42-1.741 0.496-2.237-0.348-0.161-0.281-0.268-0.563-0.348-0.871-0.388 0.040-0.777 0.080-1.165 0.134 0.027 0.040 0.040 0.094 0.054 0.134zM6.79 22.152c0.027-0.121 0.040-0.254 0.040-0.402-0.281-1.152-0.924-2.464-1.661-2.679-1.112-0.335-3.415 1.165-3.281 2.705 0.629 0.964 1.982 1.768 2.933 1.808 0.884 0.040 1.781-0.549 1.969-1.433zM6.83 19.862c0.161 0.442 0.321 1.031 0.362 1.594 1.661-0.964 3.429-1.768 5.25-2.33-1.915-1.018-3.375-2.371-4.821-3.817-0.107 0.067-0.254 0.121-0.388 0.174-0.013 0.040-0.013 0.080-0.027 0.121 0.228 0.134 0.388 0.295 0.295 0.496-0.107 0.201-0.429 0.375-0.75 0.455-0.107 0.134-0.254 0.241-0.388 0.321h-0.013c-0.013 0.67-0.013 1.339 0.013 2.009 0.188 0.335 0.348 0.683 0.469 0.978zM7.754 22.085c5.116 0.201 10.232 0.174 15.335 0-1.821-1.058-3.67-2.049-5.732-2.625-0.683 0.308-1.379 0.563-2.089 0.763-0.107 0.040-0.107 0.040-0.214 0-0.589-0.188-1.152-0.402-1.728-0.656-1.996 0.576-3.83 1.446-5.571 2.518h-0.013v0.013c0.013 0 0.013 0 0.013-0.013zM23.612 21.469c0.040-0.563 0.214-1.165 0.375-1.607 0.107-0.295 0.254-0.629 0.442-0.951l-0.013 0.013c0.027-0.683 0.040-1.366 0.040-2.049-0.147-0.080-0.281-0.201-0.402-0.335-0.321-0.067-0.643-0.254-0.75-0.442-0.094-0.201 0.067-0.375 0.295-0.509-0.013-0.027-0.027-0.080-0.027-0.121-0.147-0.040-0.268-0.094-0.375-0.161-1.567 1.46-3.241 2.813-5.129 3.804 1.929 0.576 3.763 1.393 5.545 2.357zM28.862 21.777c0.147-1.54-2.156-3.040-3.281-2.705-0.723 0.214-1.379 1.527-1.661 2.679 0 0.147 0.013 0.281 0.040 0.402 0.187 0.884 1.085 1.473 1.969 1.433 0.951-0.040 2.304-0.844 2.933-1.808z"></path>
</svg>
