<!-- Generated by IcoMoon.io -->
<svg version="1.1" xmlns="http://www.w3.org/2000/svg" width="19" height="24" viewBox="0 0 19 24">
<path d="M18.777 14.772c-2.692 6.683-9.147 2.638-9.147 2.638-1.982 4.004-5.25 6.576-9.027 6.589-0.335 0-0.603-0.268-0.603-0.603s0.268-0.589 0.603-0.589c3.147-0.013 5.893-2.089 7.688-5.384-2.009 0.777-5.799 1.366-7.902-4.018 5.33-2.196 7.781 0.549 8.719 2.223 0.482-1.192 0.83-2.491 1.058-3.897 0 0-6.83 1.071-7.313-4.795 5.826-2.344 7.46 3.75 7.46 3.75 0.080-0.817 0.161-2.571 0.161-2.612 0 0-5.196-3.603-1.862-8.076 6.094 2.103 3 7.942 3 7.942 0.027 0.080 0.027 1.165 0 1.634 0 0 2.21-4.353 6.67-2.813-0.201 6.549-6.938 5.196-6.938 5.196-0.214 1.339-0.549 2.612-0.978 3.79 0 0 4.058-4.487 8.411-0.978z"></path>
</svg>
