<!-- Generated by IcoMoon.io -->
<svg version="1.1" xmlns="http://www.w3.org/2000/svg" width="24" height="24" viewBox="0 0 24 24">
<path d="M21.629 0c1.219 0 2.344 0.911 2.344 2.183 0 0.71-0.281 1.393-0.603 2.022-1.045 1.982-4.554 8.531-6.228 10.071-0.817 0.763-1.781 1.219-2.92 1.219-2.263 0-4.112-1.929-4.112-4.179 0-1.071 0.442-2.116 1.232-2.839l8.545-7.754c0.469-0.429 1.085-0.723 1.741-0.723zM9.455 13.848c0.696 1.353 1.969 2.371 3.442 2.759l0.013 0.951c0.080 3.817-2.571 6.442-6.402 6.442-4.54 0-6.509-3.616-6.509-7.728 0.496 0.335 2.223 1.714 2.786 1.714 0.335 0 0.616-0.188 0.737-0.496 1.138-2.973 2.92-3.509 5.933-3.643z"></path>
</svg>
