<!-- Generated by IcoMoon.io -->
<svg version="1.1" xmlns="http://www.w3.org/2000/svg" width="24" height="24" viewBox="0 0 24 24">
<path d="M23.625 0.147c0.281 0.201 0.415 0.522 0.362 0.857l-3.429 20.571c-0.040 0.254-0.201 0.469-0.429 0.603-0.121 0.067-0.268 0.107-0.415 0.107-0.107 0-0.214-0.027-0.321-0.067l-7.058-2.879-3.991 4.379c-0.161 0.188-0.388 0.281-0.629 0.281-0.107 0-0.214-0.013-0.308-0.054-0.335-0.134-0.549-0.455-0.549-0.804v-6.054l-6.321-2.585c-0.308-0.121-0.509-0.402-0.536-0.737-0.027-0.321 0.147-0.629 0.429-0.79l22.286-12.857c0.281-0.174 0.643-0.161 0.911 0.027zM19.045 20.223l2.96-17.719-19.205 11.076 4.5 1.835 11.558-8.558-6.402 10.674z"></path>
</svg>
