<!-- Generated by IcoMoon.io -->
<svg version="1.1" xmlns="http://www.w3.org/2000/svg" width="19" height="24" viewBox="0 0 19 24">
<path d="M18.804 18.549c0 2.089-1.594 3.683-3.683 3.683-1.179 0-2.317-0.509-3.147-1.339l-10.406-10.393c-0.951-0.964-1.513-2.277-1.513-3.629 0-2.839 2.237-5.103 5.076-5.103 1.366 0 2.679 0.549 3.656 1.513l8.103 8.116c0.080 0.080 0.134 0.188 0.134 0.295 0 0.281-0.75 1.031-1.031 1.031-0.121 0-0.228-0.054-0.308-0.134l-8.116-8.129c-0.643-0.629-1.513-1.031-2.424-1.031-1.902 0-3.375 1.54-3.375 3.429 0 0.911 0.375 1.781 1.018 2.424l10.393 10.406c0.509 0.509 1.219 0.844 1.942 0.844 1.138 0 1.982-0.844 1.982-1.982 0-0.737-0.335-1.433-0.844-1.942l-7.781-7.781c-0.214-0.201-0.509-0.321-0.804-0.321-0.509 0-0.897 0.375-0.897 0.897 0 0.295 0.134 0.576 0.335 0.79l5.491 5.491c0.080 0.080 0.134 0.188 0.134 0.295 0 0.281-0.763 1.045-1.045 1.045-0.107 0-0.214-0.054-0.295-0.134l-5.491-5.491c-0.536-0.522-0.844-1.259-0.844-1.996 0-1.473 1.152-2.625 2.625-2.625 0.75 0 1.473 0.308 1.996 0.844l7.781 7.781c0.844 0.83 1.339 1.969 1.339 3.147z"></path>
</svg>
