<!-- Generated by IcoMoon.io -->
<svg version="1.1" xmlns="http://www.w3.org/2000/svg" width="17" height="24" viewBox="0 0 17 24">
<path d="M17.116 2.531v0.978c0 0.455-0.362 1.246-0.817 1.246-0.228 0-0.496-0.040-0.723 0.013-0.214 0.054-0.375 0.201-0.429 0.415-0.067 0.254-0.040 0.576-0.040 0.857v15.429c0 0.455-0.362 0.817-0.817 0.817h-1.446c-0.455 0-0.817-0.362-0.817-0.817v-16.313h-1.915v16.313c0 0.455-0.362 0.817-0.817 0.817h-1.446c-0.455 0-0.817-0.362-0.817-0.817v-6.643c-1.299-0.107-2.411-0.375-3.281-0.79-1.125-0.522-1.982-1.326-2.571-2.397-0.563-1.031-0.857-2.196-0.857-3.469 0-1.487 0.402-2.772 1.179-3.83 0.79-1.058 1.728-1.768 2.799-2.129 1.004-0.335 3.121-0.496 5.585-0.496h6.415c0.455 0 0.817 0.362 0.817 0.817z"></path>
</svg>
