<!-- Generated by IcoMoon.io -->
<svg version="1.1" xmlns="http://www.w3.org/2000/svg" width="21" height="24" viewBox="0 0 21 24">
<path d="M9.429 15.857v-7.714c0-0.241-0.188-0.429-0.429-0.429h-3.429c-0.241 0-0.429 0.188-0.429 0.429v7.714c0 0.241 0.188 0.429 0.429 0.429h3.429c0.241 0 0.429-0.188 0.429-0.429zM15.429 15.857v-7.714c0-0.241-0.188-0.429-0.429-0.429h-3.429c-0.241 0-0.429 0.188-0.429 0.429v7.714c0 0.241 0.188 0.429 0.429 0.429h3.429c0.241 0 0.429-0.188 0.429-0.429zM20.571 12c0 5.679-4.607 10.286-10.286 10.286s-10.286-4.607-10.286-10.286 4.607-10.286 10.286-10.286 10.286 4.607 10.286 10.286z"></path>
</svg>
