<!-- Generated by IcoMoon.io -->
<svg version="1.1" xmlns="http://www.w3.org/2000/svg" width="21" height="24" viewBox="0 0 21 24">
<path d="M10.286 1.714c5.679 0 10.286 4.607 10.286 10.286s-4.607 10.286-10.286 10.286-10.286-4.607-10.286-10.286 4.607-10.286 10.286-10.286zM10.286 19.286c4.018 0 7.286-3.268 7.286-7.286s-3.268-7.286-7.286-7.286-7.286 3.268-7.286 7.286 3.268 7.286 7.286 7.286zM11.571 16.286c-0.241 0-0.429-0.188-0.429-0.429v-7.714c0-0.241 0.188-0.429 0.429-0.429h2.571c0.241 0 0.429 0.188 0.429 0.429v7.714c0 0.241-0.188 0.429-0.429 0.429h-2.571zM6.429 16.286c-0.241 0-0.429-0.188-0.429-0.429v-7.714c0-0.241 0.188-0.429 0.429-0.429h2.571c0.241 0 0.429 0.188 0.429 0.429v7.714c0 0.241-0.188 0.429-0.429 0.429h-2.571z"></path>
</svg>
