<!-- Generated by IcoMoon.io -->
<svg version="1.1" xmlns="http://www.w3.org/2000/svg" width="22" height="24" viewBox="0 0 22 24">
<path d="M10.446 6.321c0 1.5-0.777 3.281-2.504 3.281-2.17 0-3.482-2.732-3.482-4.607 0-1.5 0.777-3.281 2.504-3.281 2.183 0 3.482 2.732 3.482 4.607zM5.866 12.79c0 1.299-0.683 2.652-2.156 2.652-2.143 0-3.71-2.625-3.71-4.567 0-1.299 0.696-2.665 2.156-2.665 2.143 0 3.71 2.638 3.71 4.58zM11.143 12.429c3.281 0 7.714 4.728 7.714 7.888 0 1.701-1.393 1.969-2.759 1.969-1.795 0-3.241-1.205-4.955-1.205-1.795 0-3.321 1.192-5.263 1.192-1.299 0-2.451-0.442-2.451-1.955 0-3.174 4.433-7.888 7.714-7.888zM14.344 9.603c-1.728 0-2.504-1.781-2.504-3.281 0-1.875 1.299-4.607 3.482-4.607 1.728 0 2.504 1.781 2.504 3.281 0 1.875-1.313 4.607-3.482 4.607zM20.129 8.21c1.46 0 2.156 1.366 2.156 2.665 0 1.942-1.567 4.567-3.71 4.567-1.473 0-2.156-1.353-2.156-2.652 0-1.942 1.567-4.58 3.71-4.58z"></path>
</svg>
