<!-- Generated by IcoMoon.io -->
<svg version="1.1" xmlns="http://www.w3.org/2000/svg" width="21" height="24" viewBox="0 0 21 24">
<path d="M20.344 8.652v0c0.174 0.804 0.134 1.728-0.054 2.732-0.871 4.42-3.804 5.946-7.567 5.946h-0.589c-0.455 0-0.83 0.335-0.911 0.79l-0.054 0.254-0.737 4.634-0.027 0.201c-0.094 0.455-0.469 0.79-0.924 0.79h-3.362c-0.375 0-0.616-0.308-0.563-0.683 0.241-1.5 0.469-3 0.71-4.5s0.482-2.987 0.723-4.487c0.040-0.321 0.254-0.496 0.576-0.496 0.536 0 1.071-0.013 1.754 0 0.964 0.013 2.076-0.040 3.161-0.281 1.446-0.321 2.759-0.911 3.844-1.929 0.978-0.911 1.634-2.036 2.076-3.295 0.201-0.589 0.362-1.179 0.469-1.781 0.027-0.161 0.067-0.134 0.161-0.067 0.737 0.549 1.152 1.286 1.313 2.17zM18.040 4.875c0 1.098-0.254 2.143-0.616 3.161-0.696 2.022-2.009 3.469-4.045 4.219-1.085 0.388-2.223 0.549-3.375 0.563-0.804 0.013-1.607 0-2.411 0-0.871 0-1.42 0.429-1.58 1.286-0.188 1.018-0.924 5.759-1.138 7.098-0.013 0.094-0.054 0.134-0.161 0.134h-3.951c-0.402 0-0.696-0.348-0.643-0.737l3.107-19.701c0.080-0.509 0.536-0.897 1.058-0.897h8.009c0.576 0 1.902 0.254 2.799 0.603 1.902 0.737 2.946 2.237 2.946 4.272z"></path>
</svg>
