<!-- Generated by IcoMoon.io -->
<svg version="1.1" xmlns="http://www.w3.org/2000/svg" width="20" height="24" viewBox="0 0 20 24">
<path d="M4.862 20.571l1.219-1.219-3.147-3.147-1.219 1.219v1.433h1.714v1.714h1.433zM11.866 8.143c0-0.174-0.121-0.295-0.295-0.295-0.080 0-0.161 0.027-0.228 0.094l-7.259 7.259c-0.067 0.067-0.094 0.147-0.094 0.228 0 0.174 0.121 0.295 0.295 0.295 0.080 0 0.161-0.027 0.228-0.094l7.259-7.259c0.067-0.067 0.094-0.147 0.094-0.228zM11.143 5.571l5.571 5.571-11.143 11.143h-5.571v-5.571zM20.29 6.857c0 0.455-0.188 0.897-0.496 1.205l-2.223 2.223-5.571-5.571 2.223-2.21c0.308-0.321 0.75-0.509 1.205-0.509s0.897 0.188 1.219 0.509l3.147 3.134c0.308 0.321 0.496 0.763 0.496 1.219z"></path>
</svg>
