<!-- Generated by IcoMoon.io -->
<svg version="1.1" xmlns="http://www.w3.org/2000/svg" width="21" height="24" viewBox="0 0 21 24">
<path d="M5.411 14.839l2.036 2.036-0.696 0.696h-0.75v-1.286h-1.286v-0.75zM10.955 9.616c0.107 0.094 0.080 0.281-0.040 0.402l-3.897 3.897c-0.121 0.121-0.308 0.147-0.402 0.040-0.107-0.094-0.080-0.281 0.040-0.402l3.897-3.897c0.121-0.121 0.308-0.147 0.402-0.040zM7.286 18.857l7.286-7.286-3.857-3.857-7.286 7.286v3.857h3.857zM15.429 10.714l1.232-1.232c0.496-0.496 0.496-1.326 0-1.821l-2.036-2.036c-0.496-0.496-1.326-0.496-1.821 0l-1.232 1.232zM20.571 5.571v12.857c0 2.129-1.728 3.857-3.857 3.857h-12.857c-2.129 0-3.857-1.728-3.857-3.857v-12.857c0-2.129 1.728-3.857 3.857-3.857h12.857c2.129 0 3.857 1.728 3.857 3.857z"></path>
</svg>
