<!-- Generated by IcoMoon.io -->
<svg version="1.1" xmlns="http://www.w3.org/2000/svg" width="21" height="24" viewBox="0 0 21 24">
<path d="M17.143 17.143c0-0.938-0.777-1.714-1.714-1.714s-1.714 0.777-1.714 1.714 0.777 1.714 1.714 1.714 1.714-0.777 1.714-1.714zM6.857 6.857c0-0.938-0.777-1.714-1.714-1.714s-1.714 0.777-1.714 1.714 0.777 1.714 1.714 1.714 1.714-0.777 1.714-1.714zM20.571 17.143c0 2.839-2.304 5.143-5.143 5.143s-5.143-2.304-5.143-5.143 2.304-5.143 5.143-5.143 5.143 2.304 5.143 5.143zM19.286 2.571c0 0.188-0.067 0.362-0.174 0.509l-14.143 18.857c-0.161 0.214-0.415 0.348-0.683 0.348h-2.143c-0.469 0-0.857-0.388-0.857-0.857 0-0.188 0.067-0.362 0.174-0.509l14.143-18.857c0.161-0.214 0.415-0.348 0.683-0.348h2.143c0.469 0 0.857 0.388 0.857 0.857zM10.286 6.857c0 2.839-2.304 5.143-5.143 5.143s-5.143-2.304-5.143-5.143 2.304-5.143 5.143-5.143 5.143 2.304 5.143 5.143z"></path>
</svg>
