<!-- Generated by IcoMoon.io -->
<svg version="1.1" xmlns="http://www.w3.org/2000/svg" width="21" height="24" viewBox="0 0 21 24">
<path d="M17.143 15.978c0-0.067 0-0.147-0.027-0.214-0.080-0.241-2.036-1.232-2.411-1.446-0.254-0.147-0.563-0.442-0.871-0.442-0.589 0-1.46 1.754-1.982 1.754-0.268 0-0.603-0.241-0.844-0.375-1.768-0.991-2.987-2.21-3.978-3.978-0.134-0.241-0.375-0.576-0.375-0.844 0-0.522 1.754-1.393 1.754-1.982 0-0.308-0.295-0.616-0.442-0.871-0.214-0.375-1.205-2.33-1.446-2.411-0.067-0.027-0.147-0.027-0.214-0.027-0.348 0-1.031 0.161-1.353 0.295-0.884 0.402-1.527 2.089-1.527 3.013 0 0.897 0.362 1.714 0.67 2.545 1.071 2.933 4.259 6.121 7.192 7.192 0.83 0.308 1.647 0.67 2.545 0.67 0.924 0 2.612-0.643 3.013-1.527 0.134-0.321 0.295-1.004 0.295-1.353zM20.571 5.571v12.857c0 2.129-1.728 3.857-3.857 3.857h-12.857c-2.129 0-3.857-1.728-3.857-3.857v-12.857c0-2.129 1.728-3.857 3.857-3.857h12.857c2.129 0 3.857 1.728 3.857 3.857z"></path>
</svg>
