<!-- Generated by IcoMoon.io -->
<svg version="1.1" xmlns="http://www.w3.org/2000/svg" width="21" height="24" viewBox="0 0 21 24">
<path d="M14.009 13.661c0 1.138-0.777 2.063-1.728 2.063-0.388 0-0.696-0.067-0.938-0.201v-3.71c0.241-0.147 0.549-0.228 0.938-0.228 0.951 0 1.728 0.924 1.728 2.076zM9.415 7.929c0 1.152-0.777 2.076-1.728 2.076-0.388 0-0.696-0.067-0.938-0.201v-3.71c0.241-0.147 0.549-0.228 0.938-0.228 0.951 0 1.728 0.924 1.728 2.063zM16.942 13.701c0-2.397-1.808-4.339-4.031-4.339-0.174 0-0.348 0.013-0.522 0.040-0.201 0.683-0.549 1.299-1.045 1.821-0.75 0.817-1.754 1.299-2.826 1.353v8.518l2.826-0.549v-2.759c0.469 0.174 0.991 0.254 1.567 0.254 2.223 0 4.031-1.942 4.031-4.339zM12.348 7.982c0-2.397-1.808-4.339-4.045-4.339-0.656 0-1.312 0.174-1.888 0.482h-2.491v11.25l2.826-0.549v-2.759c0.469 0.161 0.991 0.254 1.554 0.254 2.237 0 4.045-1.942 4.045-4.339zM20.571 5.571v12.857c0 2.129-1.728 3.857-3.857 3.857h-12.857c-2.129 0-3.857-1.728-3.857-3.857v-12.857c0-2.129 1.728-3.857 3.857-3.857h12.857c2.129 0 3.857 1.728 3.857 3.857z"></path>
</svg>
