<!-- Generated by IcoMoon.io -->
<svg version="1.1" xmlns="http://www.w3.org/2000/svg" width="31" height="24" viewBox="0 0 31 24">
<path d="M30.857 0c-3.897 2.585-4.313 4.46-4.647 5.036-0.321 0.589-0.563 2.906-1.125 4.031-0.563 1.138-2.612 2.036-3.188 2.411-0.563 0.375-1.366 1.835-2.022 3.094-2.96-0.121-5.893 0.603-8.438 2.116 0 0-1.232 0.71-4.058 2.397 1.42-0.469 2.089-0.804 2.089-0.804 3.536-1.353 4.473-1.996 7.326-2.464 2.196-0.362 5.036-0.067 6.228 0.094 0.054 0 0.094 0.027 0.134 0.040 0.188 0.107 0.254 0.335 0.147 0.522l-2.598 4.621c-0.121 0.228-0.375 0.348-0.629 0.295-0.643-0.121-2.116-0.321-4.741-0.321-3.804 0-6.897 1.165-10.634 1.219-3.147 0.040-4.379-1.246-4.688-1.661 0-0.013-0.013-0.027-0.013-0.040 0-0.054 0.027-0.080 0.080-0.080 0 0 1.848 0 4.969-0.737 3.549-6.763 6.71-9.134 10.152-9.134 0 0 3.455 0 4.366 2.987 1.098-1.915 1.366-2.371 1.366-2.371 0.254-0.455 1.688-3.723 4.165-6.817v0c2.491-3.094 4.366-3.857 5.759-4.433z"></path>
</svg>
