<!-- Generated by IcoMoon.io -->
<svg version="1.1" xmlns="http://www.w3.org/2000/svg" width="27" height="24" viewBox="0 0 27 24">
<path d="M16.366 12.442c3.482-0.134 5.411 2.732 6.991 5.384 0.938 1.594 2.036 2.531 3.388 3.723-1.446 0.897-3.281 1.5-4.835 2.196-2.571-2.156-1.071-10.714-5.196-10.714l-0.134 0.027-0.080 0.054c0.054 0.067 0.121 0.134 0.174 0.188 1.112 0.938 1.554 1.138 1.621 2.732l0.013 0.442c0.040 1.004-0.254 1.982-0.455 2.96-0.897-0.027-1.768 0.268-2.665 0.268-0.335 0-0.656-0.040-0.964-0.134-0.027-0.214-0.027-0.429-0.027-0.629 0-0.415-0.013-0.884 0.040-1.286 0.067-0.442 1.567-1.393 1.54-2.036-0.254-0.027-0.429 0.121-0.576 0.321-0.616 0.911-2.196 1.955-3.321 1.955-0.777 0-2.625-3.335-3.563-4.004-0.147-0.107-0.241-0.254-0.362-0.402-0.75 0.174-6.496 1.5-6.871 1.5-0.281 0-0.536-0.228-0.536-0.509 0-0.254 0.161-0.496 0.415-0.549l6.509-1.42c-0.442-0.804 0.576-0.817 1.004-0.938 0.147-0.040 0.295-0.188 0.442-0.188 0.295 0 0.549 0.415 0.643 0.656 0.295-0.067 2.129-0.496 2.304-0.496 0.295 0 0.563 0.214 0.563 0.522 0 0.254-0.161 0.482-0.429 0.536l-2.438 0.536-0.013 0.214c-0.013 0.469 2.116 2.799 2.491 2.799 0.844 0 2.558-1.942 2.558-2.799 0-1.433-1.996-0.589-1.996-1.567 0-0.161 0.054-0.308 0.134-0.455l-0.911-0.254c0.415-0.429 0.576-0.978 0.576-1.567 0-0.254-0.027-0.522-0.067-0.777 0.683-0.134 1.246-0.214 1.929-0.214 2.652 0 2.129 0.402 3.054 2.531l0.67-0.335c-0.107 1.594-1.688 0.817-1.634 1.446zM17.17 9.295c-0.522-0.603-0.75-0.897-1.058-1.031-0.321-0.147-0.737-0.107-1.701-0.107-1.004 0-1.996 0.147-2.906 0.576 0.295-0.549 0.616-0.79 1.205-1.018 1.272-0.482 1.875-1.42 2.746-2.384 0.455 0.321 0.656 1.125 1.313 1.085l0.161-0.013v1.018l0.295 0.013c1.741-0.67 3.482-1.406 4.969-2.545 2.25-1.714 2.464-2.33 3.79-4.661l0.094-0.121c-0.027 0.656-0.295 1.272-0.576 1.862-1.42 2.973-3.67 4.674-6.844 5.438-0.576 0.134-1.232 0.147-1.754 0.415 0.067 0.455 0.616 0.844 0.616 1.071 0 0.161-0.254 0.335-0.348 0.402zM14.21 21.629c0.737-0.482 2.839-0.924 3.723-0.924 0.442 0 1.313 2.103 1.54 2.571-1.045 0.388-2.143 0.603-3.268 0.603-0.563 0-1.125-0.054-1.674-0.147zM11.009 12.964l0.643-0.161 1.46 2.371-0.978 0.643zM17.719 19.888c0.013 0.067 0.040 0.147 0.040 0.214 0 0.348-2.304 0.589-2.719 0.656l-0.094-0.576c0.83-0.094 1.754-0.308 2.585-0.295h0.188zM11.598 11.478l-1.286 0.268-0.080-0.228c0.308-0.027 0.589-0.174 0.897-0.174 0.174 0 0.321 0.040 0.469 0.134zM14.21 19.969h0.415l0.134 1.112-0.549 0.161v-1.272zM26.116 0.013v0 0zM26.116 0.013l-0.013 0.067-0.027 0.027 0.013-0.040zM26.116 0.013l0.013-0.013z"></path>
</svg>
