<!-- Generated by IcoMoon.io -->
<svg version="1.1" xmlns="http://www.w3.org/2000/svg" width="17" height="24" viewBox="0 0 17 24">
<path d="M0 7.996c0-4.942 4.527-7.996 9.107-7.996 4.205 0 8.036 2.893 8.036 7.326 0 4.165-2.129 8.786-6.871 8.786-1.125 0-2.545-0.563-3.094-1.607-1.018 4.031-0.938 4.634-3.188 7.714l-0.188 0.067-0.121-0.134c-0.080-0.844-0.201-1.674-0.201-2.518 0-2.732 1.259-6.683 1.875-9.335-0.335-0.683-0.429-1.513-0.429-2.263 0-1.353 0.938-3.067 2.464-3.067 1.125 0 1.728 0.857 1.728 1.915 0 1.741-1.179 3.375-1.179 5.063 0 1.152 0.951 1.955 2.062 1.955 3.080 0 4.031-4.446 4.031-6.817 0-3.174-2.25-4.902-5.29-4.902-3.536 0-6.268 2.545-6.268 6.134 0 1.728 1.058 2.612 1.058 3.027 0 0.348-0.254 1.58-0.696 1.58-0.067 0-0.161-0.027-0.228-0.040-1.915-0.576-2.612-3.134-2.612-4.888z"></path>
</svg>
