<!-- Generated by IcoMoon.io -->
<svg version="1.1" xmlns="http://www.w3.org/2000/svg" width="21" height="24" viewBox="0 0 21 24">
<path d="M16.714 1.714c2.129 0 3.857 1.728 3.857 3.857v12.857c0 2.129-1.728 3.857-3.857 3.857h-9.71c0.442-0.629 1.165-1.714 1.446-2.813 0 0 0.121-0.455 0.71-2.799 0.362 0.683 1.393 1.272 2.491 1.272 3.268 0 5.491-2.987 5.491-6.978 0-3.013-2.558-5.826-6.442-5.826-4.835 0-7.272 3.469-7.272 6.362 0 1.741 0.67 3.295 2.089 3.884 0.228 0.094 0.442 0 0.509-0.254 0.040-0.174 0.147-0.629 0.201-0.817 0.067-0.254 0.040-0.348-0.147-0.563-0.402-0.496-0.67-1.112-0.67-2.009 0-2.571 1.929-4.862 5.009-4.862 2.732 0 4.232 1.661 4.232 3.897 0 2.933-1.299 5.411-3.228 5.411-1.058 0-1.862-0.884-1.607-1.969 0.308-1.286 0.897-2.679 0.897-3.603 0-0.83-0.442-1.527-1.366-1.527-1.085 0-1.955 1.125-1.955 2.625 0 0 0 0.964 0.321 1.621-1.112 4.714-1.313 5.545-1.313 5.545-0.295 1.232-0.174 2.665-0.094 3.402h-2.451c-2.129 0-3.857-1.728-3.857-3.857v-12.857c0-2.129 1.728-3.857 3.857-3.857h12.857z"></path>
</svg>
