<!-- Generated by IcoMoon.io -->
<svg version="1.1" xmlns="http://www.w3.org/2000/svg" width="21" height="24" viewBox="0 0 21 24">
<path d="M20.571 12c0 5.679-4.607 10.286-10.286 10.286-1.018 0-1.982-0.147-2.92-0.429 0.388-0.616 0.83-1.406 1.045-2.196 0 0 0.121-0.455 0.723-2.826 0.348 0.683 1.393 1.286 2.504 1.286 3.308 0 5.558-3.013 5.558-7.058 0-3.040-2.585-5.893-6.522-5.893-4.875 0-7.339 3.509-7.339 6.429 0 1.768 0.67 3.348 2.103 3.938 0.228 0.094 0.442 0 0.509-0.268 0.054-0.174 0.161-0.629 0.214-0.817 0.067-0.268 0.040-0.348-0.147-0.576-0.415-0.496-0.683-1.125-0.683-2.022 0-2.598 1.942-4.929 5.063-4.929 2.759 0 4.286 1.688 4.286 3.951 0 2.96-1.313 5.464-3.268 5.464-1.071 0-1.875-0.884-1.621-1.982 0.308-1.299 0.911-2.705 0.911-3.643 0-0.844-0.455-1.554-1.393-1.554-1.098 0-1.982 1.138-1.982 2.665 0 0 0 0.978 0.335 1.634-1.125 4.768-1.326 5.598-1.326 5.598-0.188 0.777-0.201 1.647-0.174 2.371-3.629-1.594-6.161-5.21-6.161-9.429 0-5.679 4.607-10.286 10.286-10.286s10.286 4.607 10.286 10.286z"></path>
</svg>
