<!-- Generated by IcoMoon.io -->
<svg version="1.1" xmlns="http://www.w3.org/2000/svg" width="21" height="24" viewBox="0 0 21 24">
<path d="M15.857 12c0 0.308-0.161 0.589-0.429 0.737l-7.286 4.286c-0.134 0.080-0.281 0.121-0.429 0.121s-0.295-0.040-0.429-0.107c-0.268-0.161-0.429-0.442-0.429-0.75v-8.571c0-0.308 0.161-0.589 0.429-0.75 0.268-0.147 0.603-0.147 0.857 0.013l7.286 4.286c0.268 0.147 0.429 0.429 0.429 0.737zM17.571 12c0-4.018-3.268-7.286-7.286-7.286s-7.286 3.268-7.286 7.286 3.268 7.286 7.286 7.286 7.286-3.268 7.286-7.286zM20.571 12c0 5.679-4.607 10.286-10.286 10.286s-10.286-4.607-10.286-10.286 4.607-10.286 10.286-10.286 10.286 4.607 10.286 10.286z"></path>
</svg>
