<!-- Generated by IcoMoon.io -->
<svg version="1.1" xmlns="http://www.w3.org/2000/svg" width="21" height="24" viewBox="0 0 21 24">
<path d="M10.286 1.714c5.679 0 10.286 4.607 10.286 10.286s-4.607 10.286-10.286 10.286-10.286-4.607-10.286-10.286 4.607-10.286 10.286-10.286zM15.429 12.737c0.268-0.147 0.429-0.429 0.429-0.737s-0.161-0.589-0.429-0.737l-7.286-4.286c-0.254-0.161-0.589-0.161-0.857-0.013-0.268 0.161-0.429 0.442-0.429 0.75v8.571c0 0.308 0.161 0.589 0.429 0.75 0.134 0.067 0.281 0.107 0.429 0.107s0.295-0.040 0.429-0.121z"></path>
</svg>
