<!-- Generated by IcoMoon.io -->
<svg version="1.1" xmlns="http://www.w3.org/2000/svg" width="24" height="24" viewBox="0 0 24 24">
<path d="M23.504 6.067c0.656 0.67 0.656 1.754 0 2.424l-5.371 5.357 2.009 2.009-2.143 2.143c-2.933 2.933-7.406 3.348-10.728 1.152l-4.848 4.848h-2.424v-2.424l4.848-4.848c-2.196-3.321-1.781-7.795 1.152-10.728l2.143-2.143 2.009 2.009 5.357-5.371c0.67-0.656 1.754-0.656 2.424 0 0.67 0.67 0.67 1.768 0 2.424l-5.357 5.371 3.134 3.134 5.371-5.357c0.67-0.67 1.754-0.67 2.424 0z"></path>
</svg>
