<!-- Generated by IcoMoon.io -->
<svg version="1.1" xmlns="http://www.w3.org/2000/svg" width="21" height="24" viewBox="0 0 21 24">
<path d="M16.286 12.857v-1.714c0-0.469-0.388-0.857-0.857-0.857h-3.429v-3.429c0-0.469-0.388-0.857-0.857-0.857h-1.714c-0.469 0-0.857 0.388-0.857 0.857v3.429h-3.429c-0.469 0-0.857 0.388-0.857 0.857v1.714c0 0.469 0.388 0.857 0.857 0.857h3.429v3.429c0 0.469 0.388 0.857 0.857 0.857h1.714c0.469 0 0.857-0.388 0.857-0.857v-3.429h3.429c0.469 0 0.857-0.388 0.857-0.857zM20.571 12c0 5.679-4.607 10.286-10.286 10.286s-10.286-4.607-10.286-10.286 4.607-10.286 10.286-10.286 10.286 4.607 10.286 10.286z"></path>
</svg>
