<!-- Generated by IcoMoon.io -->
<svg version="1.1" xmlns="http://www.w3.org/2000/svg" width="19" height="24" viewBox="0 0 19 24">
<path d="M15.429 10.714v0.857c0 0.241-0.188 0.429-0.429 0.429h-4.714v4.714c0 0.241-0.188 0.429-0.429 0.429h-0.857c-0.241 0-0.429-0.188-0.429-0.429v-4.714h-4.714c-0.241 0-0.429-0.188-0.429-0.429v-0.857c0-0.241 0.188-0.429 0.429-0.429h4.714v-4.714c0-0.241 0.188-0.429 0.429-0.429h0.857c0.241 0 0.429 0.188 0.429 0.429v4.714h4.714c0.241 0 0.429 0.188 0.429 0.429zM17.143 16.714v-11.143c0-1.179-0.964-2.143-2.143-2.143h-11.143c-1.179 0-2.143 0.964-2.143 2.143v11.143c0 1.179 0.964 2.143 2.143 2.143h11.143c1.179 0 2.143-0.964 2.143-2.143zM18.857 5.571v11.143c0 2.129-1.728 3.857-3.857 3.857h-11.143c-2.129 0-3.857-1.728-3.857-3.857v-11.143c0-2.129 1.728-3.857 3.857-3.857h11.143c2.129 0 3.857 1.728 3.857 3.857z"></path>
</svg>
