<!-- Generated by IcoMoon.io -->
<svg version="1.1" xmlns="http://www.w3.org/2000/svg" width="20" height="24" viewBox="0 0 20 24">
<path d="M13.313 15.964c0 0.884-0.094 1.768-0.228 2.638-0.201 1.393-0.402 2.826-0.737 4.192-0.241 0.978-1.152 1.205-2.036 1.205s-1.795-0.228-2.036-1.205c-0.335-1.366-0.536-2.799-0.737-4.192-0.134-0.871-0.228-1.754-0.228-2.638 0-1.808 1.46-2.25 3-2.25s3 0.442 3 2.25zM20.571 10.286c0 4.339-2.679 8.049-6.482 9.562-0.147 0.054-0.308-0.080-0.281-0.241 0.040-0.281 0.080-0.576 0.134-0.884 0.027-0.214 0.054-0.429 0.080-0.629 0.013-0.080 0.054-0.134 0.121-0.161 2.786-1.42 4.714-4.313 4.714-7.647 0-4.888-4.098-8.826-9.040-8.558-4.527 0.241-8.129 4.098-8.103 8.625 0.027 3.335 1.969 6.214 4.768 7.607 0.067 0.027 0.107 0.094 0.121 0.161 0.027 0.188 0.054 0.388 0.080 0.603 0.054 0.321 0.094 0.616 0.147 0.911 0.027 0.161-0.147 0.295-0.295 0.228-3.978-1.554-6.75-5.518-6.522-10.085 0.254-5.183 4.433-9.429 9.616-9.75 5.973-0.375 10.942 4.366 10.942 10.259zM13.313 9.857c0 1.661-1.339 3-3 3s-3-1.339-3-3 1.339-3 3-3 3 1.339 3 3zM17.17 10.286c0 2.21-1.058 4.192-2.679 5.437-0.134 0.107-0.321 0.013-0.348-0.161-0.040-0.375-0.147-0.817-0.388-1.232-0.054-0.080-0.040-0.188 0.040-0.268 1.018-0.938 1.661-2.277 1.661-3.777 0-3.027-2.638-5.451-5.732-5.116-2.371 0.268-4.299 2.223-4.527 4.607-0.174 1.688 0.496 3.241 1.634 4.286 0.080 0.080 0.094 0.188 0.040 0.268-0.241 0.415-0.348 0.857-0.388 1.246-0.027 0.161-0.214 0.254-0.348 0.147-1.661-1.286-2.719-3.308-2.679-5.585 0.080-3.563 2.973-6.536 6.522-6.696 3.938-0.188 7.192 2.946 7.192 6.844z"></path>
</svg>
