<!-- Generated by IcoMoon.io -->
<svg version="1.1" xmlns="http://www.w3.org/2000/svg" width="21" height="24" viewBox="0 0 21 24">
<path d="M20.571 12c0 5.665-4.621 10.286-10.286 10.286s-10.286-4.621-10.286-10.286c0-3.254 1.5-6.254 4.112-8.21 0.763-0.576 1.835-0.429 2.397 0.335 0.576 0.75 0.415 1.835-0.335 2.397-1.741 1.313-2.746 3.308-2.746 5.478 0 3.777 3.080 6.857 6.857 6.857s6.857-3.080 6.857-6.857c0-2.17-1.004-4.165-2.746-5.478-0.75-0.563-0.911-1.647-0.335-2.397 0.563-0.763 1.647-0.911 2.397-0.335 2.612 1.955 4.112 4.955 4.112 8.21zM12 1.714v8.571c0 0.938-0.777 1.714-1.714 1.714s-1.714-0.777-1.714-1.714v-8.571c0-0.938 0.777-1.714 1.714-1.714s1.714 0.777 1.714 1.714z"></path>
</svg>
