<!-- Generated by IcoMoon.io -->
<svg version="1.1" xmlns="http://www.w3.org/2000/svg" width="22" height="24" viewBox="0 0 22 24">
<path d="M5.143 20.571h12v-3.429h-12v3.429zM5.143 12h12v-5.143h-2.143c-0.71 0-1.286-0.576-1.286-1.286v-2.143h-8.571v8.571zM20.571 12.857c0-0.469-0.388-0.857-0.857-0.857s-0.857 0.388-0.857 0.857 0.388 0.857 0.857 0.857 0.857-0.388 0.857-0.857zM22.286 12.857v5.571c0 0.228-0.201 0.429-0.429 0.429h-3v2.143c0 0.71-0.576 1.286-1.286 1.286h-12.857c-0.71 0-1.286-0.576-1.286-1.286v-2.143h-3c-0.228 0-0.429-0.201-0.429-0.429v-5.571c0-1.406 1.165-2.571 2.571-2.571h0.857v-7.286c0-0.71 0.576-1.286 1.286-1.286h9c0.71 0 1.688 0.402 2.196 0.911l2.036 2.036c0.509 0.509 0.911 1.487 0.911 2.196v3.429h0.857c1.406 0 2.571 1.165 2.571 2.571z"></path>
</svg>
