<!-- Generated by IcoMoon.io -->
<svg version="1.1" xmlns="http://www.w3.org/2000/svg" width="22" height="24" viewBox="0 0 22 24">
<path d="M22.286 14.705c0 1.379-0.79 2.531-2.25 2.531-1.634 0-2.063-1.487-3.536-1.487-1.071 0-1.473 0.67-1.473 1.661 0 1.045 0.429 2.049 0.415 3.080v0.067c-0.147 0-0.295 0-0.442 0.013-1.379 0.134-2.772 0.402-4.165 0.402-0.951 0-1.942-0.375-1.942-1.473 0-1.473 1.487-1.902 1.487-3.536 0-1.46-1.152-2.25-2.531-2.25-1.406 0-2.705 0.777-2.705 2.317 0 1.701 1.299 2.438 1.299 3.362 0 0.469-0.295 0.884-0.616 1.192-0.415 0.388-1.004 0.469-1.567 0.469-1.098 0-2.196-0.147-3.281-0.321-0.241-0.040-0.496-0.067-0.737-0.107l-0.174-0.027c-0.027-0.013-0.067-0.013-0.067-0.027v-13.714c0.054 0.040 0.844 0.134 0.978 0.161 1.085 0.174 2.183 0.321 3.281 0.321 0.563 0 1.152-0.080 1.567-0.469 0.321-0.308 0.616-0.723 0.616-1.192 0-0.924-1.299-1.661-1.299-3.362 0-1.54 1.299-2.317 2.719-2.317 1.366 0 2.518 0.79 2.518 2.25 0 1.634-1.487 2.063-1.487 3.536 0 1.098 0.991 1.473 1.942 1.473 1.54 0 3.067-0.348 4.594-0.429v0.027c-0.040 0.054-0.134 0.844-0.161 0.978-0.174 1.085-0.321 2.183-0.321 3.281 0 0.563 0.080 1.152 0.469 1.567 0.308 0.321 0.723 0.616 1.192 0.616 0.924 0 1.661-1.299 3.362-1.299 1.54 0 2.317 1.299 2.317 2.705z"></path>
</svg>
