<!-- Generated by IcoMoon.io -->
<svg version="1.1" xmlns="http://www.w3.org/2000/svg" width="24" height="24" viewBox="0 0 24 24">
<path d="M3.616 10.795c-0.094-0.228-0.107-0.455-0.107-0.696 0-0.375 0.241-0.978 0.469-1.259-0.013-0.348 0.134-1.058 0.402-1.286 0-2.478 1.915-5.598 4.152-6.67 1.379-0.656 2.826-0.884 4.339-0.884 1.179 0 2.464 0.281 3.562 0.737 3.147 1.326 3.857 3.79 4.527 6.937l0.013 0.067c0.388 0.589 0.737 1.286 0.737 2.009 0 0.362-0.241 0.723-0.241 1.045 0 0.027 0.080 0.134 0.094 0.161 1.152 1.701 2.196 3.549 2.196 5.665 0 0.469-0.254 2.103-1.004 2.103-0.522 0-1.098-1.272-1.286-1.621-0.013-0.013-0.027-0.013-0.040-0.013l-0.067 0.054c-0.429 1.112-0.897 2.156-1.768 2.987 0.763 0.737 1.996 0.67 2.223 1.942-0.067 0.147-0.040 0.308-0.147 0.455-0.763 1.152-2.813 1.299-4.045 1.299-1.634 0-2.96-0.429-4.5-0.884-0.321-0.094-0.804-0.040-1.152-0.080-0.817 0.897-2.813 1.138-3.964 1.138-1.018 0-4.955-0.067-4.955-1.808 0-0.75 0.161-0.964 0.683-1.446 0.415-0.080 0.723-0.308 1.205-0.335 0.067 0 0.121-0.013 0.188-0.027 0.013-0.013 0.027-0.013 0.027-0.054l-0.027-0.040c-0.924-0.214-2.223-2.545-2.424-3.509l-0.067-0.040c-0.094 0-0.134 0.201-0.161 0.268-0.295 0.683-0.991 1.42-1.768 1.5h-0.013c-0.107 0-0.067-0.107-0.147-0.134-0.188-0.442-0.308-0.844-0.308-1.339 0-2.679 1.286-4.661 3.375-6.241z"></path>
</svg>
