<!-- Generated by IcoMoon.io -->
<svg version="1.1" xmlns="http://www.w3.org/2000/svg" width="19" height="24" viewBox="0 0 19 24">
<path d="M5.143 15.429v1.714h-1.714v-1.714h1.714zM5.143 5.143v1.714h-1.714v-1.714h1.714zM15.429 5.143v1.714h-1.714v-1.714h1.714zM1.714 18.844h5.143v-5.129h-5.143v5.129zM1.714 8.571h5.143v-5.143h-5.143v5.143zM12 8.571h5.143v-5.143h-5.143v5.143zM8.571 12v8.571h-8.571v-8.571h8.571zM15.429 18.857v1.714h-1.714v-1.714h1.714zM18.857 18.857v1.714h-1.714v-1.714h1.714zM18.857 12v5.143h-5.143v-1.714h-1.714v5.143h-1.714v-8.571h5.143v1.714h1.714v-1.714h1.714zM8.571 1.714v8.571h-8.571v-8.571h8.571zM18.857 1.714v8.571h-8.571v-8.571h8.571z"></path>
</svg>
