<!-- Generated by IcoMoon.io -->
<svg version="1.1" xmlns="http://www.w3.org/2000/svg" width="15" height="24" viewBox="0 0 15 24">
<path d="M9.429 16.821v3.214c0 0.295-0.241 0.536-0.536 0.536h-3.214c-0.295 0-0.536-0.241-0.536-0.536v-3.214c0-0.295 0.241-0.536 0.536-0.536h3.214c0.295 0 0.536 0.241 0.536 0.536zM13.661 8.786c0 2.545-1.728 3.522-3 4.232-0.79 0.455-1.286 1.379-1.286 1.768v0c0 0.295-0.228 0.643-0.536 0.643h-3.214c-0.295 0-0.482-0.455-0.482-0.75v-0.603c0-1.621 1.607-3.013 2.786-3.549 1.031-0.469 1.46-0.911 1.46-1.768 0-0.75-0.978-1.42-2.063-1.42-0.603 0-1.152 0.188-1.446 0.388-0.321 0.228-0.643 0.549-1.433 1.54-0.107 0.134-0.268 0.214-0.415 0.214-0.121 0-0.228-0.040-0.335-0.107l-2.196-1.674c-0.228-0.174-0.281-0.469-0.134-0.71 1.446-2.397 3.482-3.563 6.214-3.563 2.866 0 6.080 2.29 6.080 5.357z"></path>
</svg>
