<!-- Generated by IcoMoon.io -->
<svg version="1.1" xmlns="http://www.w3.org/2000/svg" width="24" height="24" viewBox="0 0 24 24">
<path d="M16.808 10.54c0-5.585-1.741-8.451-5.826-8.451-4.018 0-5.759 2.866-5.759 8.451 0 5.558 1.741 8.397 5.759 8.397 0.643 0 1.219-0.067 1.754-0.228v0c-0.83-1.634-1.808-3.281-3.71-3.281-0.362 0-0.723 0.054-1.058 0.214l-0.656-1.299c0.79-0.683 2.063-1.219 3.696-1.219 2.558 0 3.857 1.232 4.902 2.799 0.603-1.339 0.897-3.147 0.897-5.384zM22.031 19.004h1.567c0.094 0.964-0.388 4.996-4.768 4.996-2.652 0-4.045-1.54-5.103-3.335v0c-0.871 0.241-1.808 0.362-2.746 0.362-5.357 0-10.594-4.272-10.594-10.487 0-6.268 5.25-10.54 10.594-10.54 5.451 0 10.634 4.246 10.634 10.54 0 3.509-1.634 6.362-4.004 8.196 0.763 1.152 1.554 1.915 2.652 1.915 1.205 0 1.688-0.924 1.768-1.647z"></path>
</svg>
