<!-- Generated by IcoMoon.io -->
<svg version="1.1" xmlns="http://www.w3.org/2000/svg" width="22" height="24" viewBox="0 0 22 24">
<path d="M10.286 12.857v5.143c0 1.42-1.152 2.571-2.571 2.571h-5.143c-1.42 0-2.571-1.152-2.571-2.571v-9.429c0-3.777 3.080-6.857 6.857-6.857h0.857c0.469 0 0.857 0.388 0.857 0.857v1.714c0 0.469-0.388 0.857-0.857 0.857h-0.857c-1.888 0-3.429 1.54-3.429 3.429v0.429c0 0.71 0.576 1.286 1.286 1.286h3c1.42 0 2.571 1.152 2.571 2.571zM22.286 12.857v5.143c0 1.42-1.152 2.571-2.571 2.571h-5.143c-1.42 0-2.571-1.152-2.571-2.571v-9.429c0-3.777 3.080-6.857 6.857-6.857h0.857c0.469 0 0.857 0.388 0.857 0.857v1.714c0 0.469-0.388 0.857-0.857 0.857h-0.857c-1.888 0-3.429 1.54-3.429 3.429v0.429c0 0.71 0.576 1.286 1.286 1.286h3c1.42 0 2.571 1.152 2.571 2.571z"></path>
</svg>
