<!-- Generated by IcoMoon.io -->
<svg version="1.1" xmlns="http://www.w3.org/2000/svg" width="22" height="24" viewBox="0 0 22 24">
<path d="M10.286 4.286v9.429c0 3.777-3.080 6.857-6.857 6.857h-0.857c-0.469 0-0.857-0.388-0.857-0.857v-1.714c0-0.469 0.388-0.857 0.857-0.857h0.857c1.888 0 3.429-1.54 3.429-3.429v-0.429c0-0.71-0.576-1.286-1.286-1.286h-3c-1.42 0-2.571-1.152-2.571-2.571v-5.143c0-1.42 1.152-2.571 2.571-2.571h5.143c1.42 0 2.571 1.152 2.571 2.571zM22.286 4.286v9.429c0 3.777-3.080 6.857-6.857 6.857h-0.857c-0.469 0-0.857-0.388-0.857-0.857v-1.714c0-0.469 0.388-0.857 0.857-0.857h0.857c1.888 0 3.429-1.54 3.429-3.429v-0.429c0-0.71-0.576-1.286-1.286-1.286h-3c-1.42 0-2.571-1.152-2.571-2.571v-5.143c0-1.42 1.152-2.571 2.571-2.571h5.143c1.42 0 2.571 1.152 2.571 2.571z"></path>
</svg>
