<!-- Generated by IcoMoon.io -->
<svg version="1.1" xmlns="http://www.w3.org/2000/svg" width="24" height="24" viewBox="0 0 24 24">
<path d="M0.254 11.705c0.134-3.83 2.089-7.366 5.638-9.696 0.013 0 0.094-0.027 0.054 0.040-0.281 0.268-5.384 6.281-0.683 10.955 2.411 2.397 4.353 0.121 4.353 0.121 1.862-2.424-0.027-6.094-0.027-6.094-0.482-1.205-2.21-1.942-2.21-1.942l1.393-1.54c1.179 0.509 2.089 1.875 2.089 1.875 0.040-1.433-1.058-2.973-1.058-2.973l2.156-2.451 2.143 2.424c-0.991 1.393-1.058 3.027-1.058 3.027 0.67-1.112 2.103-1.902 2.103-1.902l1.379 1.54c-1.326 0.429-2.196 1.929-2.196 1.929-0.763 1.379-1.313 4.326 0.027 6.161 1.567 2.156 4.246-0.134 4.246-0.134 4.969-4.446-0.509-10.888-0.509-10.888-0.295-0.268 0.040-0.134 0.040-0.134 2.424 1.768 5.545 4.085 5.625 9.911 0.094 7.045-4.835 12.067-11.732 12.067-6.737 0-11.973-5.625-11.772-12.295z"></path>
</svg>
