<!-- Generated by IcoMoon.io -->
<svg version="1.1" xmlns="http://www.w3.org/2000/svg" width="24" height="24" viewBox="0 0 24 24">
<path d="M8.92 6.442c-0.75 1.152-1.299 2.397-1.835 3.656-0.777-1.621-1.634-3.241-3.656-3.241h-3c-0.241 0-0.429-0.188-0.429-0.429v-2.571c0-0.241 0.188-0.429 0.429-0.429h3c2.384 0 4.138 1.112 5.491 3.013zM24 17.143c0 0.107-0.040 0.228-0.121 0.308l-4.286 4.286c-0.080 0.080-0.201 0.121-0.308 0.121-0.228 0-0.429-0.201-0.429-0.429v-2.571c-3.978 0-6.429 0.469-8.906-3.013 0.737-1.152 1.286-2.397 1.821-3.656 0.777 1.621 1.634 3.241 3.656 3.241h3.429v-2.571c0-0.241 0.188-0.429 0.429-0.429 0.121 0 0.228 0.054 0.321 0.134l4.272 4.272c0.080 0.080 0.121 0.201 0.121 0.308zM24 5.143c0 0.107-0.040 0.228-0.121 0.308l-4.286 4.286c-0.080 0.080-0.201 0.121-0.308 0.121-0.228 0-0.429-0.188-0.429-0.429v-2.571h-3.429c-1.781 0-2.625 1.219-3.375 2.665-0.388 0.75-0.723 1.527-1.045 2.29-1.487 3.455-3.228 7.045-7.58 7.045h-3c-0.241 0-0.429-0.188-0.429-0.429v-2.571c0-0.241 0.188-0.429 0.429-0.429h3c1.781 0 2.625-1.219 3.375-2.665 0.388-0.75 0.723-1.527 1.045-2.29 1.487-3.455 3.228-7.045 7.58-7.045h3.429v-2.571c0-0.241 0.188-0.429 0.429-0.429 0.121 0 0.228 0.054 0.321 0.134l4.272 4.272c0.080 0.080 0.121 0.201 0.121 0.308z"></path>
</svg>
