<!-- Generated by IcoMoon.io -->
<svg version="1.1" xmlns="http://www.w3.org/2000/svg" width="30" height="24" viewBox="0 0 30 24">
<path d="M15.308 23.21c-0.054-0.013-0.094-0.027-0.147-0.054 0 0-4.406-2.585-5.893-6.763-0.496-0.080-1.54-0.321-2.344-0.496v0c1.165 3.79 4.406 6.683 8.384 7.313zM6.723 15.094l2.25 0.375c-0.763-2.29-0.857-4.902-0.857-4.902-0.897 0.871-1.379 2.063-1.621 3v0c0.040 0.522 0.107 1.031 0.228 1.527zM8.196 6.938v0c-0.415 0.616-0.75 1.286-1.031 1.982 0.442-0.469 0.804-0.777 0.991-0.911-0.027-0.402 0.040-1.071 0.040-1.071zM27.442 12.75c0-5.839-4.714-10.58-10.5-10.58-2.679 0-5.116 1.018-6.978 2.692-0.281 0.549-0.469 1.246-0.603 2.143 2.853-2.424 7.942-1.821 7.942-1.821 1.272 0.054 1.125 1.179 1.112 1.527-4.634-0.388-6.911 0.938-9.161 2.853 0 0 0.442 4.286 1.46 6.027 5.866 0.268 10.326-2.92 10.326-2.92 0.563-0.402 1.058-0.442 1.165 0.254 0.080 0.563 0.121 1.326-0.522 1.621-1.955 0.911-4.112 1.487-6.254 1.795-1.393 0.201-2.17 0.254-4.246 0.214 1.982 4.607 6.938 5.866 6.938 5.866 1.554 0.254 2.732 0.054 3.522-0.201v0c3.429-1.741 5.799-5.33 5.799-9.469zM28.433 12.254c-0.094 0.911-0.241 1.969-0.536 2.839-1.205 3.576-2.879 5.906-6.696 8.036-0.348 0.241-0.723 0.469-1.098 0.589-0.683 0.241-1.42 0.295-2.183 0.214-0.321 0.027-0.643 0.040-0.978 0.040-5.103 0-9.415-3.482-10.714-8.237-0.040 0-0.080-0.013-0.121-0.013-0.308 2.411 1.473 5.665 1.473 5.665s0.107 0.161 0.723 1.098c-3.415-1.808-3.509-7.138-3.509-7.138-0.817-0.308-3.656-1.272-4.152-2.063 0 0 2.223 1.219 4.138 1.46-0.013-0.013 0.027-0.429 0.027-0.429 0.121-1.634 0.683-2.906 1.259-3.884 0.375-1.835 1.205-3.496 2.357-4.888 0.201-0.83 0.522-1.821 1.085-2.866 0.241-0.455 0.469-0.75 1.085-1.031 4.071-1.902 8.089-2.384 12.214-0.241v0c3.951 2.063 6.094 6.375 5.625 10.848z"></path>
</svg>
