<!-- Generated by IcoMoon.io -->
<svg version="1.1" xmlns="http://www.w3.org/2000/svg" width="24" height="24" viewBox="0 0 24 24">
<path d="M11.196 15.656l-0.201 4.929-0.027 0.295-5.625-0.388c-0.696-0.054-1.272-0.71-1.527-1.299-0.536-1.246 0.161-2.719 0.563-3.911 0 0 1.031 0.161 6.817 0.375zM6.013 7.808l2.411 5.076-1.969-1.232c-3.013 3.442-3.295 6-3.295 6l-2.545-4.781c-0.522-0.777-0.054-1.621-0.054-1.621s0.469-0.844 1.527-2.518l-1.875-1.152zM22.5 14.732l-2.518 4.808c-0.348 0.871-1.313 0.951-1.313 0.951s-0.951 0.094-2.933 0.161l0.107 2.196-3.080-4.915 2.826-4.848 0.094 2.317c4.54 0.549 6.817-0.67 6.817-0.67zM11.987 2.357c0 0-0.629 0.83-3.549 5.826l-4.246-2.504-0.254-0.161 3.013-4.768c0.375-0.589 1.219-0.804 1.875-0.737 1.339 0.121 2.304 1.42 3.161 2.344zM20.759 6.469l2.839 4.862c0.362 0.603 0.147 1.446-0.201 2.009-0.723 1.125-2.33 1.393-3.536 1.728 0 0-0.455-0.951-3.549-5.839l4.192-2.612zM18.844 3.442l1.902-1.112-2.946 4.996-5.612-0.268 2.022-1.152c-1.607-4.272-3.737-5.746-3.737-5.746l5.424 0.013c0.938-0.080 1.446 0.723 1.446 0.723s0.522 0.817 1.5 2.545z"></path>
</svg>
