<!-- Generated by IcoMoon.io -->
<svg version="1.1" xmlns="http://www.w3.org/2000/svg" width="21" height="24" viewBox="0 0 21 24">
<path d="M12.576 15.121c0.094 0.094 0.094 0.254 0 0.348-0.656 0.656-1.915 0.71-2.29 0.71s-1.634-0.054-2.29-0.71c-0.094-0.094-0.094-0.254 0-0.348 0.094-0.107 0.254-0.107 0.348 0 0.415 0.415 1.313 0.563 1.942 0.563s1.527-0.147 1.942-0.563c0.094-0.107 0.254-0.107 0.348 0zM9.054 13.031c0 0.563-0.469 1.031-1.031 1.031s-1.031-0.469-1.031-1.031c0-0.576 0.469-1.031 1.031-1.031s1.031 0.455 1.031 1.031zM13.58 13.031c0 0.563-0.469 1.031-1.031 1.031s-1.031-0.469-1.031-1.031c0-0.576 0.469-1.031 1.031-1.031s1.031 0.455 1.031 1.031zM16.46 11.652c0-0.75-0.616-1.366-1.379-1.366-0.375 0-0.723 0.161-0.978 0.415-0.938-0.643-2.196-1.058-3.576-1.098l0.723-3.254 2.29 0.522c0.013 0.563 0.469 1.018 1.031 1.018s1.031-0.469 1.031-1.031-0.469-1.031-1.031-1.031c-0.402 0-0.75 0.228-0.924 0.576l-2.531-0.563c-0.134-0.040-0.254 0.054-0.281 0.174l-0.804 3.589c-1.379 0.054-2.625 0.469-3.549 1.112-0.254-0.268-0.603-0.429-0.991-0.429-0.763 0-1.379 0.616-1.379 1.366 0 0.549 0.321 1.018 0.777 1.246-0.040 0.201-0.067 0.429-0.067 0.643 0 2.183 2.451 3.951 5.478 3.951s5.491-1.768 5.491-3.951c0-0.228-0.027-0.442-0.080-0.656 0.442-0.228 0.75-0.696 0.75-1.232zM20.571 5.571v12.857c0 2.129-1.728 3.857-3.857 3.857h-12.857c-2.129 0-3.857-1.728-3.857-3.857v-12.857c0-2.129 1.728-3.857 3.857-3.857h12.857c2.129 0 3.857 1.728 3.857 3.857z"></path>
</svg>
