<!-- Generated by IcoMoon.io -->
<svg version="1.1" xmlns="http://www.w3.org/2000/svg" width="24" height="24" viewBox="0 0 24 24">
<path d="M14.665 15.629c0.121 0.121 0.121 0.308 0 0.415-0.763 0.763-2.237 0.83-2.665 0.83s-1.902-0.067-2.665-0.83c-0.121-0.107-0.121-0.295 0-0.415 0.107-0.107 0.295-0.107 0.402 0 0.482 0.496 1.527 0.656 2.263 0.656s1.768-0.161 2.263-0.656c0.107-0.107 0.295-0.107 0.402 0zM10.554 13.205c0 0.656-0.536 1.192-1.192 1.192-0.67 0-1.205-0.536-1.205-1.192 0-0.67 0.536-1.205 1.205-1.205 0.656 0 1.192 0.536 1.192 1.205zM15.844 13.205c0 0.656-0.536 1.192-1.205 1.192-0.656 0-1.192-0.536-1.192-1.192 0-0.67 0.536-1.205 1.192-1.205 0.67 0 1.205 0.536 1.205 1.205zM19.205 11.598c0-0.884-0.723-1.594-1.607-1.594-0.455 0-0.857 0.188-1.152 0.482-1.085-0.75-2.545-1.232-4.165-1.286l0.844-3.79 2.679 0.603c0 0.656 0.536 1.192 1.192 1.192 0.67 0 1.205-0.549 1.205-1.205s-0.536-1.205-1.205-1.205c-0.469 0-0.871 0.281-1.071 0.67l-2.96-0.656c-0.147-0.040-0.295 0.067-0.335 0.214l-0.924 4.179c-1.607 0.067-3.054 0.549-4.138 1.299-0.295-0.308-0.71-0.496-1.165-0.496-0.884 0-1.607 0.71-1.607 1.594 0 0.643 0.375 1.179 0.911 1.446-0.054 0.241-0.080 0.496-0.080 0.75 0 2.545 2.866 4.607 6.388 4.607 3.536 0 6.402-2.063 6.402-4.607 0-0.254-0.027-0.522-0.094-0.763 0.522-0.268 0.884-0.804 0.884-1.433zM24 12c0 6.629-5.371 12-12 12s-12-5.371-12-12 5.371-12 12-12 12 5.371 12 12z"></path>
</svg>
