<!-- Generated by IcoMoon.io -->
<svg version="1.1" xmlns="http://www.w3.org/2000/svg" width="24" height="24" viewBox="0 0 24 24">
<path d="M24 11.33c0 1.045-0.589 1.942-1.46 2.384 0.107 0.415 0.161 0.844 0.161 1.286 0 4.232-4.781 7.661-10.674 7.661-5.879 0-10.661-3.429-10.661-7.661 0-0.429 0.054-0.857 0.147-1.259-0.897-0.442-1.513-1.353-1.513-2.411 0-1.473 1.192-2.665 2.665-2.665 0.763 0 1.446 0.321 1.942 0.844 1.808-1.259 4.219-2.076 6.897-2.17l1.554-6.978c0.054-0.241 0.308-0.402 0.549-0.348l4.942 1.085c0.321-0.643 1.004-1.098 1.781-1.098 1.112 0 2.009 0.897 2.009 1.996 0 1.112-0.897 2.009-2.009 2.009-1.098 0-1.996-0.897-1.996-1.996l-4.473-0.991-1.393 6.321c2.692 0.080 5.129 0.884 6.951 2.143 0.482-0.509 1.165-0.817 1.915-0.817 1.473 0 2.665 1.192 2.665 2.665zM5.598 13.996c0 1.112 0.897 2.009 1.996 2.009 1.112 0 2.009-0.897 2.009-2.009 0-1.098-0.897-1.996-2.009-1.996-1.098 0-1.996 0.897-1.996 1.996zM16.446 18.75c0.201-0.201 0.201-0.496 0-0.696-0.188-0.188-0.496-0.188-0.683 0-0.804 0.817-2.531 1.098-3.763 1.098s-2.96-0.281-3.763-1.098c-0.188-0.188-0.496-0.188-0.683 0-0.201 0.188-0.201 0.496 0 0.696 1.272 1.272 3.723 1.366 4.446 1.366s3.174-0.094 4.446-1.366zM16.406 16.004c1.098 0 1.996-0.897 1.996-2.009 0-1.098-0.897-1.996-1.996-1.996-1.112 0-2.009 0.897-2.009 1.996 0 1.112 0.897 2.009 2.009 2.009z"></path>
</svg>
