<!-- Generated by IcoMoon.io -->
<svg version="1.1" xmlns="http://www.w3.org/2000/svg" width="21" height="24" viewBox="0 0 21 24">
<path d="M20.237 14.143c0 0.027 0 0.067-0.013 0.094-1.138 4.741-5.049 8.049-9.991 8.049-2.612 0-5.143-1.031-7.045-2.839l-1.728 1.728c-0.161 0.161-0.375 0.254-0.603 0.254-0.469 0-0.857-0.388-0.857-0.857v-6c0-0.469 0.388-0.857 0.857-0.857h6c0.469 0 0.857 0.388 0.857 0.857 0 0.228-0.094 0.442-0.254 0.603l-1.835 1.835c1.259 1.179 2.933 1.848 4.661 1.848 2.384 0 4.594-1.232 5.839-3.268 0.321-0.522 0.482-1.031 0.71-1.567 0.067-0.188 0.201-0.308 0.402-0.308h2.571c0.241 0 0.429 0.201 0.429 0.429zM20.571 3.429v6c0 0.469-0.388 0.857-0.857 0.857h-6c-0.469 0-0.857-0.388-0.857-0.857 0-0.228 0.094-0.442 0.254-0.603l1.848-1.848c-1.272-1.179-2.946-1.835-4.674-1.835-2.384 0-4.594 1.232-5.839 3.268-0.321 0.522-0.482 1.031-0.71 1.567-0.067 0.188-0.201 0.308-0.402 0.308h-2.665c-0.241 0-0.429-0.201-0.429-0.429v-0.094c1.152-4.754 5.103-8.049 10.045-8.049 2.625 0 5.183 1.045 7.085 2.839l1.741-1.728c0.161-0.161 0.375-0.254 0.603-0.254 0.469 0 0.857 0.388 0.857 0.857z"></path>
</svg>
