<!-- Generated by IcoMoon.io -->
<svg version="1.1" xmlns="http://www.w3.org/2000/svg" width="21" height="24" viewBox="0 0 21 24">
<path d="M15.174 21.027c-1.46 0.804-3.134 1.259-4.929 1.259-1.781 0-3.455-0.455-4.915-1.259 2.371-1.5 4.286-3.763 4.915-6.415 0.643 2.652 2.558 4.915 4.929 6.415zM8.545 1.902v6.496c0 4.58-2.531 8.518-6.121 10.259-1.513-1.795-2.424-4.098-2.424-6.629 0-5.089 3.696-9.308 8.545-10.125zM20.571 12.027c0 2.531-0.911 4.835-2.424 6.629-3.589-1.741-6.121-5.679-6.121-10.259v-6.496c4.848 0.817 8.545 5.036 8.545 10.125z"></path>
</svg>
