<!-- Generated by IcoMoon.io -->
<svg version="1.1" xmlns="http://www.w3.org/2000/svg" width="21" height="24" viewBox="0 0 21 24">
<path d="M20.571 3.429v6c0 0.469-0.388 0.857-0.857 0.857h-6c-0.348 0-0.656-0.214-0.79-0.536-0.134-0.308-0.067-0.683 0.188-0.924l1.848-1.848c-1.259-1.165-2.92-1.835-4.674-1.835-3.777 0-6.857 3.080-6.857 6.857s3.080 6.857 6.857 6.857c2.129 0 4.098-0.964 5.411-2.665 0.067-0.094 0.188-0.147 0.308-0.161 0.121 0 0.241 0.040 0.335 0.121l1.835 1.848c0.161 0.147 0.161 0.402 0.027 0.576-1.955 2.357-4.848 3.71-7.915 3.71-5.665 0-10.286-4.621-10.286-10.286s4.621-10.286 10.286-10.286c2.638 0 5.196 1.058 7.085 2.839l1.741-1.728c0.241-0.254 0.616-0.321 0.938-0.188 0.308 0.134 0.522 0.442 0.522 0.79z"></path>
</svg>
