<!-- Generated by IcoMoon.io -->
<svg version="1.1" xmlns="http://www.w3.org/2000/svg" width="26" height="24" viewBox="0 0 26 24">
<path d="M17.143 20.143c0 0.228-0.201 0.429-0.429 0.429h-12.857c-0.496 0-0.429-0.522-0.429-0.857v-7.714h-2.571c-0.469 0-0.857-0.388-0.857-0.857 0-0.201 0.067-0.402 0.201-0.549l4.286-5.143c0.161-0.188 0.402-0.295 0.656-0.295s0.496 0.107 0.656 0.295l4.286 5.143c0.134 0.147 0.201 0.348 0.201 0.549 0 0.469-0.388 0.857-0.857 0.857h-2.571v5.143h7.714c0.121 0 0.254 0.054 0.335 0.147l2.143 2.571c0.054 0.080 0.094 0.188 0.094 0.281zM25.714 14.571c0 0.201-0.067 0.402-0.201 0.549l-4.286 5.143c-0.161 0.188-0.402 0.308-0.656 0.308s-0.496-0.121-0.656-0.308l-4.286-5.143c-0.134-0.147-0.201-0.348-0.201-0.549 0-0.469 0.388-0.857 0.857-0.857h2.571v-5.143h-7.714c-0.121 0-0.254-0.054-0.335-0.161l-2.143-2.571c-0.054-0.067-0.094-0.174-0.094-0.268 0-0.228 0.201-0.429 0.429-0.429h12.857c0.496 0 0.429 0.522 0.429 0.857v7.714h2.571c0.469 0 0.857 0.388 0.857 0.857z"></path>
</svg>
