<!-- Generated by IcoMoon.io -->
<svg version="1.1" xmlns="http://www.w3.org/2000/svg" width="26" height="24" viewBox="0 0 26 24">
<path d="M14.879 13.339v-0.054l-0.321-4.286c-0.013-0.241-0.228-0.429-0.455-0.429h-2.491c-0.228 0-0.442 0.188-0.455 0.429l-0.321 4.286v0.054c-0.013 0.214 0.188 0.375 0.388 0.375h3.268c0.201 0 0.402-0.161 0.388-0.375zM25.045 19.594c0 0.388-0.107 0.978-0.616 0.978h-9.429c0.228 0 0.415-0.188 0.402-0.429l-0.268-3.429c-0.013-0.241-0.228-0.429-0.455-0.429h-3.643c-0.228 0-0.442 0.188-0.455 0.429l-0.268 3.429c-0.013 0.241 0.174 0.429 0.402 0.429h-9.429c-0.509 0-0.616-0.589-0.616-0.978 0-0.536 0.147-1.071 0.348-1.554l5.585-13.982c0.134-0.335 0.496-0.629 0.857-0.629h4.54c-0.228 0-0.442 0.188-0.455 0.429l-0.201 2.571c-0.013 0.241 0.161 0.429 0.402 0.429h2.223c0.241 0 0.415-0.188 0.402-0.429l-0.201-2.571c-0.013-0.241-0.228-0.429-0.455-0.429h4.54c0.362 0 0.723 0.295 0.857 0.629l5.585 13.982c0.201 0.482 0.348 1.018 0.348 1.554z"></path>
</svg>
