<!-- Generated by IcoMoon.io -->
<svg version="1.1" xmlns="http://www.w3.org/2000/svg" width="23" height="24" viewBox="0 0 23 24">
<path d="M19.286 6c0-0.71-0.576-1.286-1.286-1.286s-1.286 0.576-1.286 1.286 0.576 1.286 1.286 1.286 1.286-0.576 1.286-1.286zM22.286 2.143c0 4.446-1.232 7.406-4.406 10.594-0.777 0.763-1.661 1.554-2.612 2.357l-0.268 5.076c-0.013 0.134-0.094 0.268-0.214 0.348l-5.143 3c-0.067 0.040-0.134 0.054-0.214 0.054-0.107 0-0.214-0.040-0.308-0.121l-0.857-0.857c-0.107-0.121-0.147-0.281-0.107-0.429l1.138-3.696-3.763-3.763-3.696 1.138c-0.040 0.013-0.080 0.013-0.121 0.013-0.107 0-0.228-0.040-0.308-0.121l-0.857-0.857c-0.134-0.147-0.161-0.362-0.067-0.522l3-5.143c0.080-0.121 0.214-0.201 0.348-0.214l5.076-0.268c0.804-0.951 1.594-1.835 2.357-2.612 3.348-3.335 5.906-4.406 10.567-4.406 0.241 0 0.455 0.188 0.455 0.429z"></path>
</svg>
