<!-- Generated by IcoMoon.io -->
<svg version="1.1" xmlns="http://www.w3.org/2000/svg" width="17" height="24" viewBox="0 0 17 24">
<path d="M13.969 7.567c0-1.795-1.272-3-3.161-3h-4.286v6h4.286c1.888 0 3.161-1.205 3.161-3zM17.143 7.567c0 3.442-2.491 5.853-6.067 5.853h-4.554v1.58h6.763c0.241 0 0.429 0.188 0.429 0.429v1.714c0 0.241-0.188 0.429-0.429 0.429h-6.763v2.571c0 0.241-0.188 0.429-0.429 0.429h-2.237c-0.241 0-0.429-0.188-0.429-0.429v-2.571h-3c-0.241 0-0.429-0.188-0.429-0.429v-1.714c0-0.241 0.188-0.429 0.429-0.429h3v-1.58h-3c-0.241 0-0.429-0.188-0.429-0.429v-1.996c0-0.241 0.188-0.429 0.429-0.429h3v-8.424c0-0.241 0.188-0.429 0.429-0.429h7.219c3.576 0 6.067 2.411 6.067 5.853z"></path>
</svg>
