<!-- Generated by IcoMoon.io -->
<svg version="1.1" xmlns="http://www.w3.org/2000/svg" width="21" height="24" viewBox="0 0 21 24">
<path d="M6.857 17.143c0-0.951-0.763-1.714-1.714-1.714s-1.714 0.763-1.714 1.714 0.763 1.714 1.714 1.714 1.714-0.763 1.714-1.714zM11.558 18.402c-0.228-4.152-3.522-7.446-7.674-7.674-0.121-0.013-0.241 0.040-0.321 0.121s-0.134 0.188-0.134 0.308v1.714c0 0.228 0.174 0.415 0.402 0.429 2.746 0.201 4.955 2.411 5.156 5.156 0.013 0.228 0.201 0.402 0.429 0.402h1.714c0.121 0 0.228-0.054 0.308-0.134s0.134-0.201 0.121-0.321zM16.701 18.415c-0.228-6.964-5.866-12.603-12.83-12.83-0.134-0.013-0.228 0.027-0.308 0.121-0.080 0.080-0.134 0.188-0.134 0.308v1.714c0 0.228 0.188 0.415 0.415 0.429 5.558 0.201 10.085 4.728 10.286 10.286 0.013 0.228 0.201 0.415 0.429 0.415h1.714c0.121 0 0.228-0.054 0.308-0.134 0.094-0.080 0.134-0.188 0.121-0.308zM20.571 5.571v12.857c0 2.129-1.728 3.857-3.857 3.857h-12.857c-2.129 0-3.857-1.728-3.857-3.857v-12.857c0-2.129 1.728-3.857 3.857-3.857h12.857c2.129 0 3.857 1.728 3.857 3.857z"></path>
</svg>
