<!-- Generated by IcoMoon.io -->
<svg version="1.1" xmlns="http://www.w3.org/2000/svg" width="24" height="24" viewBox="0 0 24 24">
<path d="M12.71 11.96c0 0.442-0.308 0.857-0.777 0.857-0.442 0-0.857-0.321-0.857-0.777 0-0.442 0.321-0.857 0.79-0.857 0.429 0 0.844 0.308 0.844 0.777zM12.911 12.737l4.688-7.781c-0.629 0.589-6.496 5.987-6.656 6.268l-4.674 7.768c0.616-0.576 6.496-6 6.643-6.254zM21.576 12c0 1.754-0.482 3.482-1.393 4.969-0.134-0.067-0.696-0.469-0.804-0.469-0.094 0-0.174 0.080-0.174 0.174 0 0.174 0.629 0.496 0.79 0.589-1.326 2.009-3.375 3.455-5.705 4.031l-0.214-0.897c-0.013-0.121-0.094-0.134-0.201-0.134-0.094 0-0.147 0.134-0.134 0.201l0.214 0.911c-0.643 0.134-1.299 0.201-1.955 0.201-1.754 0-3.482-0.496-4.982-1.406 0.080-0.134 0.589-0.871 0.589-0.978 0-0.094-0.080-0.174-0.174-0.174-0.188 0-0.589 0.804-0.71 0.964-2.022-1.339-3.482-3.415-4.045-5.786l0.924-0.201c0.107-0.027 0.134-0.107 0.134-0.201s-0.134-0.147-0.214-0.134l-0.911 0.201c-0.121-0.616-0.188-1.232-0.188-1.862 0-1.795 0.509-3.563 1.46-5.076 0.134 0.080 0.777 0.522 0.884 0.522 0.094 0 0.174-0.067 0.174-0.161 0-0.188-0.71-0.549-0.871-0.656 1.366-1.996 3.442-3.429 5.799-3.964l0.201 0.897c0.027 0.107 0.107 0.134 0.201 0.134s0.147-0.134 0.134-0.214l-0.201-0.884c0.589-0.107 1.192-0.174 1.795-0.174v0c1.795 0 3.549 0.509 5.076 1.46-0.094 0.134-0.522 0.763-0.522 0.871 0 0.094 0.067 0.174 0.161 0.174 0.188 0 0.549-0.696 0.643-0.857 1.982 1.339 3.402 3.388 3.951 5.719l-0.75 0.161c-0.121 0.027-0.134 0.107-0.134 0.214 0 0.094 0.134 0.147 0.201 0.134l0.763-0.174c0.121 0.616 0.188 1.246 0.188 1.875zM22.714 12c0-5.92-4.795-10.714-10.714-10.714s-10.714 4.795-10.714 10.714 4.795 10.714 10.714 10.714 10.714-4.795 10.714-10.714zM24 12c0 6.629-5.371 12-12 12s-12-5.371-12-12 5.371-12 12-12 12 5.371 12 12z"></path>
</svg>
