<!-- Generated by IcoMoon.io -->
<svg version="1.1" xmlns="http://www.w3.org/2000/svg" width="21" height="24" viewBox="0 0 21 24">
<path d="M20.089 20.746c0 1.594-1.286 2.893-2.893 2.893s-2.906-1.299-2.906-2.893c0-1.607 1.299-2.906 2.906-2.906s2.893 1.299 2.893 2.906zM16.969 16.982c-2.036 0.268-3.616 2.009-3.616 4.125 0 0.656 0.161 1.299 0.442 1.848-1.205 0.643-2.839 1.045-5.076 1.045-7.125 0-8.237-5.036-8.237-5.705 0-0.683 0.402-2.92 2.92-2.92s2.866 2.156 2.866 2.598c0 0 0 0.455-0.308 1.085 0.857 0.804 2.879 0.804 2.879 0.804 2.022 0 3.549-0.991 3.549-2.464 0-1.487-1.714-2.21-5.625-4.045-3.911-1.848-5.384-3.201-5.384-6.563 0-3.375 2.25-6.79 7.862-6.79s7.728 3.147 7.728 5.304-1.835 2.692-2.518 2.692c-0.67 0-3.147 0.228-3.147-3.496-0.442-0.496-2.371-0.496-2.371-0.496-1.942 0-2.799 1.473-2.799 2.371 0 0.911 0.362 2.036 4.406 3.375 6.201 2.063 6.429 4.754 6.429 7.232z"></path>
</svg>
