<!-- Generated by IcoMoon.io -->
<svg version="1.1" xmlns="http://www.w3.org/2000/svg" width="27" height="24" viewBox="0 0 27 24">
<path d="M20.089 18.362v-9.817c0-0.375-0.308-0.683-0.67-0.683h-1.246c-0.362 0-0.67 0.308-0.67 0.683v9.817c0 0.362 0.308 0.67 0.67 0.67h1.246c0.362 0 0.67-0.308 0.67-0.67zM16.286 18.362v-7.112c0-0.362-0.308-0.67-0.67-0.67h-1.353c-0.362 0-0.67 0.308-0.67 0.67v7.112c0 0.362 0.308 0.67 0.67 0.67h1.353c0.362 0 0.67-0.308 0.67-0.67zM12.375 18.362v-5.746c0-0.362-0.308-0.67-0.67-0.67h-1.353c-0.362 0-0.67 0.308-0.67 0.67v5.746c0 0.362 0.308 0.67 0.67 0.67h1.353c0.362 0 0.67-0.308 0.67-0.67zM8.464 18.362v-4.848c0-0.362-0.308-0.67-0.67-0.67h-1.353c-0.362 0-0.67 0.308-0.67 0.67v4.848c0 0.362 0.308 0.67 0.67 0.67h1.353c0.362 0 0.67-0.308 0.67-0.67zM27.429 16.406c0 2.973-2.424 5.384-5.384 5.384h-16.661c-2.96 0-5.384-2.411-5.384-5.384 0-2.076 1.219-3.978 3.094-4.862-0.094-0.321-0.134-0.656-0.134-0.978 0-2.022 1.647-3.67 3.67-3.67 0.884 0 1.741 0.321 2.411 0.897 0.804-3.268 3.75-5.585 7.125-5.585 4.045 0 7.339 3.295 7.339 7.339 0 0.549-0.054 1.098-0.188 1.634 2.411 0.589 4.112 2.759 4.112 5.223z"></path>
</svg>
