<!-- Generated by IcoMoon.io -->
<svg version="1.1" xmlns="http://www.w3.org/2000/svg" width="24" height="24" viewBox="0 0 24 24">
<path d="M1.714 18.857h13.714v-1.714h-13.714v1.714zM1.714 12h13.714v-1.714h-13.714v1.714zM22.714 18c0-0.71-0.576-1.286-1.286-1.286s-1.286 0.576-1.286 1.286 0.576 1.286 1.286 1.286 1.286-0.576 1.286-1.286zM1.714 5.143h13.714v-1.714h-13.714v1.714zM22.714 11.143c0-0.71-0.576-1.286-1.286-1.286s-1.286 0.576-1.286 1.286 0.576 1.286 1.286 1.286 1.286-0.576 1.286-1.286zM22.714 4.286c0-0.71-0.576-1.286-1.286-1.286s-1.286 0.576-1.286 1.286 0.576 1.286 1.286 1.286 1.286-0.576 1.286-1.286zM24 15.429v5.143h-24v-5.143h24zM24 8.571v5.143h-24v-5.143h24zM24 1.714v5.143h-24v-5.143h24z"></path>
</svg>
