<!-- Generated by IcoMoon.io -->
<svg version="1.1" xmlns="http://www.w3.org/2000/svg" width="21" height="24" viewBox="0 0 21 24">
<path d="M16.286 13.714c2.371 0 4.286 1.915 4.286 4.286s-1.915 4.286-4.286 4.286-4.286-1.915-4.286-4.286c0-0.147 0.013-0.308 0.027-0.455l-4.821-2.411c-0.763 0.71-1.795 1.152-2.92 1.152-2.371 0-4.286-1.915-4.286-4.286s1.915-4.286 4.286-4.286c1.125 0 2.156 0.442 2.92 1.152l4.821-2.411c-0.013-0.147-0.027-0.308-0.027-0.455 0-2.371 1.915-4.286 4.286-4.286s4.286 1.915 4.286 4.286-1.915 4.286-4.286 4.286c-1.125 0-2.156-0.442-2.92-1.152l-4.821 2.411c0.013 0.147 0.027 0.308 0.027 0.455s-0.013 0.308-0.027 0.455l4.821 2.411c0.763-0.71 1.795-1.152 2.92-1.152z"></path>
</svg>
