<!-- Generated by IcoMoon.io -->
<svg version="1.1" xmlns="http://www.w3.org/2000/svg" width="27" height="24" viewBox="0 0 27 24">
<path d="M24.254 20.826c0.335-0.335 0.871-0.335 1.205 0l1.714 1.714-1.205 1.205-1.112-1.112-1.112 1.112c-0.161 0.174-0.388 0.254-0.603 0.254s-0.442-0.080-0.603-0.254l-1.112-1.112-1.112 1.112c-0.335 0.335-0.871 0.335-1.205 0l-1.112-1.112-1.112 1.112c-0.335 0.335-0.871 0.335-1.205 0l-1.112-1.112-1.112 1.112c-0.335 0.335-0.871 0.335-1.205 0l-1.112-1.112-1.112 1.112c-0.335 0.335-0.871 0.335-1.205 0l-1.112-1.112-1.112 1.112c-0.335 0.335-0.871 0.335-1.205 0l-1.112-1.112-1.112 1.112c-0.335 0.335-0.871 0.335-1.205 0l-1.714-1.714 1.205-1.205 1.112 1.112 1.112-1.112c0.335-0.335 0.871-0.335 1.205 0l1.112 1.112 1.112-1.112c0.335-0.335 0.871-0.335 1.205 0l1.112 1.112 1.112-1.112c0.335-0.335 0.871-0.335 1.205 0l1.112 1.112 1.112-1.112c0.335-0.335 0.871-0.335 1.205 0l1.112 1.112 1.112-1.112c0.335-0.335 0.871-0.335 1.205 0l1.112 1.112 1.112-1.112c0.335-0.335 0.871-0.335 1.205 0l1.112 1.112zM3.174 20.317c-0.335 0.335-0.871 0.335-1.205 0l-1.714-1.714 1.205-1.205 1.112 1.098 1.112-1.098c0.335-0.335 0.871-0.335 1.205 0l1.112 1.098 0.857-0.857v-3.924l-2.813-4.205c-0.308-0.469-0.094-1.112 0.442-1.299l2.371-0.777v-4.004h1.714v-1.714h3.429v-1.714h3.429v1.714h3.429v1.714h1.714v4.004l2.371 0.777c0.536 0.188 0.75 0.83 0.442 1.299l-2.813 4.205v3.924l0.254-0.241c0.335-0.335 0.871-0.335 1.205 0l1.112 1.098 1.112-1.098c0.335-0.335 0.871-0.335 1.205 0l1.714 1.714-1.205 1.205-1.112-1.112-1.112 1.112c-0.161 0.174-0.388 0.254-0.603 0.254s-0.442-0.080-0.603-0.254l-1.112-1.112-1.112 1.112c-0.335 0.335-0.871 0.335-1.205 0l-1.112-1.112-1.112 1.112c-0.335 0.335-0.871 0.335-1.205 0l-1.112-1.112-1.112 1.112c-0.335 0.335-0.871 0.335-1.205 0l-1.112-1.112-1.112 1.112c-0.335 0.335-0.871 0.335-1.205 0l-1.112-1.112-1.112 1.112c-0.335 0.335-0.871 0.335-1.205 0l-1.112-1.112zM8.571 5.143v1.714l5.143-1.714 5.143 1.714v-1.714h-1.714v-1.714h-6.857v1.714h-1.714z"></path>
</svg>
