<!-- Generated by IcoMoon.io -->
<svg version="1.1" xmlns="http://www.w3.org/2000/svg" width="21" height="24" viewBox="0 0 21 24">
<path d="M0 0h20.571v18.643l-10.393 4.527-10.179-4.527v-18.643zM19.232 17.772v-12.402h-17.893v12.402l8.853 3.938zM19.232 4.031v-2.692h-17.893v2.692h17.893zM2.424 8.022v1.54h-0.496v-1.54h0.496zM2.424 10.004v1.54h-0.496v-1.54h0.496zM2.424 11.987v1.54h-0.496v-1.54h0.496zM2.424 13.969v1.54h-0.496v-1.54h0.496zM2.424 15.951v1.54h-0.496v-1.54h0.496zM2.772 17.866l0.201-0.455 1.406 0.629-0.201 0.442zM4.594 18.67l0.201-0.455 1.406 0.616-0.201 0.455zM6.402 19.473l0.201-0.455 1.406 0.616-0.201 0.455zM8.223 20.263l0.201-0.442 1.393 0.616-0.201 0.455zM10.674 20.438l1.406-0.616 0.201 0.442-1.406 0.629zM12.482 19.634l1.406-0.616 0.201 0.455-1.406 0.616zM14.304 18.83l1.406-0.616 0.201 0.455-1.406 0.616zM16.112 18.040l1.406-0.629 0.201 0.455-1.406 0.616zM3.469 1.969v0.482h-1.527v-0.482h1.527zM5.638 1.969v0.482h-1.54v-0.482h1.54zM7.808 1.969v0.482h-1.54v-0.482h1.54zM9.964 1.969v0.482h-1.527v-0.482h1.527zM12.134 1.969v0.482h-1.527v-0.482h1.527zM14.304 1.969v0.482h-1.54v-0.482h1.54zM16.473 1.969v0.482h-1.54v-0.482h1.54zM18.629 1.969v0.482h-1.527v-0.482h1.527zM2.424 6.522v1.058h-0.496v-1.54h1.54v0.482h-1.045zM5.638 6.040v0.482h-1.54v-0.482h1.54zM7.808 6.040v0.482h-1.54v-0.482h1.54zM9.964 6.040v0.482h-1.527v-0.482h1.527zM12.134 6.040v0.482h-1.527v-0.482h1.527zM14.304 6.040v0.482h-1.54v-0.482h1.54zM16.473 6.040v0.482h-1.54v-0.482h1.54zM18.147 7.58v-1.058h-1.045v-0.482h1.54v1.54h-0.496zM18.147 9.563v-1.54h0.496v1.54h-0.496zM18.147 11.545v-1.54h0.496v1.54h-0.496zM18.147 13.527v-1.54h0.496v1.54h-0.496zM18.147 15.509v-1.54h0.496v1.54h-0.496zM18.147 17.491v-1.54h0.496v1.54h-0.496zM10.179 17.022c-2.304 0-4.192-1.875-4.192-4.192 0-2.304 1.888-4.192 4.192-4.192 2.317 0 4.192 1.888 4.192 4.192 0 2.317-1.875 4.192-4.192 4.192zM7.969 11.92c0 2.036 3.563 0.549 3.563 1.741 0 0.603-1.098 0.656-1.5 0.656-0.563 0-1.366-0.121-1.647-0.683h-0.040l-0.415 0.844c0.683 0.429 1.339 0.563 2.17 0.563 0.897 0 2.344-0.268 2.344-1.433 0-2.21-3.603-0.75-3.603-1.741 0-0.603 0.951-0.683 1.366-0.683 0.496 0 1.339 0.147 1.634 0.603h0.040l0.402-0.777c-0.696-0.281-1.259-0.549-2.036-0.549-0.924 0-2.277 0.295-2.277 1.46z"></path>
</svg>
