<!-- Generated by IcoMoon.io -->
<svg version="1.1" xmlns="http://www.w3.org/2000/svg" width="27" height="24" viewBox="0 0 27 24">
<path d="M25.714 10.286c0.951 0 1.714 0.763 1.714 1.714s-0.763 1.714-1.714 1.714h-0.201l-1.54 8.866c-0.147 0.817-0.857 1.42-1.688 1.42h-17.143c-0.83 0-1.54-0.603-1.688-1.42l-1.54-8.866h-0.201c-0.951 0-1.714-0.763-1.714-1.714s0.763-1.714 1.714-1.714h24zM6.496 21c0.469-0.040 0.83-0.455 0.79-0.924l-0.429-5.571c-0.040-0.469-0.455-0.83-0.924-0.79s-0.83 0.455-0.79 0.924l0.429 5.571c0.040 0.442 0.415 0.79 0.857 0.79h0.067zM12 20.143v-5.571c0-0.469-0.388-0.857-0.857-0.857s-0.857 0.388-0.857 0.857v5.571c0 0.469 0.388 0.857 0.857 0.857s0.857-0.388 0.857-0.857zM17.143 20.143v-5.571c0-0.469-0.388-0.857-0.857-0.857s-0.857 0.388-0.857 0.857v5.571c0 0.469 0.388 0.857 0.857 0.857s0.857-0.388 0.857-0.857zM21.857 20.21l0.429-5.571c0.040-0.469-0.321-0.884-0.79-0.924s-0.884 0.321-0.924 0.79l-0.429 5.571c-0.040 0.469 0.321 0.884 0.79 0.924h0.067c0.442 0 0.817-0.348 0.857-0.79zM6.375 3.911l-1.246 5.518h-1.768l1.353-5.906c0.348-1.567 1.728-2.665 3.335-2.665h2.237c0-0.469 0.388-0.857 0.857-0.857h5.143c0.469 0 0.857 0.388 0.857 0.857h2.237c1.607 0 2.987 1.098 3.335 2.665l1.353 5.906h-1.768l-1.246-5.518c-0.188-0.79-0.871-1.339-1.674-1.339h-2.237c0 0.469-0.388 0.857-0.857 0.857h-5.143c-0.469 0-0.857-0.388-0.857-0.857h-2.237c-0.804 0-1.487 0.549-1.674 1.339z"></path>
</svg>
