<!-- Generated by IcoMoon.io -->
<svg version="1.1" xmlns="http://www.w3.org/2000/svg" width="24" height="24" viewBox="0 0 24 24">
<path d="M23.531 18.857l0.469 4.192c0.027 0.241-0.054 0.482-0.214 0.67-0.161 0.174-0.402 0.281-0.643 0.281h-22.286c-0.241 0-0.482-0.107-0.643-0.281-0.161-0.188-0.241-0.429-0.214-0.67l0.469-4.192h23.063zM22.286 7.621l1.152 10.379h-22.875l1.152-10.379c0.054-0.429 0.415-0.763 0.857-0.763h3.429v1.714c0 0.951 0.763 1.714 1.714 1.714s1.714-0.763 1.714-1.714v-1.714h5.143v1.714c0 0.951 0.763 1.714 1.714 1.714s1.714-0.763 1.714-1.714v-1.714h3.429c0.442 0 0.804 0.335 0.857 0.763zM17.143 5.143v3.429c0 0.469-0.388 0.857-0.857 0.857s-0.857-0.388-0.857-0.857v-3.429c0-1.888-1.54-3.429-3.429-3.429s-3.429 1.54-3.429 3.429v3.429c0 0.469-0.388 0.857-0.857 0.857s-0.857-0.388-0.857-0.857v-3.429c0-2.839 2.304-5.143 5.143-5.143s5.143 2.304 5.143 5.143z"></path>
</svg>
