<!-- Generated by IcoMoon.io -->
<svg version="1.1" xmlns="http://www.w3.org/2000/svg" width="26" height="24" viewBox="0 0 26 24">
<path d="M19.192 3.335c0.174 0.174 0.174 0.442 0 0.616l-8.384 8.384c-0.174 0.174-0.442 0.174-0.616 0l-1.098-1.098c-0.174-0.174-0.174-0.442 0-0.616l0.589-0.589c-1.299-1.634-1.46-3.871-0.469-5.652-0.616-0.589-1.446-0.951-2.357-0.951-1.888 0-3.429 1.54-3.429 3.429v17.143h-3.429v-17.143c0-3.777 3.080-6.857 6.857-6.857 1.929 0 3.67 0.804 4.915 2.089 1.688-0.683 3.643-0.429 5.116 0.737l0.589-0.589c0.174-0.174 0.442-0.174 0.616 0zM18 6.857c0.469 0 0.857 0.388 0.857 0.857s-0.388 0.857-0.857 0.857-0.857-0.388-0.857-0.857 0.388-0.857 0.857-0.857zM21.429 8.571c-0.469 0-0.857-0.388-0.857-0.857s0.388-0.857 0.857-0.857 0.857 0.388 0.857 0.857-0.388 0.857-0.857 0.857zM24.857 6.857c0.469 0 0.857 0.388 0.857 0.857s-0.388 0.857-0.857 0.857-0.857-0.388-0.857-0.857 0.388-0.857 0.857-0.857zM16.286 8.571c0.469 0 0.857 0.388 0.857 0.857s-0.388 0.857-0.857 0.857-0.857-0.388-0.857-0.857 0.388-0.857 0.857-0.857zM18.857 9.429c0-0.469 0.388-0.857 0.857-0.857s0.857 0.388 0.857 0.857-0.388 0.857-0.857 0.857-0.857-0.388-0.857-0.857zM23.143 8.571c0.469 0 0.857 0.388 0.857 0.857s-0.388 0.857-0.857 0.857-0.857-0.388-0.857-0.857 0.388-0.857 0.857-0.857zM14.571 10.286c0.469 0 0.857 0.388 0.857 0.857s-0.388 0.857-0.857 0.857-0.857-0.388-0.857-0.857 0.388-0.857 0.857-0.857zM18 12c-0.469 0-0.857-0.388-0.857-0.857s0.388-0.857 0.857-0.857 0.857 0.388 0.857 0.857-0.388 0.857-0.857 0.857zM21.429 10.286c0.469 0 0.857 0.388 0.857 0.857s-0.388 0.857-0.857 0.857-0.857-0.388-0.857-0.857 0.388-0.857 0.857-0.857zM16.286 13.714c-0.469 0-0.857-0.388-0.857-0.857s0.388-0.857 0.857-0.857 0.857 0.388 0.857 0.857-0.388 0.857-0.857 0.857zM19.714 12c0.469 0 0.857 0.388 0.857 0.857s-0.388 0.857-0.857 0.857-0.857-0.388-0.857-0.857 0.388-0.857 0.857-0.857zM14.571 13.714c0.469 0 0.857 0.388 0.857 0.857s-0.388 0.857-0.857 0.857-0.857-0.388-0.857-0.857 0.388-0.857 0.857-0.857zM18 13.714c0.469 0 0.857 0.388 0.857 0.857s-0.388 0.857-0.857 0.857-0.857-0.388-0.857-0.857 0.388-0.857 0.857-0.857zM16.286 15.429c0.469 0 0.857 0.388 0.857 0.857s-0.388 0.857-0.857 0.857-0.857-0.388-0.857-0.857 0.388-0.857 0.857-0.857zM14.571 17.143c0.469 0 0.857 0.388 0.857 0.857s-0.388 0.857-0.857 0.857-0.857-0.388-0.857-0.857 0.388-0.857 0.857-0.857z"></path>
</svg>
