<!-- Generated by IcoMoon.io -->
<svg version="1.1" xmlns="http://www.w3.org/2000/svg" width="22" height="24" viewBox="0 0 22 24">
<path d="M11.129 9.013c0.281 0 0.549 0.080 0.79 0.241l2.973 1.982c0.549 0.362 1.045 0.804 1.473 1.299l1.955 2.277c0.335 0.388 0.482 0.911 0.388 1.42l-0.964 5.531c-0.107 0.563-0.563 0.991-1.138 1.058l-7.058 0.75-4.714 0.429h-0.121c-0.696 0-1.286-0.563-1.286-1.286 0-0.67 0.563-1.205 1.232-1.286l3.482-0.429h-6c-0.737 0-1.326-0.616-1.286-1.353 0.040-0.696 0.656-1.219 1.353-1.219l5.92-0.013-6.978-0.857c-0.723-0.080-1.246-0.737-1.138-1.473 0.107-0.643 0.696-1.071 1.339-1.071h0.134l6.442 0.804-4.701-1.259c-0.67-0.174-1.179-0.79-1.071-1.473 0.107-0.643 0.656-1.085 1.272-1.085 0.094 0 0.174 0.013 0.268 0.027l6 1.286 2.906 0.496c0.027 0 0.054 0.013 0.080 0.013 0.402 0 0.603-0.549 0.241-0.79l-2.491-1.674c-0.616-0.415-0.763-1.246-0.321-1.835 0.241-0.335 0.629-0.509 1.018-0.509zM10.192 11.719l2.491 1.674-2.92-0.496-0.067-0.027-0.482-0.509-3.188-3.509c-0.027-0.027-0.040-0.067-0.067-0.094-0.415-0.549-0.321-1.353 0.254-1.795 0.536-0.415 1.299-0.281 1.768 0.214l1.902 1.969c-0.040 0.040-0.080 0.067-0.121 0.107-0.281 0.388-0.388 0.857-0.308 1.326 0.080 0.455 0.348 0.871 0.737 1.138zM22.071 5.638l0.201 3.563c0.040 0.656-0.013 1.326-0.147 1.969l-0.643 2.933c-0.107 0.509-0.429 0.924-0.897 1.165l-1.42 0.723c0.013-0.536-0.161-1.045-0.522-1.46l-1.955-2.277c-0.455-0.522-0.978-0.991-1.567-1.379l-2.973-1.982c-0.295-0.201-0.643-0.308-1.018-0.308-0.455 0-0.871 0.188-1.179 0.496l-3.147-4.179c-0.442-0.589-0.308-1.42 0.308-1.835 0.576-0.402 1.366-0.214 1.795 0.348l3.563 4.714-3.509-6.094c-0.375-0.629-0.161-1.446 0.496-1.795 0.616-0.321 1.393-0.067 1.741 0.536l3.228 5.625-1.821-4.513c-0.254-0.643-0.080-1.42 0.536-1.741 0.656-0.348 1.46-0.067 1.768 0.603l2.585 5.558 1.353 2.625c0.214 0.415 0.844 0.241 0.817-0.214l-0.161-3c-0.040-0.737 0.536-1.353 1.272-1.366 0.696 0 1.259 0.589 1.299 1.286z"></path>
</svg>
