<!-- Generated by IcoMoon.io -->
<svg version="1.1" xmlns="http://www.w3.org/2000/svg" width="24" height="24" viewBox="0 0 24 24">
<path d="M3.429 19.286v2.571c0 0.241-0.188 0.429-0.429 0.429h-2.571c-0.241 0-0.429-0.188-0.429-0.429v-2.571c0-0.241 0.188-0.429 0.429-0.429h2.571c0.241 0 0.429 0.188 0.429 0.429zM8.571 17.571v4.286c0 0.241-0.188 0.429-0.429 0.429h-2.571c-0.241 0-0.429-0.188-0.429-0.429v-4.286c0-0.241 0.188-0.429 0.429-0.429h2.571c0.241 0 0.429 0.188 0.429 0.429zM13.714 14.143v7.714c0 0.241-0.188 0.429-0.429 0.429h-2.571c-0.241 0-0.429-0.188-0.429-0.429v-7.714c0-0.241 0.188-0.429 0.429-0.429h2.571c0.241 0 0.429 0.188 0.429 0.429zM18.857 9v12.857c0 0.241-0.188 0.429-0.429 0.429h-2.571c-0.241 0-0.429-0.188-0.429-0.429v-12.857c0-0.241 0.188-0.429 0.429-0.429h2.571c0.241 0 0.429 0.188 0.429 0.429zM24 2.143v19.714c0 0.241-0.188 0.429-0.429 0.429h-2.571c-0.241 0-0.429-0.188-0.429-0.429v-19.714c0-0.241 0.188-0.429 0.429-0.429h2.571c0.241 0 0.429 0.188 0.429 0.429z"></path>
</svg>
