<!-- Generated by IcoMoon.io -->
<svg version="1.1" xmlns="http://www.w3.org/2000/svg" width="27" height="24" viewBox="0 0 27 24">
<path d="M11.558 13.821c0-2.009-1.621-3.629-3.629-3.629-1.996 0-3.616 1.621-3.616 3.629 0 1.996 1.621 3.616 3.616 3.616 2.009 0 3.629-1.621 3.629-3.616zM23.116 13.808c0-1.996-1.621-3.616-3.616-3.616-2.009 0-3.629 1.621-3.629 3.616 0 2.009 1.621 3.629 3.629 3.629 1.996 0 3.616-1.621 3.616-3.629zM27.429 2.973v18.054c0 0.79-0.643 1.433-1.446 1.433h-24.536c-0.804 0-1.446-0.643-1.446-1.433v-18.054c0-0.79 0.643-1.433 1.446-1.433h5.772c0.79 0 1.446 0.643 1.446 1.433v2.156h10.098v-2.156c0-0.79 0.656-1.433 1.446-1.433h5.772c0.804 0 1.446 0.643 1.446 1.433z"></path>
</svg>
