<!-- Generated by IcoMoon.io -->
<svg version="1.1" xmlns="http://www.w3.org/2000/svg" width="27" height="24" viewBox="0 0 27 24">
<path d="M19.152 7.808c0 0-0.013-0.013 0 0v0zM22.634 10.54c2.598 0 4.795 1.942 4.795 4.594 0 2.826-2.25 4.902-5.036 4.902-7.112 0-8.424-10.701-15.415-10.701-2.705 0-4.674 1.728-4.674 4.5 0 2.866 2.143 4.594 4.915 4.594 1.821 0 3.897-0.763 5.371-1.821 0.241-0.174 0.723-0.696 0.978-0.696s0.469 0.214 0.469 0.469c0 0.335-0.563 0.817-0.804 1.031-1.754 1.527-4.299 2.625-6.629 2.625-3.576 0-6.603-2.531-6.603-6.214s2.893-6.388 6.549-6.388c7.942 0 9.536 10.54 15.509 10.54 1.795 0 3.147-1.165 3.147-3 0-1.701-1.313-2.987-3-2.987-0.75 0-1.5 0.496-2.009 0.496-0.362 0-0.683-0.308-0.683-0.67 0-0.496 0.228-1.018 0.228-1.554 0-2.853-2.183-4.915-5.009-4.915-2.277 0-3.429 1.58-3.804 1.58-0.268 0-0.482-0.214-0.482-0.482 0-0.241 0.174-0.442 0.335-0.616 1.085-1.232 2.772-1.875 4.406-1.875 3.402 0 5.96 2.504 5.96 5.906 0 0.295-0.013 0.589-0.054 0.884 0.509-0.134 1.031-0.201 1.54-0.201z"></path>
</svg>
