<!-- Generated by IcoMoon.io -->
<svg version="1.1" xmlns="http://www.w3.org/2000/svg" width="21" height="24" viewBox="0 0 21 24">
<path d="M15.71 14.237c0-2.33-2.263-3.134-4.165-3.563l-1.393-0.321c-1.018-0.241-1.781-0.415-1.781-1.192 0-0.71 0.75-1.031 1.929-1.031 2.103 0 2.143 1.54 3.442 1.54 0.871 0 1.393-0.683 1.393-1.46 0-1.54-2.558-2.545-5.089-2.545-2.317 0-5.009 1.004-5.009 3.723 0 2.25 1.5 3.054 3.455 3.522l1.955 0.482c1.192 0.295 1.929 0.429 1.929 1.286 0 0.683-0.763 1.205-1.942 1.205-2.478 0-2.612-2.063-4.045-2.063-0.938 0-1.353 0.67-1.353 1.406 0 1.647 2.518 2.987 5.531 2.987 2.518 0 5.143-1.259 5.143-3.978zM20.571 17.143c0 2.839-2.304 5.143-5.143 5.143-1.179 0-2.263-0.402-3.134-1.071-0.643 0.134-1.326 0.214-2.009 0.214-5.21 0-9.429-4.219-9.429-9.429 0-0.683 0.080-1.366 0.214-2.009-0.67-0.871-1.071-1.955-1.071-3.134 0-2.839 2.304-5.143 5.143-5.143 1.179 0 2.263 0.402 3.134 1.071 0.643-0.134 1.326-0.214 2.009-0.214 5.21 0 9.429 4.219 9.429 9.429 0 0.683-0.080 1.366-0.214 2.009 0.67 0.871 1.071 1.955 1.071 3.134z"></path>
</svg>
