<!-- Generated by IcoMoon.io -->
<svg version="1.1" xmlns="http://www.w3.org/2000/svg" width="22" height="24" viewBox="0 0 22 24">
<path d="M20.344 10.393c1.098 0 1.942 0.804 1.942 1.902 0 0.857-0.442 1.46-1.246 1.741l-2.304 0.79 0.75 2.237c0.067 0.201 0.094 0.415 0.094 0.629 0 1.058-0.857 1.942-1.915 1.942-0.844 0-1.594-0.522-1.862-1.326l-0.737-2.21-4.152 1.42 0.737 2.196c0.067 0.201 0.107 0.415 0.107 0.629 0 1.045-0.857 1.942-1.929 1.942-0.844 0-1.58-0.522-1.848-1.326l-0.737-2.183-2.049 0.71c-0.214 0.067-0.442 0.121-0.67 0.121-1.085 0-1.902-0.804-1.902-1.888 0-0.83 0.536-1.58 1.326-1.848l2.089-0.71-1.406-4.192-2.089 0.723c-0.214 0.067-0.429 0.107-0.643 0.107-1.071 0-1.902-0.817-1.902-1.888 0-0.83 0.536-1.58 1.326-1.848l2.103-0.71-0.71-2.129c-0.067-0.201-0.107-0.415-0.107-0.629 0-1.058 0.857-1.942 1.929-1.942 0.844 0 1.58 0.522 1.848 1.326l0.723 2.143 4.152-1.406-0.723-2.143c-0.067-0.201-0.107-0.415-0.107-0.629 0-1.058 0.871-1.942 1.929-1.942 0.844 0 1.594 0.536 1.862 1.326l0.71 2.156 2.17-0.737c0.188-0.054 0.375-0.080 0.576-0.080 1.045 0 1.942 0.777 1.942 1.848 0 0.83-0.643 1.527-1.393 1.781l-2.103 0.723 1.406 4.232 2.196-0.75c0.201-0.067 0.415-0.107 0.616-0.107zM9.71 13.902l4.152-1.406-1.406-4.219-4.152 1.433z"></path>
</svg>
