<!-- Generated by IcoMoon.io -->
<svg version="1.1" xmlns="http://www.w3.org/2000/svg" width="21" height="24" viewBox="0 0 21 24">
<path d="M4.714 18.857v1.714h-4.714v-1.714h4.714zM9.429 17.143c0.469 0 0.857 0.388 0.857 0.857v3.429c0 0.469-0.388 0.857-0.857 0.857h-3.429c-0.469 0-0.857-0.388-0.857-0.857v-3.429c0-0.469 0.388-0.857 0.857-0.857h3.429zM11.571 12v1.714h-11.571v-1.714h11.571zM3 5.143v1.714h-3v-1.714h3zM20.571 18.857v1.714h-9.857v-1.714h9.857zM7.714 3.429c0.469 0 0.857 0.388 0.857 0.857v3.429c0 0.469-0.388 0.857-0.857 0.857h-3.429c-0.469 0-0.857-0.388-0.857-0.857v-3.429c0-0.469 0.388-0.857 0.857-0.857h3.429zM16.286 10.286c0.469 0 0.857 0.388 0.857 0.857v3.429c0 0.469-0.388 0.857-0.857 0.857h-3.429c-0.469 0-0.857-0.388-0.857-0.857v-3.429c0-0.469 0.388-0.857 0.857-0.857h3.429zM20.571 12v1.714h-3v-1.714h3zM20.571 5.143v1.714h-11.571v-1.714h11.571z"></path>
</svg>
