<!-- Generated by IcoMoon.io -->
<svg version="1.1" xmlns="http://www.w3.org/2000/svg" width="24" height="24" viewBox="0 0 24 24">
<path d="M11.692 9.911c0 1.487-1.299 2.705-2.893 2.705s-2.893-1.219-2.893-2.705c0-1.5 1.299-2.705 2.893-2.705s2.893 1.205 2.893 2.705zM18.415 9.911c0 1.487-1.286 2.705-2.893 2.705-1.594 0-2.893-1.219-2.893-2.705 0-1.5 1.299-2.705 2.893-2.705 1.607 0 2.893 1.205 2.893 2.705zM21.429 12.321v-8.933c0-1.54-0.496-2.143-1.915-2.143h-14.893c-1.487 0-1.902 0.509-1.902 2.143v9.013c3.174 1.661 5.893 1.366 7.379 1.313 0.629-0.013 1.031 0.107 1.272 0.362 0.040 0.040 0.080 0.080 0.134 0.121 0.281 0.268 0.549 0.482 0.817 0.683 0.054-0.737 0.469-1.205 1.58-1.165 1.513 0.067 4.299 0.362 7.527-1.393zM23.612 12.254c-0.857 1.058-2.491 2.357-4.982 3.375 2.638 8.987-6.442 10.42-6.295 5.813 0 0.080-0.013-2.478-0.013-4.379-0.201-0.040-0.402-0.094-0.643-0.147 0 1.915-0.013 4.607-0.013 4.527 0.147 4.607-8.933 3.174-6.295-5.813-2.491-1.018-4.125-2.317-4.982-3.375-0.429-0.643 0.040-1.326 0.75-0.83 0.094 0.067 0.201 0.134 0.295 0.201v-9.295c0-1.286 0.964-2.33 2.156-2.33h16.835c1.192 0 2.156 1.045 2.156 2.33v9.295l0.281-0.201c0.71-0.496 1.179 0.188 0.75 0.83z"></path>
</svg>
