<!-- Generated by IcoMoon.io -->
<svg version="1.1" xmlns="http://www.w3.org/2000/svg" width="21" height="24" viewBox="0 0 21 24">
<path d="M17.129 15.375c0-0.188-0.107-0.321-0.295-0.362-1.219-0.268-2.143-1.112-2.652-2.237-0.040-0.107-0.094-0.214-0.094-0.335 0-0.603 1.674-0.482 1.674-1.339 0-0.362-0.442-0.589-0.763-0.589-0.308 0-0.549 0.214-0.844 0.214-0.054 0-0.107-0.013-0.161-0.027 0.027-0.509 0.067-1.018 0.067-1.527 0-0.469-0.027-1.112-0.228-1.527-0.643-1.393-1.888-2.21-3.415-2.21-1.674 0-2.946 0.616-3.683 2.21-0.201 0.415-0.228 1.058-0.228 1.527 0 0.509 0.040 1.018 0.067 1.527-0.054 0.027-0.121 0.027-0.188 0.027-0.308 0-0.549-0.201-0.83-0.201-0.335 0-0.75 0.214-0.75 0.589 0 0.83 1.674 0.723 1.674 1.326 0 0.121-0.054 0.228-0.094 0.335-0.522 1.125-1.42 1.969-2.652 2.237-0.188 0.040-0.295 0.174-0.295 0.362 0 0.616 1.42 0.844 1.835 0.911 0.121 0.321 0.067 0.884 0.549 0.884 0.335 0 0.67-0.121 1.031-0.121 1.406 0 1.781 1.272 3.415 1.272 1.701 0 2.022-1.272 3.442-1.272 0.362 0 0.696 0.107 1.045 0.107 0.469 0 0.415-0.563 0.536-0.871 0.415-0.067 1.835-0.295 1.835-0.911zM20.571 12c0 5.679-4.607 10.286-10.286 10.286s-10.286-4.607-10.286-10.286 4.607-10.286 10.286-10.286 10.286 4.607 10.286 10.286z"></path>
</svg>
