<!-- Generated by IcoMoon.io -->
<svg version="1.1" xmlns="http://www.w3.org/2000/svg" width="21" height="24" viewBox="0 0 21 24">
<path d="M17.143 15.375c0-0.188-0.107-0.321-0.295-0.362-1.219-0.254-2.143-1.112-2.652-2.237-0.054-0.107-0.094-0.214-0.094-0.335 0-0.603 1.661-0.482 1.661-1.339 0-0.362-0.442-0.589-0.763-0.589-0.295 0-0.536 0.214-0.844 0.214-0.054 0-0.107-0.013-0.161-0.027 0.040-0.509 0.067-1.031 0.067-1.54 0-0.455-0.027-1.098-0.228-1.527-0.643-1.393-1.875-2.21-3.415-2.21-1.674 0-2.946 0.629-3.683 2.21-0.201 0.429-0.241 1.071-0.241 1.54 0 0.509 0.040 1.018 0.080 1.527-0.067 0.013-0.134 0.027-0.201 0.027-0.295 0-0.549-0.214-0.83-0.214-0.335 0-0.737 0.228-0.737 0.603 0 0.83 1.661 0.723 1.661 1.326 0 0.121-0.040 0.228-0.094 0.335-0.522 1.125-1.42 1.969-2.652 2.237-0.188 0.040-0.295 0.174-0.295 0.362 0 0.629 1.42 0.857 1.848 0.924 0.121 0.321 0.067 0.884 0.536 0.884 0.348 0 0.683-0.134 1.031-0.134 1.42 0 1.795 1.272 3.429 1.272 1.701 0 2.022-1.272 3.455-1.272 0.348 0 0.696 0.121 1.045 0.121 0.455 0 0.415-0.563 0.522-0.871 0.429-0.067 1.848-0.295 1.848-0.924zM20.571 5.571v12.857c0 2.129-1.728 3.857-3.857 3.857h-12.857c-2.129 0-3.857-1.728-3.857-3.857v-12.857c0-2.129 1.728-3.857 3.857-3.857h12.857c2.129 0 3.857 1.728 3.857 3.857z"></path>
</svg>
