<!-- Generated by IcoMoon.io -->
<svg version="1.1" xmlns="http://www.w3.org/2000/svg" width="22" height="24" viewBox="0 0 22 24">
<path d="M20.973 14.96l-2.237 0.442 2.491 1.433c0.402 0.228 0.549 0.763 0.308 1.165s-0.763 0.549-1.165 0.308l-2.491-1.42 0.737 2.143c0.375 1.071-1.259 1.621-1.621 0.563l-1.366-4.018-3.629-2.089v4.192l2.786 3.188c0.75 0.844-0.549 1.982-1.286 1.125l-1.5-1.714v2.866c0 0.469-0.388 0.857-0.857 0.857s-0.857-0.388-0.857-0.857v-2.866l-1.5 1.714c-0.737 0.857-2.036-0.281-1.286-1.125l2.786-3.188v-4.192l-3.629 2.089-1.366 4.018c-0.362 1.058-1.996 0.509-1.621-0.563l0.737-2.143-2.491 1.42c-0.402 0.241-0.924 0.094-1.165-0.308s-0.094-0.938 0.308-1.165l2.491-1.433-2.237-0.442c-1.112-0.228-0.777-1.902 0.335-1.688l4.152 0.83 3.629-2.103-3.629-2.103-4.152 0.83c-0.054 0.013-0.121 0.013-0.174 0.013-1.018 0-1.165-1.5-0.161-1.701l2.237-0.442-2.491-1.433c-0.402-0.228-0.549-0.763-0.308-1.165 0.241-0.415 0.763-0.549 1.165-0.308l2.491 1.42-0.737-2.143c-0.375-1.071 1.259-1.621 1.621-0.563l1.366 4.018 3.629 2.089v-4.192l-2.786-3.188c-0.75-0.844 0.549-1.982 1.286-1.125l1.5 1.714v-2.866c0-0.469 0.388-0.857 0.857-0.857s0.857 0.388 0.857 0.857v2.866l1.5-1.714c0.737-0.857 2.036 0.281 1.286 1.125l-2.786 3.188v4.192l3.629-2.089 1.366-4.018c0.362-1.058 1.996-0.509 1.621 0.563l-0.737 2.143 2.491-1.42c0.402-0.241 0.924-0.094 1.165 0.308s0.094 0.938-0.308 1.165l-2.491 1.433 2.237 0.442c1.004 0.201 0.857 1.701-0.161 1.701-0.054 0-0.121 0-0.174-0.013l-4.152-0.83-3.629 2.103 3.629 2.103 4.152-0.83c1.112-0.214 1.446 1.46 0.335 1.688z"></path>
</svg>
