<!-- Generated by IcoMoon.io -->
<svg version="1.1" xmlns="http://www.w3.org/2000/svg" width="23" height="24" viewBox="0 0 23 24">
<path d="M15.951 19.179h2.371l-0.964-2.92-0.161-0.629c-0.013-0.107-0.027-0.188-0.027-0.268h-0.054l-0.040 0.268c-0.040 0.161-0.054 0.362-0.147 0.629zM9.857 19.286c0 0.121-0.054 0.228-0.134 0.321l-4.272 4.272c-0.094 0.080-0.201 0.121-0.308 0.121s-0.214-0.040-0.308-0.121l-4.286-4.286c-0.121-0.134-0.161-0.308-0.094-0.469s0.228-0.268 0.402-0.268h2.571v-18.429c0-0.241 0.188-0.429 0.429-0.429h2.571c0.241 0 0.429 0.188 0.429 0.429v18.429h2.571c0.241 0 0.429 0.188 0.429 0.429zM22.246 22.58v1.42h-3.857v-1.42h1.004l-0.629-1.929h-3.254l-0.629 1.929h1.004v1.42h-3.844v-1.42h0.938l3.080-8.866h2.17l3.080 8.866h0.938zM21.054 7.165v3.121h-7.821v-1.205l4.942-7.085c0.107-0.161 0.214-0.295 0.281-0.362l0.147-0.121v-0.040c-0.054 0-0.107 0.013-0.188 0.013-0.107 0.027-0.241 0.040-0.402 0.040h-3.107v1.54h-1.607v-3.067h7.594v1.192l-4.942 7.098c-0.080 0.121-0.188 0.241-0.281 0.348l-0.147 0.134v0.040l0.188-0.040c0.121-0.013 0.241-0.013 0.402-0.013h3.321v-1.594h1.621z"></path>
</svg>
