<!-- Generated by IcoMoon.io -->
<svg version="1.1" xmlns="http://www.w3.org/2000/svg" width="14" height="24" viewBox="0 0 14 24">
<path d="M13.714 14.571c0 0.228-0.094 0.442-0.254 0.603l-6 6c-0.161 0.161-0.375 0.254-0.603 0.254s-0.442-0.094-0.603-0.254l-6-6c-0.161-0.161-0.254-0.375-0.254-0.603 0-0.469 0.388-0.857 0.857-0.857h12c0.469 0 0.857 0.388 0.857 0.857zM13.714 9.429c0 0.469-0.388 0.857-0.857 0.857h-12c-0.469 0-0.857-0.388-0.857-0.857 0-0.228 0.094-0.442 0.254-0.603l6-6c0.161-0.161 0.375-0.254 0.603-0.254s0.442 0.094 0.603 0.254l6 6c0.161 0.161 0.254 0.375 0.254 0.603z"></path>
</svg>
