<!-- Generated by IcoMoon.io -->
<svg version="1.1" xmlns="http://www.w3.org/2000/svg" width="24" height="24" viewBox="0 0 24 24">
<path d="M9.857 19.286c0 0.121-0.054 0.228-0.134 0.321l-4.272 4.272c-0.094 0.080-0.201 0.121-0.308 0.121s-0.214-0.040-0.308-0.121l-4.286-4.286c-0.121-0.134-0.161-0.308-0.094-0.469s0.228-0.268 0.402-0.268h2.571v-18.429c0-0.241 0.188-0.429 0.429-0.429h2.571c0.241 0 0.429 0.188 0.429 0.429v18.429h2.571c0.241 0 0.429 0.188 0.429 0.429zM24 21v2.571c0 0.241-0.188 0.429-0.429 0.429h-11.143c-0.241 0-0.429-0.188-0.429-0.429v-2.571c0-0.241 0.188-0.429 0.429-0.429h11.143c0.241 0 0.429 0.188 0.429 0.429zM21.429 14.143v2.571c0 0.241-0.188 0.429-0.429 0.429h-8.571c-0.241 0-0.429-0.188-0.429-0.429v-2.571c0-0.241 0.188-0.429 0.429-0.429h8.571c0.241 0 0.429 0.188 0.429 0.429zM18.857 7.286v2.571c0 0.241-0.188 0.429-0.429 0.429h-6c-0.241 0-0.429-0.188-0.429-0.429v-2.571c0-0.241 0.187-0.429 0.429-0.429h6c0.241 0 0.429 0.188 0.429 0.429zM16.286 0.429v2.571c0 0.241-0.188 0.429-0.429 0.429h-3.429c-0.241 0-0.429-0.188-0.429-0.429v-2.571c0-0.241 0.187-0.429 0.429-0.429h3.429c0.241 0 0.429 0.188 0.429 0.429z"></path>
</svg>
