<!-- Generated by IcoMoon.io -->
<svg version="1.1" xmlns="http://www.w3.org/2000/svg" width="31" height="24" viewBox="0 0 31 24">
<path d="M10.5 18.375l0.214-3.228-0.214-7.004c-0.013-0.174-0.147-0.321-0.321-0.321-0.161 0-0.308 0.147-0.308 0.321l-0.188 7.004 0.188 3.228c0.013 0.174 0.147 0.308 0.308 0.308 0.174 0 0.308-0.134 0.321-0.308zM14.464 17.987l0.147-2.826-0.161-7.848c0-0.134-0.067-0.254-0.174-0.321-0.067-0.040-0.134-0.067-0.214-0.067s-0.147 0.027-0.214 0.067c-0.107 0.067-0.174 0.188-0.174 0.321l-0.013 0.080-0.134 7.754s0 0.013 0.147 3.161v0.013c0 0.080 0.027 0.161 0.080 0.228 0.080 0.094 0.188 0.147 0.308 0.147 0.107 0 0.201-0.054 0.268-0.121 0.080-0.067 0.121-0.161 0.121-0.268zM0.469 13.433l0.268 1.714-0.268 1.688c-0.013 0.067-0.054 0.121-0.121 0.121s-0.107-0.054-0.121-0.121l-0.228-1.688 0.228-1.714c0.013-0.067 0.054-0.121 0.121-0.121s0.107 0.054 0.121 0.121zM1.621 12.375l0.348 2.772-0.348 2.719c-0.013 0.067-0.067 0.121-0.134 0.121s-0.121-0.054-0.121-0.134l-0.308-2.705 0.308-2.772c0-0.067 0.054-0.121 0.121-0.121s0.121 0.054 0.134 0.121zM5.371 18.442v0 0zM2.853 11.866l0.335 3.281-0.335 3.174c0 0.080-0.067 0.147-0.147 0.147s-0.147-0.067-0.161-0.147l-0.281-3.174 0.281-3.281c0.013-0.094 0.080-0.161 0.161-0.161s0.147 0.067 0.147 0.161zM4.112 11.772l0.308 3.375-0.308 3.268c-0.013 0.107-0.094 0.174-0.188 0.174s-0.174-0.067-0.174-0.174l-0.281-3.268 0.281-3.375c0-0.107 0.080-0.174 0.174-0.174s0.174 0.067 0.188 0.174zM5.371 12.013l0.281 3.134-0.281 3.295c-0.013 0.121-0.107 0.214-0.214 0.214s-0.201-0.094-0.201-0.214l-0.268-3.295 0.268-3.134c0-0.107 0.094-0.201 0.201-0.201s0.201 0.094 0.214 0.201zM10.5 18.375v0 0zM6.629 10.058l0.281 5.089-0.281 3.295c0 0.134-0.107 0.241-0.228 0.241-0.134 0-0.228-0.107-0.241-0.241l-0.241-3.295 0.241-5.089c0.013-0.134 0.107-0.241 0.241-0.241 0.121 0 0.228 0.107 0.228 0.241zM7.888 8.906l0.254 6.268-0.254 3.268c0 0.147-0.121 0.254-0.254 0.254-0.147 0-0.254-0.107-0.268-0.254l-0.214-3.268 0.214-6.268c0.013-0.147 0.121-0.254 0.268-0.254 0.134 0 0.254 0.107 0.254 0.254zM9.201 8.371l0.241 6.777-0.241 3.241c-0.013 0.161-0.134 0.281-0.295 0.281-0.147 0-0.268-0.121-0.281-0.281l-0.214-3.241 0.214-6.777c0-0.161 0.134-0.295 0.281-0.295 0.161 0 0.281 0.134 0.295 0.295zM14.451 18.308v0 0 0 0 0 0zM11.799 8.317l0.201 6.83-0.201 3.201c0 0.188-0.147 0.335-0.335 0.335s-0.321-0.147-0.335-0.335l-0.188-3.201 0.188-6.83c0-0.188 0.147-0.335 0.335-0.335s0.335 0.147 0.335 0.335zM13.125 8.571l0.188 6.589-0.188 3.161c0 0.201-0.161 0.362-0.362 0.362s-0.362-0.161-0.375-0.362l-0.161-3.161 0.161-6.589c0.013-0.214 0.174-0.375 0.375-0.375s0.348 0.161 0.362 0.375zM15.964 15.161l-0.188 3.094c0 0.228-0.188 0.415-0.415 0.415s-0.415-0.188-0.429-0.415l-0.080-1.527-0.080-1.567 0.161-8.518v-0.040c0.013-0.121 0.067-0.241 0.161-0.321 0.067-0.054 0.161-0.094 0.268-0.094 0.067 0 0.147 0.027 0.201 0.067 0.121 0.067 0.201 0.201 0.214 0.348zM30.857 14.906c0 2.089-1.701 3.777-3.79 3.777h-10.527c-0.228-0.027-0.415-0.201-0.415-0.442v-12.040c0-0.228 0.080-0.335 0.375-0.442 0.737-0.295 1.567-0.455 2.424-0.455 3.496 0 6.362 2.679 6.67 6.094 0.455-0.188 0.951-0.295 1.473-0.295 2.089 0 3.79 1.701 3.79 3.804z"></path>
</svg>
