<!-- Generated by IcoMoon.io -->
<svg version="1.1" xmlns="http://www.w3.org/2000/svg" width="29" height="24" viewBox="0 0 29 24">
<path d="M8.304 15c-0.924 0.536-2.183 0.857-3.589 0.857h-1.714v-0.857h-0.857c-0.241 0-0.429-0.482-0.429-1.071 0-0.241 0.040-0.469 0.094-0.656-1.031-0.027-1.808-0.201-1.808-0.415s0.777-0.388 1.808-0.415c-0.054-0.188-0.094-0.415-0.094-0.656 0-0.589 0.188-1.071 0.429-1.071h0.857v-0.857h1.714c1.406 0 2.665 0.321 3.589 0.857h14.906c0.991 0.174 1.888 0.321 2.504 0.429 2.571 0.429 3.429 1.286 3.429 1.714s-0.857 1.286-3.429 1.714c-0.616 0.107-1.513 0.254-2.504 0.429h-14.906zM23.29 11.625c0.429 0.295 0.71 0.737 0.71 1.232s-0.281 0.938-0.71 1.232l1.085 0.402c0.549-0.388 0.911-0.978 0.911-1.634s-0.362-1.246-0.911-1.634zM8.371 15.214h13.594s-2.906 0.509-6.107 1.071c-1.714 0-3 1.286-3 1.286l-3.857 3.857s-1.299 0.857-2.143 0.857h-1.286l-1.246-6.214h0.388c1.366 0 2.665-0.308 3.656-0.857zM4.714 9.643h-0.388l1.246-6.214h1.286c0.871 0 1.714 0.429 2.143 0.857l3.857 3.857c0 0 1.286 1.286 3 1.286 3.201 0.563 6.107 1.071 6.107 1.071h-13.594c-0.991-0.549-2.29-0.857-3.656-0.857z"></path>
</svg>
