<!-- Generated by IcoMoon.io -->
<svg version="1.1" xmlns="http://www.w3.org/2000/svg" width="24" height="24" viewBox="0 0 24 24">
<path d="M7.045 18.67c0 0.938-0.763 1.714-1.714 1.714-0.938 0-1.714-0.777-1.714-1.714 0-0.951 0.777-1.714 1.714-1.714 0.951 0 1.714 0.763 1.714 1.714zM13.714 21.429c0 0.951-0.763 1.714-1.714 1.714s-1.714-0.763-1.714-1.714 0.763-1.714 1.714-1.714 1.714 0.763 1.714 1.714zM4.286 12c0 0.951-0.763 1.714-1.714 1.714s-1.714-0.763-1.714-1.714 0.763-1.714 1.714-1.714 1.714 0.763 1.714 1.714zM20.384 18.67c0 0.938-0.777 1.714-1.714 1.714-0.951 0-1.714-0.777-1.714-1.714 0-0.951 0.763-1.714 1.714-1.714 0.938 0 1.714 0.763 1.714 1.714zM7.473 5.33c0 1.179-0.964 2.143-2.143 2.143s-2.143-0.964-2.143-2.143 0.964-2.143 2.143-2.143 2.143 0.964 2.143 2.143zM23.143 12c0 0.951-0.763 1.714-1.714 1.714s-1.714-0.763-1.714-1.714 0.763-1.714 1.714-1.714 1.714 0.763 1.714 1.714zM14.571 2.571c0 1.42-1.152 2.571-2.571 2.571s-2.571-1.152-2.571-2.571 1.152-2.571 2.571-2.571 2.571 1.152 2.571 2.571zM21.67 5.33c0 1.661-1.353 3-3 3-1.661 0-3-1.339-3-3 0-1.647 1.339-3 3-3 1.647 0 3 1.353 3 3z"></path>
</svg>
