<!-- Generated by IcoMoon.io -->
<svg version="1.1" xmlns="http://www.w3.org/2000/svg" width="21" height="24" viewBox="0 0 21 24">
<path d="M15.094 16.205c0-0.375-0.147-0.522-0.402-0.683-1.728-1.031-3.737-1.54-5.987-1.54-1.313 0-2.571 0.174-3.844 0.455-0.308 0.067-0.563 0.268-0.563 0.696 0 0.335 0.254 0.656 0.656 0.656 0.121 0 0.335-0.067 0.496-0.107 1.045-0.214 2.143-0.362 3.254-0.362 1.969 0 3.83 0.482 5.317 1.379 0.161 0.094 0.268 0.147 0.442 0.147 0.335 0 0.629-0.268 0.629-0.643zM16.379 13.326c0-0.362-0.134-0.616-0.469-0.817-2.049-1.219-4.647-1.888-7.339-1.888-1.728 0-2.906 0.241-4.058 0.563-0.429 0.121-0.643 0.415-0.643 0.857s0.362 0.804 0.804 0.804c0.188 0 0.295-0.054 0.496-0.107 0.938-0.254 2.063-0.442 3.362-0.442 2.545 0 4.862 0.67 6.536 1.661 0.147 0.080 0.295 0.174 0.509 0.174 0.455 0 0.804-0.362 0.804-0.804zM17.826 10.004c0-0.496-0.214-0.75-0.536-0.938-2.317-1.353-5.491-1.982-8.518-1.982-1.781 0-3.415 0.201-4.875 0.629-0.375 0.107-0.723 0.429-0.723 0.991 0 0.549 0.415 0.978 0.964 0.978 0.201 0 0.388-0.067 0.536-0.107 1.299-0.362 2.705-0.496 4.112-0.496 2.786 0 5.679 0.616 7.54 1.728 0.188 0.107 0.321 0.161 0.536 0.161 0.509 0 0.964-0.402 0.964-0.964zM20.571 12c0 5.679-4.607 10.286-10.286 10.286s-10.286-4.607-10.286-10.286 4.607-10.286 10.286-10.286 10.286 4.607 10.286 10.286z"></path>
</svg>
