<!-- Generated by IcoMoon.io -->
<svg version="1.1" xmlns="http://www.w3.org/2000/svg" width="22" height="24" viewBox="0 0 22 24">
<path d="M15.228 13.446l4.098-3.978-5.652-0.83-2.531-5.116-2.531 5.116-5.652 0.83 4.098 3.978-0.978 5.638 5.063-2.665 5.049 2.665zM22.286 8.665c0 0.241-0.174 0.469-0.348 0.643l-4.862 4.741 1.152 6.696c0.013 0.094 0.013 0.174 0.013 0.268 0 0.362-0.161 0.67-0.549 0.67-0.188 0-0.375-0.067-0.536-0.161l-6.013-3.161-6.013 3.161c-0.174 0.094-0.348 0.161-0.536 0.161-0.388 0-0.563-0.321-0.563-0.67 0-0.094 0.013-0.174 0.027-0.268l1.152-6.696-4.875-4.741c-0.161-0.174-0.335-0.402-0.335-0.643 0-0.402 0.415-0.563 0.75-0.616l6.723-0.978 3.013-6.094c0.121-0.254 0.348-0.549 0.656-0.549s0.536 0.295 0.656 0.549l3.013 6.094 6.723 0.978c0.321 0.054 0.75 0.214 0.75 0.616z"></path>
</svg>
