<!-- Generated by IcoMoon.io -->
<svg version="1.1" xmlns="http://www.w3.org/2000/svg" width="22" height="24" viewBox="0 0 22 24">
<path d="M15.884 12.817l3.442-3.348-5.652-0.83-0.402-0.804-2.129-4.313v12.897l0.79 0.415 4.259 2.25-0.804-4.754-0.161-0.884zM21.938 9.308l-4.862 4.741 1.152 6.696c0.094 0.589-0.121 0.938-0.536 0.938-0.147 0-0.335-0.054-0.536-0.161l-6.013-3.161-6.013 3.161c-0.201 0.107-0.388 0.161-0.536 0.161-0.415 0-0.629-0.348-0.536-0.938l1.152-6.696-4.875-4.741c-0.576-0.576-0.388-1.138 0.415-1.259l6.723-0.978 3.013-6.094c0.174-0.362 0.415-0.549 0.656-0.549v0c0.241 0 0.469 0.188 0.656 0.549l3.013 6.094 6.723 0.978c0.804 0.121 0.991 0.683 0.402 1.259z"></path>
</svg>
