<!-- Generated by IcoMoon.io -->
<svg version="1.1" xmlns="http://www.w3.org/2000/svg" width="21" height="24" viewBox="0 0 21 24">
<path d="M16.634 8.665c0-1.42-1.165-2.585-2.598-2.585-1.42 0-2.585 1.165-2.585 2.585 0 1.433 1.165 2.585 2.585 2.585 1.433 0 2.598-1.152 2.598-2.585zM8.464 16.54c0 1.473-1.179 2.652-2.652 2.652-1.018 0-1.902-0.576-2.344-1.42 0.442 0.174 0.871 0.348 1.313 0.536 1.071 0.429 2.304-0.094 2.746-1.179 0.429-1.071-0.094-2.304-1.179-2.732l-1.098-0.442c0.174-0.040 0.375-0.067 0.563-0.067 1.473 0 2.652 1.179 2.652 2.652zM20.571 5.571v12.857c0 2.129-1.728 3.857-3.857 3.857h-12.857c-2.129 0-3.857-1.728-3.857-3.857v-2.049l2.304 0.924c0.348 1.621 1.795 2.839 3.509 2.839 1.875 0 3.415-1.433 3.589-3.254l4.621-3.375c2.679 0 4.835-2.17 4.835-4.821 0-2.679-2.156-4.835-4.835-4.835-2.638 0-4.795 2.143-4.821 4.781l-3.013 4.313c-0.121-0.013-0.241-0.013-0.375-0.013-0.67 0-1.299 0.174-1.835 0.496l-3.978-1.594v-6.268c0-2.129 1.728-3.857 3.857-3.857h12.857c2.129 0 3.857 1.728 3.857 3.857zM17.263 8.692c0 1.781-1.446 3.228-3.241 3.228-1.781 0-3.228-1.446-3.228-3.228 0-1.795 1.446-3.241 3.228-3.241 1.795 0 3.241 1.446 3.241 3.241z"></path>
</svg>
