<!-- Generated by IcoMoon.io -->
<svg version="1.1" xmlns="http://www.w3.org/2000/svg" width="24" height="24" viewBox="0 0 24 24">
<path d="M21.188 7.795c0 1.808-1.473 3.268-3.268 3.268-1.808 0-3.268-1.46-3.268-3.268s1.46-3.268 3.268-3.268c1.795 0 3.268 1.46 3.268 3.268zM10.875 17.732c0-1.862-1.487-3.348-3.348-3.348-0.241 0-0.482 0.027-0.723 0.080l1.393 0.563c1.366 0.549 2.036 2.089 1.487 3.455s-2.103 2.036-3.469 1.473c-0.549-0.214-1.098-0.442-1.647-0.656 0.563 1.058 1.674 1.781 2.96 1.781 1.862 0 3.348-1.487 3.348-3.348zM21.991 7.808c0-2.25-1.835-4.085-4.085-4.085-2.263 0-4.098 1.835-4.098 4.085 0 2.263 1.835 4.085 4.098 4.085 2.25 0 4.085-1.821 4.085-4.085zM24 7.808c0 3.375-2.732 6.094-6.094 6.094l-5.853 4.272c-0.214 2.304-2.17 4.112-4.527 4.112-2.17 0-4.004-1.54-4.446-3.589l-3.080-1.232v-5.746l5.21 2.103c0.683-0.415 1.473-0.643 2.317-0.643 0.161 0 0.321 0.013 0.469 0.027l3.804-5.451c0.027-3.335 2.759-6.040 6.107-6.040 3.362 0 6.094 2.732 6.094 6.094z"></path>
</svg>
