<!-- Generated by IcoMoon.io -->
<svg version="1.1" xmlns="http://www.w3.org/2000/svg" width="19" height="24" viewBox="0 0 19 24">
<path d="M17.143 9.429c0-0.469-0.388-0.857-0.857-0.857s-0.857 0.388-0.857 0.857 0.388 0.857 0.857 0.857 0.857-0.388 0.857-0.857zM18.857 9.429c0 1.125-0.71 2.063-1.714 2.424v5.29c0 2.839-2.692 5.143-6 5.143s-6-2.304-6-5.143v-1.768c-2.906-0.362-5.143-2.504-5.143-5.089v-6.857c0-0.469 0.388-0.857 0.857-0.857 0.080 0 0.147 0.013 0.214 0.027 0.295-0.522 0.857-0.884 1.5-0.884 0.951 0 1.714 0.763 1.714 1.714s-0.763 1.714-1.714 1.714c-0.308 0-0.603-0.094-0.857-0.241v5.384c0 1.888 1.929 3.429 4.286 3.429s4.286-1.54 4.286-3.429v-5.384c-0.254 0.147-0.549 0.241-0.857 0.241-0.951 0-1.714-0.763-1.714-1.714s0.763-1.714 1.714-1.714c0.643 0 1.205 0.362 1.5 0.884 0.067-0.013 0.134-0.027 0.214-0.027 0.469 0 0.857 0.388 0.857 0.857v6.857c0 2.585-2.237 4.728-5.143 5.089v1.768c0 1.888 1.929 3.429 4.286 3.429s4.286-1.54 4.286-3.429v-5.29c-1.004-0.362-1.714-1.299-1.714-2.424 0-1.42 1.152-2.571 2.571-2.571s2.571 1.152 2.571 2.571z"></path>
</svg>
