<!-- Generated by IcoMoon.io -->
<svg version="1.1" xmlns="http://www.w3.org/2000/svg" width="19" height="24" viewBox="0 0 19 24">
<path d="M18.857 20.571c0 2.357-4.888 3.429-9.429 3.429s-9.429-1.071-9.429-3.429c0-1.821 2.719-2.679 4.996-3.067 0.469-0.080 0.911 0.228 0.991 0.696s-0.228 0.911-0.696 0.991c-2.759 0.482-3.536 1.232-3.576 1.393 0.134 0.455 2.705 1.701 7.714 1.701s7.58-1.246 7.714-1.728c-0.040-0.134-0.817-0.884-3.576-1.366-0.469-0.080-0.777-0.522-0.696-0.991s0.522-0.777 0.991-0.696c2.277 0.388 4.996 1.246 4.996 3.067zM13.714 8.571v5.143c0 0.469-0.388 0.857-0.857 0.857h-0.857v5.143c0 0.469-0.388 0.857-0.857 0.857h-3.429c-0.469 0-0.857-0.388-0.857-0.857v-5.143h-0.857c-0.469 0-0.857-0.388-0.857-0.857v-5.143c0-0.951 0.763-1.714 1.714-1.714h5.143c0.951 0 1.714 0.763 1.714 1.714zM12.429 3.429c0 1.661-1.339 3-3 3s-3-1.339-3-3 1.339-3 3-3 3 1.339 3 3z"></path>
</svg>
