<!-- Generated by IcoMoon.io -->
<svg version="1.1" xmlns="http://www.w3.org/2000/svg" width="24" height="24" viewBox="0 0 24 24">
<path d="M23.571 12c0.241 0 0.429 0.188 0.429 0.429v0.857c0 0.241-0.188 0.429-0.429 0.429h-23.143c-0.241 0-0.429-0.188-0.429-0.429v-0.857c0-0.241 0.188-0.429 0.429-0.429h23.143zM6.469 11.143c-0.254-0.321-0.482-0.683-0.683-1.071-0.429-0.871-0.643-1.714-0.643-2.518 0-1.634 0.603-3 1.795-4.138s2.946-1.701 5.263-1.701c0.509 0 1.246 0.094 2.237 0.254 0.589 0.107 1.379 0.321 2.371 0.643 0.094 0.348 0.188 0.884 0.281 1.58 0.121 1.058 0.188 1.875 0.188 2.451 0 0.188-0.027 0.388-0.067 0.603l-0.161 0.040-1.125-0.080-0.188-0.027c-0.455-1.353-0.924-2.263-1.379-2.746-0.79-0.817-1.741-1.219-2.813-1.219-1.018 0-1.835 0.268-2.438 0.79s-0.897 1.179-0.897 1.955c0 0.656 0.295 1.272 0.884 1.875s1.835 1.179 3.737 1.728c0.643 0.188 1.406 0.482 2.317 0.884 0.482 0.228 0.911 0.455 1.272 0.696h-9.951zM13.259 14.571h5.504c0.067 0.375 0.094 0.79 0.094 1.232 0 0.964-0.174 1.915-0.549 2.839-0.201 0.496-0.509 0.951-0.951 1.393-0.321 0.308-0.804 0.67-1.46 1.085-0.67 0.402-1.339 0.71-2.049 0.884-0.71 0.188-1.607 0.281-2.719 0.281-0.737 0-1.621-0.027-2.612-0.308l-1.875-0.536c-0.522-0.147-0.83-0.268-0.964-0.375-0.054-0.054-0.107-0.147-0.107-0.295v-0.174c0-0.107 0.027-0.804-0.027-2.089-0.027-0.67 0.027-1.138 0.027-1.406v-0.589l1.366-0.027c0.496 1.138 0.723 1.821 0.871 2.063 0.321 0.522 0.683 0.938 1.071 1.259s0.857 0.576 1.406 0.763c0.536 0.201 1.138 0.295 1.768 0.295 0.563 0 1.192-0.121 1.862-0.362 0.683-0.228 1.232-0.616 1.634-1.152 0.415-0.536 0.629-1.112 0.629-1.728 0-0.75-0.362-1.446-1.085-2.103-0.295-0.254-0.911-0.576-1.835-0.951z"></path>
</svg>
