<!-- Generated by IcoMoon.io -->
<svg version="1.1" xmlns="http://www.w3.org/2000/svg" width="21" height="24" viewBox="0 0 21 24">
<path d="M11.598 11.237l1.205-0.362v-0.83c0-1.42-1.205-2.558-2.625-2.558s-2.625 1.125-2.625 2.545v3.79c0 0.348-0.281 0.629-0.629 0.629s-0.616-0.281-0.616-0.629v-1.607h-2.022v1.634c0 1.46 1.179 2.625 2.638 2.625 1.433 0 2.625-1.152 2.625-2.585v-3.75c0-0.348 0.281-0.629 0.629-0.629 0.335 0 0.616 0.281 0.616 0.629v0.723zM16.058 13.848v-1.634h-2.009v1.688c0 0.348-0.281 0.629-0.629 0.629-0.335 0-0.616-0.281-0.616-0.629v-1.647l-1.205 0.348-0.804-0.375v1.647c0 1.433 1.192 2.598 2.638 2.598s2.625-1.165 2.625-2.625zM20.571 12c0 5.679-4.607 10.286-10.286 10.286s-10.286-4.607-10.286-10.286 4.607-10.286 10.286-10.286 10.286 4.607 10.286 10.286z"></path>
</svg>
