<!-- Generated by IcoMoon.io -->
<svg version="1.1" xmlns="http://www.w3.org/2000/svg" width="21" height="24" viewBox="0 0 21 24">
<path d="M12.013 18.335v2.237h-3.321l-2.129-3.375-0.321-0.563c-0.080-0.094-0.121-0.188-0.147-0.281h-0.040c-0.027 0.094-0.080 0.188-0.121 0.281-0.080 0.161-0.201 0.375-0.335 0.589l-2.076 3.348h-3.455v-2.237h1.714l2.638-3.897-2.478-3.643h-1.835v-2.25h3.696l1.862 3.054c0.121 0.188 0.214 0.388 0.308 0.562 0.080 0.094 0.121 0.188 0.147 0.281h0.040c0.027-0.094 0.080-0.188 0.147-0.281l0.335-0.563 1.875-3.054h3.442v2.25h-1.674l-2.464 3.576 2.732 3.964h1.46zM20.545 9.241v2.759h-6.884l-0.040-0.362c-0.027-0.188-0.054-0.442-0.054-0.616 0-3.656 4.688-3.964 4.688-5.906 0-0.696-0.629-1.165-1.339-1.165-0.509 0-0.964 0.241-1.299 0.522-0.174 0.147-0.335 0.335-0.482 0.509l-1.406-1.232c0.241-0.335 0.509-0.616 0.844-0.884 0.563-0.442 1.379-0.871 2.518-0.871 1.942 0 3.295 1.138 3.295 2.92 0 3.214-4.446 3.482-4.634 5.397h3.107v-1.071h1.688z"></path>
</svg>
