<!-- Generated by IcoMoon.io -->
<svg version="1.1" xmlns="http://www.w3.org/2000/svg" width="24" height="24" viewBox="0 0 24 24">
<path d="M19.728 12.442c0.241-4.286-3.040-7.835-7.286-8.089-4.219-0.254-7.955 2.96-8.196 7.205-0.241 4.286 3.040 7.835 7.299 8.089 4.219 0.254 7.955-2.946 8.183-7.205zM24 0l-4.674 4.661c2.129 2.076 3.281 4.969 3.094 7.942-0.295 4.982-4.125 8.96-9.040 9.629l-13.379 1.768 4.647-4.647c-2.129-2.076-3.268-4.969-3.094-7.942 0.308-4.996 4.125-8.973 9.054-9.643 4.46-0.589 8.933-1.179 13.393-1.768z"></path>
</svg>
