<!-- Generated by IcoMoon.io -->
<svg version="1.1" xmlns="http://www.w3.org/2000/svg" width="22" height="24" viewBox="0 0 22 24">
<path d="M6.857 18.429v-2.571c0-0.241-0.188-0.429-0.429-0.429h-4.286c-0.241 0-0.429 0.188-0.429 0.429v2.571c0 0.241 0.188 0.429 0.429 0.429h4.286c0.241 0 0.429-0.188 0.429-0.429zM6.857 13.286v-2.571c0-0.241-0.188-0.429-0.429-0.429h-4.286c-0.241 0-0.429 0.188-0.429 0.429v2.571c0 0.241 0.188 0.429 0.429 0.429h4.286c0.241 0 0.429-0.188 0.429-0.429zM13.714 18.429v-2.571c0-0.241-0.188-0.429-0.429-0.429h-4.286c-0.241 0-0.429 0.188-0.429 0.429v2.571c0 0.241 0.188 0.429 0.429 0.429h4.286c0.241 0 0.429-0.188 0.429-0.429zM6.857 8.143v-2.571c0-0.241-0.188-0.429-0.429-0.429h-4.286c-0.241 0-0.429 0.188-0.429 0.429v2.571c0 0.241 0.188 0.429 0.429 0.429h4.286c0.241 0 0.429-0.188 0.429-0.429zM13.714 13.286v-2.571c0-0.241-0.188-0.429-0.429-0.429h-4.286c-0.241 0-0.429 0.188-0.429 0.429v2.571c0 0.241 0.188 0.429 0.429 0.429h4.286c0.241 0 0.429-0.188 0.429-0.429zM20.571 18.429v-2.571c0-0.241-0.188-0.429-0.429-0.429h-4.286c-0.241 0-0.429 0.188-0.429 0.429v2.571c0 0.241 0.188 0.429 0.429 0.429h4.286c0.241 0 0.429-0.188 0.429-0.429zM13.714 8.143v-2.571c0-0.241-0.188-0.429-0.429-0.429h-4.286c-0.241 0-0.429 0.188-0.429 0.429v2.571c0 0.241 0.188 0.429 0.429 0.429h4.286c0.241 0 0.429-0.188 0.429-0.429zM20.571 13.286v-2.571c0-0.241-0.188-0.429-0.429-0.429h-4.286c-0.241 0-0.429 0.188-0.429 0.429v2.571c0 0.241 0.188 0.429 0.429 0.429h4.286c0.241 0 0.429-0.188 0.429-0.429zM20.571 8.143v-2.571c0-0.241-0.188-0.429-0.429-0.429h-4.286c-0.241 0-0.429 0.188-0.429 0.429v2.571c0 0.241 0.188 0.429 0.429 0.429h4.286c0.241 0 0.429-0.188 0.429-0.429zM22.286 3.857v14.571c0 1.179-0.964 2.143-2.143 2.143h-18c-1.179 0-2.143-0.964-2.143-2.143v-14.571c0-1.179 0.964-2.143 2.143-2.143h18c1.179 0 2.143 0.964 2.143 2.143z"></path>
</svg>
