<!-- Generated by IcoMoon.io -->
<svg version="1.1" xmlns="http://www.w3.org/2000/svg" width="15" height="24" viewBox="0 0 15 24">
<path d="M8.571 18.857c0-0.469-0.388-0.857-0.857-0.857s-0.857 0.388-0.857 0.857 0.388 0.857 0.857 0.857 0.857-0.388 0.857-0.857zM13.714 16.714v-12.857c0-0.228-0.201-0.429-0.429-0.429h-11.143c-0.228 0-0.429 0.201-0.429 0.429v12.857c0 0.228 0.201 0.429 0.429 0.429h11.143c0.228 0 0.429-0.201 0.429-0.429zM15.429 3.857v14.571c0 1.179-0.964 2.143-2.143 2.143h-11.143c-1.179 0-2.143-0.964-2.143-2.143v-14.571c0-1.179 0.964-2.143 2.143-2.143h11.143c1.179 0 2.143 0.964 2.143 2.143z"></path>
</svg>
