<!-- Generated by IcoMoon.io -->
<svg version="1.1" xmlns="http://www.w3.org/2000/svg" width="20" height="24" viewBox="0 0 20 24">
<path d="M6 6c0-0.951-0.763-1.714-1.714-1.714s-1.714 0.763-1.714 1.714 0.763 1.714 1.714 1.714 1.714-0.763 1.714-1.714zM20.29 13.714c0 0.455-0.188 0.897-0.496 1.205l-6.576 6.589c-0.321 0.308-0.763 0.496-1.219 0.496s-0.897-0.188-1.205-0.496l-9.576-9.589c-0.683-0.67-1.219-1.969-1.219-2.92v-5.571c0-0.938 0.777-1.714 1.714-1.714h5.571c0.951 0 2.25 0.536 2.933 1.219l9.576 9.563c0.308 0.321 0.496 0.763 0.496 1.219z"></path>
</svg>
