<!-- Generated by IcoMoon.io -->
<svg version="1.1" xmlns="http://www.w3.org/2000/svg" width="24" height="24" viewBox="0 0 24 24">
<path d="M13.714 18.857h8.571v-1.714h-8.571v1.714zM8.571 12h13.714v-1.714h-13.714v1.714zM17.143 5.143h5.143v-1.714h-5.143v1.714zM24 16.286v3.429c0 0.469-0.388 0.857-0.857 0.857h-22.286c-0.469 0-0.857-0.388-0.857-0.857v-3.429c0-0.469 0.388-0.857 0.857-0.857h22.286c0.469 0 0.857 0.388 0.857 0.857zM24 9.429v3.429c0 0.469-0.388 0.857-0.857 0.857h-22.286c-0.469 0-0.857-0.388-0.857-0.857v-3.429c0-0.469 0.388-0.857 0.857-0.857h22.286c0.469 0 0.857 0.388 0.857 0.857zM24 2.571v3.429c0 0.469-0.388 0.857-0.857 0.857h-22.286c-0.469 0-0.857-0.388-0.857-0.857v-3.429c0-0.469 0.388-0.857 0.857-0.857h22.286c0.469 0 0.857 0.388 0.857 0.857z"></path>
</svg>
