<!-- Generated by IcoMoon.io -->
<svg version="1.1" xmlns="http://www.w3.org/2000/svg" width="26" height="24" viewBox="0 0 26 24">
<path d="M24 16.714v-12.857c0-0.228-0.201-0.429-0.429-0.429h-21.429c-0.228 0-0.429 0.201-0.429 0.429v12.857c0 0.228 0.201 0.429 0.429 0.429h21.429c0.228 0 0.429-0.201 0.429-0.429zM25.714 3.857v12.857c0 1.179-0.964 2.143-2.143 2.143h-9.857v1.714h4.714c0.241 0 0.429 0.188 0.429 0.429v0.857c0 0.241-0.188 0.429-0.429 0.429h-11.143c-0.241 0-0.429-0.188-0.429-0.429v-0.857c0-0.241 0.188-0.429 0.429-0.429h4.714v-1.714h-9.857c-1.179 0-2.143-0.964-2.143-2.143v-12.857c0-1.179 0.964-2.143 2.143-2.143h21.429c1.179 0 2.143 0.964 2.143 2.143z"></path>
</svg>
