<!-- Generated by IcoMoon.io -->
<svg version="1.1" xmlns="http://www.w3.org/2000/svg" width="17" height="24" viewBox="0 0 17 24">
<path d="M11.277 7.661c0 1.42-1.165 2.585-2.585 2.585-0.549 0-1.058-0.174-1.487-0.469-0.482 0.522-1.018 1.179-1.54 1.955-2.183 3.281-3.107 7.152-2.705 11.504 0.027 0.388-0.254 0.723-0.629 0.763h-0.067c-0.348 0-0.656-0.268-0.696-0.629-0.522-5.866 1.339-10.018 2.987-12.469 0.603-0.897 1.205-1.621 1.768-2.21-0.147-0.321-0.214-0.67-0.214-1.031 0-1.433 1.152-2.585 2.585-2.585 1.42 0 2.585 1.152 2.585 2.585zM16.379 7.808c0 4.299-3.496 7.795-7.808 7.795-0.589 0-1.179-0.067-1.754-0.188-0.375-0.094-0.603-0.469-0.522-0.844 0.094-0.362 0.455-0.603 0.83-0.522 0.469 0.121 0.964 0.174 1.446 0.174 3.536 0 6.415-2.879 6.415-6.415s-2.879-6.415-6.415-6.415-6.415 2.879-6.415 6.415c0 1.031 0.241 2.009 0.696 2.92 0.174 0.348 0.040 0.763-0.295 0.938-0.348 0.174-0.763 0.040-0.937-0.308-0.563-1.085-0.857-2.317-0.857-3.549 0-4.313 3.509-7.808 7.808-7.808 4.312 0 7.808 3.496 7.808 7.808z"></path>
</svg>
