<!-- Generated by IcoMoon.io -->
<svg version="1.1" xmlns="http://www.w3.org/2000/svg" width="22" height="24" viewBox="0 0 22 24">
<path d="M7.835 13.165l-6.241 6.241c-0.174 0.174-0.442 0.174-0.616 0l-0.67-0.67c-0.174-0.174-0.174-0.442 0-0.616l5.263-5.263-5.263-5.263c-0.174-0.174-0.174-0.442 0-0.616l0.67-0.67c0.174-0.174 0.442-0.174 0.616 0l6.241 6.241c0.174 0.174 0.174 0.442 0 0.616zM22.286 19.286v0.857c0 0.241-0.188 0.429-0.429 0.429h-12.857c-0.241 0-0.429-0.188-0.429-0.429v-0.857c0-0.241 0.188-0.429 0.429-0.429h12.857c0.241 0 0.429 0.188 0.429 0.429z"></path>
</svg>
