<!-- Generated by IcoMoon.io -->
<svg version="1.1" xmlns="http://www.w3.org/2000/svg" width="21" height="24" viewBox="0 0 21 24">
<path d="M1.085 1.728l0.723 0.362c0.094 0.040 2.545 0.067 2.826 0.067 1.179 0 2.357-0.054 3.536-0.054 3.549 0 7.138-0.080 10.688 0.040 0.295 0.013 0.576-0.174 0.75-0.415l0.563-0.013c0.121 0 0.254 0.013 0.375 0.013 0.027 1.5 0.027 3 0.027 4.5 0 0.482 0.013 0.991-0.067 1.46-0.295 0.107-0.603 0.201-0.911 0.241-0.308-0.536-0.522-1.125-0.723-1.714-0.094-0.268-0.429-2.076-0.442-2.103-0.094-0.121-0.214-0.201-0.362-0.254-0.107-0.040-0.75-0.027-0.884-0.027-1.647 0-3.549-0.094-5.17 0.094-0.067 0.589-0.121 1.219-0.107 1.821l0.013 2.036v-0.696c0.013 2.183 0.040 4.353 0.040 6.522 0 1.031-0.161 2.116 0.134 3.107 1.018 0.522 2.223 0.603 3.268 1.071 0.027 0.214 0.067 0.442 0.067 0.67 0 0.121-0.013 0.254-0.040 0.388l-0.455 0.013c-1.902 0.054-3.777-0.241-5.692-0.241-1.353 0-2.705 0.241-4.058 0.241-0.013-0.228-0.040-0.469-0.040-0.696v-0.121c0.509-0.817 2.344-0.83 3.188-1.326 0.335-0.75 0.241-7.085 0.241-8.263 0-0.188-0.067-0.388-0.067-0.589 0-0.549 0.094-3.696-0.107-3.924-0.188-0.201-1.942-0.161-2.17-0.161-0.563 0-3.71 0.295-4.031 0.509-0.629 0.415-0.643 3.107-1.446 3.174-0.241-0.147-0.576-0.362-0.75-0.589v-5.129zM17.545 18.897c0.469 0 2.25 1.594 2.612 1.875 0.201 0.161 0.348 0.388 0.348 0.656s-0.147 0.496-0.348 0.656c-0.362 0.281-2.143 1.875-2.612 1.875-0.616 0-0.402-1.433-0.402-1.674h-13.714c0 0.241 0.214 1.674-0.402 1.674-0.469 0-2.25-1.594-2.612-1.875-0.201-0.161-0.348-0.388-0.348-0.656s0.147-0.496 0.348-0.656c0.362-0.281 2.143-1.875 2.612-1.875 0.616 0 0.402 1.433 0.402 1.674h13.714c0-0.241-0.214-1.674 0.402-1.674z"></path>
</svg>
