<!-- Generated by IcoMoon.io -->
<svg version="1.1" xmlns="http://www.w3.org/2000/svg" width="24" height="24" viewBox="0 0 24 24">
<path d="M23.357 18.857c0.589 0 0.777 0.375 0.415 0.844l-1.688 2.17c-0.362 0.469-0.951 0.469-1.313 0l-1.688-2.17c-0.362-0.469-0.174-0.844 0.415-0.844h1.071v-13.714h-1.071c-0.589 0-0.777-0.375-0.415-0.844l1.688-2.17c0.362-0.469 0.951-0.469 1.313 0l1.688 2.17c0.362 0.469 0.174 0.844-0.415 0.844h-1.071v13.714h1.071zM1.085 1.728l0.723 0.362c0.094 0.040 2.545 0.067 2.826 0.067 1.179 0 2.357-0.054 3.536-0.054 0.964 0 1.915 0.013 2.879 0.013h3.924c0.536 0 0.844 0.121 1.205-0.388l0.563-0.013c0.121 0 0.254 0.013 0.375 0.013 0.027 1.5 0.027 3 0.027 4.5 0 0.469 0.013 0.991-0.067 1.46-0.295 0.107-0.603 0.201-0.911 0.241-0.308-0.536-0.522-1.125-0.723-1.714-0.094-0.268-0.415-2.076-0.442-2.103-0.281-0.348-0.589-0.281-1.004-0.281-1.219 0-2.491-0.054-3.696 0.094-0.067 0.589-0.121 1.219-0.107 1.821 0.013 3.763 0.054 7.527 0.054 11.29 0 1.031-0.161 2.116 0.134 3.107 1.018 0.522 2.223 0.603 3.268 1.071 0.027 0.214 0.067 0.442 0.067 0.67 0 0.121-0.013 0.254-0.040 0.388l-0.455 0.013c-1.902 0.054-3.777-0.241-5.692-0.241-1.353 0-2.705 0.241-4.058 0.241-0.013-0.228-0.040-0.469-0.040-0.696v-0.121c0.509-0.817 2.344-0.83 3.188-1.326 0.295-0.656 0.254-4.286 0.254-5.129 0-2.705-0.080-5.411-0.080-8.116v-1.567c0-0.241 0.054-1.205-0.107-1.393-0.188-0.201-1.942-0.161-2.17-0.161-0.496 0-1.929 0.228-2.317 0.509-0.643 0.442-0.643 3.121-1.446 3.174-0.241-0.147-0.576-0.362-0.75-0.589v-5.129z"></path>
</svg>
