<!-- Generated by IcoMoon.io -->
<svg version="1.1" xmlns="http://www.w3.org/2000/svg" width="22" height="24" viewBox="0 0 22 24">
<path d="M10.286 13.714v5.143c0 0.938-0.777 1.714-1.714 1.714h-6.857c-0.938 0-1.714-0.777-1.714-1.714v-5.143c0-0.938 0.777-1.714 1.714-1.714h6.857c0.938 0 1.714 0.777 1.714 1.714zM10.286 3.429v5.143c0 0.938-0.777 1.714-1.714 1.714h-6.857c-0.938 0-1.714-0.777-1.714-1.714v-5.143c0-0.938 0.777-1.714 1.714-1.714h6.857c0.938 0 1.714 0.777 1.714 1.714zM22.286 13.714v5.143c0 0.938-0.777 1.714-1.714 1.714h-6.857c-0.938 0-1.714-0.777-1.714-1.714v-5.143c0-0.938 0.777-1.714 1.714-1.714h6.857c0.938 0 1.714 0.777 1.714 1.714zM22.286 3.429v5.143c0 0.938-0.777 1.714-1.714 1.714h-6.857c-0.938 0-1.714-0.777-1.714-1.714v-5.143c0-0.938 0.777-1.714 1.714-1.714h6.857c0.938 0 1.714 0.777 1.714 1.714z"></path>
</svg>
