<!-- Generated by IcoMoon.io -->
<svg version="1.1" xmlns="http://www.w3.org/2000/svg" width="24" height="24" viewBox="0 0 24 24">
<path d="M6.857 16.714v2.571c0 0.71-0.576 1.286-1.286 1.286h-4.286c-0.71 0-1.286-0.576-1.286-1.286v-2.571c0-0.71 0.576-1.286 1.286-1.286h4.286c0.71 0 1.286 0.576 1.286 1.286zM6.857 9.857v2.571c0 0.71-0.576 1.286-1.286 1.286h-4.286c-0.71 0-1.286-0.576-1.286-1.286v-2.571c0-0.71 0.576-1.286 1.286-1.286h4.286c0.71 0 1.286 0.576 1.286 1.286zM24 16.714v2.571c0 0.71-0.576 1.286-1.286 1.286h-12.857c-0.71 0-1.286-0.576-1.286-1.286v-2.571c0-0.71 0.576-1.286 1.286-1.286h12.857c0.71 0 1.286 0.576 1.286 1.286zM6.857 3v2.571c0 0.71-0.576 1.286-1.286 1.286h-4.286c-0.71 0-1.286-0.576-1.286-1.286v-2.571c0-0.71 0.576-1.286 1.286-1.286h4.286c0.71 0 1.286 0.576 1.286 1.286zM24 9.857v2.571c0 0.71-0.576 1.286-1.286 1.286h-12.857c-0.71 0-1.286-0.576-1.286-1.286v-2.571c0-0.71 0.576-1.286 1.286-1.286h12.857c0.71 0 1.286 0.576 1.286 1.286zM24 3v2.571c0 0.71-0.576 1.286-1.286 1.286h-12.857c-0.71 0-1.286-0.576-1.286-1.286v-2.571c0-0.71 0.576-1.286 1.286-1.286h12.857c0.71 0 1.286 0.576 1.286 1.286z"></path>
</svg>
