<!-- Generated by IcoMoon.io -->
<svg version="1.1" xmlns="http://www.w3.org/2000/svg" width="24" height="24" viewBox="0 0 24 24">
<path d="M11.411 4.138c0 0.482-0.308 1.018-0.83 1.018-0.536 0-0.83-0.536-0.83-1.018 0-0.469 0.295-1.018 0.83-1.018 0.522 0 0.83 0.549 0.83 1.018zM9.214 22.567v-1.527c0-0.522-0.415-0.978-0.951-0.978s-0.937 0.455-0.937 0.978v1.527c0 0.522 0.402 0.991 0.937 0.991s0.951-0.455 0.951-0.991zM11.518 22.567v-1.527c0-0.522-0.402-0.978-0.938-0.978s-0.951 0.455-0.951 0.978v1.527c0 0.522 0.415 0.991 0.951 0.991s0.938-0.469 0.938-0.991zM13.848 22.567v-1.527c0-0.522-0.415-0.978-0.951-0.978s-0.951 0.455-0.951 0.978v1.527c0 0.522 0.415 0.991 0.951 0.991s0.951-0.455 0.951-0.991zM16.179 22.567v-1.527c0-0.522-0.415-0.978-0.951-0.978s-0.951 0.455-0.951 0.978v1.527c0 0.522 0.415 0.991 0.951 0.991s0.951-0.469 0.951-0.991zM19.768 13.406c-1.446 2.772-4.232 4.808-7.433 4.808-4.527 0-7.527-3.964-7.527-8.277 0-0.79 0.094-1.567 0.281-2.33-0.938 1.58-1.393 3.402-1.393 5.223 0 2.826 1.165 5.705 3.348 7.54 0.241-0.455 0.696-0.763 1.219-0.763 0.469 0 0.911 0.268 1.152 0.67 0.254-0.402 0.683-0.67 1.165-0.67 0.469 0 0.911 0.268 1.152 0.67 0.254-0.402 0.696-0.67 1.165-0.67s0.911 0.268 1.165 0.67c0.241-0.402 0.683-0.67 1.152-0.67 0.509 0 0.978 0.308 1.205 0.75 2.036-1.701 3.214-4.313 3.348-6.951zM17.759 13.018c0-0.67-0.295-1.004-0.964-1.004-0.214 0-0.429 0.040-0.629 0.080-0.67 0.134-1.326 0.254-1.996 0.254-2.116 0-3.027-1.232-3.027-3.254 0-0.924 0.174-1.835 0.402-2.732-0.71 1.085-1.112 2.384-1.112 3.683 0 2.531 1.607 4.969 4.339 4.969 1.004 0 1.996-0.362 2.813-0.938 0.094-0.348 0.174-0.696 0.174-1.058zM11.839 4.192c0-0.844-0.589-1.728-1.513-1.728s-1.513 0.884-1.513 1.728c0 0.857 0.589 1.741 1.513 1.741s1.513-0.884 1.513-1.741zM20.263 8.732c0-2.518-1.621-4.955-4.339-4.955-1.42 0-2.746 0.71-3.696 1.728-0.335 1.112-0.643 2.411-0.643 3.589 0 1.781 0.71 2.813 2.585 2.813 0.643 0 1.272-0.121 1.902-0.254 0.241-0.040 0.469-0.080 0.71-0.080 0.924 0 1.393 0.536 1.393 1.446 0 0.201-0.013 0.415-0.054 0.616 1.353-1.219 2.143-3.080 2.143-4.902zM24 11.638c0 1.688-0.536 4.795-1.701 6.080-1.071 1.165-4.098 2.866-5.665 3.308l-0.054 0.013v1.527c0 0.763-0.589 1.433-1.366 1.433-0.469 0-0.911-0.268-1.152-0.67-0.254 0.402-0.696 0.67-1.165 0.67s-0.911-0.268-1.165-0.67c-0.241 0.402-0.683 0.67-1.152 0.67-0.482 0-0.911-0.268-1.165-0.67-0.241 0.402-0.683 0.67-1.152 0.67-0.884 0-1.379-0.737-1.379-1.54-0.763 0.576-1.674 0.911-2.652 0.911-1.031 0-2.036-0.388-2.826-1.071 0.482-0.013 0.964-0.107 1.42-0.268-0.978-0.268-1.848-0.884-2.438-1.701 0.308 0.067 0.629 0.094 0.951 0.094 0.777 0 1.54-0.214 2.196-0.616-1.031-1.031-2.652-2.759-3.214-4.098-0.268-0.629-0.321-1.473-0.321-2.143 0-2.33 0.951-7.5 4.045-7.5 0.496 0 0.884 0.228 1.085 0.696 0.174-0.254 0.362-0.496 0.563-0.723 0.094-0.121 0.268-0.254 0.335-0.388 0.375-0.589 0.549-0.991 1.018-1.594 1.513-1.929 3.83-3.254 6.321-3.254 0.281 0 0.563 0.013 0.83 0.054 0.509-0.549 1.219-0.857 1.955-0.857 0.683 0 1.393 0.281 1.875 0.763 0.040 0.040 0.067 0.107 0.067 0.161 0 0.174-0.482 0.629-0.603 0.763 0.201 0.067 0.737 0.321 0.737 0.563 0 0.134-0.134 0.241-0.214 0.335 1.473 1.299 2.317 3.147 2.638 5.063 0.201-0.241 0.482-0.402 0.804-0.402 0.496 0 0.978 0.335 1.339 0.656 0.978 0.871 1.205 2.491 1.205 3.737z"></path>
</svg>
