<!-- Generated by IcoMoon.io -->
<svg version="1.1" xmlns="http://www.w3.org/2000/svg" width="14" height="24" viewBox="0 0 14 24">
<path d="M8.571 18c0 1.42-1.152 2.571-2.571 2.571s-2.571-1.152-2.571-2.571c0-1.071 0.67-2.049 1.714-2.424v-5.29h1.714v5.29c1.045 0.375 1.714 1.353 1.714 2.424zM10.286 18c0-1.406-0.67-2.638-1.714-3.429v-10.286c0-1.42-1.152-2.571-2.571-2.571s-2.571 1.152-2.571 2.571v10.286c-1.045 0.79-1.714 2.022-1.714 3.429 0 2.371 1.915 4.286 4.286 4.286s4.286-1.915 4.286-4.286zM12 18c0 3.308-2.692 6-6 6s-6-2.692-6-6c0-1.634 0.656-3.107 1.714-4.192v-9.522c0-2.371 1.915-4.286 4.286-4.286s4.286 1.915 4.286 4.286v9.522c1.058 1.085 1.714 2.558 1.714 4.192zM13.714 10.286v1.714h-2.571v-1.714h2.571zM13.714 6.857v1.714h-2.571v-1.714h2.571zM13.714 3.429v1.714h-2.571v-1.714h2.571z"></path>
</svg>
