<!-- Generated by IcoMoon.io -->
<svg version="1.1" xmlns="http://www.w3.org/2000/svg" width="15" height="24" viewBox="0 0 15 24">
<path d="M6.429 11.571v-6c0-0.241-0.188-0.429-0.429-0.429s-0.429 0.188-0.429 0.429v6c0 0.241 0.188 0.429 0.429 0.429s0.429-0.188 0.429-0.429zM15.429 16.286c0 0.469-0.388 0.857-0.857 0.857h-5.746l-0.683 6.469c-0.027 0.214-0.201 0.388-0.415 0.388h-0.013c-0.214 0-0.388-0.147-0.429-0.362l-1.018-6.496h-5.411c-0.469 0-0.857-0.388-0.857-0.857 0-2.196 1.661-4.286 3.429-4.286v-6.857c-0.938 0-1.714-0.777-1.714-1.714s0.777-1.714 1.714-1.714h8.571c0.938 0 1.714 0.777 1.714 1.714s-0.777 1.714-1.714 1.714v6.857c1.768 0 3.429 2.089 3.429 4.286z"></path>
</svg>
