<!-- Generated by IcoMoon.io -->
<svg version="1.1" xmlns="http://www.w3.org/2000/svg" width="21" height="24" viewBox="0 0 21 24">
<path d="M3.429 7.714c0 0.469-0.388 0.857-0.857 0.857-0.482 0-0.857-0.388-0.857-0.857 0-0.482 0.375-0.857 0.857-0.857 0.469 0 0.857 0.375 0.857 0.857zM5.571 14.571v-8.571c0-0.469-0.388-0.857-0.857-0.857h-3.857c-0.469 0-0.857 0.388-0.857 0.857v8.571c0 0.469 0.388 0.857 0.857 0.857h3.857c0.469 0 0.857-0.388 0.857-0.857zM20.692 12.576c0.455 0.509 0.737 1.286 0.737 1.996-0.013 1.393-1.179 2.571-2.571 2.571h-3.71c0.107 0.429 0.241 0.563 0.388 0.857 0.348 0.696 0.75 1.473 0.75 2.571 0 1.031 0 3.429-3 3.429-0.228 0-0.442-0.094-0.603-0.254-0.576-0.563-0.737-1.393-0.884-2.183-0.161-0.777-0.308-1.58-0.83-2.103-0.415-0.415-0.871-0.991-1.353-1.607-0.589-0.777-1.875-2.371-2.371-2.411-0.442-0.040-0.817-0.415-0.817-0.857v-8.585c0-0.469 0.402-0.844 0.857-0.857 0.469-0.013 1.272-0.295 2.116-0.589 1.446-0.496 3.254-1.125 5.17-1.125h1.728c1.179 0.013 2.063 0.362 2.638 1.045 0.509 0.603 0.737 1.42 0.656 2.424 0.335 0.321 0.589 0.763 0.723 1.259 0.147 0.536 0.147 1.071 0 1.567 0.402 0.536 0.603 1.165 0.576 1.835 0 0.188-0.054 0.589-0.201 1.018z"></path>
</svg>
