<!-- Generated by IcoMoon.io -->
<svg version="1.1" xmlns="http://www.w3.org/2000/svg" width="21" height="24" viewBox="0 0 21 24">
<path d="M3.429 18c0-0.469-0.388-0.857-0.857-0.857-0.482 0-0.857 0.388-0.857 0.857 0 0.482 0.375 0.857 0.857 0.857 0.469 0 0.857-0.375 0.857-0.857zM5.571 11.143v8.571c0 0.469-0.388 0.857-0.857 0.857h-3.857c-0.469 0-0.857-0.388-0.857-0.857v-8.571c0-0.469 0.388-0.857 0.857-0.857h3.857c0.469 0 0.857 0.388 0.857 0.857zM21.429 11.143c0 0.71-0.281 1.473-0.737 1.996 0.147 0.429 0.201 0.83 0.201 1.018 0.027 0.67-0.174 1.299-0.576 1.835 0.147 0.496 0.147 1.031 0 1.567-0.134 0.496-0.388 0.938-0.723 1.259 0.080 1.004-0.147 1.821-0.656 2.424-0.576 0.683-1.46 1.031-2.638 1.045h-1.728c-1.915 0-3.723-0.629-5.17-1.125-0.844-0.295-1.647-0.576-2.116-0.589-0.455-0.013-0.857-0.388-0.857-0.857v-8.585c0-0.442 0.375-0.817 0.817-0.857 0.496-0.040 1.781-1.634 2.371-2.411 0.482-0.616 0.938-1.192 1.353-1.607 0.522-0.522 0.67-1.326 0.83-2.103 0.147-0.79 0.308-1.621 0.884-2.183 0.161-0.161 0.375-0.254 0.603-0.254 3 0 3 2.397 3 3.429 0 1.098-0.388 1.875-0.75 2.571-0.147 0.295-0.281 0.429-0.388 0.857h3.71c1.393 0 2.571 1.179 2.571 2.571z"></path>
</svg>
