<!-- Generated by IcoMoon.io -->
<svg version="1.1" xmlns="http://www.w3.org/2000/svg" width="24" height="24" viewBox="0 0 24 24">
<path d="M13.714 6.054l4.232 4.232-7.661 7.661-4.232-4.232zM10.888 19.165l8.277-8.277c0.335-0.335 0.335-0.871 0-1.205l-4.848-4.848c-0.321-0.321-0.884-0.321-1.205 0l-8.277 8.277c-0.335 0.335-0.335 0.871 0 1.205l4.848 4.848c0.161 0.161 0.375 0.241 0.603 0.241s0.442-0.080 0.603-0.241zM22.795 10.634l-12.147 12.161c-0.67 0.656-1.768 0.656-2.424 0l-1.687-1.688c1.004-1.004 1.004-2.638 0-3.643s-2.638-1.004-3.643 0l-1.674-1.688c-0.67-0.656-0.67-1.754 0-2.424l12.147-12.134c0.656-0.67 1.754-0.67 2.424 0l1.674 1.674c-1.004 1.004-1.004 2.638 0 3.643s2.638 1.004 3.643 0l1.688 1.674c0.656 0.67 0.656 1.768 0 2.424z"></path>
</svg>
