<!-- Generated by IcoMoon.io -->
<svg version="1.1" xmlns="http://www.w3.org/2000/svg" width="21" height="24" viewBox="0 0 21 24">
<path d="M14.692 14.451l-1.955 1.955c-0.174 0.174-0.442 0.174-0.616 0l-1.835-1.835-1.835 1.835c-0.174 0.174-0.442 0.174-0.616 0l-1.955-1.955c-0.174-0.174-0.174-0.442 0-0.616l1.835-1.835-1.835-1.835c-0.174-0.174-0.174-0.442 0-0.616l1.955-1.955c0.174-0.174 0.442-0.174 0.616 0l1.835 1.835 1.835-1.835c0.174-0.174 0.442-0.174 0.616 0l1.955 1.955c0.174 0.174 0.174 0.442 0 0.616l-1.835 1.835 1.835 1.835c0.174 0.174 0.174 0.442 0 0.616zM17.571 12c0-4.018-3.268-7.286-7.286-7.286s-7.286 3.268-7.286 7.286 3.268 7.286 7.286 7.286 7.286-3.268 7.286-7.286zM20.571 12c0 5.679-4.607 10.286-10.286 10.286s-10.286-4.607-10.286-10.286 4.607-10.286 10.286-10.286 10.286 4.607 10.286 10.286z"></path>
</svg>
