<!-- Generated by IcoMoon.io -->
<svg version="1.1" xmlns="http://www.w3.org/2000/svg" width="21" height="24" viewBox="0 0 21 24">
<path d="M15.388 15.027c0-0.228-0.094-0.442-0.254-0.603l-2.424-2.424 2.424-2.424c0.161-0.161 0.254-0.375 0.254-0.603s-0.094-0.455-0.254-0.616l-1.205-1.205c-0.161-0.161-0.388-0.254-0.616-0.254s-0.442 0.094-0.603 0.254l-2.424 2.424-2.424-2.424c-0.161-0.161-0.375-0.254-0.603-0.254s-0.455 0.094-0.616 0.254l-1.205 1.205c-0.161 0.161-0.254 0.388-0.254 0.616s0.094 0.442 0.254 0.603l2.424 2.424-2.424 2.424c-0.161 0.161-0.254 0.375-0.254 0.603s0.094 0.455 0.254 0.616l1.205 1.205c0.161 0.161 0.388 0.254 0.616 0.254s0.442-0.094 0.603-0.254l2.424-2.424 2.424 2.424c0.161 0.161 0.375 0.254 0.603 0.254s0.455-0.094 0.616-0.254l1.205-1.205c0.161-0.161 0.254-0.388 0.254-0.616zM20.571 12c0 5.679-4.607 10.286-10.286 10.286s-10.286-4.607-10.286-10.286 4.607-10.286 10.286-10.286 10.286 4.607 10.286 10.286z"></path>
</svg>
