<!-- Generated by IcoMoon.io -->
<svg version="1.1" xmlns="http://www.w3.org/2000/svg" width="24" height="24" viewBox="0 0 24 24">
<path d="M15.737 17.692l1.955-1.955c0.174-0.174 0.174-0.442 0-0.616l-3.121-3.121 3.121-3.121c0.174-0.174 0.174-0.442 0-0.616l-1.955-1.955c-0.174-0.174-0.442-0.174-0.616 0l-3.121 3.121-3.121-3.121c-0.174-0.174-0.442-0.174-0.616 0l-1.955 1.955c-0.174 0.174-0.174 0.442 0 0.616l3.121 3.121-3.121 3.121c-0.174 0.174-0.174 0.442 0 0.616l1.955 1.955c0.174 0.174 0.442 0.174 0.616 0l3.121-3.121 3.121 3.121c0.174 0.174 0.442 0.174 0.616 0zM24 3.857v16.286c0 1.179-0.964 2.143-2.143 2.143h-19.714c-1.179 0-2.143-0.964-2.143-2.143v-16.286c0-1.179 0.964-2.143 2.143-2.143h19.714c1.179 0 2.143 0.964 2.143 2.143z"></path>
</svg>
