<!-- Generated by IcoMoon.io -->
<svg version="1.1" xmlns="http://www.w3.org/2000/svg" width="14" height="24" viewBox="0 0 14 24">
<path d="M6.857 15.429c0-0.335-0.107-0.656-0.268-0.924-0.174-0.268-0.884-1.179-1.165-2.076-0.040-0.147-0.174-0.214-0.281-0.214s-0.241 0.067-0.281 0.214c-0.281 0.897-0.991 1.808-1.165 2.076-0.161 0.268-0.268 0.589-0.268 0.924 0 0.951 0.763 1.714 1.714 1.714s1.714-0.763 1.714-1.714zM13.714 13.714c0 3.79-3.067 6.857-6.857 6.857s-6.857-3.067-6.857-6.857c0-1.353 0.415-2.612 1.085-3.683 0.683-1.071 3.549-4.701 4.634-8.317 0.174-0.576 0.71-0.857 1.138-0.857s0.978 0.281 1.138 0.857c1.085 3.616 3.951 7.246 4.634 8.317s1.085 2.33 1.085 3.683z"></path>
</svg>
