<!-- Generated by IcoMoon.io -->
<svg version="1.1" xmlns="http://www.w3.org/2000/svg" width="27" height="24" viewBox="0 0 27 24">
<path d="M15.429 12c0-3.777-3.080-6.857-6.857-6.857s-6.857 3.080-6.857 6.857 3.080 6.857 6.857 6.857 6.857-3.080 6.857-6.857zM25.714 12c0-3.777-3.080-6.857-6.857-6.857h-5.17c2.089 1.567 3.455 4.058 3.455 6.857s-1.366 5.29-3.455 6.857h5.17c3.777 0 6.857-3.080 6.857-6.857zM27.429 12c0 4.728-3.844 8.571-8.571 8.571h-10.286c-4.728 0-8.571-3.844-8.571-8.571s3.844-8.571 8.571-8.571h10.286c4.728 0 8.571 3.844 8.571 8.571z"></path>
</svg>
