<!-- Generated by IcoMoon.io -->
<svg version="1.1" xmlns="http://www.w3.org/2000/svg" width="21" height="24" viewBox="0 0 21 24">
<path d="M14.571 0c3.308 0 6 1.915 6 4.286v12c0 2.317-2.558 4.192-5.772 4.272l2.853 2.705c0.281 0.268 0.094 0.737-0.295 0.737h-14.143c-0.388 0-0.576-0.469-0.295-0.737l2.853-2.705c-3.214-0.080-5.772-1.955-5.772-4.272v-12c0-2.371 2.692-4.286 6-4.286h8.571zM10.286 18c1.42 0 2.571-1.152 2.571-2.571s-1.152-2.571-2.571-2.571-2.571 1.152-2.571 2.571 1.152 2.571 2.571 2.571zM18 10.286v-6.857h-15.429v6.857h15.429z"></path>
</svg>
