<!-- Generated by IcoMoon.io -->
<svg version="1.1" xmlns="http://www.w3.org/2000/svg" width="22" height="24" viewBox="0 0 22 24">
<path d="M17.143 0.429c0-0.241 0.188-0.429 0.429-0.429h3.857c0.469 0 0.857 0.388 0.857 0.857v3.857c0 0.241-0.188 0.429-0.429 0.429h-0.857c-0.241 0-0.429-0.188-0.429-0.429v-1.795l-3.402 3.415c1.045 1.313 1.688 2.987 1.688 4.808 0 3.964-3 7.232-6.857 7.661v1.768h1.286c0.241 0 0.429 0.188 0.429 0.429v0.857c0 0.241-0.188 0.429-0.429 0.429h-1.286v1.286c0 0.241-0.188 0.429-0.429 0.429h-0.857c-0.241 0-0.429-0.188-0.429-0.429v-1.286h-1.286c-0.241 0-0.429-0.188-0.429-0.429v-0.857c0-0.241 0.188-0.429 0.429-0.429h1.286v-1.768c-3.857-0.429-6.857-3.696-6.857-7.661 0-1.821 0.643-3.496 1.688-4.808l-0.696-0.71-1.353 1.487c-0.161 0.174-0.429 0.188-0.603 0.040l-0.643-0.589c-0.174-0.147-0.188-0.429-0.027-0.603l1.406-1.54-1.487-1.5v1.795c0 0.241-0.188 0.429-0.429 0.429h-0.857c-0.241 0-0.429-0.188-0.429-0.429v-3.857c0-0.469 0.388-0.857 0.857-0.857h3.857c0.241 0 0.429 0.188 0.429 0.429v0.857c0 0.241-0.188 0.429-0.429 0.429h-1.781l1.42 1.433 1.152-1.259c0.161-0.174 0.429-0.188 0.603-0.040l0.643 0.589c0.174 0.147 0.188 0.429 0.027 0.603l-1.205 1.326 0.763 0.75c1.313-1.045 2.987-1.688 4.808-1.688s3.496 0.643 4.808 1.688l3.415-3.402h-1.795c-0.241 0-0.429-0.188-0.429-0.429v-0.857zM11.143 17.143c3.308 0 6-2.692 6-6s-2.692-6-6-6-6 2.692-6 6 2.692 6 6 6z"></path>
</svg>
