<!-- Generated by IcoMoon.io -->
<svg version="1.1" xmlns="http://www.w3.org/2000/svg" width="21" height="24" viewBox="0 0 21 24">
<path d="M20.143 19.714c0 0.469-0.388 0.857-0.857 0.857h-6.187c0.040 0.857 0.147 1.754 0.147 2.625 0 0.442-0.362 0.804-0.817 0.804h-4.286c-0.455 0-0.817-0.362-0.817-0.804 0-0.871 0.107-1.768 0.147-2.625h-6.188c-0.469 0-0.857-0.388-0.857-0.857 0-0.228 0.094-0.442 0.254-0.603l5.384-5.397h-3.067c-0.469 0-0.857-0.388-0.857-0.857 0-0.228 0.094-0.442 0.254-0.603l5.384-5.397h-2.638c-0.469 0-0.857-0.388-0.857-0.857 0-0.228 0.094-0.442 0.254-0.603l5.143-5.143c0.161-0.161 0.375-0.254 0.603-0.254s0.442 0.094 0.603 0.254l5.143 5.143c0.161 0.161 0.254 0.375 0.254 0.603 0 0.469-0.388 0.857-0.857 0.857h-2.638l5.384 5.397c0.161 0.161 0.254 0.375 0.254 0.603 0 0.469-0.388 0.857-0.857 0.857h-3.067l5.384 5.397c0.161 0.161 0.254 0.375 0.254 0.603z"></path>
</svg>
