<!-- Generated by IcoMoon.io -->
<svg version="1.1" xmlns="http://www.w3.org/2000/svg" width="21" height="24" viewBox="0 0 21 24">
<path d="M9.429 18v-13.714c0-0.241-0.188-0.429-0.429-0.429h-6.429c-0.241 0-0.429 0.188-0.429 0.429v13.714c0 0.241 0.188 0.429 0.429 0.429h6.429c0.241 0 0.429-0.188 0.429-0.429zM18.429 12.857v-8.571c0-0.241-0.188-0.429-0.429-0.429h-6.429c-0.241 0-0.429 0.188-0.429 0.429v8.571c0 0.241 0.188 0.429 0.429 0.429h6.429c0.241 0 0.429-0.188 0.429-0.429zM20.571 2.571v18.857c0 0.469-0.388 0.857-0.857 0.857h-18.857c-0.469 0-0.857-0.388-0.857-0.857v-18.857c0-0.469 0.388-0.857 0.857-0.857h18.857c0.469 0 0.857 0.388 0.857 0.857z"></path>
</svg>
