<!-- Generated by IcoMoon.io -->
<svg version="1.1" xmlns="http://www.w3.org/2000/svg" width="31" height="24" viewBox="0 0 31 24">
<path d="M8.719 13.353c0 0.696-0.563 1.259-1.246 1.259-0.696 0-1.259-0.563-1.259-1.259 0-0.683 0.563-1.246 1.259-1.246 0.683 0 1.246 0.563 1.246 1.246zM24.174 13.339c0 0.696-0.563 1.259-1.259 1.259s-1.259-0.563-1.259-1.259 0.563-1.246 1.259-1.246 1.259 0.549 1.259 1.246zM10.246 13.353c0-1.42-1.165-2.585-2.585-2.585-1.433 0-2.585 1.165-2.585 2.585 0 1.433 1.152 2.585 2.585 2.585 1.42 0 2.585-1.152 2.585-2.585zM25.688 13.339c0-1.42-1.152-2.585-2.585-2.585-1.42 0-2.585 1.165-2.585 2.585 0 1.433 1.165 2.585 2.585 2.585 1.433 0 2.585-1.152 2.585-2.585zM11.384 13.353c0 2.063-1.661 3.737-3.723 3.737s-3.737-1.674-3.737-3.737c0-2.049 1.674-3.723 3.737-3.723s3.723 1.674 3.723 3.723zM26.839 13.339c0 2.063-1.674 3.723-3.737 3.723-2.049 0-3.723-1.661-3.723-3.723s1.674-3.723 3.723-3.723c2.062 0 3.737 1.661 3.737 3.723zM13.929 13.379c0-3.415-2.772-6.188-6.187-6.188-3.402 0-6.174 2.772-6.174 6.188s2.772 6.188 6.174 6.188c3.415 0 6.187-2.772 6.187-6.188zM22.875 5.705c-2.21-0.964-4.701-1.487-7.446-1.487s-5.478 0.522-7.674 1.473c4.246 0.013 7.674 3.442 7.674 7.687 0-4.165 3.308-7.554 7.446-7.674zM29.29 13.379c0-3.415-2.759-6.188-6.174-6.188s-6.188 2.772-6.188 6.188 2.772 6.188 6.188 6.188 6.174-2.772 6.174-6.188zM25.728 5.799h5.129c-0.804 0.937-1.393 2.196-1.54 3.067 0.924 1.272 1.473 2.826 1.473 4.513 0 4.246-3.442 7.674-7.674 7.674-2.411 0-4.554-1.098-5.96-2.826 0 0-0.629 0.75-1.728 2.397-0.188-0.388-1.138-1.741-1.714-2.411-1.406 1.741-3.563 2.839-5.973 2.839-4.232 0-7.674-3.429-7.674-7.674 0-1.688 0.549-3.241 1.473-4.513-0.147-0.871-0.737-2.129-1.54-3.067h4.888c2.625-1.754 6.442-2.853 10.54-2.853s7.674 1.098 10.299 2.853z"></path>
</svg>
