<!-- Generated by IcoMoon.io -->
<svg version="1.1" xmlns="http://www.w3.org/2000/svg" width="25" height="24" viewBox="0 0 25 24">
<path d="M8.571 18.857c0-0.938-0.777-1.714-1.714-1.714s-1.714 0.777-1.714 1.714 0.777 1.714 1.714 1.714 1.714-0.777 1.714-1.714zM3.429 12h5.143v-3.429h-2.116c-0.054 0-0.254 0.080-0.295 0.121l-2.612 2.612c-0.040 0.040-0.121 0.241-0.121 0.295v0.402zM20.571 18.857c0-0.938-0.777-1.714-1.714-1.714s-1.714 0.777-1.714 1.714 0.777 1.714 1.714 1.714 1.714-0.777 1.714-1.714zM24 4.286v13.714c0 0.991-1.045 0.857-1.714 0.857 0 1.888-1.54 3.429-3.429 3.429s-3.429-1.54-3.429-3.429h-5.143c0 1.888-1.54 3.429-3.429 3.429s-3.429-1.54-3.429-3.429h-0.857c-0.67 0-1.714 0.134-1.714-0.857 0-0.469 0.388-0.857 0.857-0.857v-4.286c0-0.951-0.134-2.009 0.603-2.746l2.652-2.652c0.335-0.335 0.978-0.603 1.46-0.603h2.143v-2.571c0-0.469 0.388-0.857 0.857-0.857h13.714c0.469 0 0.857 0.388 0.857 0.857z"></path>
</svg>
