<!-- Generated by IcoMoon.io -->
<svg version="1.1" xmlns="http://www.w3.org/2000/svg" width="15" height="24" viewBox="0 0 15 24">
<path d="M15.429 11.143c0 5.196-4.232 9.429-9.429 9.429h-2.143c-0.241 0-0.429-0.188-0.429-0.429v-8.183l-2.879 0.884c-0.040 0.013-0.080 0.013-0.121 0.013-0.094 0-0.174-0.027-0.254-0.080-0.107-0.080-0.174-0.214-0.174-0.348v-1.714c0-0.188 0.121-0.348 0.308-0.415l3.121-0.951v-1.246l-2.879 0.884c-0.040 0.013-0.080 0.013-0.121 0.013-0.094 0-0.174-0.027-0.254-0.080-0.107-0.080-0.174-0.214-0.174-0.348v-1.714c0-0.188 0.121-0.348 0.308-0.415l3.121-0.951v-3.348c0-0.241 0.188-0.429 0.429-0.429h2.143c0.241 0 0.429 0.188 0.429 0.429v2.424l5.022-1.554c0.121-0.040 0.268-0.013 0.375 0.067s0.174 0.214 0.174 0.348v1.714c0 0.188-0.121 0.348-0.308 0.415l-5.263 1.621v1.246l5.022-1.554c0.121-0.040 0.268-0.013 0.375 0.067s0.174 0.214 0.174 0.348v1.714c0 0.188-0.121 0.348-0.308 0.415l-5.263 1.621v6.522c3.348-0.228 6-3.013 6-6.415 0-0.241 0.188-0.429 0.429-0.429h2.143c0.241 0 0.429 0.188 0.429 0.429z"></path>
</svg>
