<!-- Generated by IcoMoon.io -->
<svg version="1.1" xmlns="http://www.w3.org/2000/svg" width="24" height="24" viewBox="0 0 24 24">
<path d="M6 17.571v2.571c0 0.241-0.188 0.429-0.429 0.429h-2.571c-0.241 0-0.429-0.188-0.429-0.429v-2.571c0-0.241 0.188-0.429 0.429-0.429h2.571c0.241 0 0.429 0.188 0.429 0.429zM3.429 12.429v2.571c0 0.241-0.188 0.429-0.429 0.429h-2.571c-0.241 0-0.429-0.188-0.429-0.429v-2.571c0-0.241 0.188-0.429 0.429-0.429h2.571c0.241 0 0.429 0.188 0.429 0.429zM11.143 17.571v2.571c0 0.241-0.188 0.429-0.429 0.429h-2.571c-0.241 0-0.429-0.188-0.429-0.429v-2.571c0-0.241 0.188-0.429 0.429-0.429h2.571c0.241 0 0.429 0.188 0.429 0.429zM8.571 12.429v2.571c0 0.241-0.188 0.429-0.429 0.429h-2.571c-0.241 0-0.429-0.188-0.429-0.429v-2.571c0-0.241 0.188-0.429 0.429-0.429h2.571c0.241 0 0.429 0.188 0.429 0.429zM0.884 10.286c-0.496 0-0.884-0.388-0.884-0.871v-1.728h6.884v1.728c0 0.482-0.388 0.871-0.871 0.871h-5.129zM16.286 17.571v2.571c0 0.241-0.188 0.429-0.429 0.429h-2.571c-0.241 0-0.429-0.188-0.429-0.429v-2.571c0-0.241 0.188-0.429 0.429-0.429h2.571c0.241 0 0.429 0.188 0.429 0.429zM13.714 12.429v2.571c0 0.241-0.188 0.429-0.429 0.429h-2.571c-0.241 0-0.429-0.188-0.429-0.429v-2.571c0-0.241 0.188-0.429 0.429-0.429h2.571c0.241 0 0.429 0.188 0.429 0.429zM21.429 17.571v2.571c0 0.241-0.188 0.429-0.429 0.429h-2.571c-0.241 0-0.429-0.188-0.429-0.429v-2.571c0-0.241 0.188-0.429 0.429-0.429h2.571c0.241 0 0.429 0.188 0.429 0.429zM18.857 12.429v2.571c0 0.241-0.188 0.429-0.429 0.429h-2.571c-0.241 0-0.429-0.188-0.429-0.429v-2.571c0-0.241 0.188-0.429 0.429-0.429h2.571c0.241 0 0.429 0.188 0.429 0.429zM24 6.964v0.174h-6.884v-0.134c0-0.496-0.429-1.393-5.116-1.366-4.688 0.013-5.116 0.871-5.116 1.366v0.134h-6.884v-0.174c0-0.897 1.607-5.25 12-5.25 10.379 0 12 4.353 12 5.25zM24 12.429v2.571c0 0.241-0.188 0.429-0.429 0.429h-2.571c-0.241 0-0.429-0.188-0.429-0.429v-2.571c0-0.241 0.188-0.429 0.429-0.429h2.571c0.241 0 0.429 0.188 0.429 0.429zM24 7.688v1.728c0 0.482-0.388 0.871-0.871 0.871h-5.143c-0.482 0-0.871-0.388-0.871-0.871v-1.728h6.884z"></path>
</svg>
