<!-- Generated by IcoMoon.io -->
<svg version="1.1" xmlns="http://www.w3.org/2000/svg" width="21" height="24" viewBox="0 0 21 24">
<path d="M15.214 19.567l-0.83-2.451c-0.321 0.161-0.924 0.295-1.379 0.295-1.366 0.040-1.647-0.951-1.647-1.688v-5.33h3.442v-2.598h-3.429v-4.366h-2.518c-0.040 0-0.107 0.040-0.121 0.134-0.147 1.326-0.777 3.683-3.375 4.621v2.21h1.741v5.598c0 1.915 1.406 4.647 5.143 4.58 1.259-0.027 2.665-0.549 2.973-1.004zM20.571 5.571v12.857c0 2.129-1.728 3.857-3.857 3.857h-12.857c-2.129 0-3.857-1.728-3.857-3.857v-12.857c0-2.129 1.728-3.857 3.857-3.857h12.857c2.129 0 3.857 1.728 3.857 3.857z"></path>
</svg>
