<!-- Generated by IcoMoon.io -->
<svg version="1.1" xmlns="http://www.w3.org/2000/svg" width="21" height="24" viewBox="0 0 21 24">
<path d="M17.143 8.17c-0.509 0.228-1.045 0.375-1.621 0.455 0.589-0.348 1.031-0.911 1.246-1.567-0.549 0.321-1.152 0.563-1.795 0.683-0.509-0.549-1.246-0.884-2.049-0.884-1.554 0-2.813 1.259-2.813 2.813 0 0.214 0.013 0.442 0.067 0.643-2.344-0.121-4.42-1.232-5.813-2.946-0.241 0.415-0.388 0.911-0.388 1.42 0 0.978 0.455 1.835 1.219 2.344-0.469-0.013-0.911-0.147-1.339-0.348v0.027c0 1.366 1.031 2.504 2.317 2.759-0.241 0.067-0.429 0.107-0.683 0.107-0.174 0-0.348-0.027-0.522-0.054 0.362 1.112 1.393 1.929 2.625 1.955-0.964 0.75-2.17 1.205-3.496 1.205-0.228 0-0.455-0.013-0.67-0.040 1.246 0.79 2.719 1.259 4.313 1.259 5.17 0 8.009-4.286 8.009-8.009 0-0.121 0-0.241-0.013-0.362 0.549-0.388 1.031-0.884 1.406-1.46zM20.571 5.571v12.857c0 2.129-1.728 3.857-3.857 3.857h-12.857c-2.129 0-3.857-1.728-3.857-3.857v-12.857c0-2.129 1.728-3.857 3.857-3.857h12.857c2.129 0 3.857 1.728 3.857 3.857z"></path>
</svg>
