<!-- Generated by IcoMoon.io -->
<svg version="1.1" xmlns="http://www.w3.org/2000/svg" width="22" height="24" viewBox="0 0 22 24">
<path d="M12 11.089v7.768c0 1.862-1.567 3.429-3.429 3.429s-3.429-1.567-3.429-3.429c0-0.469 0.388-0.857 0.857-0.857s0.857 0.388 0.857 0.857c0 0.897 0.817 1.714 1.714 1.714s1.714-0.817 1.714-1.714v-7.768c0.281-0.094 0.563-0.147 0.857-0.147s0.576 0.054 0.857 0.147zM22.286 11.451c0 0.228-0.201 0.429-0.429 0.429-0.121 0-0.214-0.054-0.308-0.134-0.777-0.723-1.5-1.232-2.612-1.232-1.272 0-2.371 0.79-3.094 1.795-0.161 0.228-0.281 0.469-0.429 0.696-0.094 0.147-0.201 0.228-0.375 0.228-0.188 0-0.295-0.080-0.388-0.228-0.147-0.228-0.268-0.469-0.429-0.696-0.723-1.004-1.808-1.795-3.080-1.795s-2.357 0.79-3.080 1.795c-0.161 0.228-0.281 0.469-0.429 0.696-0.094 0.147-0.201 0.228-0.388 0.228-0.174 0-0.281-0.080-0.375-0.228-0.147-0.228-0.268-0.469-0.429-0.696-0.723-1.004-1.821-1.795-3.094-1.795-1.112 0-1.835 0.509-2.612 1.232-0.094 0.080-0.188 0.134-0.308 0.134-0.228 0-0.429-0.201-0.429-0.429 0-0.040 0-0.067 0.013-0.094 1.232-5.063 6.121-7.929 11.129-7.929 4.982 0 9.924 2.866 11.129 7.929 0.013 0.027 0.013 0.054 0.013 0.094zM12 1.714v1.312c-0.281-0.013-0.576-0.027-0.857-0.027s-0.576 0.013-0.857 0.027v-1.312c0-0.469 0.388-0.857 0.857-0.857s0.857 0.388 0.857 0.857z"></path>
</svg>
