<!-- Generated by IcoMoon.io -->
<svg version="1.1" xmlns="http://www.w3.org/2000/svg" width="21" height="24" viewBox="0 0 21 24">
<path d="M0.643 2.987c-0.241-0.013-0.442-0.013-0.603-0.054l-0.040-1.179c0.174-0.013 0.348-0.013 0.536-0.013 0.469 0 0.978 0.013 1.5 0.054 1.259 0.067 2.009 0.094 2.223 0.094 0.763 0 1.513-0.013 2.25-0.040 0.723-0.027 1.379-0.054 1.955-0.067 0.563 0 0.951-0.013 1.152-0.027l-0.013 0.188 0.027 0.857v0.121c-0.536 0.080-1.085 0.121-1.661 0.121-0.536 0-0.884 0.107-1.058 0.335-0.121 0.134-0.174 0.723-0.174 1.768 0 0.321 0.013 0.576 0.013 0.777l0.013 3.067 0.188 3.75c0.054 1.085 0.268 1.982 0.683 2.705 0.308 0.522 0.737 0.938 1.286 1.232 0.804 0.429 1.594 0.629 2.371 0.629 0.911 0 1.768-0.121 2.558-0.375 0.469-0.147 0.911-0.362 1.326-0.683 0.415-0.308 0.71-0.589 0.871-0.857 0.348-0.536 0.576-1.058 0.71-1.527 0.188-0.656 0.281-1.674 0.281-3.067 0-2.397-0.174-2.464-0.375-5.491l-0.054-0.79c-0.040-0.576-0.134-0.978-0.321-1.179-0.295-0.308-0.643-0.469-1.031-0.455l-1.339 0.027-0.188-0.040 0.027-1.152h1.125l2.746 0.134c0.911 0.040 1.781-0.040 2.625-0.134l0.241 0.027c0.054 0.335 0.080 0.563 0.080 0.683s-0.027 0.254-0.054 0.415c-0.362 0.094-0.737 0.161-1.125 0.174-0.629 0.094-0.991 0.161-1.058 0.228-0.121 0.121-0.201 0.295-0.201 0.549 0 0.174 0.027 0.442 0.040 0.777 0 0 0.107 0.241 0.295 5.304 0.067 2.022-0.067 3.388-0.201 4.071s-0.321 1.232-0.549 1.634c-0.348 0.589-0.857 1.138-1.5 1.647-0.656 0.496-1.46 0.897-2.438 1.192s-2.116 0.442-3.415 0.442c-1.473 0-2.746-0.201-3.804-0.616s-1.862-0.964-2.397-1.634-0.911-1.54-1.112-2.612c-0.147-0.737-0.214-1.795-0.214-3.174v-4.46c0-1.688-0.080-2.638-0.228-2.853-0.214-0.308-0.871-0.496-1.969-0.522zM20.571 21.857v-0.857c0-0.241-0.188-0.429-0.429-0.429h-19.714c-0.241 0-0.429 0.188-0.429 0.429v0.857c0 0.241 0.188 0.429 0.429 0.429h19.714c0.241 0 0.429-0.188 0.429-0.429z"></path>
</svg>
