<!-- Generated by IcoMoon.io -->
<svg version="1.1" xmlns="http://www.w3.org/2000/svg" width="24" height="24" viewBox="0 0 24 24">
<path d="M18.402 8.799c-0.107-0.455-0.563-0.737-1.031-0.629-1.915 0.455-3.656 0.83-5.371 0.83s-3.455-0.375-5.371-0.83c-0.469-0.107-0.924 0.174-1.031 0.629-0.107 0.469 0.174 0.924 0.629 1.031 1.42 0.335 2.746 0.629 4.058 0.777-0.054 4.527-0.549 5.786-1.112 7.232l-0.121 0.281c-0.174 0.442 0.054 0.938 0.496 1.112 0.094 0.040 0.201 0.054 0.308 0.054 0.348 0 0.67-0.201 0.804-0.549l0.107-0.268c0.375-0.964 0.723-1.862 0.951-3.469h0.563c0.228 1.607 0.576 2.504 0.951 3.469l0.107 0.268c0.134 0.348 0.455 0.549 0.804 0.549 0.107 0 0.214-0.013 0.308-0.054 0.442-0.174 0.67-0.67 0.496-1.112l-0.121-0.281c-0.563-1.446-1.058-2.705-1.112-7.232 1.313-0.147 2.638-0.442 4.058-0.777 0.455-0.107 0.737-0.563 0.629-1.031zM13.714 6.857c0-0.951-0.763-1.714-1.714-1.714s-1.714 0.763-1.714 1.714 0.763 1.714 1.714 1.714 1.714-0.763 1.714-1.714zM21.429 12c0 5.21-4.219 9.429-9.429 9.429s-9.429-4.219-9.429-9.429 4.219-9.429 9.429-9.429 9.429 4.219 9.429 9.429zM12 1.714c-5.665 0-10.286 4.621-10.286 10.286s4.621 10.286 10.286 10.286 10.286-4.621 10.286-10.286-4.621-10.286-10.286-10.286zM24 12c0 6.629-5.371 12-12 12s-12-5.371-12-12 5.371-12 12-12v0c6.629 0 12 5.371 12 12z"></path>
</svg>
