<!-- Generated by IcoMoon.io -->
<svg version="1.1" xmlns="http://www.w3.org/2000/svg" width="22" height="24" viewBox="0 0 22 24">
<path d="M22.286 7.714v3.429c0 0.469-0.388 0.857-0.857 0.857h-0.857c-0.469 0-0.857-0.388-0.857-0.857v-3.429c0-1.888-1.54-3.429-3.429-3.429s-3.429 1.54-3.429 3.429v2.571h1.286c0.71 0 1.286 0.576 1.286 1.286v7.714c0 0.71-0.576 1.286-1.286 1.286h-12.857c-0.71 0-1.286-0.576-1.286-1.286v-7.714c0-0.71 0.576-1.286 1.286-1.286h9v-2.571c0-3.308 2.692-6 6-6s6 2.692 6 6z"></path>
</svg>
