<!-- Generated by IcoMoon.io -->
<svg version="1.1" xmlns="http://www.w3.org/2000/svg" width="22" height="24" viewBox="0 0 22 24">
<path d="M17.143 19.714c0-0.469-0.388-0.857-0.857-0.857s-0.857 0.388-0.857 0.857 0.388 0.857 0.857 0.857 0.857-0.388 0.857-0.857zM20.571 19.714c0-0.469-0.388-0.857-0.857-0.857s-0.857 0.388-0.857 0.857 0.388 0.857 0.857 0.857 0.857-0.388 0.857-0.857zM22.286 16.714v4.286c0 0.71-0.576 1.286-1.286 1.286h-19.714c-0.71 0-1.286-0.576-1.286-1.286v-4.286c0-0.71 0.576-1.286 1.286-1.286h5.719c0.362 0.991 1.313 1.714 2.424 1.714h3.429c1.112 0 2.063-0.723 2.424-1.714h5.719c0.71 0 1.286 0.576 1.286 1.286zM17.933 8.036c-0.134 0.321-0.442 0.536-0.79 0.536h-3.429v6c0 0.469-0.388 0.857-0.857 0.857h-3.429c-0.469 0-0.857-0.388-0.857-0.857v-6h-3.429c-0.348 0-0.656-0.214-0.79-0.536-0.134-0.308-0.067-0.683 0.188-0.924l6-6c0.161-0.174 0.388-0.254 0.603-0.254s0.442 0.080 0.603 0.254l6 6c0.254 0.241 0.321 0.616 0.188 0.924z"></path>
</svg>
