<!-- Generated by IcoMoon.io -->
<svg version="1.1" xmlns="http://www.w3.org/2000/svg" width="31" height="24" viewBox="0 0 31 24">
<path d="M30.643 10.781c0.134 0.067 0.214 0.214 0.214 0.362s-0.080 0.295-0.214 0.362l-4.286 2.571c-0.067 0.040-0.134 0.067-0.214 0.067-0.067 0-0.147-0.013-0.214-0.054-0.134-0.080-0.214-0.214-0.214-0.375v-1.714h-11.491c0.429 0.67 0.79 1.46 1.112 2.21 0.643 1.446 1.299 2.933 2.237 2.933h1.286v-1.286c0-0.241 0.188-0.429 0.429-0.429h4.286c0.241 0 0.429 0.188 0.429 0.429v4.286c0 0.241-0.188 0.429-0.429 0.429h-4.286c-0.241 0-0.429-0.188-0.429-0.429v-1.286h-1.286c-2.049 0-2.973-2.103-3.804-3.951-0.629-1.433-1.286-2.906-2.196-2.906h-4.821c-0.388 1.473-1.728 2.571-3.321 2.571-1.888 0-3.429-1.54-3.429-3.429s1.54-3.429 3.429-3.429c1.594 0 2.933 1.098 3.321 2.571h1.393c0.911 0 1.567-1.473 2.196-2.906 0.83-1.848 1.754-3.951 3.804-3.951h1.433c0.362-1.004 1.299-1.714 2.424-1.714 1.42 0 2.571 1.152 2.571 2.571s-1.152 2.571-2.571 2.571c-1.125 0-2.063-0.71-2.424-1.714h-1.433c-0.938 0-1.594 1.487-2.237 2.933-0.321 0.75-0.683 1.54-1.112 2.21h14.92v-1.714c0-0.161 0.080-0.295 0.214-0.375s0.308-0.067 0.429 0.013z"></path>
</svg>
