<!-- Generated by IcoMoon.io -->
<svg version="1.1" xmlns="http://www.w3.org/2000/svg" width="21" height="24" viewBox="0 0 21 24">
<path d="M16.085 10.5c1.888 0.549 4.487 2.411 4.487 8.504 0 2.759-2.049 4.996-4.567 4.996h-11.437c-2.518 0-4.567-2.237-4.567-4.996 0-6.094 2.598-7.955 4.487-8.504-0.67-1.058-1.058-2.304-1.058-3.643 0-3.777 3.080-6.857 6.857-6.857s6.857 3.080 6.857 6.857c0 1.339-0.388 2.585-1.058 3.643zM10.286 1.714c-2.839 0-5.143 2.304-5.143 5.143s2.304 5.143 5.143 5.143 5.143-2.304 5.143-5.143-2.304-5.143-5.143-5.143zM16.004 22.286c1.567 0 2.853-1.46 2.853-3.281 0-4.219-1.42-6.857-4.071-6.991-1.205 1.058-2.772 1.701-4.5 1.701s-3.295-0.643-4.5-1.701c-2.652 0.134-4.071 2.772-4.071 6.991 0 1.821 1.286 3.281 2.853 3.281h11.438z"></path>
</svg>
