<!-- Generated by IcoMoon.io -->
<svg version="1.1" xmlns="http://www.w3.org/2000/svg" width="27" height="24" viewBox="0 0 27 24">
<path d="M9.429 12c-2.839 0-5.143-2.304-5.143-5.143s2.304-5.143 5.143-5.143 5.143 2.304 5.143 5.143-2.304 5.143-5.143 5.143zM23.853 16.286l3.335 3.335c0.080 0.080 0.121 0.188 0.121 0.308 0 0.107-0.040 0.214-0.121 0.295l-1.821 1.821c-0.080 0.080-0.188 0.121-0.295 0.121-0.121 0-0.228-0.040-0.308-0.121l-3.335-3.335-3.335 3.335c-0.080 0.080-0.188 0.121-0.308 0.121-0.107 0-0.214-0.040-0.295-0.121l-1.821-1.821c-0.080-0.080-0.121-0.188-0.121-0.295 0-0.121 0.040-0.228 0.121-0.308l3.335-3.335-3.335-3.335c-0.080-0.080-0.121-0.188-0.121-0.308 0-0.107 0.040-0.214 0.121-0.295l1.821-1.821c0.080-0.080 0.188-0.121 0.295-0.121 0.121 0 0.228 0.040 0.308 0.121l3.335 3.335 3.335-3.335c0.080-0.080 0.188-0.121 0.308-0.121 0.107 0 0.214 0.040 0.295 0.121l1.821 1.821c0.080 0.080 0.121 0.188 0.121 0.295 0 0.121-0.040 0.228-0.121 0.308zM17.183 16.286l-2.424 2.424c-0.321 0.321-0.496 0.763-0.496 1.219 0 0.442 0.174 0.884 0.496 1.205l1.112 1.112c-0.188 0.027-0.388 0.040-0.589 0.040h-11.705c-2.143 0-3.576-1.286-3.576-3.469 0-3.027 0.71-7.674 4.634-7.674 0.214 0 0.362 0.094 0.522 0.228 1.286 1.018 2.598 1.634 4.272 1.634s2.987-0.616 4.272-1.634c0.161-0.134 0.308-0.228 0.522-0.228 0.254 0 0.509 0.027 0.763 0.080-0.442 0.429-0.723 0.777-0.723 1.42 0 0.455 0.174 0.897 0.496 1.219z"></path>
</svg>
