<!-- Generated by IcoMoon.io -->
<svg version="1.1" xmlns="http://www.w3.org/2000/svg" width="24" height="24" viewBox="0 0 24 24">
<path d="M12 0c6.629 0 12 5.371 12 12 0 6.589-5.344 12-12 12-6.643 0-12-5.397-12-12 0-6.629 5.371-12 12-12zM20.29 18.094c1.246-1.714 1.996-3.817 1.996-6.094 0-5.665-4.621-10.286-10.286-10.286s-10.286 4.621-10.286 10.286c0 2.277 0.75 4.379 1.996 6.094 0.482-2.397 1.647-4.379 4.098-4.379 1.085 1.058 2.558 1.714 4.192 1.714s3.107-0.656 4.192-1.714c2.451 0 3.616 1.982 4.098 4.379zM17.143 9.429c0-2.839-2.304-5.143-5.143-5.143s-5.143 2.304-5.143 5.143 2.304 5.143 5.143 5.143 5.143-2.304 5.143-5.143z"></path>
</svg>
