<!-- Generated by IcoMoon.io -->
<svg version="1.1" xmlns="http://www.w3.org/2000/svg" width="19" height="24" viewBox="0 0 19 24">
<path d="M5.143 18c0 0.469-0.388 0.857-0.857 0.857s-0.857-0.388-0.857-0.857 0.388-0.857 0.857-0.857 0.857 0.388 0.857 0.857zM18.857 18.817c0 2.183-1.433 3.469-3.576 3.469h-11.705c-2.143 0-3.576-1.286-3.576-3.469 0-2.665 0.536-6.871 3.723-7.567-0.214 0.509-0.295 1.058-0.295 1.607v2.719c-1.031 0.362-1.714 1.339-1.714 2.424 0 1.42 1.152 2.571 2.571 2.571s2.571-1.152 2.571-2.571c0-1.085-0.696-2.063-1.714-2.424v-2.719c0-0.442 0.040-0.884 0.335-1.246 1.125 0.884 2.518 1.393 3.951 1.393s2.826-0.509 3.951-1.393c0.295 0.362 0.335 0.804 0.335 1.246v0.857c-1.888 0-3.429 1.54-3.429 3.429v1.192c-0.268 0.241-0.429 0.589-0.429 0.951 0 0.71 0.576 1.286 1.286 1.286s1.286-0.576 1.286-1.286c0-0.362-0.161-0.71-0.429-0.951v-1.192c0-0.938 0.777-1.714 1.714-1.714s1.714 0.777 1.714 1.714v1.192c-0.268 0.241-0.429 0.589-0.429 0.951 0 0.71 0.576 1.286 1.286 1.286s1.286-0.576 1.286-1.286c0-0.362-0.161-0.71-0.429-0.951v-1.192c0-1.219-0.656-2.357-1.714-2.96 0-0.978 0.094-2.022-0.295-2.933 3.188 0.696 3.723 4.902 3.723 7.567zM14.571 6.857c0 2.839-2.304 5.143-5.143 5.143s-5.143-2.304-5.143-5.143 2.304-5.143 5.143-5.143 5.143 2.304 5.143 5.143z"></path>
</svg>
