<!-- Generated by IcoMoon.io -->
<svg version="1.1" xmlns="http://www.w3.org/2000/svg" width="27" height="24" viewBox="0 0 27 24">
<path d="M9.429 12c-2.839 0-5.143-2.304-5.143-5.143s2.304-5.143 5.143-5.143 5.143 2.304 5.143 5.143-2.304 5.143-5.143 5.143zM22.286 13.714h4.714c0.228 0 0.429 0.201 0.429 0.429v2.571c0 0.228-0.201 0.429-0.429 0.429h-4.714v4.714c0 0.228-0.201 0.429-0.429 0.429h-2.571c-0.228 0-0.429-0.201-0.429-0.429v-4.714h-4.714c-0.228 0-0.429-0.201-0.429-0.429v-2.571c0-0.228 0.201-0.429 0.429-0.429h4.714v-4.714c0-0.228 0.201-0.429 0.429-0.429h2.571c0.228 0 0.429 0.201 0.429 0.429v4.714zM12.429 16.714c0 0.938 0.777 1.714 1.714 1.714h3.429v3.188c-0.656 0.482-1.487 0.67-2.29 0.67h-11.705c-2.143 0-3.576-1.286-3.576-3.469 0-3.027 0.71-7.674 4.634-7.674 0.214 0 0.362 0.094 0.522 0.228 1.312 1.004 2.585 1.634 4.272 1.634s2.96-0.629 4.272-1.634c0.161-0.134 0.308-0.228 0.522-0.228 1.138 0 2.143 0.429 2.906 1.286h-2.987c-0.938 0-1.714 0.777-1.714 1.714v2.571z"></path>
</svg>
