<!-- Generated by IcoMoon.io -->
<svg version="1.1" xmlns="http://www.w3.org/2000/svg" width="24" height="24" viewBox="0 0 24 24">
<path d="M20.397 17.933c-0.348-2.504-1.366-4.728-3.643-5.036-1.179 1.286-2.879 2.103-4.754 2.103s-3.576-0.817-4.754-2.103c-2.277 0.308-3.295 2.531-3.643 5.036 1.862 2.625 4.929 4.353 8.397 4.353s6.536-1.728 8.397-4.353zM17.143 8.571c0-2.839-2.304-5.143-5.143-5.143s-5.143 2.304-5.143 5.143 2.304 5.143 5.143 5.143 5.143-2.304 5.143-5.143zM24 12c0 6.603-5.357 12-12 12-6.629 0-12-5.384-12-12 0-6.629 5.371-12 12-12s12 5.371 12 12z"></path>
</svg>
