<!-- Generated by IcoMoon.io -->
<svg version="1.1" xmlns="http://www.w3.org/2000/svg" width="27" height="24" viewBox="0 0 27 24">
<path d="M22.286 0.429c0-0.241 0.188-0.429 0.429-0.429h3.857c0.469 0 0.857 0.388 0.857 0.857v3.857c0 0.241-0.188 0.429-0.429 0.429h-0.857c-0.241 0-0.429-0.188-0.429-0.429v-1.795l-3.402 3.415c1.313 1.647 1.969 3.83 1.567 6.174-0.563 3.214-3.174 5.772-6.402 6.254-2.036 0.308-3.951-0.188-5.478-1.205-1.004 0.67-2.17 1.112-3.429 1.246v1.768h1.286c0.241 0 0.429 0.188 0.429 0.429v0.857c0 0.241-0.188 0.429-0.429 0.429h-1.286v1.286c0 0.241-0.188 0.429-0.429 0.429h-0.857c-0.241 0-0.429-0.188-0.429-0.429v-1.286h-1.286c-0.241 0-0.429-0.188-0.429-0.429v-0.857c0-0.241 0.188-0.429 0.429-0.429h1.286v-1.768c-4.205-0.469-7.406-4.326-6.777-8.759 0.455-3.335 3.107-6.013 6.429-6.522 2.049-0.308 3.964 0.188 5.491 1.205 1.232-0.817 2.705-1.299 4.286-1.299 1.821 0 3.496 0.643 4.808 1.688l3.415-3.402h-1.795c-0.241 0-0.429-0.188-0.429-0.429v-0.857zM12 15.335c1.058-1.085 1.714-2.558 1.714-4.192s-0.656-3.107-1.714-4.192c-1.058 1.085-1.714 2.558-1.714 4.192s0.656 3.107 1.714 4.192zM1.714 11.143c0 3.308 2.692 6 6 6 1.058 0 2.063-0.281 2.92-0.763-1.272-1.379-2.063-3.214-2.063-5.237s0.79-3.857 2.063-5.237c-0.857-0.482-1.862-0.763-2.92-0.763-3.308 0-6 2.692-6 6zM16.286 17.143c3.308 0 6-2.692 6-6s-2.692-6-6-6c-1.058 0-2.063 0.281-2.92 0.763 1.272 1.379 2.063 3.214 2.063 5.237s-0.79 3.857-2.063 5.237c0.857 0.482 1.862 0.763 2.92 0.763z"></path>
</svg>
