<!-- Generated by IcoMoon.io -->
<svg version="1.1" xmlns="http://www.w3.org/2000/svg" width="24" height="24" viewBox="0 0 24 24">
<path d="M23.973 7.085c0.335 4.246-2.772 7.848-6.83 8.29v3.482h3c0.241 0 0.429 0.188 0.429 0.429v0.857c0 0.241-0.188 0.429-0.429 0.429h-3v3c0 0.241-0.188 0.429-0.429 0.429h-0.857c-0.241 0-0.429-0.188-0.429-0.429v-3h-6.857v3c0 0.241-0.188 0.429-0.429 0.429h-0.857c-0.241 0-0.429-0.188-0.429-0.429v-3h-3c-0.241 0-0.429-0.188-0.429-0.429v-0.857c0-0.241 0.188-0.429 0.429-0.429h3v-3.482c-4.058-0.442-7.165-4.045-6.83-8.29 0.295-3.683 3.254-6.696 6.924-7.045 1.875-0.188 3.629 0.308 5.049 1.259 1.42-0.951 3.174-1.446 5.049-1.259 3.67 0.348 6.629 3.362 6.924 7.045zM12 11.906c1.058-1.085 1.714-2.558 1.714-4.192s-0.656-3.107-1.714-4.192c-1.058 1.085-1.714 2.558-1.714 4.192s0.656 3.107 1.714 4.192zM7.714 13.714c1.058 0 2.049-0.281 2.92-0.763-1.286-1.379-2.063-3.214-2.063-5.237s0.79-3.857 2.063-5.237c-0.871-0.482-1.862-0.763-2.92-0.763-3.308 0-6 2.692-6 6s2.692 6 6 6zM15.429 18.857v-3.482c-1.259-0.134-2.424-0.589-3.429-1.259-1.004 0.67-2.17 1.125-3.429 1.259v3.482h6.857zM16.286 13.714c3.308 0 6-2.692 6-6s-2.692-6-6-6c-1.058 0-2.049 0.281-2.92 0.763 1.272 1.379 2.063 3.214 2.063 5.237s-0.777 3.857-2.063 5.237c0.871 0.482 1.862 0.763 2.92 0.763z"></path>
</svg>
