<!-- Generated by IcoMoon.io -->
<svg version="1.1" xmlns="http://www.w3.org/2000/svg" width="15" height="24" viewBox="0 0 15 24">
<path d="M15.429 7.714c0 3.964-3 7.232-6.857 7.661v3.482h3c0.241 0 0.429 0.188 0.429 0.429v0.857c0 0.241-0.188 0.429-0.429 0.429h-3v3c0 0.241-0.188 0.429-0.429 0.429h-0.857c-0.241 0-0.429-0.188-0.429-0.429v-3h-3c-0.241 0-0.429-0.188-0.429-0.429v-0.857c0-0.241 0.188-0.429 0.429-0.429h3v-3.482c-4.058-0.442-7.165-4.045-6.83-8.29 0.295-3.643 3.188-6.629 6.804-7.031 4.661-0.522 8.598 3.107 8.598 7.661zM1.714 7.714c0 3.308 2.692 6 6 6s6-2.692 6-6-2.692-6-6-6-6 2.692-6 6z"></path>
</svg>
