<!-- Generated by IcoMoon.io -->
<svg version="1.1" xmlns="http://www.w3.org/2000/svg" width="17" height="24" viewBox="0 0 17 24">
<path d="M14.063 14.813c0 1.915-0.67 3.603-1.969 5.009-1.353 1.473-3.067 2.156-5.063 2.156-1.982 0-3.71-0.67-5.063-2.156-1.299-1.406-1.969-3.094-1.969-5.009 0-3.978 3-7.232 7.031-7.232 0.83 0 1.661 0.134 2.438 0.415-0.268 0.522-0.455 1.098-0.522 1.688-0.603-0.254-1.259-0.375-1.915-0.375-3.040 0-5.277 2.598-5.277 5.545 0 3 2.223 5.451 5.277 5.451s5.263-2.451 5.263-5.451c0-0.763-0.134-1.513-0.429-2.223 0.589-0.121 1.152-0.348 1.647-0.656 0.375 0.897 0.549 1.875 0.549 2.839zM11.33 12.281c0 3.375-1.366 6.188-4.259 8.009l-0.188 0.013c-0.281 0-0.563-0.027-0.83-0.067 3.871-1.473 4.58-7.353 4.58-10.942 0-0.455 0-0.924-0.040-1.379 0.482 1.406 0.737 2.879 0.737 4.366zM10.594 7.888v0.027c-0.696-2.049-1.661-4.031-2.759-5.893 1.688 1.138 2.612 3.897 2.759 5.866zM13.862 10.607c-0.83 0-1.567-0.442-2.143-1.004 1.366-0.75 3.094-1.915 3.884-3.308 0.094-0.188 0.254-0.536 0.281-0.75-0.777 1.741-2.759 3.107-4.607 3.536-0.295-0.455-0.469-0.964-0.469-1.513 0-0.643 0.321-1.5 0.804-1.969 0.549-0.522 1.366-0.79 2.103-0.991 1.071-0.295 1.942-1.125 2.411-2.129 0.696 0.991 0.991 2.196 0.991 3.388 0 0.603-0.094 1.701-0.321 2.277-0.496 1.205-1.5 2.464-2.933 2.464z"></path>
</svg>
