<!-- Generated by IcoMoon.io -->
<svg version="1.1" xmlns="http://www.w3.org/2000/svg" width="21" height="24" viewBox="0 0 21 24">
<path d="M14.063 13.942c0-0.67-0.121-1.339-0.375-1.969-0.348 0.214-0.737 0.375-1.138 0.455 0.214 0.482 0.295 1.004 0.295 1.527 0 2.063-1.527 3.75-3.616 3.75-2.103 0-3.629-1.688-3.629-3.75 0-2.022 1.54-3.804 3.629-3.804 0.455 0 0.897 0.080 1.313 0.254 0.040-0.402 0.174-0.804 0.362-1.165-0.536-0.188-1.098-0.281-1.674-0.281-2.772 0-4.835 2.237-4.835 4.982s2.076 4.915 4.835 4.915 4.835-2.183 4.835-4.915zM11.679 9.188c0.027 0.321 0.027 0.643 0.027 0.951 0 2.478-0.482 6.509-3.147 7.527 0.188 0.027 0.375 0.040 0.563 0.040h0.134c1.982-1.259 2.933-3.188 2.933-5.504 0-1.031-0.174-2.049-0.509-3.013zM11.679 9.188c-0.067-1.299-0.804-3.308-1.902-4.045 0.75 1.272 1.42 2.638 1.902 4.045zM16.165 7.781c0-0.817-0.201-1.647-0.683-2.33-0.321 0.683-0.924 1.259-1.661 1.46-1.058 0.295-1.996 0.79-1.996 2.049 0 0.362 0.121 0.723 0.321 1.031 1.272-0.295 2.625-1.232 3.161-2.437-0.080 1.071-2.076 2.371-2.853 2.799 0.388 0.388 0.897 0.696 1.473 0.696 0.978 0 1.674-0.871 2.009-1.701 0.161-0.402 0.228-1.152 0.228-1.567zM20.571 5.571v12.857c0 2.129-1.728 3.857-3.857 3.857h-12.857c-2.129 0-3.857-1.728-3.857-3.857v-12.857c0-2.129 1.728-3.857 3.857-3.857h12.857c2.129 0 3.857 1.728 3.857 3.857z"></path>
</svg>
