<!-- Generated by IcoMoon.io -->
<svg version="1.1" xmlns="http://www.w3.org/2000/svg" width="24" height="24" viewBox="0 0 24 24">
<path d="M24 4.714v14.571c0 0.348-0.214 0.656-0.522 0.79-0.107 0.040-0.228 0.067-0.335 0.067-0.228 0-0.442-0.080-0.603-0.254l-5.397-5.397v2.223c0 2.129-1.728 3.857-3.857 3.857h-9.429c-2.129 0-3.857-1.728-3.857-3.857v-9.429c0-2.129 1.728-3.857 3.857-3.857h9.429c2.129 0 3.857 1.728 3.857 3.857v2.21l5.397-5.384c0.161-0.174 0.375-0.254 0.603-0.254 0.107 0 0.228 0.027 0.335 0.067 0.308 0.134 0.522 0.442 0.522 0.79z"></path>
</svg>
