<!-- Generated by IcoMoon.io -->
<svg version="1.1" xmlns="http://www.w3.org/2000/svg" width="21" height="24" viewBox="0 0 21 24">
<path d="M17.304 8.545c0.094-1.942-0.629-2.92-2.156-2.973-2.063-0.067-3.455 1.098-4.179 3.496 0.375-0.161 0.737-0.254 1.098-0.254 0.75 0 1.085 0.429 0.991 1.286-0.040 0.509-0.375 1.259-0.991 2.237-0.629 0.991-1.098 1.473-1.406 1.473-0.402 0-0.75-0.75-1.098-2.263-0.107-0.455-0.308-1.58-0.603-3.415-0.268-1.688-0.978-2.478-2.143-2.371-0.482 0.054-1.232 0.482-2.196 1.339-0.723 0.629-1.433 1.286-2.17 1.929l0.696 0.897c0.67-0.455 1.058-0.696 1.165-0.696 0.509 0 0.991 0.804 1.433 2.397 0.402 1.473 0.804 2.933 1.205 4.406 0.603 1.594 1.326 2.397 2.196 2.397 1.393 0 3.107-1.313 5.129-3.938 1.955-2.518 2.973-4.5 3.027-5.946zM20.571 5.571v12.857c0 2.129-1.728 3.857-3.857 3.857h-12.857c-2.129 0-3.857-1.728-3.857-3.857v-12.857c0-2.129 1.728-3.857 3.857-3.857h12.857c2.129 0 3.857 1.728 3.857 3.857z"></path>
</svg>
