<!-- Generated by IcoMoon.io -->
<svg version="1.1" xmlns="http://www.w3.org/2000/svg" width="24" height="24" viewBox="0 0 24 24">
<path d="M22.888 6.938c-0.094 2.116-1.58 5.022-4.446 8.719-2.973 3.844-5.464 5.772-7.527 5.772-1.272 0-2.344-1.179-3.214-3.522-0.589-2.143-1.179-4.299-1.768-6.455-0.643-2.344-1.353-3.509-2.103-3.509-0.161 0-0.723 0.335-1.701 1.018l-1.031-1.313c1.071-0.951 2.129-1.915 3.188-2.839 1.42-1.259 2.504-1.888 3.228-1.955 1.701-0.161 2.732 0.991 3.134 3.469 0.415 2.679 0.723 4.353 0.884 4.996 0.496 2.223 1.018 3.335 1.607 3.335 0.455 0 1.138-0.71 2.063-2.156 0.911-1.446 1.393-2.545 1.46-3.295 0.121-1.246-0.362-1.862-1.46-1.862-0.522 0-1.058 0.121-1.621 0.348 1.071-3.509 3.121-5.21 6.147-5.116 2.237 0.067 3.295 1.527 3.161 4.366z"></path>
</svg>
