<!-- Generated by IcoMoon.io -->
<svg version="1.1" xmlns="http://www.w3.org/2000/svg" width="21" height="24" viewBox="0 0 21 24">
<path d="M20.049 11.076v2.652c-0.938 0.214-1.875 0.308-2.652 0.308-1.875 3.938-5.237 7.313-6.362 7.942-0.71 0.402-1.379 0.429-2.17-0.040-1.379-0.83-6.603-5.116-8.344-18.589h3.79c0.951 8.089 3.281 12.241 5.839 15.348 1.42-1.42 2.786-3.308 3.844-5.438-2.531-1.286-4.071-4.112-4.071-7.406 0-3.335 1.915-5.853 5.196-5.853 3.188 0 4.929 1.982 4.929 5.397 0 1.272-0.268 2.719-0.777 3.83 0 0-2.357 0.469-3.228-1.045 0.174-0.576 0.415-1.567 0.415-2.464 0-1.594-0.576-2.371-1.446-2.371-0.924 0-1.567 0.871-1.567 2.545 0 3.415 2.17 5.371 4.982 5.371 0.496 0 1.058-0.054 1.621-0.188z"></path>
</svg>
