<!-- Generated by IcoMoon.io -->
<svg version="1.1" xmlns="http://www.w3.org/2000/svg" width="26" height="24" viewBox="0 0 26 24">
<path d="M25.674 6.964c0.201 0.549-0.429 1.835-2.009 3.938-2.598 3.455-2.879 3.134-0.737 5.129 2.062 1.915 2.491 2.839 2.558 2.96 0 0 0.857 1.5-0.951 1.513l-3.429 0.054c-0.737 0.147-1.714-0.522-1.714-0.522-1.286-0.884-2.491-3.174-3.429-2.879 0 0-0.964 0.308-0.938 2.371 0.013 0.442-0.201 0.683-0.201 0.683s-0.241 0.254-0.71 0.295h-1.54c-3.388 0.214-6.375-2.906-6.375-2.906s-3.268-3.375-6.134-10.112c-0.188-0.442 0.013-0.656 0.013-0.656s0.201-0.254 0.763-0.254l3.67-0.027c0.348 0.054 0.589 0.241 0.589 0.241s0.214 0.147 0.321 0.429c0.603 1.5 1.379 2.866 1.379 2.866 1.339 2.759 2.25 3.228 2.772 2.946 0 0 0.683-0.415 0.536-3.75-0.054-1.205-0.388-1.754-0.388-1.754-0.308-0.415-0.884-0.536-1.138-0.576-0.201-0.027 0.134-0.509 0.576-0.723 0.656-0.321 1.821-0.335 3.201-0.321 1.085 0.013 1.393 0.080 1.808 0.174 1.272 0.308 0.844 1.487 0.844 4.326 0 0.911-0.174 2.183 0.482 2.598 0.281 0.188 0.978 0.027 2.692-2.893 0 0 0.804-1.393 1.433-3.013 0.107-0.295 0.335-0.415 0.335-0.415s0.214-0.121 0.509-0.080l3.857-0.027c1.165-0.147 1.353 0.388 1.353 0.388z"></path>
</svg>
