<!-- Generated by IcoMoon.io -->
<svg version="1.1" xmlns="http://www.w3.org/2000/svg" width="22" height="24" viewBox="0 0 22 24">
<path d="M10.286 4.714v14.571c0 0.469-0.388 0.857-0.857 0.857-0.228 0-0.442-0.094-0.603-0.254l-4.46-4.46h-3.509c-0.469 0-0.857-0.388-0.857-0.857v-5.143c0-0.469 0.388-0.857 0.857-0.857h3.509l4.46-4.46c0.161-0.161 0.375-0.254 0.603-0.254 0.469 0 0.857 0.388 0.857 0.857zM15.429 12c0 1.339-0.817 2.638-2.076 3.147-0.107 0.054-0.228 0.067-0.335 0.067-0.469 0-0.857-0.375-0.857-0.857 0-1.018 1.554-0.737 1.554-2.357s-1.554-1.339-1.554-2.357c0-0.482 0.388-0.857 0.857-0.857 0.107 0 0.228 0.013 0.335 0.067 1.259 0.496 2.076 1.808 2.076 3.147zM18.857 12c0 2.719-1.634 5.25-4.152 6.308-0.107 0.040-0.228 0.067-0.335 0.067-0.482 0-0.871-0.388-0.871-0.857 0-0.375 0.214-0.629 0.522-0.79 0.362-0.188 0.696-0.348 1.018-0.589 1.326-0.964 2.103-2.504 2.103-4.138s-0.777-3.174-2.103-4.138c-0.321-0.241-0.656-0.402-1.018-0.589-0.308-0.161-0.522-0.415-0.522-0.79 0-0.469 0.388-0.857 0.857-0.857 0.121 0 0.241 0.027 0.348 0.067 2.518 1.058 4.152 3.589 4.152 6.308zM22.286 12c0 4.112-2.451 7.835-6.228 9.455-0.107 0.040-0.228 0.067-0.348 0.067-0.469 0-0.857-0.388-0.857-0.857 0-0.388 0.201-0.603 0.522-0.79 0.188-0.107 0.402-0.174 0.603-0.281 0.375-0.201 0.75-0.429 1.098-0.683 2.196-1.621 3.496-4.179 3.496-6.911s-1.299-5.29-3.496-6.911c-0.348-0.254-0.723-0.482-1.098-0.683-0.201-0.107-0.415-0.174-0.603-0.281-0.321-0.188-0.522-0.402-0.522-0.79 0-0.469 0.388-0.857 0.857-0.857 0.121 0 0.241 0.027 0.348 0.067 3.777 1.621 6.228 5.344 6.228 9.455z"></path>
</svg>
