<!-- Generated by IcoMoon.io -->
<svg version="1.1" xmlns="http://www.w3.org/2000/svg" width="19" height="24" viewBox="0 0 19 24">
<path d="M8.263 22.621c0-0.321-0.71-2.598-0.857-3.134-0.080-0.335-0.107-0.884-0.362-1.125-0.174-0.161-0.455-0.188-0.683-0.188-0.629 0-1.259 0.147-1.888 0.147-0.188 0-0.469-0.013-0.629-0.147-0.214-0.174-0.321-0.777-0.402-1.045-0.321-1.112-0.496-2.25-0.496-3.415s0.174-2.304 0.496-3.415c0.080-0.268 0.188-0.871 0.402-1.045 0.161-0.134 0.442-0.147 0.629-0.147 0.629 0 1.259 0.147 1.888 0.147 0.228 0 0.509-0.027 0.683-0.188 0.254-0.241 0.281-0.79 0.362-1.125 0.147-0.536 0.857-2.813 0.857-3.134 0-0.455-1.205-1.125-1.594-1.272-0.201-0.080-0.402-0.107-0.603-0.107-0.442 0-0.884 0.121-1.313 0.241-2.196 0.656-2.719 1.996-3.589 3.884-0.938 2.022-1.165 3.951-1.165 6.161s0.228 4.138 1.165 6.161c0.871 1.888 1.393 3.228 3.589 3.884 0.429 0.121 0.871 0.241 1.313 0.241 0.201 0 0.402-0.027 0.603-0.107 0.388-0.147 1.594-0.817 1.594-1.272zM10.393 10.393c-0.228 0-0.442-0.094-0.603-0.254-0.335-0.335-0.348-0.884 0-1.219 0.321-0.321 0.496-0.75 0.496-1.205s-0.174-0.884-0.496-1.219c-0.348-0.335-0.335-0.871 0-1.205s0.871-0.335 1.205 0c0.643 0.643 1.004 1.513 1.004 2.424s-0.362 1.781-1.004 2.424c-0.174 0.161-0.388 0.254-0.603 0.254zM12.817 12.817c-0.228 0-0.442-0.080-0.603-0.254-0.335-0.335-0.335-0.871 0-1.205 0.964-0.978 1.5-2.263 1.5-3.643s-0.536-2.665-1.5-3.643c-0.335-0.335-0.335-0.871 0-1.205s0.871-0.335 1.205 0c1.299 1.299 2.009 3.013 2.009 4.848s-0.71 3.549-2.009 4.848c-0.161 0.174-0.388 0.254-0.603 0.254zM15.241 15.241c-0.228 0-0.442-0.080-0.603-0.254-0.335-0.335-0.335-0.871 0-1.205 1.607-1.621 2.504-3.777 2.504-6.067s-0.897-4.446-2.504-6.067c-0.335-0.335-0.335-0.871 0-1.205s0.871-0.335 1.205 0c1.942 1.942 3.013 4.527 3.013 7.272s-1.071 5.33-3.013 7.272c-0.161 0.174-0.388 0.254-0.603 0.254z"></path>
</svg>
