<!-- Generated by IcoMoon.io -->
<svg version="1.1" xmlns="http://www.w3.org/2000/svg" width="15" height="24" viewBox="0 0 15 24">
<path d="M10.286 4.714v14.571c0 0.469-0.388 0.857-0.857 0.857-0.228 0-0.442-0.094-0.603-0.254l-4.46-4.46h-3.509c-0.469 0-0.857-0.388-0.857-0.857v-5.143c0-0.469 0.388-0.857 0.857-0.857h3.509l4.46-4.46c0.161-0.161 0.375-0.254 0.603-0.254 0.469 0 0.857 0.388 0.857 0.857zM15.429 12c0 1.339-0.817 2.638-2.076 3.147-0.107 0.054-0.228 0.067-0.335 0.067-0.469 0-0.857-0.375-0.857-0.857 0-1.018 1.554-0.737 1.554-2.357s-1.554-1.339-1.554-2.357c0-0.482 0.388-0.857 0.857-0.857 0.107 0 0.228 0.013 0.335 0.067 1.259 0.496 2.076 1.808 2.076 3.147z"></path>
</svg>
