<!-- Generated by IcoMoon.io -->
<svg version="1.1" xmlns="http://www.w3.org/2000/svg" width="27" height="24" viewBox="0 0 27 24">
<path d="M7.768 6.174c0-0.737-0.482-1.219-1.219-1.219-0.723 0-1.46 0.482-1.46 1.219 0 0.723 0.737 1.205 1.46 1.205 0.737 0 1.219-0.482 1.219-1.205zM17.719 12.964c0-0.482-0.482-0.964-1.219-0.964-0.482 0-0.964 0.482-0.964 0.964 0 0.496 0.482 0.978 0.964 0.978 0.737 0 1.219-0.482 1.219-0.978zM14.558 6.174c0-0.737-0.482-1.219-1.205-1.219-0.737 0-1.46 0.482-1.46 1.219 0 0.723 0.723 1.205 1.46 1.205 0.723 0 1.205-0.482 1.205-1.205zM23.063 12.964c0-0.482-0.496-0.964-1.219-0.964-0.482 0-0.964 0.482-0.964 0.964 0 0.496 0.482 0.978 0.964 0.978 0.723 0 1.219-0.482 1.219-0.978zM19.5 7.647c-0.308-0.040-0.616-0.054-0.938-0.054-4.607 0-8.25 3.442-8.25 7.674 0 0.71 0.107 1.393 0.308 2.036-0.308 0.027-0.603 0.040-0.911 0.040-1.219 0-2.183-0.241-3.402-0.482l-3.388 1.701 0.964-2.92c-2.424-1.701-3.884-3.897-3.884-6.563 0-4.621 4.366-8.25 9.71-8.25 4.768 0 8.96 2.906 9.79 6.817zM27.429 15.161c0 2.183-1.446 4.125-3.402 5.585l0.737 2.424-2.665-1.46c-0.978 0.241-1.955 0.496-2.92 0.496-4.621 0-8.25-3.161-8.25-7.045s3.629-7.045 8.25-7.045c4.366 0 8.25 3.161 8.25 7.045z"></path>
</svg>
