<!-- Generated by IcoMoon.io -->
<svg version="1.1" xmlns="http://www.w3.org/2000/svg" width="24" height="24" viewBox="0 0 24 24">
<path d="M9.040 17.196c0.375-0.616 0.174-1.326-0.455-1.594-0.603-0.254-1.406 0.013-1.781 0.603-0.388 0.603-0.201 1.313 0.402 1.594 0.616 0.281 1.446 0.013 1.835-0.603zM10.299 15.576c0.134-0.241 0.054-0.509-0.188-0.603-0.241-0.080-0.536 0.027-0.67 0.254-0.134 0.241-0.067 0.496 0.174 0.603 0.241 0.094 0.549-0.013 0.683-0.254zM12.629 17.009c-0.804 1.821-3.134 2.813-5.116 2.17-1.915-0.616-2.719-2.504-1.888-4.205 0.83-1.661 2.96-2.598 4.848-2.116 1.969 0.509 2.96 2.357 2.156 4.152zM16.808 14.866c-0.254-2.612-3.683-4.406-7.661-4.018-3.978 0.402-6.978 2.826-6.723 5.438s3.683 4.406 7.661 4.018c3.978-0.402 6.978-2.826 6.723-5.438zM20.933 14.92c0 3.013-4.339 6.804-10.862 6.804-4.982 0-10.071-2.411-10.071-6.388 0-2.076 1.313-4.473 3.576-6.737 3.027-3.027 6.549-4.393 7.875-3.067 0.589 0.576 0.643 1.594 0.268 2.799-0.188 0.616 0.576 0.268 0.576 0.281 2.438-1.031 4.567-1.085 5.344 0.027 0.415 0.589 0.375 1.42 0 2.384-0.174 0.442 0.054 0.509 0.388 0.616 1.379 0.429 2.906 1.46 2.906 3.281zM19.942 6.563c0.763 0.844 0.978 2.009 0.643 3.027-0.134 0.415-0.576 0.643-0.991 0.509s-0.643-0.576-0.509-0.991v0c0.161-0.509 0.054-1.071-0.321-1.487s-0.924-0.576-1.433-0.469v0c-0.429 0.094-0.857-0.174-0.938-0.603-0.094-0.429 0.174-0.844 0.603-0.938 1.045-0.228 2.183 0.094 2.946 0.951zM22.366 4.379c1.58 1.741 1.996 4.125 1.326 6.214v0c-0.161 0.482-0.67 0.75-1.152 0.589s-0.75-0.67-0.603-1.152v0c0.482-1.487 0.188-3.188-0.938-4.42-1.125-1.246-2.772-1.714-4.299-1.393-0.496 0.107-0.991-0.214-1.098-0.71s0.214-0.978 0.71-1.085v0c2.156-0.455 4.473 0.201 6.054 1.955z"></path>
</svg>
