<!-- Generated by IcoMoon.io -->
<svg version="1.1" xmlns="http://www.w3.org/2000/svg" width="21" height="24" viewBox="0 0 21 24">
<path d="M19.259 10.888c0.281 0.295 0.429 0.696 0.388 1.098l-0.589 7.379c-0.067 0.75-0.683 1.313-1.42 1.313-0.040 0-0.080 0-0.121-0.013-0.79-0.054-1.366-0.75-1.313-1.527l0.469-5.746-1.915 0.107c0.469 0.964 0.737 2.063 0.737 3.214 0 1.929-0.75 3.683-1.982 4.982l-1.835-1.835c0.75-0.83 1.219-1.942 1.219-3.147 0-2.598-2.103-4.701-4.688-4.701-1.219 0-2.317 0.469-3.161 1.232l-1.835-1.848c1.031-0.978 2.344-1.647 3.804-1.888l3.536-4.018-1.996-1.165-2.424 2.156c-0.589 0.536-1.487 0.482-2.009-0.107s-0.469-1.487 0.107-2.009l3.201-2.853c0.455-0.415 1.125-0.482 1.661-0.161 6.522 3.79 6.536 3.79 6.536 3.79 0.348 0.201 0.549 0.549 0.643 0.911 0.134 0.522 0.040 1.112-0.348 1.567l-2.746 3.107 4.969-0.268c0.415-0.027 0.817 0.121 1.112 0.429zM16.607 4.768c-1.313 0-2.384-1.058-2.384-2.384 0-1.312 1.071-2.384 2.384-2.384 1.326 0 2.397 1.071 2.397 2.384 0 1.326-1.071 2.384-2.397 2.384zM8.21 21.402c0.964 0 1.875-0.308 2.625-0.817l1.862 1.862c-1.232 0.978-2.799 1.554-4.487 1.554-4.031 0-7.299-3.268-7.299-7.286 0-1.701 0.576-3.254 1.554-4.5l1.862 1.862c-0.509 0.75-0.804 1.661-0.804 2.638 0 2.585 2.103 4.688 4.687 4.688z"></path>
</svg>
