<!-- Generated by IcoMoon.io -->
<svg version="1.1" xmlns="http://www.w3.org/2000/svg" width="27" height="24" viewBox="0 0 27 24">
<path d="M13.714 20.397c-0.348 0-2.223-1.875-2.223-2.237 0-0.656 1.714-1.018 2.223-1.018s2.223 0.362 2.223 1.018c0 0.362-1.875 2.237-2.223 2.237zM17.33 16.768c-0.188 0-1.647-1.339-3.616-1.339-1.982 0-3.415 1.339-3.616 1.339-0.321 0-2.263-1.929-2.263-2.25 0-0.121 0.054-0.228 0.134-0.308 1.433-1.42 3.763-2.21 5.746-2.21s4.313 0.79 5.746 2.21c0.080 0.080 0.134 0.188 0.134 0.308 0 0.321-1.942 2.25-2.263 2.25zM20.987 13.125c-0.107 0-0.228-0.054-0.308-0.107-2.21-1.714-4.071-2.732-6.964-2.732-4.045 0-7.125 2.839-7.272 2.839-0.308 0-2.237-1.929-2.237-2.25 0-0.107 0.054-0.214 0.134-0.295 2.397-2.397 6.013-3.723 9.375-3.723s6.978 1.326 9.375 3.723c0.080 0.080 0.134 0.188 0.134 0.295 0 0.321-1.929 2.25-2.237 2.25zM24.616 9.496c-0.107 0-0.214-0.054-0.295-0.121-3.094-2.719-6.429-4.232-10.607-4.232s-7.513 1.513-10.607 4.232c-0.080 0.067-0.188 0.121-0.295 0.121-0.308 0-2.25-1.929-2.25-2.25 0-0.121 0.054-0.228 0.134-0.308 3.388-3.362 8.277-5.223 13.018-5.223s9.629 1.862 13.018 5.223c0.080 0.080 0.134 0.188 0.134 0.308 0 0.321-1.942 2.25-2.25 2.25z"></path>
</svg>
