<!-- Generated by IcoMoon.io -->
<svg version="1.1" xmlns="http://www.w3.org/2000/svg" width="27" height="24" viewBox="0 0 27 24">
<path d="M3.429 20.571h10.286v-6.857h-10.286v6.857zM17.143 13.714h6.857v-10.286h-10.286v3.429h1.286c1.179 0 2.143 0.964 2.143 2.143v4.714zM27.429 2.143v12.857c0 1.179-0.964 2.143-2.143 2.143h-8.143v4.714c0 1.179-0.964 2.143-2.143 2.143h-12.857c-1.179 0-2.143-0.964-2.143-2.143v-12.857c0-1.179 0.964-2.143 2.143-2.143h8.143v-4.714c0-1.179 0.964-2.143 2.143-2.143h12.857c1.179 0 2.143 0.964 2.143 2.143z"></path>
</svg>
