<!-- Generated by IcoMoon.io -->
<svg version="1.1" xmlns="http://www.w3.org/2000/svg" width="24" height="24" viewBox="0 0 24 24">
<path d="M5.143 11.143h2.143v-3h-2.143v3zM16.353 15.589v-1.232c-1.152 0.402-2.103 0.496-3.254 0.509-2.585 0.013-4.875-1.058-6.429-2.263l0.013 1.286c1.46 1.326 3.696 2.371 6.482 2.357 1.165 0 2.263-0.241 3.188-0.656zM8.571 11.143h8.571v-3h-8.571v3zM24 10.714c0 1.701-0.482 3.308-1.326 4.714 0.75 0.857 1.192 1.915 1.192 3.067 0 2.799-2.652 5.076-5.933 5.076-2.223 0-4.152-1.045-5.17-2.585-0.254 0.013-0.509 0.013-0.763 0.013s-0.509 0-0.763-0.013c-1.018 1.54-2.946 2.585-5.17 2.585-3.281 0-5.933-2.277-5.933-5.076 0-1.152 0.442-2.21 1.192-3.067-0.844-1.406-1.326-3.013-1.326-4.714 0-5.679 5.371-10.286 12-10.286s12 4.607 12 10.286z"></path>
</svg>
