<!-- Generated by IcoMoon.io -->
<svg version="1.1" xmlns="http://www.w3.org/2000/svg" width="24" height="24" viewBox="0 0 24 24">
<path d="M12.696 13.768l2.183 4.406h-0.683l-2.344-4.688-2.29 4.688h-0.656l2.397-5.009-1.045-0.442 0.281-0.656 3.214 1.366-0.281 0.67zM7.54 5.839l4.071 1.741-1.741 4.071-4.071-1.741zM12.147 8.317l3.214 1.379-1.379 3.201-3.201-1.366zM15.911 10.326l2.558 1.085-1.098 2.545-2.545-1.085zM22.5 12c0-5.786-4.714-10.5-10.5-10.5s-10.5 4.714-10.5 10.5 4.714 10.5 10.5 10.5 10.5-4.714 10.5-10.5zM24 12c0 6.616-5.384 12-12 12s-12-5.384-12-12 5.384-12 12-12 12 5.384 12 12z"></path>
</svg>
