<!-- Generated by IcoMoon.io -->
<svg version="1.1" xmlns="http://www.w3.org/2000/svg" width="21" height="24" viewBox="0 0 21 24">
<path d="M6.897 12.201v1.714h-3.375v-1.714h3.375zM6.897 8.786v1.701h-3.375v-1.701h3.375zM17.049 15.629v1.714h-4.567v-1.714h4.567zM17.049 12.201v1.714h-9v-1.714h9zM17.049 8.786v1.701h-9v-1.701h9zM18.857 20.304v-16.607c0-0.147-0.121-0.268-0.268-0.268h-0.429l-5.063 3.429-2.813-2.29-2.813 2.29-5.063-3.429h-0.429c-0.147 0-0.268 0.121-0.268 0.268v16.607c0 0.147 0.121 0.268 0.268 0.268h16.607c0.147 0 0.268-0.121 0.268-0.268zM7.406 5.438l2.478-2.009h-5.438zM13.165 5.438l2.96-2.009h-5.438zM20.571 3.696v16.607c0 1.098-0.884 1.982-1.982 1.982h-16.607c-1.098 0-1.982-0.884-1.982-1.982v-16.607c0-1.098 0.884-1.982 1.982-1.982h16.607c1.098 0 1.982 0.884 1.982 1.982z"></path>
</svg>
