<!-- Generated by IcoMoon.io -->
<svg version="1.1" xmlns="http://www.w3.org/2000/svg" width="23" height="24" viewBox="0 0 23 24">
<path d="M5.143 19.714c0-0.469-0.388-0.857-0.857-0.857s-0.857 0.388-0.857 0.857 0.388 0.857 0.857 0.857 0.857-0.388 0.857-0.857zM13.768 14.089l-9.134 9.134c-0.308 0.308-0.75 0.496-1.205 0.496s-0.897-0.188-1.219-0.496l-1.42-1.446c-0.321-0.308-0.509-0.75-0.509-1.205s0.188-0.897 0.509-1.219l9.121-9.121c0.696 1.754 2.103 3.161 3.857 3.857zM22.259 8.263c0 0.442-0.161 0.991-0.308 1.42-0.844 2.384-3.134 4.031-5.665 4.031-3.308 0-6-2.692-6-6s2.692-6 6-6c0.978 0 2.25 0.295 3.067 0.844 0.134 0.094 0.214 0.214 0.214 0.375 0 0.147-0.094 0.295-0.214 0.375l-3.924 2.263v3l2.585 1.433c0.442-0.254 3.549-2.21 3.817-2.21s0.429 0.201 0.429 0.469z"></path>
</svg>
