<!-- Generated by IcoMoon.io -->
<svg version="1.1" xmlns="http://www.w3.org/2000/svg" width="19" height="24" viewBox="0 0 19 24">
<path d="M7.996 8.933c0 0-0.134 0.228-3.442 6.107-0.174 0.295-0.402 0.616-0.871 0.616h-3.201c-0.188 0-0.335-0.094-0.415-0.228s-0.094-0.308 0-0.482l3.388-6c0.013 0 0.013 0 0-0.013l-2.156-3.737c-0.094-0.174-0.107-0.362-0.013-0.496 0.080-0.134 0.241-0.201 0.429-0.201h3.201c0.482 0 0.723 0.321 0.884 0.603 2.183 3.817 2.196 3.83 2.196 3.83zM18.79 0.335c0.094 0.134 0.094 0.321 0 0.496l-7.071 12.509c-0.013 0-0.013 0.013 0 0.013l4.5 8.237c0.094 0.174 0.094 0.362 0.013 0.496-0.094 0.134-0.241 0.201-0.429 0.201h-3.201c-0.482 0-0.737-0.321-0.884-0.603-4.54-8.317-4.54-8.33-4.54-8.33s0.228-0.402 7.112-12.616c0.174-0.308 0.375-0.603 0.857-0.603h3.228c0.188 0 0.335 0.067 0.415 0.201z"></path>
</svg>
