<!-- Generated by IcoMoon.io -->
<svg version="1.1" xmlns="http://www.w3.org/2000/svg" width="21" height="24" viewBox="0 0 21 24">
<path d="M9.174 10.246c0 0 0-0.013-1.687-2.973-0.134-0.214-0.321-0.455-0.696-0.455h-2.464c-0.161 0-0.281 0.054-0.348 0.147-0.067 0.107-0.054 0.254 0.013 0.388l1.674 2.893v0.013l-2.625 4.634c-0.080 0.134-0.067 0.268 0 0.375s0.174 0.174 0.321 0.174h2.478c0.362 0 0.549-0.254 0.67-0.482 2.571-4.54 2.665-4.714 2.665-4.714zM17.531 3.589c-0.067-0.107-0.174-0.161-0.321-0.161h-2.504c-0.362 0-0.522 0.228-0.656 0.469-5.33 9.455-5.504 9.763-5.504 9.763s0 0.013 3.509 6.442c0.121 0.214 0.308 0.469 0.696 0.469h2.464c0.147 0 0.268-0.054 0.335-0.161s0.067-0.241-0.013-0.375l-3.482-6.375v-0.013l5.478-9.683c0.067-0.134 0.067-0.268 0-0.375zM20.571 5.571v12.857c0 2.129-1.728 3.857-3.857 3.857h-12.857c-2.129 0-3.857-1.728-3.857-3.857v-12.857c0-2.129 1.728-3.857 3.857-3.857h12.857c2.129 0 3.857 1.728 3.857 3.857z"></path>
</svg>
