<!-- Generated by IcoMoon.io -->
<svg version="1.1" xmlns="http://www.w3.org/2000/svg" width="21" height="24" viewBox="0 0 21 24">
<path d="M10.353 17.665v1.701c-0.013 3.777-0.013 3.911-0.080 4.085-0.107 0.281-0.348 0.469-0.683 0.536-0.964 0.161-3.978-0.951-4.607-1.701-0.134-0.147-0.201-0.321-0.228-0.482-0.013-0.121 0.013-0.241 0.054-0.348 0.067-0.188 0.188-0.335 2.879-3.522 0 0 0.013 0 0.804-0.938 0.268-0.335 0.75-0.442 1.192-0.281 0.442 0.174 0.683 0.549 0.67 0.951zM8.357 14.304c-0.027 0.469-0.295 0.817-0.696 0.938l-1.607 0.522c-3.603 1.152-3.723 1.179-3.911 1.179-0.295-0.013-0.562-0.188-0.723-0.482-0.107-0.214-0.188-0.576-0.228-1.004-0.147-1.313 0.027-3.281 0.415-3.897 0.188-0.295 0.455-0.442 0.75-0.429 0.201 0 0.362 0.080 4.246 1.661 0 0-0.013 0.013 1.125 0.455 0.402 0.161 0.656 0.576 0.629 1.058zM19.42 18.281c-0.134 0.964-2.129 3.496-3.040 3.857-0.308 0.121-0.616 0.094-0.844-0.094-0.161-0.121-0.321-0.362-2.464-3.844l-0.629-1.031c-0.241-0.375-0.201-0.857 0.107-1.232 0.295-0.362 0.723-0.482 1.112-0.348 0 0 0.013 0.013 1.594 0.536 3.603 1.179 3.723 1.219 3.871 1.339 0.241 0.188 0.348 0.469 0.295 0.817zM10.42 9.817c0.067 1.393-0.522 1.567-0.723 1.634-0.188 0.054-0.777 0.228-1.527-0.951-4.929-7.781-5.063-8.009-5.063-8.009-0.067-0.281 0.013-0.589 0.254-0.83 0.737-0.763 4.741-1.888 5.786-1.621 0.335 0.080 0.576 0.295 0.656 0.603 0.054 0.335 0.536 7.554 0.616 9.174zM19.286 11.263c0.027 0.335-0.094 0.616-0.348 0.79-0.161 0.107-0.321 0.161-4.406 1.152-0.656 0.147-1.018 0.241-1.219 0.308l0.013-0.027c-0.402 0.107-0.857-0.080-1.112-0.482s-0.241-0.844 0-1.165c0 0 0.013-0.013 1.004-1.366 2.196-3 2.304-3.147 2.464-3.254 0.254-0.174 0.563-0.174 0.871-0.027 0.871 0.415 2.625 3.027 2.732 4.031v0.040z"></path>
</svg>
