<!-- Generated by IcoMoon.io -->
<svg version="1.1" xmlns="http://www.w3.org/2000/svg" width="22" height="24" viewBox="0 0 22 24">
<path d="M4.54 2.92h9.254l-0.348 0.964h-8.906c-1.969 0-3.576 1.621-3.576 3.589v10.326c0 1.688 1.205 3.174 2.866 3.522 0.429 0.094 0.871 0.067 1.313 0.067v0.964h-0.603c-2.504 0-4.54-2.049-4.54-4.554v-10.326c0-2.504 2.036-4.554 4.54-4.554zM15.938 0h3.308l-6.455 17.33c-1.205 3.214-2.665 6.563-6.629 6.67v-2.612c1.487-0.241 2.438-1.058 2.946-2.438 0.174-0.455 0.268-0.924 0.268-1.406s-0.094-0.964-0.268-1.42l-3.817-9.817h3.054l2.504 7.835zM22.286 7.473v14.879h-10.647c0.214-0.321 0.442-0.629 0.603-0.978h9.080v-13.902c0-1.527-0.964-2.893-2.397-3.402l0.335-0.897c1.821 0.616 3.027 2.384 3.027 4.299z"></path>
</svg>
