<!-- Generated by IcoMoon.io -->
<svg version="1.1" xmlns="http://www.w3.org/2000/svg" width="21" height="24" viewBox="0 0 21 24">
<path d="M12.308 17.451v-2.103c0-0.442-0.134-0.67-0.388-0.67-0.147 0-0.295 0.067-0.442 0.214v3c0.147 0.147 0.295 0.214 0.442 0.214 0.254 0 0.388-0.214 0.388-0.656zM14.772 15.817h0.884v-0.455c0-0.455-0.147-0.683-0.442-0.683s-0.442 0.228-0.442 0.683v0.455zM7.125 12.254v0.938h-1.071v5.665h-0.991v-5.665h-1.045v-0.938h3.107zM9.817 13.942v4.915h-0.897v-0.536c-0.348 0.402-0.683 0.603-1.018 0.603-0.281 0-0.482-0.121-0.563-0.375-0.054-0.147-0.080-0.375-0.080-0.723v-3.884h0.884v3.616c0 0.201 0 0.321 0.013 0.348 0.013 0.134 0.080 0.201 0.201 0.201 0.188 0 0.362-0.134 0.563-0.415v-3.75h0.897zM13.192 15.429v1.955c0 0.442-0.027 0.777-0.094 0.978-0.107 0.375-0.348 0.563-0.71 0.563-0.308 0-0.616-0.188-0.911-0.549v0.482h-0.897v-6.603h0.897v2.156c0.281-0.348 0.589-0.536 0.911-0.536 0.362 0 0.603 0.188 0.71 0.563 0.067 0.201 0.094 0.522 0.094 0.991zM16.554 17.156v0.121c0 0.295-0.013 0.482-0.027 0.576-0.027 0.201-0.094 0.375-0.201 0.536-0.241 0.362-0.616 0.536-1.071 0.536-0.469 0-0.83-0.174-1.085-0.509-0.188-0.241-0.281-0.629-0.281-1.152v-1.728c0-0.522 0.080-0.897 0.268-1.152 0.254-0.335 0.616-0.509 1.071-0.509 0.442 0 0.804 0.174 1.045 0.509 0.188 0.254 0.281 0.629 0.281 1.152v1.018h-1.781v0.871c0 0.455 0.147 0.683 0.455 0.683 0.214 0 0.348-0.121 0.402-0.348 0-0.054 0.013-0.254 0.013-0.603h0.911zM10.513 6.121v2.089c0 0.455-0.147 0.683-0.429 0.683-0.295 0-0.429-0.228-0.429-0.683v-2.089c0-0.455 0.134-0.696 0.429-0.696 0.281 0 0.429 0.241 0.429 0.696zM17.652 15.67v0c0-1.152 0-2.371-0.254-3.482-0.188-0.79-0.83-1.366-1.594-1.446-1.821-0.201-3.67-0.201-5.518-0.201-1.835 0-3.683 0-5.504 0.201-0.777 0.080-1.42 0.656-1.594 1.446-0.254 1.112-0.268 2.33-0.268 3.482v0c0 1.138 0 2.357 0.268 3.482 0.174 0.777 0.817 1.353 1.58 1.446 1.835 0.201 3.683 0.201 5.518 0.201s3.683 0 5.518-0.201c0.763-0.094 1.406-0.67 1.58-1.446 0.268-1.125 0.268-2.344 0.268-3.482zM7.54 6.951l1.205-3.964h-1.004l-0.683 2.612-0.71-2.612h-1.045c0.201 0.616 0.429 1.232 0.629 1.848 0.321 0.938 0.522 1.634 0.616 2.116v2.692h0.991v-2.692zM11.411 8.036v-1.741c0-0.522-0.094-0.911-0.281-1.165-0.254-0.335-0.603-0.509-1.045-0.509-0.455 0-0.804 0.174-1.045 0.509-0.188 0.254-0.281 0.643-0.281 1.165v1.741c0 0.522 0.094 0.911 0.281 1.165 0.241 0.335 0.589 0.509 1.045 0.509 0.442 0 0.79-0.174 1.045-0.509 0.188-0.241 0.281-0.643 0.281-1.165zM13.835 9.643h0.897v-4.955h-0.897v3.79c-0.201 0.281-0.388 0.415-0.563 0.415-0.121 0-0.201-0.067-0.214-0.214-0.013-0.027-0.013-0.134-0.013-0.348v-3.643h-0.897v3.924c0 0.348 0.027 0.576 0.080 0.737 0.094 0.241 0.295 0.362 0.576 0.362 0.335 0 0.67-0.201 1.031-0.603v0.536zM20.571 5.571v12.857c0 2.129-1.728 3.857-3.857 3.857h-12.857c-2.129 0-3.857-1.728-3.857-3.857v-12.857c0-2.129 1.728-3.857 3.857-3.857h12.857c2.129 0 3.857 1.728 3.857 3.857z"></path>
</svg>
